<?xml version="1.0" encoding="utf-8"?>
<!-- Generator: Adobe Illustrator 16.0.0, SVG Export Plug-In . SVG Version: 6.00 Build 0)  -->
<!DOCTYPE svg PUBLIC "-//W3C//DTD SVG 1.1//EN" "http://www.w3.org/Graphics/SVG/1.1/DTD/svg11.dtd">
<svg version="1.1" id="Layer_1" xmlns="http://www.w3.org/2000/svg" xmlns:xlink="http://www.w3.org/1999/xlink" x="0px" y="0px"
	 width="66.334px" height="88.5px" viewBox="0 0 66.334 88.5" enable-background="new 0 0 66.334 88.5" xml:space="preserve">
<g>
	<g>
		<path fill="#66ABC6" d="M12.825,83.627c-1.895,0-3.502-0.66-4.825-1.982c-1.322-1.322-1.982-2.932-1.982-4.826V11.852
			c0-1.928,0.661-3.543,1.982-4.848c1.322-1.307,2.93-1.959,4.825-1.959h40.631c1.929,0,3.556,0.652,4.877,1.959
			c1.321,1.305,1.983,2.92,1.983,4.848v64.967c0,1.895-0.662,3.504-1.983,4.826c-1.322,1.322-2.948,1.982-4.877,1.982H12.825z
			 M12.825,80.303h40.631c1,0,1.84-0.33,2.519-0.99c0.68-0.662,1.019-1.492,1.019-2.494V11.852c0-0.998-0.339-1.828-1.019-2.49
			c-0.679-0.662-1.519-0.992-2.519-0.992H12.825c-0.965,0-1.788,0.33-2.466,0.992c-0.679,0.662-1.018,1.492-1.018,2.49v64.967
			c0,1.002,0.339,1.832,1.018,2.494C11.037,79.973,11.859,80.303,12.825,80.303z M12.45,17.75c0-1.932,0.661-3.547,1.983-4.852
			c1.322-1.305,2.93-1.957,4.824-1.957h27.767c1.93,0,3.555,0.652,4.877,1.957s1.984,2.92,1.984,4.852v53.172
			c0,1.896-0.662,3.504-1.984,4.824c-1.322,1.324-2.948,1.984-4.877,1.984H19.256c-1.894,0-3.502-0.66-4.824-1.984
			c-1.322-1.32-1.983-2.928-1.983-4.824V17.75z M15.772,22.412v43.793c2.073,0,3.948,0.84,5.628,2.52
			c1.679,1.682,2.52,3.574,2.52,5.682h18.493c0-2.107,0.839-4,2.519-5.682c1.68-1.68,3.555-2.52,5.629-2.52V22.412
			c-2.074,0-3.949-0.838-5.629-2.52c-1.68-1.678-2.519-3.553-2.519-5.627H23.92c0,2.074-0.841,3.949-2.52,5.627
			C19.721,21.574,17.845,22.412,15.772,22.412z M15.772,19.09c1.143,0,2.233-0.508,3.27-1.527c1.036-1.02,1.555-2.119,1.555-3.297
			h-1.341c-0.965,0-1.787,0.328-2.465,0.992c-0.679,0.66-1.019,1.492-1.019,2.492V19.09z M15.772,69.529v1.393
			c0,1.002,0.34,1.832,1.019,2.494c0.679,0.66,1.5,0.99,2.465,0.99h1.341c0-1.213-0.519-2.33-1.555-3.35
			C18.005,70.039,16.916,69.529,15.772,69.529z M50.561,19.09v-1.34c0-1-0.34-1.832-1.018-2.492c-0.68-0.664-1.52-0.992-2.52-0.992
			h-1.287c0,1.178,0.518,2.277,1.555,3.297C48.327,18.582,49.417,19.09,50.561,19.09z M45.736,74.406h1.287c1,0,1.84-0.33,2.52-0.99
			c0.678-0.662,1.018-1.492,1.018-2.494v-1.393c-1.144,0-2.234,0.51-3.27,1.527C46.254,72.076,45.736,73.193,45.736,74.406z"/>
	</g>
</g>
</svg>
