<?xml version="1.0" encoding="utf-8"?>
<!-- Generator: Adobe Illustrator 16.0.0, SVG Export Plug-In . SVG Version: 6.00 Build 0)  -->
<!DOCTYPE svg PUBLIC "-//W3C//DTD SVG 1.1//EN" "http://www.w3.org/Graphics/SVG/1.1/DTD/svg11.dtd">
<svg version="1.1" id="Layer_1" xmlns="http://www.w3.org/2000/svg" xmlns:xlink="http://www.w3.org/1999/xlink" x="0px" y="0px"
	 width="66.334px" height="88.5px" viewBox="0 0 66.334 88.5" enable-background="new 0 0 66.334 88.5" xml:space="preserve">
<g>
	<g>
		<path fill="#A8DADC" d="M5.562,49.268c3.68-4.288,7.003-9.039,9.969-14.258l-4.662-8.309c1.858,0,4.11,1.27,6.753,3.806
			c1.286-2.215,2.333-4.207,3.137-5.976c0.805-1.77,1.312-3.439,1.526-5.014c-1.356,1.36-2.911,2.037-4.663,2.037
			c-0.894-0.141-2.269-0.82-4.127-2.037l9.703-4.663c0.535,0,1.322,0.332,2.356,0.993c1.037,0.66,1.983,1.356,2.842,2.091
			c0.856,0.732,1.286,1.258,1.286,1.579c-2.179,2.11-4.537,5.487-7.076,10.132c-2.535,4.646-5.341,8.863-8.414,12.649
			C11.083,46.088,8.207,48.411,5.562,49.268z M18.319,74.675c-0.928,0-1.795-0.688-2.599-2.062
			c-0.804-1.376-1.457-2.922-1.958-4.638c-0.499-1.715-0.75-3.18-0.75-4.396c2.752,3.146,4.486,4.717,5.2,4.717
			c0.321,0,0.973-0.945,1.957-2.84c0.981-1.894,1.687-4.681,2.115-8.363c-1.822,0-4.019,1.253-6.593,3.753
			c-0.429,0.43-0.784,0.242-1.071-0.562c-0.284-0.804-0.429-1.422-0.429-1.851c0-0.893,0.196-1.571,0.589-2.037l5.521-5.949
			c-3.68,0.965-5.931,0.769-6.755-0.591c1.11-0.07,2.182-0.375,3.217-0.91c1.036-0.536,2.198-1.196,3.485-1.983
			c0.572-0.678,1.948-3.341,4.127-7.987c-1.966,1.574-3.413,2.359-4.342,2.359c-0.429,0-0.769-0.125-1.019-0.376l-2.092-1.34
			c1.823-0.535,3.289-1.081,4.396-1.634c1.109-0.556,2.082-1.135,2.922-1.743c0.838-0.607,1.455-0.912,1.849-0.912
			c0.929,0,1.913,1.003,2.948,3.003c0.25,0.357-0.026,1.1-0.83,2.225c-0.805,1.126-1.832,2.85-3.084,5.172
			c1.681-0.285,2.808-0.07,3.379,0.644c0.678,0.965-0.537,1.842-3.646,2.626c-1.036,0.966-2.01,2.028-2.921,3.19
			c-0.911,1.16-1.672,2.351-2.279,3.564l3.323-1.823c0.93,0,2.485,1.501,4.664,4.503c-0.036,0.251-0.321,0.564-0.858,0.938
			c-0.535,0.376-0.874,0.957-1.019,1.741C24.126,70.12,21.643,74.641,18.319,74.675z M48.712,75.533
			c-0.322,0-1.554-0.883-3.698-2.652c-2.144-1.768-4.592-4.081-7.343-6.942c-3.254,3.968-6.415,5.949-9.489,5.949
			c-0.928,0-1.732-0.177-2.412-0.535c4.039-1.32,7.147-3.698,9.327-7.129l-5.414-5.146c3.825,1.215,6.237,2.073,7.237,2.572
			c1.572-3.538,2.341-6.325,2.304-8.361c-1.072,0.32-2.16,0.857-3.269,1.608c-1.144,0.786-2.306,1.285-3.485,1.5
			c-0.928,0.18-2.215-0.429-3.859-1.822c1.502,0.073,5.271-1.251,11.311-3.967c0.358-0.178,1.306,0.527,2.841,2.118
			c1.537,1.589,2.145,2.599,1.823,3.028c-0.714,0.893-1.447,1.949-2.199,3.162c-0.75,1.215-1.571,2.556-2.465,4.021
			c2.287,0.857,4.433,1.983,6.433,3.377c2.001,1.394,3.171,2.832,3.512,4.315c0.339,1.481,0.365,2.618,0.08,3.403
			C49.588,75.034,49.178,75.533,48.712,75.533z M51.981,44.765c-2.179,0-5.108-3.036-8.791-9.112l-5.36-8.951
			c-3.93,2.395-7.325,3.896-10.184,4.502l8.79-6.539c-0.82-1.072-1.6-1.947-2.33-2.627c-0.733-0.677-1.492-1.303-2.279-1.876
			c1.822-1.072,2.732-2.393,2.732-3.967c0-0.57-0.463-1.232-1.393-1.982c1.25-0.715,2.073-1.073,2.465-1.073
			c0.43,0,1.063,0.297,1.904,0.887c0.84,0.589,1.867,1.098,3.082,1.526c-1.395,0.857-3.217,2.271-5.467,4.234
			c1.356,1.216,2.483,2.412,3.376,3.591c1.895-1.427,3.271-2.821,4.127-4.181c0.429-0.714-0.482-1.268-2.733-1.661
			c2.145-0.536,3.575-0.805,4.289-0.805c1.393,0,2.429,0.502,3.107,1.501l1.771,2.412c-2.001,0.287-5.057,1.859-9.167,4.717
			c5.397,8.185,12.348,14.205,20.851,18.064c-1.142,0-2.625,0.233-4.448,0.697c-0.928,0.214-1.768,0.375-2.52,0.481
			C53.053,44.712,52.446,44.765,51.981,44.765z M27.913,52.484c2.467-3.572,3.699-7.629,3.699-12.167
			c0-1.214-0.115-2.092-0.347-2.627c-0.233-0.536-0.35-0.875-0.35-1.019c0-0.107,0.34-0.161,1.018-0.161
			c0.252,0,0.823,0.161,1.716,0.482c0.535,0.181,1.118,0.17,1.744-0.025c0.622-0.197,1.33-0.527,2.115-0.993
			c1.036-0.644,1.841-0.964,2.412-0.964c0.466,0,1.01,0.35,1.636,1.046c0.625,0.696,0.938,1.277,0.938,1.74
			c-1.431,1.538-2.145,3.699-2.145,6.486c0,1.323,0.394,1.984,1.18,1.984c0.929,0,1.947-0.5,3.056-1.502
			c0.213-0.215,0.474-0.285,0.777-0.215c0.304,0.073,0.892,0.618,1.769,1.637c0.875,1.018,0.975,1.67,0.295,1.955
			c-1.215,0.43-3.412,0.805-6.593,1.126c-1.001,0.107-1.832-0.17-2.492-0.83c-0.662-0.663-0.993-1.545-0.993-2.654
			c0-1.106,0.116-2.358,0.35-3.752c0.231-1.394,0.598-2.733,1.098-4.021c-1.644,0.75-3.056,1.199-4.235,1.341
			c0,6.611-1.393,10.579-4.18,11.899L27.913,52.484z"/>
	</g>
</g>
</svg>
