<?xml version="1.0" encoding="utf-8"?>
<!-- Generator: Adobe Illustrator 16.0.0, SVG Export Plug-In . SVG Version: 6.00 Build 0)  -->
<!DOCTYPE svg PUBLIC "-//W3C//DTD SVG 1.1//EN" "http://www.w3.org/Graphics/SVG/1.1/DTD/svg11.dtd">
<svg version="1.1" id="Layer_1" xmlns="http://www.w3.org/2000/svg" xmlns:xlink="http://www.w3.org/1999/xlink" x="0px" y="0px"
	 width="66.334px" height="88.5px" viewBox="0 0 66.334 88.5" enable-background="new 0 0 66.334 88.5" xml:space="preserve">
<g>
	<g>
		<path fill="#E63946" d="M57.527,64.872c-4.033-2.865-6.634-4.299-7.801-4.299c-2.866,0.568-7.518,1.168-13.957,1.805l0.159-2.389
			l1.434-0.212c1.555-0.212,2.635-0.088,3.236,0.371c0.671,0.567,1.839-0.281,3.503-2.547c1.131-1.556,2.21-2.565,3.236-3.023
			c1.097-0.496,1.539-0.866,1.327-1.115c-0.85-0.99-1.743-1.874-2.68-2.654c-0.938-0.776-1.814-1.166-2.627-1.166
			c-0.142,0-1.557,0.221-4.245,0.662c-2.689,0.443-6.633,1.053-11.834,1.831c-0.424,0-1.053-0.122-1.883-0.371
			c-0.832-0.246-1.778-0.371-2.839-0.371c-1.167,0-1.857,0.246-2.07,0.742c-0.212,0.39,0.053,0.814,0.796,1.273
			c0.744,0.461,1.256,0.974,1.54,1.54c0.424,0.885,0.937,1.998,1.538,3.342c0.601,1.345,1.397,2.514,2.389,3.504
			c0.353,0.425,0.601,0.637,0.742,0.637c0.248,0,0.813-0.249,1.699-0.744c1.237-0.708,2.441-1.132,3.608-1.272v2.388
			c-5.271,0.92-9.233,1.61-11.887,2.069c-0.46-1.274-0.938-2.141-1.433-2.602c-0.708-0.67-2-0.937-3.874-0.795
			c-0.814,0.07-0.938,0.636-0.372,1.698l1.167,2.493c-2.583,0.355-4.679,0.407-6.288,0.161c-1.611-0.249-2.274-0.089-1.99,0.476
			c1.062,2.301,2.298,3.416,3.714,3.345c1.168-0.036,2.9-0.619,5.201-1.752l2.76,7.854c0.459,1.239,1.248,2.06,2.361,2.468
			c1.115,0.407,1.848,0.608,2.202,0.608c0.566,0,0.911-0.229,1.036-0.688c0.123-0.461,0.186-0.921,0.186-1.381
			c0-0.672-0.238-1.662-0.716-2.972c-0.478-1.309-1.008-2.627-1.592-3.953c-0.583-1.328-1.053-2.361-1.406-3.105
			c3.749-1.062,7.393-1.785,10.931-2.174v3.023l-6.898,0.848c-0.85,0.108-0.142,1.115,2.123,3.026
			c0.601,0.461,1.131,0.69,1.592,0.69c0.707-0.213,4.527-1.84,11.461-4.883c0.813,1.911,1.504,2.865,2.07,2.865
			c0.956,0,1.592-0.425,1.91-1.274c0.425-1.095,0.159-1.961-0.796-2.599l-3.926-2.654l5.518-0.637
			c3.184-0.283,4.333,0.496,3.449,2.335c-2.795,5.943-4.635,8.916-5.519,8.916c-0.602,0-2.034-0.406-4.298-1.221
			c-1.522-0.566-2.459-0.849-2.812-0.849c-0.566,0-0.442,0.317,0.372,0.954c2.335,1.842,3.59,3.282,3.768,4.324
			c0.175,1.045,0.494,1.567,0.955,1.567c2.052-0.037,3.944-0.69,5.679-1.964c1.733-1.273,3.537-3.237,5.412-5.89
			c2.017-2.866,3.467-4.406,4.352-4.618C58.517,66.165,58.622,65.615,57.527,64.872z M36.141,56.276
			c2.37-0.319,3.556-0.762,3.556-1.327c0-0.884-1.115-0.991-3.343-0.319c0.07-0.317,0.283-0.645,0.637-0.982
			c0.353-0.334,0.088-0.785-0.796-1.354c1.839-0.425,3.006-0.637,3.502-0.637c1.379,0,2.069,0.586,2.069,1.752
			c0,0.673-0.69,2.142-2.069,4.404l-3.768,0.585L36.141,56.276z M28.711,60.148c-1.38-2.972-2.069-5.021-2.069-6.156l6.155-1.166
			v2.281c-1.31,0.39-2.901,0.583-4.776,0.583c0.956,1.169,1.663,1.752,2.123,1.752l2.653-0.637l0.053,2.017
			C31.258,59.176,29.879,59.618,28.711,60.148z M40.705,66.569l-5.095,0.69v-2.972l3.343-0.478L40.705,66.569z"/>
		<path fill="#66ABC6" d="M13.136,20.321c1.468,0.939,2.574,1.407,3.317,1.407c2.122,0,5.324-0.742,9.605-2.229
			c2.086-0.707,4.856-1.281,8.305-1.726c3.45-0.441,7.491-0.662,12.125-0.662c3.538,0,6.81,0.09,9.818,0.266
			c0.743,0.036,1.114-0.213,1.114-0.744c0-0.918-0.805-1.865-2.414-2.839c-1.611-0.972-2.884-1.98-3.821-3.024
			c-0.938-1.042-1.903-1.334-2.893-0.875c-2.547,1.201-7.748,2.388-15.602,3.555c-5.837,0.921-10.631,1.629-14.381,2.122
			c-3.75,0.498-6.686,0.745-8.809,0.745C10.457,18.05,11.668,19.386,13.136,20.321z"/>
		<path fill="#E63946" d="M43.543,39.187c-0.938-0.884-1.937-1.637-2.998-2.256c-1.062-0.617-1.982-0.945-2.76-0.981
			c-0.955,0-1.99,0.364-3.104,1.089s-2.698,2.219-4.749,4.483c-0.992-2.193-3.184-3.662-6.58-4.403
			c1.167,2.263,1.865,3.758,2.095,4.482c0.23,0.728,0.362,1.406,0.398,2.044c0.071,1.556,1.115,2.335,3.131,2.335
			c0.919,0,2.263-1.291,4.033-3.875c1.911-2.652,3.484-4.155,4.722-4.509c1.309,0.212,1.557,1.149,0.744,2.812
			c-0.461,0.955-1,1.921-1.618,2.892c-0.62,0.974-1.443,1.955-2.468,2.946l-9.977,1.752c-0.955,0.212-1.008,0.565-0.159,1.061
			c1.167,0.708,1.821,1.062,1.963,1.062c0.213,0,1.07-0.116,2.575-0.345c1.502-0.229,3.015-0.487,4.537-0.771
			c4.245-0.744,7.217-1.131,8.915-1.168c1.415,0,2.123-0.317,2.123-0.954c0-0.6-0.301-1.124-0.902-1.565
			c-0.602-0.441-1.292-0.574-2.07-0.399l-5.041,1.008l8.278-4.933C44.843,40.673,44.48,40.073,43.543,39.187z"/>
	</g>
</g>
</svg>
