<?xml version="1.0" encoding="utf-8"?>
<!-- Generator: Adobe Illustrator 16.0.0, SVG Export Plug-In . SVG Version: 6.00 Build 0)  -->
<!DOCTYPE svg PUBLIC "-//W3C//DTD SVG 1.1//EN" "http://www.w3.org/Graphics/SVG/1.1/DTD/svg11.dtd">
<svg version="1.1" id="Layer_1" xmlns="http://www.w3.org/2000/svg" xmlns:xlink="http://www.w3.org/1999/xlink" x="0px" y="0px"
	 width="66.334px" height="88.5px" viewBox="0 0 66.334 88.5" enable-background="new 0 0 66.334 88.5" xml:space="preserve">
<g>
	<g>
		<path fill="#E63946" d="M43.342,43.061c-0.938-0.883-1.937-1.636-2.998-2.255c-1.062-0.617-1.982-0.945-2.76-0.981
			c-0.955,0-1.99,0.364-3.104,1.089c-1.115,0.725-2.699,2.219-4.75,4.482c-0.991-2.192-3.184-3.661-6.581-4.403
			c1.168,2.264,1.866,3.758,2.096,4.483c0.23,0.727,0.362,1.406,0.399,2.043c0.07,1.557,1.114,2.335,3.13,2.335
			c0.919,0,2.264-1.291,4.033-3.875c1.91-2.652,3.483-4.154,4.724-4.508c1.309,0.212,1.556,1.148,0.743,2.811
			c-0.461,0.956-1,1.921-1.618,2.892c-0.62,0.974-1.443,1.956-2.468,2.946l-9.978,1.752c-0.956,0.213-1.008,0.566-0.158,1.062
			c1.167,0.707,1.819,1.062,1.962,1.062c0.213,0,1.07-0.117,2.575-0.346c1.503-0.229,3.014-0.486,4.536-0.77
			c4.245-0.744,7.218-1.132,8.916-1.168c1.415,0,2.122-0.317,2.122-0.955c0-0.6-0.302-1.123-0.902-1.564
			c-0.603-0.442-1.291-0.574-2.069-0.399L36.15,49.8l8.279-4.934C44.642,44.547,44.279,43.947,43.342,43.061z"/>
		<path fill="#66ABC6" d="M26.863,14.512c1.876,0,4.051-0.327,6.527-0.98c2.477-0.655,4.715-1.319,6.714-1.991
			c1.997-0.672,2.696-1.31,2.097-1.91c-1.487-1.626-2.681-2.671-3.584-3.132c-0.9-0.458-1.636-0.688-2.201-0.688
			c-0.496,0-1.079,0.212-1.75,0.637c-5.096,3.396-8.794,5.111-11.092,5.146c-1.167,0-1.468,0.319-0.901,0.956
			C23.696,13.858,25.095,14.512,26.863,14.512z"/>
		<path fill="#E63946" d="M57.326,68.747c-4.034-2.865-6.635-4.3-7.802-4.3c-2.865,0.568-7.518,1.169-13.957,1.805l0.158-2.388
			l1.434-0.213c1.557-0.212,2.637-0.087,3.237,0.371c0.672,0.568,1.838-0.28,3.503-2.547c1.131-1.555,2.21-2.564,3.237-3.023
			c1.096-0.495,1.537-0.865,1.326-1.114c-0.85-0.991-1.744-1.875-2.68-2.654c-0.938-0.776-1.813-1.167-2.627-1.167
			c-0.143,0-1.559,0.222-4.245,0.662c-2.69,0.444-6.634,1.053-11.835,1.831c-0.424,0-1.053-0.121-1.882-0.37
			c-0.831-0.247-1.778-0.371-2.841-0.371c-1.167,0-1.857,0.246-2.069,0.741c-0.212,0.391,0.054,0.815,0.796,1.274
			c0.742,0.461,1.256,0.974,1.539,1.539c0.424,0.886,0.938,1.998,1.539,3.343c0.601,1.345,1.396,2.513,2.389,3.504
			c0.353,0.424,0.601,0.636,0.741,0.636c0.248,0,0.814-0.249,1.699-0.743c1.236-0.708,2.441-1.133,3.607-1.273v2.388
			c-5.271,0.92-9.232,1.61-11.887,2.07c-0.46-1.274-0.937-2.141-1.432-2.602c-0.708-0.671-2.001-0.937-3.874-0.796
			c-0.814,0.071-0.938,0.637-0.371,1.698l1.166,2.494c-2.581,0.355-4.679,0.407-6.286,0.16c-1.612-0.249-2.275-0.088-1.992,0.477
			c1.062,2.301,2.301,3.415,3.716,3.345c1.168-0.037,2.9-0.62,5.2-1.752l2.759,7.854c0.46,1.239,1.248,2.061,2.362,2.468
			c1.114,0.408,1.849,0.609,2.202,0.609c0.565,0,0.909-0.229,1.036-0.688c0.122-0.461,0.184-0.92,0.184-1.381
			c0-0.671-0.238-1.661-0.716-2.971s-1.008-2.627-1.592-3.954s-1.054-2.361-1.405-3.105c3.748-1.061,7.394-1.785,10.93-2.174v3.023
			L25.698,72.3c-0.85,0.107-0.144,1.115,2.121,3.025c0.602,0.462,1.132,0.691,1.592,0.691c0.708-0.213,4.529-1.841,11.463-4.883
			c0.813,1.91,1.501,2.864,2.068,2.864c0.957,0,1.594-0.425,1.912-1.274c0.424-1.095,0.159-1.961-0.798-2.598l-3.925-2.654
			l5.518-0.637c3.187-0.283,4.335,0.495,3.449,2.334c-2.794,5.944-4.634,8.916-5.518,8.916c-0.603,0-2.035-0.405-4.299-1.221
			c-1.522-0.565-2.459-0.848-2.812-0.848c-0.566,0-0.442,0.316,0.371,0.953c2.335,1.842,3.591,3.283,3.768,4.325
			c0.177,1.044,0.494,1.567,0.955,1.567c2.053-0.037,3.943-0.69,5.678-1.965c1.734-1.273,3.537-3.236,5.414-5.889
			c2.016-2.867,3.466-4.407,4.351-4.619C58.315,70.039,58.42,69.49,57.326,68.747z M35.939,60.15
			c2.37-0.319,3.556-0.761,3.556-1.327c0-0.883-1.115-0.99-3.345-0.318c0.07-0.318,0.282-0.645,0.638-0.983
			c0.353-0.334,0.086-0.784-0.797-1.353c1.84-0.425,3.007-0.637,3.504-0.637c1.379,0,2.068,0.585,2.068,1.752
			c0,0.673-0.689,2.142-2.068,4.403l-3.77,0.586L35.939,60.15z M28.509,64.022c-1.38-2.972-2.07-5.021-2.07-6.155l6.156-1.167v2.282
			c-1.309,0.39-2.901,0.582-4.775,0.582c0.955,1.169,1.661,1.753,2.124,1.753l2.651-0.638l0.055,2.018
			C31.057,63.05,29.678,63.493,28.509,64.022z M40.502,70.444l-5.095,0.69v-2.972l3.344-0.479L40.502,70.444z"/>
		<path fill="#66ABC6" d="M53.08,25.814c-1.274-0.775-2.637-0.988-4.087-0.637c-1.133,0.285-2.141,0.498-3.026,0.637
			c-1.91,0.356-4.492,0.648-7.745,0.877c-3.257,0.229-6.812,0.541-10.668,0.93c-5.377,0.565-9.534,0.919-12.469,1.061
			c-2.938,0.142-4.99,0.212-6.156,0.212c1.591,2.726,3.396,4.087,5.411,4.087c0.496,0,2.265-0.3,5.307-0.902
			c3.043-0.6,6.74-1.132,11.092-1.593c4.352-0.459,8.102-0.618,11.249-0.477c3.186,0.104,5.591,0.247,7.217,0.425
			c1.133,0.104,3.256,0.688,6.369,1.749c1.097,0.391,2.033-0.017,2.813-1.22C58.915,30.079,57.146,28.361,53.08,25.814z"/>
	</g>
</g>
</svg>
