<?xml version="1.0" encoding="utf-8"?>
<!-- Generator: Adobe Illustrator 16.0.0, SVG Export Plug-In . SVG Version: 6.00 Build 0)  -->
<!DOCTYPE svg PUBLIC "-//W3C//DTD SVG 1.1//EN" "http://www.w3.org/Graphics/SVG/1.1/DTD/svg11.dtd">
<svg version="1.1" id="Layer_1" xmlns="http://www.w3.org/2000/svg" xmlns:xlink="http://www.w3.org/1999/xlink" x="0px" y="0px"
	 width="66.334px" height="88.5px" viewBox="0 0 66.334 88.5" enable-background="new 0 0 66.334 88.5" xml:space="preserve">
<g>
	<g>
		<path fill="#E63946" d="M43.617,42.292c-0.937-0.884-1.936-1.637-2.998-2.256c-1.061-0.617-1.982-0.945-2.758-0.981
			c-0.956,0-1.99,0.364-3.105,1.089s-2.697,2.219-4.75,4.483c-0.991-2.193-3.184-3.662-6.579-4.403
			c1.166,2.263,1.865,3.758,2.096,4.482c0.229,0.728,0.36,1.406,0.397,2.044c0.071,1.556,1.115,2.335,3.13,2.335
			c0.921,0,2.265-1.291,4.033-3.875c1.911-2.652,3.484-4.155,4.724-4.509c1.31,0.212,1.558,1.149,0.744,2.812
			c-0.461,0.955-1,1.921-1.619,2.892c-0.62,0.974-1.442,1.955-2.468,2.946l-9.976,1.752c-0.956,0.212-1.01,0.565-0.16,1.061
			c1.167,0.708,1.821,1.062,1.963,1.062c0.211,0,1.07-0.116,2.574-0.345c1.504-0.229,3.016-0.487,4.537-0.771
			c4.246-0.744,7.217-1.131,8.915-1.168c1.415,0,2.124-0.317,2.124-0.954c0-0.6-0.304-1.124-0.903-1.565
			c-0.603-0.441-1.292-0.574-2.069-0.399l-5.042,1.008l8.278-4.933C44.917,43.779,44.555,43.178,43.617,42.292z"/>
		<path fill="#E63946" d="M57.602,67.977c-4.034-2.865-6.635-4.299-7.802-4.299c-2.866,0.568-7.519,1.168-13.957,1.805l0.159-2.389
			l1.435-0.212c1.556-0.212,2.636-0.088,3.235,0.371c0.673,0.567,1.838-0.281,3.503-2.547c1.132-1.556,2.211-2.565,3.238-3.023
			c1.095-0.496,1.538-0.866,1.325-1.115c-0.85-0.99-1.742-1.874-2.68-2.654c-0.938-0.776-1.812-1.166-2.626-1.166
			c-0.144,0-1.558,0.221-4.246,0.662c-2.69,0.443-6.633,1.053-11.834,1.831c-0.426,0-1.053-0.122-1.883-0.371
			c-0.832-0.246-1.778-0.371-2.84-0.371c-1.168,0-1.858,0.246-2.07,0.742c-0.212,0.39,0.054,0.814,0.798,1.273
			c0.742,0.461,1.255,0.974,1.537,1.54c0.425,0.885,0.937,1.998,1.539,3.342c0.602,1.345,1.396,2.514,2.389,3.504
			c0.354,0.425,0.601,0.637,0.742,0.637c0.248,0,0.813-0.249,1.699-0.744c1.237-0.708,2.441-1.132,3.607-1.272v2.388
			c-5.271,0.92-9.232,1.61-11.887,2.069c-0.46-1.274-0.938-2.141-1.433-2.602c-0.707-0.67-1.999-0.937-3.874-0.795
			c-0.813,0.07-0.938,0.636-0.372,1.698l1.168,2.493c-2.582,0.355-4.68,0.407-6.288,0.161c-1.61-0.249-2.273-0.089-1.99,0.476
			c1.062,2.301,2.3,3.416,3.715,3.345c1.168-0.036,2.901-0.619,5.2-1.752l2.761,7.854c0.459,1.239,1.246,2.06,2.361,2.468
			c1.115,0.407,1.848,0.608,2.201,0.608c0.566,0,0.911-0.229,1.036-0.688c0.123-0.461,0.185-0.921,0.185-1.381
			c0-0.672-0.237-1.662-0.718-2.972c-0.477-1.309-1.007-2.627-1.589-3.953c-0.586-1.328-1.054-2.361-1.407-3.105
			c3.748-1.062,7.393-1.785,10.931-2.174v3.023l-6.897,0.848c-0.851,0.108-0.144,1.115,2.122,3.026
			c0.602,0.461,1.132,0.69,1.592,0.69c0.708-0.213,4.527-1.84,11.462-4.883c0.814,1.911,1.502,2.865,2.07,2.865
			c0.955,0,1.593-0.425,1.91-1.274c0.424-1.095,0.16-1.961-0.796-2.599l-3.927-2.654l5.519-0.637
			c3.185-0.283,4.334,0.496,3.449,2.335c-2.794,5.943-4.634,8.916-5.519,8.916c-0.602,0-2.035-0.406-4.298-1.221
			c-1.521-0.566-2.459-0.849-2.812-0.849c-0.566,0-0.443,0.317,0.37,0.954c2.335,1.842,3.592,3.282,3.77,4.324
			c0.175,1.045,0.493,1.567,0.955,1.567c2.051-0.037,3.942-0.69,5.677-1.964c1.733-1.273,3.537-3.237,5.413-5.89
			c2.016-2.866,3.467-4.406,4.352-4.618C58.591,69.27,58.696,68.72,57.602,67.977z M36.215,59.381
			c2.37-0.319,3.556-0.762,3.556-1.327c0-0.884-1.114-0.991-3.344-0.319c0.069-0.317,0.282-0.645,0.637-0.982
			c0.354-0.334,0.088-0.785-0.796-1.354c1.84-0.425,3.007-0.637,3.503-0.637c1.379,0,2.07,0.586,2.07,1.752
			c0,0.673-0.691,2.142-2.07,4.404l-3.769,0.585L36.215,59.381z M28.785,63.253c-1.379-2.972-2.07-5.021-2.07-6.156l6.156-1.166
			v2.281c-1.309,0.39-2.9,0.583-4.775,0.583c0.954,1.169,1.663,1.752,2.124,1.752l2.651-0.637l0.054,2.017
			C31.333,62.282,29.953,62.723,28.785,63.253z M40.779,69.674l-5.096,0.69v-2.972l3.344-0.478L40.779,69.674z"/>
		<path fill="#66ABC6" d="M10.424,15.813c0.885,1.663,1.593,3.06,2.123,4.191c0.672,1.522,2.105,4.024,4.3,7.509
			c2.191,3.486,3.996,5.228,5.411,5.228c0.708,0,1.434-0.779,2.176-2.335l13.692-2.601l2.122,6.367
			c0.282,0.815,1.645,0.418,4.086-1.194c2.441-1.607,4.952-4.766,7.536-9.47c1.768-3.149,3.396-5.061,4.882-5.731
			c0.989-0.461,1.486-0.973,1.486-1.539c0-1.237-0.842-2.389-2.521-3.449c-1.682-1.062-3.901-2.76-6.66-5.095
			c-0.954-0.742-1.894-1.115-2.813-1.115h-0.528C36.55,7.889,26.68,10.666,16.103,14.91c-0.566-0.459-1.469-0.637-2.706-0.529
			c-1.273-0.142-2.222-0.486-2.839-1.035c-0.62-0.549-1.479-0.221-2.573,0.981C9.114,14.398,9.929,14.893,10.424,15.813z
			 M25.813,14.751c0.141,0,0.3-0.034,0.478-0.107c-0.248,3.752-1.557,7.483-3.926,11.199c3.006-1.486,5.094-3.468,6.261-5.943
			c0.707-1.486,1.097-3.538,1.169-6.156c1.485-0.389,3.218-0.797,5.199-1.222l-0.742,4.83c-0.248,2.016,0.054,3.527,0.902,4.538
			c0.848,1.007,2.228,1.548,4.138,1.618c1.84,0.034,3.396-0.249,4.67-0.85c1.274-0.602,1.91-1.222,1.91-1.858
			c0-0.352-0.362-0.796-1.087-1.325c-0.726-0.532-1.193-0.744-1.406-0.637c-1.345,0.707-2.318,1.062-2.918,1.062
			c-1.805-0.036-2.707-0.637-2.707-1.806c0.036-2.298,0.354-4.438,0.956-6.421c1.873-0.389,3.907-0.672,6.103-0.849
			c1.661,0,2.971,0.486,3.926,1.459c0.955,0.975,1.15,2.185,0.585,3.635c-3.151,8.351-5.696,12.735-7.642,13.16l-2.123-1.962
			c0.459-0.106,0.689-0.373,0.689-0.798c0-0.671-1.132-0.9-3.396-0.688c-2.3,0.213-4.245,0.496-5.838,0.85
			c-3.714,0.883-6.227,1.325-7.535,1.325c-3.75-5.837-5.678-9.18-5.782-10.028C19.356,16.75,22.062,15.742,25.813,14.751z"/>
	</g>
</g>
</svg>
