<?xml version="1.0" encoding="utf-8"?>
<!-- Generator: Adobe Illustrator 16.0.0, SVG Export Plug-In . SVG Version: 6.00 Build 0)  -->
<!DOCTYPE svg PUBLIC "-//W3C//DTD SVG 1.1//EN" "http://www.w3.org/Graphics/SVG/1.1/DTD/svg11.dtd">
<svg version="1.1" id="Layer_1" xmlns="http://www.w3.org/2000/svg" xmlns:xlink="http://www.w3.org/1999/xlink" x="0px" y="0px"
	 width="66.334px" height="88.5px" viewBox="0 0 66.334 88.5" enable-background="new 0 0 66.334 88.5" xml:space="preserve">
<g>
	<g>
		<path fill="#E63946" d="M57.773,69.905c-4.075-2.895-6.7-4.342-7.88-4.342c-2.895,0.57-7.595,1.179-14.098,1.822l0.161-2.411
			l1.446-0.215c1.572-0.214,2.662-0.09,3.27,0.375c0.679,0.57,1.857-0.287,3.538-2.573c1.143-1.571,2.233-2.59,3.271-3.055
			c1.105-0.5,1.555-0.875,1.339-1.125c-0.856-1.001-1.76-1.894-2.708-2.68c-0.946-0.787-1.831-1.179-2.651-1.179
			c-0.144,0-1.574,0.223-4.287,0.669c-2.716,0.448-6.701,1.063-11.953,1.851c-0.43,0-1.064-0.124-1.906-0.375
			c-0.838-0.251-1.793-0.376-2.865-0.376c-1.18,0-1.877,0.251-2.091,0.751c-0.215,0.393,0.053,0.821,0.805,1.286
			c0.751,0.465,1.267,0.982,1.554,1.555c0.429,0.895,0.946,2.02,1.554,3.376c0.606,1.358,1.411,2.537,2.413,3.538
			c0.356,0.429,0.607,0.644,0.75,0.644c0.249,0,0.822-0.251,1.715-0.751c1.251-0.716,2.466-1.144,3.646-1.286v2.413
			c-5.327,0.928-9.329,1.625-12.008,2.09c-0.466-1.287-0.948-2.164-1.447-2.627c-0.716-0.68-2.02-0.947-3.913-0.804
			c-0.823,0.071-0.947,0.643-0.375,1.715l1.18,2.52c-2.609,0.356-4.728,0.409-6.354,0.16c-1.625-0.25-2.296-0.089-2.009,0.484
			c1.071,2.321,2.322,3.447,3.752,3.375c1.179-0.036,2.929-0.625,5.254-1.768l2.786,7.933c0.463,1.25,1.26,2.082,2.385,2.492
			c1.125,0.412,1.867,0.618,2.225,0.618c0.571,0,0.921-0.234,1.044-0.696c0.126-0.466,0.19-0.931,0.19-1.395
			c0-0.679-0.244-1.681-0.726-3.001c-0.482-1.323-1.018-2.654-1.608-3.995c-0.59-1.34-1.062-2.384-1.419-3.134
			c3.787-1.072,7.468-1.805,11.043-2.198v3.055l-6.97,0.857c-0.856,0.108-0.144,1.126,2.145,3.056
			c0.606,0.463,1.143,0.696,1.607,0.696c0.714-0.214,4.574-1.858,11.58-4.931c0.82,1.93,1.518,2.896,2.09,2.896
			c0.964,0,1.607-0.43,1.93-1.288c0.428-1.108,0.16-1.983-0.805-2.625l-3.966-2.681l5.573-0.643
			c3.217-0.288,4.377,0.499,3.484,2.358c-2.823,6.004-4.683,9.006-5.574,9.006c-0.608,0-2.056-0.412-4.342-1.233
			c-1.538-0.573-2.485-0.858-2.84-0.858c-0.572,0-0.45,0.322,0.375,0.965c2.358,1.857,3.625,3.315,3.806,4.368
			c0.177,1.055,0.499,1.582,0.964,1.582c2.072-0.036,3.983-0.696,5.736-1.983c1.749-1.287,3.571-3.27,5.467-5.949
			c2.037-2.896,3.502-4.449,4.396-4.664C58.772,71.208,58.878,70.654,57.773,69.905z M36.171,61.221
			c2.394-0.321,3.592-0.767,3.592-1.34c0-0.895-1.126-1.001-3.376-0.322c0.071-0.321,0.284-0.651,0.643-0.993
			c0.355-0.339,0.087-0.792-0.805-1.365c1.856-0.43,3.036-0.644,3.538-0.644c1.395,0,2.09,0.59,2.09,1.769
			c0,0.68-0.695,2.162-2.09,4.449l-3.806,0.589L36.171,61.221z M28.667,65.134c-1.395-3.001-2.091-5.076-2.091-6.218l6.219-1.179
			v2.305c-1.323,0.392-2.933,0.59-4.825,0.59c0.966,1.179,1.679,1.769,2.144,1.769l2.682-0.643l0.053,2.037
			C31.239,64.149,29.846,64.598,28.667,65.134z M40.781,71.62l-5.146,0.696v-3.001l3.375-0.482L40.781,71.62z"/>
		<path fill="#66ABC6" d="M51.34,38.387c0.822,0,1.527-0.483,2.117-1.448c0.589-0.965,0.886-1.805,0.886-2.52
			c0-1.179-0.824-2.502-2.467-3.966c-1.645-1.464-3.681-2.886-6.11-4.262c-2.432-1.375-4.771-2.294-7.021-2.76
			c0.214,0.644,0.857,1.761,1.929,3.35c1.072,1.591,2.287,3.289,3.646,5.093c1.357,1.805,2.698,3.342,4.021,4.609
			C49.659,37.752,50.66,38.387,51.34,38.387z"/>
		<path fill="#66ABC6" d="M12.479,23.002c0.858,0.751,1.609,1.126,2.252,1.126c0.607,0,1.384-0.116,2.33-0.35
			c0.948-0.231,2.012-0.545,3.19-0.937c8.434-2.896,15.848-4.343,22.246-4.343c2.856,0,5.628,0.322,8.308,0.965
			c2.036,0.537,3.305,0.804,3.806,0.804c1.179,0,1.77-0.358,1.77-1.072c0-1.323-0.805-2.582-2.412-3.78
			c-1.608-1.196-3.129-1.794-4.556-1.794c-1.038,0-2.004,0.187-2.895,0.561c-0.896,0.376-4.54,1.19-10.936,2.44
			c0-2.787,0.535-4.717,1.607-5.789c1.106-1.143,1.804-1.822,2.09-2.037l-0.75-1.394c-3.251-0.177-6.843-1.142-10.773-2.894
			c-0.073,1.036-0.278,1.814-0.617,2.331c-0.339,0.519-1.027,1.17-2.062,1.957c2.25-0.107,3.76,0.313,4.527,1.258
			c0.769,0.948,1.152,1.958,1.152,3.03c0,0.429-0.052,1.072-0.159,1.93c-0.107,0.857-0.287,1.591-0.536,2.197
			c-11.15,2.037-17.206,3.055-18.172,3.055h-1.393C10.959,21.34,11.621,22.252,12.479,23.002z"/>
		<path fill="#E63946" d="M43.647,43.961c-0.947-0.894-1.955-1.653-3.028-2.279c-1.071-0.624-2.002-0.954-2.787-0.991
			c-0.965,0-2.01,0.367-3.137,1.098c-1.124,0.733-2.724,2.242-4.796,4.531c-1.001-2.216-3.216-3.699-6.646-4.45
			c1.18,2.288,1.885,3.797,2.116,4.528c0.232,0.733,0.366,1.422,0.403,2.064c0.071,1.573,1.125,2.359,3.163,2.359
			c0.927,0,2.284-1.304,4.073-3.913c1.93-2.68,3.519-4.198,4.77-4.556c1.321,0.214,1.572,1.162,0.751,2.84
			c-0.465,0.965-1.01,1.938-1.635,2.921c-0.625,0.983-1.456,1.975-2.492,2.976l-10.076,1.769c-0.967,0.215-1.02,0.573-0.162,1.073
			c1.18,0.714,1.84,1.072,1.984,1.072c0.214,0,1.08-0.115,2.599-0.35c1.519-0.231,3.045-0.49,4.584-0.775
			c4.287-0.751,7.288-1.144,9.004-1.18c1.429,0,2.145-0.322,2.145-0.965c0-0.606-0.304-1.134-0.911-1.582
			c-0.608-0.446-1.306-0.579-2.091-0.4l-5.091,1.018l8.361-4.985C44.962,45.461,44.595,44.854,43.647,43.961z"/>
		<path fill="#66ABC6" d="M11.676,39.459c0.248,0.321,0.606,0.482,1.071,0.482c0.821,0,2.092-0.339,3.806-1.018
			c1.715-0.681,3.492-1.626,5.332-2.841c1.841-1.216,3.502-2.403,4.985-3.566c1.483-1.16,2.242-2.223,2.278-3.188
			c0-1.357-0.804-2.412-2.411-3.162c-1.608-0.751-2.762-1.154-3.459-1.208s-1.599,0.189-2.706,0.725
			c0.571,0.251,0.858,0.697,0.858,1.34C21.322,30.453,18.071,34.597,11.676,39.459z"/>
	</g>
</g>
</svg>
