<?xml version="1.0" encoding="utf-8"?>
<!-- Generator: Adobe Illustrator 16.0.0, SVG Export Plug-In . SVG Version: 6.00 Build 0)  -->
<!DOCTYPE svg PUBLIC "-//W3C//DTD SVG 1.1//EN" "http://www.w3.org/Graphics/SVG/1.1/DTD/svg11.dtd">
<svg version="1.1" id="Layer_1" xmlns="http://www.w3.org/2000/svg" xmlns:xlink="http://www.w3.org/1999/xlink" x="0px" y="0px"
	 width="66.334px" height="88.5px" viewBox="0 0 66.334 88.5" enable-background="new 0 0 66.334 88.5" xml:space="preserve">
<g>
	<g>
		<path fill="#E63946" d="M57.67,69.77c-4.074-2.895-6.701-4.342-7.879-4.342c-2.895,0.57-7.596,1.18-14.098,1.822l0.16-2.412
			l1.447-0.214c1.572-0.215,2.66-0.091,3.27,0.375c0.678,0.57,1.857-0.285,3.539-2.572c1.143-1.572,2.23-2.591,3.268-3.056
			c1.107-0.5,1.555-0.875,1.342-1.126c-0.859-1.001-1.762-1.894-2.709-2.68c-0.945-0.787-1.83-1.18-2.652-1.18
			c-0.143,0-1.572,0.224-4.289,0.669c-2.715,0.448-6.699,1.064-11.953,1.851c-0.428,0-1.062-0.124-1.902-0.375
			s-1.797-0.375-2.867-0.375c-1.18,0-1.877,0.251-2.092,0.75c-0.213,0.392,0.055,0.821,0.805,1.286s1.268,0.982,1.555,1.556
			c0.43,0.893,0.945,2.019,1.555,3.376c0.607,1.357,1.412,2.536,2.412,3.538c0.355,0.429,0.607,0.643,0.75,0.643
			c0.248,0,0.82-0.25,1.715-0.75c1.25-0.716,2.467-1.146,3.646-1.286v2.412c-5.326,0.928-9.326,1.625-12.008,2.09
			c-0.465-1.286-0.947-2.163-1.447-2.626c-0.717-0.681-2.02-0.948-3.912-0.805c-0.824,0.071-0.949,0.644-0.377,1.716l1.18,2.519
			c-2.607,0.356-4.727,0.41-6.352,0.162c-1.627-0.251-2.297-0.091-2.01,0.481c1.072,2.322,2.322,3.448,3.752,3.378
			c1.18-0.037,2.93-0.627,5.252-1.77l2.789,7.934c0.463,1.25,1.258,2.081,2.385,2.49c1.125,0.412,1.867,0.618,2.225,0.618
			c0.57,0,0.92-0.234,1.045-0.696c0.125-0.466,0.188-0.932,0.188-1.394c0-0.681-0.242-1.682-0.725-3.002
			c-0.482-1.323-1.02-2.654-1.607-3.995c-0.588-1.34-1.064-2.384-1.42-3.134c3.787-1.073,7.467-1.807,11.043-2.198v3.056
			l-6.969,0.857c-0.857,0.106-0.143,1.125,2.145,3.055c0.605,0.464,1.143,0.697,1.607,0.697c0.715-0.214,4.574-1.858,11.578-4.932
			c0.82,1.93,1.518,2.895,2.092,2.895c0.965,0,1.607-0.429,1.928-1.286c0.43-1.108,0.162-1.983-0.805-2.627l-3.965-2.68l5.574-0.644
			c3.217-0.287,4.377,0.5,3.484,2.358c-2.824,6.004-4.682,9.005-5.574,9.005c-0.609,0-2.057-0.411-4.342-1.232
			c-1.537-0.572-2.484-0.857-2.842-0.857c-0.572,0-0.447,0.321,0.375,0.965c2.359,1.856,3.625,3.315,3.807,4.367
			c0.178,1.056,0.5,1.583,0.965,1.583c2.07-0.037,3.982-0.697,5.734-1.983c1.75-1.286,3.572-3.27,5.469-5.95
			c2.037-2.895,3.5-4.448,4.395-4.664C58.668,71.074,58.775,70.521,57.67,69.77z M36.068,61.086c2.393-0.321,3.59-0.767,3.59-1.339
			c0-0.895-1.125-1.003-3.375-0.322c0.07-0.322,0.283-0.651,0.643-0.993c0.355-0.338,0.088-0.793-0.805-1.365
			c1.857-0.43,3.035-0.644,3.537-0.644c1.395,0,2.092,0.589,2.092,1.769c0,0.68-0.697,2.161-2.092,4.449l-3.805,0.59L36.068,61.086z
			 M28.564,65c-1.395-3.002-2.092-5.074-2.092-6.218l6.219-1.18v2.306c-1.324,0.392-2.932,0.59-4.824,0.59
			c0.965,1.179,1.678,1.769,2.145,1.769l2.68-0.644l0.053,2.037C31.137,64.018,29.744,64.463,28.564,65z M40.678,71.486
			l-5.146,0.696V69.18l3.377-0.482L40.678,71.486z"/>
		<path fill="#E63946" d="M43.545,43.827c-0.947-0.895-1.955-1.653-3.027-2.279c-1.072-0.624-2.004-0.954-2.787-0.99
			c-0.965,0-2.012,0.366-3.139,1.098c-1.125,0.733-2.725,2.242-4.795,4.531c-1.002-2.216-3.217-3.699-6.646-4.449
			c1.18,2.286,1.883,3.796,2.115,4.527c0.232,0.734,0.365,1.422,0.402,2.065c0.07,1.571,1.127,2.358,3.164,2.358
			c0.928,0,2.285-1.304,4.074-3.913c1.928-2.681,3.518-4.198,4.77-4.557c1.32,0.215,1.572,1.162,0.75,2.842
			c-0.465,0.965-1.008,1.938-1.637,2.92c-0.623,0.984-1.455,1.975-2.49,2.976l-10.078,1.77c-0.963,0.214-1.018,0.572-0.16,1.072
			c1.18,0.713,1.84,1.071,1.984,1.071c0.213,0,1.078-0.115,2.598-0.349c1.52-0.232,3.047-0.492,4.584-0.777
			c4.289-0.75,7.291-1.143,9.006-1.179c1.428,0,2.145-0.321,2.145-0.965c0-0.607-0.305-1.134-0.912-1.583
			c-0.609-0.445-1.305-0.578-2.09-0.4l-5.092,1.019l8.361-4.985C44.857,45.328,44.492,44.721,43.545,43.827z"/>
		<path fill="#66ABC6" d="M56.543,26.888c-1.467-1.286-2.484-2.805-3.055-4.557l-1.285-3.591v5.093c0,3.715-0.529,6.127-1.584,7.236
			c-1.053,1.108-2.705,1.661-4.957,1.661c-4.896,0-7.344-1.518-7.344-4.557c0-1.322,0.455-3.171,1.367-5.548
			c0.91-2.376,1.752-4.01,2.52-4.904s2.279-1.982,4.529-3.27l-7.666-3.645c-4.002,2.107-6.842,3.377-8.521,3.806l1.555-4.449
			c0.213-0.392-0.082-0.741-0.887-1.046c-0.803-0.303-1.615-0.848-2.438-1.634c-2.002-1.894-3.197-2.841-3.592-2.841
			c-0.822,0-1.537,0.251-2.143,0.75c-0.395,0.358-0.805,0.895-1.234,1.608c0.322,0,1.035,0.358,2.145,1.072
			c0.928,0.75,1.395,2.358,1.395,4.824l-0.162,3.483c-2.002,0.5-3.84,0.75-5.52,0.75c-2.109,0-3.844-0.036-5.199-0.106
			c0.783,2,2.75,3.001,5.895,3.001c1.287,0,2.662-0.214,4.127-0.643c-0.963,3.716-2.455,7.2-4.475,10.453
			c-2.02,3.252-4.924,6.395-8.709,9.433l2.84-0.643c7.682-1.787,12.918-8.522,15.705-20.209l7.396-3
			c-0.75,1.644-1.482,4.233-2.195,7.771c-0.254,1.322-0.422,2.366-0.512,3.135c-0.09,0.77-0.133,1.528-0.133,2.279
			c0,5.289,3.447,7.933,10.346,7.933c3.322,0,6.467-0.446,9.434-1.34c2.965-0.895,4.447-2.198,4.447-3.913
			C58.633,29.604,57.938,28.138,56.543,26.888z"/>
	</g>
</g>
</svg>
