<?xml version="1.0" encoding="utf-8"?>
<!-- Generator: Adobe Illustrator 16.0.0, SVG Export Plug-In . SVG Version: 6.00 Build 0)  -->
<!DOCTYPE svg PUBLIC "-//W3C//DTD SVG 1.1//EN" "http://www.w3.org/Graphics/SVG/1.1/DTD/svg11.dtd">
<svg version="1.1" id="Layer_1" xmlns="http://www.w3.org/2000/svg" xmlns:xlink="http://www.w3.org/1999/xlink" x="0px" y="0px"
	 width="66.334px" height="88.5px" viewBox="0 0 66.334 88.5" enable-background="new 0 0 66.334 88.5" xml:space="preserve">
<g>
	<g>
		<path fill="#A8DADC" d="M33.14,40.638c4.574,0,8.479-1.616,11.713-4.85c3.232-3.233,4.851-7.121,4.851-11.66
			c0-4.537-1.618-8.425-4.851-11.657c-3.234-3.232-7.139-4.853-11.713-4.853c-4.538,0-8.426,1.62-11.657,4.853
			c-3.235,3.232-4.852,7.12-4.852,11.657c0,4.539,1.616,8.427,4.852,11.66C24.714,39.021,28.602,40.638,33.14,40.638z M23.49,14.479
			c2.646-2.644,5.862-3.967,9.649-3.967c3.788,0,7.013,1.323,9.675,3.967c2.662,2.646,3.994,5.862,3.994,9.648
			c0,3.789-1.332,7.005-3.994,9.649s-5.887,3.966-9.675,3.966c-3.787,0-7.004-1.321-9.649-3.966
			c-2.643-2.645-3.964-5.86-3.964-9.649C19.526,20.342,20.848,17.125,23.49,14.479z"/>
		<path fill="#66ABC6" d="M33.14,47.98c-4.538,0-8.426,1.619-11.657,4.853c-3.235,3.233-4.852,7.121-4.852,11.658
			c0,4.574,1.616,8.479,4.852,11.713c3.231,3.233,7.119,4.85,11.657,4.85c4.574,0,8.479-1.616,11.713-4.85
			c3.232-3.233,4.851-7.139,4.851-11.713c0-4.537-1.618-8.425-4.851-11.658C41.618,49.6,37.714,47.98,33.14,47.98z M42.814,74.167
			c-2.662,2.663-5.887,3.992-9.675,3.992c-3.787,0-7.004-1.329-9.649-3.992c-2.643-2.663-3.964-5.888-3.964-9.676
			c0-3.753,1.321-6.958,3.964-9.621c2.646-2.663,5.862-3.994,9.649-3.994c3.788,0,7.013,1.331,9.675,3.994s3.994,5.868,3.994,9.621
			C46.809,68.279,45.477,71.504,42.814,74.167z"/>
		<path fill="#A8DADC" d="M33.14,35.652c3.181,0,5.896-1.125,8.147-3.377c2.252-2.251,3.377-4.965,3.377-8.147
			c0-3.18-1.125-5.896-3.377-8.147s-4.967-3.377-8.147-3.377c-3.144,0-5.842,1.126-8.094,3.377s-3.376,4.968-3.376,8.147
			c0,3.183,1.124,5.896,3.376,8.147C27.298,34.527,29.996,35.652,33.14,35.652z M26.734,17.695c1.77-1.785,3.903-2.68,6.405-2.68
			c2.537,0,4.69,0.895,6.459,2.68c1.769,1.789,2.653,3.933,2.653,6.433c0,2.502-0.885,4.646-2.653,6.433
			c-1.769,1.788-3.922,2.68-6.459,2.68c-2.502,0-4.636-0.892-6.405-2.68c-1.769-1.786-2.652-3.931-2.652-6.433
			C24.082,21.628,24.966,19.484,26.734,17.695z"/>
		<path fill="#66ABC6" d="M33.14,53.02c-3.144,0-5.842,1.126-8.094,3.378c-2.252,2.251-3.376,4.95-3.376,8.094
			c0,3.181,1.124,5.896,3.376,8.146c2.252,2.252,4.95,3.377,8.094,3.377c3.181,0,5.896-1.125,8.147-3.377
			c2.252-2.25,3.377-4.966,3.377-8.146c0-3.144-1.125-5.843-3.377-8.094C39.035,54.146,36.32,53.02,33.14,53.02z M39.599,70.951
			c-1.769,1.769-3.922,2.651-6.459,2.651c-2.502,0-4.636-0.883-6.405-2.651c-1.769-1.77-2.652-3.922-2.652-6.46
			c0-2.5,0.884-4.636,2.652-6.405c1.77-1.769,3.903-2.654,6.405-2.654c2.537,0,4.69,0.886,6.459,2.654
			c1.769,1.77,2.653,3.905,2.653,6.405C42.252,67.029,41.367,69.182,39.599,70.951z"/>
		<path fill="#A8DADC" d="M33.14,31.257c1.965,0,3.646-0.696,5.039-2.091c1.394-1.394,2.091-3.071,2.091-5.038
			c0-1.963-0.697-3.645-2.091-5.038c-1.394-1.395-3.074-2.091-5.039-2.091c-1.93,0-3.592,0.696-4.985,2.091
			c-1.394,1.394-2.09,3.075-2.09,5.038c0,1.967,0.696,3.645,2.09,5.038C29.548,30.561,31.21,31.257,33.14,31.257z M29.764,20.726
			c0.929-0.948,2.054-1.422,3.376-1.422c1.359,0,2.502,0.474,3.431,1.422c0.93,0.947,1.394,2.082,1.394,3.402
			c0,1.323-0.464,2.457-1.394,3.405c-0.929,0.947-2.071,1.419-3.431,1.419c-1.322,0-2.447-0.472-3.376-1.419
			c-0.931-0.948-1.395-2.082-1.395-3.405C28.369,22.808,28.833,21.673,29.764,20.726z"/>
		<path fill="#66ABC6" d="M33.14,57.415c-1.93,0-3.592,0.697-4.985,2.091s-2.09,3.056-2.09,4.985c0,1.966,0.696,3.645,2.09,5.038
			s3.056,2.091,4.985,2.091c1.965,0,3.646-0.697,5.039-2.091s2.091-3.072,2.091-5.038c0-1.93-0.697-3.592-2.091-4.985
			S35.104,57.415,33.14,57.415z M36.57,67.921c-0.929,0.931-2.071,1.394-3.431,1.394c-1.322,0-2.447-0.463-3.376-1.394
			c-0.931-0.928-1.395-2.071-1.395-3.43c0-1.287,0.464-2.401,1.395-3.35c0.929-0.947,2.054-1.421,3.376-1.421
			c1.359,0,2.502,0.474,3.431,1.421c0.93,0.948,1.394,2.062,1.394,3.35C37.964,65.85,37.5,66.993,36.57,67.921z"/>
		<path fill="#A8DADC" d="M33.14,25.896c0.536,0,0.964-0.169,1.287-0.508c0.321-0.338,0.481-0.759,0.481-1.261
			c0-0.499-0.16-0.929-0.481-1.286c-0.323-0.356-0.751-0.536-1.287-0.536c-0.501,0-0.91,0.18-1.231,0.536
			c-0.323,0.357-0.483,0.787-0.483,1.286c0,0.502,0.16,0.923,0.483,1.261C32.229,25.728,32.639,25.896,33.14,25.896z"/>
		<path fill="#66ABC6" d="M33.14,62.775c-0.501,0-0.91,0.161-1.231,0.482c-0.323,0.322-0.483,0.733-0.483,1.233
			c0,0.536,0.16,0.964,0.483,1.285c0.321,0.322,0.73,0.483,1.231,0.483c1.181-0.142,1.769-0.731,1.769-1.769
			c0-0.5-0.16-0.911-0.481-1.233C34.104,62.937,33.676,62.775,33.14,62.775z"/>
	</g>
</g>
</svg>
