<?xml version="1.0" encoding="utf-8"?>
<!-- Generator: Adobe Illustrator 16.0.0, SVG Export Plug-In . SVG Version: 6.00 Build 0)  -->
<!DOCTYPE svg PUBLIC "-//W3C//DTD SVG 1.1//EN" "http://www.w3.org/Graphics/SVG/1.1/DTD/svg11.dtd">
<svg version="1.1" id="Layer_1" xmlns="http://www.w3.org/2000/svg" xmlns:xlink="http://www.w3.org/1999/xlink" x="0px" y="0px"
	 width="66.334px" height="88.5px" viewBox="0 0 66.334 88.5" enable-background="new 0 0 66.334 88.5" xml:space="preserve">
<g>
	<g>
		<path fill="#66ABC6" d="M23.116,85.985c-3.18,0-5.879-1.108-8.094-3.323c-2.216-2.217-3.323-4.897-3.323-8.041
			c0-2.217,0.562-4.208,1.688-5.978c1.126-1.769,2.6-3.154,4.422-4.153c-1.822-0.965-3.296-2.332-4.422-4.102
			c-1.126-1.769-1.688-3.741-1.688-5.922c0-2.251,0.562-4.262,1.688-6.031c1.126-1.769,2.6-3.135,4.422-4.1
			c-1.822-0.965-3.296-2.342-4.422-4.127c-1.126-1.786-1.688-3.789-1.688-6.004s0.562-4.208,1.688-5.978
			c1.126-1.769,2.6-3.135,4.422-4.099c-1.822-1.002-3.296-2.387-4.422-4.156c-1.126-1.769-1.688-3.761-1.688-5.976
			c0-3.145,1.107-5.815,3.323-8.014c2.215-2.198,4.914-3.296,8.094-3.296c2.18,0,4.154,0.554,5.924,1.661
			c1.769,1.108,3.136,2.557,4.101,4.343c1-1.786,2.385-3.234,4.154-4.343c1.769-1.107,3.761-1.661,5.977-1.661
			c3.145,0,5.824,1.098,8.039,3.296s3.324,4.869,3.324,8.014c0,2.215-0.562,4.207-1.689,5.976c-1.125,1.77-2.582,3.154-4.367,4.156
			c1.785,0.964,3.242,2.33,4.367,4.099c1.127,1.77,1.689,3.763,1.689,5.978s-0.562,4.218-1.689,6.004
			c-1.125,1.785-2.582,3.162-4.367,4.127c1.785,0.965,3.242,2.331,4.367,4.1c1.127,1.77,1.689,3.78,1.689,6.031
			c0,2.181-0.562,4.153-1.689,5.922c-1.125,1.77-2.582,3.137-4.367,4.102c1.785,0.999,3.242,2.385,4.367,4.153
			c1.127,1.77,1.689,3.761,1.689,5.978c0,3.144-1.109,5.824-3.324,8.041c-2.215,2.215-4.895,3.323-8.039,3.323
			c-2.216,0-4.208-0.564-5.977-1.689c-1.77-1.126-3.154-2.581-4.154-4.368c-0.965,1.787-2.332,3.242-4.101,4.368
			C27.271,85.42,25.296,85.985,23.116,85.985z M23.116,22.895c2.43,0,4.503-0.866,6.218-2.601c1.716-1.733,2.574-3.833,2.574-6.298
			S31.05,9.45,29.334,7.751c-1.715-1.696-3.788-2.545-6.218-2.545c-2.466,0-4.565,0.849-6.298,2.545
			c-1.733,1.698-2.6,3.78-2.6,6.245s0.866,4.564,2.6,6.298C18.551,22.029,20.65,22.895,23.116,22.895z M23.116,43.049
			c2.43,0,4.503-0.858,6.218-2.573c1.716-1.715,2.574-3.806,2.574-6.271c0-2.465-0.858-4.548-2.574-6.246
			c-1.715-1.695-3.788-2.544-6.218-2.544c-2.466,0-4.565,0.849-6.298,2.544c-1.733,1.698-2.6,3.781-2.6,6.246
			c0,2.466,0.866,4.557,2.6,6.271C18.551,42.191,20.65,43.049,23.116,43.049z M23.116,63.257c2.43,0,4.503-0.857,6.218-2.573
			c1.716-1.715,2.574-3.788,2.574-6.218c0-2.466-0.858-4.564-2.574-6.3c-1.715-1.731-3.788-2.599-6.218-2.599
			c-2.466,0-4.565,0.867-6.298,2.599c-1.733,1.735-2.6,3.834-2.6,6.3c0,2.43,0.866,4.503,2.6,6.218
			C18.551,62.4,20.65,63.257,23.116,63.257z M23.116,83.465c2.43,0,4.503-0.857,6.218-2.572c1.716-1.716,2.574-3.807,2.574-6.272
			c0-2.465-0.858-4.556-2.574-6.271c-1.715-1.716-3.788-2.574-6.218-2.574c-2.466,0-4.565,0.858-6.298,2.574
			c-1.733,1.715-2.6,3.806-2.6,6.271c0,2.466,0.866,4.557,2.6,6.272C18.551,82.608,20.65,83.465,23.116,83.465z M23.116,20.965
			c-1.93,0-3.574-0.681-4.932-2.038c-1.357-1.356-2.036-3.001-2.036-4.931c0-1.858,0.679-3.475,2.036-4.852
			c1.357-1.374,3.002-2.062,4.932-2.062c1.858,0,3.466,0.688,4.824,2.062c1.357,1.377,2.037,2.993,2.037,4.852
			c0,1.93-0.68,3.574-2.037,4.931C26.582,20.285,24.975,20.965,23.116,20.965z M23.116,41.173c-1.93,0-3.574-0.688-4.932-2.064
			c-1.357-1.375-2.036-3.011-2.036-4.904c0-1.893,0.679-3.529,2.036-4.905c1.357-1.375,3.002-2.063,4.932-2.063
			c1.858,0,3.466,0.688,4.824,2.063c1.357,1.376,2.037,3.013,2.037,4.905c0,1.894-0.68,3.529-2.037,4.904
			C26.582,40.485,24.975,41.173,23.116,41.173z M23.116,61.328c-1.93,0-3.574-0.68-4.932-2.037
			c-1.357-1.356-2.036-2.965-2.036-4.824c0-1.93,0.679-3.573,2.036-4.932c1.357-1.356,3.002-2.037,4.932-2.037
			c1.858,0,3.466,0.681,4.824,2.037c1.357,1.358,2.037,3.002,2.037,4.932c0,1.859-0.68,3.468-2.037,4.824
			C26.582,60.648,24.975,61.328,23.116,61.328z M23.116,81.589c-1.93,0-3.574-0.688-4.932-2.065
			c-1.357-1.374-2.036-3.01-2.036-4.903c0-1.895,0.679-3.521,2.036-4.877c1.357-1.359,3.002-2.037,4.932-2.037
			c1.858,0,3.466,0.678,4.824,2.037c1.357,1.356,2.037,2.982,2.037,4.877c0,1.894-0.68,3.529-2.037,4.903
			C26.582,80.901,24.975,81.589,23.116,81.589z M23.063,18.767c1.286,0,2.394-0.465,3.323-1.394
			c0.928-0.929,1.394-2.054,1.394-3.377c0-1.286-0.466-2.395-1.394-3.323c-0.93-0.928-2.037-1.394-3.323-1.394
			c-1.287,0-2.396,0.466-3.323,1.394c-0.931,0.929-1.395,2.037-1.395,3.323c0,1.323,0.464,2.448,1.395,3.377
			C20.668,18.302,21.776,18.767,23.063,18.767z M23.063,38.976c1.286,0,2.394-0.475,3.323-1.422c0.928-0.946,1.394-2.062,1.394-3.35
			c0-1.286-0.466-2.395-1.394-3.323c-0.93-0.929-2.037-1.394-3.323-1.394c-1.287,0-2.396,0.465-3.323,1.394
			c-0.931,0.929-1.395,2.037-1.395,3.323c0,1.287,0.464,2.403,1.395,3.35C20.668,38.501,21.776,38.976,23.063,38.976z
			 M23.063,59.129c1.286,0,2.394-0.465,3.323-1.394c0.928-0.928,1.394-2.036,1.394-3.323c0-1.286-0.466-2.395-1.394-3.323
			c-0.93-0.928-2.037-1.394-3.323-1.394c-1.287,0-2.396,0.466-3.323,1.394c-0.931,0.929-1.395,2.037-1.395,3.323
			c0,1.287,0.464,2.396,1.395,3.323C20.668,58.665,21.776,59.129,23.063,59.129z M23.063,79.392c1.286,0,2.394-0.475,3.323-1.422
			c0.928-0.946,1.394-2.062,1.394-3.35c0-1.286-0.466-2.394-1.394-3.323c-0.93-0.93-2.037-1.394-3.323-1.394
			c-1.287,0-2.396,0.464-3.323,1.394c-0.931,0.93-1.395,2.037-1.395,3.323c0,1.287,0.464,2.403,1.395,3.35
			C20.668,78.917,21.776,79.392,23.063,79.392z M23.116,16.301c0.572,0,1.081-0.223,1.527-0.67c0.447-0.446,0.671-0.99,0.671-1.635
			c0-0.572-0.224-1.08-0.671-1.528c-0.446-0.445-0.955-0.669-1.527-0.669c-0.643,0-1.188,0.224-1.634,0.669
			c-0.448,0.448-0.67,0.956-0.67,1.528c0,0.645,0.222,1.188,0.67,1.635C21.928,16.079,22.474,16.301,23.116,16.301z M23.116,36.51
			c0.572,0,1.081-0.232,1.527-0.697c0.447-0.465,0.671-1.002,0.671-1.608c0-0.572-0.224-1.089-0.671-1.554
			c-0.446-0.466-0.955-0.697-1.527-0.697c-0.643,0-1.188,0.231-1.634,0.697c-0.448,0.465-0.67,0.981-0.67,1.554
			c0,0.606,0.222,1.144,0.67,1.608C21.928,36.278,22.474,36.51,23.116,36.51z M23.116,56.664c0.572,0,1.081-0.223,1.527-0.67
			c0.447-0.446,0.671-0.954,0.671-1.527c0-0.644-0.224-1.188-0.671-1.636c-0.446-0.445-0.955-0.669-1.527-0.669
			c-0.643,0-1.188,0.224-1.634,0.669c-0.448,0.448-0.67,0.992-0.67,1.636c0,0.573,0.222,1.081,0.67,1.527
			C21.928,56.441,22.474,56.664,23.116,56.664z M23.116,76.873c0.572,0,1.081-0.223,1.527-0.672c0.447-0.445,0.671-0.973,0.671-1.58
			c0-0.608-0.224-1.134-0.671-1.582c-0.446-0.446-0.955-0.669-1.527-0.669c-0.643,0-1.188,0.223-1.634,0.669
			c-0.448,0.448-0.67,0.974-0.67,1.582c0,0.607,0.222,1.135,0.67,1.58C21.928,76.65,22.474,76.873,23.116,76.873z M23.116,14.748
			c-0.536,0-0.822-0.251-0.857-0.751c0-0.428,0.285-0.679,0.857-0.749c0.43,0,0.661,0.25,0.697,0.749
			C23.813,14.462,23.581,14.711,23.116,14.748z M23.116,34.956c-0.536,0-0.822-0.251-0.857-0.751c0-0.429,0.285-0.66,0.857-0.696
			c0.43,0,0.661,0.231,0.697,0.696C23.813,34.669,23.581,34.918,23.116,34.956z M23.116,55.216c-0.536,0-0.822-0.25-0.857-0.75
			c0-0.535,0.285-0.804,0.857-0.804c0.43,0,0.661,0.269,0.697,0.804C23.813,54.896,23.581,55.146,23.116,55.216z M23.116,75.424
			c-0.286,0-0.5-0.081-0.643-0.241c-0.144-0.161-0.215-0.348-0.215-0.562c0-0.465,0.285-0.716,0.857-0.75
			c0.43,0,0.661,0.248,0.697,0.75c0,0.215-0.063,0.401-0.188,0.562C23.5,75.343,23.331,75.424,23.116,75.424z M33.141,28.898
			c1.143-2,2.787-3.592,4.932-4.77c-2.145-1.144-3.789-2.751-4.932-4.825c-1.109,2.074-2.752,3.682-4.932,4.825
			C30.389,25.306,32.031,26.898,33.141,28.898z M33.141,49.16c1.143-2.073,2.787-3.682,4.932-4.824
			c-2.145-1.179-3.789-2.787-4.932-4.823c-1.109,2.036-2.752,3.645-4.932,4.823C30.389,45.478,32.031,47.086,33.141,49.16z
			 M33.141,69.314c1.143-2.036,2.787-3.645,4.932-4.824c-2.145-1.143-3.789-2.733-4.932-4.771c-1.109,2.037-2.752,3.628-4.932,4.771
			C30.389,65.669,32.031,67.278,33.141,69.314z M43.271,22.895c2.465,0,4.555-0.866,6.271-2.601
			c1.715-1.733,2.572-3.833,2.572-6.298s-0.857-4.547-2.572-6.245c-1.717-1.696-3.807-2.545-6.271-2.545
			c-2.467,0-4.557,0.849-6.271,2.545c-1.716,1.698-2.573,3.78-2.573,6.245s0.857,4.564,2.573,6.298
			C38.715,22.029,40.805,22.895,43.271,22.895z M43.271,43.049c2.465,0,4.555-0.858,6.271-2.573
			c1.715-1.715,2.572-3.806,2.572-6.271c0-2.465-0.857-4.548-2.572-6.246c-1.717-1.695-3.807-2.544-6.271-2.544
			c-2.467,0-4.557,0.849-6.271,2.544c-1.716,1.698-2.573,3.781-2.573,6.246c0,2.466,0.857,4.557,2.573,6.271
			C38.715,42.191,40.805,43.049,43.271,43.049z M43.271,63.257c2.465,0,4.555-0.857,6.271-2.573
			c1.715-1.715,2.572-3.788,2.572-6.218c0-2.466-0.857-4.564-2.572-6.3c-1.717-1.731-3.807-2.599-6.271-2.599
			c-2.467,0-4.557,0.867-6.271,2.599c-1.716,1.735-2.573,3.834-2.573,6.3c0,2.43,0.857,4.503,2.573,6.218
			C38.715,62.4,40.805,63.257,43.271,63.257z M43.271,83.465c2.465,0,4.555-0.857,6.271-2.572c1.715-1.716,2.572-3.807,2.572-6.272
			c0-2.465-0.857-4.556-2.572-6.271c-1.717-1.716-3.807-2.574-6.271-2.574c-2.467,0-4.557,0.858-6.271,2.574
			c-1.716,1.715-2.573,3.806-2.573,6.271c0,2.466,0.857,4.557,2.573,6.272C38.715,82.608,40.805,83.465,43.271,83.465z
			 M43.271,20.965c-1.895,0-3.521-0.681-4.878-2.038c-1.358-1.356-2.037-3.001-2.037-4.931c0-1.858,0.679-3.475,2.037-4.852
			c1.357-1.374,2.983-2.062,4.878-2.062c1.893,0,3.527,0.688,4.904,2.062c1.375,1.377,2.062,2.993,2.062,4.852
			c0,1.93-0.688,3.574-2.062,4.931C46.799,20.285,45.164,20.965,43.271,20.965z M43.271,41.173c-1.895,0-3.521-0.688-4.878-2.064
			c-1.358-1.375-2.037-3.011-2.037-4.904c0-1.893,0.679-3.529,2.037-4.905c1.357-1.375,2.983-2.063,4.878-2.063
			c1.893,0,3.527,0.688,4.904,2.063c1.375,1.376,2.062,3.013,2.062,4.905c0,1.894-0.688,3.529-2.062,4.904
			C46.799,40.485,45.164,41.173,43.271,41.173z M43.271,61.328c-1.895,0-3.521-0.68-4.878-2.037
			c-1.358-1.356-2.037-2.965-2.037-4.824c0-1.93,0.679-3.573,2.037-4.932c1.357-1.356,2.983-2.037,4.878-2.037
			c1.893,0,3.527,0.681,4.904,2.037c1.375,1.358,2.062,3.002,2.062,4.932c0,1.859-0.688,3.468-2.062,4.824
			C46.799,60.648,45.164,61.328,43.271,61.328z M43.271,81.589c-1.895,0-3.521-0.688-4.878-2.065
			c-1.358-1.374-2.037-3.01-2.037-4.903c0-1.895,0.679-3.521,2.037-4.877c1.357-1.359,2.983-2.037,4.878-2.037
			c1.893,0,3.527,0.678,4.904,2.037c1.375,1.356,2.062,2.982,2.062,4.877c0,1.894-0.688,3.529-2.062,4.903
			C46.799,80.901,45.164,81.589,43.271,81.589z M43.271,18.767c1.285,0,2.395-0.465,3.322-1.394s1.395-2.054,1.395-3.377
			c0-1.286-0.467-2.395-1.395-3.323c-0.928-0.928-2.037-1.394-3.322-1.394c-1.287,0-2.396,0.466-3.323,1.394
			c-0.93,0.929-1.394,2.037-1.394,3.323c0,1.323,0.464,2.448,1.394,3.377C40.876,18.302,41.984,18.767,43.271,18.767z
			 M43.271,38.976c1.285,0,2.395-0.475,3.322-1.422c0.928-0.946,1.395-2.062,1.395-3.35c0-1.286-0.467-2.395-1.395-3.323
			s-2.037-1.394-3.322-1.394c-1.287,0-2.396,0.465-3.323,1.394c-0.93,0.929-1.394,2.037-1.394,3.323c0,1.287,0.464,2.403,1.394,3.35
			C40.876,38.501,41.984,38.976,43.271,38.976z M43.271,59.129c1.285,0,2.395-0.465,3.322-1.394
			c0.928-0.928,1.395-2.036,1.395-3.323c0-1.286-0.467-2.395-1.395-3.323c-0.928-0.928-2.037-1.394-3.322-1.394
			c-1.287,0-2.396,0.466-3.323,1.394c-0.93,0.929-1.394,2.037-1.394,3.323c0,1.287,0.464,2.396,1.394,3.323
			C40.876,58.665,41.984,59.129,43.271,59.129z M43.271,79.392c1.285,0,2.395-0.475,3.322-1.422c0.928-0.946,1.395-2.062,1.395-3.35
			c0-1.286-0.467-2.394-1.395-3.323s-2.037-1.394-3.322-1.394c-1.287,0-2.396,0.464-3.323,1.394c-0.93,0.93-1.394,2.037-1.394,3.323
			c0,1.287,0.464,2.403,1.394,3.35C40.876,78.917,41.984,79.392,43.271,79.392z M43.271,16.301c0.605,0,1.134-0.223,1.58-0.67
			c0.447-0.446,0.67-0.99,0.67-1.635c0-0.572-0.223-1.08-0.67-1.528c-0.446-0.445-0.975-0.669-1.58-0.669
			c-0.608,0-1.144,0.224-1.608,0.669c-0.466,0.448-0.697,0.956-0.697,1.528c0,0.645,0.231,1.188,0.697,1.635
			C42.128,16.079,42.663,16.301,43.271,16.301z M43.271,36.51c0.605,0,1.134-0.232,1.58-0.697c0.447-0.465,0.67-1.002,0.67-1.608
			c0-0.572-0.223-1.089-0.67-1.554c-0.446-0.466-0.975-0.697-1.58-0.697c-0.608,0-1.144,0.231-1.608,0.697
			c-0.466,0.465-0.697,0.981-0.697,1.554c0,0.606,0.231,1.144,0.697,1.608C42.128,36.278,42.663,36.51,43.271,36.51z M43.271,56.664
			c0.605,0,1.134-0.223,1.58-0.67c0.447-0.446,0.67-0.954,0.67-1.527c0-0.644-0.223-1.188-0.67-1.636
			c-0.446-0.445-0.975-0.669-1.58-0.669c-0.608,0-1.144,0.224-1.608,0.669c-0.466,0.448-0.697,0.992-0.697,1.636
			c0,0.573,0.231,1.081,0.697,1.527C42.128,56.441,42.663,56.664,43.271,56.664z M43.271,76.873c0.605,0,1.134-0.223,1.58-0.672
			c0.447-0.445,0.67-0.973,0.67-1.58c0-0.608-0.223-1.134-0.67-1.582c-0.446-0.446-0.975-0.669-1.58-0.669
			c-0.608,0-1.144,0.223-1.608,0.669c-0.466,0.448-0.697,0.974-0.697,1.582c0,0.607,0.231,1.135,0.697,1.58
			C42.128,76.65,42.663,76.873,43.271,76.873z M43.271,14.748c-0.467,0-0.716-0.251-0.751-0.751c0-0.428,0.249-0.679,0.751-0.749
			c0.428,0,0.66,0.25,0.695,0.749C43.967,14.462,43.735,14.711,43.271,14.748z M43.271,34.956c-0.467,0-0.716-0.251-0.751-0.751
			c0-0.429,0.249-0.66,0.751-0.696c0.428,0,0.66,0.231,0.695,0.696C43.967,34.669,43.735,34.918,43.271,34.956z M43.271,55.216
			c-0.467,0-0.716-0.25-0.751-0.75c0-0.535,0.249-0.804,0.751-0.804c0.428,0,0.66,0.269,0.695,0.804
			C43.967,54.896,43.735,55.146,43.271,55.216z M43.271,75.424c-0.252,0-0.439-0.081-0.564-0.241
			c-0.124-0.161-0.187-0.348-0.187-0.562c0-0.465,0.249-0.716,0.751-0.75c0.428,0,0.66,0.248,0.695,0.75
			c0,0.215-0.062,0.401-0.187,0.562C43.654,75.343,43.485,75.424,43.271,75.424z"/>
	</g>
</g>
</svg>
