<?xml version="1.0" encoding="utf-8"?>
<!-- Generator: Adobe Illustrator 16.0.0, SVG Export Plug-In . SVG Version: 6.00 Build 0)  -->
<!DOCTYPE svg PUBLIC "-//W3C//DTD SVG 1.1//EN" "http://www.w3.org/Graphics/SVG/1.1/DTD/svg11.dtd">
<svg version="1.1" id="Layer_1" xmlns="http://www.w3.org/2000/svg" xmlns:xlink="http://www.w3.org/1999/xlink" x="0px" y="0px"
	 width="66.333px" height="88.5px" viewBox="0 0 66.333 88.5" enable-background="new 0 0 66.333 88.5" xml:space="preserve">
<g>
	<g>
		<path fill="#66ABC6" d="M21.161,71.246c-3.146-1.106-5.36-4.948-6.647-11.524c-1.358-6.611-2.733-10.417-4.127-11.418
			c-1.501-1.106-2.252-2.215-2.252-3.323c0-0.462,1.375-0.697,4.128-0.697c1.858,0,3.181,0.466,3.967,1.394l8.416-2.412
			c-0.215-2.359-0.716-3.948-1.502-4.771c-0.572-0.643-1.305-0.964-2.197-0.964h-1.447c1.287-0.57,2.376-1.34,3.27-2.305
			c0.893-0.965,1.519-1.286,1.877-0.965c2.571,2.037,4.091,4.737,4.556,8.094l4.288-0.964l0.375-3.538
			c0.215-1.823,0-3.163-0.643-4.021c-0.501-0.678-0.751-1.213-0.751-1.608c0-1.143,0.929-2.108,2.787-2.895
			c0,0.68,0.215,1.467,0.644,2.359c0.607,1.108,2.626,2.056,6.056,2.84c-2.285,1.001-3.662,2.984-4.126,5.95
			c2.036-0.285,4.395-0.838,7.075-1.662c0.465,0,1.51,0.359,3.137,1.073c1.625,0.716,3.385,1.707,5.277,2.976
			c1.896,1.267,3.521,2.813,4.879,4.636c-1.931,1.001-3.501,2.984-4.717,5.949c-1.357,3.323-2.662,6.345-3.913,9.06
			c-1.25,2.716-2.681,4.682-4.288,5.895c-1.608,1.217-3.056,1.823-4.342,1.823c-0.714,0-1.072-0.446-1.072-1.339
			c0-1.037-0.339-1.733-1.018-2.092c-0.68-0.355-1.77-0.536-3.27-0.536c-3.788,0-7.13,0.877-10.024,2.627
			C23.125,70.461,21.661,71.246,21.161,71.246z M24.215,28.525c-2.431,0-4.628-0.384-6.593-1.151
			c-1.966-0.769-3.288-1.832-3.967-3.191c0.929-0.428,2.055-0.428,3.377,0c0.893,0.323,2.645,0.243,5.253-0.24
			s5.629-1.475,9.059-2.976c3.431-1.501,5.485-2.475,6.164-2.921c0.679-0.447,1.305-0.651,1.877-0.617
			c2.18,0.214,4.278,0.733,6.298,1.555c2.018,0.823,3.028,1.447,3.028,1.876c0,0.572-1.357,1.644-4.074,3.216
			c-1.322,0.751-3.331,1.492-6.029,2.226c-2.698,0.732-5.369,1.287-8.014,1.662C27.949,28.339,25.824,28.525,24.215,28.525z
			 M21.75,65.726c2.573-0.999,4.663-1.823,6.272-2.466c3.144-1.214,5.896-1.822,8.254-1.822c2.394,0,3.957,0.544,4.69,1.636
			c0.731,1.089,1.402,1.277,2.01,0.562c1.108-1.213,2.135-3.492,3.083-6.833c0.945-3.343,1.831-6.853,2.652-10.534
			c0.572-2.321-1.679-3.18-6.755-2.572l-4.877,0.589c-0.321,0.466-0.481,1.752-0.481,3.86c0,1.323,0.875,1.982,2.626,1.982
			c0.572,0,1.483-0.445,2.732-1.339c0.644,0.358,1.126,0.812,1.448,1.368c0.321,0.553,0.482,1.205,0.482,1.955
			c0,0.787-0.606,1.538-1.822,2.251c-1.216,0.716-2.68,1.072-4.396,1.072c-1.858,0-3.188-0.57-3.992-1.715
			c-0.805-1.142-1.082-2.894-0.832-5.253l0.321-3.591l-3.805,0.697c-0.107,3.932-0.617,6.87-1.528,8.819
			c-0.911,1.946-2.528,3.563-4.851,4.85c1.608-3.108,2.34-6.432,2.197-9.97l-0.16-3.001c-1.608,0.466-3.074,0.787-4.396,0.965
			c-1.323,0.18-2.556,0.268-3.698,0.268c0.678,1.322,1.428,3.503,2.251,6.539C19.999,57.078,20.856,60.974,21.75,65.726z"/>
	</g>
</g>
</svg>
