<?xml version="1.0" encoding="utf-8"?>
<!-- Generator: Adobe Illustrator 16.0.0, SVG Export Plug-In . SVG Version: 6.00 Build 0)  -->
<!DOCTYPE svg PUBLIC "-//W3C//DTD SVG 1.1//EN" "http://www.w3.org/Graphics/SVG/1.1/DTD/svg11.dtd">
<svg version="1.1" id="Layer_1" xmlns="http://www.w3.org/2000/svg" xmlns:xlink="http://www.w3.org/1999/xlink" x="0px" y="0px"
	 width="66.334px" height="88.5px" viewBox="0 0 66.334 88.5" enable-background="new 0 0 66.334 88.5" xml:space="preserve">
<g>
	<g>
		<path fill="#A8DADC" d="M13.869,46.775c1.932,0,3.654,0.224,5.174,0.671c1.518,0.445,2.277,1.044,2.277,1.794
			c0,0.823-0.893,1.466-2.68,1.93v12.65c1.787,0.536,2.68,1.18,2.68,1.93c0,0.823-0.893,1.467-2.68,1.93v12.597
			c1.787,0.536,2.68,1.199,2.68,1.984c0,0.823-0.77,1.43-2.305,1.822c-1.537,0.396-3.252,0.59-5.146,0.59s-3.609-0.194-5.145-0.59
			c-1.537-0.392-2.307-0.999-2.307-1.822c0-0.785,0.895-1.448,2.682-1.984V67.68c-1.787-0.462-2.682-1.106-2.682-1.93
			c0-0.75,0.895-1.394,2.682-1.93V51.17c-1.787-0.463-2.682-1.106-2.682-1.93c0-0.75,0.76-1.349,2.279-1.794
			C10.215,46.999,11.941,46.775,13.869,46.775z M13.869,63.231c0.68,0,1.215,0.019,1.609,0.054V49.884
			c0.57-0.071,1-0.142,1.287-0.214c0.678-0.178,1.018-0.302,1.018-0.375c0-0.071-0.375-0.195-1.127-0.375
			c-0.748-0.178-1.68-0.269-2.787-0.269s-2.037,0.09-2.787,0.269c-0.75,0.18-1.125,0.305-1.125,0.375
			c0,0.073,0.34,0.197,1.018,0.375c0.285,0.073,0.715,0.144,1.287,0.214v13.401C12.654,63.25,13.189,63.231,13.869,63.231z
			 M13.869,66.34c1.107,0,2.039-0.08,2.787-0.24c0.752-0.161,1.127-0.276,1.127-0.35c0-0.07-0.375-0.195-1.127-0.375
			c-0.748-0.178-1.68-0.268-2.787-0.268s-2.037,0.089-2.787,0.268c-0.75,0.18-1.125,0.305-1.125,0.375
			c0,0.073,0.375,0.189,1.125,0.35S12.762,66.34,13.869,66.34z M13.869,82.742c1.107,0,2.039-0.08,2.787-0.241
			c0.752-0.161,1.127-0.275,1.127-0.349c0-0.071-0.34-0.195-1.018-0.375c-0.287-0.07-0.717-0.141-1.287-0.214V68.163
			c-0.395,0.037-0.93,0.053-1.609,0.053s-1.215-0.017-1.607-0.053v13.401c-0.572,0.073-1.002,0.144-1.287,0.214
			c-0.678,0.18-1.018,0.305-1.018,0.375c0,0.073,0.375,0.188,1.125,0.349C11.832,82.663,12.762,82.742,13.869,82.742z M33.168,4
			c1.928,0,3.652,0.224,5.172,0.67c1.518,0.446,2.277,1.044,2.277,1.795c0,0.823-0.893,1.467-2.68,1.93v12.65
			c1.787,0.536,2.68,1.179,2.68,1.93c0,0.823-0.893,1.467-2.68,1.93v12.597c1.787,0.536,2.68,1.199,2.68,1.983
			c0,0.824-0.77,1.431-2.305,1.823c-1.535,0.394-3.254,0.589-5.145,0.589c-1.896,0-3.611-0.195-5.146-0.589
			c-1.539-0.393-2.305-1-2.305-1.823c0-0.784,0.893-1.447,2.68-1.983V24.905c-1.787-0.463-2.68-1.106-2.68-1.93
			c0-0.751,0.893-1.394,2.68-1.93V8.396c-1.787-0.463-2.68-1.107-2.68-1.93c0-0.75,0.758-1.349,2.277-1.795
			C29.512,4.225,31.238,4,33.168,4z M33.168,20.456c0.676,0,1.213,0.02,1.607,0.054V7.109c0.568-0.071,1-0.141,1.285-0.214
			c0.68-0.178,1.02-0.302,1.02-0.375c0-0.071-0.375-0.195-1.125-0.375c-0.752-0.178-1.682-0.269-2.787-0.269
			c-1.109,0-2.039,0.09-2.789,0.269c-0.748,0.18-1.125,0.304-1.125,0.375c0,0.073,0.34,0.197,1.02,0.375
			c0.283,0.073,0.713,0.144,1.285,0.214V20.51C31.951,20.476,32.488,20.456,33.168,20.456z M33.168,23.565
			c1.105,0,2.035-0.08,2.787-0.241c0.75-0.161,1.125-0.276,1.125-0.349c0-0.07-0.375-0.195-1.125-0.375
			c-0.752-0.178-1.682-0.269-2.787-0.269c-1.109,0-2.039,0.091-2.789,0.269c-0.748,0.18-1.125,0.305-1.125,0.375
			c0,0.073,0.377,0.188,1.125,0.349C31.129,23.485,32.059,23.565,33.168,23.565z M33.168,39.967c1.105,0,2.035-0.079,2.787-0.24
			c0.75-0.161,1.125-0.277,1.125-0.35c0-0.071-0.34-0.195-1.02-0.375c-0.285-0.071-0.717-0.142-1.285-0.215V25.387
			c-0.395,0.037-0.932,0.054-1.607,0.054c-0.68,0-1.217-0.017-1.609-0.054v13.401c-0.572,0.073-1.002,0.144-1.285,0.215
			c-0.68,0.18-1.02,0.304-1.02,0.375c0,0.072,0.377,0.188,1.125,0.35C31.129,39.888,32.059,39.967,33.168,39.967z M52.465,46.775
			c1.928,0,3.652,0.224,5.17,0.671c1.52,0.445,2.281,1.044,2.281,1.794c0,0.823-0.896,1.466-2.682,1.93v12.65
			c1.785,0.536,2.682,1.18,2.682,1.93c0,0.823-0.896,1.467-2.682,1.93v12.597c1.785,0.536,2.682,1.199,2.682,1.984
			c0,0.823-0.771,1.43-2.307,1.822c-1.537,0.396-3.252,0.59-5.145,0.59c-1.896,0-3.611-0.194-5.146-0.59
			c-1.537-0.392-2.305-0.999-2.305-1.822c0-0.785,0.891-1.448,2.68-1.984V67.68c-1.789-0.462-2.68-1.106-2.68-1.93
			c0-0.75,0.891-1.394,2.68-1.93V51.17c-1.789-0.463-2.68-1.106-2.68-1.93c0-0.75,0.758-1.349,2.275-1.794
			C48.809,46.999,50.535,46.775,52.465,46.775z M52.465,63.231c0.678,0,1.213,0.019,1.607,0.054V49.884
			c0.57-0.071,0.998-0.142,1.285-0.214c0.678-0.178,1.02-0.302,1.02-0.375c0-0.071-0.375-0.195-1.125-0.375
			c-0.752-0.178-1.682-0.269-2.787-0.269c-1.109,0-2.037,0.09-2.787,0.269c-0.752,0.18-1.127,0.305-1.127,0.375
			c0,0.073,0.338,0.197,1.018,0.375c0.285,0.073,0.715,0.144,1.289,0.214v13.401C51.25,63.25,51.785,63.231,52.465,63.231z
			 M52.465,66.34c1.105,0,2.035-0.08,2.787-0.24c0.75-0.161,1.125-0.276,1.125-0.35c0-0.07-0.375-0.195-1.125-0.375
			c-0.752-0.178-1.682-0.268-2.787-0.268c-1.109,0-2.037,0.089-2.787,0.268c-0.752,0.18-1.127,0.305-1.127,0.375
			c0,0.073,0.375,0.189,1.127,0.35C50.428,66.26,51.355,66.34,52.465,66.34z M52.465,82.742c1.105,0,2.035-0.08,2.787-0.241
			c0.75-0.161,1.125-0.275,1.125-0.349c0-0.071-0.342-0.195-1.02-0.375c-0.287-0.07-0.715-0.141-1.285-0.214V68.163
			c-0.395,0.037-0.93,0.053-1.607,0.053c-0.68,0-1.215-0.017-1.607-0.053v13.401c-0.574,0.073-1.004,0.144-1.289,0.214
			c-0.68,0.18-1.018,0.305-1.018,0.375c0,0.073,0.375,0.188,1.127,0.349C50.428,82.663,51.355,82.742,52.465,82.742z"/>
	</g>
</g>
</svg>
