<?xml version="1.0" encoding="utf-8"?>
<!-- Generator: Adobe Illustrator 16.0.0, SVG Export Plug-In . SVG Version: 6.00 Build 0)  -->
<!DOCTYPE svg PUBLIC "-//W3C//DTD SVG 1.1//EN" "http://www.w3.org/Graphics/SVG/1.1/DTD/svg11.dtd">
<svg version="1.1" id="Layer_1" xmlns="http://www.w3.org/2000/svg" xmlns:xlink="http://www.w3.org/1999/xlink" x="0px" y="0px"
	 width="66.334px" height="88.5px" viewBox="0 0 66.334 88.5" enable-background="new 0 0 66.334 88.5" xml:space="preserve">
<g>
	<g>
		<path fill="#A8DADC" d="M13.87,4c1.93,0,3.655,0.225,5.173,0.671c1.519,0.446,2.278,1.044,2.278,1.795
			c0,0.823-0.894,1.466-2.68,1.93v12.65c1.787,0.536,2.68,1.179,2.68,1.93c0,0.823-0.894,1.467-2.68,1.93v12.597
			c1.787,0.536,2.68,1.198,2.68,1.983c0,0.823-0.769,1.43-2.305,1.823c-1.537,0.395-3.252,0.59-5.146,0.59
			c-1.894,0-3.609-0.195-5.146-0.59c-1.536-0.393-2.305-1-2.305-1.823c0-0.785,0.894-1.447,2.681-1.983V24.905
			c-1.787-0.463-2.681-1.106-2.681-1.93c0-0.75,0.894-1.394,2.681-1.93V8.396C7.313,7.933,6.419,7.29,6.419,6.466
			c0-0.751,0.759-1.349,2.279-1.795C10.216,4.226,11.94,4,13.87,4z M13.87,46.775c1.93,0,3.655,0.226,5.173,0.671
			c1.519,0.446,2.278,1.044,2.278,1.794c0,0.823-0.894,1.466-2.68,1.93v12.65c1.787,0.536,2.68,1.179,2.68,1.93
			c0,0.823-0.894,1.467-2.68,1.93v12.596c1.787,0.536,2.68,1.199,2.68,1.984c0,0.823-0.769,1.43-2.305,1.822
			c-1.537,0.394-3.252,0.589-5.146,0.589c-1.894,0-3.609-0.195-5.146-0.589c-1.536-0.393-2.305-0.999-2.305-1.822
			c0-0.785,0.894-1.448,2.681-1.984V67.68c-1.787-0.463-2.681-1.106-2.681-1.93c0-0.75,0.894-1.394,2.681-1.93V51.17
			c-1.787-0.463-2.681-1.106-2.681-1.93c0-0.75,0.759-1.349,2.279-1.794C10.216,47,11.94,46.775,13.87,46.775z M13.87,20.456
			c0.68,0,1.216,0.02,1.609,0.054V7.109c0.571-0.07,1-0.141,1.286-0.214c0.679-0.177,1.018-0.302,1.018-0.375
			c0-0.071-0.375-0.195-1.125-0.375c-0.75-0.178-1.68-0.268-2.788-0.268c-1.107,0-2.036,0.09-2.787,0.268
			c-0.751,0.18-1.126,0.304-1.126,0.375c0,0.073,0.339,0.198,1.019,0.375c0.286,0.073,0.714,0.144,1.286,0.214V20.51
			C12.655,20.476,13.191,20.456,13.87,20.456z M13.87,23.565c1.108,0,2.038-0.08,2.788-0.241c0.751-0.161,1.125-0.276,1.125-0.349
			c0-0.071-0.375-0.195-1.125-0.375c-0.75-0.178-1.68-0.268-2.788-0.268c-1.107,0-2.036,0.09-2.787,0.268
			c-0.751,0.181-1.126,0.305-1.126,0.375c0,0.073,0.375,0.188,1.126,0.349C11.833,23.486,12.762,23.565,13.87,23.565z M13.87,39.968
			c1.108,0,2.038-0.079,2.788-0.24c0.751-0.161,1.125-0.277,1.125-0.35c0-0.071-0.339-0.195-1.018-0.375
			c-0.286-0.07-0.715-0.141-1.286-0.214V25.387c-0.393,0.037-0.929,0.054-1.609,0.054c-0.678,0-1.214-0.017-1.607-0.054v13.401
			c-0.572,0.073-1,0.144-1.286,0.214c-0.68,0.181-1.019,0.305-1.019,0.375c0,0.073,0.375,0.189,1.126,0.35
			C11.833,39.889,12.762,39.968,13.87,39.968z M13.87,63.231c0.68,0,1.216,0.019,1.609,0.054V49.884
			c0.571-0.071,1-0.141,1.286-0.214c0.679-0.178,1.018-0.302,1.018-0.375c0-0.07-0.375-0.195-1.125-0.375
			c-0.75-0.178-1.68-0.269-2.788-0.269c-1.107,0-2.036,0.09-2.787,0.269c-0.751,0.18-1.126,0.305-1.126,0.375
			c0,0.073,0.339,0.197,1.019,0.375c0.286,0.073,0.714,0.143,1.286,0.214v13.401C12.655,63.25,13.191,63.231,13.87,63.231z
			 M13.87,66.34c1.108,0,2.038-0.08,2.788-0.24c0.751-0.16,1.125-0.276,1.125-0.349c0-0.071-0.375-0.195-1.125-0.375
			c-0.75-0.178-1.68-0.268-2.788-0.268c-1.107,0-2.036,0.09-2.787,0.268c-0.751,0.18-1.126,0.305-1.126,0.375
			c0,0.073,0.375,0.189,1.126,0.349C11.833,66.26,12.762,66.34,13.87,66.34z M13.87,82.742c1.108,0,2.038-0.08,2.788-0.24
			c0.751-0.161,1.125-0.276,1.125-0.349c0-0.071-0.339-0.195-1.018-0.375c-0.286-0.071-0.715-0.141-1.286-0.214V68.163
			c-0.393,0.037-0.929,0.054-1.609,0.054c-0.678,0-1.214-0.017-1.607-0.054v13.401c-0.572,0.073-1,0.143-1.286,0.214
			c-0.68,0.18-1.019,0.304-1.019,0.375c0,0.073,0.375,0.188,1.126,0.349C11.833,82.663,12.762,82.742,13.87,82.742z M33.167,4
			c1.93,0,3.653,0.225,5.173,0.671c1.518,0.446,2.278,1.044,2.278,1.795c0,0.823-0.894,1.466-2.68,1.93v12.65
			c1.786,0.536,2.68,1.179,2.68,1.93c0,0.823-0.894,1.467-2.68,1.93v12.597c1.786,0.536,2.68,1.198,2.68,1.983
			c0,0.823-0.769,1.43-2.306,1.823c-1.536,0.395-3.251,0.59-5.145,0.59c-1.895,0-3.61-0.195-5.146-0.59
			c-1.537-0.393-2.304-1-2.304-1.823c0-0.785,0.893-1.447,2.68-1.983V24.905c-1.787-0.463-2.68-1.106-2.68-1.93
			c0-0.75,0.893-1.394,2.68-1.93V8.396c-1.787-0.463-2.68-1.106-2.68-1.93c0-0.751,0.758-1.349,2.278-1.795
			C29.513,4.226,31.238,4,33.167,4z M33.167,46.775c1.93,0,3.653,0.226,5.173,0.671c1.518,0.446,2.278,1.044,2.278,1.794
			c0,0.823-0.894,1.466-2.68,1.93v12.65c1.786,0.536,2.68,1.179,2.68,1.93c0,0.823-0.894,1.467-2.68,1.93v12.596
			c1.786,0.536,2.68,1.199,2.68,1.984c0,0.823-0.769,1.43-2.306,1.822c-1.536,0.394-3.251,0.589-5.145,0.589
			c-1.895,0-3.61-0.195-5.146-0.589c-1.537-0.393-2.304-0.999-2.304-1.822c0-0.785,0.893-1.448,2.68-1.984V67.68
			c-1.787-0.463-2.68-1.106-2.68-1.93c0-0.75,0.893-1.394,2.68-1.93V51.17c-1.787-0.463-2.68-1.106-2.68-1.93
			c0-0.75,0.758-1.349,2.278-1.794C29.513,47,31.238,46.775,33.167,46.775z M33.167,20.456c0.678,0,1.214,0.02,1.608,0.054V7.109
			c0.571-0.07,1-0.141,1.286-0.214c0.68-0.177,1.019-0.302,1.019-0.375c0-0.071-0.375-0.195-1.125-0.375
			c-0.751-0.178-1.68-0.268-2.787-0.268c-1.108,0-2.038,0.09-2.788,0.268c-0.75,0.18-1.125,0.304-1.125,0.375
			c0,0.073,0.34,0.198,1.018,0.375c0.286,0.073,0.715,0.144,1.287,0.214V20.51C31.952,20.476,32.488,20.456,33.167,20.456z
			 M33.167,23.565c1.107,0,2.036-0.08,2.787-0.241c0.751-0.161,1.125-0.276,1.125-0.349c0-0.071-0.375-0.195-1.125-0.375
			c-0.751-0.178-1.68-0.268-2.787-0.268c-1.108,0-2.038,0.09-2.788,0.268c-0.75,0.181-1.125,0.305-1.125,0.375
			c0,0.073,0.375,0.188,1.125,0.349C31.13,23.486,32.06,23.565,33.167,23.565z M33.167,39.968c1.107,0,2.036-0.079,2.787-0.24
			c0.751-0.161,1.125-0.277,1.125-0.35c0-0.071-0.339-0.195-1.019-0.375c-0.286-0.07-0.714-0.141-1.286-0.214V25.387
			c-0.394,0.037-0.93,0.054-1.608,0.054c-0.68,0-1.216-0.017-1.608-0.054v13.401c-0.572,0.073-1.001,0.144-1.287,0.214
			c-0.678,0.181-1.018,0.305-1.018,0.375c0,0.073,0.375,0.189,1.125,0.35C31.13,39.889,32.06,39.968,33.167,39.968z M33.167,63.231
			c0.678,0,1.214,0.019,1.608,0.054V49.884c0.571-0.071,1-0.141,1.286-0.214c0.68-0.178,1.019-0.302,1.019-0.375
			c0-0.07-0.375-0.195-1.125-0.375c-0.751-0.178-1.68-0.269-2.787-0.269c-1.108,0-2.038,0.09-2.788,0.269
			c-0.75,0.18-1.125,0.305-1.125,0.375c0,0.073,0.34,0.197,1.018,0.375c0.286,0.073,0.715,0.143,1.287,0.214v13.401
			C31.952,63.25,32.488,63.231,33.167,63.231z M33.167,66.34c1.107,0,2.036-0.08,2.787-0.24c0.751-0.16,1.125-0.276,1.125-0.349
			c0-0.071-0.375-0.195-1.125-0.375c-0.751-0.178-1.68-0.268-2.787-0.268c-1.108,0-2.038,0.09-2.788,0.268
			c-0.75,0.18-1.125,0.305-1.125,0.375c0,0.073,0.375,0.189,1.125,0.349C31.13,66.26,32.06,66.34,33.167,66.34z M33.167,82.742
			c1.107,0,2.036-0.08,2.787-0.24c0.751-0.161,1.125-0.276,1.125-0.349c0-0.071-0.339-0.195-1.019-0.375
			c-0.286-0.071-0.714-0.141-1.286-0.214V68.163c-0.394,0.037-0.93,0.054-1.608,0.054c-0.68,0-1.216-0.017-1.608-0.054v13.401
			c-0.572,0.073-1.001,0.143-1.287,0.214c-0.678,0.18-1.018,0.304-1.018,0.375c0,0.073,0.375,0.188,1.125,0.349
			C31.13,82.663,32.06,82.742,33.167,82.742z M52.464,4c1.93,0,3.653,0.225,5.173,0.671c1.518,0.446,2.278,1.044,2.278,1.795
			c0,0.823-0.894,1.466-2.681,1.93v12.65c1.787,0.536,2.681,1.179,2.681,1.93c0,0.823-0.894,1.467-2.681,1.93v12.597
			c1.787,0.536,2.681,1.198,2.681,1.983c0,0.823-0.769,1.43-2.305,1.823c-1.537,0.395-3.252,0.59-5.146,0.59
			c-1.895,0-3.609-0.195-5.146-0.59c-1.537-0.393-2.305-1-2.305-1.823c0-0.785,0.894-1.447,2.68-1.983V24.905
			c-1.787-0.463-2.68-1.106-2.68-1.93c0-0.75,0.894-1.394,2.68-1.93V8.396c-1.787-0.463-2.68-1.106-2.68-1.93
			c0-0.751,0.759-1.349,2.278-1.795C48.81,4.226,50.534,4,52.464,4z M52.464,46.775c1.93,0,3.653,0.226,5.173,0.671
			c1.518,0.446,2.278,1.044,2.278,1.794c0,0.823-0.894,1.466-2.681,1.93v12.65c1.787,0.536,2.681,1.179,2.681,1.93
			c0,0.823-0.894,1.467-2.681,1.93v12.596c1.787,0.536,2.681,1.199,2.681,1.984c0,0.823-0.769,1.43-2.305,1.822
			c-1.537,0.394-3.252,0.589-5.146,0.589c-1.895,0-3.609-0.195-5.146-0.589c-1.537-0.393-2.305-0.999-2.305-1.822
			c0-0.785,0.894-1.448,2.68-1.984V67.68c-1.787-0.463-2.68-1.106-2.68-1.93c0-0.75,0.894-1.394,2.68-1.93V51.17
			c-1.787-0.463-2.68-1.106-2.68-1.93c0-0.75,0.759-1.349,2.278-1.794C48.81,47,50.534,46.775,52.464,46.775z M52.464,20.456
			c0.679,0,1.215,0.02,1.608,0.054V7.109c0.571-0.07,1.001-0.141,1.287-0.214c0.678-0.177,1.018-0.302,1.018-0.375
			c0-0.071-0.375-0.195-1.125-0.375c-0.75-0.178-1.68-0.268-2.788-0.268s-2.037,0.09-2.787,0.268
			c-0.75,0.18-1.126,0.304-1.126,0.375c0,0.073,0.34,0.198,1.019,0.375c0.286,0.073,0.714,0.144,1.286,0.214V20.51
			C51.25,20.476,51.786,20.456,52.464,20.456z M52.464,23.565c1.107,0,2.037-0.08,2.788-0.241c0.75-0.161,1.125-0.276,1.125-0.349
			c0-0.071-0.375-0.195-1.125-0.375c-0.75-0.178-1.68-0.268-2.788-0.268s-2.037,0.09-2.787,0.268
			c-0.75,0.181-1.126,0.305-1.126,0.375c0,0.073,0.375,0.188,1.126,0.349C50.427,23.486,51.356,23.565,52.464,23.565z
			 M52.464,39.968c1.107,0,2.037-0.079,2.788-0.24c0.75-0.161,1.125-0.277,1.125-0.35c0-0.071-0.34-0.195-1.018-0.375
			c-0.286-0.07-0.716-0.141-1.287-0.214V25.387c-0.393,0.037-0.929,0.054-1.608,0.054c-0.678,0-1.214-0.017-1.608-0.054v13.401
			c-0.572,0.073-1,0.144-1.286,0.214c-0.679,0.181-1.019,0.305-1.019,0.375c0,0.073,0.375,0.189,1.126,0.35
			C50.427,39.889,51.356,39.968,52.464,39.968z M52.464,63.231c0.679,0,1.215,0.019,1.608,0.054V49.884
			c0.571-0.071,1.001-0.141,1.287-0.214c0.678-0.178,1.018-0.302,1.018-0.375c0-0.07-0.375-0.195-1.125-0.375
			c-0.75-0.178-1.68-0.269-2.788-0.269s-2.037,0.09-2.787,0.269c-0.75,0.18-1.126,0.305-1.126,0.375c0,0.073,0.34,0.197,1.019,0.375
			c0.286,0.073,0.714,0.143,1.286,0.214v13.401C51.25,63.25,51.786,63.231,52.464,63.231z M52.464,66.34
			c1.107,0,2.037-0.08,2.788-0.24c0.75-0.16,1.125-0.276,1.125-0.349c0-0.071-0.375-0.195-1.125-0.375
			c-0.75-0.178-1.68-0.268-2.788-0.268s-2.037,0.09-2.787,0.268c-0.75,0.18-1.126,0.305-1.126,0.375
			c0,0.073,0.375,0.189,1.126,0.349C50.427,66.26,51.356,66.34,52.464,66.34z M52.464,82.742c1.107,0,2.037-0.08,2.788-0.24
			c0.75-0.161,1.125-0.276,1.125-0.349c0-0.071-0.34-0.195-1.018-0.375c-0.286-0.071-0.716-0.141-1.287-0.214V68.163
			c-0.393,0.037-0.929,0.054-1.608,0.054c-0.678,0-1.214-0.017-1.608-0.054v13.401c-0.572,0.073-1,0.143-1.286,0.214
			c-0.679,0.18-1.019,0.304-1.019,0.375c0,0.073,0.375,0.188,1.126,0.349C50.427,82.663,51.356,82.742,52.464,82.742z"/>
	</g>
</g>
</svg>
