<?xml version="1.0" encoding="utf-8"?>
<!-- Generator: Adobe Illustrator 16.0.0, SVG Export Plug-In . SVG Version: 6.00 Build 0)  -->
<!DOCTYPE svg PUBLIC "-//W3C//DTD SVG 1.1//EN" "http://www.w3.org/Graphics/SVG/1.1/DTD/svg11.dtd">
<svg version="1.1" id="Layer_1" xmlns="http://www.w3.org/2000/svg" xmlns:xlink="http://www.w3.org/1999/xlink" x="0px" y="0px"
	 width="66.334px" height="88.5px" viewBox="0 0 66.334 88.5" enable-background="new 0 0 66.334 88.5" xml:space="preserve">
<g>
	<g>
		<path fill="#A8DADC" d="M21.322,63.178c0-0.75-0.762-1.35-2.279-1.795c-1.518-0.447-3.242-0.67-5.172-0.67
			s-3.656,0.223-5.174,0.67c-1.52,0.445-2.277,1.045-2.277,1.795c0,0.822,0.891,1.467,2.68,1.93v5.682
			c-1.789,0.537-2.68,1.18-2.68,1.93c0,0.824,0.891,1.467,2.68,1.93v5.629c-1.789,0.535-2.68,1.199-2.68,1.982
			c0,0.824,0.768,1.432,2.305,1.822c1.535,0.395,3.25,0.59,5.146,0.59c1.895,0,3.609-0.195,5.145-0.59
			c1.535-0.391,2.307-0.998,2.307-1.822c0-0.783-0.895-1.447-2.682-1.982v-5.629c1.787-0.463,2.682-1.105,2.682-1.93
			c0-0.75-0.895-1.393-2.682-1.93v-5.682C20.428,64.645,21.322,64,21.322,63.178z M16.658,82.502c-0.75,0.162-1.682,0.24-2.787,0.24
			c-1.109,0-2.037-0.078-2.787-0.24c-0.752-0.16-1.127-0.275-1.127-0.35c0-0.068,0.34-0.195,1.02-0.375
			c0.285-0.07,0.715-0.141,1.287-0.213v-6.434c0.391,0.037,0.926,0.055,1.607,0.055c0.678,0,1.213-0.018,1.607-0.055v6.434
			c0.572,0.072,1,0.143,1.287,0.213c0.678,0.18,1.018,0.307,1.018,0.375C17.783,82.227,17.408,82.342,16.658,82.502z M16.658,73.068
			c-0.75,0.162-1.682,0.24-2.787,0.24c-1.109,0-2.037-0.078-2.787-0.24c-0.752-0.16-1.127-0.277-1.127-0.35
			c0-0.07,0.375-0.195,1.127-0.375c0.75-0.178,1.678-0.268,2.787-0.268c1.105,0,2.037,0.09,2.787,0.268
			c0.75,0.18,1.125,0.305,1.125,0.375C17.783,72.791,17.408,72.908,16.658,73.068z M16.766,63.607
			c-0.287,0.072-0.715,0.143-1.287,0.215v6.432c-0.395-0.035-0.93-0.055-1.607-0.055c-0.682,0-1.217,0.02-1.607,0.055v-6.432
			c-0.572-0.072-1.002-0.143-1.287-0.215c-0.68-0.18-1.02-0.303-1.02-0.377c0-0.07,0.375-0.195,1.127-0.375
			c0.75-0.178,1.678-0.268,2.787-0.268c1.105,0,2.037,0.09,2.787,0.268c0.75,0.18,1.125,0.305,1.125,0.375
			C17.783,63.305,17.443,63.428,16.766,63.607z"/>
		<path fill="#A8DADC" d="M59.914,44.363c0-0.752-0.893-1.393-2.68-1.928v-5.684c1.787-0.463,2.68-1.107,2.68-1.93
			c0-0.75-0.758-1.348-2.277-1.795s-3.242-0.672-5.172-0.672s-3.654,0.225-5.174,0.672s-2.277,1.045-2.277,1.795
			c0,0.822,0.893,1.467,2.68,1.93v5.684c-1.787,0.535-2.68,1.176-2.68,1.928c0,0.824,0.893,1.465,2.68,1.93v5.629
			c-1.787,0.535-2.68,1.197-2.68,1.982c0,0.822,0.768,1.43,2.305,1.822c1.535,0.395,3.252,0.59,5.146,0.59
			c1.893,0,3.609-0.195,5.145-0.59c1.535-0.393,2.305-1,2.305-1.822c0-0.785-0.893-1.447-2.68-1.982v-5.629
			C59.021,45.828,59.914,45.188,59.914,44.363z M55.252,54.146c-0.75,0.16-1.682,0.242-2.787,0.242
			c-1.109,0-2.037-0.082-2.789-0.242c-0.748-0.162-1.123-0.275-1.123-0.35c0-0.07,0.338-0.195,1.018-0.375
			c0.285-0.07,0.713-0.141,1.285-0.213v-6.434c0.393,0.037,0.93,0.053,1.609,0.053c0.678,0,1.213-0.016,1.607-0.053v6.434
			c0.57,0.072,1,0.143,1.287,0.213c0.678,0.18,1.018,0.305,1.018,0.375C56.377,53.871,56.002,53.984,55.252,54.146z M55.252,44.713
			c-0.75,0.16-1.682,0.24-2.787,0.24c-1.109,0-2.037-0.08-2.789-0.24c-0.748-0.162-1.123-0.277-1.123-0.35
			c0-0.07,0.375-0.195,1.123-0.377c0.752-0.176,1.68-0.266,2.789-0.266c1.105,0,2.037,0.09,2.787,0.266
			c0.75,0.182,1.125,0.307,1.125,0.377C56.377,44.436,56.002,44.551,55.252,44.713z M55.359,35.252
			c-0.287,0.072-0.717,0.143-1.287,0.213v6.434c-0.395-0.035-0.93-0.055-1.607-0.055c-0.68,0-1.217,0.02-1.609,0.055v-6.434
			c-0.572-0.07-1-0.141-1.285-0.213c-0.68-0.18-1.018-0.303-1.018-0.377c0-0.07,0.375-0.193,1.123-0.375
			c0.752-0.178,1.68-0.268,2.789-0.268c1.105,0,2.037,0.09,2.787,0.268c0.75,0.182,1.125,0.305,1.125,0.375
			C56.377,34.949,56.037,35.072,55.359,35.252z"/>
		<path fill="#66ABC6" d="M40.617,34.822c0-0.75-0.76-1.348-2.277-1.795s-3.242-0.672-5.172-0.672s-3.654,0.225-5.176,0.672
			c-1.518,0.447-2.277,1.045-2.277,1.795c0,0.822,0.895,1.467,2.682,1.93v5.684c-1.787,0.535-2.682,1.176-2.682,1.928
			c0,0.824,0.895,1.465,2.682,1.93v5.629c-1.787,0.535-2.682,1.197-2.682,1.982c0,0.822,0.77,1.43,2.307,1.822
			c1.535,0.395,3.252,0.59,5.146,0.59c1.893,0,3.607-0.195,5.146-0.59c1.533-0.393,2.303-1,2.303-1.822
			c0-0.785-0.893-1.447-2.68-1.982v-5.629c1.787-0.465,2.68-1.105,2.68-1.93c0-0.752-0.893-1.393-2.68-1.928v-5.684
			C39.725,36.289,40.617,35.645,40.617,34.822z M35.953,54.146c-0.748,0.16-1.68,0.242-2.785,0.242
			c-1.109,0-2.037-0.082-2.787-0.242c-0.752-0.162-1.127-0.275-1.127-0.35c0-0.07,0.34-0.195,1.02-0.375
			c0.285-0.07,0.715-0.141,1.287-0.213v-6.434c0.391,0.037,0.928,0.053,1.607,0.053c0.678,0,1.213-0.016,1.607-0.053v6.434
			c0.57,0.072,1,0.143,1.287,0.213c0.678,0.18,1.018,0.305,1.018,0.375C37.08,53.871,36.705,53.984,35.953,54.146z M35.953,44.713
			c-0.748,0.16-1.68,0.24-2.785,0.24c-1.109,0-2.037-0.08-2.787-0.24c-0.752-0.162-1.127-0.277-1.127-0.35
			c0-0.07,0.375-0.195,1.127-0.377c0.75-0.176,1.678-0.266,2.787-0.266c1.105,0,2.037,0.09,2.785,0.266
			c0.752,0.182,1.127,0.307,1.127,0.377C37.08,44.436,36.705,44.551,35.953,44.713z M36.062,35.252
			c-0.287,0.072-0.717,0.143-1.287,0.213v6.434c-0.395-0.035-0.93-0.055-1.607-0.055c-0.68,0-1.217,0.02-1.607,0.055v-6.434
			c-0.572-0.07-1.002-0.141-1.287-0.213c-0.68-0.18-1.02-0.303-1.02-0.377c0-0.07,0.375-0.193,1.127-0.375
			c0.75-0.178,1.678-0.268,2.787-0.268c1.105,0,2.037,0.09,2.785,0.268c0.752,0.182,1.127,0.305,1.127,0.375
			C37.08,34.949,36.74,35.072,36.062,35.252z"/>
		<path fill="#E63946" d="M40.617,6.467c0-0.752-0.76-1.35-2.277-1.795C36.822,4.223,35.098,4,33.168,4s-3.654,0.223-5.176,0.672
			c-1.518,0.445-2.277,1.043-2.277,1.795c0,0.822,0.895,1.465,2.682,1.93v5.682c-1.787,0.535-2.682,1.178-2.682,1.93
			c0,0.824,0.895,1.467,2.682,1.93v5.629c-1.787,0.535-2.682,1.197-2.682,1.982c0,0.824,0.77,1.43,2.307,1.822
			c1.535,0.395,3.252,0.59,5.146,0.59c1.893,0,3.607-0.195,5.146-0.59c1.533-0.393,2.303-0.998,2.303-1.822
			c0-0.785-0.893-1.447-2.68-1.982v-5.629c1.787-0.463,2.68-1.105,2.68-1.93c0-0.752-0.893-1.395-2.68-1.93V8.396
			C39.725,7.932,40.617,7.289,40.617,6.467z M35.953,25.791c-0.748,0.16-1.68,0.24-2.785,0.24c-1.109,0-2.037-0.08-2.787-0.24
			c-0.752-0.16-1.127-0.275-1.127-0.35c0-0.07,0.34-0.195,1.02-0.375c0.285-0.07,0.715-0.143,1.287-0.215V18.42
			c0.391,0.035,0.928,0.053,1.607,0.053c0.678,0,1.213-0.018,1.607-0.053v6.432c0.57,0.072,1,0.145,1.287,0.215
			c0.678,0.18,1.018,0.305,1.018,0.375C37.08,25.516,36.705,25.631,35.953,25.791z M35.953,16.357c-0.748,0.16-1.68,0.24-2.785,0.24
			c-1.109,0-2.037-0.08-2.787-0.24c-0.752-0.16-1.127-0.275-1.127-0.35c0-0.07,0.375-0.195,1.127-0.375
			c0.75-0.178,1.678-0.27,2.787-0.27c1.105,0,2.037,0.092,2.785,0.27c0.752,0.18,1.127,0.305,1.127,0.375
			C37.08,16.082,36.705,16.197,35.953,16.357z M36.062,6.895c-0.287,0.074-0.717,0.145-1.287,0.215v6.432
			c-0.395-0.033-0.93-0.053-1.607-0.053c-0.68,0-1.217,0.02-1.607,0.053V7.109c-0.572-0.07-1.002-0.141-1.287-0.215
			c-0.68-0.178-1.02-0.301-1.02-0.375c0-0.07,0.375-0.195,1.127-0.375c0.75-0.178,1.678-0.268,2.787-0.268
			c1.105,0,2.037,0.09,2.785,0.268c0.752,0.18,1.127,0.305,1.127,0.375C37.08,6.594,36.74,6.717,36.062,6.895z"/>
		<path fill="#A8DADC" d="M21.322,34.822c0-0.75-0.762-1.348-2.279-1.795s-3.242-0.672-5.172-0.672s-3.656,0.225-5.174,0.672
			c-1.52,0.447-2.277,1.045-2.277,1.795c0,0.822,0.891,1.467,2.68,1.93v5.684c-1.789,0.535-2.68,1.176-2.68,1.928
			c0,0.824,0.891,1.465,2.68,1.93v5.629c-1.789,0.535-2.68,1.197-2.68,1.982c0,0.822,0.768,1.43,2.305,1.822
			c1.535,0.395,3.25,0.59,5.146,0.59c1.895,0,3.609-0.195,5.145-0.59c1.535-0.393,2.307-1,2.307-1.822
			c0-0.785-0.895-1.447-2.682-1.982v-5.629c1.787-0.465,2.682-1.105,2.682-1.93c0-0.752-0.895-1.393-2.682-1.928v-5.684
			C20.428,36.289,21.322,35.645,21.322,34.822z M16.658,54.146c-0.75,0.16-1.682,0.242-2.787,0.242
			c-1.109,0-2.037-0.082-2.787-0.242c-0.752-0.162-1.127-0.275-1.127-0.35c0-0.07,0.34-0.195,1.02-0.375
			c0.285-0.07,0.715-0.141,1.287-0.213v-6.434c0.391,0.037,0.926,0.053,1.607,0.053c0.678,0,1.213-0.016,1.607-0.053v6.434
			c0.572,0.072,1,0.143,1.287,0.213c0.678,0.18,1.018,0.305,1.018,0.375C17.783,53.871,17.408,53.984,16.658,54.146z M16.658,44.713
			c-0.75,0.16-1.682,0.24-2.787,0.24c-1.109,0-2.037-0.08-2.787-0.24c-0.752-0.162-1.127-0.277-1.127-0.35
			c0-0.07,0.375-0.195,1.127-0.377c0.75-0.176,1.678-0.266,2.787-0.266c1.105,0,2.037,0.09,2.787,0.266
			c0.75,0.182,1.125,0.307,1.125,0.377C17.783,44.436,17.408,44.551,16.658,44.713z M16.766,35.252
			c-0.287,0.072-0.715,0.143-1.287,0.213v6.434c-0.395-0.035-0.93-0.055-1.607-0.055c-0.682,0-1.217,0.02-1.607,0.055v-6.434
			c-0.572-0.07-1.002-0.141-1.287-0.213c-0.68-0.18-1.02-0.303-1.02-0.377c0-0.07,0.375-0.193,1.127-0.375
			c0.75-0.178,1.678-0.268,2.787-0.268c1.105,0,2.037,0.09,2.787,0.268c0.75,0.182,1.125,0.305,1.125,0.375
			C17.783,34.949,17.443,35.072,16.766,35.252z"/>
		<path fill="#A8DADC" d="M59.914,63.178c0-0.75-0.758-1.35-2.277-1.795c-1.52-0.447-3.242-0.67-5.172-0.67s-3.654,0.223-5.174,0.67
			c-1.52,0.445-2.277,1.045-2.277,1.795c0,0.822,0.893,1.467,2.68,1.93v5.682c-1.787,0.537-2.68,1.18-2.68,1.93
			c0,0.824,0.893,1.467,2.68,1.93v5.629c-1.787,0.535-2.68,1.199-2.68,1.982c0,0.824,0.768,1.432,2.305,1.822
			c1.535,0.395,3.252,0.59,5.146,0.59c1.893,0,3.609-0.195,5.145-0.59c1.535-0.391,2.305-0.998,2.305-1.822
			c0-0.783-0.893-1.447-2.68-1.982v-5.629c1.787-0.463,2.68-1.105,2.68-1.93c0-0.75-0.893-1.393-2.68-1.93v-5.682
			C59.021,64.645,59.914,64,59.914,63.178z M55.252,82.502c-0.75,0.162-1.682,0.24-2.787,0.24c-1.109,0-2.037-0.078-2.789-0.24
			c-0.748-0.16-1.123-0.275-1.123-0.35c0-0.068,0.338-0.195,1.018-0.375c0.285-0.07,0.713-0.141,1.285-0.213v-6.434
			c0.393,0.037,0.93,0.055,1.609,0.055c0.678,0,1.213-0.018,1.607-0.055v6.434c0.57,0.072,1,0.143,1.287,0.213
			c0.678,0.18,1.018,0.307,1.018,0.375C56.377,82.227,56.002,82.342,55.252,82.502z M55.252,73.068
			c-0.75,0.162-1.682,0.24-2.787,0.24c-1.109,0-2.037-0.078-2.789-0.24c-0.748-0.16-1.123-0.277-1.123-0.35
			c0-0.07,0.375-0.195,1.123-0.375c0.752-0.178,1.68-0.268,2.789-0.268c1.105,0,2.037,0.09,2.787,0.268
			c0.75,0.18,1.125,0.305,1.125,0.375C56.377,72.791,56.002,72.908,55.252,73.068z M55.359,63.607
			c-0.287,0.072-0.717,0.143-1.287,0.215v6.432c-0.395-0.035-0.93-0.055-1.607-0.055c-0.68,0-1.217,0.02-1.609,0.055v-6.432
			c-0.572-0.072-1-0.143-1.285-0.215c-0.68-0.18-1.018-0.303-1.018-0.377c0-0.07,0.375-0.195,1.123-0.375
			c0.752-0.178,1.68-0.268,2.789-0.268c1.105,0,2.037,0.09,2.787,0.268c0.75,0.18,1.125,0.305,1.125,0.375
			C56.377,63.305,56.037,63.428,55.359,63.607z"/>
		<path fill="#66ABC6" d="M40.617,63.178c0-0.75-0.76-1.35-2.277-1.795c-1.518-0.447-3.242-0.67-5.172-0.67s-3.654,0.223-5.176,0.67
			c-1.518,0.445-2.277,1.045-2.277,1.795c0,0.822,0.895,1.467,2.682,1.93v5.682c-1.787,0.537-2.682,1.18-2.682,1.93
			c0,0.824,0.895,1.467,2.682,1.93v5.629c-1.787,0.535-2.682,1.199-2.682,1.982c0,0.824,0.77,1.432,2.307,1.822
			c1.535,0.395,3.252,0.59,5.146,0.59c1.893,0,3.607-0.195,5.146-0.59c1.533-0.391,2.303-0.998,2.303-1.822
			c0-0.783-0.893-1.447-2.68-1.982v-5.629c1.787-0.463,2.68-1.105,2.68-1.93c0-0.75-0.893-1.393-2.68-1.93v-5.682
			C39.725,64.645,40.617,64,40.617,63.178z M35.953,82.502c-0.748,0.162-1.68,0.24-2.785,0.24c-1.109,0-2.037-0.078-2.787-0.24
			c-0.752-0.16-1.127-0.275-1.127-0.35c0-0.068,0.34-0.195,1.02-0.375c0.285-0.07,0.715-0.141,1.287-0.213v-6.434
			c0.391,0.037,0.928,0.055,1.607,0.055c0.678,0,1.213-0.018,1.607-0.055v6.434c0.57,0.072,1,0.143,1.287,0.213
			c0.678,0.18,1.018,0.307,1.018,0.375C37.08,82.227,36.705,82.342,35.953,82.502z M35.953,73.068
			c-0.748,0.162-1.68,0.24-2.785,0.24c-1.109,0-2.037-0.078-2.787-0.24c-0.752-0.16-1.127-0.277-1.127-0.35
			c0-0.07,0.375-0.195,1.127-0.375c0.75-0.178,1.678-0.268,2.787-0.268c1.105,0,2.037,0.09,2.785,0.268
			c0.752,0.18,1.127,0.305,1.127,0.375C37.08,72.791,36.705,72.908,35.953,73.068z M36.062,63.607
			c-0.287,0.072-0.717,0.143-1.287,0.215v6.432c-0.395-0.035-0.93-0.055-1.607-0.055c-0.68,0-1.217,0.02-1.607,0.055v-6.432
			c-0.572-0.072-1.002-0.143-1.287-0.215c-0.68-0.18-1.02-0.303-1.02-0.377c0-0.07,0.375-0.195,1.127-0.375
			c0.75-0.178,1.678-0.268,2.787-0.268c1.105,0,2.037,0.09,2.785,0.268c0.752,0.18,1.127,0.305,1.127,0.375
			C37.08,63.305,36.74,63.428,36.062,63.607z"/>
	</g>
</g>
</svg>
