<?xml version="1.0" encoding="utf-8"?>
<!-- Generator: Adobe Illustrator 16.0.0, SVG Export Plug-In . SVG Version: 6.00 Build 0)  -->
<!DOCTYPE svg PUBLIC "-//W3C//DTD SVG 1.1//EN" "http://www.w3.org/Graphics/SVG/1.1/DTD/svg11.dtd">
<svg version="1.1" id="Layer_1" xmlns="http://www.w3.org/2000/svg" xmlns:xlink="http://www.w3.org/1999/xlink" x="0px" y="0px"
	 width="66.334px" height="88.5px" viewBox="0 0 66.334 88.5" enable-background="new 0 0 66.334 88.5" xml:space="preserve">
<g>
	<g>
		<path fill="#A8DADC" d="M21.319,63.178c0-0.75-0.759-1.349-2.277-1.795c-1.519-0.447-3.242-0.67-5.173-0.67
			c-1.929,0-3.653,0.223-5.172,0.67c-1.519,0.446-2.278,1.045-2.278,1.795c0,0.822,0.895,1.465,2.68,1.93v5.681
			c-1.785,0.537-2.68,1.18-2.68,1.93c0,0.822,0.895,1.466,2.68,1.93v5.628c-1.785,0.535-2.68,1.197-2.68,1.983
			c0,0.822,0.768,1.431,2.305,1.823c1.536,0.393,3.252,0.589,5.146,0.589s3.609-0.196,5.146-0.589c1.536-0.392,2.304-1,2.304-1.823
			c0-0.786-0.894-1.448-2.679-1.983v-5.628c1.785-0.464,2.679-1.108,2.679-1.93c0-0.75-0.894-1.394-2.679-1.93v-5.681
			C20.426,64.643,21.319,64,21.319,63.178z M16.657,82.501c-0.75,0.161-1.681,0.242-2.788,0.242s-2.036-0.081-2.788-0.242
			c-0.75-0.161-1.125-0.276-1.125-0.348c0-0.07,0.34-0.196,1.02-0.375c0.285-0.071,0.714-0.143,1.286-0.214v-6.432
			c0.393,0.036,0.93,0.053,1.607,0.053c0.679,0,1.216-0.017,1.608-0.053v6.432c0.571,0.071,1.001,0.144,1.286,0.214
			c0.679,0.179,1.019,0.305,1.019,0.375C17.782,82.225,17.407,82.34,16.657,82.501z M16.657,73.067
			c-0.75,0.161-1.681,0.241-2.788,0.241s-2.036-0.08-2.788-0.241c-0.75-0.161-1.125-0.277-1.125-0.349
			c0-0.071,0.375-0.196,1.125-0.375c0.752-0.178,1.681-0.268,2.788-0.268s2.038,0.09,2.788,0.268
			c0.75,0.179,1.125,0.304,1.125,0.375C17.782,72.791,17.407,72.906,16.657,73.067z M16.764,63.606
			c-0.285,0.072-0.715,0.145-1.286,0.215v6.431c-0.393-0.035-0.93-0.053-1.608-0.053c-0.678,0-1.215,0.018-1.607,0.053v-6.431
			c-0.572-0.071-1.001-0.144-1.286-0.215c-0.68-0.177-1.02-0.302-1.02-0.375c0-0.071,0.375-0.197,1.125-0.376
			c0.752-0.178,1.681-0.268,2.788-0.268s2.038,0.09,2.788,0.268c0.75,0.179,1.125,0.305,1.125,0.376
			C17.782,63.304,17.442,63.429,16.764,63.606z"/>
		<path fill="#E63946" d="M40.618,34.822c0-0.75-0.761-1.349-2.279-1.795c-1.52-0.447-3.242-0.67-5.172-0.67
			c-1.931,0-3.654,0.224-5.173,0.67c-1.52,0.447-2.278,1.045-2.278,1.795c0,0.822,0.894,1.465,2.68,1.93v5.682
			c-1.786,0.536-2.68,1.18-2.68,1.93c0,0.822,0.894,1.466,2.68,1.93v5.628c-1.786,0.536-2.68,1.197-2.68,1.983
			c0,0.822,0.769,1.43,2.305,1.823c1.537,0.393,3.252,0.59,5.146,0.59c1.894,0,3.608-0.197,5.145-0.59s2.307-1.001,2.307-1.823
			c0-0.786-0.896-1.447-2.682-1.983v-5.628c1.786-0.463,2.682-1.107,2.682-1.93c0-0.75-0.896-1.394-2.682-1.93v-5.682
			C39.723,36.287,40.618,35.644,40.618,34.822z M35.955,54.146c-0.751,0.161-1.682,0.242-2.788,0.242
			c-1.108,0-2.038-0.081-2.787-0.242c-0.751-0.16-1.127-0.276-1.127-0.348c0-0.071,0.34-0.196,1.02-0.375
			c0.284-0.071,0.713-0.143,1.285-0.214v-6.432c0.393,0.036,0.93,0.053,1.609,0.053c0.678,0,1.215-0.017,1.608-0.053v6.432
			c0.571,0.072,1,0.144,1.285,0.214c0.679,0.179,1.02,0.305,1.02,0.375C37.08,53.869,36.705,53.985,35.955,54.146z M35.955,44.711
			c-0.751,0.162-1.682,0.242-2.788,0.242c-1.108,0-2.038-0.081-2.787-0.242c-0.751-0.16-1.127-0.276-1.127-0.348
			c0-0.071,0.376-0.196,1.127-0.375c0.749-0.178,1.679-0.268,2.787-0.268c1.106,0,2.037,0.09,2.788,0.268
			c0.75,0.179,1.125,0.304,1.125,0.375C37.08,44.435,36.705,44.551,35.955,44.711z M36.061,35.25
			c-0.285,0.072-0.714,0.144-1.285,0.214v6.433c-0.394-0.036-0.931-0.053-1.608-0.053c-0.68,0-1.217,0.018-1.609,0.053v-6.433
			c-0.572-0.071-1.001-0.143-1.285-0.214c-0.68-0.178-1.02-0.303-1.02-0.375c0-0.071,0.376-0.196,1.127-0.375
			c0.749-0.178,1.679-0.268,2.787-0.268c1.106,0,2.037,0.09,2.788,0.268c0.75,0.179,1.125,0.305,1.125,0.375
			C37.08,34.948,36.739,35.072,36.061,35.25z"/>
		<path fill="#A8DADC" d="M59.915,16.007c0-0.75-0.895-1.394-2.681-1.93V8.396c1.786-0.465,2.681-1.108,2.681-1.93
			c0-0.75-0.761-1.349-2.278-1.795C56.117,4.224,54.393,4,52.464,4c-1.931,0-3.655,0.223-5.173,0.67
			c-1.52,0.446-2.277,1.045-2.277,1.795c0,0.822,0.893,1.465,2.679,1.93v5.681c-1.786,0.536-2.679,1.18-2.679,1.93
			c0,0.822,0.893,1.466,2.679,1.929v5.629c-1.786,0.536-2.679,1.197-2.679,1.983c0,0.823,0.767,1.431,2.303,1.823
			c1.538,0.394,3.253,0.59,5.147,0.59c1.893,0,3.608-0.196,5.145-0.59c1.538-0.392,2.307-1,2.307-1.823
			c0-0.786-0.895-1.447-2.681-1.983v-5.629C59.021,17.473,59.915,16.829,59.915,16.007z M55.252,25.79
			c-0.752,0.161-1.682,0.241-2.788,0.241c-1.108,0-2.037-0.08-2.787-0.241c-0.751-0.16-1.127-0.276-1.127-0.348
			c0-0.071,0.339-0.196,1.02-0.375c0.285-0.071,0.714-0.143,1.286-0.215v-6.433c0.393,0.037,0.929,0.054,1.608,0.054
			c0.678,0,1.214-0.017,1.607-0.054v6.433c0.571,0.072,1,0.144,1.287,0.215c0.678,0.179,1.018,0.304,1.018,0.375
			C56.376,25.513,56.001,25.629,55.252,25.79z M55.252,16.355c-0.752,0.161-1.682,0.242-2.788,0.242
			c-1.108,0-2.037-0.081-2.787-0.242c-0.751-0.16-1.127-0.275-1.127-0.348c0-0.07,0.376-0.196,1.127-0.375
			c0.75-0.179,1.679-0.268,2.787-0.268c1.106,0,2.036,0.089,2.788,0.268c0.749,0.178,1.124,0.304,1.124,0.375
			C56.376,16.08,56.001,16.195,55.252,16.355z M55.358,6.895c-0.287,0.072-0.716,0.144-1.287,0.214v6.433
			c-0.394-0.036-0.93-0.054-1.607-0.054c-0.68,0-1.216,0.018-1.608,0.054V7.109c-0.572-0.07-1.001-0.143-1.286-0.214
			c-0.681-0.178-1.02-0.303-1.02-0.375c0-0.07,0.376-0.196,1.127-0.375c0.75-0.178,1.679-0.268,2.787-0.268
			c1.106,0,2.036,0.09,2.788,0.268c0.749,0.179,1.124,0.305,1.124,0.375C56.376,6.591,56.036,6.717,55.358,6.895z"/>
		<path fill="#E63946" d="M40.618,63.178c0-0.75-0.761-1.349-2.279-1.795c-1.52-0.447-3.242-0.67-5.172-0.67
			c-1.931,0-3.654,0.223-5.173,0.67c-1.52,0.446-2.278,1.045-2.278,1.795c0,0.822,0.894,1.465,2.68,1.93v5.681
			c-1.786,0.537-2.68,1.18-2.68,1.93c0,0.822,0.894,1.466,2.68,1.93v5.628c-1.786,0.535-2.68,1.197-2.68,1.983
			c0,0.822,0.769,1.431,2.305,1.823c1.537,0.393,3.252,0.589,5.146,0.589c1.894,0,3.608-0.196,5.145-0.589
			c1.536-0.392,2.307-1,2.307-1.823c0-0.786-0.896-1.448-2.682-1.983v-5.628c1.786-0.464,2.682-1.108,2.682-1.93
			c0-0.75-0.896-1.394-2.682-1.93v-5.681C39.723,64.643,40.618,64,40.618,63.178z M35.955,82.501
			c-0.751,0.161-1.682,0.242-2.788,0.242c-1.108,0-2.038-0.081-2.787-0.242c-0.751-0.161-1.127-0.276-1.127-0.348
			c0-0.07,0.34-0.196,1.02-0.375c0.284-0.071,0.713-0.143,1.285-0.214v-6.432c0.393,0.036,0.93,0.053,1.609,0.053
			c0.678,0,1.215-0.017,1.608-0.053v6.432c0.571,0.071,1,0.144,1.285,0.214c0.679,0.179,1.02,0.305,1.02,0.375
			C37.08,82.225,36.705,82.34,35.955,82.501z M35.955,73.067c-0.751,0.161-1.682,0.241-2.788,0.241c-1.108,0-2.038-0.08-2.787-0.241
			c-0.751-0.161-1.127-0.277-1.127-0.349c0-0.071,0.376-0.196,1.127-0.375c0.749-0.178,1.679-0.268,2.787-0.268
			c1.106,0,2.037,0.09,2.788,0.268c0.75,0.179,1.125,0.304,1.125,0.375C37.08,72.791,36.705,72.906,35.955,73.067z M36.061,63.606
			c-0.285,0.072-0.714,0.145-1.285,0.215v6.431c-0.394-0.035-0.931-0.053-1.608-0.053c-0.68,0-1.217,0.018-1.609,0.053v-6.431
			c-0.572-0.071-1.001-0.144-1.285-0.215c-0.68-0.177-1.02-0.302-1.02-0.375c0-0.071,0.376-0.197,1.127-0.376
			c0.749-0.178,1.679-0.268,2.787-0.268c1.106,0,2.037,0.09,2.788,0.268c0.75,0.179,1.125,0.305,1.125,0.376
			C37.08,63.304,36.739,63.429,36.061,63.606z"/>
		<path fill="#A8DADC" d="M59.915,63.178c0-0.75-0.761-1.349-2.278-1.795c-1.52-0.447-3.244-0.67-5.173-0.67
			c-1.931,0-3.655,0.223-5.173,0.67c-1.52,0.446-2.277,1.045-2.277,1.795c0,0.822,0.893,1.465,2.679,1.93v5.681
			c-1.786,0.537-2.679,1.18-2.679,1.93c0,0.822,0.893,1.466,2.679,1.93v5.628c-1.786,0.535-2.679,1.197-2.679,1.983
			c0,0.822,0.767,1.431,2.303,1.823c1.538,0.393,3.253,0.589,5.147,0.589c1.893,0,3.608-0.196,5.145-0.589
			c1.538-0.392,2.307-1,2.307-1.823c0-0.786-0.895-1.448-2.681-1.983v-5.628c1.786-0.464,2.681-1.108,2.681-1.93
			c0-0.75-0.895-1.394-2.681-1.93v-5.681C59.021,64.643,59.915,64,59.915,63.178z M55.252,82.501
			c-0.752,0.161-1.682,0.242-2.788,0.242c-1.108,0-2.037-0.081-2.787-0.242c-0.751-0.161-1.127-0.276-1.127-0.348
			c0-0.07,0.339-0.196,1.02-0.375c0.285-0.071,0.714-0.143,1.286-0.214v-6.432c0.393,0.036,0.929,0.053,1.608,0.053
			c0.678,0,1.214-0.017,1.607-0.053v6.432c0.571,0.071,1,0.144,1.287,0.214c0.678,0.179,1.018,0.305,1.018,0.375
			C56.376,82.225,56.001,82.34,55.252,82.501z M55.252,73.067c-0.752,0.161-1.682,0.241-2.788,0.241
			c-1.108,0-2.037-0.08-2.787-0.241c-0.751-0.161-1.127-0.277-1.127-0.349c0-0.071,0.376-0.196,1.127-0.375
			c0.75-0.178,1.679-0.268,2.787-0.268c1.106,0,2.036,0.09,2.788,0.268c0.749,0.179,1.124,0.304,1.124,0.375
			C56.376,72.791,56.001,72.906,55.252,73.067z M55.358,63.606c-0.287,0.072-0.716,0.145-1.287,0.215v6.431
			c-0.394-0.035-0.93-0.053-1.607-0.053c-0.68,0-1.216,0.018-1.608,0.053v-6.431c-0.572-0.071-1.001-0.144-1.286-0.215
			c-0.681-0.177-1.02-0.302-1.02-0.375c0-0.071,0.376-0.197,1.127-0.376c0.75-0.178,1.679-0.268,2.787-0.268
			c1.106,0,2.036,0.09,2.788,0.268c0.749,0.179,1.124,0.305,1.124,0.376C56.376,63.304,56.036,63.429,55.358,63.606z"/>
		<path fill="#E63946" d="M40.618,6.466c0-0.75-0.761-1.349-2.279-1.795C36.819,4.224,35.097,4,33.167,4
			c-1.931,0-3.654,0.223-5.173,0.67c-1.52,0.446-2.278,1.045-2.278,1.795c0,0.822,0.894,1.465,2.68,1.93v5.681
			c-1.786,0.536-2.68,1.18-2.68,1.93c0,0.822,0.894,1.466,2.68,1.929v5.629c-1.786,0.536-2.68,1.197-2.68,1.983
			c0,0.823,0.769,1.431,2.305,1.823c1.537,0.394,3.252,0.59,5.146,0.59c1.894,0,3.608-0.196,5.145-0.59
			c1.536-0.392,2.307-1,2.307-1.823c0-0.786-0.896-1.447-2.682-1.983v-5.629c1.786-0.463,2.682-1.107,2.682-1.929
			c0-0.75-0.896-1.394-2.682-1.93V8.396C39.723,7.931,40.618,7.289,40.618,6.466z M35.955,25.79
			c-0.751,0.161-1.682,0.241-2.788,0.241c-1.108,0-2.038-0.08-2.787-0.241c-0.751-0.16-1.127-0.276-1.127-0.348
			c0-0.071,0.34-0.196,1.02-0.375c0.284-0.071,0.713-0.143,1.285-0.215v-6.433c0.393,0.037,0.93,0.054,1.609,0.054
			c0.678,0,1.215-0.017,1.608-0.054v6.433c0.571,0.072,1,0.144,1.285,0.215c0.679,0.179,1.02,0.304,1.02,0.375
			C37.08,25.513,36.705,25.629,35.955,25.79z M35.955,16.355c-0.751,0.161-1.682,0.242-2.788,0.242
			c-1.108,0-2.038-0.081-2.787-0.242c-0.751-0.16-1.127-0.275-1.127-0.348c0-0.07,0.376-0.196,1.127-0.375
			c0.749-0.179,1.679-0.268,2.787-0.268c1.106,0,2.037,0.089,2.788,0.268c0.75,0.178,1.125,0.304,1.125,0.375
			C37.08,16.08,36.705,16.195,35.955,16.355z M36.061,6.895c-0.285,0.072-0.714,0.144-1.285,0.214v6.433
			c-0.394-0.036-0.931-0.054-1.608-0.054c-0.68,0-1.217,0.018-1.609,0.054V7.109c-0.572-0.07-1.001-0.143-1.285-0.214
			c-0.68-0.178-1.02-0.303-1.02-0.375c0-0.07,0.376-0.196,1.127-0.375c0.749-0.178,1.679-0.268,2.787-0.268
			c1.106,0,2.037,0.09,2.788,0.268c0.75,0.179,1.125,0.305,1.125,0.375C37.08,6.591,36.739,6.717,36.061,6.895z"/>
		<path fill="#A8DADC" d="M21.319,6.466c0-0.75-0.759-1.349-2.277-1.795C17.523,4.224,15.8,4,13.869,4
			c-1.929,0-3.653,0.223-5.172,0.67C7.179,5.117,6.419,5.716,6.419,6.466c0,0.822,0.895,1.465,2.68,1.93v5.681
			c-1.785,0.536-2.68,1.18-2.68,1.93c0,0.822,0.895,1.466,2.68,1.929v5.629c-1.785,0.536-2.68,1.197-2.68,1.983
			c0,0.823,0.768,1.431,2.305,1.823c1.536,0.394,3.252,0.59,5.146,0.59s3.609-0.196,5.146-0.59c1.536-0.392,2.304-1,2.304-1.823
			c0-0.786-0.894-1.447-2.679-1.983v-5.629c1.785-0.463,2.679-1.107,2.679-1.929c0-0.75-0.894-1.394-2.679-1.93V8.396
			C20.426,7.931,21.319,7.289,21.319,6.466z M16.657,25.79c-0.75,0.161-1.681,0.241-2.788,0.241s-2.036-0.08-2.788-0.241
			c-0.75-0.16-1.125-0.276-1.125-0.348c0-0.071,0.34-0.196,1.02-0.375c0.285-0.071,0.714-0.143,1.286-0.215v-6.433
			c0.393,0.037,0.93,0.054,1.607,0.054c0.679,0,1.216-0.017,1.608-0.054v6.433c0.571,0.072,1.001,0.144,1.286,0.215
			c0.679,0.179,1.019,0.304,1.019,0.375C17.782,25.513,17.407,25.629,16.657,25.79z M16.657,16.355
			c-0.75,0.161-1.681,0.242-2.788,0.242s-2.036-0.081-2.788-0.242c-0.75-0.16-1.125-0.275-1.125-0.348
			c0-0.07,0.375-0.196,1.125-0.375c0.752-0.179,1.681-0.268,2.788-0.268s2.038,0.089,2.788,0.268
			c0.75,0.178,1.125,0.304,1.125,0.375C17.782,16.08,17.407,16.195,16.657,16.355z M16.764,6.895
			c-0.285,0.072-0.715,0.144-1.286,0.214v6.433c-0.393-0.036-0.93-0.054-1.608-0.054c-0.678,0-1.215,0.018-1.607,0.054V7.109
			c-0.572-0.07-1.001-0.143-1.286-0.214c-0.68-0.178-1.02-0.303-1.02-0.375c0-0.07,0.375-0.196,1.125-0.375
			c0.752-0.178,1.681-0.268,2.788-0.268s2.038,0.09,2.788,0.268c0.75,0.179,1.125,0.305,1.125,0.375
			C17.782,6.591,17.442,6.717,16.764,6.895z"/>
		<path fill="#A8DADC" d="M21.319,34.822c0-0.75-0.759-1.349-2.277-1.795s-3.242-0.67-5.173-0.67c-1.929,0-3.653,0.224-5.172,0.67
			s-2.278,1.045-2.278,1.795c0,0.822,0.895,1.465,2.68,1.93v5.682c-1.785,0.536-2.68,1.18-2.68,1.93c0,0.822,0.895,1.466,2.68,1.93
			v5.628c-1.785,0.536-2.68,1.197-2.68,1.983c0,0.822,0.768,1.43,2.305,1.823c1.536,0.393,3.252,0.59,5.146,0.59
			s3.609-0.197,5.146-0.59c1.536-0.393,2.304-1.001,2.304-1.823c0-0.786-0.894-1.447-2.679-1.983v-5.628
			c1.785-0.463,2.679-1.107,2.679-1.93c0-0.75-0.894-1.394-2.679-1.93v-5.682C20.426,36.287,21.319,35.644,21.319,34.822z
			 M16.657,54.146c-0.75,0.161-1.681,0.242-2.788,0.242s-2.036-0.081-2.788-0.242c-0.75-0.16-1.125-0.276-1.125-0.348
			c0-0.071,0.34-0.196,1.02-0.375c0.285-0.071,0.714-0.143,1.286-0.214v-6.432c0.393,0.036,0.93,0.053,1.607,0.053
			c0.679,0,1.216-0.017,1.608-0.053v6.432c0.571,0.072,1.001,0.144,1.286,0.214c0.679,0.179,1.019,0.305,1.019,0.375
			C17.782,53.869,17.407,53.985,16.657,54.146z M16.657,44.711c-0.75,0.162-1.681,0.242-2.788,0.242s-2.036-0.081-2.788-0.242
			c-0.75-0.16-1.125-0.276-1.125-0.348c0-0.071,0.375-0.196,1.125-0.375c0.752-0.178,1.681-0.268,2.788-0.268
			s2.038,0.09,2.788,0.268c0.75,0.179,1.125,0.304,1.125,0.375C17.782,44.435,17.407,44.551,16.657,44.711z M16.764,35.25
			c-0.285,0.072-0.715,0.144-1.286,0.214v6.433c-0.393-0.036-0.93-0.053-1.608-0.053c-0.678,0-1.215,0.018-1.607,0.053v-6.433
			c-0.572-0.071-1.001-0.143-1.286-0.214c-0.68-0.178-1.02-0.303-1.02-0.375c0-0.071,0.375-0.196,1.125-0.375
			c0.752-0.178,1.681-0.268,2.788-0.268s2.038,0.09,2.788,0.268c0.75,0.179,1.125,0.305,1.125,0.375
			C17.782,34.948,17.442,35.072,16.764,35.25z"/>
		<path fill="#A8DADC" d="M59.915,34.822c0-0.75-0.761-1.349-2.278-1.795c-1.52-0.447-3.244-0.67-5.173-0.67
			c-1.931,0-3.655,0.224-5.173,0.67c-1.52,0.447-2.277,1.045-2.277,1.795c0,0.822,0.893,1.465,2.679,1.93v5.682
			c-1.786,0.536-2.679,1.18-2.679,1.93c0,0.822,0.893,1.466,2.679,1.93v5.628c-1.786,0.536-2.679,1.197-2.679,1.983
			c0,0.822,0.767,1.43,2.303,1.823c1.538,0.393,3.253,0.59,5.147,0.59c1.893,0,3.608-0.197,5.145-0.59
			c1.538-0.393,2.307-1.001,2.307-1.823c0-0.786-0.895-1.447-2.681-1.983v-5.628c1.786-0.463,2.681-1.107,2.681-1.93
			c0-0.75-0.895-1.394-2.681-1.93v-5.682C59.021,36.287,59.915,35.644,59.915,34.822z M55.252,54.146
			c-0.752,0.161-1.682,0.242-2.788,0.242c-1.108,0-2.037-0.081-2.787-0.242c-0.751-0.16-1.127-0.276-1.127-0.348
			c0-0.071,0.339-0.196,1.02-0.375c0.285-0.071,0.714-0.143,1.286-0.214v-6.432c0.393,0.036,0.929,0.053,1.608,0.053
			c0.678,0,1.214-0.017,1.607-0.053v6.432c0.571,0.072,1,0.144,1.287,0.214c0.678,0.179,1.018,0.305,1.018,0.375
			C56.376,53.869,56.001,53.985,55.252,54.146z M55.252,44.711c-0.752,0.162-1.682,0.242-2.788,0.242
			c-1.108,0-2.037-0.081-2.787-0.242c-0.751-0.16-1.127-0.276-1.127-0.348c0-0.071,0.376-0.196,1.127-0.375
			c0.75-0.178,1.679-0.268,2.787-0.268c1.106,0,2.036,0.09,2.788,0.268c0.749,0.179,1.124,0.304,1.124,0.375
			C56.376,44.435,56.001,44.551,55.252,44.711z M55.358,35.25c-0.287,0.072-0.716,0.144-1.287,0.214v6.433
			c-0.394-0.036-0.93-0.053-1.607-0.053c-0.68,0-1.216,0.018-1.608,0.053v-6.433c-0.572-0.071-1.001-0.143-1.286-0.214
			c-0.681-0.178-1.02-0.303-1.02-0.375c0-0.071,0.376-0.196,1.127-0.375c0.75-0.178,1.679-0.268,2.787-0.268
			c1.106,0,2.036,0.09,2.788,0.268c0.749,0.179,1.124,0.305,1.124,0.375C56.376,34.948,56.036,35.072,55.358,35.25z"/>
	</g>
</g>
</svg>
