<?xml version="1.0" encoding="utf-8"?>
<!-- Generator: Adobe Illustrator 16.0.0, SVG Export Plug-In . SVG Version: 6.00 Build 0)  -->
<!DOCTYPE svg PUBLIC "-//W3C//DTD SVG 1.1//EN" "http://www.w3.org/Graphics/SVG/1.1/DTD/svg11.dtd">
<svg version="1.1" id="Layer_1" xmlns="http://www.w3.org/2000/svg" xmlns:xlink="http://www.w3.org/1999/xlink" x="0px" y="0px"
	 width="66.334px" height="88.5px" viewBox="0 0 66.334 88.5" enable-background="new 0 0 66.334 88.5" xml:space="preserve">
<g>
	<path fill="#66ABC6" d="M28.182,79.071c-0.679,0-1.197-0.356-1.554-1.072c-0.215-0.536-0.804-1.411-1.77-2.626
		c-0.965-1.214-2.055-2.421-3.27-3.618c-1.215-1.198-2.519-2.26-3.913-3.19c-1.394-0.892-2.09-1.715-2.09-2.466
		c4.931,1.574,8.952,2.449,12.061,2.627l-0.697-15.598c-2.645,4.109-6.146,7.326-10.506,9.647c-4.36,2.325-8.416,3.432-12.167,3.323
		l1.769-0.964c7.754-4.43,14.275-9.917,19.564-16.456c-2.788,1.216-4.396,1.822-4.824,1.822c-0.536,0-0.93-0.142-1.179-0.429
		c-0.358-0.536-0.787-1.41-1.287-2.627c-1.144-2.857-2.341-5.447-3.591-7.772c-1.251-2.321-2.859-4.609-4.825-6.861
		c1.108-0.106,3.073,0.054,5.896,0.482c1.572,0.288,3.841-0.141,6.808-1.286l4.341-1.607v-3.538
		c-2.645,0.823-4.574,1.34-5.789,1.555c-2.037,0.357-3.574-0.57-4.609-2.788l10.398-2.572c0-3.786-0.303-6.289-0.911-7.505
		c-0.608-1.213-2.074-2.09-4.396-2.626c2.072-0.892,3.394-2.001,3.966-3.323c0.715,1.108,1.831,2.127,3.35,3.056
		c1.518,0.93,3.511,1.627,5.977,2.09c-1.287,1.108-2.091,3.216-2.413,6.325c3.002-0.965,4.789-1.447,5.361-1.447
		c0.571,0,1.321,0.305,2.251,0.911c0.929,0.608,1.393,1.072,1.393,1.394c0,1.108-1.09,1.896-3.27,2.359l-5.896,1.393v3.538
		c5.11-1.716,8.183-2.606,9.22-2.68c4.323,1.645,7.164,3.734,8.522,6.271c0,0.251-0.286,0.751-0.857,1.502
		c-1.822,2.572-3.082,4.886-3.779,6.941c-0.696,2.055-1.724,3.798-3.082,5.227c-1.393,1.536-2.681,2.305-3.859,2.305L34.4,47.981
		c5.753,5.541,12.685,9.239,20.798,11.096l6.86,1.501c0,0.895-1.162,1.501-3.484,1.822c-2.18,0.321-4.234,0.984-6.164,1.983
		c-1.751,0.895-2.967,1.34-3.645,1.34c-0.93,0-2.046-0.615-3.351-1.848c-1.304-1.233-2.957-2.886-4.958-4.96L32.363,50.5
		c0,3.859,0.169,7.631,0.509,11.311c0.339,3.681,0.509,6.485,0.509,8.415c0,2.68-0.491,4.824-1.474,6.433
		C30.925,78.266,29.683,79.071,28.182,79.071z M22.821,47.285l4.127-1.019v-4.127c-1.965,0.357-3.627-0.322-4.985-2.037
		c1.965-0.715,3.627-1.357,4.985-1.93v-4.449l-4.877,1.607c-1.573,0.573-2.645,0.912-3.216,1.019
		c0.464,1.859,1.018,3.708,1.661,5.549C21.16,43.738,21.929,45.535,22.821,47.285z M38.366,46.641
		c2.323-6.325,3.484-10.434,3.484-12.328c0-2.715-0.679-4.021-2.037-3.913c-2.288,0.287-4.771,0.84-7.451,1.661v4.288
		c0.429-0.215,1.152-0.42,2.171-0.615c1.019-0.197,1.858,0.018,2.52,0.644c0.66,0.624,0.991,1.117,0.991,1.474
		c0,0.786-0.464,1.339-1.393,1.661c-1.965,0.68-3.396,1.125-4.289,1.34v4.503l1.876-0.215
		C35.847,44.962,37.223,45.462,38.366,46.641z"/>
</g>
</svg>
