<?xml version="1.0" encoding="utf-8"?>
<!-- Generator: Adobe Illustrator 16.0.0, SVG Export Plug-In . SVG Version: 6.00 Build 0)  -->
<!DOCTYPE svg PUBLIC "-//W3C//DTD SVG 1.1//EN" "http://www.w3.org/Graphics/SVG/1.1/DTD/svg11.dtd">
<svg version="1.1" id="Layer_1" xmlns="http://www.w3.org/2000/svg" xmlns:xlink="http://www.w3.org/1999/xlink" x="0px" y="0px"
	 width="66.334px" height="88.5px" viewBox="0 0 66.334 88.5" enable-background="new 0 0 66.334 88.5" xml:space="preserve">
<g>
	<g>
		<path fill="#283E99" d="M14.697,80.638c-1.726,0-3.19-0.602-4.395-1.807c-1.205-1.203-1.807-2.668-1.807-4.395v-59.18
			c0-1.758,0.602-3.23,1.807-4.418c1.204-1.189,2.669-1.783,4.395-1.783h37.012c1.758,0,3.239,0.594,4.443,1.783
			c1.204,1.188,1.807,2.66,1.807,4.418v59.18c0,1.727-0.603,3.191-1.807,4.395c-1.205,1.205-2.686,1.807-4.443,1.807H14.697z
			 M14.697,77.61h37.012c0.911,0,1.676-0.301,2.295-0.902c0.618-0.604,0.928-1.359,0.928-2.271v-59.18c0-0.91-0.31-1.668-0.928-2.27
			c-0.619-0.604-1.384-0.904-2.295-0.904H14.697c-0.879,0-1.628,0.301-2.246,0.904c-0.619,0.602-0.928,1.359-0.928,2.27v59.18
			c0,0.912,0.309,1.668,0.928,2.271C13.069,77.31,13.818,77.61,14.697,77.61z M14.355,20.628c0-1.758,0.602-3.23,1.807-4.418
			c1.204-1.189,2.669-1.783,4.395-1.783h25.293c1.758,0,3.239,0.594,4.443,1.783c1.204,1.188,1.807,2.66,1.807,4.418v48.438
			c0,1.727-0.603,3.191-1.807,4.395c-1.205,1.205-2.686,1.807-4.443,1.807H20.556c-1.726,0-3.19-0.602-4.395-1.807
			c-1.205-1.203-1.807-2.668-1.807-4.395V20.628z M17.382,24.876v39.893c1.888,0,3.597,0.766,5.127,2.295
			c1.53,1.531,2.295,3.256,2.295,5.176H41.65c0-1.92,0.765-3.645,2.295-5.176c1.53-1.529,3.239-2.295,5.127-2.295V24.876
			c-1.888,0-3.597-0.764-5.127-2.295c-1.53-1.529-2.295-3.238-2.295-5.127H24.804c0,1.889-0.765,3.598-2.295,5.127
			C20.979,24.112,19.27,24.876,17.382,24.876z M17.382,21.849c1.042,0,2.034-0.463,2.979-1.391c0.944-0.928,1.416-1.93,1.416-3.004
			h-1.221c-0.879,0-1.628,0.301-2.246,0.904c-0.619,0.602-0.928,1.359-0.928,2.27V21.849z M17.382,67.796v1.27
			c0,0.912,0.309,1.668,0.928,2.271c0.618,0.602,1.367,0.902,2.246,0.902h1.221c0-1.105-0.472-2.123-1.416-3.051
			C19.417,68.261,18.424,67.796,17.382,67.796z M49.072,21.849v-1.221c0-0.91-0.31-1.668-0.928-2.27
			c-0.619-0.604-1.384-0.904-2.295-0.904h-1.172c0,1.074,0.472,2.076,1.416,3.004C47.037,21.386,48.03,21.849,49.072,21.849z
			 M44.677,72.239h1.172c0.911,0,1.676-0.301,2.295-0.902c0.618-0.604,0.928-1.359,0.928-2.271v-1.27
			c-1.042,0-2.035,0.465-2.979,1.393C45.149,70.116,44.677,71.134,44.677,72.239z"/>
	</g>
</g>
</svg>
