<?xml version="1.0" encoding="utf-8"?>
<!-- Generator: Adobe Illustrator 16.0.0, SVG Export Plug-In . SVG Version: 6.00 Build 0)  -->
<!DOCTYPE svg PUBLIC "-//W3C//DTD SVG 1.1//EN" "http://www.w3.org/Graphics/SVG/1.1/DTD/svg11.dtd">
<svg version="1.1" id="Layer_1" xmlns="http://www.w3.org/2000/svg" xmlns:xlink="http://www.w3.org/1999/xlink" x="0px" y="0px"
	 width="66.334px" height="88.5px" viewBox="0 0 66.334 88.5" enable-background="new 0 0 66.334 88.5" xml:space="preserve">
<g>
	<path fill="#283E99" d="M12.824,83.541c-1.895,0-3.502-0.66-4.824-1.982s-1.982-2.93-1.982-4.825V11.768
		c0-1.93,0.66-3.547,1.982-4.85c1.322-1.307,2.93-1.959,4.824-1.959h40.631c1.93,0,3.557,0.652,4.878,1.959
		c1.321,1.303,1.983,2.92,1.983,4.85v64.966c0,1.896-0.662,3.503-1.983,4.825s-2.948,1.982-4.878,1.982H12.824z M12.824,80.217
		h40.631c1,0,1.84-0.33,2.52-0.99c0.68-0.662,1.019-1.492,1.019-2.493V11.768c0-1-0.339-1.831-1.019-2.492
		c-0.68-0.662-1.52-0.992-2.52-0.992H12.824c-0.965,0-1.787,0.33-2.465,0.992c-0.68,0.661-1.019,1.492-1.019,2.492v64.966
		c0,1.001,0.339,1.831,1.019,2.493C11.037,79.887,11.859,80.217,12.824,80.217z M12.449,17.664c0-1.931,0.661-3.547,1.983-4.851
		c1.321-1.306,2.931-1.958,4.823-1.958h27.768c1.93,0,3.555,0.652,4.877,1.958c1.322,1.304,1.984,2.92,1.984,4.851v53.173
		c0,1.896-0.662,3.503-1.984,4.825s-2.947,1.982-4.877,1.982H19.256c-1.893,0-3.502-0.66-4.823-1.982
		c-1.322-1.322-1.983-2.93-1.983-4.825V17.664z M15.772,22.326v43.793c2.073,0,3.948,0.842,5.628,2.521
		c1.68,1.681,2.52,3.573,2.52,5.682h18.493c0-2.108,0.839-4.001,2.519-5.682c1.68-1.679,3.556-2.521,5.629-2.521V22.326
		c-2.073,0-3.949-0.838-5.629-2.519c-1.68-1.679-2.519-3.555-2.519-5.628H23.92c0,2.073-0.84,3.949-2.52,5.628
		C19.721,21.488,17.846,22.326,15.772,22.326z M15.772,19.004c1.144,0,2.233-0.508,3.271-1.527c1.035-1.018,1.555-2.118,1.555-3.297
		h-1.342c-0.965,0-1.786,0.33-2.465,0.992c-0.679,0.66-1.019,1.492-1.019,2.492V19.004z M15.772,69.443v1.394
		c0,1.002,0.34,1.831,1.019,2.494c0.679,0.659,1.5,0.99,2.465,0.99h1.342c0-1.214-0.52-2.331-1.555-3.349
		C18.006,69.954,16.916,69.443,15.772,69.443z M50.561,19.004v-1.34c0-1-0.34-1.832-1.018-2.492c-0.68-0.662-1.52-0.992-2.52-0.992
		h-1.287c0,1.179,0.518,2.279,1.555,3.297C48.326,18.496,49.417,19.004,50.561,19.004z M45.736,74.321h1.287
		c1,0,1.84-0.331,2.52-0.99c0.678-0.663,1.018-1.492,1.018-2.494v-1.394c-1.144,0-2.234,0.511-3.27,1.529
		C46.254,71.99,45.736,73.107,45.736,74.321z"/>
</g>
</svg>
