<?xml version="1.0" encoding="utf-8"?>
<!-- Generator: Adobe Illustrator 16.0.0, SVG Export Plug-In . SVG Version: 6.00 Build 0)  -->
<!DOCTYPE svg PUBLIC "-//W3C//DTD SVG 1.1//EN" "http://www.w3.org/Graphics/SVG/1.1/DTD/svg11.dtd">
<svg version="1.1" id="Layer_1" xmlns="http://www.w3.org/2000/svg" xmlns:xlink="http://www.w3.org/1999/xlink" x="0px" y="0px"
	 width="66.334px" height="88.5px" viewBox="0 0 66.334 88.5" enable-background="new 0 0 66.334 88.5" xml:space="preserve">
<g>
	<path fill="#1F7529" d="M5.562,49.182c3.68-4.289,7.004-9.039,9.969-14.259l-4.662-8.309c1.859,0,4.111,1.27,6.754,3.807
		c1.285-2.215,2.332-4.208,3.137-5.977c0.805-1.768,1.312-3.438,1.525-5.013c-1.355,1.359-2.91,2.037-4.662,2.037
		c-0.895-0.142-2.27-0.821-4.127-2.037l9.703-4.663c0.535,0,1.322,0.331,2.355,0.993c1.037,0.66,1.984,1.357,2.842,2.09
		s1.287,1.259,1.287,1.58c-2.18,2.11-4.537,5.488-7.076,10.131c-2.535,4.646-5.342,8.864-8.414,12.65
		C11.084,46.001,8.207,48.325,5.562,49.182z M18.32,74.589c-0.928,0-1.795-0.688-2.6-2.062c-0.803-1.376-1.457-2.923-1.957-4.638
		s-0.75-3.18-0.75-4.396c2.752,3.146,4.486,4.717,5.199,4.717c0.322,0,0.973-0.945,1.957-2.841c0.982-1.894,1.688-4.681,2.115-8.361
		c-1.822,0-4.018,1.252-6.592,3.751c-0.43,0.43-0.785,0.243-1.072-0.561c-0.283-0.804-0.428-1.422-0.428-1.851
		c0-0.892,0.195-1.572,0.588-2.037l5.521-5.949c-3.68,0.964-5.93,0.77-6.754-0.59c1.109-0.071,2.182-0.376,3.217-0.912
		c1.035-0.535,2.197-1.196,3.484-1.982c0.572-0.678,1.949-3.341,4.127-7.987c-1.965,1.573-3.412,2.358-4.342,2.358
		c-0.428,0-0.768-0.124-1.018-0.375l-2.092-1.34c1.822-0.536,3.289-1.081,4.396-1.634c1.109-0.556,2.082-1.135,2.922-1.743
		c0.838-0.606,1.455-0.912,1.848-0.912c0.93,0,1.914,1.002,2.949,3.002c0.25,0.358-0.027,1.101-0.83,2.227
		c-0.805,1.125-1.832,2.85-3.084,5.171c1.68-0.285,2.807-0.07,3.379,0.643c0.678,0.966-0.537,1.843-3.646,2.628
		c-1.035,0.964-2.01,2.027-2.92,3.189c-0.912,1.16-1.672,2.351-2.279,3.563l3.322-1.822c0.93,0,2.486,1.501,4.664,4.503
		c-0.035,0.251-0.32,0.563-0.857,0.939c-0.535,0.375-0.875,0.955-1.02,1.74C24.127,70.034,21.643,74.555,18.32,74.589z
		 M48.713,75.447c-0.322,0-1.555-0.883-3.699-2.652c-2.143-1.769-4.592-4.081-7.342-6.942c-3.254,3.967-6.416,5.95-9.49,5.95
		c-0.928,0-1.732-0.179-2.412-0.536c4.039-1.32,7.148-3.698,9.328-7.129l-5.414-5.146c3.824,1.216,6.236,2.073,7.236,2.573
		c1.572-3.537,2.342-6.325,2.305-8.362c-1.072,0.321-2.16,0.858-3.27,1.608c-1.143,0.787-2.305,1.286-3.484,1.501
		c-0.928,0.18-2.215-0.429-3.859-1.822c1.502,0.073,5.271-1.251,11.311-3.967c0.357-0.178,1.305,0.527,2.84,2.118
		c1.537,1.589,2.145,2.599,1.824,3.027c-0.715,0.894-1.447,1.95-2.199,3.163c-0.75,1.216-1.572,2.556-2.465,4.02
		c2.287,0.858,4.432,1.983,6.432,3.377c2.002,1.394,3.172,2.833,3.512,4.316c0.34,1.481,0.365,2.618,0.08,3.402
		C49.588,74.948,49.178,75.447,48.713,75.447z M51.982,44.679c-2.18,0-5.109-3.036-8.791-9.112l-5.361-8.952
		c-3.93,2.396-7.324,3.896-10.184,4.503l8.791-6.539c-0.82-1.072-1.6-1.947-2.33-2.627c-0.734-0.677-1.492-1.304-2.279-1.876
		c1.822-1.072,2.732-2.393,2.732-3.967c0-0.57-0.463-1.232-1.393-1.983c1.25-0.714,2.072-1.072,2.465-1.072
		c0.43,0,1.062,0.297,1.904,0.886c0.84,0.59,1.867,1.099,3.082,1.527c-1.395,0.857-3.217,2.271-5.467,4.233
		c1.355,1.217,2.482,2.413,3.375,3.592c1.895-1.427,3.271-2.821,4.127-4.181c0.43-0.714-0.482-1.267-2.732-1.662
		c2.145-0.536,3.574-0.804,4.289-0.804c1.393,0,2.428,0.503,3.107,1.501l1.77,2.412c-2,0.288-5.057,1.859-9.166,4.717
		c5.396,8.185,12.348,14.205,20.85,18.064c-1.141,0-2.625,0.233-4.447,0.697c-0.928,0.214-1.768,0.375-2.52,0.482
		C53.053,44.625,52.447,44.679,51.982,44.679z M27.914,52.398c2.467-3.572,3.699-7.629,3.699-12.168c0-1.214-0.115-2.09-0.348-2.626
		s-0.35-0.875-0.35-1.019c0-0.107,0.34-0.161,1.018-0.161c0.252,0,0.824,0.161,1.717,0.482c0.535,0.181,1.117,0.169,1.744-0.025
		c0.621-0.197,1.33-0.527,2.115-0.993c1.035-0.644,1.84-0.965,2.412-0.965c0.465,0,1.01,0.35,1.635,1.047
		c0.625,0.696,0.938,1.277,0.938,1.74c-1.43,1.538-2.145,3.699-2.145,6.486c0,1.322,0.395,1.983,1.18,1.983
		c0.93,0,1.947-0.5,3.057-1.501c0.213-0.214,0.473-0.285,0.777-0.214c0.303,0.072,0.891,0.617,1.768,1.636
		c0.875,1.019,0.975,1.67,0.295,1.955c-1.215,0.429-3.412,0.804-6.592,1.126c-1.002,0.106-1.832-0.169-2.492-0.829
		c-0.662-0.663-0.994-1.547-0.994-2.655c0-1.106,0.117-2.358,0.35-3.752s0.598-2.734,1.098-4.021
		c-1.643,0.751-3.055,1.199-4.234,1.34c0,6.612-1.393,10.579-4.18,11.9L27.914,52.398z"/>
</g>
</svg>
