<?xml version="1.0" encoding="utf-8"?>
<!-- Generator: Adobe Illustrator 16.0.0, SVG Export Plug-In . SVG Version: 6.00 Build 0)  -->
<!DOCTYPE svg PUBLIC "-//W3C//DTD SVG 1.1//EN" "http://www.w3.org/Graphics/SVG/1.1/DTD/svg11.dtd">
<svg version="1.1" id="Layer_1" xmlns="http://www.w3.org/2000/svg" xmlns:xlink="http://www.w3.org/1999/xlink" x="0px" y="0px"
	 width="66.334px" height="88.5px" viewBox="0 0 66.334 88.5" enable-background="new 0 0 66.334 88.5" xml:space="preserve">
<g>
	<path fill="#C6204F" d="M57.527,64.786c-4.033-2.866-6.634-4.299-7.801-4.299c-2.866,0.567-7.519,1.168-13.957,1.805l0.159-2.388
		l1.434-0.212c1.556-0.212,2.635-0.088,3.236,0.372c0.671,0.566,1.839-0.283,3.503-2.548c1.131-1.556,2.211-2.564,3.236-3.025
		c1.097-0.494,1.539-0.865,1.326-1.113c-0.85-0.99-1.742-1.875-2.68-2.654c-0.938-0.777-1.813-1.167-2.627-1.167
		c-0.142,0-1.557,0.222-4.244,0.664c-2.689,0.443-6.634,1.053-11.834,1.831c-0.425,0-1.054-0.124-1.884-0.372
		c-0.831-0.247-1.778-0.371-2.839-0.371c-1.168,0-1.857,0.248-2.07,0.743c-0.213,0.389,0.053,0.814,0.796,1.273
		c0.743,0.46,1.256,0.973,1.54,1.539c0.424,0.885,0.936,2,1.537,3.343c0.602,1.345,1.398,2.512,2.389,3.502
		c0.354,0.425,0.602,0.637,0.742,0.637c0.248,0,0.814-0.248,1.699-0.744c1.237-0.707,2.441-1.132,3.608-1.273v2.388
		c-5.271,0.92-9.233,1.609-11.887,2.069c-0.46-1.273-0.938-2.14-1.433-2.6c-0.708-0.671-2-0.937-3.874-0.796
		c-0.814,0.071-0.938,0.637-0.372,1.698l1.168,2.494c-2.584,0.354-4.68,0.407-6.288,0.159c-1.61-0.247-2.274-0.088-1.99,0.478
		c1.062,2.299,2.298,3.415,3.714,3.343c1.168-0.034,2.9-0.618,5.201-1.751l2.76,7.854c0.459,1.238,1.248,2.062,2.361,2.468
		c1.114,0.407,1.848,0.61,2.201,0.61c0.566,0,0.912-0.23,1.036-0.69c0.123-0.46,0.186-0.919,0.186-1.38
		c0-0.671-0.238-1.662-0.716-2.971c-0.479-1.309-1.009-2.627-1.593-3.954c-0.583-1.327-1.053-2.362-1.405-3.104
		c3.748-1.062,7.393-1.786,10.931-2.176v3.025l-6.898,0.849c-0.85,0.106-0.142,1.114,2.122,3.024
		c0.602,0.461,1.132,0.689,1.593,0.689c0.707-0.212,4.527-1.838,11.462-4.881c0.812,1.91,1.504,2.865,2.07,2.865
		c0.955,0,1.592-0.425,1.91-1.273c0.424-1.098,0.158-1.963-0.797-2.6l-3.926-2.653l5.518-0.637c3.185-0.282,4.334,0.496,3.449,2.335
		c-2.795,5.942-4.635,8.915-5.518,8.915c-0.602,0-2.035-0.406-4.299-1.221c-1.521-0.565-2.459-0.85-2.812-0.85
		c-0.566,0-0.442,0.319,0.371,0.956c2.336,1.839,3.591,3.282,3.769,4.325c0.175,1.043,0.494,1.565,0.954,1.565
		c2.053-0.035,3.945-0.69,5.68-1.964c1.732-1.273,3.536-3.236,5.412-5.891c2.016-2.865,3.467-4.404,4.352-4.616
		C58.517,66.078,58.623,65.529,57.527,64.786z M36.14,56.189c2.37-0.318,3.557-0.76,3.557-1.327c0-0.884-1.115-0.99-3.344-0.318
		c0.07-0.318,0.283-0.645,0.637-0.982c0.354-0.336,0.088-0.786-0.796-1.353c1.839-0.424,3.007-0.637,3.503-0.637
		c1.379,0,2.068,0.583,2.068,1.751c0,0.673-0.689,2.141-2.068,4.405l-3.769,0.583L36.14,56.189z M28.711,60.063
		c-1.38-2.972-2.069-5.023-2.069-6.156l6.155-1.167v2.281c-1.31,0.39-2.901,0.584-4.776,0.584c0.956,1.168,1.663,1.75,2.123,1.75
		l2.653-0.636l0.054,2.017C31.258,59.091,29.878,59.532,28.711,60.063z M40.705,66.484l-5.095,0.69v-2.972l3.343-0.478
		L40.705,66.484z"/>
	<path fill="#283E99" d="M13.136,20.237c1.468,0.937,2.574,1.406,3.316,1.406c2.123,0,5.324-0.743,9.605-2.229
		c2.086-0.707,4.855-1.282,8.305-1.725c3.45-0.442,7.49-0.664,12.125-0.664c3.538,0,6.811,0.089,9.818,0.266
		c0.743,0.036,1.114-0.212,1.114-0.743c0-0.919-0.806-1.866-2.414-2.839c-1.611-0.973-2.884-1.981-3.821-3.024
		c-0.938-1.043-1.902-1.336-2.893-0.876c-2.547,1.204-7.747,2.388-15.602,3.555c-5.837,0.92-10.631,1.628-14.381,2.123
		c-3.75,0.496-6.686,0.743-8.809,0.743C10.457,17.964,11.668,19.3,13.136,20.237z"/>
	<path fill="#C6204F" d="M43.543,39.102c-0.938-0.884-1.937-1.636-2.998-2.255c-1.062-0.619-1.981-0.946-2.761-0.982
		c-0.954,0-1.989,0.363-3.104,1.088c-1.114,0.725-2.697,2.22-4.749,4.483c-0.991-2.193-3.185-3.662-6.58-4.405
		c1.167,2.266,1.865,3.76,2.095,4.485c0.23,0.725,0.363,1.406,0.398,2.042c0.071,1.558,1.115,2.335,3.132,2.335
		c0.919,0,2.263-1.291,4.032-3.874c1.911-2.652,3.484-4.156,4.723-4.511c1.309,0.212,1.557,1.151,0.744,2.813
		c-0.461,0.955-1.001,1.919-1.619,2.893c-0.619,0.973-1.442,1.954-2.468,2.945l-9.977,1.751c-0.954,0.212-1.008,0.567-0.159,1.062
		c1.168,0.708,1.822,1.061,1.963,1.061c0.213,0,1.07-0.114,2.575-0.345c1.503-0.23,3.015-0.486,4.536-0.77
		c4.245-0.743,7.218-1.132,8.916-1.167c1.414,0,2.122-0.318,2.122-0.955c0-0.601-0.302-1.123-0.901-1.565
		c-0.602-0.442-1.293-0.574-2.07-0.398l-5.041,1.009l8.278-4.936C44.843,40.587,44.48,39.986,43.543,39.102z"/>
</g>
</svg>
