<?xml version="1.0" encoding="utf-8"?>
<!-- Generator: Adobe Illustrator 16.0.0, SVG Export Plug-In . SVG Version: 6.00 Build 0)  -->
<!DOCTYPE svg PUBLIC "-//W3C//DTD SVG 1.1//EN" "http://www.w3.org/Graphics/SVG/1.1/DTD/svg11.dtd">
<svg version="1.1" id="Layer_1" xmlns="http://www.w3.org/2000/svg" xmlns:xlink="http://www.w3.org/1999/xlink" x="0px" y="0px"
	 width="66.334px" height="88.5px" viewBox="0 0 66.334 88.5" enable-background="new 0 0 66.334 88.5" xml:space="preserve">
<g>
	<path fill="#C6204F" d="M43.343,42.977c-0.938-0.885-1.938-1.637-2.998-2.256c-1.062-0.618-1.982-0.946-2.76-0.981
		c-0.955,0-1.99,0.363-3.104,1.088c-1.115,0.725-2.699,2.22-4.75,4.483c-0.992-2.192-3.184-3.661-6.582-4.404
		c1.168,2.266,1.867,3.76,2.096,4.484c0.23,0.726,0.363,1.406,0.4,2.043c0.07,1.558,1.113,2.335,3.129,2.335
		c0.92,0,2.264-1.291,4.033-3.874c1.91-2.652,3.484-4.156,4.725-4.511c1.309,0.212,1.555,1.151,0.742,2.812
		c-0.461,0.955-1,1.92-1.617,2.893c-0.621,0.974-1.443,1.954-2.469,2.945l-9.977,1.751c-0.957,0.212-1.008,0.566-0.158,1.062
		c1.166,0.708,1.818,1.061,1.961,1.061c0.213,0,1.07-0.113,2.576-0.345c1.502-0.229,3.014-0.485,4.535-0.77
		c4.246-0.742,7.219-1.132,8.916-1.167c1.416,0,2.123-0.318,2.123-0.955c0-0.601-0.303-1.123-0.902-1.565
		c-0.604-0.442-1.291-0.574-2.07-0.398l-5.041,1.009l8.279-4.936C44.642,44.461,44.28,43.861,43.343,42.977z"/>
	<path fill="#283E99" d="M26.864,14.426c1.875,0,4.051-0.326,6.527-0.981c2.477-0.654,4.715-1.317,6.713-1.99
		c1.998-0.672,2.697-1.308,2.098-1.91c-1.488-1.627-2.682-2.671-3.584-3.131c-0.9-0.459-1.637-0.689-2.201-0.689
		c-0.496,0-1.08,0.212-1.75,0.637c-5.096,3.396-8.795,5.112-11.092,5.147c-1.168,0-1.469,0.318-0.902,0.955
		C23.696,13.773,25.095,14.426,26.864,14.426z"/>
	<path fill="#C6204F" d="M57.327,68.661c-4.035-2.866-6.635-4.299-7.803-4.299c-2.865,0.566-7.518,1.168-13.957,1.805l0.158-2.388
		l1.434-0.212c1.557-0.213,2.637-0.089,3.238,0.371c0.672,0.566,1.838-0.282,3.502-2.548c1.131-1.556,2.211-2.563,3.238-3.025
		c1.096-0.493,1.537-0.865,1.326-1.113c-0.85-0.99-1.744-1.875-2.68-2.653c-0.939-0.777-1.814-1.168-2.627-1.168
		c-0.143,0-1.559,0.222-4.246,0.664c-2.689,0.442-6.633,1.053-11.834,1.831c-0.424,0-1.053-0.124-1.883-0.372
		c-0.83-0.247-1.777-0.371-2.84-0.371c-1.168,0-1.857,0.248-2.07,0.743c-0.211,0.389,0.055,0.813,0.797,1.272
		c0.742,0.461,1.256,0.974,1.539,1.539c0.424,0.885,0.938,2,1.539,3.344c0.6,1.345,1.396,2.512,2.389,3.502
		c0.352,0.425,0.6,0.638,0.74,0.638c0.248,0,0.814-0.248,1.699-0.744c1.236-0.706,2.441-1.132,3.607-1.273v2.389
		c-5.271,0.92-9.232,1.609-11.887,2.069c-0.459-1.273-0.936-2.141-1.432-2.601c-0.707-0.671-2-0.937-3.873-0.796
		c-0.814,0.071-0.938,0.637-0.371,1.698l1.166,2.494c-2.582,0.354-4.68,0.407-6.287,0.159c-1.611-0.247-2.275-0.088-1.992,0.478
		c1.062,2.3,2.301,3.415,3.717,3.344c1.168-0.034,2.9-0.618,5.199-1.751l2.76,7.854c0.459,1.238,1.248,2.062,2.361,2.468
		c1.115,0.407,1.85,0.61,2.203,0.61c0.564,0,0.908-0.23,1.035-0.69c0.123-0.46,0.184-0.919,0.184-1.38
		c0-0.671-0.238-1.662-0.715-2.971c-0.479-1.309-1.008-2.627-1.592-3.954s-1.055-2.362-1.406-3.104
		c3.748-1.062,7.395-1.786,10.93-2.176v3.025l-6.896,0.849c-0.85,0.106-0.143,1.114,2.121,3.024
		c0.602,0.461,1.133,0.689,1.592,0.689c0.709-0.212,4.529-1.838,11.463-4.881c0.814,1.91,1.502,2.865,2.068,2.865
		c0.957,0,1.594-0.425,1.912-1.273c0.424-1.098,0.16-1.963-0.797-2.601l-3.926-2.653l5.518-0.637
		c3.188-0.282,4.336,0.495,3.449,2.335C46.306,75.028,44.466,78,43.581,78c-0.602,0-2.035-0.406-4.299-1.221
		c-1.521-0.565-2.459-0.85-2.812-0.85c-0.566,0-0.441,0.319,0.371,0.956c2.336,1.839,3.592,3.282,3.768,4.325
		c0.178,1.043,0.494,1.565,0.955,1.565c2.053-0.035,3.943-0.69,5.678-1.964s3.537-3.236,5.414-5.891
		c2.016-2.865,3.467-4.404,4.352-4.616C58.315,69.953,58.421,69.404,57.327,68.661z M35.94,60.064
		c2.369-0.318,3.555-0.76,3.555-1.327c0-0.884-1.115-0.99-3.344-0.318c0.07-0.318,0.281-0.645,0.637-0.981
		c0.354-0.336,0.086-0.786-0.797-1.354c1.84-0.424,3.008-0.637,3.504-0.637c1.379,0,2.068,0.584,2.068,1.751
		c0,0.674-0.689,2.142-2.068,4.405l-3.77,0.583L35.94,60.064z M28.509,63.938c-1.379-2.972-2.07-5.023-2.07-6.156l6.156-1.167v2.281
		c-1.309,0.39-2.9,0.584-4.775,0.584c0.955,1.168,1.662,1.751,2.125,1.751l2.65-0.637l0.055,2.018
		C31.058,62.965,29.679,63.407,28.509,63.938z M40.503,70.359l-5.096,0.69v-2.973l3.344-0.478L40.503,70.359z"/>
	<path fill="#283E99" d="M53.081,25.73c-1.275-0.778-2.637-0.99-4.088-0.637c-1.133,0.283-2.141,0.495-3.025,0.637
		c-1.91,0.354-4.492,0.646-7.746,0.876c-3.256,0.23-6.812,0.54-10.668,0.928c-5.377,0.567-9.533,0.921-12.469,1.062
		c-2.938,0.142-4.99,0.212-6.156,0.212c1.592,2.725,3.396,4.086,5.412,4.086c0.496,0,2.264-0.301,5.307-0.902
		c3.043-0.601,6.74-1.132,11.092-1.592c4.352-0.459,8.102-0.618,11.248-0.478c3.186,0.106,5.592,0.247,7.217,0.424
		c1.133,0.106,3.256,0.69,6.369,1.752c1.098,0.39,2.033-0.018,2.814-1.221C58.915,29.994,57.147,28.277,53.081,25.73z"/>
</g>
</svg>
