<?xml version="1.0" encoding="utf-8"?>
<!-- Generator: Adobe Illustrator 16.0.0, SVG Export Plug-In . SVG Version: 6.00 Build 0)  -->
<!DOCTYPE svg PUBLIC "-//W3C//DTD SVG 1.1//EN" "http://www.w3.org/Graphics/SVG/1.1/DTD/svg11.dtd">
<svg version="1.1" id="Layer_1" xmlns="http://www.w3.org/2000/svg" xmlns:xlink="http://www.w3.org/1999/xlink" x="0px" y="0px"
	 width="66.334px" height="88.5px" viewBox="0 0 66.334 88.5" enable-background="new 0 0 66.334 88.5" xml:space="preserve">
<g>
	<g>
		<path fill="#283E99" d="M24.411,16.296c0.515,0.613,0.999,0.918,1.45,0.918c0.418,0,2.916-0.628,7.492-1.885l6.672-1.934
			c0.837-0.225,0.725-0.725-0.339-1.499c-0.483-0.387-0.919-0.813-1.306-1.281c-0.387-0.466-0.869-0.556-1.449-0.266
			c-3.771,2.095-8.653,3.417-14.647,3.964c0.45,0.323,0.854,0.652,1.208,0.991C23.847,15.644,24.152,15.975,24.411,16.296z"/>
		<path fill="#283E99" d="M37.27,21.275c-0.258-0.097-1.33,0.202-3.215,0.895c-1.885,0.693-3.916,1.232-6.09,1.619
			c-2.176,0.387-3.684,0.58-4.521,0.58c0.193,0.387,0.507,0.895,0.942,1.522c0.436,0.629,1.023,0.943,1.765,0.943
			c0.483,0,2.666-0.363,6.55-1.087c3.883-0.726,6.18-1.104,6.889-1.136c0.838-0.064,0.813-0.604-0.072-1.62
			C38.631,21.977,37.881,21.405,37.27,21.275z"/>
		<path fill="#283E99" d="M16.725,38.823c0.387,0.033,2.9-0.556,7.541-1.764c4.641-1.209,10.104-1.813,16.388-1.813
			c1.708,0,3.496,0.145,5.366,0.435c1.868,0.29,3.342,0.604,4.422,0.942c1.08,0.339,1.813,0.508,2.2,0.508
			c0.87,0,1.306-0.29,1.306-0.87c0-0.967-0.371-1.74-1.112-2.32s-1.321-1.192-1.74-1.837c-0.419-0.644-0.79-1.112-1.112-1.402
			c-0.548-0.483-1.145-0.628-1.788-0.435c-2.159,0.58-5.842,1.281-11.046,2.103c-5.205,0.822-10.441,1.371-15.711,1.644
			c-5.268,0.274-8.241,0.411-8.918,0.411C13.938,37.357,15.339,38.823,16.725,38.823z"/>
		<path fill="#C6204F" d="M42.176,44.624c-0.854-0.805-1.764-1.49-2.73-2.054c-0.967-0.563-1.806-0.862-2.514-0.895
			c-0.871,0-1.812,0.331-2.828,0.991c-1.016,0.661-2.458,2.022-4.326,4.084c-0.903-1.998-2.9-3.335-5.994-4.012
			c1.062,2.063,1.699,3.425,1.908,4.085c0.21,0.661,0.33,1.281,0.363,1.861c0.064,1.418,1.016,2.127,2.852,2.127
			c0.838,0,2.062-1.176,3.674-3.529c1.74-2.417,3.174-3.786,4.303-4.109c1.191,0.193,1.418,1.048,0.677,2.562
			c-0.419,0.87-0.911,1.749-1.474,2.635c-0.564,0.887-1.314,1.781-2.248,2.683l-9.088,1.595c-0.871,0.193-0.919,0.516-0.146,0.967
			c1.063,0.645,1.659,0.967,1.788,0.967c0.193,0,0.975-0.104,2.346-0.314c1.369-0.209,2.746-0.443,4.133-0.701
			c3.867-0.677,6.574-1.031,8.121-1.063c1.288,0,1.934-0.29,1.934-0.87c0-0.547-0.275-1.022-0.822-1.426
			c-0.549-0.403-1.177-0.523-1.885-0.363l-4.593,0.918l7.541-4.496C43.36,45.977,43.029,45.43,42.176,44.624z"/>
		<path fill="#C6204F" d="M54.914,68.02c-3.674-2.61-6.043-3.916-7.106-3.916c-2.61,0.516-6.849,1.063-12.714,1.644l0.146-2.175
			l1.306-0.193c1.417-0.193,2.4-0.08,2.948,0.338c0.612,0.516,1.675-0.257,3.19-2.32c1.031-1.417,2.014-2.336,2.949-2.755
			c0.998-0.451,1.401-0.789,1.208-1.015c-0.773-0.902-1.588-1.708-2.44-2.417c-0.855-0.708-1.652-1.063-2.394-1.063
			c-0.13,0-1.419,0.202-3.867,0.604c-2.45,0.403-6.042,0.959-10.78,1.667c-0.387,0-0.959-0.112-1.715-0.338
			c-0.758-0.225-1.62-0.338-2.587-0.338c-1.063,0-1.692,0.226-1.886,0.677c-0.193,0.355,0.049,0.742,0.726,1.16
			c0.677,0.419,1.144,0.887,1.401,1.402c0.387,0.806,0.854,1.821,1.402,3.045c0.547,1.225,1.272,2.289,2.176,3.19
			c0.321,0.387,0.547,0.58,0.676,0.58c0.226,0,0.741-0.225,1.547-0.677c1.128-0.644,2.225-1.031,3.287-1.16v2.175
			c-4.802,0.838-8.41,1.467-10.828,1.885c-0.419-1.16-0.854-1.949-1.305-2.369c-0.645-0.612-1.821-0.854-3.529-0.725
			c-0.741,0.065-0.854,0.58-0.338,1.547l1.063,2.272c-2.353,0.323-4.263,0.371-5.728,0.145c-1.468-0.225-2.072-0.08-1.813,0.435
			c0.967,2.095,2.095,3.11,3.384,3.045c1.063-0.032,2.643-0.563,4.737-1.595l2.514,7.154c0.419,1.128,1.136,1.878,2.151,2.248
			c1.016,0.371,1.684,0.556,2.006,0.556c0.516,0,0.829-0.209,0.943-0.628c0.111-0.418,0.168-0.837,0.168-1.257
			c0-0.612-0.217-1.514-0.652-2.707c-0.436-1.192-0.918-2.393-1.449-3.601c-0.533-1.209-0.96-2.151-1.281-2.828
			c3.415-0.967,6.734-1.627,9.957-1.982v2.755l-6.283,0.773c-0.773,0.097-0.13,1.015,1.934,2.755
			c0.547,0.419,1.03,0.628,1.449,0.628c0.645-0.193,4.125-1.675,10.441-4.447c0.741,1.74,1.369,2.61,1.886,2.61
			c0.87,0,1.45-0.387,1.74-1.16c0.387-0.999,0.146-1.789-0.726-2.369l-3.576-2.417l5.027-0.58c2.9-0.257,3.947,0.452,3.142,2.127
			c-2.546,5.414-4.222,8.121-5.027,8.121c-0.548,0-1.854-0.37-3.915-1.112c-1.387-0.515-2.24-0.773-2.562-0.773
			c-0.516,0-0.403,0.29,0.338,0.87c2.127,1.676,3.271,2.99,3.433,3.939c0.161,0.951,0.45,1.426,0.87,1.426
			c1.869-0.032,3.593-0.628,5.172-1.789s3.223-2.949,4.932-5.366c1.836-2.61,3.157-4.012,3.963-4.206
			C55.815,69.197,55.912,68.697,54.914,68.02z M35.433,60.189c2.159-0.29,3.239-0.692,3.239-1.208c0-0.805-1.016-0.902-3.046-0.29
			c0.063-0.29,0.257-0.587,0.58-0.895c0.321-0.306,0.08-0.716-0.726-1.232c1.676-0.387,2.739-0.58,3.191-0.58
			c1.256,0,1.885,0.532,1.885,1.595c0,0.613-0.629,1.95-1.885,4.012l-3.433,0.532L35.433,60.189z M28.665,63.718
			c-1.257-2.707-1.886-4.576-1.886-5.607l5.607-1.063v2.079c-1.192,0.355-2.643,0.532-4.35,0.532
			c0.869,1.063,1.514,1.595,1.934,1.595l2.416-0.58l0.049,1.837C30.985,62.832,29.729,63.234,28.665,63.718z M39.59,69.567
			l-4.641,0.628v-2.707l3.045-0.435L39.59,69.567z"/>
	</g>
	<g>
	</g>
</g>
</svg>
