<?xml version="1.0" encoding="utf-8"?>
<!-- Generator: Adobe Illustrator 16.0.0, SVG Export Plug-In . SVG Version: 6.00 Build 0)  -->
<!DOCTYPE svg PUBLIC "-//W3C//DTD SVG 1.1//EN" "http://www.w3.org/Graphics/SVG/1.1/DTD/svg11.dtd">
<svg version="1.1" id="Layer_1" xmlns="http://www.w3.org/2000/svg" xmlns:xlink="http://www.w3.org/1999/xlink" x="0px" y="0px"
	 width="66.334px" height="88.5px" viewBox="0 0 66.334 88.5" enable-background="new 0 0 66.334 88.5" xml:space="preserve">
<g>
	<g>
		<path fill="#C6204F" d="M55.348,68.627c-3.711-2.637-6.104-3.955-7.178-3.955c-2.637,0.52-6.918,1.074-12.842,1.66l0.146-2.197
			l1.318-0.195c1.432-0.195,2.424-0.082,2.979,0.342c0.617,0.52,1.691-0.262,3.223-2.344c1.041-1.432,2.033-2.359,2.979-2.783
			c1.008-0.455,1.416-0.797,1.221-1.025c-0.781-0.912-1.604-1.725-2.467-2.441c-0.862-0.717-1.668-1.074-2.416-1.074
			c-0.131,0-1.434,0.203-3.906,0.609c-2.475,0.408-6.104,0.969-10.889,1.686c-0.391,0-0.969-0.113-1.734-0.342
			c-0.765-0.229-1.635-0.342-2.611-0.342c-1.074,0-1.709,0.229-1.904,0.684c-0.195,0.357,0.049,0.748,0.732,1.172
			s1.154,0.895,1.416,1.416c0.391,0.814,0.861,1.84,1.416,3.076c0.553,1.236,1.285,2.311,2.197,3.223
			c0.324,0.391,0.553,0.586,0.684,0.586c0.227,0,0.748-0.229,1.562-0.684c1.139-0.652,2.246-1.043,3.32-1.172v2.197
			c-4.852,0.846-8.496,1.48-10.938,1.904c-0.424-1.172-0.863-1.971-1.318-2.393c-0.652-0.619-1.84-0.863-3.564-0.732
			c-0.75,0.064-0.863,0.586-0.342,1.562l1.074,2.295c-2.377,0.324-4.306,0.373-5.787,0.146c-1.48-0.229-2.092-0.082-1.83,0.439
			c0.977,2.115,2.115,3.141,3.418,3.076c1.074-0.033,2.668-0.57,4.785-1.611l2.539,7.227c0.422,1.139,1.146,1.896,2.172,2.27
			c1.025,0.375,1.701,0.562,2.027,0.562c0.52,0,0.838-0.213,0.951-0.635c0.114-0.424,0.172-0.848,0.172-1.27
			c0-0.619-0.221-1.531-0.66-2.734c-0.439-1.205-0.928-2.418-1.465-3.639s-0.969-2.172-1.293-2.855
			c3.449-0.977,6.803-1.645,10.059-2.002v2.783l-6.348,0.781c-0.781,0.098-0.131,1.025,1.953,2.783
			c0.553,0.422,1.041,0.635,1.465,0.635c0.65-0.195,4.166-1.693,10.547-4.492c0.748,1.758,1.383,2.637,1.904,2.637
			c0.879,0,1.465-0.391,1.758-1.172c0.391-1.01,0.146-1.807-0.732-2.393l-3.613-2.441l5.078-0.586
			c2.93-0.262,3.986,0.455,3.174,2.148c-2.572,5.469-4.266,8.203-5.078,8.203c-0.555,0-1.873-0.375-3.955-1.123
			c-1.4-0.521-2.264-0.781-2.588-0.781c-0.521,0-0.408,0.293,0.342,0.879c2.148,1.691,3.303,3.02,3.467,3.979
			c0.162,0.961,0.455,1.441,0.879,1.441c1.887-0.033,3.629-0.635,5.225-1.807c1.594-1.172,3.254-2.979,4.98-5.42
			c1.855-2.637,3.189-4.053,4.004-4.248C56.258,69.815,56.355,69.311,55.348,68.627z M35.67,60.717
			c2.18-0.293,3.271-0.699,3.271-1.221c0-0.814-1.025-0.912-3.076-0.293c0.064-0.293,0.26-0.594,0.586-0.904
			c0.324-0.309,0.08-0.723-0.732-1.244c1.691-0.391,2.766-0.586,3.223-0.586c1.27,0,1.904,0.537,1.904,1.611
			c0,0.619-0.635,1.969-1.904,4.053l-3.467,0.537L35.67,60.717z M28.834,64.282c-1.27-2.734-1.904-4.623-1.904-5.664l5.664-1.074
			v2.1c-1.205,0.357-2.67,0.537-4.395,0.537c0.879,1.074,1.529,1.611,1.953,1.611l2.441-0.586l0.049,1.855
			C31.178,63.385,29.908,63.793,28.834,64.282z M39.869,70.19l-4.688,0.635V68.09l3.076-0.439L39.869,70.19z"/>
		<path fill="#283E99" d="M49.488,39.917c0.748,0,1.391-0.439,1.928-1.318s0.807-1.645,0.807-2.295c0-1.074-0.75-2.279-2.246-3.613
			c-1.498-1.334-3.354-2.629-5.566-3.883c-2.215-1.252-4.346-2.09-6.396-2.514c0.195,0.586,0.781,1.604,1.758,3.051
			c0.977,1.449,2.082,2.996,3.32,4.639c1.236,1.645,2.457,3.045,3.662,4.199C47.957,39.338,48.869,39.917,49.488,39.917z"/>
		<path fill="#283E99" d="M14.088,25.903c0.781,0.684,1.465,1.025,2.051,1.025c0.553,0,1.261-0.105,2.123-0.318
			c0.863-0.211,1.832-0.496,2.906-0.854c7.682-2.637,14.436-3.955,20.264-3.955c2.604,0,5.127,0.293,7.568,0.879
			c1.855,0.488,3.01,0.732,3.467,0.732c1.074,0,1.611-0.326,1.611-0.977c0-1.205-0.732-2.352-2.197-3.443
			c-1.465-1.09-2.85-1.635-4.15-1.635c-0.945,0-1.824,0.17-2.637,0.512c-0.814,0.342-4.135,1.084-9.961,2.223
			c0-2.539,0.488-4.297,1.465-5.273c1.008-1.041,1.643-1.66,1.904-1.855l-0.684-1.27c-2.963-0.162-6.234-1.041-9.814-2.637
			c-0.066,0.943-0.253,1.652-0.562,2.123c-0.309,0.473-0.936,1.066-1.879,1.783c2.051-0.098,3.426,0.285,4.125,1.146
			c0.7,0.863,1.051,1.783,1.051,2.76c0,0.391-0.049,0.977-0.146,1.758s-0.262,1.449-0.488,2.002
			c-10.156,1.855-15.674,2.783-16.553,2.783h-1.27C12.703,24.389,13.307,25.219,14.088,25.903z"/>
		<path fill="#C6204F" d="M42.48,44.995c-0.862-0.814-1.781-1.506-2.758-2.076c-0.977-0.568-1.824-0.869-2.539-0.902
			c-0.879,0-1.832,0.334-2.857,1c-1.025,0.668-2.482,2.043-4.369,4.127c-0.912-2.018-2.93-3.369-6.055-4.053
			c1.074,2.084,1.717,3.459,1.928,4.125c0.212,0.668,0.334,1.295,0.367,1.881c0.064,1.432,1.025,2.148,2.881,2.148
			c0.846,0,2.082-1.188,3.711-3.564c1.758-2.441,3.205-3.824,4.346-4.15c1.203,0.195,1.432,1.059,0.684,2.588
			c-0.424,0.879-0.92,1.766-1.49,2.66c-0.569,0.896-1.326,1.799-2.27,2.711l-9.18,1.611c-0.879,0.195-0.928,0.521-0.146,0.977
			c1.074,0.65,1.676,0.977,1.807,0.977c0.195,0,0.984-0.105,2.367-0.318c1.384-0.211,2.775-0.447,4.176-0.707
			c3.906-0.684,6.641-1.041,8.203-1.074c1.301,0,1.953-0.293,1.953-0.879c0-0.553-0.277-1.033-0.83-1.441
			c-0.555-0.406-1.189-0.527-1.904-0.365l-4.639,0.928l7.617-4.541C43.678,46.362,43.344,45.809,42.48,44.995z"/>
		<path fill="#283E99" d="M13.355,40.893c0.227,0.293,0.553,0.439,0.977,0.439c0.748,0,1.904-0.309,3.467-0.928
			s3.182-1.48,4.857-2.588c1.677-1.107,3.19-2.189,4.541-3.248c1.352-1.057,2.043-2.025,2.076-2.904
			c0-1.236-0.732-2.197-2.197-2.881s-2.516-1.051-3.15-1.1s-1.457,0.172-2.465,0.66c0.52,0.229,0.781,0.635,0.781,1.221
			C22.145,32.69,19.182,36.465,13.355,40.893z"/>
	</g>
</g>
</svg>
