<?xml version="1.0" encoding="utf-8"?>
<!-- Generator: Adobe Illustrator 16.0.0, SVG Export Plug-In . SVG Version: 6.00 Build 0)  -->
<!DOCTYPE svg PUBLIC "-//W3C//DTD SVG 1.1//EN" "http://www.w3.org/Graphics/SVG/1.1/DTD/svg11.dtd">
<svg version="1.1" id="Layer_1" xmlns="http://www.w3.org/2000/svg" xmlns:xlink="http://www.w3.org/1999/xlink" x="0px" y="0px"
	 width="66.334px" height="88.5px" viewBox="0 0 66.334 88.5" enable-background="new 0 0 66.334 88.5" xml:space="preserve">
<g>
	<path fill="#283E99" d="M24.043,24.43c1.182-2.052,2.234-3.609,3.154-4.671c0-1.237-0.955-2.087-2.865-2.547
		c-1.203-0.46-2.033-1.062-2.494-1.804c-0.459-0.743-1.344-0.709-2.654,0.105c1.311,0.568,1.965,1.629,1.965,3.185
		c-0.037,1.558-1.564,4.201-4.59,7.935c-3.025,3.732-6.061,6.801-9.102,9.206c3.041,0,6.633-1.681,10.771-5.042
		C20.918,28.604,22.855,26.481,24.043,24.43z"/>
	<path fill="#C6204F" d="M23.879,46.479c0.23,0.725,0.363,1.406,0.4,2.043c0.07,1.557,1.115,2.335,3.131,2.335
		c0.92,0,2.264-1.291,4.033-3.874c1.908-2.652,3.484-4.156,4.723-4.51c1.307,0.212,1.557,1.148,0.742,2.811
		c-0.461,0.957-1,1.92-1.617,2.893c-0.619,0.974-1.443,1.956-2.467,2.946l-9.979,1.751c-0.955,0.213-1.008,0.566-0.16,1.061
		c1.17,0.709,1.824,1.062,1.965,1.062c0.213,0,1.07-0.114,2.574-0.344c1.502-0.23,3.016-0.487,4.537-0.771
		c4.246-0.743,7.219-1.131,8.916-1.168c1.412,0,2.121-0.317,2.121-0.953c0-0.603-0.301-1.125-0.902-1.566
		c-0.602-0.442-1.291-0.574-2.068-0.398l-5.041,1.008l8.279-4.936c0.209-0.317-0.152-0.918-1.09-1.804
		c-0.936-0.883-1.938-1.636-2.996-2.255c-1.062-0.618-1.982-0.946-2.762-0.982c-0.957,0-1.988,0.364-3.104,1.088
		c-1.115,0.726-2.697,2.221-4.75,4.484c-0.992-2.193-3.182-3.662-6.58-4.403C22.951,44.258,23.65,45.753,23.879,46.479z"/>
	<path fill="#C6204F" d="M55.961,69.748c-4.033-2.865-6.633-4.299-7.803-4.299c-2.865,0.566-7.518,1.168-13.957,1.805l0.16-2.389
		l1.434-0.212c1.555-0.212,2.635-0.088,3.236,0.37c0.672,0.568,1.84-0.281,3.504-2.546c1.131-1.556,2.209-2.563,3.236-3.024
		c1.096-0.494,1.539-0.866,1.326-1.114c-0.85-0.991-1.742-1.874-2.68-2.654c-0.938-0.777-1.812-1.167-2.627-1.167
		c-0.143,0-1.557,0.222-4.246,0.664c-2.688,0.443-6.631,1.052-11.834,1.83c-0.424,0-1.053-0.123-1.883-0.371
		c-0.832-0.248-1.777-0.371-2.84-0.371c-1.166,0-1.857,0.247-2.068,0.742c-0.213,0.391,0.053,0.815,0.795,1.273
		c0.744,0.461,1.256,0.975,1.539,1.54c0.424,0.884,0.938,1.998,1.539,3.343c0.6,1.344,1.398,2.513,2.391,3.502
		c0.352,0.425,0.598,0.637,0.74,0.637c0.246,0,0.812-0.247,1.697-0.742c1.238-0.708,2.443-1.133,3.609-1.274v2.388
		c-5.271,0.921-9.232,1.611-11.887,2.07c-0.459-1.273-0.938-2.141-1.434-2.6c-0.707-0.673-1.998-0.938-3.873-0.797
		c-0.814,0.071-0.938,0.637-0.371,1.698l1.168,2.493c-2.584,0.355-4.68,0.408-6.287,0.16c-1.611-0.248-2.275-0.088-1.992,0.477
		c1.062,2.301,2.299,3.416,3.715,3.344c1.168-0.035,2.9-0.618,5.201-1.75l2.758,7.854c0.461,1.238,1.246,2.061,2.363,2.468
		c1.115,0.406,1.848,0.608,2.201,0.608c0.566,0,0.91-0.229,1.035-0.689c0.123-0.459,0.186-0.918,0.186-1.379
		c0-0.671-0.238-1.662-0.717-2.973c-0.479-1.307-1.008-2.625-1.59-3.953c-0.588-1.326-1.055-2.36-1.406-3.104
		c3.748-1.062,7.391-1.787,10.93-2.176v3.023l-6.898,0.85c-0.848,0.107-0.141,1.114,2.123,3.025c0.6,0.461,1.131,0.69,1.59,0.69
		c0.709-0.212,4.531-1.84,11.465-4.882c0.812,1.91,1.502,2.864,2.07,2.864c0.955,0,1.59-0.425,1.908-1.273
		c0.426-1.096,0.16-1.964-0.795-2.601l-3.926-2.652l5.52-0.637c3.182-0.283,4.332,0.495,3.447,2.334
		c-2.795,5.943-4.633,8.916-5.52,8.916c-0.6,0-2.035-0.407-4.297-1.221c-1.523-0.565-2.459-0.849-2.812-0.849
		c-0.566,0-0.443,0.317,0.371,0.954c2.334,1.841,3.59,3.283,3.768,4.325c0.176,1.044,0.494,1.565,0.955,1.565
		c2.053-0.035,3.945-0.688,5.678-1.963c1.734-1.273,3.537-3.238,5.414-5.891c2.016-2.865,3.465-4.404,4.35-4.617
		C56.949,71.039,57.057,70.491,55.961,69.748z M34.574,61.151c2.369-0.319,3.557-0.76,3.557-1.326c0-0.885-1.117-0.991-3.344-0.319
		c0.07-0.317,0.281-0.645,0.637-0.982c0.352-0.334,0.088-0.785-0.797-1.354c1.84-0.424,3.006-0.636,3.504-0.636
		c1.379,0,2.068,0.583,2.068,1.751c0,0.674-0.689,2.142-2.068,4.404l-3.77,0.584L34.574,61.151z M27.145,65.023
		c-1.379-2.971-2.07-5.021-2.07-6.154l6.156-1.167v2.281c-1.309,0.391-2.9,0.583-4.775,0.583c0.955,1.168,1.662,1.752,2.121,1.752
		l2.654-0.637l0.053,2.017C29.691,64.054,28.312,64.495,27.145,65.023z M39.139,71.446l-5.094,0.69v-2.973l3.342-0.478
		L39.139,71.446z"/>
	<path fill="#283E99" d="M59.516,32.178c-0.496-0.426-1.291-0.867-2.389-1.328l-3.926-1.432c-4.635-1.733-8.219-4.512-10.746-8.332
		c-2.529-3.821-5.9-8.825-10.109-15.018c-0.639-0.955-1.398-1.432-2.281-1.432l-0.691,0.689c-0.602,1.024-0.918,1.962-0.955,2.812
		c-0.035,0.743,0.654,1.84,2.07,3.29c3.395,3.751,6.332,8.384,8.809,13.903c2.9,6.192,5.643,9.286,8.225,9.286l2.072-0.529
		c1.803-0.426,3.453-0.744,4.959-0.955c1.504-0.213,2.865-0.282,4.086-0.213C59.859,32.992,60.152,32.743,59.516,32.178z"/>
</g>
</svg>
