<?xml version="1.0" encoding="utf-8"?>
<!-- Generator: Adobe Illustrator 16.0.0, SVG Export Plug-In . SVG Version: 6.00 Build 0)  -->
<!DOCTYPE svg PUBLIC "-//W3C//DTD SVG 1.1//EN" "http://www.w3.org/Graphics/SVG/1.1/DTD/svg11.dtd">
<svg version="1.1" id="Layer_1" xmlns="http://www.w3.org/2000/svg" xmlns:xlink="http://www.w3.org/1999/xlink" x="0px" y="0px"
	 width="66.334px" height="88.5px" viewBox="0 0 66.334 88.5" enable-background="new 0 0 66.334 88.5" xml:space="preserve">
<g>
	<path fill="#283E99" d="M40.618,72.632l-4.664-4.18c1.144-0.035,2.627,0.268,4.449,0.911l1.983,0.698
		c0.93,0.321,1.903-0.331,2.922-1.956c1.018-1.627,1.786-3.61,2.305-5.95c0.518-2.341,0.893-4.7,1.126-7.076
		c0.231-2.377,0.401-5.315,0.509-8.818c0.035-1.571-0.527-2.652-1.689-3.242c-1.16-0.59-2.385-0.796-3.671-0.618l-2.573,0.268
		l-6.003,5.843c3.431-1.18,5.468-1.268,6.11-0.268c0.93,1.359,0.894,2.144-0.107,2.358c-1.572,0.358-3.806,0.931-6.7,1.715v3.324
		c1.894-0.571,3.288-1.045,4.181-1.42c0.894-0.375,1.733-0.564,2.52-0.564c0.286,0,0.893,0.429,1.822,1.287
		c0.93,0.857,1.395,1.715,1.395,2.573c0,0.358-0.197,0.536-0.59,0.536c-0.394,0-1.572,0.161-3.538,0.483
		c-2.395,0.394-4.323,0.77-5.789,1.125v7.826c0,1.966-0.804,3.628-2.411,4.984c-1.037-0.999-1.573-2.285-1.609-3.859v-8.147
		l-3.858,0.75c-2.073,0.429-3.771-0.463-5.093-2.68l8.951-2.198v-3.27c-1.035,0.251-2.786,0.68-5.252,1.286
		c-1.574-0.249-2.664-0.911-3.27-1.982l5.092-1.877l-3.27-2.625c-1.395,0.572-2.637,1.108-3.726,1.607
		c-1.091,0.502-2.101,1.072-3.028,1.715l3.967,20.798c0.178,0.965-0.162,1.448-1.02,1.448c-1.18,0-2.145-0.785-2.895-2.359
		c-0.75-1.571-1.376-3.126-1.876-4.663c-0.644-2.072-1.296-4.466-1.956-7.183c-0.661-2.715-1.42-4.655-2.279-5.815
		c-0.857-1.162-2.304-2.314-4.341-3.459c0.429-2.071,2.34-2.928,5.735-2.573l3.323,0.483l6.005-1.876
		c-2.789-2.251-3.485-3.466-2.092-3.646c2.859-0.429,4.717-0.249,5.575,0.536l1.179,1.126l2.09-0.644l0.645-6.217
		c-2.217,0.643-4.396,0.964-6.54,0.964c-2.073,0-3.538-0.768-4.396-2.305l1.501-0.268c2.18-0.321,5.557-1.588,10.131-3.806
		c0.464-4.537,0.696-7.807,0.696-9.809c0-2.537-0.455-4.145-1.367-4.824c-0.91-0.678-2.295-1.018-4.152-1.018
		c1.893-1.25,3.269-2.52,4.127-3.807c2.215,2.896,6.379,4.664,12.488,5.307c-3.037,1.789-5.396,6.077-7.075,12.865
		c1.394-0.607,2.769-1.394,4.128-2.359c1.5-1.106,2.465-1.661,2.895-1.661c0.57,0,1.555,0.438,2.947,1.314
		c1.395,0.875,2.092,1.778,2.092,2.706c0,0.18-0.805,0.662-2.412,1.447c-1.609,0.787-3.422,1.591-5.441,2.412
		c-2.02,0.823-3.672,1.467-4.959,1.929l-3.27,6.433l6.754-1.983c0-1.215-0.607-1.964-1.822-2.251
		c0.715-1.535,1.947-2.125,3.699-1.769c3.967,0.787,5.467,1.661,4.502,2.626l-1.018,0.911c6.789,0,12.417,2.341,16.885,7.022
		c-1.573,0.68-2.824,2.217-3.753,4.61c-0.571,1.537-2.18,7.202-4.823,16.991c-1.252,4.54-3.932,7.005-8.041,7.397
		C42.297,74.616,41.51,73.42,40.618,72.632z M31.344,49.209c0.571-0.463,1.313-1.196,2.226-2.198c0.91-1,1.883-2.269,2.92-3.806
		l-8.791,2.733L31.344,49.209z"/>
</g>
</svg>
