<?xml version="1.0" encoding="utf-8"?>
<!-- Generator: Adobe Illustrator 16.0.0, SVG Export Plug-In . SVG Version: 6.00 Build 0)  -->
<!DOCTYPE svg PUBLIC "-//W3C//DTD SVG 1.1//EN" "http://www.w3.org/Graphics/SVG/1.1/DTD/svg11.dtd">
<svg version="1.1" id="Layer_1" xmlns="http://www.w3.org/2000/svg" xmlns:xlink="http://www.w3.org/1999/xlink" x="0px" y="0px"
	 width="66.333px" height="88.5px" viewBox="0 0 66.333 88.5" enable-background="new 0 0 66.333 88.5" xml:space="preserve">
<g>
	<path fill="#283E99" d="M14.594,51.165c-1.217,0-2.289-0.974-3.217-2.919c-0.932-1.95-2.092-4.906-3.484-8.873
		c4.252,1.537,7.076,2.86,8.469,3.967c1.395,1.108,2.09,2.217,2.09,3.323c0,1.252-0.385,2.313-1.152,3.19
		C16.531,50.727,15.629,51.165,14.594,51.165z M55.945,65.691c-1.66,0.609-3.385,1.081-5.17,1.422
		c-1.789,0.339-3.307,0.508-4.557,0.508c-4.039,0-6.861-0.804-8.469-2.412c-1.609-1.607-2.414-4.627-2.414-9.059
		c0-3.752,0.035-7.459,0.109-11.121c0.07-3.665,0.16-7.281,0.266-10.855L26.17,49.128c0,2.357-0.027,4.592-0.08,6.7
		c-0.055,2.109-0.135,4.163-0.24,6.164c-0.215,3.967-0.787,5.95-1.715,5.95c-0.824,0-1.502-0.785-2.037-2.359
		c-0.537-1.57-0.77-5.038-0.697-10.398c-1.322,3.646-3.557,7.792-6.699,12.436c-0.717,1.109-1.844,1.662-3.377,1.662
		c-1.824,0-2.734-1.733-2.734-5.199V53.631l3.432,6.538c1.393,0,4.502-2.84,9.326-8.522V34.87c0-1.214-0.859-1.822-2.574-1.822
		c-0.572,0-1.482,0.18-2.734,0.536c1.502-2.215,2.629-3.323,3.379-3.323c0.82,0,1.93,0.464,3.322,1.394
		c1.395,0.931,2.607,1.831,3.646,2.708c1.033,0.874,1.553,1.599,1.553,2.169c0,0.43-0.234,1.019-0.697,1.77
		c-0.715,1.108-1.072,2.163-1.072,3.162v4.343l9.541-12.919c-0.105-3.431-0.213-5.645-0.322-6.646
		c-0.105-0.999-0.463-1.679-1.07-2.037c-0.609-0.321-1.197-0.482-1.768-0.482h-1.662c0.535-0.643,1.072-1.438,1.607-2.384
		c0.537-0.947,0.912-1.653,1.125-2.118c2.645,3.145,6.219,4.878,10.721,5.199c-0.822,2.217-1.607,4.762-2.357,7.64
		c-0.75,2.875-1.322,5.949-1.717,9.22c-0.393,3.27-0.588,5.888-0.588,7.852l4.717-3.968c2.393-2.07,3.59-3.822,3.59-5.252
		c0-0.929-0.248-1.662-0.75-2.198c-0.467-0.535-0.143-0.644,0.967-0.321c5.25,1.431,7.879,3.698,7.879,6.808
		c0,0.429-0.494,0.679-1.477,0.75c-0.98,0.073-2.457,0.644-4.422,1.716c-1.035,0.572-4.537,2.68-10.504,6.325v7.665
		c0,0.644,0.398,1.162,1.203,1.554c0.805,0.395,1.725,0.59,2.764,0.59c2.572,0,5.037-0.5,7.396-1.5
		c0.857-0.356,1.375-1.321,1.553-2.896c0.18-1.179,0.34-2.821,0.482-4.931c0.859,2.538,1.984,4.378,3.379,5.521
		c1.32,1.108,1.984,2.448,1.984,4.021C58.441,64.19,57.607,65.084,55.945,65.691z"/>
</g>
</svg>
