<?xml version="1.0" encoding="utf-8"?>
<!-- Generator: Adobe Illustrator 16.0.0, SVG Export Plug-In . SVG Version: 6.00 Build 0)  -->
<!DOCTYPE svg PUBLIC "-//W3C//DTD SVG 1.1//EN" "http://www.w3.org/Graphics/SVG/1.1/DTD/svg11.dtd">
<svg version="1.1" id="Layer_1" xmlns="http://www.w3.org/2000/svg" xmlns:xlink="http://www.w3.org/1999/xlink" x="0px" y="0px"
	 width="66.334px" height="88.5px" viewBox="0 0 66.334 88.5" enable-background="new 0 0 66.334 88.5" xml:space="preserve">
<g>
	<path fill="#1F7529" d="M33.141,40.552c4.574,0,8.479-1.617,11.713-4.85c3.232-3.233,4.85-7.121,4.85-11.66
		c0-4.536-1.617-8.424-4.85-11.657c-3.234-3.233-7.139-4.852-11.713-4.852c-4.539,0-8.426,1.619-11.658,4.852
		c-3.234,3.233-4.852,7.121-4.852,11.657c0,4.54,1.617,8.427,4.852,11.66C24.715,38.935,28.602,40.552,33.141,40.552z M23.49,14.394
		c2.646-2.643,5.863-3.967,9.65-3.967s7.012,1.324,9.674,3.967c2.662,2.646,3.994,5.862,3.994,9.648
		c0,3.789-1.332,7.005-3.994,9.648c-2.662,2.646-5.887,3.967-9.674,3.967s-7.004-1.321-9.65-3.967
		c-2.643-2.643-3.963-5.859-3.963-9.648C19.527,20.256,20.848,17.04,23.49,14.394z"/>
	<path fill="#283E99" d="M33.141,47.895c-4.539,0-8.426,1.619-11.658,4.852c-3.234,3.233-4.852,7.121-4.852,11.658
		c0,4.575,1.617,8.48,4.852,11.713c3.232,3.232,7.119,4.849,11.658,4.849c4.574,0,8.479-1.617,11.713-4.849
		c3.232-3.233,4.85-7.138,4.85-11.713c0-4.538-1.617-8.425-4.85-11.658C41.619,49.514,37.715,47.895,33.141,47.895z M42.814,74.081
		c-2.662,2.663-5.887,3.992-9.674,3.992s-7.004-1.329-9.65-3.992c-2.643-2.663-3.963-5.887-3.963-9.676
		c0-3.753,1.32-6.958,3.963-9.621c2.646-2.664,5.863-3.995,9.65-3.995s7.012,1.332,9.674,3.995c2.662,2.663,3.994,5.868,3.994,9.621
		C46.809,68.194,45.477,71.418,42.814,74.081z"/>
	<path fill="#1F7529" d="M33.141,35.567c3.18,0,5.895-1.125,8.146-3.377s3.377-4.966,3.377-8.148c0-3.179-1.125-5.896-3.377-8.147
		s-4.967-3.377-8.146-3.377c-3.145,0-5.842,1.125-8.094,3.377s-3.377,4.968-3.377,8.147c0,3.182,1.125,5.896,3.377,8.148
		S29.996,35.567,33.141,35.567z M26.734,17.61c1.77-1.786,3.904-2.681,6.406-2.681c2.537,0,4.689,0.895,6.459,2.681
		c1.768,1.788,2.652,3.932,2.652,6.432c0,2.502-0.885,4.646-2.652,6.433c-1.77,1.788-3.922,2.679-6.459,2.679
		c-2.502,0-4.637-0.892-6.406-2.679c-1.768-1.787-2.652-3.931-2.652-6.433C24.082,21.542,24.967,19.398,26.734,17.61z"/>
	<path fill="#283E99" d="M33.141,52.934c-3.145,0-5.842,1.125-8.094,3.377c-2.252,2.251-3.377,4.951-3.377,8.094
		c0,3.182,1.125,5.895,3.377,8.147c2.252,2.251,4.949,3.377,8.094,3.377c3.18,0,5.895-1.126,8.146-3.377
		c2.252-2.252,3.377-4.965,3.377-8.147c0-3.144-1.125-5.843-3.377-8.094C39.035,54.06,36.32,52.934,33.141,52.934z M39.6,70.865
		c-1.77,1.769-3.922,2.652-6.459,2.652c-2.502,0-4.637-0.883-6.406-2.652c-1.768-1.769-2.652-3.921-2.652-6.459
		c0-2.5,0.885-4.636,2.652-6.405c1.77-1.769,3.904-2.655,6.406-2.655c2.537,0,4.689,0.886,6.459,2.655
		c1.768,1.769,2.652,3.904,2.652,6.405C42.252,66.944,41.367,69.096,39.6,70.865z"/>
	<path fill="#1F7529" d="M33.141,31.172c1.965,0,3.645-0.697,5.039-2.091c1.393-1.394,2.09-3.073,2.09-5.039
		c0-1.964-0.697-3.644-2.09-5.038c-1.395-1.394-3.074-2.09-5.039-2.09c-1.93,0-3.592,0.697-4.986,2.09
		c-1.393,1.394-2.09,3.074-2.09,5.038c0,1.966,0.697,3.645,2.09,5.039C29.549,30.475,31.211,31.172,33.141,31.172z M29.764,20.64
		c0.93-0.948,2.055-1.421,3.377-1.421c1.359,0,2.502,0.474,3.43,1.421c0.93,0.948,1.395,2.082,1.395,3.402
		c0,1.323-0.465,2.458-1.395,3.405c-0.928,0.948-2.07,1.419-3.43,1.419c-1.322,0-2.447-0.472-3.377-1.419s-1.395-2.082-1.395-3.405
		C28.369,22.722,28.834,21.588,29.764,20.64z"/>
	<path fill="#283E99" d="M33.141,57.329c-1.93,0-3.592,0.697-4.986,2.091c-1.393,1.394-2.09,3.055-2.09,4.985
		c0,1.966,0.697,3.645,2.09,5.038c1.395,1.394,3.057,2.092,4.986,2.092c1.965,0,3.645-0.698,5.039-2.092
		c1.393-1.393,2.09-3.072,2.09-5.038c0-1.93-0.697-3.592-2.09-4.985C36.785,58.026,35.105,57.329,33.141,57.329z M36.57,67.836
		c-0.928,0.93-2.07,1.393-3.43,1.393c-1.322,0-2.447-0.463-3.377-1.393c-0.93-0.929-1.395-2.072-1.395-3.431
		c0-1.287,0.465-2.402,1.395-3.35c0.93-0.947,2.055-1.421,3.377-1.421c1.359,0,2.502,0.474,3.43,1.421
		c0.93,0.948,1.395,2.062,1.395,3.35C37.965,65.764,37.5,66.907,36.57,67.836z"/>
	<path fill="#1F7529" d="M33.141,25.811c0.535,0,0.963-0.169,1.287-0.508c0.32-0.338,0.48-0.758,0.48-1.261
		c0-0.5-0.16-0.928-0.48-1.286c-0.324-0.356-0.752-0.537-1.287-0.537c-0.502,0-0.91,0.18-1.232,0.537
		c-0.322,0.358-0.482,0.787-0.482,1.286c0,0.502,0.16,0.922,0.482,1.261C32.23,25.642,32.639,25.811,33.141,25.811z"/>
	<path fill="#283E99" d="M33.141,62.689c-0.502,0-0.91,0.161-1.232,0.482s-0.482,0.734-0.482,1.233c0,0.536,0.16,0.964,0.482,1.286
		c0.322,0.322,0.73,0.482,1.232,0.482c1.18-0.142,1.768-0.73,1.768-1.768c0-0.5-0.16-0.912-0.48-1.233
		C34.104,62.85,33.676,62.689,33.141,62.689z"/>
</g>
</svg>
