<?xml version="1.0" encoding="utf-8"?>
<!-- Generator: Adobe Illustrator 16.0.0, SVG Export Plug-In . SVG Version: 6.00 Build 0)  -->
<!DOCTYPE svg PUBLIC "-//W3C//DTD SVG 1.1//EN" "http://www.w3.org/Graphics/SVG/1.1/DTD/svg11.dtd">
<svg version="1.1" id="Layer_1" xmlns="http://www.w3.org/2000/svg" xmlns:xlink="http://www.w3.org/1999/xlink" x="0px" y="0px"
	 width="66.334px" height="88.5px" viewBox="0 0 66.334 88.5" enable-background="new 0 0 66.334 88.5" xml:space="preserve">
<g>
	<path fill="#283E99" d="M17.997,3.218c-3.467,0-6.434,1.233-8.898,3.698c-2.467,2.466-3.697,5.451-3.697,8.952
		c0,3.467,1.23,6.442,3.697,8.926c2.465,2.483,5.432,3.724,8.898,3.724c3.465,0,6.432-1.241,8.896-3.724
		c2.467-2.483,3.699-5.459,3.699-8.926c0-3.501-1.232-6.486-3.699-8.952C24.429,4.451,21.462,3.218,17.997,3.218z M25.126,22.971
		c-1.965,1.984-4.342,2.974-7.129,2.974s-5.164-0.99-7.131-2.974c-1.965-1.983-2.945-4.351-2.945-7.103
		c0-2.788,0.98-5.172,2.945-7.155c1.967-1.983,4.344-2.976,7.131-2.976s5.164,0.993,7.129,2.976
		c1.965,1.983,2.947,4.368,2.947,7.155C28.073,18.621,27.091,20.988,25.126,22.971z"/>
	<path fill="#1F7529" d="M17.997,60.037c-3.467,0-6.434,1.244-8.898,3.727c-2.467,2.482-3.697,5.458-3.697,8.923
		c0,3.467,1.23,6.433,3.697,8.898c2.465,2.465,5.432,3.698,8.898,3.698c3.465,0,6.432-1.232,8.896-3.698
		c2.467-2.466,3.699-5.432,3.699-8.898c0-3.465-1.232-6.441-3.699-8.923C24.429,61.28,21.462,60.037,17.997,60.037z M25.126,79.816
		c-1.965,1.966-4.342,2.948-7.129,2.948s-5.164-0.982-7.131-2.948c-1.965-1.964-2.945-4.342-2.945-7.129s0.98-5.163,2.945-7.129
		c1.967-1.964,4.344-2.949,7.131-2.949s5.164,0.985,7.129,2.949c1.965,1.966,2.947,4.341,2.947,7.129S27.091,77.852,25.126,79.816z"
		/>
	<path fill="#283E99" d="M17.997,7.506c-2.324,0-4.307,0.805-5.949,2.412c-1.645,1.608-2.467,3.592-2.467,5.951
		c0,2.324,0.822,4.299,2.467,5.924c1.643,1.625,3.625,2.438,5.949,2.438c2.322,0,4.297-0.813,5.922-2.438
		c1.627-1.625,2.439-3.6,2.439-5.924c0-2.359-0.812-4.342-2.439-5.951C22.294,8.311,20.319,7.506,17.997,7.506z M22.661,20.559
		c-1.287,1.27-2.842,1.902-4.664,1.902c-1.857,0-3.432-0.632-4.717-1.902c-1.287-1.269-1.93-2.833-1.93-4.691
		c0-1.857,0.643-3.42,1.93-4.689c1.285-1.269,2.859-1.904,4.717-1.904c1.822,0,3.377,0.635,4.664,1.904
		c1.285,1.269,1.93,2.833,1.93,4.689C24.591,17.727,23.946,19.29,22.661,20.559z"/>
	<path fill="#1F7529" d="M17.997,64.271c-2.324,0-4.307,0.823-5.949,2.466c-1.645,1.644-2.467,3.628-2.467,5.95
		c0,2.325,0.822,4.299,2.467,5.924c1.643,1.625,3.625,2.438,5.949,2.438c2.322,0,4.297-0.813,5.922-2.438
		c1.627-1.625,2.439-3.6,2.439-5.924c0-2.322-0.812-4.306-2.439-5.95C22.294,65.094,20.319,64.271,17.997,64.271z M22.661,77.35
		c-1.287,1.286-2.842,1.93-4.664,1.93c-1.857,0-3.432-0.644-4.717-1.93c-1.287-1.287-1.93-2.841-1.93-4.664
		c0-1.856,0.643-3.431,1.93-4.717c1.285-1.287,2.859-1.93,4.717-1.93c1.822,0,3.377,0.643,4.664,1.93
		c1.285,1.286,1.93,2.86,1.93,4.717C24.591,74.509,23.946,76.063,22.661,77.35z"/>
	<path fill="#283E99" d="M17.997,10.829c-1.395,0-2.584,0.494-3.564,1.475c-0.984,0.982-1.475,2.17-1.475,3.564
		s0.49,2.583,1.475,3.565c0.98,0.982,2.17,1.473,3.564,1.473c1.393,0,2.582-0.491,3.564-1.473c0.982-0.982,1.475-2.172,1.475-3.565
		s-0.492-2.582-1.475-3.564C20.579,11.323,19.39,10.829,17.997,10.829z M20.382,18.254c-0.662,0.66-1.457,0.991-2.385,0.991
		c-0.932,0-1.727-0.331-2.387-0.991c-0.66-0.661-0.99-1.456-0.99-2.386c0-0.965,0.33-1.769,0.99-2.412s1.455-0.965,2.387-0.965
		c0.928,0,1.723,0.322,2.385,0.965c0.66,0.643,0.992,1.447,0.992,2.412C21.374,16.799,21.042,17.594,20.382,18.254z"/>
	<path fill="#1F7529" d="M17.997,67.648c-1.395,0-2.584,0.493-3.564,1.475c-0.984,0.982-1.475,2.17-1.475,3.563
		c0,1.394,0.49,2.583,1.475,3.566c0.98,0.982,2.17,1.472,3.564,1.472c1.393,0,2.582-0.49,3.564-1.472
		c0.982-0.982,1.475-2.172,1.475-3.566c0-1.394-0.492-2.581-1.475-3.563S19.39,67.648,17.997,67.648z M20.382,75.073
		c-0.662,0.659-1.457,0.99-2.385,0.99c-0.932,0-1.727-0.331-2.387-0.99c-0.66-0.661-0.99-1.456-0.99-2.387
		c0-0.965,0.33-1.777,0.99-2.438c0.66-0.66,1.455-0.993,2.387-0.993c0.928,0,1.723,0.333,2.385,0.993
		c0.66,0.661,0.992,1.473,0.992,2.438C21.374,73.617,21.042,74.413,20.382,75.073z"/>
	<path fill="#283E99" d="M17.997,14.582c-0.857,0.107-1.285,0.536-1.285,1.287c0.07,0.823,0.498,1.233,1.285,1.233
		c0.82-0.071,1.234-0.483,1.234-1.233c0-0.393-0.107-0.706-0.322-0.937S18.39,14.582,17.997,14.582z"/>
	<path fill="#1F7529" d="M17.997,71.4c-0.857,0.073-1.285,0.502-1.285,1.287c0.07,0.823,0.498,1.232,1.285,1.232
		c0.82-0.07,1.234-0.482,1.234-1.232C19.157,71.829,18.747,71.4,17.997,71.4z"/>
	<path fill="#1F7529" d="M48.282,28.518c3.465,0,6.441-1.241,8.924-3.724c2.484-2.483,3.727-5.459,3.727-8.926
		c0-3.501-1.242-6.486-3.727-8.952c-2.482-2.465-5.459-3.698-8.924-3.698c-3.502,0-6.484,1.233-8.951,3.698
		c-2.467,2.466-3.699,5.451-3.699,8.952c0,3.467,1.232,6.442,3.699,8.926C41.798,27.277,44.78,28.518,48.282,28.518z M41.126,8.713
		c1.982-1.983,4.369-2.976,7.156-2.976s5.172,0.993,7.154,2.976c1.984,1.983,2.977,4.368,2.977,7.155
		c0,2.752-0.992,5.12-2.977,7.103c-1.982,1.984-4.367,2.974-7.154,2.974s-5.174-0.99-7.156-2.974
		c-1.982-1.983-2.975-4.351-2.975-7.103C38.151,13.081,39.144,10.696,41.126,8.713z"/>
	<path fill="#283E99" d="M48.282,60.037c-3.502,0-6.484,1.244-8.951,3.727c-2.467,2.482-3.699,5.458-3.699,8.923
		c0,3.467,1.232,6.433,3.699,8.898c2.467,2.465,5.449,3.698,8.951,3.698c3.465,0,6.441-1.232,8.924-3.698
		c2.484-2.466,3.727-5.432,3.727-8.898c0-3.465-1.242-6.441-3.727-8.923C54.724,61.28,51.747,60.037,48.282,60.037z M55.437,79.816
		c-1.982,1.966-4.367,2.948-7.154,2.948s-5.174-0.982-7.156-2.948c-1.982-1.964-2.975-4.342-2.975-7.129s0.992-5.163,2.975-7.129
		c1.982-1.964,4.369-2.949,7.156-2.949s5.172,0.985,7.154,2.949c1.984,1.966,2.977,4.341,2.977,7.129S57.421,77.852,55.437,79.816z"
		/>
	<path fill="#1F7529" d="M48.282,24.23c2.322,0,4.297-0.813,5.922-2.438c1.627-1.625,2.441-3.6,2.441-5.924
		c0-2.359-0.814-4.342-2.441-5.951c-1.625-1.607-3.6-2.412-5.922-2.412c-2.357,0-4.342,0.805-5.949,2.412
		c-1.607,1.608-2.414,3.592-2.414,5.951c0,2.324,0.807,4.299,2.414,5.924S45.925,24.23,48.282,24.23z M43.593,11.179
		c1.268-1.269,2.83-1.904,4.689-1.904c1.857,0,3.422,0.635,4.688,1.904c1.271,1.269,1.906,2.833,1.906,4.689
		c0,1.858-0.635,3.422-1.906,4.691c-1.266,1.27-2.83,1.902-4.688,1.902c-1.859,0-3.422-0.632-4.689-1.902
		c-1.27-1.269-1.904-2.833-1.904-4.691C41.688,14.011,42.323,12.448,43.593,11.179z"/>
	<path fill="#283E99" d="M48.282,64.271c-2.357,0-4.342,0.823-5.949,2.466c-1.607,1.644-2.414,3.628-2.414,5.95
		c0,2.325,0.807,4.299,2.414,5.924c1.607,1.625,3.592,2.438,5.949,2.438c2.322,0,4.297-0.813,5.922-2.438
		c1.627-1.625,2.441-3.6,2.441-5.924c0-2.322-0.814-4.306-2.441-5.95C52.579,65.094,50.604,64.271,48.282,64.271z M52.97,77.35
		c-1.266,1.286-2.83,1.93-4.688,1.93c-1.859,0-3.422-0.644-4.689-1.93c-1.27-1.287-1.904-2.841-1.904-4.664
		c0-1.856,0.635-3.431,1.904-4.717c1.268-1.287,2.83-1.93,4.689-1.93c1.857,0,3.422,0.643,4.688,1.93
		c1.271,1.286,1.906,2.86,1.906,4.717C54.876,74.509,54.241,76.063,52.97,77.35z"/>
	<path fill="#1F7529" d="M48.282,20.907c1.395,0,2.582-0.491,3.564-1.473c0.98-0.982,1.475-2.172,1.475-3.565
		s-0.494-2.582-1.475-3.564c-0.982-0.981-2.17-1.475-3.564-1.475s-2.582,0.494-3.566,1.475c-0.98,0.982-1.473,2.17-1.473,3.564
		s0.492,2.583,1.473,3.565C45.7,20.416,46.888,20.907,48.282,20.907z M45.896,13.456c0.662-0.643,1.457-0.965,2.387-0.965
		s1.725,0.322,2.385,0.965s0.994,1.447,0.994,2.412c0,0.931-0.334,1.726-0.994,2.386c-0.66,0.66-1.455,0.991-2.385,0.991
		s-1.725-0.331-2.387-0.991c-0.66-0.661-0.99-1.456-0.99-2.386C44.905,14.903,45.235,14.099,45.896,13.456z"/>
	<path fill="#283E99" d="M48.282,67.648c-1.395,0-2.582,0.493-3.566,1.475c-0.98,0.982-1.473,2.17-1.473,3.563
		c0,1.394,0.492,2.583,1.473,3.566c0.984,0.982,2.172,1.472,3.566,1.472s2.582-0.49,3.564-1.472c0.98-0.982,1.475-2.172,1.475-3.566
		c0-1.394-0.494-2.581-1.475-3.563C50.864,68.141,49.677,67.648,48.282,67.648z M50.667,75.073c-0.66,0.659-1.455,0.99-2.385,0.99
		s-1.725-0.331-2.387-0.99c-0.66-0.661-0.99-1.456-0.99-2.387c0-0.965,0.33-1.777,0.99-2.438c0.662-0.66,1.457-0.993,2.387-0.993
		s1.725,0.333,2.385,0.993c0.66,0.661,0.994,1.473,0.994,2.438C51.661,73.617,51.327,74.413,50.667,75.073z"/>
	<path fill="#1F7529" d="M48.282,17.101c0.357,0,0.66-0.116,0.912-0.348c0.248-0.232,0.375-0.527,0.375-0.885
		c0-0.393-0.127-0.706-0.375-0.937c-0.252-0.231-0.555-0.35-0.912-0.35s-0.652,0.118-0.885,0.35s-0.348,0.544-0.348,0.937
		C47.12,16.691,47.532,17.101,48.282,17.101z"/>
	<path fill="#283E99" d="M48.282,71.4c-0.824,0.073-1.232,0.502-1.232,1.287c0.07,0.823,0.482,1.232,1.232,1.232
		c0.357,0,0.66-0.115,0.912-0.347c0.248-0.231,0.375-0.527,0.375-0.885C49.462,71.829,49.032,71.4,48.282,71.4z"/>
</g>
</svg>
