<?xml version="1.0" encoding="utf-8"?>
<!-- Generator: Adobe Illustrator 16.0.0, SVG Export Plug-In . SVG Version: 6.00 Build 0)  -->
<!DOCTYPE svg PUBLIC "-//W3C//DTD SVG 1.1//EN" "http://www.w3.org/Graphics/SVG/1.1/DTD/svg11.dtd">
<svg version="1.1" id="Layer_1" xmlns="http://www.w3.org/2000/svg" xmlns:xlink="http://www.w3.org/1999/xlink" x="0px" y="0px"
	 width="66.334px" height="88.5px" viewBox="0 0 66.334 88.5" enable-background="new 0 0 66.334 88.5" xml:space="preserve">
<g>
	<g>
		<path fill="#283E99" d="M17.996,20.907c1.395,0,2.584-0.491,3.566-1.476c0.98-0.981,1.473-2.169,1.473-3.563
			c0-1.394-0.492-2.582-1.473-3.566c-0.982-0.982-2.172-1.473-3.566-1.473c-1.393,0-2.58,0.491-3.562,1.473
			c-0.984,0.984-1.475,2.172-1.475,3.566c0,1.394,0.49,2.582,1.475,3.563C15.416,20.416,16.604,20.907,17.996,20.907z
			 M15.611,13.456c0.662-0.643,1.457-0.964,2.385-0.964c0.932,0,1.725,0.321,2.387,0.964c0.66,0.643,0.99,1.447,0.99,2.413
			c0,0.928-0.33,1.724-0.99,2.384c-0.662,0.662-1.455,0.993-2.387,0.993c-0.928,0-1.723-0.331-2.385-0.993
			c-0.66-0.66-0.99-1.457-0.99-2.384C14.621,14.903,14.951,14.099,15.611,13.456z"/>
		<path fill="#1F7529" d="M48.283,17.101c0.355,0,0.66-0.116,0.91-0.349c0.25-0.231,0.375-0.526,0.375-0.883
			c0-0.393-0.125-0.706-0.375-0.939c-0.25-0.231-0.555-0.347-0.91-0.347c-0.357,0-0.652,0.116-0.885,0.347
			c-0.234,0.234-0.35,0.547-0.35,0.939C47.121,16.689,47.531,17.101,48.283,17.101z"/>
		<path fill="#1F7529" d="M48.283,24.23c2.322,0,4.297-0.813,5.922-2.44c1.625-1.625,2.439-3.601,2.439-5.922
			c0-2.359-0.814-4.342-2.439-5.95c-1.625-1.608-3.6-2.412-5.922-2.412c-2.359,0-4.344,0.804-5.951,2.412
			c-1.609,1.608-2.412,3.591-2.412,5.95c0,2.321,0.803,4.297,2.412,5.922C43.939,23.417,45.924,24.23,48.283,24.23z M43.592,11.177
			c1.27-1.267,2.834-1.902,4.691-1.902s3.42,0.635,4.689,1.902c1.268,1.27,1.902,2.832,1.902,4.691c0,1.858-0.635,3.421-1.902,4.689
			c-1.27,1.269-2.832,1.904-4.689,1.904s-3.422-0.635-4.691-1.904c-1.27-1.268-1.902-2.831-1.902-4.689
			C41.689,14.009,42.322,12.446,43.592,11.177z"/>
		<path fill="#283E99" d="M17.996,24.23c2.324,0,4.299-0.813,5.924-2.44c1.625-1.625,2.438-3.601,2.438-5.922
			c0-2.359-0.812-4.342-2.438-5.95c-1.625-1.608-3.6-2.412-5.924-2.412c-2.322,0-4.307,0.804-5.949,2.412
			c-1.643,1.608-2.465,3.591-2.465,5.95c0,2.321,0.822,4.297,2.465,5.922C13.689,23.417,15.674,24.23,17.996,24.23z M13.281,11.177
			c1.285-1.267,2.859-1.902,4.715-1.902c1.824,0,3.377,0.635,4.664,1.902c1.287,1.27,1.93,2.832,1.93,4.691
			c0,1.858-0.643,3.421-1.93,4.689c-1.287,1.269-2.84,1.904-4.664,1.904c-1.855,0-3.43-0.635-4.715-1.904
			c-1.289-1.268-1.932-2.831-1.932-4.689C11.35,14.009,11.992,12.446,13.281,11.177z"/>
		<path fill="#283E99" d="M17.996,17.101c0.822-0.07,1.232-0.482,1.232-1.232c0-0.393-0.105-0.706-0.32-0.939
			c-0.215-0.231-0.518-0.347-0.912-0.347c-0.857,0.107-1.285,0.536-1.285,1.287C16.781,16.689,17.213,17.101,17.996,17.101z"/>
		<path fill="#1F7529" d="M48.283,20.907c1.393,0,2.582-0.491,3.562-1.476c0.984-0.981,1.477-2.169,1.477-3.563
			c0-1.394-0.492-2.582-1.477-3.566c-0.98-0.982-2.17-1.473-3.562-1.473c-1.395,0-2.584,0.491-3.564,1.473
			c-0.984,0.984-1.475,2.172-1.475,3.566c0,1.394,0.49,2.582,1.475,3.563C45.699,20.416,46.889,20.907,48.283,20.907z
			 M45.896,13.456c0.66-0.643,1.457-0.964,2.387-0.964c0.928,0,1.723,0.321,2.385,0.964c0.66,0.643,0.99,1.447,0.99,2.413
			c0,0.928-0.33,1.724-0.99,2.384c-0.662,0.662-1.457,0.993-2.385,0.993c-0.93,0-1.727-0.331-2.387-0.993
			c-0.66-0.66-0.99-1.457-0.99-2.384C44.906,14.903,45.236,14.099,45.896,13.456z"/>
		<path fill="#1F7529" d="M48.283,28.518c3.465,0,6.441-1.241,8.924-3.727c2.482-2.482,3.727-5.457,3.727-8.923
			c0-3.502-1.244-6.486-3.727-8.952c-2.482-2.465-5.459-3.699-8.924-3.699c-3.504,0-6.486,1.233-8.953,3.699
			c-2.465,2.466-3.697,5.45-3.697,8.952c0,3.467,1.232,6.441,3.697,8.923C41.797,27.277,44.779,28.518,48.283,28.518z M41.127,8.711
			c1.982-1.983,4.369-2.974,7.156-2.974s5.172,0.991,7.154,2.974c1.984,1.983,2.975,4.37,2.975,7.157
			c0,2.751-0.99,5.118-2.975,7.102c-1.982,1.982-4.367,2.976-7.154,2.976s-5.174-0.993-7.156-2.976
			c-1.984-1.983-2.975-4.351-2.975-7.102C38.152,13.081,39.143,10.694,41.127,8.711z"/>
		<path fill="#283E99" d="M48.283,67.648c-1.395,0-2.584,0.492-3.564,1.473c-0.984,0.984-1.475,2.172-1.475,3.565
			s0.49,2.581,1.475,3.563c0.98,0.984,2.17,1.475,3.564,1.475c1.393,0,2.582-0.49,3.562-1.475c0.984-0.982,1.477-2.17,1.477-3.563
			s-0.492-2.581-1.477-3.565C50.865,68.14,49.676,67.648,48.283,67.648z M50.668,75.07c-0.662,0.663-1.457,0.993-2.385,0.993
			c-0.93,0-1.727-0.33-2.387-0.993c-0.66-0.66-0.99-1.455-0.99-2.384c0-0.965,0.33-1.777,0.99-2.44
			c0.66-0.661,1.457-0.991,2.387-0.991c0.928,0,1.723,0.33,2.385,0.991c0.66,0.663,0.99,1.475,0.99,2.44
			C51.658,73.615,51.328,74.41,50.668,75.07z"/>
		<path fill="#283E99" d="M48.283,71.4c-0.822,0.07-1.234,0.498-1.234,1.286c0.072,0.821,0.482,1.233,1.234,1.233
			c0.355,0,0.66-0.116,0.91-0.35c0.25-0.232,0.375-0.527,0.375-0.884C49.463,71.828,49.033,71.4,48.283,71.4z"/>
		<path fill="#C6204F" d="M45.764,44.277c0-3.467-1.244-6.441-3.727-8.926c-2.482-2.483-5.457-3.725-8.924-3.725
			s-6.434,1.242-8.898,3.725c-2.467,2.485-3.699,5.459-3.699,8.926c0,3.467,1.232,6.44,3.699,8.923
			c2.465,2.486,5.432,3.727,8.898,3.727s6.441-1.241,8.924-3.727C44.52,50.718,45.764,47.745,45.764,44.277z M33.113,54.408
			c-2.787,0-5.156-0.992-7.102-2.976c-1.949-1.984-2.922-4.368-2.922-7.155c0-2.788,0.973-5.174,2.922-7.158
			c1.945-1.982,4.314-2.973,7.102-2.973s5.172,0.991,7.156,2.973c1.982,1.984,2.975,4.37,2.975,7.158
			c0,2.787-0.992,5.171-2.975,7.155C38.285,53.416,35.9,54.408,33.113,54.408z"/>
		<path fill="#C6204F" d="M39.09,38.299c-1.625-1.625-3.617-2.438-5.977-2.438s-4.344,0.813-5.951,2.438
			c-1.607,1.627-2.41,3.62-2.41,5.978s0.803,4.342,2.41,5.95c1.607,1.608,3.592,2.412,5.951,2.412s4.352-0.804,5.977-2.412
			c1.625-1.608,2.438-3.591,2.438-5.95S40.715,39.927,39.09,38.299z M37.83,48.966c-1.287,1.27-2.859,1.903-4.717,1.903
			s-3.422-0.634-4.691-1.903c-1.268-1.267-1.902-2.83-1.902-4.689c0-1.859,0.635-3.43,1.902-4.718
			c1.27-1.286,2.834-1.929,4.691-1.929s3.43,0.644,4.717,1.929c1.285,1.288,1.93,2.859,1.93,4.718
			C39.76,46.137,39.115,47.699,37.83,48.966z"/>
		<path fill="#283E99" d="M48.283,64.271c-2.359,0-4.344,0.821-5.951,2.466c-1.609,1.642-2.412,3.626-2.412,5.95
			c0,2.322,0.803,4.297,2.412,5.922c1.607,1.628,3.592,2.44,5.951,2.44c2.322,0,4.297-0.812,5.922-2.44
			c1.625-1.625,2.439-3.6,2.439-5.922c0-2.324-0.814-4.308-2.439-5.95C52.58,65.092,50.605,64.271,48.283,64.271z M52.973,77.35
			c-1.27,1.287-2.832,1.93-4.689,1.93s-3.422-0.643-4.691-1.93c-1.27-1.286-1.902-2.841-1.902-4.663
			c0-1.859,0.633-3.431,1.902-4.717c1.27-1.287,2.834-1.93,4.691-1.93s3.42,0.643,4.689,1.93c1.268,1.286,1.902,2.858,1.902,4.717
			C54.875,74.509,54.24,76.063,52.973,77.35z"/>
		<path fill="#C6204F" d="M36.73,40.658c-0.982-0.982-2.188-1.473-3.617-1.473c-1.395,0-2.572,0.49-3.539,1.473
			c-0.963,0.983-1.447,2.188-1.447,3.619c0,1.394,0.484,2.573,1.447,3.538c0.967,0.964,2.145,1.447,3.539,1.447
			c1.43,0,2.635-0.482,3.617-1.447c0.982-0.965,1.475-2.145,1.475-3.538C38.205,42.847,37.713,41.642,36.73,40.658z M35.553,46.662
			c-0.664,0.663-1.477,0.993-2.439,0.993c-0.93,0-1.725-0.331-2.387-0.993c-0.66-0.661-0.99-1.456-0.99-2.384
			c0-0.965,0.33-1.778,0.99-2.44c0.662-0.66,1.457-0.99,2.387-0.99c0.963,0,1.775,0.33,2.439,0.99c0.658,0.663,0.99,1.476,0.99,2.44
			C36.543,45.206,36.211,46.001,35.553,46.662z"/>
		<path fill="#283E99" d="M48.283,60.036c-3.504,0-6.486,1.241-8.953,3.724c-2.465,2.485-3.697,5.459-3.697,8.926
			c0,3.465,1.232,6.433,3.697,8.898c2.467,2.466,5.449,3.698,8.953,3.698c3.465,0,6.441-1.232,8.924-3.698s3.727-5.434,3.727-8.898
			c0-3.467-1.244-6.441-3.727-8.926C54.725,61.277,51.748,60.036,48.283,60.036z M55.438,79.815
			c-1.982,1.964-4.367,2.948-7.154,2.948s-5.174-0.984-7.156-2.948c-1.984-1.966-2.975-4.341-2.975-7.129
			c0-2.787,0.99-5.165,2.975-7.129c1.982-1.966,4.369-2.947,7.156-2.947s5.172,0.981,7.154,2.947
			c1.984,1.964,2.975,4.342,2.975,7.129C58.412,75.475,57.422,77.85,55.438,79.815z"/>
		<path fill="#1F7529" d="M17.996,67.648c-1.393,0-2.58,0.492-3.562,1.473c-0.984,0.984-1.475,2.172-1.475,3.565
			s0.49,2.581,1.475,3.563c0.982,0.984,2.17,1.475,3.562,1.475c1.395,0,2.584-0.49,3.566-1.475c0.98-0.982,1.473-2.17,1.473-3.563
			s-0.492-2.581-1.473-3.565C20.58,68.14,19.391,67.648,17.996,67.648z M20.383,75.07c-0.662,0.663-1.455,0.993-2.387,0.993
			c-0.928,0-1.723-0.33-2.385-0.993c-0.66-0.66-0.99-1.455-0.99-2.384c0-0.965,0.33-1.777,0.99-2.44
			c0.662-0.661,1.457-0.991,2.385-0.991c0.932,0,1.725,0.33,2.387,0.991c0.66,0.663,0.99,1.475,0.99,2.44
			C21.373,73.615,21.043,74.41,20.383,75.07z"/>
		<path fill="#1F7529" d="M17.996,71.4c-0.857,0.07-1.285,0.498-1.285,1.286c0.07,0.821,0.502,1.233,1.285,1.233
			c0.822-0.073,1.232-0.482,1.232-1.233C19.158,71.828,18.748,71.4,17.996,71.4z"/>
		<path fill="#283E99" d="M17.996,28.518c3.467,0,6.434-1.241,8.9-3.727c2.465-2.482,3.697-5.457,3.697-8.923
			c0-3.502-1.232-6.486-3.697-8.952c-2.467-2.465-5.434-3.699-8.9-3.699c-3.465,0-6.432,1.233-8.898,3.699
			C6.633,9.382,5.4,12.366,5.4,15.868c0,3.467,1.232,6.441,3.697,8.923C11.564,27.277,14.531,28.518,17.996,28.518z M10.869,8.711
			c1.963-1.983,4.34-2.974,7.127-2.974c2.789,0,5.166,0.991,7.131,2.974s2.947,4.37,2.947,7.157c0,2.751-0.982,5.118-2.947,7.102
			c-1.965,1.982-4.342,2.976-7.131,2.976c-2.787,0-5.164-0.993-7.127-2.976c-1.967-1.983-2.949-4.351-2.949-7.102
			C7.92,13.081,8.902,10.694,10.869,8.711z"/>
		<path fill="#1F7529" d="M17.996,64.271c-2.322,0-4.307,0.821-5.949,2.466c-1.643,1.642-2.465,3.626-2.465,5.95
			c0,2.322,0.822,4.297,2.465,5.922c1.643,1.628,3.627,2.44,5.949,2.44c2.324,0,4.299-0.812,5.924-2.44
			c1.625-1.625,2.438-3.6,2.438-5.922c0-2.324-0.812-4.308-2.438-5.95C22.295,65.092,20.32,64.271,17.996,64.271z M22.66,77.35
			c-1.287,1.287-2.84,1.93-4.664,1.93c-1.855,0-3.43-0.643-4.715-1.93c-1.289-1.286-1.932-2.841-1.932-4.663
			c0-1.859,0.643-3.431,1.932-4.717c1.285-1.287,2.859-1.93,4.715-1.93c1.824,0,3.377,0.643,4.664,1.93
			c1.287,1.286,1.93,2.858,1.93,4.717C24.59,74.509,23.947,76.063,22.66,77.35z"/>
		<path fill="#1F7529" d="M17.996,60.036c-3.465,0-6.432,1.241-8.898,3.724C6.633,66.246,5.4,69.219,5.4,72.687
			c0,3.465,1.232,6.433,3.697,8.898c2.467,2.466,5.434,3.698,8.898,3.698c3.467,0,6.434-1.232,8.9-3.698
			c2.465-2.466,3.697-5.434,3.697-8.898c0-3.467-1.232-6.441-3.697-8.926C24.43,61.277,21.463,60.036,17.996,60.036z M25.127,79.815
			c-1.965,1.964-4.342,2.948-7.131,2.948c-2.787,0-5.164-0.984-7.127-2.948C8.902,77.85,7.92,75.475,7.92,72.687
			c0-2.787,0.982-5.165,2.949-7.129c1.963-1.966,4.34-2.947,7.127-2.947c2.789,0,5.166,0.981,7.131,2.947
			c1.965,1.964,2.947,4.342,2.947,7.129C28.074,75.475,27.092,77.85,25.127,79.815z"/>
		<path fill="#C6204F" d="M33.113,42.991c-0.822,0.071-1.232,0.5-1.232,1.287c0.072,0.821,0.48,1.233,1.232,1.233
			c0.857-0.071,1.287-0.483,1.287-1.233C34.328,43.419,33.898,42.991,33.113,42.991z"/>
	</g>
</g>
</svg>
