<?xml version="1.0" encoding="utf-8"?>
<!-- Generator: Adobe Illustrator 16.0.0, SVG Export Plug-In . SVG Version: 6.00 Build 0)  -->
<!DOCTYPE svg PUBLIC "-//W3C//DTD SVG 1.1//EN" "http://www.w3.org/Graphics/SVG/1.1/DTD/svg11.dtd">
<svg version="1.1" id="Layer_1" xmlns="http://www.w3.org/2000/svg" xmlns:xlink="http://www.w3.org/1999/xlink" x="0px" y="0px"
	 width="66.334px" height="88.5px" viewBox="0 0 66.334 88.5" enable-background="new 0 0 66.334 88.5" xml:space="preserve">
<g>
	<g>
		<path fill="#1F7529" d="M23.831,22.881c1.675,0,3.126-0.611,4.351-1.836s1.837-2.707,1.837-4.447c0-1.676-0.612-3.135-1.837-4.375
			s-2.676-1.861-4.351-1.861c-1.74,0-3.224,0.621-4.447,1.861c-1.226,1.24-1.837,2.699-1.837,4.375c0,1.74,0.611,3.223,1.837,4.447
			C20.607,22.27,22.091,22.881,23.831,22.881z M20.785,13.6c0.838-0.837,1.838-1.256,2.998-1.256s2.158,0.419,2.996,1.256
			c0.838,0.839,1.258,1.838,1.258,2.998c0,1.192-0.42,2.207-1.258,3.045s-1.836,1.257-2.996,1.257s-2.16-0.419-2.998-1.257
			s-1.256-1.853-1.256-3.045C19.529,15.438,19.947,14.438,20.785,13.6z"/>
		<path fill="#1F7529" d="M23.831,18.676c0.515,0,0.974-0.201,1.378-0.604c0.402-0.403,0.604-0.895,0.604-1.475
			c0-0.516-0.201-0.975-0.604-1.379c-0.404-0.402-0.863-0.604-1.378-0.604c-0.58,0-1.071,0.201-1.474,0.604
			c-0.404,0.404-0.605,0.863-0.605,1.379c0,0.58,0.201,1.071,0.605,1.475C22.76,18.475,23.251,18.676,23.831,18.676z M23.831,15.92
			c0.387,0,0.596,0.227,0.628,0.678c0,0.419-0.209,0.645-0.628,0.676c-0.483,0-0.741-0.225-0.773-0.676
			C23.058,16.211,23.314,15.985,23.831,15.92z"/>
		<path fill="#1F7529" d="M42.007,18.676c0.548,0,1.022-0.201,1.427-0.604c0.402-0.403,0.604-0.895,0.604-1.475
			c0-0.516-0.201-0.975-0.604-1.379c-0.404-0.402-0.879-0.604-1.427-0.604s-1.032,0.201-1.45,0.604
			c-0.42,0.404-0.629,0.863-0.629,1.379c0,0.58,0.209,1.071,0.629,1.475C40.975,18.475,41.459,18.676,42.007,18.676z M42.007,15.92
			c0.387,0,0.596,0.227,0.628,0.678c0,0.419-0.209,0.645-0.628,0.676c-0.419,0-0.646-0.225-0.677-0.676
			C41.33,16.211,41.555,15.985,42.007,15.92z"/>
		<path fill="#1F7529" d="M42.007,22.881c1.708,0,3.183-0.611,4.423-1.836s1.861-2.707,1.861-4.447c0-1.676-0.621-3.135-1.861-4.375
			s-2.715-1.861-4.423-1.861s-3.175,0.621-4.399,1.861s-1.836,2.699-1.836,4.375c0,1.74,0.611,3.223,1.836,4.447
			S40.299,22.881,42.007,22.881z M39.01,13.6c0.838-0.837,1.837-1.256,2.997-1.256s2.159,0.419,2.997,1.256
			c0.838,0.839,1.257,1.838,1.257,2.998c0,1.192-0.419,2.207-1.257,3.045s-1.837,1.257-2.997,1.257s-2.159-0.419-2.997-1.257
			s-1.257-1.853-1.257-3.045C37.753,15.438,38.172,14.438,39.01,13.6z"/>
		<path fill="#C6204F" d="M42.007,51.016c-0.548,0-1.032,0.201-1.45,0.604c-0.42,0.404-0.629,0.895-0.629,1.475
			c0,0.516,0.209,0.975,0.629,1.377c0.418,0.404,0.902,0.605,1.45,0.605s1.022-0.201,1.427-0.605
			c0.402-0.402,0.604-0.861,0.604-1.377c0-0.58-0.201-1.07-0.604-1.475C43.029,51.217,42.555,51.016,42.007,51.016z M42.007,53.771
			c-0.419,0-0.646-0.226-0.677-0.677c0-0.483,0.225-0.725,0.677-0.725c0.387,0,0.596,0.241,0.628,0.725
			C42.635,53.48,42.426,53.707,42.007,53.771z"/>
		<path fill="#C6204F" d="M37.607,66.871c-1.225,1.225-1.836,2.691-1.836,4.398c0,1.709,0.611,3.184,1.836,4.424
			s2.691,1.86,4.399,1.86s3.183-0.62,4.423-1.86s1.861-2.715,1.861-4.424c0-1.707-0.621-3.174-1.861-4.398s-2.715-1.838-4.423-1.838
			S38.832,65.646,37.607,66.871z M46.261,71.27c0,1.16-0.419,2.168-1.257,3.021s-1.837,1.281-2.997,1.281s-2.159-0.428-2.997-1.281
			s-1.257-1.861-1.257-3.021s0.419-2.158,1.257-2.997c0.838-0.837,1.837-1.257,2.997-1.257s2.159,0.42,2.997,1.257
			C45.842,69.111,46.261,70.109,46.261,71.27z"/>
		<path fill="#C6204F" d="M46.43,48.646c-1.24-1.225-2.715-1.837-4.423-1.837s-3.175,0.612-4.399,1.837s-1.836,2.707-1.836,4.447
			c0,1.676,0.611,3.127,1.836,4.351c1.225,1.226,2.691,1.837,4.399,1.837s3.183-0.611,4.423-1.837
			c1.24-1.224,1.861-2.675,1.861-4.351C48.291,51.354,47.67,49.871,46.43,48.646z M45.004,56.043
			c-0.838,0.838-1.837,1.256-2.997,1.256s-2.159-0.418-2.997-1.256s-1.257-1.838-1.257-2.998s0.419-2.158,1.257-2.996
			s1.837-1.258,2.997-1.258s2.159,0.42,2.997,1.258s1.257,1.836,1.257,2.996S45.842,55.205,45.004,56.043z"/>
		<path fill="#C6204F" d="M40.557,69.844c-0.42,0.403-0.629,0.879-0.629,1.426c0,0.549,0.209,1.023,0.629,1.426
			c0.418,0.404,0.902,0.604,1.45,0.604s1.022-0.2,1.427-0.604c0.402-0.402,0.604-0.877,0.604-1.426c0-0.547-0.201-1.022-0.604-1.426
			c-0.404-0.402-0.879-0.604-1.427-0.604S40.975,69.441,40.557,69.844z M42.635,71.27c0,0.193-0.057,0.363-0.168,0.508
			c-0.114,0.145-0.267,0.217-0.46,0.217c-0.226,0-0.396-0.072-0.507-0.217c-0.114-0.145-0.17-0.314-0.17-0.508
			c0-0.418,0.225-0.645,0.677-0.677C42.394,70.593,42.603,70.818,42.635,71.27z"/>
		<path fill="#1F7529" d="M23.831,26.894c1.966,0,3.747-0.507,5.341-1.522c1.596-1.016,2.828-2.345,3.699-3.988
			c0.901,1.644,2.15,2.973,3.746,3.988s3.391,1.522,5.39,1.522c2.835,0,5.253-0.999,7.251-2.997s2.997-4.431,2.997-7.299
			c0-2.836-0.999-5.246-2.997-7.227c-1.998-1.982-4.416-2.974-7.251-2.974c-1.999,0-3.794,0.5-5.39,1.499s-2.845,2.305-3.746,3.915
			c-0.871-1.61-2.104-2.916-3.699-3.915c-1.594-0.999-3.375-1.499-5.341-1.499c-2.868,0-5.302,0.991-7.3,2.974
			c-1.998,1.98-2.996,4.391-2.996,7.227c0,2.868,0.998,5.301,2.996,7.299S20.963,26.894,23.831,26.894z M36.352,10.965
			c1.547-1.529,3.432-2.295,5.655-2.295s4.108,0.766,5.655,2.295c1.547,1.531,2.32,3.408,2.32,5.633c0,2.223-0.773,4.117-2.32,5.68
			c-1.547,1.563-3.432,2.344-5.655,2.344s-4.108-0.78-5.655-2.344c-1.547-1.562-2.32-3.457-2.32-5.68
			C34.031,14.373,34.805,12.496,36.352,10.965z M18.15,10.965c1.563-1.529,3.457-2.295,5.681-2.295c2.19,0,4.061,0.766,5.607,2.295
			c1.547,1.531,2.32,3.408,2.32,5.633c0,2.223-0.773,4.117-2.32,5.68c-1.547,1.563-3.417,2.344-5.607,2.344
			c-2.224,0-4.117-0.78-5.681-2.344c-1.562-1.562-2.344-3.457-2.344-5.68C15.807,14.373,16.588,12.496,18.15,10.965z"/>
		<path fill="#C6204F" d="M50.732,58.436c1.016-1.596,1.522-3.375,1.522-5.342c0-2.867-0.999-5.301-2.997-7.299
			s-4.416-2.998-7.251-2.998c-1.999,0-3.794,0.508-5.39,1.523s-2.845,2.344-3.746,3.988c-0.871-1.645-2.104-2.973-3.699-3.988
			c-1.594-1.016-3.375-1.523-5.341-1.523c-2.868,0-5.302,1-7.3,2.998s-2.996,4.432-2.996,7.299c0,1.967,0.508,3.746,1.521,5.342
			c1.016,1.596,2.346,2.828,3.988,3.697c-1.643,0.903-2.973,2.152-3.988,3.746c-1.014,1.596-1.521,3.393-1.521,5.391
			c0,2.836,0.998,5.254,2.996,7.251c1.998,1.999,4.432,2.997,7.3,2.997c1.966,0,3.747-0.508,5.341-1.523
			c1.596-1.014,2.828-2.327,3.699-3.939c0.901,1.612,2.15,2.926,3.746,3.939c1.596,1.016,3.391,1.523,5.39,1.523
			c2.835,0,5.253-0.998,7.251-2.997c1.998-1.997,2.997-4.415,2.997-7.251c0-1.998-0.507-3.795-1.522-5.391
			c-1.016-1.594-2.329-2.843-3.939-3.746C48.403,61.264,49.717,60.031,50.732,58.436z M18.15,58.701
			c-1.562-1.547-2.344-3.416-2.344-5.607c0-2.224,0.781-4.116,2.344-5.68c1.563-1.562,3.457-2.345,5.681-2.345
			c2.19,0,4.061,0.782,5.607,2.345c1.547,1.563,2.32,3.456,2.32,5.68c0,2.191-0.773,4.061-2.32,5.607s-3.417,2.32-5.607,2.32
			C21.607,61.021,19.714,60.248,18.15,58.701z M29.438,76.926c-1.547,1.547-3.417,2.32-5.607,2.32c-2.224,0-4.117-0.773-5.681-2.32
			c-1.562-1.547-2.344-3.433-2.344-5.656s0.781-4.109,2.344-5.656c1.563-1.547,3.457-2.32,5.681-2.32c2.19,0,4.061,0.773,5.607,2.32
			s2.32,3.433,2.32,5.656S30.985,75.379,29.438,76.926z M28.424,62.133c1.965-1.03,3.447-2.465,4.447-4.302
			c1.03,1.837,2.514,3.271,4.447,4.302c-1.934,1.064-3.417,2.514-4.447,4.352C31.871,64.646,30.389,63.197,28.424,62.133z
			 M47.662,65.613c1.547,1.547,2.32,3.433,2.32,5.656s-0.773,4.109-2.32,5.656s-3.432,2.32-5.655,2.32s-4.108-0.773-5.655-2.32
			s-2.32-3.433-2.32-5.656s0.773-4.109,2.32-5.656s3.432-2.32,5.655-2.32S46.115,64.066,47.662,65.613z M42.007,61.021
			c-2.224,0-4.108-0.773-5.655-2.32s-2.32-3.416-2.32-5.607c0-2.224,0.773-4.116,2.32-5.68c1.547-1.562,3.432-2.345,5.655-2.345
			s4.108,0.782,5.655,2.345c1.547,1.563,2.32,3.456,2.32,5.68c0,2.191-0.773,4.061-2.32,5.607S44.23,61.021,42.007,61.021z"/>
		<path fill="#C6204F" d="M23.831,65.033c-1.74,0-3.224,0.613-4.447,1.838c-1.226,1.225-1.837,2.691-1.837,4.398
			c0,1.709,0.611,3.184,1.837,4.424c1.224,1.24,2.707,1.86,4.447,1.86c1.675,0,3.126-0.62,4.351-1.86s1.837-2.715,1.837-4.424
			c0-1.707-0.612-3.174-1.837-4.398S25.506,65.033,23.831,65.033z M26.779,74.291c-0.838,0.854-1.836,1.281-2.996,1.281
			s-2.16-0.428-2.998-1.281s-1.256-1.861-1.256-3.021s0.418-2.158,1.256-2.997c0.838-0.837,1.838-1.257,2.998-1.257
			s2.158,0.42,2.996,1.257c0.838,0.839,1.258,1.837,1.258,2.997S27.617,73.438,26.779,74.291z"/>
		<path fill="#C6204F" d="M28.182,57.444c1.225-1.224,1.837-2.675,1.837-4.351c0-1.74-0.612-3.223-1.837-4.447
			s-2.676-1.837-4.351-1.837c-1.74,0-3.224,0.612-4.447,1.837c-1.226,1.225-1.837,2.707-1.837,4.447
			c0,1.676,0.611,3.127,1.837,4.351c1.224,1.226,2.707,1.837,4.447,1.837C25.506,59.281,26.957,58.67,28.182,57.444z M20.785,56.043
			c-0.838-0.838-1.256-1.838-1.256-2.998s0.418-2.158,1.256-2.996s1.838-1.258,2.998-1.258s2.158,0.42,2.996,1.258
			s1.258,1.836,1.258,2.996s-0.42,2.16-1.258,2.998s-1.836,1.256-2.996,1.256S21.623,56.881,20.785,56.043z"/>
		<path fill="#C6204F" d="M23.831,51.016c-0.58,0-1.071,0.201-1.474,0.604c-0.404,0.404-0.605,0.895-0.605,1.475
			c0,0.516,0.201,0.975,0.605,1.377c0.402,0.404,0.894,0.605,1.474,0.605c0.515,0,0.974-0.201,1.378-0.605
			c0.402-0.402,0.604-0.861,0.604-1.377c0-0.58-0.201-1.07-0.604-1.475C24.805,51.217,24.346,51.016,23.831,51.016z M23.831,53.771
			c-0.483,0-0.741-0.226-0.773-0.677c0-0.483,0.257-0.725,0.773-0.725c0.387,0,0.596,0.241,0.628,0.725
			C24.459,53.48,24.25,53.707,23.831,53.771z"/>
		<path fill="#C6204F" d="M23.831,69.239c-0.58,0-1.071,0.202-1.474,0.604c-0.404,0.403-0.605,0.879-0.605,1.426
			c0,0.549,0.201,1.023,0.605,1.426C22.76,73.1,23.251,73.3,23.831,73.3c0.515,0,0.974-0.2,1.378-0.604
			c0.402-0.402,0.604-0.877,0.604-1.426c0-0.547-0.201-1.022-0.604-1.426C24.805,69.441,24.346,69.239,23.831,69.239z
			 M24.291,71.777c-0.114,0.145-0.267,0.217-0.46,0.217c-0.259,0-0.452-0.072-0.58-0.217c-0.13-0.145-0.193-0.314-0.193-0.508
			c0-0.418,0.257-0.645,0.773-0.677c0.387,0,0.596,0.226,0.628,0.677C24.459,71.463,24.402,71.633,24.291,71.777z"/>
	</g>
	<g>
	</g>
</g>
</svg>
