<?xml version="1.0" encoding="utf-8"?>
<!-- Generator: Adobe Illustrator 16.0.0, SVG Export Plug-In . SVG Version: 6.00 Build 0)  -->
<!DOCTYPE svg PUBLIC "-//W3C//DTD SVG 1.1//EN" "http://www.w3.org/Graphics/SVG/1.1/DTD/svg11.dtd">
<svg version="1.1" id="Layer_1" xmlns="http://www.w3.org/2000/svg" xmlns:xlink="http://www.w3.org/1999/xlink" x="0px" y="0px"
	 width="66.334px" height="88.5px" viewBox="0 0 66.334 88.5" enable-background="new 0 0 66.334 88.5" xml:space="preserve">
<g>
	<g>
		<path fill="#283E99" d="M23.951,82.885c-2.897,0-5.355-1.01-7.373-3.027c-2.019-2.02-3.027-4.461-3.027-7.324
			c0-2.02,0.513-3.834,1.538-5.445s2.368-2.873,4.028-3.783c-1.66-0.879-3.003-2.125-4.028-3.736s-1.538-3.408-1.538-5.395
			c0-2.051,0.513-3.883,1.538-5.494s2.368-2.855,4.028-3.734c-1.66-0.879-3.003-2.133-4.028-3.76s-1.538-3.451-1.538-5.469
			s0.513-3.834,1.538-5.445s2.368-2.855,4.028-3.734c-1.66-0.912-3.003-2.174-4.028-3.785s-1.538-3.426-1.538-5.443
			c0-2.865,1.009-5.299,3.027-7.301c2.018-2.002,4.476-3.002,7.373-3.002c1.985,0,3.784,0.504,5.396,1.514s2.856,2.328,3.735,3.955
			c0.911-1.627,2.173-2.945,3.784-3.955s3.426-1.514,5.444-1.514c2.864,0,5.306,1,7.324,3.002c2.018,2.002,3.027,4.436,3.027,7.301
			c0,2.018-0.513,3.832-1.538,5.443s-2.353,2.873-3.979,3.785c1.627,0.879,2.954,2.123,3.979,3.734s1.538,3.428,1.538,5.445
			s-0.513,3.842-1.538,5.469s-2.353,2.881-3.979,3.76c1.627,0.879,2.954,2.123,3.979,3.734s1.538,3.443,1.538,5.494
			c0,1.986-0.513,3.783-1.538,5.395s-2.353,2.857-3.979,3.736c1.627,0.91,2.954,2.172,3.979,3.783s1.538,3.426,1.538,5.445
			c0,2.863-1.01,5.305-3.027,7.324c-2.019,2.018-4.46,3.027-7.324,3.027c-2.019,0-3.833-0.514-5.444-1.539s-2.873-2.352-3.784-3.979
			c-0.879,1.627-2.124,2.953-3.735,3.979S25.937,82.885,23.951,82.885z M23.951,25.415c2.213,0,4.102-0.789,5.664-2.369
			c1.562-1.578,2.344-3.49,2.344-5.736s-0.781-4.143-2.344-5.689c-1.562-1.545-3.451-2.318-5.664-2.318
			c-2.246,0-4.159,0.773-5.737,2.318c-1.579,1.547-2.368,3.443-2.368,5.689s0.789,4.158,2.368,5.736
			C19.792,24.625,21.705,25.415,23.951,25.415z M23.951,43.774c2.213,0,4.102-0.781,5.664-2.344s2.344-3.467,2.344-5.713
			s-0.781-4.143-2.344-5.689c-1.562-1.545-3.451-2.318-5.664-2.318c-2.246,0-4.159,0.773-5.737,2.318
			c-1.579,1.547-2.368,3.443-2.368,5.689s0.789,4.15,2.368,5.713C19.792,42.993,21.705,43.774,23.951,43.774z M23.951,62.182
			c2.213,0,4.102-0.781,5.664-2.344s2.344-3.451,2.344-5.664c0-2.246-0.781-4.158-2.344-5.738c-1.562-1.578-3.451-2.367-5.664-2.367
			c-2.246,0-4.159,0.789-5.737,2.367c-1.579,1.58-2.368,3.492-2.368,5.738c0,2.213,0.789,4.102,2.368,5.664
			C19.792,61.401,21.705,62.182,23.951,62.182z M23.951,80.59c2.213,0,4.102-0.781,5.664-2.344s2.344-3.467,2.344-5.713
			s-0.781-4.15-2.344-5.713s-3.451-2.344-5.664-2.344c-2.246,0-4.159,0.781-5.737,2.344c-1.579,1.562-2.368,3.467-2.368,5.713
			s0.789,4.15,2.368,5.713C19.792,79.809,21.705,80.59,23.951,80.59z M23.951,23.657c-1.758,0-3.256-0.619-4.492-1.855
			c-1.237-1.236-1.855-2.734-1.855-4.492c0-1.693,0.618-3.166,1.855-4.42c1.236-1.252,2.734-1.879,4.492-1.879
			c1.692,0,3.157,0.627,4.395,1.879c1.236,1.254,1.855,2.727,1.855,4.42c0,1.758-0.619,3.256-1.855,4.492
			C27.108,23.038,25.644,23.657,23.951,23.657z M23.951,42.065c-1.758,0-3.256-0.627-4.492-1.881
			c-1.237-1.252-1.855-2.742-1.855-4.467s0.618-3.215,1.855-4.469c1.236-1.252,2.734-1.879,4.492-1.879
			c1.692,0,3.157,0.627,4.395,1.879c1.236,1.254,1.855,2.744,1.855,4.469s-0.619,3.215-1.855,4.467
			C27.108,41.438,25.644,42.065,23.951,42.065z M23.951,60.424c-1.758,0-3.256-0.619-4.492-1.855
			c-1.237-1.236-1.855-2.701-1.855-4.395c0-1.758,0.618-3.256,1.855-4.492c1.236-1.236,2.734-1.855,4.492-1.855
			c1.692,0,3.157,0.619,4.395,1.855c1.236,1.236,1.855,2.734,1.855,4.492c0,1.693-0.619,3.158-1.855,4.395
			C27.108,59.805,25.644,60.424,23.951,60.424z M23.951,78.881c-1.758,0-3.256-0.627-4.492-1.881
			c-1.237-1.252-1.855-2.742-1.855-4.467c0-1.727,0.618-3.207,1.855-4.443c1.236-1.238,2.734-1.855,4.492-1.855
			c1.692,0,3.157,0.617,4.395,1.855c1.236,1.236,1.855,2.717,1.855,4.443c0,1.725-0.619,3.215-1.855,4.467
			C27.108,78.254,25.644,78.881,23.951,78.881z M23.902,21.655c1.172,0,2.181-0.424,3.027-1.27c0.846-0.846,1.27-1.871,1.27-3.076
			c0-1.172-0.424-2.182-1.27-3.027c-0.847-0.846-1.855-1.27-3.027-1.27s-2.182,0.424-3.027,1.27c-0.847,0.846-1.27,1.855-1.27,3.027
			c0,1.205,0.423,2.23,1.27,3.076C21.721,21.231,22.73,21.655,23.902,21.655z M23.902,40.063c1.172,0,2.181-0.432,3.027-1.295
			c0.846-0.861,1.27-1.879,1.27-3.051s-0.424-2.182-1.27-3.027c-0.847-0.846-1.855-1.27-3.027-1.27s-2.182,0.424-3.027,1.27
			c-0.847,0.846-1.27,1.855-1.27,3.027s0.423,2.189,1.27,3.051C21.721,39.631,22.73,40.063,23.902,40.063z M23.902,58.422
			c1.172,0,2.181-0.424,3.027-1.27c0.846-0.846,1.27-1.855,1.27-3.027s-0.424-2.182-1.27-3.027c-0.847-0.846-1.855-1.27-3.027-1.27
			s-2.182,0.424-3.027,1.27c-0.847,0.846-1.27,1.855-1.27,3.027s0.423,2.182,1.27,3.027C21.721,57.999,22.73,58.422,23.902,58.422z
			 M23.902,76.879c1.172,0,2.181-0.432,3.027-1.295c0.846-0.861,1.27-1.879,1.27-3.051s-0.424-2.182-1.27-3.027
			c-0.847-0.848-1.855-1.27-3.027-1.27s-2.182,0.422-3.027,1.27c-0.847,0.846-1.27,1.855-1.27,3.027s0.423,2.189,1.27,3.051
			C21.721,76.448,22.73,76.879,23.902,76.879z M23.951,19.409c0.521,0,0.984-0.203,1.392-0.611c0.406-0.406,0.61-0.902,0.61-1.488
			c0-0.521-0.204-0.984-0.61-1.393c-0.407-0.406-0.871-0.609-1.392-0.609c-0.586,0-1.083,0.203-1.489,0.609
			c-0.407,0.408-0.61,0.871-0.61,1.393c0,0.586,0.203,1.082,0.61,1.488C22.868,19.206,23.365,19.409,23.951,19.409z M23.951,37.817
			c0.521,0,0.984-0.211,1.392-0.635c0.406-0.424,0.61-0.912,0.61-1.465c0-0.521-0.204-0.992-0.61-1.416
			c-0.407-0.424-0.871-0.635-1.392-0.635c-0.586,0-1.083,0.211-1.489,0.635c-0.407,0.424-0.61,0.895-0.61,1.416
			c0,0.553,0.203,1.041,0.61,1.465C22.868,37.606,23.365,37.817,23.951,37.817z M23.951,56.176c0.521,0,0.984-0.203,1.392-0.611
			c0.406-0.406,0.61-0.869,0.61-1.391c0-0.586-0.204-1.082-0.61-1.49c-0.407-0.406-0.871-0.609-1.392-0.609
			c-0.586,0-1.083,0.203-1.489,0.609c-0.407,0.408-0.61,0.904-0.61,1.49c0,0.521,0.203,0.984,0.61,1.391
			C22.868,55.973,23.365,56.176,23.951,56.176z M23.951,74.584c0.521,0,0.984-0.203,1.392-0.611c0.406-0.406,0.61-0.887,0.61-1.439
			c0-0.555-0.204-1.033-0.61-1.441c-0.407-0.406-0.871-0.609-1.392-0.609c-0.586,0-1.083,0.203-1.489,0.609
			c-0.407,0.408-0.61,0.887-0.61,1.441c0,0.553,0.203,1.033,0.61,1.439C22.868,74.381,23.365,74.584,23.951,74.584z M23.951,17.993
			c-0.488,0-0.749-0.229-0.781-0.684c0-0.391,0.26-0.619,0.781-0.684c0.391,0,0.602,0.229,0.635,0.684
			C24.586,17.733,24.374,17.959,23.951,17.993z M23.951,36.401c-0.488,0-0.749-0.229-0.781-0.684c0-0.391,0.26-0.602,0.781-0.635
			c0.391,0,0.602,0.211,0.635,0.635C24.586,36.141,24.374,36.368,23.951,36.401z M23.951,54.858c-0.488,0-0.749-0.229-0.781-0.684
			c0-0.488,0.26-0.732,0.781-0.732c0.391,0,0.602,0.244,0.635,0.732C24.586,54.565,24.374,54.793,23.951,54.858z M23.951,73.266
			c-0.261,0-0.456-0.074-0.586-0.221c-0.131-0.146-0.195-0.316-0.195-0.512c0-0.424,0.26-0.652,0.781-0.684
			c0.391,0,0.602,0.227,0.635,0.684c0,0.195-0.058,0.365-0.171,0.512C24.301,73.192,24.146,73.266,23.951,73.266z M33.082,30.883
			c1.041-1.822,2.539-3.271,4.492-4.346c-1.953-1.041-3.451-2.506-4.492-4.395c-1.01,1.889-2.507,3.354-4.492,4.395
			C30.575,27.612,32.072,29.061,33.082,30.883z M33.082,49.34c1.041-1.889,2.539-3.354,4.492-4.395
			c-1.953-1.074-3.451-2.539-4.492-4.395c-1.01,1.855-2.507,3.32-4.492,4.395C30.575,45.987,32.072,47.452,33.082,49.34z
			 M33.082,67.7c1.041-1.855,2.539-3.32,4.492-4.395c-1.953-1.041-3.451-2.49-4.492-4.346c-1.01,1.855-2.507,3.305-4.492,4.346
			C30.575,64.379,32.072,65.844,33.082,67.7z M42.311,25.415c2.246,0,4.15-0.789,5.713-2.369c1.562-1.578,2.344-3.49,2.344-5.736
			s-0.781-4.143-2.344-5.689c-1.562-1.545-3.467-2.318-5.713-2.318s-4.15,0.773-5.713,2.318c-1.562,1.547-2.344,3.443-2.344,5.689
			s0.781,4.158,2.344,5.736C38.16,24.625,40.064,25.415,42.311,25.415z M42.311,43.774c2.246,0,4.15-0.781,5.713-2.344
			s2.344-3.467,2.344-5.713s-0.781-4.143-2.344-5.689c-1.562-1.545-3.467-2.318-5.713-2.318s-4.15,0.773-5.713,2.318
			c-1.562,1.547-2.344,3.443-2.344,5.689s0.781,4.15,2.344,5.713S40.064,43.774,42.311,43.774z M42.311,62.182
			c2.246,0,4.15-0.781,5.713-2.344s2.344-3.451,2.344-5.664c0-2.246-0.781-4.158-2.344-5.738c-1.562-1.578-3.467-2.367-5.713-2.367
			s-4.15,0.789-5.713,2.367c-1.562,1.58-2.344,3.492-2.344,5.738c0,2.213,0.781,4.102,2.344,5.664S40.064,62.182,42.311,62.182z
			 M42.311,80.59c2.246,0,4.15-0.781,5.713-2.344s2.344-3.467,2.344-5.713s-0.781-4.15-2.344-5.713s-3.467-2.344-5.713-2.344
			s-4.15,0.781-5.713,2.344s-2.344,3.467-2.344,5.713s0.781,4.15,2.344,5.713S40.064,80.59,42.311,80.59z M42.311,23.657
			c-1.726,0-3.207-0.619-4.443-1.855c-1.237-1.236-1.855-2.734-1.855-4.492c0-1.693,0.618-3.166,1.855-4.42
			c1.236-1.252,2.718-1.879,4.443-1.879c1.725,0,3.214,0.627,4.468,1.879c1.253,1.254,1.88,2.727,1.88,4.42
			c0,1.758-0.627,3.256-1.88,4.492C45.524,23.038,44.035,23.657,42.311,23.657z M42.311,42.065c-1.726,0-3.207-0.627-4.443-1.881
			c-1.237-1.252-1.855-2.742-1.855-4.467s0.618-3.215,1.855-4.469c1.236-1.252,2.718-1.879,4.443-1.879
			c1.725,0,3.214,0.627,4.468,1.879c1.253,1.254,1.88,2.744,1.88,4.469s-0.627,3.215-1.88,4.467
			C45.524,41.438,44.035,42.065,42.311,42.065z M42.311,60.424c-1.726,0-3.207-0.619-4.443-1.855
			c-1.237-1.236-1.855-2.701-1.855-4.395c0-1.758,0.618-3.256,1.855-4.492c1.236-1.236,2.718-1.855,4.443-1.855
			c1.725,0,3.214,0.619,4.468,1.855c1.253,1.236,1.88,2.734,1.88,4.492c0,1.693-0.627,3.158-1.88,4.395
			C45.524,59.805,44.035,60.424,42.311,60.424z M42.311,78.881c-1.726,0-3.207-0.627-4.443-1.881
			c-1.237-1.252-1.855-2.742-1.855-4.467c0-1.727,0.618-3.207,1.855-4.443c1.236-1.238,2.718-1.855,4.443-1.855
			c1.725,0,3.214,0.617,4.468,1.855c1.253,1.236,1.88,2.717,1.88,4.443c0,1.725-0.627,3.215-1.88,4.467
			C45.524,78.254,44.035,78.881,42.311,78.881z M42.311,21.655c1.172,0,2.181-0.424,3.027-1.27c0.846-0.846,1.27-1.871,1.27-3.076
			c0-1.172-0.424-2.182-1.27-3.027c-0.847-0.846-1.855-1.27-3.027-1.27s-2.182,0.424-3.027,1.27c-0.847,0.846-1.27,1.855-1.27,3.027
			c0,1.205,0.423,2.23,1.27,3.076C40.129,21.231,41.139,21.655,42.311,21.655z M42.311,40.063c1.172,0,2.181-0.432,3.027-1.295
			c0.846-0.861,1.27-1.879,1.27-3.051s-0.424-2.182-1.27-3.027c-0.847-0.846-1.855-1.27-3.027-1.27s-2.182,0.424-3.027,1.27
			c-0.847,0.846-1.27,1.855-1.27,3.027s0.423,2.189,1.27,3.051C40.129,39.631,41.139,40.063,42.311,40.063z M42.311,58.422
			c1.172,0,2.181-0.424,3.027-1.27c0.846-0.846,1.27-1.855,1.27-3.027s-0.424-2.182-1.27-3.027c-0.847-0.846-1.855-1.27-3.027-1.27
			s-2.182,0.424-3.027,1.27c-0.847,0.846-1.27,1.855-1.27,3.027s0.423,2.182,1.27,3.027C40.129,57.999,41.139,58.422,42.311,58.422z
			 M42.311,76.879c1.172,0,2.181-0.432,3.027-1.295c0.846-0.861,1.27-1.879,1.27-3.051s-0.424-2.182-1.27-3.027
			c-0.847-0.848-1.855-1.27-3.027-1.27s-2.182,0.422-3.027,1.27c-0.847,0.846-1.27,1.855-1.27,3.027s0.423,2.189,1.27,3.051
			C40.129,76.448,41.139,76.879,42.311,76.879z M42.311,19.409c0.553,0,1.033-0.203,1.44-0.611c0.406-0.406,0.61-0.902,0.61-1.488
			c0-0.521-0.204-0.984-0.61-1.393c-0.407-0.406-0.888-0.609-1.44-0.609c-0.554,0-1.042,0.203-1.465,0.609
			c-0.424,0.408-0.635,0.871-0.635,1.393c0,0.586,0.211,1.082,0.635,1.488C41.269,19.206,41.757,19.409,42.311,19.409z
			 M42.311,37.817c0.553,0,1.033-0.211,1.44-0.635c0.406-0.424,0.61-0.912,0.61-1.465c0-0.521-0.204-0.992-0.61-1.416
			c-0.407-0.424-0.888-0.635-1.44-0.635c-0.554,0-1.042,0.211-1.465,0.635c-0.424,0.424-0.635,0.895-0.635,1.416
			c0,0.553,0.211,1.041,0.635,1.465C41.269,37.606,41.757,37.817,42.311,37.817z M42.311,56.176c0.553,0,1.033-0.203,1.44-0.611
			c0.406-0.406,0.61-0.869,0.61-1.391c0-0.586-0.204-1.082-0.61-1.49c-0.407-0.406-0.888-0.609-1.44-0.609
			c-0.554,0-1.042,0.203-1.465,0.609c-0.424,0.408-0.635,0.904-0.635,1.49c0,0.521,0.211,0.984,0.635,1.391
			C41.269,55.973,41.757,56.176,42.311,56.176z M42.311,74.584c0.553,0,1.033-0.203,1.44-0.611c0.406-0.406,0.61-0.887,0.61-1.439
			c0-0.555-0.204-1.033-0.61-1.441c-0.407-0.406-0.888-0.609-1.44-0.609c-0.554,0-1.042,0.203-1.465,0.609
			c-0.424,0.408-0.635,0.887-0.635,1.441c0,0.553,0.211,1.033,0.635,1.439C41.269,74.381,41.757,74.584,42.311,74.584z
			 M42.311,17.993c-0.424,0-0.651-0.229-0.684-0.684c0-0.391,0.228-0.619,0.684-0.684c0.391,0,0.602,0.229,0.635,0.684
			C42.945,17.733,42.733,17.959,42.311,17.993z M42.311,36.401c-0.424,0-0.651-0.229-0.684-0.684c0-0.391,0.228-0.602,0.684-0.635
			c0.391,0,0.602,0.211,0.635,0.635C42.945,36.141,42.733,36.368,42.311,36.401z M42.311,54.858c-0.424,0-0.651-0.229-0.684-0.684
			c0-0.488,0.228-0.732,0.684-0.732c0.391,0,0.602,0.244,0.635,0.732C42.945,54.565,42.733,54.793,42.311,54.858z M42.311,73.266
			c-0.229,0-0.399-0.074-0.513-0.221c-0.114-0.146-0.171-0.316-0.171-0.512c0-0.424,0.228-0.652,0.684-0.684
			c0.391,0,0.602,0.227,0.635,0.684c0,0.195-0.058,0.365-0.171,0.512C42.66,73.192,42.506,73.266,42.311,73.266z"/>
	</g>
</g>
</svg>
