<?xml version="1.0" encoding="utf-8"?>
<!-- Generator: Adobe Illustrator 16.0.0, SVG Export Plug-In . SVG Version: 6.00 Build 0)  -->
<!DOCTYPE svg PUBLIC "-//W3C//DTD SVG 1.1//EN" "http://www.w3.org/Graphics/SVG/1.1/DTD/svg11.dtd">
<svg version="1.1" id="Layer_1" xmlns="http://www.w3.org/2000/svg" xmlns:xlink="http://www.w3.org/1999/xlink" x="0px" y="0px"
	 width="66.334px" height="88.5px" viewBox="0 0 66.334 88.5" enable-background="new 0 0 66.334 88.5" xml:space="preserve">
<g>
	<g>
		<path fill="#1F7529" d="M17.018,24.096c1.399,0,2.596-0.488,3.589-1.465c0.993-0.977,1.489-2.164,1.489-3.564
			c0-1.432-0.497-2.637-1.489-3.613c-0.993-0.977-2.189-1.465-3.589-1.465c-1.433,0-2.645,0.488-3.638,1.465
			c-0.993,0.977-1.489,2.182-1.489,3.613c0,1.4,0.496,2.588,1.489,3.564C14.373,23.608,15.585,24.096,17.018,24.096z M14.479,16.528
			c0.684-0.684,1.53-1.025,2.539-1.025c0.977,0,1.807,0.342,2.49,1.025s1.025,1.529,1.025,2.539c0,0.977-0.342,1.807-1.025,2.49
			s-1.514,1.025-2.49,1.025c-1.009,0-1.855-0.342-2.539-1.025s-1.025-1.514-1.025-2.49C13.453,18.057,13.795,17.211,14.479,16.528z"
			/>
		<path fill="#1F7529" d="M49.195,21.02c0.553,0,1.017-0.195,1.392-0.586c0.374-0.391,0.562-0.846,0.562-1.367
			c0-0.553-0.188-1.018-0.562-1.393c-0.375-0.373-0.838-0.561-1.392-0.561c-0.521,0-0.977,0.188-1.367,0.561
			c-0.391,0.375-0.586,0.84-0.586,1.393c0,0.521,0.195,0.977,0.586,1.367S48.674,21.02,49.195,21.02z M48.707,18.553
			c0.13-0.146,0.293-0.219,0.488-0.219s0.366,0.072,0.513,0.219s0.22,0.318,0.22,0.514s-0.073,0.35-0.22,0.463
			c-0.146,0.115-0.317,0.172-0.513,0.172c-0.391,0-0.619-0.211-0.684-0.635C48.512,18.872,48.577,18.7,48.707,18.553z"/>
		<path fill="#1F7529" d="M33.082,24.096c1.432,0,2.645-0.488,3.638-1.465c0.993-0.977,1.489-2.164,1.489-3.564
			c0-1.432-0.497-2.637-1.489-3.613c-0.993-0.977-2.206-1.465-3.638-1.465c-1.4,0-2.596,0.488-3.589,1.465
			c-0.993,0.977-1.489,2.182-1.489,3.613c0,1.4,0.496,2.588,1.489,3.564C30.486,23.608,31.682,24.096,33.082,24.096z M30.592,16.528
			c0.684-0.684,1.514-1.025,2.49-1.025c1.009,0,1.855,0.342,2.539,1.025s1.025,1.529,1.025,2.539c0,0.977-0.342,1.807-1.025,2.49
			s-1.53,1.025-2.539,1.025c-0.977,0-1.807-0.342-2.49-1.025s-1.025-1.514-1.025-2.49C29.566,18.057,29.908,17.211,30.592,16.528z"
			/>
		<path fill="#1F7529" d="M49.195,24.096c1.399,0,2.596-0.488,3.589-1.465c0.993-0.977,1.489-2.164,1.489-3.564
			c0-1.432-0.497-2.637-1.489-3.613c-0.993-0.977-2.189-1.465-3.589-1.465c-1.4,0-2.596,0.488-3.589,1.465
			c-0.993,0.977-1.489,2.182-1.489,3.613c0,1.4,0.496,2.588,1.489,3.564C46.599,23.608,47.795,24.096,49.195,24.096z M46.705,16.528
			c0.684-0.684,1.514-1.025,2.49-1.025s1.807,0.342,2.49,1.025s1.025,1.529,1.025,2.539c0,0.977-0.342,1.807-1.025,2.49
			s-1.514,1.025-2.49,1.025s-1.807-0.342-2.49-1.025s-1.025-1.514-1.025-2.49C45.68,18.057,46.021,17.211,46.705,16.528z"/>
		<path fill="#1F7529" d="M33.082,21.02c0.553,0,1.017-0.195,1.392-0.586c0.374-0.391,0.562-0.846,0.562-1.367
			c0-0.553-0.188-1.018-0.562-1.393c-0.375-0.373-0.838-0.561-1.392-0.561c-0.521,0-0.977,0.188-1.367,0.561
			c-0.391,0.375-0.586,0.84-0.586,1.393c0,0.521,0.195,0.977,0.586,1.367S32.561,21.02,33.082,21.02z M32.594,18.553
			c0.13-0.146,0.293-0.219,0.488-0.219c0.456,0,0.7,0.244,0.732,0.732c0,0.391-0.244,0.602-0.732,0.635
			c-0.391,0-0.619-0.211-0.684-0.635C32.398,18.872,32.463,18.7,32.594,18.553z"/>
		<path fill="#1F7529" d="M17.018,21.02c0.521,0,0.977-0.195,1.367-0.586s0.586-0.846,0.586-1.367c0-0.553-0.195-1.018-0.586-1.393
			c-0.391-0.373-0.847-0.561-1.367-0.561c-0.554,0-1.018,0.188-1.392,0.561c-0.375,0.375-0.562,0.84-0.562,1.393
			c0,0.521,0.187,0.977,0.562,1.367C16,20.825,16.464,21.02,17.018,21.02z M17.018,18.334c0.195,0,0.358,0.072,0.488,0.219
			c0.13,0.146,0.195,0.318,0.195,0.514c0,0.391-0.228,0.602-0.684,0.635c-0.423,0-0.667-0.211-0.732-0.635
			C16.285,18.643,16.529,18.399,17.018,18.334z"/>
		<path fill="#C6204F" d="M17.018,42.993c-0.554,0-1.018,0.188-1.392,0.561c-0.375,0.375-0.562,0.84-0.562,1.393
			c0,0.521,0.187,0.977,0.562,1.367c0.374,0.391,0.838,0.586,1.392,0.586c0.521,0,0.977-0.195,1.367-0.586s0.586-0.846,0.586-1.367
			c0-0.553-0.195-1.018-0.586-1.393C17.994,43.18,17.538,42.993,17.018,42.993z M17.018,45.629c-0.423,0-0.667-0.229-0.732-0.684
			c0-0.455,0.244-0.699,0.732-0.732c0.391,0,0.618,0.244,0.684,0.732C17.701,45.336,17.473,45.565,17.018,45.629z"/>
		<path fill="#1F7529" d="M17.018,28.247c1.725,0,3.288-0.432,4.688-1.295c1.399-0.861,2.522-1.992,3.369-3.393
			c0.813,1.4,1.92,2.531,3.32,3.393c1.399,0.863,2.962,1.295,4.688,1.295c1.725,0,3.296-0.432,4.712-1.295
			c1.416-0.861,2.547-1.992,3.394-3.393c0.781,1.4,1.88,2.531,3.296,3.393c1.416,0.863,2.986,1.295,4.712,1.295
			c2.539,0,4.712-0.904,6.519-2.711s2.71-3.963,2.71-6.469c0-2.539-0.903-4.713-2.71-6.52s-3.979-2.709-6.519-2.709
			c-1.726,0-3.296,0.439-4.712,1.318s-2.515,2.018-3.296,3.418c-0.847-1.4-1.978-2.539-3.394-3.418s-2.987-1.318-4.712-1.318
			c-1.726,0-3.288,0.439-4.688,1.318c-1.4,0.879-2.507,2.018-3.32,3.418c-0.847-1.4-1.97-2.539-3.369-3.418
			c-1.4-0.879-2.962-1.318-4.688-1.318c-2.539,0-4.704,0.902-6.494,2.709c-1.791,1.807-2.686,3.98-2.686,6.52
			c0,2.506,0.895,4.662,2.686,6.469C12.313,27.342,14.479,28.247,17.018,28.247z M44.312,14.159c1.334-1.35,2.962-2.025,4.883-2.025
			c1.92,0,3.556,0.676,4.907,2.025c1.351,1.352,2.026,2.988,2.026,4.908c0,1.889-0.676,3.508-2.026,4.857
			c-1.351,1.352-2.987,2.027-4.907,2.027c-1.921,0-3.548-0.676-4.883-2.027c-1.335-1.35-2.002-2.969-2.002-4.857
			C42.311,17.147,42.978,15.51,44.312,14.159z M28.224,14.159c1.351-1.35,2.97-2.025,4.858-2.025c1.92,0,3.548,0.676,4.883,2.025
			c1.334,1.352,2.002,2.988,2.002,4.908c0,1.889-0.667,3.508-2.002,4.857c-1.335,1.352-2.962,2.027-4.883,2.027
			c-1.888,0-3.508-0.676-4.858-2.027c-1.351-1.35-2.026-2.969-2.026-4.857C26.197,17.147,26.873,15.51,28.224,14.159z
			 M12.135,14.159c1.334-1.35,2.962-2.025,4.883-2.025c1.888,0,3.516,0.676,4.883,2.025c1.367,1.352,2.051,2.988,2.051,4.908
			c0,1.889-0.684,3.508-2.051,4.857c-1.367,1.352-2.995,2.027-4.883,2.027c-1.921,0-3.548-0.676-4.883-2.027
			c-1.335-1.35-2.002-2.969-2.002-4.857C10.133,17.147,10.8,15.51,12.135,14.159z"/>
		<path fill="#C6204F" d="M17.018,39.819c-1.433,0-2.645,0.496-3.638,1.488c-0.993,0.994-1.489,2.207-1.489,3.639
			c0,1.4,0.496,2.596,1.489,3.588c0.993,0.994,2.205,1.49,3.638,1.49c1.399,0,2.596-0.496,3.589-1.49
			c0.993-0.992,1.489-2.188,1.489-3.588c0-1.432-0.497-2.645-1.489-3.639C19.613,40.315,18.417,39.819,17.018,39.819z
			 M19.508,47.436c-0.684,0.684-1.514,1.025-2.49,1.025c-1.009,0-1.855-0.342-2.539-1.025s-1.025-1.514-1.025-2.49
			c0-1.01,0.342-1.855,1.025-2.539s1.53-1.025,2.539-1.025c0.977,0,1.807,0.342,2.49,1.025s1.025,1.529,1.025,2.539
			C20.533,45.922,20.191,46.752,19.508,47.436z"/>
		<path fill="#C6204F" d="M33.082,42.993c-0.521,0-0.977,0.188-1.367,0.561c-0.391,0.375-0.586,0.84-0.586,1.393
			c0,0.521,0.195,0.977,0.586,1.367s0.846,0.586,1.367,0.586c0.553,0,1.017-0.195,1.392-0.586c0.374-0.391,0.562-0.846,0.562-1.367
			c0-0.553-0.188-1.018-0.562-1.393C34.099,43.18,33.635,42.993,33.082,42.993z M33.082,45.629c-0.391,0-0.619-0.229-0.684-0.684
			c0-0.455,0.228-0.699,0.684-0.732c0.456,0,0.7,0.244,0.732,0.732C33.814,45.336,33.57,45.565,33.082,45.629z"/>
		<path fill="#C6204F" d="M49.195,42.993c-0.521,0-0.977,0.188-1.367,0.561c-0.391,0.375-0.586,0.84-0.586,1.393
			c0,0.521,0.195,0.977,0.586,1.367s0.846,0.586,1.367,0.586c0.553,0,1.017-0.195,1.392-0.586c0.374-0.391,0.562-0.846,0.562-1.367
			c0-0.553-0.188-1.018-0.562-1.393C50.212,43.18,49.749,42.993,49.195,42.993z M49.708,45.434
			c-0.146,0.131-0.317,0.195-0.513,0.195c-0.391,0-0.619-0.229-0.684-0.684c0-0.455,0.228-0.699,0.684-0.732
			c0.423,0,0.667,0.244,0.732,0.732C49.928,45.141,49.854,45.303,49.708,45.434z"/>
		<path fill="#C6204F" d="M49.195,35.717c-1.726,0-3.296,0.439-4.712,1.318s-2.515,2.018-3.296,3.418
			c-0.847-1.4-1.978-2.539-3.394-3.418s-2.987-1.318-4.712-1.318c-1.726,0-3.288,0.439-4.688,1.318
			c-1.4,0.879-2.507,2.018-3.32,3.418c-0.847-1.4-1.97-2.539-3.369-3.418c-1.4-0.879-2.962-1.318-4.688-1.318
			c-2.539,0-4.704,0.902-6.494,2.709c-1.791,1.807-2.686,3.98-2.686,6.52s0.895,4.711,2.686,6.518
			c1.79,1.807,3.955,2.711,6.494,2.711c1.725,0,3.288-0.439,4.688-1.318c1.399-0.879,2.522-2.018,3.369-3.418
			c0.813,1.4,1.92,2.539,3.32,3.418c1.399,0.879,2.962,1.318,4.688,1.318c1.725,0,3.296-0.439,4.712-1.318s2.547-2.018,3.394-3.418
			c0.781,1.4,1.88,2.539,3.296,3.418s2.986,1.318,4.712,1.318c2.539,0,4.712-0.904,6.519-2.711s2.71-3.979,2.71-6.518
			s-0.903-4.713-2.71-6.52S51.734,35.717,49.195,35.717z M21.9,49.803c-1.367,1.352-2.995,2.027-4.883,2.027
			c-1.921,0-3.548-0.676-4.883-2.027c-1.335-1.35-2.002-2.969-2.002-4.857c0-1.92,0.667-3.549,2.002-4.883
			c1.334-1.334,2.962-2.002,4.883-2.002c1.888,0,3.516,0.668,4.883,2.002s2.051,2.963,2.051,4.883
			C23.951,46.834,23.268,48.454,21.9,49.803z M37.965,49.803c-1.335,1.352-2.962,2.027-4.883,2.027
			c-1.888,0-3.508-0.676-4.858-2.027c-1.351-1.35-2.026-2.969-2.026-4.857c0-1.92,0.675-3.549,2.026-4.883
			c1.351-1.334,2.97-2.002,4.858-2.002c1.92,0,3.548,0.668,4.883,2.002c1.334,1.334,2.002,2.963,2.002,4.883
			C39.967,46.834,39.299,48.454,37.965,49.803z M54.103,49.803c-1.351,1.352-2.987,2.027-4.907,2.027
			c-1.921,0-3.548-0.676-4.883-2.027c-1.335-1.35-2.002-2.969-2.002-4.857c0-1.92,0.667-3.549,2.002-4.883
			c1.334-1.334,2.962-2.002,4.883-2.002c1.92,0,3.556,0.668,4.907,2.002c1.351,1.334,2.026,2.963,2.026,4.883
			C56.129,46.834,55.453,48.454,54.103,49.803z"/>
		<path fill="#C6204F" d="M49.195,39.819c-1.4,0-2.596,0.496-3.589,1.488c-0.993,0.994-1.489,2.207-1.489,3.639
			c0,1.4,0.496,2.596,1.489,3.588c0.993,0.994,2.189,1.49,3.589,1.49c1.399,0,2.596-0.496,3.589-1.49
			c0.993-0.992,1.489-2.188,1.489-3.588c0-1.432-0.497-2.645-1.489-3.639C51.791,40.315,50.595,39.819,49.195,39.819z
			 M51.686,47.436c-0.684,0.684-1.514,1.025-2.49,1.025s-1.807-0.342-2.49-1.025s-1.025-1.514-1.025-2.49
			c0-1.01,0.342-1.855,1.025-2.539s1.514-1.025,2.49-1.025s1.807,0.342,2.49,1.025s1.025,1.529,1.025,2.539
			C52.711,45.922,52.369,46.752,51.686,47.436z"/>
		<path fill="#C6204F" d="M33.082,39.819c-1.4,0-2.596,0.496-3.589,1.488c-0.993,0.994-1.489,2.207-1.489,3.639
			c0,1.4,0.496,2.596,1.489,3.588c0.993,0.994,2.189,1.49,3.589,1.49c1.432,0,2.645-0.496,3.638-1.49
			c0.993-0.992,1.489-2.188,1.489-3.588c0-1.432-0.497-2.645-1.489-3.639C35.727,40.315,34.514,39.819,33.082,39.819z
			 M35.621,47.436c-0.684,0.684-1.53,1.025-2.539,1.025c-0.977,0-1.807-0.342-2.49-1.025s-1.025-1.514-1.025-2.49
			c0-1.01,0.342-1.855,1.025-2.539s1.514-1.025,2.49-1.025c1.009,0,1.855,0.342,2.539,1.025s1.025,1.529,1.025,2.539
			C36.646,45.922,36.305,46.752,35.621,47.436z"/>
		<path fill="#283E99" d="M17.018,65.698c-1.433,0-2.645,0.496-3.638,1.488c-0.993,0.994-1.489,2.205-1.489,3.639
			c0,1.432,0.496,2.637,1.489,3.613c0.993,0.977,2.205,1.465,3.638,1.465c1.399,0,2.596-0.488,3.589-1.465
			c0.993-0.977,1.489-2.182,1.489-3.613c0-1.434-0.497-2.645-1.489-3.639C19.613,66.194,18.417,65.698,17.018,65.698z
			 M19.508,73.315c-0.684,0.684-1.514,1.025-2.49,1.025c-1.009,0-1.855-0.342-2.539-1.025s-1.025-1.514-1.025-2.49
			c0-1.01,0.342-1.855,1.025-2.539s1.53-1.025,2.539-1.025c0.977,0,1.807,0.342,2.49,1.025s1.025,1.529,1.025,2.539
			C20.533,71.801,20.191,72.631,19.508,73.315z"/>
		<path fill="#283E99" d="M17.018,68.872c-0.554,0-1.018,0.188-1.392,0.561c-0.375,0.375-0.562,0.838-0.562,1.393
			c0,0.52,0.187,0.977,0.562,1.367c0.374,0.391,0.838,0.586,1.392,0.586c0.521,0,0.977-0.195,1.367-0.586s0.586-0.848,0.586-1.367
			c0-0.555-0.195-1.018-0.586-1.393C17.994,69.059,17.538,68.872,17.018,68.872z M17.018,71.508c-0.423,0-0.667-0.229-0.732-0.684
			c0-0.424,0.244-0.652,0.732-0.684c0.391,0,0.618,0.227,0.684,0.684C17.701,71.215,17.473,71.442,17.018,71.508z"/>
		<path fill="#283E99" d="M49.195,61.645c-1.726,0-3.296,0.432-4.712,1.293c-1.416,0.863-2.515,1.994-3.296,3.395
			c-0.847-1.4-1.978-2.531-3.394-3.395c-1.416-0.861-2.987-1.293-4.712-1.293c-1.726,0-3.288,0.432-4.688,1.293
			c-1.4,0.863-2.507,1.994-3.32,3.395c-0.847-1.4-1.97-2.531-3.369-3.395c-1.4-0.861-2.962-1.293-4.688-1.293
			c-2.539,0-4.704,0.895-6.494,2.686c-1.791,1.789-2.686,3.955-2.686,6.494s0.895,4.703,2.686,6.494
			c1.79,1.789,3.955,2.686,6.494,2.686c1.725,0,3.288-0.432,4.688-1.295c1.399-0.861,2.522-2.01,3.369-3.441
			c0.813,1.432,1.92,2.58,3.32,3.441c1.399,0.863,2.962,1.295,4.688,1.295c1.725,0,3.296-0.432,4.712-1.295
			c1.416-0.861,2.547-2.01,3.394-3.441c1.92,3.156,4.59,4.736,8.008,4.736c2.539,0,4.712-0.896,6.519-2.686
			c1.807-1.791,2.71-3.955,2.71-6.494s-0.903-4.705-2.71-6.494C53.907,62.54,51.734,61.645,49.195,61.645z M21.9,75.659
			c-1.367,1.334-2.995,2.002-4.883,2.002c-1.921,0-3.548-0.668-4.883-2.002c-1.335-1.336-2.002-2.947-2.002-4.834
			c0-1.922,0.667-3.549,2.002-4.883c1.334-1.336,2.962-2.002,4.883-2.002c1.888,0,3.516,0.666,4.883,2.002
			c1.367,1.334,2.051,2.961,2.051,4.883C23.951,72.711,23.268,74.323,21.9,75.659z M37.965,75.659
			c-1.335,1.334-2.962,2.002-4.883,2.002c-1.888,0-3.508-0.668-4.858-2.002c-1.351-1.336-2.026-2.947-2.026-4.834
			c0-1.922,0.675-3.549,2.026-4.883c1.351-1.336,2.97-2.002,4.858-2.002c1.92,0,3.548,0.666,4.883,2.002
			c1.334,1.334,2.002,2.961,2.002,4.883C39.967,72.711,39.299,74.323,37.965,75.659z M54.103,75.659
			c-1.351,1.334-2.987,2.002-4.907,2.002c-1.921,0-3.548-0.668-4.883-2.002c-1.335-1.336-2.002-2.947-2.002-4.834
			c0-1.922,0.667-3.549,2.002-4.883c1.334-1.336,2.962-2.002,4.883-2.002c1.92,0,3.556,0.666,4.907,2.002
			c1.351,1.334,2.026,2.961,2.026,4.883C56.129,72.711,55.453,74.323,54.103,75.659z"/>
		<path fill="#283E99" d="M33.082,68.872c-0.521,0-0.977,0.188-1.367,0.561c-0.391,0.375-0.586,0.838-0.586,1.393
			c0,0.52,0.195,0.977,0.586,1.367s0.846,0.586,1.367,0.586c0.553,0,1.017-0.195,1.392-0.586c0.374-0.391,0.562-0.848,0.562-1.367
			c0-0.555-0.188-1.018-0.562-1.393C34.099,69.059,33.635,68.872,33.082,68.872z M33.082,71.508c-0.391,0-0.619-0.229-0.684-0.684
			c0-0.424,0.228-0.652,0.684-0.684c0.456,0,0.7,0.227,0.732,0.684C33.814,71.215,33.57,71.442,33.082,71.508z"/>
		<path fill="#283E99" d="M49.195,65.698c-1.4,0-2.596,0.496-3.589,1.488c-0.993,0.994-1.489,2.205-1.489,3.639
			c0,1.432,0.496,2.637,1.489,3.613c0.993,0.977,2.189,1.465,3.589,1.465c1.399,0,2.596-0.488,3.589-1.465
			c0.993-0.977,1.489-2.182,1.489-3.613c0-1.434-0.497-2.645-1.489-3.639C51.791,66.194,50.595,65.698,49.195,65.698z
			 M51.686,73.315c-0.684,0.684-1.514,1.025-2.49,1.025s-1.807-0.342-2.49-1.025s-1.025-1.514-1.025-2.49
			c0-1.01,0.342-1.855,1.025-2.539s1.514-1.025,2.49-1.025s1.807,0.342,2.49,1.025s1.025,1.529,1.025,2.539
			C52.711,71.801,52.369,72.631,51.686,73.315z"/>
		<path fill="#283E99" d="M33.082,65.698c-1.4,0-2.596,0.496-3.589,1.488c-0.993,0.994-1.489,2.205-1.489,3.639
			c0,1.432,0.496,2.637,1.489,3.613c0.993,0.977,2.189,1.465,3.589,1.465c1.432,0,2.645-0.488,3.638-1.465
			c0.993-0.977,1.489-2.182,1.489-3.613c0-1.434-0.497-2.645-1.489-3.639C35.727,66.194,34.514,65.698,33.082,65.698z
			 M35.621,73.315c-0.684,0.684-1.53,1.025-2.539,1.025c-0.977,0-1.807-0.342-2.49-1.025s-1.025-1.514-1.025-2.49
			c0-1.01,0.342-1.855,1.025-2.539s1.514-1.025,2.49-1.025c1.009,0,1.855,0.342,2.539,1.025s1.025,1.529,1.025,2.539
			C36.646,71.801,36.305,72.631,35.621,73.315z"/>
		<path fill="#283E99" d="M49.195,68.872c-0.521,0-0.977,0.188-1.367,0.561c-0.391,0.375-0.586,0.838-0.586,1.393
			c0,0.52,0.195,0.977,0.586,1.367s0.846,0.586,1.367,0.586c0.553,0,1.017-0.195,1.392-0.586c0.374-0.391,0.562-0.848,0.562-1.367
			c0-0.555-0.188-1.018-0.562-1.393C50.212,69.059,49.749,68.872,49.195,68.872z M49.708,71.313
			c-0.146,0.129-0.317,0.195-0.513,0.195c-0.391,0-0.619-0.229-0.684-0.684c0-0.424,0.228-0.652,0.684-0.684
			c0.423,0,0.667,0.227,0.732,0.684C49.928,71.02,49.854,71.182,49.708,71.313z"/>
	</g>
</g>
</svg>
