<?xml version="1.0" encoding="utf-8"?>
<!-- Generator: Adobe Illustrator 16.0.0, SVG Export Plug-In . SVG Version: 6.00 Build 0)  -->
<!DOCTYPE svg PUBLIC "-//W3C//DTD SVG 1.1//EN" "http://www.w3.org/Graphics/SVG/1.1/DTD/svg11.dtd">
<svg version="1.1" id="Layer_1" xmlns="http://www.w3.org/2000/svg" xmlns:xlink="http://www.w3.org/1999/xlink" x="0px" y="0px"
	 width="66.334px" height="88.5px" viewBox="0 0 66.334 88.5" enable-background="new 0 0 66.334 88.5" xml:space="preserve">
<g>
	<path fill="#1F7529" d="M21.322,6.381c0-0.751-0.76-1.349-2.279-1.795C17.524,4.14,15.8,3.915,13.871,3.915
		S10.216,4.14,8.698,4.586C7.178,5.032,6.419,5.63,6.419,6.381c0,0.823,0.894,1.466,2.68,1.93v12.65
		c-1.786,0.536-2.68,1.179-2.68,1.93c0,0.823,0.894,1.467,2.68,1.93v12.597c-1.786,0.536-2.68,1.198-2.68,1.983
		c0,0.823,0.769,1.43,2.305,1.823c1.537,0.395,3.252,0.59,5.146,0.59c1.894,0,3.608-0.195,5.146-0.59
		c1.536-0.393,2.306-1,2.306-1.823c0-0.785-0.895-1.447-2.682-1.983V24.82c1.787-0.463,2.682-1.106,2.682-1.93
		c0-0.75-0.895-1.394-2.682-1.93V8.311C20.427,7.847,21.322,7.204,21.322,6.381z M16.658,39.642c-0.751,0.16-1.68,0.24-2.787,0.24
		s-2.037-0.08-2.787-0.24c-0.752-0.161-1.127-0.276-1.127-0.35c0-0.071,0.34-0.195,1.02-0.375c0.285-0.071,0.714-0.141,1.285-0.214
		V25.302c0.395,0.036,0.93,0.053,1.609,0.053c0.679,0,1.214-0.017,1.607-0.053v13.401c0.572,0.073,1,0.143,1.287,0.214
		c0.678,0.181,1.018,0.305,1.018,0.375C17.783,39.366,17.408,39.481,16.658,39.642z M16.658,23.239
		c-0.751,0.162-1.68,0.241-2.787,0.241s-2.037-0.079-2.787-0.241c-0.752-0.161-1.127-0.276-1.127-0.349
		c0-0.071,0.375-0.195,1.127-0.375c0.75-0.178,1.68-0.268,2.787-0.268s2.036,0.09,2.787,0.268c0.75,0.181,1.125,0.304,1.125,0.375
		C17.783,22.963,17.408,23.079,16.658,23.239z M16.765,6.81c-0.287,0.073-0.715,0.143-1.287,0.214v13.401
		c-0.394-0.034-0.929-0.053-1.607-0.053c-0.68,0-1.215,0.019-1.609,0.053V7.023c-0.571-0.071-1-0.141-1.285-0.214
		c-0.68-0.178-1.02-0.303-1.02-0.375c0-0.07,0.375-0.195,1.127-0.375c0.75-0.178,1.68-0.268,2.787-0.268s2.036,0.089,2.787,0.268
		c0.75,0.18,1.125,0.305,1.125,0.375C17.783,6.507,17.443,6.631,16.765,6.81z"/>
	<path fill="#1F7529" d="M21.322,49.155c0-0.75-0.76-1.348-2.279-1.794c-1.519-0.446-3.242-0.671-5.172-0.671
		s-3.654,0.225-5.173,0.671c-1.52,0.446-2.278,1.044-2.278,1.794c0,0.823,0.894,1.467,2.68,1.929v12.651
		c-1.786,0.536-2.68,1.179-2.68,1.929c0,0.824,0.894,1.466,2.68,1.93v12.596c-1.786,0.536-2.68,1.199-2.68,1.984
		c0,0.823,0.769,1.43,2.305,1.822c1.537,0.395,3.252,0.589,5.146,0.589c1.894,0,3.608-0.195,5.146-0.589
		c1.536-0.392,2.306-0.999,2.306-1.822c0-0.785-0.895-1.448-2.682-1.984V67.595c1.787-0.464,2.682-1.106,2.682-1.93
		c0-0.75-0.895-1.394-2.682-1.929V51.084C20.427,50.622,21.322,49.979,21.322,49.155z M16.658,82.417
		c-0.751,0.161-1.68,0.24-2.787,0.24s-2.037-0.079-2.787-0.24c-0.752-0.162-1.127-0.277-1.127-0.35c0-0.07,0.34-0.195,1.02-0.375
		c0.285-0.071,0.714-0.142,1.285-0.214V68.077c0.395,0.037,0.93,0.054,1.609,0.054c0.679,0,1.214-0.017,1.607-0.054v13.401
		c0.572,0.072,1,0.143,1.287,0.214c0.678,0.18,1.018,0.304,1.018,0.375C17.783,82.14,17.408,82.255,16.658,82.417z M16.658,66.015
		c-0.751,0.161-1.68,0.239-2.787,0.239s-2.037-0.079-2.787-0.239c-0.752-0.161-1.127-0.277-1.127-0.35
		c0-0.071,0.375-0.196,1.127-0.375c0.75-0.178,1.68-0.268,2.787-0.268s2.036,0.09,2.787,0.268c0.75,0.18,1.125,0.304,1.125,0.375
		C17.783,65.737,17.408,65.854,16.658,66.015z M16.765,49.584c-0.287,0.072-0.715,0.143-1.287,0.214V63.2
		c-0.394-0.034-0.929-0.054-1.607-0.054c-0.68,0-1.215,0.02-1.609,0.054V49.799c-0.571-0.071-1-0.142-1.285-0.214
		c-0.68-0.179-1.02-0.303-1.02-0.375c0-0.071,0.375-0.195,1.127-0.375c0.75-0.177,1.68-0.268,2.787-0.268s2.036,0.09,2.787,0.268
		c0.75,0.181,1.125,0.305,1.125,0.375C17.783,49.282,17.443,49.406,16.765,49.584z"/>
	<path fill="#C6204F" d="M40.618,27.768c0-0.75-0.76-1.349-2.278-1.795c-1.52-0.446-3.242-0.671-5.172-0.671
		s-3.654,0.225-5.173,0.671c-1.519,0.446-2.278,1.044-2.278,1.795c0,0.824,0.894,1.466,2.68,1.929v12.651
		c-1.786,0.536-2.68,1.179-2.68,1.929c0,0.824,0.894,1.467,2.68,1.93v12.596c-1.786,0.535-2.68,1.198-2.68,1.983
		c0,0.823,0.768,1.431,2.305,1.823c1.537,0.394,3.252,0.59,5.146,0.59c1.893,0,3.609-0.196,5.145-0.59
		c1.537-0.392,2.306-1,2.306-1.823c0-0.785-0.894-1.448-2.681-1.983V46.208c1.787-0.463,2.681-1.106,2.681-1.93
		c0-0.75-0.894-1.394-2.681-1.929V29.697C39.724,29.234,40.618,28.592,40.618,27.768z M35.955,61.03
		c-0.75,0.16-1.68,0.24-2.787,0.24c-1.109,0-2.037-0.08-2.787-0.24c-0.75-0.161-1.126-0.277-1.126-0.35
		c0-0.071,0.339-0.195,1.019-0.375c0.285-0.071,0.715-0.142,1.286-0.214V46.689c0.393,0.037,0.929,0.054,1.608,0.054
		c0.678,0,1.214-0.017,1.607-0.054V60.09c0.571,0.073,1,0.144,1.286,0.214c0.68,0.18,1.019,0.305,1.019,0.375
		C37.08,60.752,36.705,60.869,35.955,61.03z M35.955,44.627c-0.75,0.161-1.68,0.241-2.787,0.241c-1.109,0-2.037-0.08-2.787-0.241
		c-0.75-0.161-1.126-0.277-1.126-0.35c0-0.071,0.376-0.195,1.126-0.375c0.75-0.177,1.678-0.268,2.787-0.268
		c1.107,0,2.037,0.09,2.787,0.268c0.75,0.181,1.125,0.305,1.125,0.375C37.08,44.35,36.705,44.466,35.955,44.627z M36.061,28.197
		c-0.286,0.073-0.715,0.144-1.286,0.214v13.401c-0.394-0.034-0.93-0.054-1.607-0.054c-0.68,0-1.216,0.02-1.608,0.054V28.411
		c-0.571-0.071-1.001-0.141-1.286-0.214c-0.68-0.178-1.019-0.302-1.019-0.375c0-0.071,0.376-0.195,1.126-0.375
		c0.75-0.178,1.678-0.268,2.787-0.268c1.107,0,2.037,0.09,2.787,0.268c0.75,0.18,1.125,0.304,1.125,0.375
		C37.08,27.895,36.741,28.019,36.061,28.197z"/>
	<path fill="#1F7529" d="M59.915,22.89c0-0.75-0.894-1.394-2.681-1.93V8.311c1.787-0.463,2.681-1.107,2.681-1.93
		c0-0.751-0.759-1.349-2.278-1.795c-1.519-0.446-3.243-0.671-5.172-0.671c-1.93,0-3.654,0.225-5.174,0.671
		c-1.518,0.446-2.277,1.044-2.277,1.795c0,0.823,0.893,1.466,2.68,1.93v12.65c-1.787,0.536-2.68,1.179-2.68,1.93
		c0,0.823,0.893,1.467,2.68,1.93v12.597c-1.787,0.536-2.68,1.198-2.68,1.983c0,0.823,0.768,1.43,2.305,1.823
		c1.537,0.395,3.252,0.59,5.146,0.59c1.893,0,3.608-0.195,5.146-0.59c1.536-0.393,2.305-1,2.305-1.823
		c0-0.785-0.894-1.447-2.681-1.983V24.82C59.021,24.357,59.915,23.713,59.915,22.89z M55.251,39.642
		c-0.75,0.16-1.68,0.24-2.787,0.24c-1.108,0-2.037-0.08-2.787-0.24c-0.751-0.161-1.127-0.276-1.127-0.35
		c0-0.071,0.34-0.195,1.02-0.375c0.285-0.071,0.714-0.141,1.286-0.214V25.302c0.394,0.036,0.929,0.053,1.608,0.053
		c0.678,0,1.214-0.017,1.607-0.053v13.401c0.572,0.073,1,0.143,1.287,0.214c0.678,0.181,1.018,0.305,1.018,0.375
		C56.376,39.366,56.001,39.481,55.251,39.642z M55.251,23.239c-0.75,0.162-1.68,0.241-2.787,0.241c-1.108,0-2.037-0.079-2.787-0.241
		c-0.751-0.161-1.127-0.276-1.127-0.349c0-0.071,0.376-0.195,1.127-0.375c0.75-0.178,1.679-0.268,2.787-0.268
		c1.107,0,2.037,0.09,2.787,0.268c0.75,0.181,1.125,0.304,1.125,0.375C56.376,22.963,56.001,23.079,55.251,23.239z M55.359,6.81
		c-0.287,0.073-0.715,0.143-1.287,0.214v13.401c-0.394-0.034-0.93-0.053-1.607-0.053c-0.68,0-1.215,0.019-1.608,0.053V7.023
		c-0.572-0.071-1.001-0.141-1.286-0.214c-0.68-0.178-1.02-0.303-1.02-0.375c0-0.07,0.376-0.195,1.127-0.375
		c0.75-0.178,1.679-0.268,2.787-0.268c1.107,0,2.037,0.089,2.787,0.268c0.75,0.18,1.125,0.305,1.125,0.375
		C56.376,6.507,56.037,6.631,55.359,6.81z"/>
	<path fill="#1F7529" d="M59.915,49.155c0-0.75-0.759-1.348-2.278-1.794c-1.519-0.446-3.243-0.671-5.172-0.671
		c-1.93,0-3.654,0.225-5.174,0.671c-1.518,0.446-2.277,1.044-2.277,1.794c0,0.823,0.893,1.467,2.68,1.929v12.651
		c-1.787,0.536-2.68,1.179-2.68,1.929c0,0.824,0.893,1.466,2.68,1.93v12.596c-1.787,0.536-2.68,1.199-2.68,1.984
		c0,0.823,0.768,1.43,2.305,1.822c1.537,0.395,3.252,0.589,5.146,0.589c1.893,0,3.608-0.195,5.146-0.589
		c1.536-0.392,2.305-0.999,2.305-1.822c0-0.785-0.894-1.448-2.681-1.984V67.595c1.787-0.464,2.681-1.106,2.681-1.93
		c0-0.75-0.894-1.394-2.681-1.929V51.084C59.021,50.622,59.915,49.979,59.915,49.155z M55.251,82.417
		c-0.75,0.161-1.68,0.24-2.787,0.24c-1.108,0-2.037-0.079-2.787-0.24c-0.751-0.162-1.127-0.277-1.127-0.35
		c0-0.07,0.34-0.195,1.02-0.375c0.285-0.071,0.714-0.142,1.286-0.214V68.077c0.394,0.037,0.929,0.054,1.608,0.054
		c0.678,0,1.214-0.017,1.607-0.054v13.401c0.572,0.072,1,0.143,1.287,0.214c0.678,0.18,1.018,0.304,1.018,0.375
		C56.376,82.14,56.001,82.255,55.251,82.417z M55.251,66.015c-0.75,0.161-1.68,0.239-2.787,0.239c-1.108,0-2.037-0.079-2.787-0.239
		c-0.751-0.161-1.127-0.277-1.127-0.35c0-0.071,0.376-0.196,1.127-0.375c0.75-0.178,1.679-0.268,2.787-0.268
		c1.107,0,2.037,0.09,2.787,0.268c0.75,0.18,1.125,0.304,1.125,0.375C56.376,65.737,56.001,65.854,55.251,66.015z M55.359,49.584
		c-0.287,0.072-0.715,0.143-1.287,0.214V63.2c-0.394-0.034-0.93-0.054-1.607-0.054c-0.68,0-1.215,0.02-1.608,0.054V49.799
		c-0.572-0.071-1.001-0.142-1.286-0.214c-0.68-0.179-1.02-0.303-1.02-0.375c0-0.071,0.376-0.195,1.127-0.375
		c0.75-0.177,1.679-0.268,2.787-0.268c1.107,0,2.037,0.09,2.787,0.268c0.75,0.181,1.125,0.305,1.125,0.375
		C56.376,49.282,56.037,49.406,55.359,49.584z"/>
</g>
</svg>
