<?xml version="1.0" encoding="utf-8"?>
<!-- Generator: Adobe Illustrator 16.0.0, SVG Export Plug-In . SVG Version: 6.00 Build 0)  -->
<!DOCTYPE svg PUBLIC "-//W3C//DTD SVG 1.1//EN" "http://www.w3.org/Graphics/SVG/1.1/DTD/svg11.dtd">
<svg version="1.1" id="Layer_1" xmlns="http://www.w3.org/2000/svg" xmlns:xlink="http://www.w3.org/1999/xlink" x="0px" y="0px"
	 width="66.334px" height="88.5px" viewBox="0 0 66.334 88.5" enable-background="new 0 0 66.334 88.5" xml:space="preserve">
<g>
	<path fill="#1F7529" d="M13.87,3.915c1.93,0,3.654,0.225,5.174,0.671c1.519,0.446,2.277,1.044,2.277,1.795
		c0,0.823-0.893,1.466-2.68,1.93v12.65c1.787,0.536,2.68,1.179,2.68,1.93c0,0.823-0.893,1.467-2.68,1.93v12.597
		c1.787,0.536,2.68,1.198,2.68,1.983c0,0.823-0.769,1.43-2.305,1.823c-1.537,0.395-3.252,0.59-5.146,0.59s-3.609-0.195-5.146-0.59
		c-1.536-0.393-2.306-1-2.306-1.823c0-0.785,0.895-1.447,2.682-1.983V24.82c-1.787-0.463-2.682-1.106-2.682-1.93
		c0-0.75,0.895-1.394,2.682-1.93V8.311c-1.787-0.463-2.682-1.107-2.682-1.93c0-0.751,0.76-1.349,2.279-1.795
		C10.217,4.14,11.94,3.915,13.87,3.915z M13.87,46.689c1.93,0,3.654,0.225,5.174,0.671c1.519,0.446,2.277,1.044,2.277,1.794
		c0,0.823-0.893,1.467-2.68,1.929v12.651c1.787,0.536,2.68,1.179,2.68,1.929c0,0.824-0.893,1.466-2.68,1.93v12.596
		c1.787,0.536,2.68,1.199,2.68,1.984c0,0.823-0.769,1.43-2.305,1.822c-1.537,0.395-3.252,0.589-5.146,0.589
		s-3.609-0.195-5.146-0.589c-1.536-0.392-2.306-0.999-2.306-1.822c0-0.785,0.895-1.448,2.682-1.984V67.595
		c-1.787-0.464-2.682-1.106-2.682-1.93c0-0.75,0.895-1.394,2.682-1.929V51.084c-1.787-0.462-2.682-1.106-2.682-1.929
		c0-0.75,0.76-1.348,2.279-1.794C10.217,46.915,11.94,46.689,13.87,46.689z M13.87,20.371c0.68,0,1.216,0.019,1.609,0.053V7.023
		c0.57-0.071,1-0.141,1.285-0.214c0.68-0.178,1.019-0.303,1.019-0.375c0-0.07-0.374-0.195-1.126-0.375
		c-0.75-0.178-1.68-0.268-2.787-0.268s-2.036,0.089-2.787,0.268c-0.75,0.18-1.125,0.305-1.125,0.375
		c0,0.073,0.339,0.197,1.019,0.375c0.286,0.073,0.714,0.143,1.286,0.214v13.401C12.655,20.39,13.192,20.371,13.87,20.371z
		 M13.87,23.48c1.107,0,2.037-0.079,2.787-0.241c0.752-0.161,1.126-0.276,1.126-0.349c0-0.071-0.374-0.195-1.126-0.375
		c-0.75-0.178-1.68-0.268-2.787-0.268s-2.036,0.09-2.787,0.268c-0.75,0.181-1.125,0.304-1.125,0.375
		c0,0.073,0.375,0.188,1.125,0.349C11.834,23.401,12.763,23.48,13.87,23.48z M13.87,39.882c1.107,0,2.037-0.08,2.787-0.24
		c0.752-0.161,1.126-0.276,1.126-0.35c0-0.071-0.339-0.195-1.019-0.375c-0.285-0.071-0.715-0.141-1.285-0.214V25.302
		c-0.394,0.036-0.93,0.053-1.609,0.053c-0.678,0-1.215-0.017-1.607-0.053v13.401c-0.572,0.073-1,0.143-1.286,0.214
		c-0.68,0.181-1.019,0.305-1.019,0.375c0,0.073,0.375,0.189,1.125,0.35C11.834,39.802,12.763,39.882,13.87,39.882z M13.87,63.146
		c0.68,0,1.216,0.02,1.609,0.054V49.799c0.57-0.071,1-0.142,1.285-0.214c0.68-0.179,1.019-0.303,1.019-0.375
		c0-0.071-0.374-0.195-1.126-0.375c-0.75-0.177-1.68-0.268-2.787-0.268s-2.036,0.09-2.787,0.268
		c-0.75,0.181-1.125,0.305-1.125,0.375c0,0.073,0.339,0.197,1.019,0.375c0.286,0.072,0.714,0.143,1.286,0.214V63.2
		C12.655,63.166,13.192,63.146,13.87,63.146z M13.87,66.254c1.107,0,2.037-0.079,2.787-0.239c0.752-0.161,1.126-0.277,1.126-0.35
		c0-0.071-0.374-0.196-1.126-0.375c-0.75-0.178-1.68-0.268-2.787-0.268s-2.036,0.09-2.787,0.268c-0.75,0.18-1.125,0.304-1.125,0.375
		c0,0.072,0.375,0.188,1.125,0.35C11.834,66.175,12.763,66.254,13.87,66.254z M13.87,82.657c1.107,0,2.037-0.079,2.787-0.24
		c0.752-0.162,1.126-0.277,1.126-0.35c0-0.07-0.339-0.195-1.019-0.375c-0.285-0.071-0.715-0.142-1.285-0.214V68.077
		c-0.394,0.037-0.93,0.054-1.609,0.054c-0.678,0-1.215-0.017-1.607-0.054v13.401c-0.572,0.072-1,0.143-1.286,0.214
		c-0.68,0.18-1.019,0.304-1.019,0.375c0,0.073,0.375,0.188,1.125,0.35C11.834,82.578,12.763,82.657,13.87,82.657z M33.168,3.915
		c1.93,0,3.653,0.225,5.173,0.671c1.518,0.446,2.277,1.044,2.277,1.795c0,0.823-0.894,1.466-2.68,1.93v12.65
		c1.786,0.536,2.68,1.179,2.68,1.93c0,0.823-0.894,1.467-2.68,1.93v12.597c1.786,0.536,2.68,1.198,2.68,1.983
		c0,0.823-0.769,1.43-2.305,1.823c-1.536,0.395-3.252,0.59-5.146,0.59c-1.895,0-3.61-0.195-5.146-0.59
		c-1.536-0.393-2.304-1-2.304-1.823c0-0.785,0.893-1.447,2.68-1.983V24.82c-1.787-0.463-2.68-1.106-2.68-1.93
		c0-0.75,0.893-1.394,2.68-1.93V8.311c-1.787-0.463-2.68-1.107-2.68-1.93c0-0.751,0.758-1.349,2.277-1.795
		C29.513,4.14,31.238,3.915,33.168,3.915z M33.168,46.689c1.93,0,3.653,0.225,5.173,0.671c1.518,0.446,2.277,1.044,2.277,1.794
		c0,0.823-0.894,1.467-2.68,1.929v12.651c1.786,0.536,2.68,1.179,2.68,1.929c0,0.824-0.894,1.466-2.68,1.93v12.596
		c1.786,0.536,2.68,1.199,2.68,1.984c0,0.823-0.769,1.43-2.305,1.822c-1.536,0.395-3.252,0.589-5.146,0.589
		c-1.895,0-3.61-0.195-5.146-0.589c-1.536-0.392-2.304-0.999-2.304-1.822c0-0.785,0.893-1.448,2.68-1.984V67.595
		c-1.787-0.464-2.68-1.106-2.68-1.93c0-0.75,0.893-1.394,2.68-1.929V51.084c-1.787-0.462-2.68-1.106-2.68-1.929
		c0-0.75,0.758-1.348,2.277-1.794C29.513,46.915,31.238,46.689,33.168,46.689z M33.168,20.371c0.679,0,1.214,0.019,1.608,0.053
		V7.023c0.57-0.071,0.999-0.141,1.285-0.214c0.68-0.178,1.02-0.303,1.02-0.375c0-0.07-0.375-0.195-1.126-0.375
		c-0.751-0.178-1.68-0.268-2.787-0.268c-1.108,0-2.038,0.089-2.788,0.268c-0.75,0.18-1.125,0.305-1.125,0.375
		c0,0.073,0.34,0.197,1.018,0.375c0.286,0.073,0.715,0.143,1.287,0.214v13.401C31.952,20.39,32.488,20.371,33.168,20.371z
		 M33.168,23.48c1.107,0,2.036-0.079,2.787-0.241c0.751-0.161,1.126-0.276,1.126-0.349c0-0.071-0.375-0.195-1.126-0.375
		c-0.751-0.178-1.68-0.268-2.787-0.268c-1.108,0-2.038,0.09-2.788,0.268c-0.75,0.181-1.125,0.304-1.125,0.375
		c0,0.073,0.375,0.188,1.125,0.349C31.13,23.401,32.06,23.48,33.168,23.48z M33.168,39.882c1.107,0,2.036-0.08,2.787-0.24
		c0.751-0.161,1.126-0.276,1.126-0.35c0-0.071-0.34-0.195-1.02-0.375c-0.286-0.071-0.715-0.141-1.285-0.214V25.302
		c-0.395,0.036-0.93,0.053-1.608,0.053c-0.68,0-1.216-0.017-1.608-0.053v13.401c-0.572,0.073-1.001,0.143-1.287,0.214
		c-0.678,0.181-1.018,0.305-1.018,0.375c0,0.073,0.375,0.189,1.125,0.35C31.13,39.802,32.06,39.882,33.168,39.882z M33.168,63.146
		c0.679,0,1.214,0.02,1.608,0.054V49.799c0.57-0.071,0.999-0.142,1.285-0.214c0.68-0.179,1.02-0.303,1.02-0.375
		c0-0.071-0.375-0.195-1.126-0.375c-0.751-0.177-1.68-0.268-2.787-0.268c-1.108,0-2.038,0.09-2.788,0.268
		c-0.75,0.181-1.125,0.305-1.125,0.375c0,0.073,0.34,0.197,1.018,0.375c0.286,0.072,0.715,0.143,1.287,0.214V63.2
		C31.952,63.166,32.488,63.146,33.168,63.146z M33.168,66.254c1.107,0,2.036-0.079,2.787-0.239c0.751-0.161,1.126-0.277,1.126-0.35
		c0-0.071-0.375-0.196-1.126-0.375c-0.751-0.178-1.68-0.268-2.787-0.268c-1.108,0-2.038,0.09-2.788,0.268
		c-0.75,0.18-1.125,0.304-1.125,0.375c0,0.072,0.375,0.188,1.125,0.35C31.13,66.175,32.06,66.254,33.168,66.254z M33.168,82.657
		c1.107,0,2.036-0.079,2.787-0.24c0.751-0.162,1.126-0.277,1.126-0.35c0-0.07-0.34-0.195-1.02-0.375
		c-0.286-0.071-0.715-0.142-1.285-0.214V68.077c-0.395,0.037-0.93,0.054-1.608,0.054c-0.68,0-1.216-0.017-1.608-0.054v13.401
		c-0.572,0.072-1.001,0.143-1.287,0.214c-0.678,0.18-1.018,0.304-1.018,0.375c0,0.073,0.375,0.188,1.125,0.35
		C31.13,82.578,32.06,82.657,33.168,82.657z M52.464,3.915c1.93,0,3.654,0.225,5.174,0.671c1.518,0.446,2.277,1.044,2.277,1.795
		c0,0.823-0.893,1.466-2.68,1.93v12.65c1.787,0.536,2.68,1.179,2.68,1.93c0,0.823-0.893,1.467-2.68,1.93v12.597
		c1.787,0.536,2.68,1.198,2.68,1.983c0,0.823-0.768,1.43-2.305,1.823c-1.537,0.395-3.252,0.59-5.146,0.59s-3.609-0.195-5.146-0.59
		c-1.536-0.393-2.305-1-2.305-1.823c0-0.785,0.894-1.447,2.681-1.983V24.82c-1.787-0.463-2.681-1.106-2.681-1.93
		c0-0.75,0.894-1.394,2.681-1.93V8.311c-1.787-0.463-2.681-1.107-2.681-1.93c0-0.751,0.759-1.349,2.278-1.795
		C48.811,4.14,50.534,3.915,52.464,3.915z M52.464,46.689c1.93,0,3.654,0.225,5.174,0.671c1.518,0.446,2.277,1.044,2.277,1.794
		c0,0.823-0.893,1.467-2.68,1.929v12.651c1.787,0.536,2.68,1.179,2.68,1.929c0,0.824-0.893,1.466-2.68,1.93v12.596
		c1.787,0.536,2.68,1.199,2.68,1.984c0,0.823-0.768,1.43-2.305,1.822c-1.537,0.395-3.252,0.589-5.146,0.589
		s-3.609-0.195-5.146-0.589c-1.536-0.392-2.305-0.999-2.305-1.822c0-0.785,0.894-1.448,2.681-1.984V67.595
		c-1.787-0.464-2.681-1.106-2.681-1.93c0-0.75,0.894-1.394,2.681-1.929V51.084c-1.787-0.462-2.681-1.106-2.681-1.929
		c0-0.75,0.759-1.348,2.278-1.794C48.811,46.915,50.534,46.689,52.464,46.689z M52.464,20.371c0.68,0,1.216,0.019,1.608,0.053V7.023
		c0.571-0.071,1.001-0.141,1.287-0.214c0.679-0.178,1.019-0.303,1.019-0.375c0-0.07-0.376-0.195-1.126-0.375
		c-0.751-0.178-1.681-0.268-2.788-0.268s-2.037,0.089-2.787,0.268c-0.75,0.18-1.125,0.305-1.125,0.375
		c0,0.073,0.34,0.197,1.019,0.375c0.286,0.073,0.714,0.143,1.286,0.214v13.401C51.25,20.39,51.786,20.371,52.464,20.371z
		 M52.464,23.48c1.107,0,2.037-0.079,2.788-0.241c0.75-0.161,1.126-0.276,1.126-0.349c0-0.071-0.376-0.195-1.126-0.375
		c-0.751-0.178-1.681-0.268-2.788-0.268s-2.037,0.09-2.787,0.268c-0.75,0.181-1.125,0.304-1.125,0.375
		c0,0.073,0.375,0.188,1.125,0.349C50.427,23.401,51.356,23.48,52.464,23.48z M52.464,39.882c1.107,0,2.037-0.08,2.788-0.24
		c0.75-0.161,1.126-0.276,1.126-0.35c0-0.071-0.34-0.195-1.019-0.375c-0.286-0.071-0.716-0.141-1.287-0.214V25.302
		c-0.393,0.036-0.929,0.053-1.608,0.053c-0.678,0-1.214-0.017-1.607-0.053v13.401c-0.572,0.073-1,0.143-1.286,0.214
		c-0.679,0.181-1.019,0.305-1.019,0.375c0,0.073,0.375,0.189,1.125,0.35C50.427,39.802,51.356,39.882,52.464,39.882z M52.464,63.146
		c0.68,0,1.216,0.02,1.608,0.054V49.799c0.571-0.071,1.001-0.142,1.287-0.214c0.679-0.179,1.019-0.303,1.019-0.375
		c0-0.071-0.376-0.195-1.126-0.375c-0.751-0.177-1.681-0.268-2.788-0.268s-2.037,0.09-2.787,0.268
		c-0.75,0.181-1.125,0.305-1.125,0.375c0,0.073,0.34,0.197,1.019,0.375c0.286,0.072,0.714,0.143,1.286,0.214V63.2
		C51.25,63.166,51.786,63.146,52.464,63.146z M52.464,66.254c1.107,0,2.037-0.079,2.788-0.239c0.75-0.161,1.126-0.277,1.126-0.35
		c0-0.071-0.376-0.196-1.126-0.375c-0.751-0.178-1.681-0.268-2.788-0.268s-2.037,0.09-2.787,0.268
		c-0.75,0.18-1.125,0.304-1.125,0.375c0,0.072,0.375,0.188,1.125,0.35C50.427,66.175,51.356,66.254,52.464,66.254z M52.464,82.657
		c1.107,0,2.037-0.079,2.788-0.24c0.75-0.162,1.126-0.277,1.126-0.35c0-0.07-0.34-0.195-1.019-0.375
		c-0.286-0.071-0.716-0.142-1.287-0.214V68.077c-0.393,0.037-0.929,0.054-1.608,0.054c-0.678,0-1.214-0.017-1.607-0.054v13.401
		c-0.572,0.072-1,0.143-1.286,0.214c-0.679,0.18-1.019,0.304-1.019,0.375c0,0.073,0.375,0.188,1.125,0.35
		C50.427,82.578,51.356,82.657,52.464,82.657z"/>
</g>
</svg>
