<?xml version="1.0" encoding="utf-8"?>
<!-- Generator: Adobe Illustrator 16.0.0, SVG Export Plug-In . SVG Version: 6.00 Build 0)  -->
<!DOCTYPE svg PUBLIC "-//W3C//DTD SVG 1.1//EN" "http://www.w3.org/Graphics/SVG/1.1/DTD/svg11.dtd">
<svg version="1.1" id="Layer_1" xmlns="http://www.w3.org/2000/svg" xmlns:xlink="http://www.w3.org/1999/xlink" x="0px" y="0px"
	 width="66.334px" height="88.5px" viewBox="0 0 66.334 88.5" enable-background="new 0 0 66.334 88.5" xml:space="preserve">
<g>
	<g>
		<path fill="#1F7529" d="M15.504,7.413c1.758,0,3.328,0.205,4.712,0.611c1.383,0.406,2.075,0.951,2.075,1.635
			c0,0.75-0.814,1.336-2.441,1.758V22.94c1.627,0.488,2.441,1.074,2.441,1.758c0,0.75-0.814,1.336-2.441,1.758v11.475
			c1.627,0.488,2.441,1.092,2.441,1.807c0,0.75-0.7,1.303-2.1,1.66c-1.4,0.359-2.962,0.537-4.688,0.537
			c-1.726,0-3.288-0.178-4.688-0.537c-1.4-0.357-2.1-0.91-2.1-1.66c0-0.715,0.813-1.318,2.441-1.807V26.456
			c-1.628-0.422-2.441-1.008-2.441-1.758c0-0.684,0.813-1.27,2.441-1.758V11.417c-1.628-0.422-2.441-1.008-2.441-1.758
			c0-0.684,0.691-1.229,2.075-1.635C12.175,7.618,13.746,7.413,15.504,7.413z M15.504,46.378c1.758,0,3.328,0.205,4.712,0.611
			c1.383,0.406,2.075,0.951,2.075,1.635c0,0.75-0.814,1.336-2.441,1.758v11.523c1.627,0.488,2.441,1.074,2.441,1.758
			c0,0.75-0.814,1.336-2.441,1.758v11.475c1.627,0.488,2.441,1.092,2.441,1.807c0,0.75-0.7,1.303-2.1,1.66
			c-1.4,0.359-2.962,0.537-4.688,0.537c-1.726,0-3.288-0.178-4.688-0.537c-1.4-0.357-2.1-0.91-2.1-1.66
			c0-0.715,0.813-1.318,2.441-1.807V65.421c-1.628-0.422-2.441-1.008-2.441-1.758c0-0.684,0.813-1.27,2.441-1.758V50.382
			c-1.628-0.422-2.441-1.008-2.441-1.758c0-0.684,0.691-1.229,2.075-1.635C12.175,46.583,13.746,46.378,15.504,46.378z
			 M15.504,22.403c0.618,0,1.106,0.018,1.465,0.049V10.245c0.521-0.064,0.911-0.129,1.172-0.195
			c0.618-0.162,0.928-0.275,0.928-0.342c0-0.064-0.342-0.178-1.025-0.342c-0.684-0.162-1.53-0.244-2.539-0.244
			c-1.009,0-1.855,0.082-2.539,0.244c-0.684,0.164-1.025,0.277-1.025,0.342c0,0.066,0.309,0.18,0.928,0.342
			c0.26,0.066,0.651,0.131,1.172,0.195v12.207C14.397,22.421,14.885,22.403,15.504,22.403z M15.504,25.235
			c1.009,0,1.855-0.072,2.539-0.219s1.025-0.252,1.025-0.318c0-0.064-0.342-0.178-1.025-0.342c-0.684-0.162-1.53-0.244-2.539-0.244
			c-1.009,0-1.855,0.082-2.539,0.244c-0.684,0.164-1.025,0.277-1.025,0.342c0,0.066,0.342,0.172,1.025,0.318
			S14.495,25.235,15.504,25.235z M15.504,40.177c1.009,0,1.855-0.072,2.539-0.219s1.025-0.252,1.025-0.318
			c0-0.064-0.31-0.178-0.928-0.342c-0.261-0.064-0.651-0.129-1.172-0.195V26.896c-0.358,0.033-0.847,0.049-1.465,0.049
			c-0.619,0-1.107-0.016-1.465-0.049v12.207c-0.521,0.066-0.912,0.131-1.172,0.195c-0.619,0.164-0.928,0.277-0.928,0.342
			c0,0.066,0.342,0.172,1.025,0.318S14.495,40.177,15.504,40.177z M15.504,61.368c0.618,0,1.106,0.018,1.465,0.049V49.21
			c0.521-0.064,0.911-0.129,1.172-0.195c0.618-0.162,0.928-0.275,0.928-0.342c0-0.064-0.342-0.178-1.025-0.342
			c-0.684-0.162-1.53-0.244-2.539-0.244c-1.009,0-1.855,0.082-2.539,0.244c-0.684,0.164-1.025,0.277-1.025,0.342
			c0,0.066,0.309,0.18,0.928,0.342c0.26,0.066,0.651,0.131,1.172,0.195v12.207C14.397,61.386,14.885,61.368,15.504,61.368z
			 M15.504,64.2c1.009,0,1.855-0.072,2.539-0.219s1.025-0.252,1.025-0.318c0-0.064-0.342-0.178-1.025-0.342
			c-0.684-0.162-1.53-0.244-2.539-0.244c-1.009,0-1.855,0.082-2.539,0.244c-0.684,0.164-1.025,0.277-1.025,0.342
			c0,0.066,0.342,0.172,1.025,0.318S14.495,64.2,15.504,64.2z M15.504,79.142c1.009,0,1.855-0.072,2.539-0.219
			s1.025-0.252,1.025-0.318c0-0.064-0.31-0.178-0.928-0.342c-0.261-0.064-0.651-0.129-1.172-0.195V65.86
			c-0.358,0.033-0.847,0.049-1.465,0.049c-0.619,0-1.107-0.016-1.465-0.049v12.207c-0.521,0.066-0.912,0.131-1.172,0.195
			c-0.619,0.164-0.928,0.277-0.928,0.342c0,0.066,0.342,0.172,1.025,0.318S14.495,79.142,15.504,79.142z M33.082,7.413
			c1.758,0,3.328,0.205,4.712,0.611c1.383,0.406,2.075,0.951,2.075,1.635c0,0.75-0.814,1.336-2.441,1.758V22.94
			c1.627,0.488,2.441,1.074,2.441,1.758c0,0.75-0.814,1.336-2.441,1.758v11.475c1.627,0.488,2.441,1.092,2.441,1.807
			c0,0.75-0.7,1.303-2.1,1.66c-1.4,0.359-2.962,0.537-4.688,0.537c-1.726,0-3.288-0.178-4.688-0.537c-1.4-0.357-2.1-0.91-2.1-1.66
			c0-0.715,0.813-1.318,2.441-1.807V26.456c-1.628-0.422-2.441-1.008-2.441-1.758c0-0.684,0.813-1.27,2.441-1.758V11.417
			c-1.628-0.422-2.441-1.008-2.441-1.758c0-0.684,0.691-1.229,2.075-1.635C29.753,7.618,31.324,7.413,33.082,7.413z M33.082,46.378
			c1.758,0,3.328,0.205,4.712,0.611c1.383,0.406,2.075,0.951,2.075,1.635c0,0.75-0.814,1.336-2.441,1.758v11.523
			c1.627,0.488,2.441,1.074,2.441,1.758c0,0.75-0.814,1.336-2.441,1.758v11.475c1.627,0.488,2.441,1.092,2.441,1.807
			c0,0.75-0.7,1.303-2.1,1.66c-1.4,0.359-2.962,0.537-4.688,0.537c-1.726,0-3.288-0.178-4.688-0.537c-1.4-0.357-2.1-0.91-2.1-1.66
			c0-0.715,0.813-1.318,2.441-1.807V65.421c-1.628-0.422-2.441-1.008-2.441-1.758c0-0.684,0.813-1.27,2.441-1.758V50.382
			c-1.628-0.422-2.441-1.008-2.441-1.758c0-0.684,0.691-1.229,2.075-1.635C29.753,46.583,31.324,46.378,33.082,46.378z
			 M33.082,22.403c0.618,0,1.106,0.018,1.465,0.049V10.245c0.521-0.064,0.911-0.129,1.172-0.195
			c0.618-0.162,0.928-0.275,0.928-0.342c0-0.064-0.342-0.178-1.025-0.342c-0.684-0.162-1.53-0.244-2.539-0.244
			c-1.009,0-1.855,0.082-2.539,0.244c-0.684,0.164-1.025,0.277-1.025,0.342c0,0.066,0.309,0.18,0.928,0.342
			c0.26,0.066,0.651,0.131,1.172,0.195v12.207C31.975,22.421,32.463,22.403,33.082,22.403z M33.082,25.235
			c1.009,0,1.855-0.072,2.539-0.219s1.025-0.252,1.025-0.318c0-0.064-0.342-0.178-1.025-0.342c-0.684-0.162-1.53-0.244-2.539-0.244
			c-1.009,0-1.855,0.082-2.539,0.244c-0.684,0.164-1.025,0.277-1.025,0.342c0,0.066,0.342,0.172,1.025,0.318
			S32.073,25.235,33.082,25.235z M33.082,40.177c1.009,0,1.855-0.072,2.539-0.219s1.025-0.252,1.025-0.318
			c0-0.064-0.31-0.178-0.928-0.342c-0.261-0.064-0.651-0.129-1.172-0.195V26.896c-0.358,0.033-0.847,0.049-1.465,0.049
			c-0.619,0-1.107-0.016-1.465-0.049v12.207c-0.521,0.066-0.912,0.131-1.172,0.195c-0.619,0.164-0.928,0.277-0.928,0.342
			c0,0.066,0.342,0.172,1.025,0.318S32.073,40.177,33.082,40.177z M33.082,61.368c0.618,0,1.106,0.018,1.465,0.049V49.21
			c0.521-0.064,0.911-0.129,1.172-0.195c0.618-0.162,0.928-0.275,0.928-0.342c0-0.064-0.342-0.178-1.025-0.342
			c-0.684-0.162-1.53-0.244-2.539-0.244c-1.009,0-1.855,0.082-2.539,0.244c-0.684,0.164-1.025,0.277-1.025,0.342
			c0,0.066,0.309,0.18,0.928,0.342c0.26,0.066,0.651,0.131,1.172,0.195v12.207C31.975,61.386,32.463,61.368,33.082,61.368z
			 M33.082,64.2c1.009,0,1.855-0.072,2.539-0.219s1.025-0.252,1.025-0.318c0-0.064-0.342-0.178-1.025-0.342
			c-0.684-0.162-1.53-0.244-2.539-0.244c-1.009,0-1.855,0.082-2.539,0.244c-0.684,0.164-1.025,0.277-1.025,0.342
			c0,0.066,0.342,0.172,1.025,0.318S32.073,64.2,33.082,64.2z M33.082,79.142c1.009,0,1.855-0.072,2.539-0.219
			s1.025-0.252,1.025-0.318c0-0.064-0.31-0.178-0.928-0.342c-0.261-0.064-0.651-0.129-1.172-0.195V65.86
			c-0.358,0.033-0.847,0.049-1.465,0.049c-0.619,0-1.107-0.016-1.465-0.049v12.207c-0.521,0.066-0.912,0.131-1.172,0.195
			c-0.619,0.164-0.928,0.277-0.928,0.342c0,0.066,0.342,0.172,1.025,0.318S32.073,79.142,33.082,79.142z M50.66,7.413
			c1.758,0,3.328,0.205,4.712,0.611c1.383,0.406,2.075,0.951,2.075,1.635c0,0.75-0.814,1.336-2.441,1.758V22.94
			c1.627,0.488,2.441,1.074,2.441,1.758c0,0.75-0.814,1.336-2.441,1.758v11.475c1.627,0.488,2.441,1.092,2.441,1.807
			c0,0.75-0.7,1.303-2.1,1.66c-1.4,0.359-2.962,0.537-4.688,0.537c-1.726,0-3.288-0.178-4.688-0.537c-1.4-0.357-2.1-0.91-2.1-1.66
			c0-0.715,0.813-1.318,2.441-1.807V26.456c-1.628-0.422-2.441-1.008-2.441-1.758c0-0.684,0.813-1.27,2.441-1.758V11.417
			c-1.628-0.422-2.441-1.008-2.441-1.758c0-0.684,0.691-1.229,2.075-1.635C47.332,7.618,48.902,7.413,50.66,7.413z M50.66,46.378
			c1.758,0,3.328,0.205,4.712,0.611c1.383,0.406,2.075,0.951,2.075,1.635c0,0.75-0.814,1.336-2.441,1.758v11.523
			c1.627,0.488,2.441,1.074,2.441,1.758c0,0.75-0.814,1.336-2.441,1.758v11.475c1.627,0.488,2.441,1.092,2.441,1.807
			c0,0.75-0.7,1.303-2.1,1.66c-1.4,0.359-2.962,0.537-4.688,0.537c-1.726,0-3.288-0.178-4.688-0.537c-1.4-0.357-2.1-0.91-2.1-1.66
			c0-0.715,0.813-1.318,2.441-1.807V65.421c-1.628-0.422-2.441-1.008-2.441-1.758c0-0.684,0.813-1.27,2.441-1.758V50.382
			c-1.628-0.422-2.441-1.008-2.441-1.758c0-0.684,0.691-1.229,2.075-1.635C47.332,46.583,48.902,46.378,50.66,46.378z M50.66,22.403
			c0.618,0,1.106,0.018,1.465,0.049V10.245c0.521-0.064,0.911-0.129,1.172-0.195c0.618-0.162,0.928-0.275,0.928-0.342
			c0-0.064-0.342-0.178-1.025-0.342c-0.684-0.162-1.53-0.244-2.539-0.244c-1.009,0-1.855,0.082-2.539,0.244
			c-0.684,0.164-1.025,0.277-1.025,0.342c0,0.066,0.309,0.18,0.928,0.342c0.26,0.066,0.651,0.131,1.172,0.195v12.207
			C49.553,22.421,50.042,22.403,50.66,22.403z M50.66,25.235c1.009,0,1.855-0.072,2.539-0.219s1.025-0.252,1.025-0.318
			c0-0.064-0.342-0.178-1.025-0.342c-0.684-0.162-1.53-0.244-2.539-0.244c-1.009,0-1.855,0.082-2.539,0.244
			c-0.684,0.164-1.025,0.277-1.025,0.342c0,0.066,0.342,0.172,1.025,0.318S49.651,25.235,50.66,25.235z M50.66,40.177
			c1.009,0,1.855-0.072,2.539-0.219s1.025-0.252,1.025-0.318c0-0.064-0.31-0.178-0.928-0.342c-0.261-0.064-0.651-0.129-1.172-0.195
			V26.896c-0.358,0.033-0.847,0.049-1.465,0.049c-0.619,0-1.107-0.016-1.465-0.049v12.207c-0.521,0.066-0.912,0.131-1.172,0.195
			c-0.619,0.164-0.928,0.277-0.928,0.342c0,0.066,0.342,0.172,1.025,0.318S49.651,40.177,50.66,40.177z M50.66,61.368
			c0.618,0,1.106,0.018,1.465,0.049V49.21c0.521-0.064,0.911-0.129,1.172-0.195c0.618-0.162,0.928-0.275,0.928-0.342
			c0-0.064-0.342-0.178-1.025-0.342c-0.684-0.162-1.53-0.244-2.539-0.244c-1.009,0-1.855,0.082-2.539,0.244
			c-0.684,0.164-1.025,0.277-1.025,0.342c0,0.066,0.309,0.18,0.928,0.342c0.26,0.066,0.651,0.131,1.172,0.195v12.207
			C49.553,61.386,50.042,61.368,50.66,61.368z M50.66,64.2c1.009,0,1.855-0.072,2.539-0.219s1.025-0.252,1.025-0.318
			c0-0.064-0.342-0.178-1.025-0.342c-0.684-0.162-1.53-0.244-2.539-0.244c-1.009,0-1.855,0.082-2.539,0.244
			c-0.684,0.164-1.025,0.277-1.025,0.342c0,0.066,0.342,0.172,1.025,0.318S49.651,64.2,50.66,64.2z M50.66,79.142
			c1.009,0,1.855-0.072,2.539-0.219s1.025-0.252,1.025-0.318c0-0.064-0.31-0.178-0.928-0.342c-0.261-0.064-0.651-0.129-1.172-0.195
			V65.86c-0.358,0.033-0.847,0.049-1.465,0.049c-0.619,0-1.107-0.016-1.465-0.049v12.207c-0.521,0.066-0.912,0.131-1.172,0.195
			c-0.619,0.164-0.928,0.277-0.928,0.342c0,0.066,0.342,0.172,1.025,0.318S49.651,79.142,50.66,79.142z"/>
	</g>
</g>
</svg>
