<?xml version="1.0" encoding="utf-8"?>
<!-- Generator: Adobe Illustrator 16.0.0, SVG Export Plug-In . SVG Version: 6.00 Build 0)  -->
<!DOCTYPE svg PUBLIC "-//W3C//DTD SVG 1.1//EN" "http://www.w3.org/Graphics/SVG/1.1/DTD/svg11.dtd">
<svg version="1.1" id="Layer_1" xmlns="http://www.w3.org/2000/svg" xmlns:xlink="http://www.w3.org/1999/xlink" x="0px" y="0px"
	 width="66.334px" height="88.5px" viewBox="0 0 66.334 88.5" enable-background="new 0 0 66.334 88.5" xml:space="preserve">
<g>
	<path fill="#1F7529" d="M21.321,63.092c0-0.75-0.76-1.349-2.279-1.794c-1.518-0.448-3.24-0.671-5.172-0.671
		c-1.928,0-3.654,0.223-5.174,0.671c-1.518,0.445-2.277,1.044-2.277,1.794c0,0.824,0.893,1.467,2.682,1.93v5.682
		c-1.789,0.537-2.682,1.18-2.682,1.93c0,0.824,0.893,1.467,2.682,1.93v5.629c-1.789,0.535-2.682,1.199-2.682,1.983
		c0,0.823,0.768,1.43,2.307,1.821c1.535,0.396,3.25,0.59,5.145,0.59s3.609-0.194,5.146-0.59c1.535-0.392,2.305-0.998,2.305-1.821
		c0-0.784-0.893-1.448-2.68-1.983v-5.629c1.787-0.463,2.68-1.105,2.68-1.93c0-0.75-0.893-1.393-2.68-1.93v-5.682
		C20.429,64.559,21.321,63.916,21.321,63.092z M16.657,82.416c-0.75,0.161-1.68,0.24-2.787,0.24s-2.035-0.079-2.787-0.24
		c-0.75-0.16-1.125-0.275-1.125-0.349c0-0.07,0.34-0.195,1.018-0.375c0.287-0.071,0.715-0.142,1.287-0.214v-6.434
		c0.393,0.037,0.928,0.055,1.607,0.055c0.678,0,1.213-0.018,1.609-0.055v6.434c0.57,0.072,0.998,0.143,1.287,0.214
		c0.678,0.18,1.018,0.305,1.018,0.375C17.784,82.141,17.409,82.256,16.657,82.416z M16.657,72.982c-0.75,0.161-1.68,0.24-2.787,0.24
		s-2.035-0.079-2.787-0.24c-0.75-0.16-1.125-0.276-1.125-0.35c0-0.07,0.375-0.195,1.125-0.375c0.752-0.178,1.68-0.268,2.787-0.268
		s2.037,0.09,2.787,0.268c0.752,0.18,1.127,0.305,1.127,0.375C17.784,72.706,17.409,72.822,16.657,72.982z M16.767,63.521
		c-0.289,0.073-0.717,0.144-1.287,0.215v6.433c-0.396-0.034-0.932-0.055-1.609-0.055c-0.68,0-1.215,0.021-1.607,0.055v-6.433
		c-0.572-0.071-1-0.142-1.287-0.215c-0.678-0.177-1.018-0.302-1.018-0.374s0.375-0.196,1.125-0.375c0.752-0.18,1.68-0.27,2.787-0.27
		s2.037,0.09,2.787,0.27c0.752,0.179,1.127,0.303,1.127,0.375S17.444,63.344,16.767,63.521z"/>
	<path fill="#1F7529" d="M59.915,44.277c0-0.75-0.895-1.393-2.68-1.93v-5.682c1.785-0.463,2.68-1.106,2.68-1.93
		c0-0.75-0.76-1.349-2.279-1.795c-1.518-0.447-3.242-0.671-5.172-0.671s-3.654,0.224-5.174,0.671
		c-1.518,0.446-2.277,1.045-2.277,1.795c0,0.823,0.893,1.467,2.682,1.93v5.682c-1.789,0.537-2.682,1.18-2.682,1.93
		c0,0.824,0.893,1.467,2.682,1.93v5.629c-1.789,0.536-2.682,1.198-2.682,1.982c0,0.824,0.77,1.43,2.307,1.823
		c1.533,0.395,3.25,0.59,5.145,0.59s3.609-0.195,5.146-0.59c1.533-0.394,2.305-0.999,2.305-1.823c0-0.784-0.895-1.446-2.68-1.982
		v-5.629C59.021,45.744,59.915,45.102,59.915,44.277z M55.251,54.061c-0.748,0.161-1.68,0.24-2.787,0.24
		c-1.109,0-2.037-0.079-2.787-0.24c-0.75-0.16-1.125-0.275-1.125-0.349c0-0.071,0.338-0.196,1.018-0.376
		c0.285-0.07,0.715-0.141,1.287-0.213v-6.434c0.393,0.037,0.93,0.055,1.607,0.055s1.215-0.018,1.609-0.055v6.434
		c0.568,0.072,1,0.143,1.285,0.213c0.678,0.18,1.02,0.305,1.02,0.376C56.378,53.785,56.003,53.9,55.251,54.061z M55.251,44.627
		c-0.748,0.16-1.68,0.24-2.787,0.24c-1.109,0-2.037-0.08-2.787-0.24s-1.125-0.275-1.125-0.35c0-0.07,0.375-0.195,1.125-0.375
		c0.75-0.178,1.678-0.269,2.787-0.269c1.107,0,2.039,0.091,2.787,0.269c0.752,0.18,1.127,0.305,1.127,0.375
		C56.378,44.352,56.003,44.467,55.251,44.627z M55.358,35.165c-0.285,0.073-0.717,0.144-1.285,0.214v6.434
		c-0.395-0.035-0.932-0.055-1.609-0.055s-1.215,0.02-1.607,0.055v-6.434c-0.572-0.07-1.002-0.141-1.287-0.214
		c-0.68-0.178-1.018-0.302-1.018-0.375c0-0.071,0.375-0.195,1.125-0.375c0.75-0.179,1.678-0.269,2.787-0.269
		c1.107,0,2.039,0.09,2.787,0.269c0.752,0.18,1.127,0.304,1.127,0.375C56.378,34.863,56.036,34.987,55.358,35.165z"/>
	<path fill="#283E99" d="M40.618,34.736c0-0.75-0.76-1.349-2.279-1.795c-1.518-0.447-3.242-0.671-5.172-0.671
		c-1.928,0-3.652,0.224-5.174,0.671c-1.518,0.446-2.277,1.045-2.277,1.795c0,0.823,0.895,1.467,2.682,1.93v5.682
		c-1.787,0.537-2.682,1.18-2.682,1.93c0,0.824,0.895,1.467,2.682,1.93v5.629c-1.787,0.536-2.682,1.198-2.682,1.982
		c0,0.824,0.77,1.43,2.307,1.823c1.533,0.395,3.25,0.59,5.145,0.59c1.893,0,3.609-0.195,5.146-0.59
		c1.535-0.394,2.305-0.999,2.305-1.823c0-0.784-0.895-1.446-2.68-1.982v-5.629c1.785-0.463,2.68-1.105,2.68-1.93
		c0-0.75-0.895-1.393-2.68-1.93v-5.682C39.724,36.203,40.618,35.56,40.618,34.736z M35.954,54.061
		c-0.748,0.161-1.68,0.24-2.787,0.24s-2.035-0.079-2.787-0.24c-0.75-0.16-1.125-0.275-1.125-0.349c0-0.071,0.338-0.196,1.02-0.376
		c0.285-0.07,0.713-0.141,1.285-0.213v-6.434c0.393,0.037,0.928,0.055,1.607,0.055c0.678,0,1.215-0.018,1.607-0.055v6.434
		c0.572,0.072,1,0.143,1.287,0.213c0.678,0.18,1.02,0.305,1.02,0.376C37.081,53.785,36.704,53.9,35.954,54.061z M35.954,44.627
		c-0.748,0.16-1.68,0.24-2.787,0.24s-2.035-0.08-2.787-0.24c-0.75-0.16-1.125-0.275-1.125-0.35c0-0.07,0.375-0.195,1.125-0.375
		c0.752-0.178,1.68-0.269,2.787-0.269s2.039,0.091,2.787,0.269c0.75,0.18,1.127,0.305,1.127,0.375
		C37.081,44.352,36.704,44.467,35.954,44.627z M36.062,35.165c-0.287,0.073-0.715,0.144-1.287,0.214v6.434
		c-0.393-0.035-0.93-0.055-1.607-0.055c-0.68,0-1.215,0.02-1.607,0.055v-6.434c-0.572-0.07-1-0.141-1.285-0.214
		c-0.682-0.178-1.02-0.302-1.02-0.375c0-0.071,0.375-0.195,1.125-0.375c0.752-0.179,1.68-0.269,2.787-0.269s2.039,0.09,2.787,0.269
		c0.75,0.18,1.127,0.304,1.127,0.375C37.081,34.863,36.739,34.987,36.062,35.165z"/>
	<path fill="#C6204F" d="M40.618,6.381c0-0.75-0.76-1.35-2.279-1.795c-1.518-0.447-3.242-0.672-5.172-0.672
		c-1.928,0-3.652,0.225-5.174,0.672c-1.518,0.445-2.277,1.045-2.277,1.795c0,0.823,0.895,1.467,2.682,1.93v5.682
		c-1.787,0.536-2.682,1.18-2.682,1.93c0,0.823,0.895,1.467,2.682,1.93v5.629c-1.787,0.535-2.682,1.198-2.682,1.982
		c0,0.824,0.77,1.431,2.307,1.822c1.533,0.396,3.25,0.59,5.145,0.59c1.893,0,3.609-0.194,5.146-0.59
		c1.535-0.392,2.305-0.998,2.305-1.822c0-0.784-0.895-1.447-2.68-1.982v-5.629c1.785-0.463,2.68-1.106,2.68-1.93
		c0-0.75-0.895-1.394-2.68-1.93V8.311C39.724,7.848,40.618,7.204,40.618,6.381z M35.954,25.705c-0.748,0.161-1.68,0.24-2.787,0.24
		s-2.035-0.079-2.787-0.24c-0.75-0.16-1.125-0.276-1.125-0.35c0-0.07,0.338-0.195,1.02-0.375c0.285-0.07,0.713-0.141,1.285-0.214
		v-6.433c0.393,0.036,0.928,0.054,1.607,0.054c0.678,0,1.215-0.018,1.607-0.054v6.433c0.572,0.073,1,0.144,1.287,0.214
		c0.678,0.18,1.02,0.305,1.02,0.375C37.081,25.429,36.704,25.545,35.954,25.705z M35.954,16.271c-0.748,0.16-1.68,0.24-2.787,0.24
		s-2.035-0.08-2.787-0.24c-0.75-0.16-1.125-0.276-1.125-0.35c0-0.07,0.375-0.195,1.125-0.375c0.752-0.178,1.68-0.269,2.787-0.269
		s2.039,0.091,2.787,0.269c0.75,0.18,1.127,0.305,1.127,0.375C37.081,15.995,36.704,16.111,35.954,16.271z M36.062,6.809
		c-0.287,0.074-0.715,0.145-1.287,0.215v6.434c-0.393-0.035-0.93-0.055-1.607-0.055c-0.68,0-1.215,0.02-1.607,0.055V7.023
		c-0.572-0.07-1-0.141-1.285-0.215c-0.682-0.177-1.02-0.302-1.02-0.375c0-0.07,0.375-0.195,1.125-0.374
		c0.752-0.179,1.68-0.269,2.787-0.269s2.039,0.09,2.787,0.269c0.75,0.179,1.127,0.304,1.127,0.374
		C37.081,6.507,36.739,6.632,36.062,6.809z"/>
	<path fill="#1F7529" d="M21.321,34.736c0-0.75-0.76-1.349-2.279-1.795c-1.518-0.447-3.24-0.671-5.172-0.671
		c-1.928,0-3.654,0.224-5.174,0.671c-1.518,0.446-2.277,1.045-2.277,1.795c0,0.823,0.893,1.467,2.682,1.93v5.682
		c-1.789,0.537-2.682,1.18-2.682,1.93c0,0.824,0.893,1.467,2.682,1.93v5.629c-1.789,0.536-2.682,1.198-2.682,1.982
		c0,0.824,0.768,1.43,2.307,1.823c1.535,0.395,3.25,0.59,5.145,0.59s3.609-0.195,5.146-0.59c1.535-0.394,2.305-0.999,2.305-1.823
		c0-0.784-0.893-1.446-2.68-1.982v-5.629c1.787-0.463,2.68-1.105,2.68-1.93c0-0.75-0.893-1.393-2.68-1.93v-5.682
		C20.429,36.203,21.321,35.56,21.321,34.736z M16.657,54.061c-0.75,0.161-1.68,0.24-2.787,0.24s-2.035-0.079-2.787-0.24
		c-0.75-0.16-1.125-0.275-1.125-0.349c0-0.071,0.34-0.196,1.018-0.376c0.287-0.07,0.715-0.141,1.287-0.213v-6.434
		c0.393,0.037,0.928,0.055,1.607,0.055c0.678,0,1.213-0.018,1.609-0.055v6.434c0.57,0.072,0.998,0.143,1.287,0.213
		c0.678,0.18,1.018,0.305,1.018,0.376C17.784,53.785,17.409,53.9,16.657,54.061z M16.657,44.627c-0.75,0.16-1.68,0.24-2.787,0.24
		s-2.035-0.08-2.787-0.24c-0.75-0.16-1.125-0.275-1.125-0.35c0-0.07,0.375-0.195,1.125-0.375c0.752-0.178,1.68-0.269,2.787-0.269
		s2.037,0.091,2.787,0.269c0.752,0.18,1.127,0.305,1.127,0.375C17.784,44.352,17.409,44.467,16.657,44.627z M16.767,35.165
		c-0.289,0.073-0.717,0.144-1.287,0.214v6.434c-0.396-0.035-0.932-0.055-1.609-0.055c-0.68,0-1.215,0.02-1.607,0.055v-6.434
		c-0.572-0.07-1-0.141-1.287-0.214c-0.678-0.178-1.018-0.302-1.018-0.375c0-0.071,0.375-0.195,1.125-0.375
		c0.752-0.179,1.68-0.269,2.787-0.269s2.037,0.09,2.787,0.269c0.752,0.18,1.127,0.304,1.127,0.375
		C17.784,34.863,17.444,34.987,16.767,35.165z"/>
	<path fill="#1F7529" d="M59.915,63.092c0-0.75-0.76-1.349-2.279-1.794c-1.518-0.448-3.242-0.671-5.172-0.671
		s-3.654,0.223-5.174,0.671c-1.518,0.445-2.277,1.044-2.277,1.794c0,0.824,0.893,1.467,2.682,1.93v5.682
		c-1.789,0.537-2.682,1.18-2.682,1.93c0,0.824,0.893,1.467,2.682,1.93v5.629c-1.789,0.535-2.682,1.199-2.682,1.983
		c0,0.823,0.77,1.43,2.307,1.821c1.533,0.396,3.25,0.59,5.145,0.59s3.609-0.194,5.146-0.59c1.533-0.392,2.305-0.998,2.305-1.821
		c0-0.784-0.895-1.448-2.68-1.983v-5.629c1.785-0.463,2.68-1.105,2.68-1.93c0-0.75-0.895-1.393-2.68-1.93v-5.682
		C59.021,64.559,59.915,63.916,59.915,63.092z M55.251,82.416c-0.748,0.161-1.68,0.24-2.787,0.24c-1.109,0-2.037-0.079-2.787-0.24
		c-0.75-0.16-1.125-0.275-1.125-0.349c0-0.07,0.338-0.195,1.018-0.375c0.285-0.071,0.715-0.142,1.287-0.214v-6.434
		c0.393,0.037,0.93,0.055,1.607,0.055s1.215-0.018,1.609-0.055v6.434c0.568,0.072,1,0.143,1.285,0.214
		c0.678,0.18,1.02,0.305,1.02,0.375C56.378,82.141,56.003,82.256,55.251,82.416z M55.251,72.982c-0.748,0.161-1.68,0.24-2.787,0.24
		c-1.109,0-2.037-0.079-2.787-0.24c-0.75-0.16-1.125-0.276-1.125-0.35c0-0.07,0.375-0.195,1.125-0.375
		c0.75-0.178,1.678-0.268,2.787-0.268c1.107,0,2.039,0.09,2.787,0.268c0.752,0.18,1.127,0.305,1.127,0.375
		C56.378,72.706,56.003,72.822,55.251,72.982z M55.358,63.521c-0.285,0.073-0.717,0.144-1.285,0.215v6.433
		c-0.395-0.034-0.932-0.055-1.609-0.055s-1.215,0.021-1.607,0.055v-6.433c-0.572-0.071-1.002-0.142-1.287-0.215
		c-0.68-0.177-1.018-0.302-1.018-0.374s0.375-0.196,1.125-0.375c0.75-0.18,1.678-0.27,2.787-0.27c1.107,0,2.039,0.09,2.787,0.27
		c0.752,0.179,1.127,0.303,1.127,0.375S56.036,63.344,55.358,63.521z"/>
	<path fill="#283E99" d="M40.618,63.092c0-0.75-0.76-1.349-2.279-1.794c-1.518-0.448-3.242-0.671-5.172-0.671
		c-1.928,0-3.652,0.223-5.174,0.671c-1.518,0.445-2.277,1.044-2.277,1.794c0,0.824,0.895,1.467,2.682,1.93v5.682
		c-1.787,0.537-2.682,1.18-2.682,1.93c0,0.824,0.895,1.467,2.682,1.93v5.629c-1.787,0.535-2.682,1.199-2.682,1.983
		c0,0.823,0.77,1.43,2.307,1.821c1.533,0.396,3.25,0.59,5.145,0.59c1.893,0,3.609-0.194,5.146-0.59
		c1.535-0.392,2.305-0.998,2.305-1.821c0-0.784-0.895-1.448-2.68-1.983v-5.629c1.785-0.463,2.68-1.105,2.68-1.93
		c0-0.75-0.895-1.393-2.68-1.93v-5.682C39.724,64.559,40.618,63.916,40.618,63.092z M35.954,82.416
		c-0.748,0.161-1.68,0.24-2.787,0.24s-2.035-0.079-2.787-0.24c-0.75-0.16-1.125-0.275-1.125-0.349c0-0.07,0.338-0.195,1.02-0.375
		c0.285-0.071,0.713-0.142,1.285-0.214v-6.434c0.393,0.037,0.928,0.055,1.607,0.055c0.678,0,1.215-0.018,1.607-0.055v6.434
		c0.572,0.072,1,0.143,1.287,0.214c0.678,0.18,1.02,0.305,1.02,0.375C37.081,82.141,36.704,82.256,35.954,82.416z M35.954,72.982
		c-0.748,0.161-1.68,0.24-2.787,0.24s-2.035-0.079-2.787-0.24c-0.75-0.16-1.125-0.276-1.125-0.35c0-0.07,0.375-0.195,1.125-0.375
		c0.752-0.178,1.68-0.268,2.787-0.268s2.039,0.09,2.787,0.268c0.75,0.18,1.127,0.305,1.127,0.375
		C37.081,72.706,36.704,72.822,35.954,72.982z M36.062,63.521c-0.287,0.073-0.715,0.144-1.287,0.215v6.433
		c-0.393-0.034-0.93-0.055-1.607-0.055c-0.68,0-1.215,0.021-1.607,0.055v-6.433c-0.572-0.071-1-0.142-1.285-0.215
		c-0.682-0.177-1.02-0.302-1.02-0.374s0.375-0.196,1.125-0.375c0.752-0.18,1.68-0.27,2.787-0.27s2.039,0.09,2.787,0.27
		c0.75,0.179,1.127,0.303,1.127,0.375S36.739,63.344,36.062,63.521z"/>
</g>
</svg>
