<?xml version="1.0" encoding="utf-8"?>
<!-- Generator: Adobe Illustrator 16.0.0, SVG Export Plug-In . SVG Version: 6.00 Build 0)  -->
<!DOCTYPE svg PUBLIC "-//W3C//DTD SVG 1.1//EN" "http://www.w3.org/Graphics/SVG/1.1/DTD/svg11.dtd">
<svg version="1.1" id="Layer_1" xmlns="http://www.w3.org/2000/svg" xmlns:xlink="http://www.w3.org/1999/xlink" x="0px" y="0px"
	 width="66.334px" height="88.5px" viewBox="0 0 66.334 88.5" enable-background="new 0 0 66.334 88.5" xml:space="preserve">
<g>
	<g>
		<path fill="#1F7529" d="M22.291,60.985c0-0.684-0.692-1.229-2.076-1.635c-1.383-0.408-2.953-0.611-4.711-0.611
			s-3.329,0.203-4.713,0.611c-1.383,0.406-2.074,0.951-2.074,1.635c0,0.75,0.812,1.336,2.441,1.758v5.176
			c-1.629,0.488-2.441,1.074-2.441,1.758c0,0.75,0.812,1.336,2.441,1.758v5.127c-1.629,0.488-2.441,1.092-2.441,1.807
			c0,0.75,0.699,1.303,2.1,1.66c1.398,0.359,2.961,0.537,4.688,0.537c1.725,0,3.287-0.178,4.688-0.537
			c1.398-0.357,2.1-0.91,2.1-1.66c0-0.715-0.814-1.318-2.441-1.807v-5.127c1.627-0.422,2.441-1.008,2.441-1.758
			c0-0.684-0.814-1.27-2.441-1.758v-5.176C21.477,62.321,22.291,61.735,22.291,60.985z M18.043,78.589
			c-0.684,0.146-1.531,0.219-2.539,0.219c-1.01,0-1.855-0.072-2.539-0.219s-1.025-0.252-1.025-0.318
			c0-0.064,0.309-0.178,0.928-0.342c0.26-0.064,0.65-0.129,1.172-0.195v-5.859c0.357,0.033,0.846,0.049,1.465,0.049
			c0.617,0,1.105-0.016,1.465-0.049v5.859c0.52,0.066,0.91,0.131,1.172,0.195c0.617,0.164,0.928,0.277,0.928,0.342
			C19.068,78.337,18.727,78.442,18.043,78.589z M18.043,69.995c-0.684,0.146-1.531,0.219-2.539,0.219
			c-1.01,0-1.855-0.072-2.539-0.219s-1.025-0.252-1.025-0.318c0-0.064,0.342-0.178,1.025-0.342c0.684-0.162,1.529-0.244,2.539-0.244
			c1.008,0,1.855,0.082,2.539,0.244c0.684,0.164,1.025,0.277,1.025,0.342C19.068,69.743,18.727,69.849,18.043,69.995z
			 M18.141,61.376c-0.262,0.066-0.652,0.131-1.172,0.195v5.859c-0.359-0.031-0.848-0.049-1.465-0.049
			c-0.619,0-1.107,0.018-1.465,0.049v-5.859c-0.521-0.064-0.912-0.129-1.172-0.195c-0.619-0.162-0.928-0.275-0.928-0.342
			c0-0.064,0.342-0.178,1.025-0.342c0.684-0.162,1.529-0.244,2.539-0.244c1.008,0,1.855,0.082,2.539,0.244
			c0.684,0.164,1.025,0.277,1.025,0.342C19.068,61.101,18.758,61.214,18.141,61.376z"/>
		<path fill="#1F7529" d="M57.447,43.847c0-0.684-0.814-1.27-2.441-1.758v-5.176c1.627-0.422,2.441-1.008,2.441-1.758
			c0-0.684-0.692-1.229-2.076-1.635c-1.383-0.408-2.953-0.611-4.711-0.611s-3.329,0.203-4.713,0.611
			c-1.383,0.406-2.074,0.951-2.074,1.635c0,0.75,0.812,1.336,2.441,1.758v5.176c-1.629,0.488-2.441,1.074-2.441,1.758
			c0,0.75,0.812,1.336,2.441,1.758v5.127c-1.629,0.488-2.441,1.092-2.441,1.807c0,0.75,0.699,1.303,2.1,1.66
			c1.398,0.359,2.961,0.537,4.688,0.537c1.725,0,3.287-0.178,4.688-0.537c1.398-0.357,2.1-0.91,2.1-1.66
			c0-0.715-0.814-1.318-2.441-1.807v-5.127C56.633,45.183,57.447,44.597,57.447,43.847z M53.199,52.759
			c-0.684,0.146-1.531,0.219-2.539,0.219c-1.01,0-1.855-0.072-2.539-0.219s-1.025-0.252-1.025-0.318
			c0-0.064,0.309-0.178,0.928-0.342c0.26-0.064,0.65-0.129,1.172-0.195v-5.859c0.357,0.033,0.846,0.049,1.465,0.049
			c0.617,0,1.105-0.016,1.465-0.049v5.859c0.52,0.066,0.91,0.131,1.172,0.195c0.617,0.164,0.928,0.277,0.928,0.342
			C54.225,52.507,53.883,52.612,53.199,52.759z M53.199,44.165c-0.684,0.146-1.531,0.219-2.539,0.219
			c-1.01,0-1.855-0.072-2.539-0.219s-1.025-0.252-1.025-0.318c0-0.064,0.342-0.178,1.025-0.342c0.684-0.162,1.529-0.244,2.539-0.244
			c1.008,0,1.855,0.082,2.539,0.244c0.684,0.164,1.025,0.277,1.025,0.342C54.225,43.913,53.883,44.019,53.199,44.165z
			 M53.297,35.546c-0.262,0.066-0.652,0.131-1.172,0.195v5.859c-0.359-0.031-0.848-0.049-1.465-0.049
			c-0.619,0-1.107,0.018-1.465,0.049v-5.859c-0.521-0.064-0.912-0.129-1.172-0.195c-0.619-0.162-0.928-0.275-0.928-0.342
			c0-0.064,0.342-0.178,1.025-0.342c0.684-0.162,1.529-0.244,2.539-0.244c1.008,0,1.855,0.082,2.539,0.244
			c0.684,0.164,1.025,0.277,1.025,0.342C54.225,35.271,53.914,35.384,53.297,35.546z"/>
		<path fill="#283E99" d="M39.869,35.155c0-0.684-0.692-1.229-2.076-1.635c-1.383-0.408-2.953-0.611-4.711-0.611
			s-3.329,0.203-4.713,0.611c-1.383,0.406-2.074,0.951-2.074,1.635c0,0.75,0.812,1.336,2.441,1.758v5.176
			c-1.629,0.488-2.441,1.074-2.441,1.758c0,0.75,0.812,1.336,2.441,1.758v5.127c-1.629,0.488-2.441,1.092-2.441,1.807
			c0,0.75,0.699,1.303,2.1,1.66c1.398,0.359,2.961,0.537,4.688,0.537c1.725,0,3.287-0.178,4.688-0.537
			c1.398-0.357,2.1-0.91,2.1-1.66c0-0.715-0.814-1.318-2.441-1.807v-5.127c1.627-0.422,2.441-1.008,2.441-1.758
			c0-0.684-0.814-1.27-2.441-1.758v-5.176C39.055,36.491,39.869,35.905,39.869,35.155z M35.621,52.759
			c-0.684,0.146-1.531,0.219-2.539,0.219c-1.01,0-1.855-0.072-2.539-0.219s-1.025-0.252-1.025-0.318
			c0-0.064,0.309-0.178,0.928-0.342c0.26-0.064,0.65-0.129,1.172-0.195v-5.859c0.357,0.033,0.846,0.049,1.465,0.049
			c0.617,0,1.105-0.016,1.465-0.049v5.859c0.52,0.066,0.91,0.131,1.172,0.195c0.617,0.164,0.928,0.277,0.928,0.342
			C36.646,52.507,36.305,52.612,35.621,52.759z M35.621,44.165c-0.684,0.146-1.531,0.219-2.539,0.219
			c-1.01,0-1.855-0.072-2.539-0.219s-1.025-0.252-1.025-0.318c0-0.064,0.342-0.178,1.025-0.342c0.684-0.162,1.529-0.244,2.539-0.244
			c1.008,0,1.855,0.082,2.539,0.244c0.684,0.164,1.025,0.277,1.025,0.342C36.646,43.913,36.305,44.019,35.621,44.165z
			 M35.719,35.546c-0.262,0.066-0.652,0.131-1.172,0.195v5.859c-0.359-0.031-0.848-0.049-1.465-0.049
			c-0.619,0-1.107,0.018-1.465,0.049v-5.859c-0.521-0.064-0.912-0.129-1.172-0.195c-0.619-0.162-0.928-0.275-0.928-0.342
			c0-0.064,0.342-0.178,1.025-0.342c0.684-0.162,1.529-0.244,2.539-0.244c1.008,0,1.855,0.082,2.539,0.244
			c0.684,0.164,1.025,0.277,1.025,0.342C36.646,35.271,36.336,35.384,35.719,35.546z"/>
		<path fill="#C6204F" d="M39.869,9.325c0-0.684-0.692-1.229-2.076-1.635c-1.383-0.408-2.953-0.611-4.711-0.611
			s-3.329,0.203-4.713,0.611c-1.383,0.406-2.074,0.951-2.074,1.635c0,0.75,0.812,1.336,2.441,1.758v5.176
			c-1.629,0.488-2.441,1.074-2.441,1.758c0,0.75,0.812,1.336,2.441,1.758v5.127c-1.629,0.488-2.441,1.092-2.441,1.807
			c0,0.75,0.699,1.303,2.1,1.66c1.398,0.359,2.961,0.537,4.688,0.537c1.725,0,3.287-0.178,4.688-0.537
			c1.398-0.357,2.1-0.91,2.1-1.66c0-0.715-0.814-1.318-2.441-1.807v-5.127c1.627-0.422,2.441-1.008,2.441-1.758
			c0-0.684-0.814-1.27-2.441-1.758v-5.176C39.055,10.661,39.869,10.075,39.869,9.325z M35.621,26.929
			c-0.684,0.146-1.531,0.219-2.539,0.219c-1.01,0-1.855-0.072-2.539-0.219s-1.025-0.252-1.025-0.318
			c0-0.064,0.309-0.178,0.928-0.342c0.26-0.064,0.65-0.129,1.172-0.195v-5.859c0.357,0.033,0.846,0.049,1.465,0.049
			c0.617,0,1.105-0.016,1.465-0.049v5.859c0.52,0.066,0.91,0.131,1.172,0.195c0.617,0.164,0.928,0.277,0.928,0.342
			C36.646,26.677,36.305,26.782,35.621,26.929z M35.621,18.335c-0.684,0.146-1.531,0.219-2.539,0.219
			c-1.01,0-1.855-0.072-2.539-0.219s-1.025-0.252-1.025-0.318c0-0.064,0.342-0.178,1.025-0.342c0.684-0.162,1.529-0.244,2.539-0.244
			c1.008,0,1.855,0.082,2.539,0.244c0.684,0.164,1.025,0.277,1.025,0.342C36.646,18.083,36.305,18.188,35.621,18.335z M35.719,9.716
			c-0.262,0.066-0.652,0.131-1.172,0.195v5.859c-0.359-0.031-0.848-0.049-1.465-0.049c-0.619,0-1.107,0.018-1.465,0.049V9.911
			c-0.521-0.064-0.912-0.129-1.172-0.195c-0.619-0.162-0.928-0.275-0.928-0.342c0-0.064,0.342-0.178,1.025-0.342
			c0.684-0.162,1.529-0.244,2.539-0.244c1.008,0,1.855,0.082,2.539,0.244c0.684,0.164,1.025,0.277,1.025,0.342
			C36.646,9.44,36.336,9.554,35.719,9.716z"/>
		<path fill="#1F7529" d="M22.291,35.155c0-0.684-0.692-1.229-2.076-1.635c-1.383-0.408-2.953-0.611-4.711-0.611
			s-3.329,0.203-4.713,0.611c-1.383,0.406-2.074,0.951-2.074,1.635c0,0.75,0.812,1.336,2.441,1.758v5.176
			c-1.629,0.488-2.441,1.074-2.441,1.758c0,0.75,0.812,1.336,2.441,1.758v5.127c-1.629,0.488-2.441,1.092-2.441,1.807
			c0,0.75,0.699,1.303,2.1,1.66c1.398,0.359,2.961,0.537,4.688,0.537c1.725,0,3.287-0.178,4.688-0.537
			c1.398-0.357,2.1-0.91,2.1-1.66c0-0.715-0.814-1.318-2.441-1.807v-5.127c1.627-0.422,2.441-1.008,2.441-1.758
			c0-0.684-0.814-1.27-2.441-1.758v-5.176C21.477,36.491,22.291,35.905,22.291,35.155z M18.043,52.759
			c-0.684,0.146-1.531,0.219-2.539,0.219c-1.01,0-1.855-0.072-2.539-0.219s-1.025-0.252-1.025-0.318
			c0-0.064,0.309-0.178,0.928-0.342c0.26-0.064,0.65-0.129,1.172-0.195v-5.859c0.357,0.033,0.846,0.049,1.465,0.049
			c0.617,0,1.105-0.016,1.465-0.049v5.859c0.52,0.066,0.91,0.131,1.172,0.195c0.617,0.164,0.928,0.277,0.928,0.342
			C19.068,52.507,18.727,52.612,18.043,52.759z M18.043,44.165c-0.684,0.146-1.531,0.219-2.539,0.219
			c-1.01,0-1.855-0.072-2.539-0.219s-1.025-0.252-1.025-0.318c0-0.064,0.342-0.178,1.025-0.342c0.684-0.162,1.529-0.244,2.539-0.244
			c1.008,0,1.855,0.082,2.539,0.244c0.684,0.164,1.025,0.277,1.025,0.342C19.068,43.913,18.727,44.019,18.043,44.165z
			 M18.141,35.546c-0.262,0.066-0.652,0.131-1.172,0.195v5.859c-0.359-0.031-0.848-0.049-1.465-0.049
			c-0.619,0-1.107,0.018-1.465,0.049v-5.859c-0.521-0.064-0.912-0.129-1.172-0.195c-0.619-0.162-0.928-0.275-0.928-0.342
			c0-0.064,0.342-0.178,1.025-0.342c0.684-0.162,1.529-0.244,2.539-0.244c1.008,0,1.855,0.082,2.539,0.244
			c0.684,0.164,1.025,0.277,1.025,0.342C19.068,35.271,18.758,35.384,18.141,35.546z"/>
		<path fill="#1F7529" d="M57.447,60.985c0-0.684-0.692-1.229-2.076-1.635c-1.383-0.408-2.953-0.611-4.711-0.611
			s-3.329,0.203-4.713,0.611c-1.383,0.406-2.074,0.951-2.074,1.635c0,0.75,0.812,1.336,2.441,1.758v5.176
			c-1.629,0.488-2.441,1.074-2.441,1.758c0,0.75,0.812,1.336,2.441,1.758v5.127c-1.629,0.488-2.441,1.092-2.441,1.807
			c0,0.75,0.699,1.303,2.1,1.66c1.398,0.359,2.961,0.537,4.688,0.537c1.725,0,3.287-0.178,4.688-0.537
			c1.398-0.357,2.1-0.91,2.1-1.66c0-0.715-0.814-1.318-2.441-1.807v-5.127c1.627-0.422,2.441-1.008,2.441-1.758
			c0-0.684-0.814-1.27-2.441-1.758v-5.176C56.633,62.321,57.447,61.735,57.447,60.985z M53.199,78.589
			c-0.684,0.146-1.531,0.219-2.539,0.219c-1.01,0-1.855-0.072-2.539-0.219s-1.025-0.252-1.025-0.318
			c0-0.064,0.309-0.178,0.928-0.342c0.26-0.064,0.65-0.129,1.172-0.195v-5.859c0.357,0.033,0.846,0.049,1.465,0.049
			c0.617,0,1.105-0.016,1.465-0.049v5.859c0.52,0.066,0.91,0.131,1.172,0.195c0.617,0.164,0.928,0.277,0.928,0.342
			C54.225,78.337,53.883,78.442,53.199,78.589z M53.199,69.995c-0.684,0.146-1.531,0.219-2.539,0.219
			c-1.01,0-1.855-0.072-2.539-0.219s-1.025-0.252-1.025-0.318c0-0.064,0.342-0.178,1.025-0.342c0.684-0.162,1.529-0.244,2.539-0.244
			c1.008,0,1.855,0.082,2.539,0.244c0.684,0.164,1.025,0.277,1.025,0.342C54.225,69.743,53.883,69.849,53.199,69.995z
			 M53.297,61.376c-0.262,0.066-0.652,0.131-1.172,0.195v5.859c-0.359-0.031-0.848-0.049-1.465-0.049
			c-0.619,0-1.107,0.018-1.465,0.049v-5.859c-0.521-0.064-0.912-0.129-1.172-0.195c-0.619-0.162-0.928-0.275-0.928-0.342
			c0-0.064,0.342-0.178,1.025-0.342c0.684-0.162,1.529-0.244,2.539-0.244c1.008,0,1.855,0.082,2.539,0.244
			c0.684,0.164,1.025,0.277,1.025,0.342C54.225,61.101,53.914,61.214,53.297,61.376z"/>
		<path fill="#283E99" d="M39.869,60.985c0-0.684-0.692-1.229-2.076-1.635c-1.383-0.408-2.953-0.611-4.711-0.611
			s-3.329,0.203-4.713,0.611c-1.383,0.406-2.074,0.951-2.074,1.635c0,0.75,0.812,1.336,2.441,1.758v5.176
			c-1.629,0.488-2.441,1.074-2.441,1.758c0,0.75,0.812,1.336,2.441,1.758v5.127c-1.629,0.488-2.441,1.092-2.441,1.807
			c0,0.75,0.699,1.303,2.1,1.66c1.398,0.359,2.961,0.537,4.688,0.537c1.725,0,3.287-0.178,4.688-0.537
			c1.398-0.357,2.1-0.91,2.1-1.66c0-0.715-0.814-1.318-2.441-1.807v-5.127c1.627-0.422,2.441-1.008,2.441-1.758
			c0-0.684-0.814-1.27-2.441-1.758v-5.176C39.055,62.321,39.869,61.735,39.869,60.985z M35.621,78.589
			c-0.684,0.146-1.531,0.219-2.539,0.219c-1.01,0-1.855-0.072-2.539-0.219s-1.025-0.252-1.025-0.318
			c0-0.064,0.309-0.178,0.928-0.342c0.26-0.064,0.65-0.129,1.172-0.195v-5.859c0.357,0.033,0.846,0.049,1.465,0.049
			c0.617,0,1.105-0.016,1.465-0.049v5.859c0.52,0.066,0.91,0.131,1.172,0.195c0.617,0.164,0.928,0.277,0.928,0.342
			C36.646,78.337,36.305,78.442,35.621,78.589z M35.621,69.995c-0.684,0.146-1.531,0.219-2.539,0.219
			c-1.01,0-1.855-0.072-2.539-0.219s-1.025-0.252-1.025-0.318c0-0.064,0.342-0.178,1.025-0.342c0.684-0.162,1.529-0.244,2.539-0.244
			c1.008,0,1.855,0.082,2.539,0.244c0.684,0.164,1.025,0.277,1.025,0.342C36.646,69.743,36.305,69.849,35.621,69.995z
			 M35.719,61.376c-0.262,0.066-0.652,0.131-1.172,0.195v5.859c-0.359-0.031-0.848-0.049-1.465-0.049
			c-0.619,0-1.107,0.018-1.465,0.049v-5.859c-0.521-0.064-0.912-0.129-1.172-0.195c-0.619-0.162-0.928-0.275-0.928-0.342
			c0-0.064,0.342-0.178,1.025-0.342c0.684-0.162,1.529-0.244,2.539-0.244c1.008,0,1.855,0.082,2.539,0.244
			c0.684,0.164,1.025,0.277,1.025,0.342C36.646,61.101,36.336,61.214,35.719,61.376z"/>
	</g>
	<g>
	</g>
</g>
</svg>
