<?xml version="1.0" encoding="utf-8"?>
<!-- Generator: Adobe Illustrator 16.0.0, SVG Export Plug-In . SVG Version: 6.00 Build 0)  -->
<!DOCTYPE svg PUBLIC "-//W3C//DTD SVG 1.1//EN" "http://www.w3.org/Graphics/SVG/1.1/DTD/svg11.dtd">
<svg version="1.1" id="Layer_1" xmlns="http://www.w3.org/2000/svg" xmlns:xlink="http://www.w3.org/1999/xlink" x="0px" y="0px"
	 width="66.334px" height="88.5px" viewBox="0 0 66.334 88.5" enable-background="new 0 0 66.334 88.5" xml:space="preserve">
<g>
	<path fill="#1F7529" d="M47.264,37.549l-6.807-7.932c-1.68,0.857-2.734,1.018-3.164,0.482c-0.535-0.607-0.305-1.715,0.698-3.324
		l-4.878-5.682l-4.879,5.682c1.036,1.609,1.304,2.717,0.805,3.324c-0.5,0.535-1.572,0.375-3.217-0.482l-6.754,7.986
		c1.465,0.395,2.198,0.984,2.198,1.77c0,0.75-0.822,1.375-2.466,1.875c0.107,0.395,0.035,0.75-0.215,1.072
		c-0.536,0.572-1.537,0.465-3.002-0.322l-0.375-0.213c-0.393,0.035-0.857,0.053-1.393,0.053c-1.967,0-3.682-0.223-5.146-0.668
		c-1.465-0.449-2.197-1.047-2.197-1.797c0-0.822,0.874-1.465,2.627-1.93v-1.34c-0.43-0.393-0.77-0.822-1.02-1.287
		c-0.822-1.465-1.001-2.467-0.536-3.002c0.393-0.43,0.912-0.553,1.556-0.375v-6.646c-1.753-0.537-2.627-1.18-2.627-1.93
		c0-0.822,0.874-1.465,2.627-1.93V8.283c-1.753-0.5-2.627-1.143-2.627-1.93c0-0.82,0.732-1.428,2.197-1.822
		c1.465-0.393,3.18-0.59,5.146-0.59c1.93,0,3.653,0.197,5.172,0.59c1.518,0.395,2.278,1.002,2.278,1.822
		c0,0.787-0.895,1.447-2.681,1.982v10.936c0.537-0.143,1.357,0.072,2.467,0.643l8.146-9.379C28.234,9,28.021,7.943,28.557,7.371
		c0.5-0.605,1.482-0.516,2.948,0.268c0.606,0.322,1.143,0.697,1.608,1.127c0.535-0.43,1.107-0.805,1.715-1.127
		c1.429-0.783,2.412-0.873,2.947-0.268c0.465,0.572,0.25,1.609-0.643,3.109l8.094,9.434c1.072-0.785,1.895-1.125,2.467-1.018V8.283
		c-1.752-0.5-2.627-1.143-2.627-1.93c0-0.82,0.732-1.428,2.197-1.822c1.464-0.393,3.18-0.59,5.146-0.59
		c1.93,0,3.654,0.197,5.172,0.59c1.52,0.395,2.279,1.002,2.279,1.822c0,0.787-0.895,1.447-2.682,1.982v12.598
		c1.787,0.465,2.682,1.107,2.682,1.93c0,0.75-0.895,1.393-2.682,1.93v6.699c0.645-0.248,1.162-0.141,1.555,0.322
		c0.5,0.535,0.303,1.555-0.59,3.055c-0.285,0.502-0.607,1.002-0.965,1.502v1.072c1.787,0.465,2.682,1.107,2.682,1.93
		c0,0.75-0.76,1.348-2.279,1.797c-1.518,0.445-3.242,0.668-5.172,0.668c-0.502,0-0.948-0.018-1.341-0.053l-0.375,0.213
		c-1.466,0.787-2.448,0.895-2.948,0.322c-0.287-0.355-0.375-0.713-0.268-1.072c-1.608-0.5-2.412-1.125-2.412-1.875
		C45.066,38.588,45.799,37.979,47.264,37.549z M47.264,50.951c-1.465-0.43-2.197-1.035-2.197-1.822c0-0.752,0.804-1.375,2.412-1.877
		c-0.107-0.355-0.02-0.715,0.268-1.072c0.5-0.57,1.482-0.463,2.948,0.322l0.375,0.213c0.393-0.033,0.839-0.053,1.341-0.053
		c1.93,0,3.654,0.223,5.172,0.672c1.52,0.445,2.279,1.043,2.279,1.795c0,0.822-0.895,1.465-2.682,1.93v1.07
		c0.357,0.502,0.68,1.002,0.965,1.502c0.893,1.5,1.09,2.52,0.59,3.055c-0.393,0.467-0.91,0.572-1.555,0.322v6.701
		c1.787,0.535,2.682,1.178,2.682,1.928c0,0.824-0.895,1.467-2.682,1.93v12.598c1.787,0.535,2.682,1.197,2.682,1.982
		c0,0.824-0.76,1.432-2.279,1.822c-1.518,0.395-3.242,0.59-5.172,0.59c-1.967,0-3.683-0.195-5.146-0.59
		c-1.465-0.391-2.197-0.998-2.197-1.822c0-0.785,0.875-1.428,2.627-1.93V69.604c-0.572,0.107-1.395-0.23-2.467-1.018l-8.094,9.434
		c0.893,1.502,1.107,2.539,0.643,3.109c-0.535,0.607-1.519,0.518-2.947-0.268c-0.607-0.322-1.18-0.697-1.715-1.127
		c-0.466,0.43-1.002,0.805-1.608,1.127c-1.466,0.785-2.448,0.875-2.948,0.268c-0.536-0.57-0.322-1.625,0.643-3.162l-8.146-9.381
		c-1.109,0.572-1.93,0.787-2.467,0.643v10.936c1.786,0.535,2.681,1.197,2.681,1.982c0,0.824-0.761,1.432-2.278,1.822
		c-1.519,0.395-3.242,0.59-5.172,0.59c-1.967,0-3.682-0.195-5.146-0.59c-1.465-0.391-2.197-0.998-2.197-1.822
		c0-0.785,0.874-1.428,2.627-1.93v-12.65c-1.753-0.463-2.627-1.105-2.627-1.93c0-0.75,0.874-1.393,2.627-1.928v-6.648
		c-0.644,0.18-1.163,0.055-1.556-0.375C7.079,56.15,7.258,55.15,8.08,53.684c0.25-0.463,0.59-0.891,1.02-1.285v-1.34
		c-1.753-0.465-2.627-1.107-2.627-1.93c0-0.752,0.732-1.35,2.197-1.795c1.465-0.449,3.18-0.672,5.146-0.672
		c0.535,0,1,0.02,1.393,0.053l0.375-0.213c1.465-0.785,2.448-0.893,2.949-0.322c0.285,0.357,0.375,0.717,0.268,1.072
		c1.644,0.502,2.466,1.125,2.466,1.877c0,0.787-0.733,1.393-2.198,1.822l6.754,7.932c1.645-0.857,2.717-1.018,3.217-0.482
		c0.499,0.609,0.231,1.717-0.805,3.324l4.879,5.682l4.878-5.682c-1.003-1.607-1.233-2.715-0.698-3.324
		c0.43-0.535,1.484-0.375,3.164,0.482L47.264,50.951z M16.711,6.781c0.678-0.178,1.018-0.301,1.018-0.375
		c0-0.07-0.375-0.193-1.125-0.375c-0.751-0.178-1.68-0.268-2.787-0.268c-1.109,0-2.021,0.09-2.734,0.268
		c-0.715,0.182-1.072,0.305-1.072,0.375c0,0.107,0.303,0.234,0.911,0.375c0.321,0.074,0.786,0.145,1.395,0.215v13.4
		c0.321-0.033,0.821-0.053,1.501-0.053c0.678,0,1.213,0.02,1.607,0.053v-13.4C15.996,6.926,16.424,6.855,16.711,6.781z
		 M10.01,22.863c0,0.072,0.357,0.197,1.072,0.375c0.714,0.18,1.625,0.268,2.734,0.268c1.107,0,2.036-0.088,2.787-0.268
		c0.75-0.178,1.125-0.303,1.125-0.375c0-0.07-0.375-0.188-1.125-0.348c-0.751-0.16-1.68-0.242-2.787-0.242
		c-1.109,0-2.021,0.082-2.734,0.242C10.367,22.676,10.01,22.793,10.01,22.863z M11.135,38.891c-0.75,0.18-1.125,0.305-1.125,0.375
		c0,0.107,0.357,0.232,1.072,0.375c0.714,0.143,1.625,0.215,2.734,0.215c1.107,0,2.036-0.08,2.787-0.24
		c0.75-0.162,1.125-0.277,1.125-0.35c0-0.07-0.34-0.195-1.018-0.375c-0.287-0.07-0.715-0.143-1.287-0.215v-13.4
		c-0.395,0.035-0.93,0.053-1.607,0.053c-0.68,0-1.18-0.018-1.501-0.053v13.348C11.85,38.729,11.457,38.82,11.135,38.891z
		 M16.711,49.557c0.678-0.178,1.018-0.303,1.018-0.375c0-0.07-0.375-0.195-1.125-0.375c-0.751-0.178-1.68-0.268-2.787-0.268
		c-1.109,0-2.021,0.09-2.734,0.268c-0.715,0.18-1.072,0.305-1.072,0.375c0,0.107,0.303,0.234,0.911,0.375
		c0.321,0.074,0.786,0.145,1.395,0.215v13.4c0.321-0.035,0.821-0.055,1.501-0.055c0.678,0,1.213,0.02,1.607,0.055v-13.4
		C15.996,49.701,16.424,49.631,16.711,49.557z M10.01,65.637c0,0.107,0.357,0.234,1.072,0.377c0.714,0.143,1.625,0.213,2.734,0.213
		c1.107,0,2.036-0.078,2.787-0.24c0.75-0.16,1.125-0.275,1.125-0.35c0-0.07-0.375-0.193-1.125-0.375
		c-0.751-0.178-1.68-0.268-2.787-0.268c-1.109,0-2.021,0.09-2.734,0.268C10.367,65.443,10.01,65.566,10.01,65.637z M11.135,81.664
		c-0.75,0.182-1.125,0.305-1.125,0.377c0,0.105,0.357,0.232,1.072,0.375c0.714,0.143,1.625,0.215,2.734,0.215
		c1.107,0,2.036-0.08,2.787-0.242c0.75-0.16,1.125-0.275,1.125-0.348s-0.34-0.195-1.018-0.377c-0.287-0.07-0.715-0.141-1.287-0.215
		v-13.4c-0.395,0.037-0.93,0.055-1.607,0.055c-0.68,0-1.18-0.018-1.501-0.055v13.348C11.85,81.504,11.457,81.594,11.135,81.664z
		 M18.586,33.102l4.557-5.307c-0.287-0.25-0.68-0.625-1.18-1.127c-0.535-0.463-0.91-0.82-1.125-1.072l-2.252,2.682V33.102z
		 M18.586,55.398v4.826l2.252,2.68c0.215-0.25,0.59-0.607,1.125-1.072c0.5-0.5,0.893-0.857,1.18-1.072L18.586,55.398z
		 M21.159,22.326c0.071,0.145,0.107,0.322,0.107,0.537v0.375c0.392,0.609,0.999,1.322,1.822,2.145
		c0.821,0.75,1.563,1.314,2.226,1.689c0.66,0.375,1.008,0.543,1.045,0.508c0.07-0.07-0.117-0.428-0.563-1.072
		c-0.446-0.643-1.081-1.357-1.903-2.145c-0.822-0.75-1.537-1.34-2.145-1.77C21.534,22.453,21.338,22.363,21.159,22.326z
		 M21.159,66.174c0.179-0.035,0.375-0.125,0.589-0.268c0.607-0.43,1.322-1.035,2.145-1.822c0.822-0.752,1.457-1.449,1.903-2.092
		s0.634-0.998,0.563-1.072c-0.037-0.033-0.385,0.135-1.045,0.512c-0.662,0.375-1.404,0.936-2.226,1.686
		c-0.823,0.824-1.431,1.539-1.822,2.145v0.375C21.267,65.852,21.23,66.033,21.159,66.174z M32.523,11.982l-8.631,10.023
		c0.322,0.215,0.752,0.572,1.287,1.072c0.464,0.465,0.821,0.822,1.071,1.072l8.523-9.971c0.499,0.395,0.894,0.68,1.179,0.857
		c0.536,0.32,0.84,0.447,0.912,0.375c0.034-0.07-0.152-0.42-0.563-1.043c-0.411-0.627-1.028-1.35-1.849-2.174
		c-0.822-0.75-1.573-1.32-2.252-1.715c-0.68-0.393-1.036-0.57-1.072-0.535c-0.035,0.072,0.125,0.395,0.482,0.965
		C31.826,11.16,32.129,11.518,32.523,11.982z M27.217,70.246c0.356-0.213,1.286,0.074,2.787,0.859l1.019-1.18l-4.771-5.574
		c-0.286,0.287-0.679,0.662-1.179,1.125c-0.5,0.465-0.876,0.805-1.125,1.018L27.217,70.246z M33.756,76.465l8.576-9.971
		c-0.321-0.248-0.732-0.605-1.232-1.07c-0.501-0.5-0.858-0.875-1.072-1.125l-8.522,9.969c-0.536-0.355-0.93-0.625-1.181-0.805
		c-0.535-0.32-0.84-0.445-0.91-0.375c-0.037,0.037,0.15,0.375,0.562,1.018c0.41,0.645,1.027,1.361,1.85,2.146
		c0.821,0.75,1.562,1.322,2.225,1.715c0.66,0.395,1.027,0.572,1.1,0.535c0.035-0.07-0.145-0.393-0.537-0.965
		C34.435,77.289,34.148,76.93,33.756,76.465z M39.062,18.252c-0.357,0.252-1.287-0.016-2.787-0.803l-1.02,1.125l4.771,5.629
		c0.25-0.285,0.644-0.66,1.18-1.125c0.499-0.5,0.857-0.84,1.071-1.02L39.062,18.252z M45.119,22.326
		c-0.178,0.037-0.375,0.127-0.59,0.268c-0.607,0.43-1.34,1.02-2.197,1.77c-0.787,0.787-1.403,1.502-1.849,2.145
		c-0.446,0.645-0.653,1.002-0.616,1.072c0.035,0.035,0.392-0.133,1.071-0.508c0.679-0.375,1.429-0.939,2.251-1.689
		c0.821-0.822,1.43-1.535,1.823-2.145v-0.375C45.013,22.648,45.047,22.471,45.119,22.326z M45.119,66.174
		c-0.072-0.141-0.106-0.322-0.106-0.537v-0.375c-0.394-0.605-1.002-1.32-1.823-2.145c-0.822-0.75-1.572-1.311-2.251-1.686
		c-0.68-0.377-1.036-0.545-1.071-0.512c-0.037,0.074,0.17,0.43,0.616,1.072c0.445,0.643,1.062,1.34,1.849,2.092
		c0.857,0.787,1.59,1.393,2.197,1.822C44.744,66.049,44.941,66.139,45.119,66.174z M47.693,28.062l-2.252-2.467
		c-0.215,0.252-0.59,0.627-1.126,1.127c-0.501,0.465-0.876,0.805-1.126,1.018l4.504,5.092V28.062z M47.693,60.439v-4.771
		l-4.504,5.092c0.25,0.215,0.625,0.572,1.126,1.072c0.536,0.465,0.911,0.822,1.126,1.072L47.693,60.439z M55.305,6.781
		c0.678-0.178,1.018-0.301,1.018-0.375c0-0.07-0.375-0.193-1.127-0.375c-0.748-0.178-1.678-0.268-2.785-0.268
		c-1.109,0-2.021,0.09-2.734,0.268c-0.715,0.182-1.072,0.305-1.072,0.375c0,0.107,0.304,0.234,0.912,0.375
		c0.321,0.074,0.785,0.145,1.393,0.215v13.4c0.322-0.033,0.821-0.053,1.502-0.053c0.678,0,1.213,0.02,1.607,0.053v-13.4
		C54.59,6.926,55.018,6.855,55.305,6.781z M48.604,22.863c0,0.072,0.357,0.197,1.072,0.375c0.714,0.18,1.625,0.268,2.734,0.268
		c1.107,0,2.037-0.088,2.785-0.268c0.752-0.178,1.127-0.303,1.127-0.375c0-0.07-0.375-0.188-1.127-0.348
		c-0.748-0.16-1.678-0.242-2.785-0.242c-1.109,0-2.021,0.082-2.734,0.242C48.961,22.676,48.604,22.793,48.604,22.863z
		 M49.729,38.891c-0.751,0.18-1.126,0.305-1.126,0.375c0,0.107,0.357,0.232,1.072,0.375c0.714,0.143,1.625,0.215,2.734,0.215
		c1.107,0,2.037-0.08,2.785-0.24c0.752-0.162,1.127-0.277,1.127-0.35c0-0.07-0.34-0.195-1.018-0.375
		c-0.287-0.07-0.715-0.143-1.287-0.215v-13.4c-0.395,0.035-0.93,0.053-1.607,0.053c-0.681,0-1.18-0.018-1.502-0.053v13.348
		C50.443,38.729,50.051,38.82,49.729,38.891z M55.305,49.557c0.678-0.178,1.018-0.303,1.018-0.375c0-0.07-0.375-0.195-1.127-0.375
		c-0.748-0.178-1.678-0.268-2.785-0.268c-1.109,0-2.021,0.09-2.734,0.268c-0.715,0.18-1.072,0.305-1.072,0.375
		c0,0.107,0.304,0.234,0.912,0.375c0.321,0.074,0.785,0.145,1.393,0.215v13.4c0.322-0.035,0.821-0.055,1.502-0.055
		c0.678,0,1.213,0.02,1.607,0.055v-13.4C54.59,49.701,55.018,49.631,55.305,49.557z M48.604,65.637c0,0.107,0.357,0.234,1.072,0.377
		c0.714,0.143,1.625,0.213,2.734,0.213c1.107,0,2.037-0.078,2.785-0.24c0.752-0.16,1.127-0.275,1.127-0.35
		c0-0.07-0.375-0.193-1.127-0.375c-0.748-0.178-1.678-0.268-2.785-0.268c-1.109,0-2.021,0.09-2.734,0.268
		C48.961,65.443,48.604,65.566,48.604,65.637z M49.729,81.664c-0.751,0.182-1.126,0.305-1.126,0.377
		c0,0.105,0.357,0.232,1.072,0.375c0.714,0.143,1.625,0.215,2.734,0.215c1.107,0,2.037-0.08,2.785-0.242
		c0.752-0.16,1.127-0.275,1.127-0.348s-0.34-0.195-1.018-0.377c-0.287-0.07-0.715-0.141-1.287-0.215v-13.4
		c-0.395,0.037-0.93,0.055-1.607,0.055c-0.681,0-1.18-0.018-1.502-0.055v13.348C50.443,81.504,50.051,81.594,49.729,81.664z"/>
</g>
</svg>
