<?xml version="1.0" encoding="utf-8"?>
<!-- Generator: Adobe Illustrator 16.0.0, SVG Export Plug-In . SVG Version: 6.00 Build 0)  -->
<!DOCTYPE svg PUBLIC "-//W3C//DTD SVG 1.1//EN" "http://www.w3.org/Graphics/SVG/1.1/DTD/svg11.dtd">
<svg version="1.1" id="Layer_1" xmlns="http://www.w3.org/2000/svg" xmlns:xlink="http://www.w3.org/1999/xlink" x="0px" y="0px"
	 width="66.334px" height="88.5px" viewBox="0 0 66.334 88.5" enable-background="new 0 0 66.334 88.5" xml:space="preserve">
<g>
	<path fill="#1F7529" d="M21.319,63.091c0-0.751-0.76-1.349-2.277-1.796c-1.52-0.446-3.242-0.67-5.174-0.67
		c-1.928,0-3.652,0.224-5.172,0.67c-1.518,0.447-2.277,1.045-2.277,1.796c0,0.822,0.895,1.465,2.68,1.93v5.682
		c-1.785,0.536-2.68,1.18-2.68,1.93c0,0.822,0.895,1.466,2.68,1.93v5.629c-1.785,0.536-2.68,1.197-2.68,1.983
		c0,0.822,0.768,1.429,2.305,1.822c1.535,0.394,3.252,0.59,5.145,0.59c1.895,0,3.609-0.196,5.146-0.59s2.305-1,2.305-1.822
		c0-0.786-0.895-1.447-2.68-1.983v-5.629c1.785-0.464,2.68-1.107,2.68-1.93c0-0.75-0.895-1.394-2.68-1.93v-5.682
		C20.425,64.556,21.319,63.914,21.319,63.091z M16.657,82.415c-0.75,0.162-1.682,0.241-2.789,0.241s-2.035-0.079-2.787-0.241
		c-0.75-0.16-1.125-0.276-1.125-0.349c0-0.071,0.34-0.195,1.02-0.374c0.285-0.071,0.713-0.143,1.285-0.215v-6.433
		c0.393,0.036,0.93,0.054,1.607,0.054c0.68,0,1.217-0.018,1.609-0.054v6.433c0.57,0.072,1,0.144,1.285,0.215
		c0.68,0.179,1.02,0.303,1.02,0.374C17.782,82.138,17.407,82.254,16.657,82.415z M16.657,72.981
		c-0.75,0.161-1.682,0.241-2.789,0.241s-2.035-0.08-2.787-0.241c-0.75-0.161-1.125-0.276-1.125-0.349
		c0-0.071,0.375-0.195,1.125-0.375c0.752-0.179,1.68-0.269,2.787-0.269s2.039,0.09,2.789,0.269c0.75,0.18,1.125,0.304,1.125,0.375
		C17.782,72.705,17.407,72.82,16.657,72.981z M16.763,63.52c-0.285,0.072-0.715,0.143-1.285,0.214v6.433
		c-0.393-0.035-0.93-0.054-1.609-0.054c-0.678,0-1.215,0.019-1.607,0.054v-6.433c-0.572-0.071-1-0.142-1.285-0.214
		c-0.68-0.178-1.02-0.304-1.02-0.375s0.375-0.196,1.125-0.375c0.752-0.179,1.68-0.268,2.787-0.268s2.039,0.089,2.789,0.268
		s1.125,0.304,1.125,0.375S17.442,63.342,16.763,63.52z"/>
	<path fill="#1F7529" d="M59.915,63.091c0-0.751-0.762-1.349-2.279-1.796c-1.52-0.446-3.244-0.67-5.172-0.67
		c-1.932,0-3.656,0.224-5.174,0.67c-1.52,0.447-2.277,1.045-2.277,1.796c0,0.822,0.893,1.465,2.68,1.93v5.682
		c-1.787,0.536-2.68,1.18-2.68,1.93c0,0.822,0.893,1.466,2.68,1.93v5.629c-1.787,0.536-2.68,1.197-2.68,1.983
		c0,0.822,0.768,1.429,2.303,1.822c1.539,0.394,3.254,0.59,5.148,0.59c1.893,0,3.607-0.196,5.145-0.59s2.307-1,2.307-1.822
		c0-0.786-0.895-1.447-2.682-1.983v-5.629c1.787-0.464,2.682-1.107,2.682-1.93c0-0.75-0.895-1.394-2.682-1.93v-5.682
		C59.021,64.556,59.915,63.914,59.915,63.091z M55.251,82.415c-0.752,0.162-1.682,0.241-2.787,0.241
		c-1.109,0-2.037-0.079-2.787-0.241c-0.752-0.16-1.127-0.276-1.127-0.349c0-0.071,0.338-0.195,1.02-0.374
		c0.285-0.071,0.713-0.143,1.285-0.215v-6.433c0.393,0.036,0.93,0.054,1.609,0.054c0.678,0,1.213-0.018,1.607-0.054v6.433
		c0.57,0.072,1,0.144,1.287,0.215c0.678,0.179,1.018,0.303,1.018,0.374C56.376,82.138,56.001,82.254,55.251,82.415z M55.251,72.981
		c-0.752,0.161-1.682,0.241-2.787,0.241c-1.109,0-2.037-0.08-2.787-0.241c-0.752-0.161-1.127-0.276-1.127-0.349
		c0-0.071,0.375-0.195,1.127-0.375c0.75-0.179,1.678-0.269,2.787-0.269c1.105,0,2.035,0.09,2.787,0.269
		c0.75,0.18,1.125,0.304,1.125,0.375C56.376,72.705,56.001,72.82,55.251,72.981z M55.358,63.52
		c-0.287,0.072-0.717,0.143-1.287,0.214v6.433c-0.395-0.035-0.93-0.054-1.607-0.054c-0.68,0-1.217,0.019-1.609,0.054v-6.433
		c-0.572-0.071-1-0.142-1.285-0.214c-0.682-0.178-1.02-0.304-1.02-0.375s0.375-0.196,1.127-0.375
		c0.75-0.179,1.678-0.268,2.787-0.268c1.105,0,2.035,0.089,2.787,0.268c0.75,0.179,1.125,0.304,1.125,0.375
		S56.036,63.342,55.358,63.52z"/>
	<path fill="#1F7529" d="M59.915,15.921c0-0.751-0.895-1.394-2.682-1.93V8.309c1.787-0.464,2.682-1.106,2.682-1.929
		c0-0.751-0.762-1.35-2.279-1.796c-1.52-0.446-3.244-0.67-5.172-0.67c-1.932,0-3.656,0.224-5.174,0.67
		c-1.52,0.446-2.277,1.045-2.277,1.796c0,0.822,0.893,1.465,2.68,1.929v5.683c-1.787,0.536-2.68,1.179-2.68,1.93
		c0,0.822,0.893,1.465,2.68,1.93v5.628c-1.787,0.536-2.68,1.198-2.68,1.983c0,0.822,0.768,1.43,2.303,1.822
		c1.539,0.394,3.254,0.591,5.148,0.591c1.893,0,3.607-0.197,5.145-0.591c1.537-0.393,2.307-1,2.307-1.822
		c0-0.785-0.895-1.447-2.682-1.983v-5.628C59.021,17.386,59.915,16.744,59.915,15.921z M55.251,25.704
		c-0.752,0.16-1.682,0.241-2.787,0.241c-1.109,0-2.037-0.081-2.787-0.241c-0.752-0.161-1.127-0.276-1.127-0.349
		c0-0.071,0.338-0.196,1.02-0.374c0.285-0.072,0.713-0.144,1.285-0.215v-6.433c0.393,0.036,0.93,0.054,1.609,0.054
		c0.678,0,1.213-0.018,1.607-0.054v6.433c0.57,0.071,1,0.143,1.287,0.215c0.678,0.178,1.018,0.303,1.018,0.374
		C56.376,25.427,56.001,25.542,55.251,25.704z M55.251,16.27c-0.752,0.16-1.682,0.241-2.787,0.241c-1.109,0-2.037-0.081-2.787-0.241
		c-0.752-0.161-1.127-0.277-1.127-0.349s0.375-0.196,1.127-0.375c0.75-0.179,1.678-0.269,2.787-0.269
		c1.105,0,2.035,0.09,2.787,0.269c0.75,0.179,1.125,0.304,1.125,0.375S56.001,16.109,55.251,16.27z M55.358,6.809
		c-0.287,0.071-0.717,0.143-1.287,0.214v6.433c-0.395-0.035-0.93-0.054-1.607-0.054c-0.68,0-1.217,0.019-1.609,0.054V7.023
		c-0.572-0.071-1-0.143-1.285-0.214c-0.682-0.179-1.02-0.304-1.02-0.375c0-0.072,0.375-0.196,1.127-0.376
		c0.75-0.179,1.678-0.269,2.787-0.269c1.105,0,2.035,0.09,2.787,0.269c0.75,0.18,1.125,0.304,1.125,0.376
		C56.376,6.505,56.036,6.63,55.358,6.809z"/>
	<path fill="#C6204F" d="M40.618,6.38c0-0.751-0.762-1.35-2.279-1.796c-1.52-0.446-3.242-0.67-5.172-0.67
		c-1.932,0-3.654,0.224-5.174,0.67s-2.277,1.045-2.277,1.796c0,0.822,0.893,1.465,2.68,1.929v5.683
		c-1.787,0.536-2.68,1.179-2.68,1.93c0,0.822,0.893,1.465,2.68,1.93v5.628c-1.787,0.536-2.68,1.198-2.68,1.983
		c0,0.822,0.768,1.43,2.305,1.822c1.537,0.394,3.252,0.591,5.146,0.591c1.893,0,3.607-0.197,5.145-0.591
		c1.535-0.393,2.307-1,2.307-1.822c0-0.785-0.896-1.447-2.682-1.983v-5.628c1.785-0.465,2.682-1.107,2.682-1.93
		c0-0.751-0.896-1.394-2.682-1.93V8.309C39.722,7.845,40.618,7.203,40.618,6.38z M35.954,25.704c-0.75,0.16-1.682,0.241-2.787,0.241
		c-1.109,0-2.039-0.081-2.787-0.241c-0.752-0.161-1.127-0.276-1.127-0.349c0-0.071,0.34-0.196,1.02-0.374
		c0.283-0.072,0.713-0.144,1.285-0.215v-6.433c0.393,0.036,0.93,0.054,1.609,0.054c0.678,0,1.215-0.018,1.607-0.054v6.433
		c0.572,0.071,1,0.143,1.285,0.215c0.68,0.178,1.02,0.303,1.02,0.374C37.079,25.427,36.704,25.542,35.954,25.704z M35.954,16.27
		c-0.75,0.16-1.682,0.241-2.787,0.241c-1.109,0-2.039-0.081-2.787-0.241c-0.752-0.161-1.127-0.277-1.127-0.349
		s0.375-0.196,1.127-0.375c0.748-0.179,1.678-0.269,2.787-0.269c1.105,0,2.037,0.09,2.787,0.269s1.125,0.304,1.125,0.375
		S36.704,16.109,35.954,16.27z M36.06,6.809c-0.285,0.071-0.713,0.143-1.285,0.214v6.433c-0.393-0.035-0.93-0.054-1.607-0.054
		c-0.68,0-1.217,0.019-1.609,0.054V7.023c-0.572-0.071-1.002-0.143-1.285-0.214c-0.68-0.179-1.02-0.304-1.02-0.375
		c0-0.072,0.375-0.196,1.127-0.376c0.748-0.179,1.678-0.269,2.787-0.269c1.105,0,2.037,0.09,2.787,0.269
		c0.75,0.18,1.125,0.304,1.125,0.376C37.079,6.505,36.739,6.63,36.06,6.809z"/>
	<path fill="#C6204F" d="M40.618,34.736c0-0.751-0.762-1.35-2.279-1.796c-1.52-0.447-3.242-0.67-5.172-0.67
		c-1.932,0-3.654,0.223-5.174,0.67c-1.52,0.446-2.277,1.045-2.277,1.796c0,0.822,0.893,1.465,2.68,1.93v5.682
		c-1.787,0.536-2.68,1.18-2.68,1.93c0,0.822,0.893,1.465,2.68,1.93v5.628c-1.787,0.536-2.68,1.198-2.68,1.984
		c0,0.822,0.768,1.429,2.305,1.821c1.537,0.394,3.252,0.59,5.146,0.59c1.893,0,3.607-0.196,5.145-0.59
		c1.535-0.393,2.307-0.999,2.307-1.821c0-0.786-0.896-1.448-2.682-1.984v-5.628c1.785-0.465,2.682-1.107,2.682-1.93
		c0-0.75-0.896-1.394-2.682-1.93v-5.682C39.722,36.201,40.618,35.558,40.618,34.736z M35.954,54.059
		c-0.75,0.161-1.682,0.241-2.787,0.241c-1.109,0-2.039-0.08-2.787-0.241c-0.752-0.161-1.127-0.276-1.127-0.349
		c0-0.07,0.34-0.196,1.02-0.374c0.283-0.072,0.713-0.144,1.285-0.215v-6.433c0.393,0.036,0.93,0.054,1.609,0.054
		c0.678,0,1.215-0.018,1.607-0.054v6.433c0.572,0.071,1,0.143,1.285,0.215c0.68,0.178,1.02,0.304,1.02,0.374
		C37.079,53.783,36.704,53.898,35.954,54.059z M35.954,44.625c-0.75,0.161-1.682,0.241-2.787,0.241c-1.109,0-2.039-0.08-2.787-0.241
		c-0.752-0.161-1.127-0.277-1.127-0.349s0.375-0.196,1.127-0.375c0.748-0.179,1.678-0.268,2.787-0.268
		c1.105,0,2.037,0.089,2.787,0.268s1.125,0.304,1.125,0.375S36.704,44.464,35.954,44.625z M36.06,35.165
		c-0.285,0.072-0.713,0.144-1.285,0.215v6.432c-0.393-0.035-0.93-0.054-1.607-0.054c-0.68,0-1.217,0.019-1.609,0.054v-6.432
		c-0.572-0.071-1.002-0.143-1.285-0.215c-0.68-0.179-1.02-0.304-1.02-0.375s0.375-0.196,1.127-0.376
		c0.748-0.178,1.678-0.268,2.787-0.268c1.105,0,2.037,0.09,2.787,0.268c0.75,0.18,1.125,0.305,1.125,0.376
		S36.739,34.986,36.06,35.165z"/>
	<path fill="#1F7529" d="M21.319,6.38c0-0.751-0.76-1.35-2.277-1.796c-1.52-0.446-3.242-0.67-5.174-0.67
		c-1.928,0-3.652,0.224-5.172,0.67C7.179,5.031,6.419,5.629,6.419,6.38c0,0.822,0.895,1.465,2.68,1.929v5.683
		c-1.785,0.536-2.68,1.179-2.68,1.93c0,0.822,0.895,1.465,2.68,1.93v5.628c-1.785,0.536-2.68,1.198-2.68,1.983
		c0,0.822,0.768,1.43,2.305,1.822c1.535,0.394,3.252,0.591,5.145,0.591c1.895,0,3.609-0.197,5.146-0.591
		c1.537-0.393,2.305-1,2.305-1.822c0-0.785-0.895-1.447-2.68-1.983v-5.628c1.785-0.465,2.68-1.107,2.68-1.93
		c0-0.751-0.895-1.394-2.68-1.93V8.309C20.425,7.845,21.319,7.203,21.319,6.38z M16.657,25.704c-0.75,0.16-1.682,0.241-2.789,0.241
		s-2.035-0.081-2.787-0.241c-0.75-0.161-1.125-0.276-1.125-0.349c0-0.071,0.34-0.196,1.02-0.374
		c0.285-0.072,0.713-0.144,1.285-0.215v-6.433c0.393,0.036,0.93,0.054,1.607,0.054c0.68,0,1.217-0.018,1.609-0.054v6.433
		c0.57,0.071,1,0.143,1.285,0.215c0.68,0.178,1.02,0.303,1.02,0.374C17.782,25.427,17.407,25.542,16.657,25.704z M16.657,16.27
		c-0.75,0.16-1.682,0.241-2.789,0.241s-2.035-0.081-2.787-0.241c-0.75-0.161-1.125-0.277-1.125-0.349s0.375-0.196,1.125-0.375
		c0.752-0.179,1.68-0.269,2.787-0.269s2.039,0.09,2.789,0.269s1.125,0.304,1.125,0.375S17.407,16.109,16.657,16.27z M16.763,6.809
		c-0.285,0.071-0.715,0.143-1.285,0.214v6.433c-0.393-0.035-0.93-0.054-1.609-0.054c-0.678,0-1.215,0.019-1.607,0.054V7.023
		c-0.572-0.071-1-0.143-1.285-0.214c-0.68-0.179-1.02-0.304-1.02-0.375c0-0.072,0.375-0.196,1.125-0.376
		c0.752-0.179,1.68-0.269,2.787-0.269s2.039,0.09,2.789,0.269c0.75,0.18,1.125,0.304,1.125,0.376
		C17.782,6.505,17.442,6.63,16.763,6.809z"/>
	<path fill="#C6204F" d="M40.618,63.091c0-0.751-0.762-1.349-2.279-1.796c-1.52-0.446-3.242-0.67-5.172-0.67
		c-1.932,0-3.654,0.224-5.174,0.67c-1.52,0.447-2.277,1.045-2.277,1.796c0,0.822,0.893,1.465,2.68,1.93v5.682
		c-1.787,0.536-2.68,1.18-2.68,1.93c0,0.822,0.893,1.466,2.68,1.93v5.629c-1.787,0.536-2.68,1.197-2.68,1.983
		c0,0.822,0.768,1.429,2.305,1.822s3.252,0.59,5.146,0.59c1.893,0,3.607-0.196,5.145-0.59c1.535-0.394,2.307-1,2.307-1.822
		c0-0.786-0.896-1.447-2.682-1.983v-5.629c1.785-0.464,2.682-1.107,2.682-1.93c0-0.75-0.896-1.394-2.682-1.93v-5.682
		C39.722,64.556,40.618,63.914,40.618,63.091z M35.954,82.415c-0.75,0.162-1.682,0.241-2.787,0.241
		c-1.109,0-2.039-0.079-2.787-0.241c-0.752-0.16-1.127-0.276-1.127-0.349c0-0.071,0.34-0.195,1.02-0.374
		c0.283-0.071,0.713-0.143,1.285-0.215v-6.433c0.393,0.036,0.93,0.054,1.609,0.054c0.678,0,1.215-0.018,1.607-0.054v6.433
		c0.572,0.072,1,0.144,1.285,0.215c0.68,0.179,1.02,0.303,1.02,0.374C37.079,82.138,36.704,82.254,35.954,82.415z M35.954,72.981
		c-0.75,0.161-1.682,0.241-2.787,0.241c-1.109,0-2.039-0.08-2.787-0.241c-0.752-0.161-1.127-0.276-1.127-0.349
		c0-0.071,0.375-0.195,1.127-0.375c0.748-0.179,1.678-0.269,2.787-0.269c1.105,0,2.037,0.09,2.787,0.269
		c0.75,0.18,1.125,0.304,1.125,0.375C37.079,72.705,36.704,72.82,35.954,72.981z M36.06,63.52c-0.285,0.072-0.713,0.143-1.285,0.214
		v6.433c-0.393-0.035-0.93-0.054-1.607-0.054c-0.68,0-1.217,0.019-1.609,0.054v-6.433c-0.572-0.071-1.002-0.142-1.285-0.214
		c-0.68-0.178-1.02-0.304-1.02-0.375s0.375-0.196,1.127-0.375c0.748-0.179,1.678-0.268,2.787-0.268c1.105,0,2.037,0.089,2.787,0.268
		s1.125,0.304,1.125,0.375S36.739,63.342,36.06,63.52z"/>
	<path fill="#1F7529" d="M21.319,34.736c0-0.751-0.76-1.35-2.277-1.796c-1.52-0.447-3.242-0.67-5.174-0.67
		c-1.928,0-3.652,0.223-5.172,0.67c-1.518,0.446-2.277,1.045-2.277,1.796c0,0.822,0.895,1.465,2.68,1.93v5.682
		c-1.785,0.536-2.68,1.18-2.68,1.93c0,0.822,0.895,1.465,2.68,1.93v5.628c-1.785,0.536-2.68,1.198-2.68,1.984
		c0,0.822,0.768,1.429,2.305,1.821c1.535,0.394,3.252,0.59,5.145,0.59c1.895,0,3.609-0.196,5.146-0.59
		c1.537-0.393,2.305-0.999,2.305-1.821c0-0.786-0.895-1.448-2.68-1.984v-5.628c1.785-0.465,2.68-1.107,2.68-1.93
		c0-0.75-0.895-1.394-2.68-1.93v-5.682C20.425,36.201,21.319,35.558,21.319,34.736z M16.657,54.059
		c-0.75,0.161-1.682,0.241-2.789,0.241s-2.035-0.08-2.787-0.241c-0.75-0.161-1.125-0.276-1.125-0.349c0-0.07,0.34-0.196,1.02-0.374
		c0.285-0.072,0.713-0.144,1.285-0.215v-6.433c0.393,0.036,0.93,0.054,1.607,0.054c0.68,0,1.217-0.018,1.609-0.054v6.433
		c0.57,0.071,1,0.143,1.285,0.215c0.68,0.178,1.02,0.304,1.02,0.374C17.782,53.783,17.407,53.898,16.657,54.059z M16.657,44.625
		c-0.75,0.161-1.682,0.241-2.789,0.241s-2.035-0.08-2.787-0.241c-0.75-0.161-1.125-0.277-1.125-0.349s0.375-0.196,1.125-0.375
		c0.752-0.179,1.68-0.268,2.787-0.268s2.039,0.089,2.789,0.268s1.125,0.304,1.125,0.375S17.407,44.464,16.657,44.625z
		 M16.763,35.165c-0.285,0.072-0.715,0.144-1.285,0.215v6.432c-0.393-0.035-0.93-0.054-1.609-0.054
		c-0.678,0-1.215,0.019-1.607,0.054v-6.432c-0.572-0.071-1-0.143-1.285-0.215c-0.68-0.179-1.02-0.304-1.02-0.375
		s0.375-0.196,1.125-0.376c0.752-0.178,1.68-0.268,2.787-0.268s2.039,0.09,2.789,0.268c0.75,0.18,1.125,0.305,1.125,0.376
		S17.442,34.986,16.763,35.165z"/>
	<path fill="#1F7529" d="M59.915,34.736c0-0.751-0.762-1.35-2.279-1.796c-1.52-0.447-3.244-0.67-5.172-0.67
		c-1.932,0-3.656,0.223-5.174,0.67c-1.52,0.446-2.277,1.045-2.277,1.796c0,0.822,0.893,1.465,2.68,1.93v5.682
		c-1.787,0.536-2.68,1.18-2.68,1.93c0,0.822,0.893,1.465,2.68,1.93v5.628c-1.787,0.536-2.68,1.198-2.68,1.984
		c0,0.822,0.768,1.429,2.303,1.821c1.539,0.394,3.254,0.59,5.148,0.59c1.893,0,3.607-0.196,5.145-0.59
		c1.537-0.393,2.307-0.999,2.307-1.821c0-0.786-0.895-1.448-2.682-1.984v-5.628c1.787-0.465,2.682-1.107,2.682-1.93
		c0-0.75-0.895-1.394-2.682-1.93v-5.682C59.021,36.201,59.915,35.558,59.915,34.736z M55.251,54.059
		c-0.752,0.161-1.682,0.241-2.787,0.241c-1.109,0-2.037-0.08-2.787-0.241c-0.752-0.161-1.127-0.276-1.127-0.349
		c0-0.07,0.338-0.196,1.02-0.374c0.285-0.072,0.713-0.144,1.285-0.215v-6.433c0.393,0.036,0.93,0.054,1.609,0.054
		c0.678,0,1.213-0.018,1.607-0.054v6.433c0.57,0.071,1,0.143,1.287,0.215c0.678,0.178,1.018,0.304,1.018,0.374
		C56.376,53.783,56.001,53.898,55.251,54.059z M55.251,44.625c-0.752,0.161-1.682,0.241-2.787,0.241
		c-1.109,0-2.037-0.08-2.787-0.241c-0.752-0.161-1.127-0.277-1.127-0.349s0.375-0.196,1.127-0.375
		c0.75-0.179,1.678-0.268,2.787-0.268c1.105,0,2.035,0.089,2.787,0.268c0.75,0.179,1.125,0.304,1.125,0.375
		S56.001,44.464,55.251,44.625z M55.358,35.165c-0.287,0.072-0.717,0.144-1.287,0.215v6.432c-0.395-0.035-0.93-0.054-1.607-0.054
		c-0.68,0-1.217,0.019-1.609,0.054v-6.432c-0.572-0.071-1-0.143-1.285-0.215c-0.682-0.179-1.02-0.304-1.02-0.375
		s0.375-0.196,1.127-0.376c0.75-0.178,1.678-0.268,2.787-0.268c1.105,0,2.035,0.09,2.787,0.268c0.75,0.18,1.125,0.305,1.125,0.376
		S56.036,34.986,55.358,35.165z"/>
</g>
</svg>
