<?xml version="1.0" encoding="utf-8"?>
<!-- Generator: Adobe Illustrator 16.0.0, SVG Export Plug-In . SVG Version: 6.00 Build 0)  -->
<!DOCTYPE svg PUBLIC "-//W3C//DTD SVG 1.1//EN" "http://www.w3.org/Graphics/SVG/1.1/DTD/svg11.dtd">
<svg version="1.1" id="Layer_1" xmlns="http://www.w3.org/2000/svg" xmlns:xlink="http://www.w3.org/1999/xlink" x="0px" y="0px"
	 width="66.334px" height="88.5px" viewBox="0 0 66.334 88.5" enable-background="new 0 0 66.334 88.5" xml:space="preserve">
<g>
	<g>
		<path fill="#1F7529" d="M22.65,60.155c0-0.684-0.692-1.229-2.075-1.636c-1.384-0.407-2.954-0.61-4.712-0.61
			s-3.329,0.204-4.712,0.61c-1.384,0.407-2.075,0.952-2.075,1.636c0,0.749,0.813,1.335,2.441,1.758v5.176
			c-1.628,0.488-2.441,1.074-2.441,1.758c0,0.749,0.813,1.335,2.441,1.758v5.127c-1.628,0.488-2.441,1.091-2.441,1.807
			c0,0.749,0.699,1.302,2.1,1.66c1.399,0.358,2.962,0.537,4.688,0.537c1.725,0,3.287-0.179,4.688-0.537
			c1.399-0.358,2.1-0.911,2.1-1.66c0-0.716-0.814-1.318-2.441-1.807v-5.127c1.627-0.423,2.441-1.009,2.441-1.758
			c0-0.684-0.814-1.27-2.441-1.758v-5.176C21.836,61.49,22.65,60.904,22.65,60.155z M18.402,77.757
			c-0.684,0.146-1.53,0.22-2.539,0.22c-1.01,0-1.855-0.073-2.539-0.22s-1.025-0.252-1.025-0.317c0-0.065,0.309-0.179,0.928-0.342
			c0.26-0.065,0.65-0.13,1.172-0.195v-5.859c0.357,0.033,0.846,0.049,1.465,0.049c0.618,0,1.106-0.016,1.465-0.049v5.859
			c0.521,0.065,0.911,0.13,1.172,0.195c0.618,0.163,0.928,0.277,0.928,0.342C19.428,77.505,19.086,77.611,18.402,77.757z
			 M18.402,69.164c-0.684,0.146-1.53,0.22-2.539,0.22c-1.01,0-1.855-0.073-2.539-0.22s-1.025-0.252-1.025-0.317
			c0-0.065,0.342-0.179,1.025-0.342c0.684-0.163,1.529-0.244,2.539-0.244c1.009,0,1.855,0.082,2.539,0.244
			c0.684,0.163,1.025,0.277,1.025,0.342C19.428,68.912,19.086,69.017,18.402,69.164z M18.5,60.545
			c-0.261,0.065-0.651,0.13-1.172,0.195V66.6c-0.358-0.032-0.847-0.049-1.465-0.049c-0.619,0-1.107,0.017-1.465,0.049v-5.859
			c-0.521-0.065-0.912-0.13-1.172-0.195c-0.619-0.163-0.928-0.276-0.928-0.342c0-0.065,0.342-0.179,1.025-0.342
			c0.684-0.163,1.529-0.244,2.539-0.244c1.009,0,1.855,0.082,2.539,0.244c0.684,0.163,1.025,0.277,1.025,0.342
			C19.428,60.269,19.118,60.383,18.5,60.545z"/>
		<path fill="#1F7529" d="M57.807,60.155c0-0.684-0.692-1.229-2.075-1.636c-1.384-0.407-2.954-0.61-4.712-0.61
			s-3.329,0.204-4.712,0.61c-1.384,0.407-2.075,0.952-2.075,1.636c0,0.749,0.813,1.335,2.441,1.758v5.176
			c-1.628,0.488-2.441,1.074-2.441,1.758c0,0.749,0.813,1.335,2.441,1.758v5.127c-1.628,0.488-2.441,1.091-2.441,1.807
			c0,0.749,0.699,1.302,2.1,1.66c1.399,0.358,2.962,0.537,4.688,0.537c1.725,0,3.287-0.179,4.688-0.537
			c1.399-0.358,2.1-0.911,2.1-1.66c0-0.716-0.814-1.318-2.441-1.807v-5.127c1.627-0.423,2.441-1.009,2.441-1.758
			c0-0.684-0.814-1.27-2.441-1.758v-5.176C56.992,61.49,57.807,60.904,57.807,60.155z M53.559,77.757
			c-0.684,0.146-1.53,0.22-2.539,0.22c-1.01,0-1.855-0.073-2.539-0.22s-1.025-0.252-1.025-0.317c0-0.065,0.309-0.179,0.928-0.342
			c0.26-0.065,0.65-0.13,1.172-0.195v-5.859c0.357,0.033,0.846,0.049,1.465,0.049c0.618,0,1.106-0.016,1.465-0.049v5.859
			c0.521,0.065,0.911,0.13,1.172,0.195c0.618,0.163,0.928,0.277,0.928,0.342C54.584,77.505,54.242,77.611,53.559,77.757z
			 M53.559,69.164c-0.684,0.146-1.53,0.22-2.539,0.22c-1.01,0-1.855-0.073-2.539-0.22s-1.025-0.252-1.025-0.317
			c0-0.065,0.342-0.179,1.025-0.342c0.684-0.163,1.529-0.244,2.539-0.244c1.009,0,1.855,0.082,2.539,0.244
			c0.684,0.163,1.025,0.277,1.025,0.342C54.584,68.912,54.242,69.017,53.559,69.164z M53.656,60.545
			c-0.261,0.065-0.651,0.13-1.172,0.195V66.6c-0.358-0.032-0.847-0.049-1.465-0.049c-0.619,0-1.107,0.017-1.465,0.049v-5.859
			c-0.521-0.065-0.912-0.13-1.172-0.195c-0.619-0.163-0.928-0.276-0.928-0.342c0-0.065,0.342-0.179,1.025-0.342
			c0.684-0.163,1.529-0.244,2.539-0.244c1.009,0,1.855,0.082,2.539,0.244c0.684,0.163,1.025,0.277,1.025,0.342
			C54.584,60.269,54.274,60.383,53.656,60.545z"/>
		<path fill="#1F7529" d="M57.807,17.186c0-0.684-0.814-1.27-2.441-1.758v-5.176c1.627-0.423,2.441-1.009,2.441-1.758
			c0-0.684-0.692-1.229-2.075-1.636c-1.384-0.407-2.954-0.61-4.712-0.61s-3.329,0.204-4.712,0.61
			c-1.384,0.407-2.075,0.952-2.075,1.636c0,0.749,0.813,1.335,2.441,1.758v5.176c-1.628,0.488-2.441,1.074-2.441,1.758
			c0,0.749,0.813,1.335,2.441,1.758v5.127c-1.628,0.488-2.441,1.091-2.441,1.807c0,0.749,0.699,1.302,2.1,1.66
			c1.399,0.358,2.962,0.537,4.688,0.537c1.725,0,3.287-0.179,4.688-0.537c1.399-0.358,2.1-0.911,2.1-1.66
			c0-0.716-0.814-1.318-2.441-1.807v-5.127C56.992,18.521,57.807,17.935,57.807,17.186z M53.559,26.097
			c-0.684,0.146-1.53,0.22-2.539,0.22c-1.01,0-1.855-0.073-2.539-0.22s-1.025-0.252-1.025-0.317c0-0.065,0.309-0.179,0.928-0.342
			c0.26-0.065,0.65-0.13,1.172-0.195v-5.859c0.357,0.033,0.846,0.049,1.465,0.049c0.618,0,1.106-0.016,1.465-0.049v5.859
			c0.521,0.065,0.911,0.13,1.172,0.195c0.618,0.163,0.928,0.277,0.928,0.342C54.584,25.845,54.242,25.951,53.559,26.097z
			 M53.559,17.503c-0.684,0.146-1.53,0.22-2.539,0.22c-1.01,0-1.855-0.073-2.539-0.22s-1.025-0.252-1.025-0.317
			c0-0.065,0.342-0.179,1.025-0.342c0.684-0.163,1.529-0.244,2.539-0.244c1.009,0,1.855,0.082,2.539,0.244
			c0.684,0.163,1.025,0.277,1.025,0.342C54.584,17.251,54.242,17.357,53.559,17.503z M53.656,8.885
			c-0.261,0.065-0.651,0.13-1.172,0.195v5.859c-0.358-0.032-0.847-0.049-1.465-0.049c-0.619,0-1.107,0.017-1.465,0.049V9.081
			c-0.521-0.065-0.912-0.13-1.172-0.195c-0.619-0.163-0.928-0.276-0.928-0.342c0-0.065,0.342-0.179,1.025-0.342
			c0.684-0.163,1.529-0.244,2.539-0.244c1.009,0,1.855,0.082,2.539,0.244c0.684,0.163,1.025,0.277,1.025,0.342
			C54.584,8.609,54.274,8.723,53.656,8.885z"/>
		<path fill="#C6204F" d="M40.229,8.495c0-0.684-0.692-1.229-2.075-1.636c-1.384-0.407-2.954-0.61-4.712-0.61
			s-3.329,0.204-4.712,0.61c-1.384,0.407-2.075,0.952-2.075,1.636c0,0.749,0.813,1.335,2.441,1.758v5.176
			c-1.628,0.488-2.441,1.074-2.441,1.758c0,0.749,0.813,1.335,2.441,1.758v5.127c-1.628,0.488-2.441,1.091-2.441,1.807
			c0,0.749,0.699,1.302,2.1,1.66c1.399,0.358,2.962,0.537,4.688,0.537c1.725,0,3.287-0.179,4.688-0.537
			c1.399-0.358,2.1-0.911,2.1-1.66c0-0.716-0.814-1.318-2.441-1.807v-5.127c1.627-0.423,2.441-1.009,2.441-1.758
			c0-0.684-0.814-1.27-2.441-1.758v-5.176C39.414,9.83,40.229,9.244,40.229,8.495z M35.98,26.097c-0.684,0.146-1.53,0.22-2.539,0.22
			c-1.01,0-1.855-0.073-2.539-0.22s-1.025-0.252-1.025-0.317c0-0.065,0.309-0.179,0.928-0.342c0.26-0.065,0.65-0.13,1.172-0.195
			v-5.859c0.357,0.033,0.846,0.049,1.465,0.049c0.618,0,1.106-0.016,1.465-0.049v5.859c0.521,0.065,0.911,0.13,1.172,0.195
			c0.618,0.163,0.928,0.277,0.928,0.342C37.006,25.845,36.664,25.951,35.98,26.097z M35.98,17.503
			c-0.684,0.146-1.53,0.22-2.539,0.22c-1.01,0-1.855-0.073-2.539-0.22s-1.025-0.252-1.025-0.317c0-0.065,0.342-0.179,1.025-0.342
			c0.684-0.163,1.529-0.244,2.539-0.244c1.009,0,1.855,0.082,2.539,0.244c0.684,0.163,1.025,0.277,1.025,0.342
			C37.006,17.251,36.664,17.357,35.98,17.503z M36.078,8.885c-0.261,0.065-0.651,0.13-1.172,0.195v5.859
			c-0.358-0.032-0.847-0.049-1.465-0.049c-0.619,0-1.107,0.017-1.465,0.049V9.081c-0.521-0.065-0.912-0.13-1.172-0.195
			c-0.619-0.163-0.928-0.276-0.928-0.342c0-0.065,0.342-0.179,1.025-0.342c0.684-0.163,1.529-0.244,2.539-0.244
			c1.009,0,1.855,0.082,2.539,0.244c0.684,0.163,1.025,0.277,1.025,0.342C37.006,8.609,36.696,8.723,36.078,8.885z"/>
		<path fill="#C6204F" d="M40.229,34.325c0-0.684-0.692-1.229-2.075-1.636c-1.384-0.407-2.954-0.61-4.712-0.61
			s-3.329,0.204-4.712,0.61c-1.384,0.407-2.075,0.952-2.075,1.636c0,0.749,0.813,1.335,2.441,1.758v5.176
			c-1.628,0.488-2.441,1.074-2.441,1.758c0,0.749,0.813,1.335,2.441,1.758v5.127c-1.628,0.488-2.441,1.091-2.441,1.807
			c0,0.749,0.699,1.302,2.1,1.66c1.399,0.358,2.962,0.537,4.688,0.537c1.725,0,3.287-0.179,4.688-0.537
			c1.399-0.358,2.1-0.911,2.1-1.66c0-0.716-0.814-1.318-2.441-1.807v-5.127c1.627-0.423,2.441-1.009,2.441-1.758
			c0-0.684-0.814-1.27-2.441-1.758v-5.176C39.414,35.66,40.229,35.074,40.229,34.325z M35.98,51.927
			c-0.684,0.146-1.53,0.22-2.539,0.22c-1.01,0-1.855-0.073-2.539-0.22s-1.025-0.252-1.025-0.317c0-0.065,0.309-0.179,0.928-0.342
			c0.26-0.065,0.65-0.13,1.172-0.195v-5.859c0.357,0.033,0.846,0.049,1.465,0.049c0.618,0,1.106-0.016,1.465-0.049v5.859
			c0.521,0.065,0.911,0.13,1.172,0.195c0.618,0.163,0.928,0.277,0.928,0.342C37.006,51.675,36.664,51.781,35.98,51.927z
			 M35.98,43.333c-0.684,0.146-1.53,0.22-2.539,0.22c-1.01,0-1.855-0.073-2.539-0.22s-1.025-0.252-1.025-0.317
			c0-0.065,0.342-0.179,1.025-0.342c0.684-0.163,1.529-0.244,2.539-0.244c1.009,0,1.855,0.082,2.539,0.244
			c0.684,0.163,1.025,0.277,1.025,0.342C37.006,43.082,36.664,43.187,35.98,43.333z M36.078,34.715
			c-0.261,0.065-0.651,0.13-1.172,0.195v5.859c-0.358-0.032-0.847-0.049-1.465-0.049c-0.619,0-1.107,0.017-1.465,0.049v-5.859
			c-0.521-0.065-0.912-0.13-1.172-0.195c-0.619-0.163-0.928-0.276-0.928-0.342c0-0.065,0.342-0.179,1.025-0.342
			c0.684-0.163,1.529-0.244,2.539-0.244c1.009,0,1.855,0.082,2.539,0.244c0.684,0.163,1.025,0.277,1.025,0.342
			C37.006,34.439,36.696,34.553,36.078,34.715z"/>
		<path fill="#1F7529" d="M22.65,8.495c0-0.684-0.692-1.229-2.075-1.636c-1.384-0.407-2.954-0.61-4.712-0.61
			s-3.329,0.204-4.712,0.61C9.768,7.266,9.076,7.811,9.076,8.495c0,0.749,0.813,1.335,2.441,1.758v5.176
			c-1.628,0.488-2.441,1.074-2.441,1.758c0,0.749,0.813,1.335,2.441,1.758v5.127c-1.628,0.488-2.441,1.091-2.441,1.807
			c0,0.749,0.699,1.302,2.1,1.66c1.399,0.358,2.962,0.537,4.688,0.537c1.725,0,3.287-0.179,4.688-0.537
			c1.399-0.358,2.1-0.911,2.1-1.66c0-0.716-0.814-1.318-2.441-1.807v-5.127c1.627-0.423,2.441-1.009,2.441-1.758
			c0-0.684-0.814-1.27-2.441-1.758v-5.176C21.836,9.83,22.65,9.244,22.65,8.495z M18.402,26.097c-0.684,0.146-1.53,0.22-2.539,0.22
			c-1.01,0-1.855-0.073-2.539-0.22s-1.025-0.252-1.025-0.317c0-0.065,0.309-0.179,0.928-0.342c0.26-0.065,0.65-0.13,1.172-0.195
			v-5.859c0.357,0.033,0.846,0.049,1.465,0.049c0.618,0,1.106-0.016,1.465-0.049v5.859c0.521,0.065,0.911,0.13,1.172,0.195
			c0.618,0.163,0.928,0.277,0.928,0.342C19.428,25.845,19.086,25.951,18.402,26.097z M18.402,17.503
			c-0.684,0.146-1.53,0.22-2.539,0.22c-1.01,0-1.855-0.073-2.539-0.22s-1.025-0.252-1.025-0.317c0-0.065,0.342-0.179,1.025-0.342
			c0.684-0.163,1.529-0.244,2.539-0.244c1.009,0,1.855,0.082,2.539,0.244c0.684,0.163,1.025,0.277,1.025,0.342
			C19.428,17.251,19.086,17.357,18.402,17.503z M18.5,8.885c-0.261,0.065-0.651,0.13-1.172,0.195v5.859
			c-0.358-0.032-0.847-0.049-1.465-0.049c-0.619,0-1.107,0.017-1.465,0.049V9.081c-0.521-0.065-0.912-0.13-1.172-0.195
			c-0.619-0.163-0.928-0.276-0.928-0.342c0-0.065,0.342-0.179,1.025-0.342c0.684-0.163,1.529-0.244,2.539-0.244
			c1.009,0,1.855,0.082,2.539,0.244c0.684,0.163,1.025,0.277,1.025,0.342C19.428,8.609,19.118,8.723,18.5,8.885z"/>
		<path fill="#C6204F" d="M40.229,60.155c0-0.684-0.692-1.229-2.075-1.636c-1.384-0.407-2.954-0.61-4.712-0.61
			s-3.329,0.204-4.712,0.61c-1.384,0.407-2.075,0.952-2.075,1.636c0,0.749,0.813,1.335,2.441,1.758v5.176
			c-1.628,0.488-2.441,1.074-2.441,1.758c0,0.749,0.813,1.335,2.441,1.758v5.127c-1.628,0.488-2.441,1.091-2.441,1.807
			c0,0.749,0.699,1.302,2.1,1.66c1.399,0.358,2.962,0.537,4.688,0.537c1.725,0,3.287-0.179,4.688-0.537
			c1.399-0.358,2.1-0.911,2.1-1.66c0-0.716-0.814-1.318-2.441-1.807v-5.127c1.627-0.423,2.441-1.009,2.441-1.758
			c0-0.684-0.814-1.27-2.441-1.758v-5.176C39.414,61.49,40.229,60.904,40.229,60.155z M35.98,77.757
			c-0.684,0.146-1.53,0.22-2.539,0.22c-1.01,0-1.855-0.073-2.539-0.22s-1.025-0.252-1.025-0.317c0-0.065,0.309-0.179,0.928-0.342
			c0.26-0.065,0.65-0.13,1.172-0.195v-5.859c0.357,0.033,0.846,0.049,1.465,0.049c0.618,0,1.106-0.016,1.465-0.049v5.859
			c0.521,0.065,0.911,0.13,1.172,0.195c0.618,0.163,0.928,0.277,0.928,0.342C37.006,77.505,36.664,77.611,35.98,77.757z
			 M35.98,69.164c-0.684,0.146-1.53,0.22-2.539,0.22c-1.01,0-1.855-0.073-2.539-0.22s-1.025-0.252-1.025-0.317
			c0-0.065,0.342-0.179,1.025-0.342c0.684-0.163,1.529-0.244,2.539-0.244c1.009,0,1.855,0.082,2.539,0.244
			c0.684,0.163,1.025,0.277,1.025,0.342C37.006,68.912,36.664,69.017,35.98,69.164z M36.078,60.545
			c-0.261,0.065-0.651,0.13-1.172,0.195V66.6c-0.358-0.032-0.847-0.049-1.465-0.049c-0.619,0-1.107,0.017-1.465,0.049v-5.859
			c-0.521-0.065-0.912-0.13-1.172-0.195c-0.619-0.163-0.928-0.276-0.928-0.342c0-0.065,0.342-0.179,1.025-0.342
			c0.684-0.163,1.529-0.244,2.539-0.244c1.009,0,1.855,0.082,2.539,0.244c0.684,0.163,1.025,0.277,1.025,0.342
			C37.006,60.269,36.696,60.383,36.078,60.545z"/>
		<path fill="#1F7529" d="M22.65,34.325c0-0.684-0.692-1.229-2.075-1.636c-1.384-0.407-2.954-0.61-4.712-0.61
			s-3.329,0.204-4.712,0.61c-1.384,0.407-2.075,0.952-2.075,1.636c0,0.749,0.813,1.335,2.441,1.758v5.176
			c-1.628,0.488-2.441,1.074-2.441,1.758c0,0.749,0.813,1.335,2.441,1.758v5.127c-1.628,0.488-2.441,1.091-2.441,1.807
			c0,0.749,0.699,1.302,2.1,1.66c1.399,0.358,2.962,0.537,4.688,0.537c1.725,0,3.287-0.179,4.688-0.537
			c1.399-0.358,2.1-0.911,2.1-1.66c0-0.716-0.814-1.318-2.441-1.807v-5.127c1.627-0.423,2.441-1.009,2.441-1.758
			c0-0.684-0.814-1.27-2.441-1.758v-5.176C21.836,35.66,22.65,35.074,22.65,34.325z M18.402,51.927
			c-0.684,0.146-1.53,0.22-2.539,0.22c-1.01,0-1.855-0.073-2.539-0.22s-1.025-0.252-1.025-0.317c0-0.065,0.309-0.179,0.928-0.342
			c0.26-0.065,0.65-0.13,1.172-0.195v-5.859c0.357,0.033,0.846,0.049,1.465,0.049c0.618,0,1.106-0.016,1.465-0.049v5.859
			c0.521,0.065,0.911,0.13,1.172,0.195c0.618,0.163,0.928,0.277,0.928,0.342C19.428,51.675,19.086,51.781,18.402,51.927z
			 M18.402,43.333c-0.684,0.146-1.53,0.22-2.539,0.22c-1.01,0-1.855-0.073-2.539-0.22s-1.025-0.252-1.025-0.317
			c0-0.065,0.342-0.179,1.025-0.342c0.684-0.163,1.529-0.244,2.539-0.244c1.009,0,1.855,0.082,2.539,0.244
			c0.684,0.163,1.025,0.277,1.025,0.342C19.428,43.082,19.086,43.187,18.402,43.333z M18.5,34.715
			c-0.261,0.065-0.651,0.13-1.172,0.195v5.859c-0.358-0.032-0.847-0.049-1.465-0.049c-0.619,0-1.107,0.017-1.465,0.049v-5.859
			c-0.521-0.065-0.912-0.13-1.172-0.195c-0.619-0.163-0.928-0.276-0.928-0.342c0-0.065,0.342-0.179,1.025-0.342
			c0.684-0.163,1.529-0.244,2.539-0.244c1.009,0,1.855,0.082,2.539,0.244c0.684,0.163,1.025,0.277,1.025,0.342
			C19.428,34.439,19.118,34.553,18.5,34.715z"/>
		<path fill="#1F7529" d="M57.807,34.325c0-0.684-0.692-1.229-2.075-1.636c-1.384-0.407-2.954-0.61-4.712-0.61
			s-3.329,0.204-4.712,0.61c-1.384,0.407-2.075,0.952-2.075,1.636c0,0.749,0.813,1.335,2.441,1.758v5.176
			c-1.628,0.488-2.441,1.074-2.441,1.758c0,0.749,0.813,1.335,2.441,1.758v5.127c-1.628,0.488-2.441,1.091-2.441,1.807
			c0,0.749,0.699,1.302,2.1,1.66c1.399,0.358,2.962,0.537,4.688,0.537c1.725,0,3.287-0.179,4.688-0.537
			c1.399-0.358,2.1-0.911,2.1-1.66c0-0.716-0.814-1.318-2.441-1.807v-5.127c1.627-0.423,2.441-1.009,2.441-1.758
			c0-0.684-0.814-1.27-2.441-1.758v-5.176C56.992,35.66,57.807,35.074,57.807,34.325z M53.559,51.927
			c-0.684,0.146-1.53,0.22-2.539,0.22c-1.01,0-1.855-0.073-2.539-0.22s-1.025-0.252-1.025-0.317c0-0.065,0.309-0.179,0.928-0.342
			c0.26-0.065,0.65-0.13,1.172-0.195v-5.859c0.357,0.033,0.846,0.049,1.465,0.049c0.618,0,1.106-0.016,1.465-0.049v5.859
			c0.521,0.065,0.911,0.13,1.172,0.195c0.618,0.163,0.928,0.277,0.928,0.342C54.584,51.675,54.242,51.781,53.559,51.927z
			 M53.559,43.333c-0.684,0.146-1.53,0.22-2.539,0.22c-1.01,0-1.855-0.073-2.539-0.22s-1.025-0.252-1.025-0.317
			c0-0.065,0.342-0.179,1.025-0.342c0.684-0.163,1.529-0.244,2.539-0.244c1.009,0,1.855,0.082,2.539,0.244
			c0.684,0.163,1.025,0.277,1.025,0.342C54.584,43.082,54.242,43.187,53.559,43.333z M53.656,34.715
			c-0.261,0.065-0.651,0.13-1.172,0.195v5.859c-0.358-0.032-0.847-0.049-1.465-0.049c-0.619,0-1.107,0.017-1.465,0.049v-5.859
			c-0.521-0.065-0.912-0.13-1.172-0.195c-0.619-0.163-0.928-0.276-0.928-0.342c0-0.065,0.342-0.179,1.025-0.342
			c0.684-0.163,1.529-0.244,2.539-0.244c1.009,0,1.855,0.082,2.539,0.244c0.684,0.163,1.025,0.277,1.025,0.342
			C54.584,34.439,54.274,34.553,53.656,34.715z"/>
	</g>
</g>
</svg>
