<?xml version="1.0" encoding="utf-8"?>
<!-- Generator: Adobe Illustrator 16.0.0, SVG Export Plug-In . SVG Version: 6.00 Build 0)  -->
<!DOCTYPE svg PUBLIC "-//W3C//DTD SVG 1.1//EN" "http://www.w3.org/Graphics/SVG/1.1/DTD/svg11.dtd">
<svg version="1.1" id="Layer_1" xmlns="http://www.w3.org/2000/svg" xmlns:xlink="http://www.w3.org/1999/xlink" x="0px" y="0px"
	 width="66.334px" height="88.5px" viewBox="0 0 66.334 88.5" enable-background="new 0 0 66.334 88.5" xml:space="preserve">
<g>
	<path fill="#283E99" d="M30.127,76.589c-0.619,0-1.091-0.324-1.416-0.977c-0.195-0.488-0.732-1.285-1.611-2.393
		c-0.879-1.105-1.872-2.205-2.979-3.295c-1.107-1.092-2.295-2.059-3.564-2.906c-1.27-0.812-1.904-1.562-1.904-2.246
		c4.492,1.434,8.154,2.23,10.986,2.393l-0.635-14.209c-2.409,3.744-5.599,6.674-9.57,8.789c-3.972,2.117-7.666,3.125-11.084,3.027
		l1.611-0.879c7.063-4.035,13.004-9.033,17.822-14.99c-2.539,1.107-4.004,1.66-4.395,1.66c-0.488,0-0.847-0.129-1.074-0.391
		c-0.326-0.488-0.716-1.285-1.172-2.393c-1.042-2.604-2.132-4.963-3.271-7.08c-1.14-2.115-2.604-4.199-4.395-6.25
		c1.009-0.098,2.799,0.049,5.371,0.439c1.432,0.262,3.499-0.129,6.201-1.172l3.955-1.465v-3.223
		c-2.409,0.75-4.167,1.221-5.273,1.416c-1.855,0.326-3.255-0.52-4.199-2.539l9.473-2.344c0-3.449-0.277-5.729-0.83-6.836
		c-0.554-1.105-1.888-1.904-4.004-2.393c1.888-0.812,3.092-1.822,3.613-3.027c0.651,1.01,1.668,1.938,3.052,2.783
		c1.383,0.848,3.198,1.482,5.444,1.904c-1.172,1.01-1.904,2.93-2.197,5.762c2.734-0.879,4.362-1.318,4.883-1.318
		c0.521,0,1.204,0.277,2.051,0.83c0.846,0.555,1.27,0.977,1.27,1.27c0,1.01-0.993,1.727-2.979,2.148l-5.371,1.27v3.223
		c4.655-1.562,7.454-2.375,8.398-2.441c3.938,1.498,6.526,3.402,7.764,5.713c0,0.229-0.261,0.684-0.781,1.367
		c-1.66,2.344-2.808,4.451-3.442,6.324c-0.635,1.871-1.571,3.459-2.808,4.76c-1.27,1.4-2.441,2.1-3.516,2.1l-3.76-0.732
		c5.241,5.047,11.556,8.416,18.945,10.107l6.25,1.367c0,0.814-1.058,1.367-3.174,1.66c-1.986,0.293-3.857,0.896-5.615,1.807
		c-1.595,0.814-2.702,1.221-3.32,1.221c-0.847,0-1.864-0.561-3.052-1.684c-1.188-1.123-2.694-2.629-4.517-4.518l-7.373-7.666
		c0,3.516,0.154,6.951,0.464,10.303c0.309,3.354,0.464,5.908,0.464,7.666c0,2.441-0.448,4.395-1.343,5.859
		C32.625,75.857,31.494,76.589,30.127,76.589z M25.244,47.634l3.76-0.928v-3.76c-1.791,0.326-3.304-0.293-4.541-1.855
		c1.79-0.65,3.304-1.236,4.541-1.758v-4.053l-4.443,1.465c-1.433,0.521-2.409,0.83-2.93,0.928c0.423,1.693,0.928,3.377,1.514,5.055
		C23.73,44.404,24.43,46.041,25.244,47.634z M39.404,47.048c2.116-5.762,3.174-9.504,3.174-11.23c0-2.473-0.619-3.662-1.855-3.564
		c-2.083,0.262-4.346,0.766-6.787,1.514v3.906c0.391-0.195,1.05-0.383,1.978-0.561c0.928-0.18,1.692,0.016,2.295,0.586
		c0.602,0.568,0.903,1.018,0.903,1.342c0,0.717-0.423,1.221-1.27,1.514c-1.791,0.619-3.093,1.025-3.906,1.221v4.102l1.709-0.195
		C37.109,45.519,38.362,45.974,39.404,47.048z"/>
</g>
</svg>
