<?xml version="1.0" encoding="utf-8"?>
<!-- Generator: Adobe Illustrator 16.0.0, SVG Export Plug-In . SVG Version: 6.00 Build 0)  -->
<!DOCTYPE svg PUBLIC "-//W3C//DTD SVG 1.1//EN" "http://www.w3.org/Graphics/SVG/1.1/DTD/svg11.dtd">
<svg version="1.1" id="Layer_1" xmlns="http://www.w3.org/2000/svg" xmlns:xlink="http://www.w3.org/1999/xlink" x="0px" y="0px"
	 width="66.334px" height="88.5px" viewBox="0 0 66.334 88.5" enable-background="new 0 0 66.334 88.5" xml:space="preserve">
<g>
	<path fill="#C6204F" d="M32.927,82.201c-1.035-3.752-1.662-6.985-1.877-9.702c-0.215-2.714-0.438-6.369-0.668-10.961
		c-0.234-4.592-0.459-10.567-0.672-17.931c-2.037,0.573-3.859,1.608-5.467,3.109c-0.859,0.823-1.518,1.233-1.984,1.233
		c-0.605,0-1.197-0.394-1.77-1.18c-0.428-0.644-1.25-2.009-2.465-4.1s-2.383-4.209-3.51-6.353c-1.127-2.145-2.154-3.556-3.084-4.235
		c-1.43-1.035-2.465-1.643-3.107-1.822c0.32-0.785,1.34-1.126,3.055-1.019c0.715,0.073,2.215,0.18,4.502,0.321
		c1.217,0.037,3.217-0.375,6.004-1.232s5.219-1.519,7.289-1.983l-0.213-7.129c-0.109-4.537-2.107-7.146-6.004-7.826
		c2.645-0.857,3.967-2.554,3.967-5.092c2.965,3.537,7.451,5.594,13.455,6.164c-3.109,1.323-4.664,5.521-4.664,12.596l11.418-2.519
		c1.465,0,2.893,0.589,4.287,1.769l6.004,4.878c0.393,0.321,0.588,0.662,0.588,1.019c0,0.429-0.641,0.931-1.928,1.501
		c-1.252,0.536-2.395,2.251-3.432,5.146c-1.035,2.896-2.535,5.369-4.502,7.426c-1.965,2.053-3.467,3.081-4.504,3.081
		c-0.463,0-0.857-0.188-1.178-0.562c-0.322-0.375-0.484-0.741-0.484-1.1c0-0.356-0.229-1.063-0.695-2.117
		c-0.465-1.054-1.232-1.582-2.305-1.582c-0.75,0-1.77,0.145-3.057,0.43l-0.912,27.498c-0.213,5.183-0.658,8.666-1.338,10.452
		L32.927,82.201z M22.956,43.339c2.682-1.394,4.914-2.269,6.699-2.627l-0.428-10.773c-4.754,1.359-8.469,2.037-11.15,2.037
		C19.937,33.62,21.562,37.409,22.956,43.339z M43.538,39.909c2.969-4.466,4.449-8.201,4.449-11.203
		c-0.035-1.93-0.963-2.715-2.787-2.358l-9.434,2.037l0.16,10.936l3.057-0.483c0.607-0.07,1.395,0.269,2.357,1.019
		C42.306,40.605,43.04,40.625,43.538,39.909z"/>
</g>
</svg>
