<?xml version="1.0" encoding="utf-8"?>
<!-- Generator: Adobe Illustrator 16.0.0, SVG Export Plug-In . SVG Version: 6.00 Build 0)  -->
<!DOCTYPE svg PUBLIC "-//W3C//DTD SVG 1.1//EN" "http://www.w3.org/Graphics/SVG/1.1/DTD/svg11.dtd">
<svg version="1.1" id="Layer_1" xmlns="http://www.w3.org/2000/svg" xmlns:xlink="http://www.w3.org/1999/xlink" x="0px" y="0px"
	 width="66.334px" height="88.5px" viewBox="0 0 66.334 88.5" enable-background="new 0 0 66.334 88.5" xml:space="preserve">
<g>
	<path fill="#C6204F" d="M43.617,42.208c-0.938-0.885-1.936-1.637-2.998-2.256c-1.061-0.618-1.982-0.946-2.758-0.981
		c-0.957,0-1.99,0.363-3.105,1.088s-2.697,2.22-4.75,4.483c-0.992-2.192-3.184-3.661-6.58-4.404c1.166,2.266,1.865,3.76,2.096,4.484
		c0.23,0.726,0.361,1.406,0.398,2.043C25.99,48.222,27.035,49,29.049,49c0.922,0,2.266-1.291,4.033-3.874
		c1.912-2.652,3.484-4.156,4.725-4.511c1.309,0.212,1.557,1.151,0.744,2.812c-0.461,0.955-1,1.92-1.619,2.893
		c-0.621,0.974-1.443,1.954-2.469,2.945l-9.975,1.751c-0.957,0.212-1.01,0.566-0.16,1.062c1.166,0.708,1.82,1.061,1.963,1.061
		c0.211,0,1.07-0.113,2.574-0.345c1.504-0.229,3.016-0.485,4.537-0.77c4.246-0.742,7.217-1.132,8.914-1.167
		c1.416,0,2.125-0.318,2.125-0.955c0-0.601-0.305-1.123-0.904-1.565c-0.602-0.442-1.291-0.574-2.068-0.398l-5.043,1.009l8.279-4.936
		C44.916,43.692,44.555,43.091,43.617,42.208z"/>
	<path fill="#C6204F" d="M57.602,67.891c-4.035-2.866-6.635-4.299-7.803-4.299c-2.865,0.566-7.518,1.168-13.957,1.805l0.16-2.388
		l1.434-0.212c1.557-0.213,2.637-0.089,3.236,0.371c0.672,0.566,1.838-0.282,3.502-2.548c1.133-1.556,2.211-2.563,3.238-3.025
		c1.096-0.493,1.539-0.865,1.326-1.113c-0.85-0.99-1.742-1.875-2.68-2.653c-0.938-0.777-1.812-1.168-2.627-1.168
		c-0.143,0-1.557,0.222-4.246,0.664s-6.633,1.053-11.834,1.831c-0.426,0-1.053-0.124-1.883-0.372
		c-0.832-0.247-1.777-0.371-2.84-0.371c-1.168,0-1.857,0.248-2.07,0.743c-0.211,0.389,0.055,0.813,0.799,1.272
		c0.742,0.461,1.254,0.974,1.537,1.539c0.424,0.885,0.936,2,1.539,3.344c0.602,1.345,1.396,2.512,2.389,3.502
		c0.354,0.425,0.6,0.638,0.742,0.638c0.248,0,0.812-0.248,1.699-0.744c1.236-0.706,2.441-1.132,3.607-1.273v2.389
		c-5.271,0.92-9.232,1.609-11.887,2.069c-0.461-1.273-0.938-2.141-1.434-2.601c-0.707-0.671-1.998-0.937-3.873-0.796
		c-0.814,0.071-0.938,0.637-0.373,1.698l1.168,2.494c-2.582,0.354-4.68,0.407-6.287,0.159c-1.611-0.247-2.273-0.088-1.99,0.478
		c1.061,2.3,2.299,3.415,3.715,3.344c1.168-0.034,2.9-0.618,5.199-1.751l2.762,7.854c0.459,1.238,1.246,2.062,2.361,2.468
		c1.115,0.407,1.848,0.61,2.201,0.61c0.566,0,0.91-0.23,1.035-0.69c0.123-0.46,0.186-0.919,0.186-1.38
		c0-0.671-0.238-1.662-0.719-2.971c-0.477-1.309-1.006-2.627-1.588-3.954c-0.586-1.327-1.055-2.362-1.408-3.104
		c3.748-1.062,7.393-1.786,10.932-2.176v3.025l-6.898,0.849c-0.85,0.106-0.143,1.114,2.123,3.024
		c0.602,0.461,1.131,0.689,1.592,0.689c0.707-0.212,4.527-1.838,11.461-4.881c0.814,1.91,1.502,2.865,2.07,2.865
		c0.955,0,1.594-0.425,1.91-1.273c0.424-1.098,0.16-1.963-0.795-2.601l-3.928-2.653l5.52-0.637c3.184-0.282,4.334,0.495,3.449,2.335
		c-2.795,5.942-4.635,8.915-5.52,8.915c-0.602,0-2.035-0.406-4.297-1.221c-1.521-0.565-2.459-0.85-2.812-0.85
		c-0.566,0-0.443,0.319,0.369,0.956c2.336,1.839,3.592,3.282,3.77,4.325c0.176,1.043,0.494,1.565,0.955,1.565
		c2.051-0.035,3.943-0.69,5.678-1.964c1.732-1.273,3.537-3.236,5.412-5.891c2.016-2.865,3.467-4.404,4.352-4.616
		C58.59,69.183,58.695,68.634,57.602,67.891z M36.215,59.294c2.369-0.318,3.555-0.76,3.555-1.327c0-0.884-1.113-0.99-3.344-0.318
		c0.07-0.318,0.283-0.645,0.637-0.981c0.354-0.336,0.088-0.786-0.795-1.354c1.84-0.424,3.006-0.637,3.502-0.637
		c1.379,0,2.07,0.584,2.07,1.751c0,0.674-0.691,2.142-2.07,4.405l-3.768,0.583L36.215,59.294z M28.785,63.168
		c-1.379-2.972-2.07-5.023-2.07-6.156l6.156-1.167v2.281c-1.309,0.39-2.9,0.584-4.775,0.584c0.953,1.168,1.662,1.751,2.123,1.751
		l2.652-0.637l0.053,2.018C31.332,62.196,29.953,62.637,28.785,63.168z M40.779,69.589l-5.096,0.69v-2.973l3.344-0.478
		L40.779,69.589z"/>
	<path fill="#283E99" d="M10.424,15.726c0.885,1.664,1.592,3.062,2.123,4.192c0.672,1.522,2.105,4.025,4.299,7.51
		c2.191,3.484,3.996,5.227,5.412,5.227c0.707,0,1.434-0.777,2.176-2.335l13.691-2.601l2.123,6.369
		c0.281,0.813,1.645,0.415,4.086-1.194s4.951-4.768,7.535-9.473c1.768-3.148,3.396-5.059,4.883-5.731
		c0.988-0.459,1.486-0.973,1.486-1.539c0-1.237-0.842-2.388-2.521-3.449c-1.682-1.061-3.902-2.76-6.66-5.094
		c-0.955-0.743-1.895-1.114-2.814-1.114h-0.527c-9.166,1.309-19.035,4.086-29.613,8.331c-0.566-0.459-1.469-0.637-2.705-0.531
		c-1.273-0.141-2.223-0.484-2.84-1.034c-0.619-0.549-1.479-0.221-2.572,0.981C9.113,14.312,9.928,14.808,10.424,15.726z
		 M25.812,14.666c0.141,0,0.301-0.035,0.479-0.106c-0.248,3.751-1.557,7.483-3.926,11.197c3.006-1.485,5.094-3.467,6.26-5.943
		c0.707-1.486,1.098-3.537,1.17-6.156c1.484-0.388,3.217-0.796,5.199-1.22l-0.742,4.828c-0.248,2.017,0.053,3.529,0.902,4.538
		c0.848,1.008,2.227,1.548,4.137,1.618c1.84,0.036,3.396-0.247,4.67-0.85c1.275-0.601,1.91-1.22,1.91-1.856
		c0-0.354-0.361-0.797-1.086-1.327c-0.727-0.53-1.193-0.742-1.406-0.637c-1.346,0.708-2.318,1.062-2.918,1.062
		c-1.805-0.035-2.707-0.637-2.707-1.804c0.035-2.3,0.354-4.44,0.955-6.422c1.873-0.389,3.908-0.671,6.104-0.849
		c1.66,0,2.971,0.486,3.926,1.459c0.955,0.974,1.15,2.186,0.584,3.635c-3.15,8.35-5.695,12.736-7.641,13.161l-2.123-1.964
		c0.459-0.106,0.689-0.371,0.689-0.796c0-0.672-1.133-0.901-3.396-0.689c-2.301,0.212-4.246,0.495-5.838,0.849
		c-3.715,0.885-6.227,1.326-7.535,1.326c-3.75-5.836-5.678-9.18-5.783-10.029C19.355,16.665,22.062,15.658,25.812,14.666z"/>
</g>
</svg>
