<?xml version="1.0" encoding="utf-8"?>
<!-- Generator: Adobe Illustrator 16.0.0, SVG Export Plug-In . SVG Version: 6.00 Build 0)  -->
<!DOCTYPE svg PUBLIC "-//W3C//DTD SVG 1.1//EN" "http://www.w3.org/Graphics/SVG/1.1/DTD/svg11.dtd">
<svg version="1.1" id="Layer_1" xmlns="http://www.w3.org/2000/svg" xmlns:xlink="http://www.w3.org/1999/xlink" x="0px" y="0px"
	 width="66.334px" height="88.5px" viewBox="0 0 66.334 88.5" enable-background="new 0 0 66.334 88.5" xml:space="preserve">
<g>
	<path fill="#283E99" d="M16.531,24.695c0.709,1.876,1.062,3.38,1.062,4.511c0,1.592-0.268,2.99-0.797,4.192
		c-0.744,1.592-0.99,3.043-0.744,4.352c0.176,1.132,0.691,1.981,1.541,2.547c0.85,0.566,1.557,0.849,2.123,0.849
		c0.67,0,1.094-0.372,1.273-1.114c0.316-1.238,0.477-4.316,0.477-9.234c0-1.981-0.09-3.812-0.266-5.492
		c-0.178-1.68-0.318-3.158-0.426-4.432c2.23-2.617,3.988-4.688,5.283-6.209c1.289-1.52,2.059-2.494,2.307-2.918
		c0.32-0.601,0.035-1.025-0.85-1.274c-0.953-0.283-3.201-1.698-6.74-4.245c-0.918,0-1.855,0.584-2.811,1.751
		c1.875,0.496,2.74,1.38,2.6,2.653c-0.461,4.104-3.857,9.552-10.188,16.345c-1.381,1.592-3.203,3.45-5.467,5.572
		c2.336-0.424,4.537-1.45,6.607-3.078C13.586,27.845,15.258,26.252,16.531,24.695z"/>
	<path fill="#283E99" d="M58.295,31.037c-2.088-1.222-3.625-1.778-4.617-1.672c-1.273,0.106-4.422,0.584-9.445,1.433
		c0.637-0.99,1.6-2.317,2.891-3.98c1.293-1.662,2.84-3.219,4.646-4.67c-1.416-2.511-3.062-4.139-4.938-4.882
		c-0.672,0.284-1.309,0.478-1.912,0.583l-4.561,0.956l5.783-8.968l4.246-1.22c2.264-0.601,2.307-1.459,0.131-2.575
		c-2.174-1.113-3.9-1.671-5.174-1.671c-0.6,0-1.186,0.248-1.75,0.743c-3.715,2.512-7.023,3.768-9.924,3.768l-2.705-0.265
		c-0.355,0-0.531,0.212-0.531,0.637c0.955,1.663,2.316,2.494,4.086,2.494c0.707,0,1.492-0.053,2.361-0.16
		c0.867-0.106,1.883-0.266,3.051-0.478l-4.564,8.544l-8.701,1.857c0.354,1.663,1.379,2.495,3.076,2.495
		c0.744,0,2.229-0.407,4.459-1.221l-5.148,10.666c-1.061,0.248-2.176,0.469-3.342,0.664c-1.17,0.195-2.479,0.398-3.928,0.61
		c1.555,2.512,3.096,3.767,4.617,3.767c0.6,0,1.309-0.247,2.121-0.743c0.354-0.248,1.027-0.611,2.018-1.088
		c0.992-0.478,2.723-1.052,5.201-1.725c3.432-0.99,7.605-1.539,12.523-1.645c1.875,0,4.033,0.531,6.473,1.592
		c2.123,0.92,3.664,1.379,4.617,1.379c1.381,0,2.068-0.512,2.068-1.538C61.424,33.487,60.381,32.257,58.295,31.037z M39.934,31.434
		c-2.123,0.461-4.404,0.886-6.844,1.274l5.889-11.091c1.594-0.565,3.75-1.025,6.475-1.38c-0.496,1.486-1.178,3.141-2.043,4.962
		C42.541,27.021,41.385,29.1,39.934,31.434z"/>
	<path fill="#C6204F" d="M43.781,44.33c-0.938-0.884-1.936-1.636-2.998-2.255c-1.061-0.619-1.982-0.946-2.76-0.982
		c-0.955,0-1.988,0.363-3.104,1.088c-1.115,0.725-2.699,2.22-4.75,4.483c-0.992-2.193-3.184-3.662-6.58-4.405
		c1.166,2.266,1.865,3.76,2.096,4.485c0.23,0.725,0.361,1.406,0.398,2.042c0.07,1.558,1.113,2.335,3.131,2.335
		c0.918,0,2.264-1.291,4.033-3.874c1.91-2.652,3.482-4.156,4.723-4.511c1.309,0.212,1.557,1.151,0.742,2.813
		c-0.459,0.955-1,1.919-1.617,2.893c-0.619,0.973-1.441,1.954-2.469,2.945l-9.975,1.751c-0.957,0.212-1.01,0.567-0.16,1.062
		c1.168,0.708,1.82,1.061,1.963,1.061c0.213,0,1.068-0.114,2.574-0.345c1.504-0.23,3.016-0.486,4.537-0.77
		c4.244-0.743,7.217-1.132,8.916-1.167c1.414,0,2.121-0.318,2.121-0.955c0-0.601-0.301-1.123-0.902-1.565
		c-0.602-0.442-1.291-0.574-2.068-0.398l-5.041,1.009l8.277-4.936C45.082,45.815,44.719,45.214,43.781,44.33z"/>
	<path fill="#C6204F" d="M57.764,70.014c-4.031-2.866-6.633-4.299-7.801-4.299c-2.865,0.567-7.518,1.168-13.957,1.805l0.16-2.388
		L37.6,64.92c1.555-0.212,2.635-0.088,3.236,0.372c0.672,0.566,1.84-0.283,3.502-2.548c1.133-1.556,2.211-2.564,3.238-3.025
		c1.096-0.494,1.539-0.865,1.326-1.113c-0.85-0.99-1.744-1.875-2.68-2.654c-0.939-0.777-1.814-1.167-2.627-1.167
		c-0.143,0-1.559,0.222-4.246,0.664c-2.689,0.443-6.633,1.053-11.834,1.831c-0.424,0-1.053-0.124-1.883-0.372
		c-0.832-0.247-1.777-0.371-2.84-0.371c-1.166,0-1.857,0.248-2.068,0.743c-0.215,0.389,0.051,0.814,0.795,1.273
		c0.742,0.46,1.256,0.973,1.537,1.539c0.426,0.885,0.939,2,1.541,3.343c0.6,1.345,1.396,2.512,2.389,3.502
		c0.352,0.425,0.602,0.637,0.742,0.637c0.248,0,0.814-0.248,1.697-0.744c1.238-0.707,2.443-1.132,3.607-1.273v2.388
		c-5.27,0.92-9.232,1.609-11.885,2.069c-0.461-1.273-0.939-2.14-1.432-2.6c-0.709-0.671-2.002-0.937-3.877-0.796
		c-0.811,0.071-0.936,0.637-0.369,1.698l1.168,2.494c-2.584,0.354-4.682,0.407-6.289,0.159c-1.611-0.247-2.273-0.088-1.99,0.478
		c1.062,2.299,2.299,3.415,3.715,3.343c1.166-0.034,2.9-0.618,5.201-1.751l2.758,7.854c0.461,1.238,1.246,2.062,2.363,2.468
		c1.115,0.407,1.848,0.61,2.201,0.61c0.566,0,0.91-0.23,1.035-0.69c0.123-0.46,0.184-0.919,0.184-1.38
		c0-0.671-0.238-1.662-0.715-2.971c-0.479-1.309-1.008-2.627-1.59-3.954c-0.586-1.327-1.055-2.362-1.408-3.104
		c3.75-1.062,7.395-1.786,10.93-2.176v3.025l-6.896,0.849c-0.85,0.106-0.143,1.114,2.123,3.024c0.602,0.461,1.133,0.689,1.59,0.689
		c0.707-0.212,4.529-1.838,11.463-4.881c0.814,1.91,1.504,2.865,2.07,2.865c0.955,0,1.592-0.425,1.91-1.273
		c0.426-1.098,0.16-1.963-0.797-2.6l-3.924-2.653l5.518-0.637c3.184-0.282,4.332,0.496,3.449,2.335
		c-2.795,5.942-4.635,8.915-5.52,8.915c-0.6,0-2.033-0.406-4.297-1.221c-1.523-0.565-2.459-0.85-2.812-0.85
		c-0.566,0-0.443,0.319,0.369,0.956c2.334,1.839,3.592,3.282,3.768,4.325c0.178,1.043,0.496,1.565,0.957,1.565
		c2.053-0.035,3.943-0.69,5.678-1.964c1.732-1.273,3.537-3.236,5.414-5.891c2.014-2.865,3.465-4.404,4.348-4.616
		C58.754,71.306,58.859,70.757,57.764,70.014z M36.379,61.417c2.371-0.318,3.555-0.76,3.555-1.327c0-0.884-1.113-0.99-3.342-0.318
		c0.068-0.318,0.281-0.645,0.637-0.982c0.352-0.336,0.086-0.786-0.799-1.353c1.84-0.424,3.01-0.637,3.504-0.637
		c1.379,0,2.07,0.583,2.07,1.751c0,0.673-0.691,2.141-2.07,4.405l-3.768,0.583L36.379,61.417z M28.949,65.292
		c-1.381-2.972-2.07-5.023-2.07-6.156l6.154-1.167v2.281c-1.307,0.39-2.9,0.584-4.773,0.584c0.955,1.168,1.662,1.75,2.123,1.75
		l2.65-0.636l0.057,2.017C31.496,64.319,30.117,64.76,28.949,65.292z M40.941,71.712l-5.094,0.69V69.43l3.342-0.478L40.941,71.712z"
		/>
</g>
</svg>
