<?xml version="1.0" encoding="utf-8"?>
<!-- Generator: Adobe Illustrator 16.0.0, SVG Export Plug-In . SVG Version: 6.00 Build 0)  -->
<!DOCTYPE svg PUBLIC "-//W3C//DTD SVG 1.1//EN" "http://www.w3.org/Graphics/SVG/1.1/DTD/svg11.dtd">
<svg version="1.1" id="Layer_1" xmlns="http://www.w3.org/2000/svg" xmlns:xlink="http://www.w3.org/1999/xlink" x="0px" y="0px"
	 width="66.334px" height="88.5px" viewBox="0 0 66.334 88.5" enable-background="new 0 0 66.334 88.5" xml:space="preserve">
<g>
	<path fill="#C6204F" d="M57.773,69.818c-4.074-2.894-6.699-4.341-7.879-4.341c-2.895,0.57-7.596,1.179-14.098,1.822l0.16-2.412
		l1.447-0.214c1.572-0.214,2.662-0.09,3.27,0.375c0.678,0.57,1.857-0.287,3.537-2.573c1.143-1.572,2.234-2.59,3.271-3.056
		c1.105-0.5,1.555-0.875,1.338-1.125c-0.855-1.001-1.76-1.894-2.707-2.68c-0.947-0.788-1.832-1.18-2.652-1.18
		c-0.143,0-1.574,0.224-4.287,0.669c-2.715,0.448-6.701,1.063-11.953,1.85c-0.43,0-1.064-0.125-1.906-0.375
		c-0.838-0.25-1.793-0.375-2.865-0.375c-1.18,0-1.877,0.25-2.09,0.75c-0.215,0.393,0.053,0.821,0.805,1.287
		c0.75,0.465,1.266,0.982,1.553,1.554c0.43,0.894,0.947,2.02,1.555,3.377c0.605,1.357,1.41,2.536,2.412,3.538
		c0.357,0.428,0.607,0.643,0.75,0.643c0.25,0,0.822-0.251,1.715-0.75c1.252-0.716,2.467-1.145,3.646-1.286v2.412
		c-5.326,0.928-9.328,1.625-12.008,2.09c-0.465-1.287-0.947-2.163-1.447-2.626c-0.715-0.68-2.02-0.948-3.912-0.804
		c-0.824,0.07-0.947,0.643-0.375,1.715l1.18,2.519c-2.609,0.356-4.729,0.41-6.354,0.162c-1.625-0.251-2.297-0.091-2.01,0.481
		c1.072,2.322,2.322,3.448,3.752,3.377c1.18-0.036,2.93-0.626,5.254-1.769l2.787,7.934c0.463,1.249,1.26,2.082,2.385,2.49
		c1.125,0.412,1.867,0.617,2.225,0.617c0.57,0,0.92-0.232,1.043-0.696c0.127-0.466,0.191-0.931,0.191-1.394
		c0-0.68-0.244-1.682-0.727-3.002c-0.482-1.322-1.018-2.654-1.607-3.994s-1.062-2.385-1.42-3.135
		c3.787-1.072,7.469-1.805,11.043-2.197v3.055l-6.969,0.857c-0.857,0.107-0.145,1.126,2.145,3.055
		c0.605,0.465,1.143,0.698,1.607,0.698c0.713-0.214,4.574-1.858,11.58-4.932c0.82,1.93,1.518,2.895,2.09,2.895
		c0.963,0,1.607-0.429,1.93-1.286c0.428-1.109,0.16-1.983-0.805-2.627l-3.967-2.68l5.574-0.644c3.217-0.287,4.377,0.5,3.484,2.359
		c-2.824,6.003-4.684,9.005-5.574,9.005c-0.609,0-2.057-0.412-4.342-1.232c-1.539-0.573-2.486-0.858-2.84-0.858
		c-0.572,0-0.451,0.321,0.375,0.964c2.357,1.857,3.625,3.315,3.805,4.368c0.178,1.055,0.5,1.583,0.965,1.583
		c2.072-0.037,3.982-0.697,5.736-1.984c1.748-1.285,3.57-3.27,5.467-5.949c2.037-2.895,3.502-4.449,4.395-4.664
		C58.773,71.122,58.879,70.569,57.773,69.818z M36.172,61.135c2.393-0.322,3.592-0.768,3.592-1.34c0-0.894-1.127-1.001-3.377-0.322
		c0.072-0.321,0.285-0.652,0.643-0.993c0.355-0.339,0.088-0.794-0.805-1.366c1.857-0.428,3.037-0.643,3.539-0.643
		c1.395,0,2.09,0.589,2.09,1.769c0,0.679-0.695,2.161-2.09,4.449l-3.807,0.589L36.172,61.135z M28.668,65.048
		c-1.395-3.002-2.092-5.075-2.092-6.218l6.219-1.179v2.305c-1.322,0.393-2.932,0.59-4.824,0.59c0.965,1.179,1.678,1.769,2.143,1.769
		l2.682-0.644l0.053,2.037C31.24,64.063,29.846,64.512,28.668,65.048z M40.781,71.533l-5.145,0.697v-3.001l3.375-0.483
		L40.781,71.533z"/>
	<path fill="#283E99" d="M51.34,38.3c0.822,0,1.527-0.482,2.117-1.447c0.59-0.964,0.887-1.805,0.887-2.519
		c0-1.179-0.824-2.502-2.467-3.966c-1.645-1.464-3.682-2.886-6.111-4.263c-2.432-1.374-4.771-2.294-7.021-2.759
		c0.215,0.643,0.857,1.76,1.93,3.349c1.072,1.591,2.287,3.29,3.645,5.093c1.357,1.805,2.699,3.343,4.021,4.609
		C49.66,37.666,50.66,38.3,51.34,38.3z"/>
	<path fill="#283E99" d="M12.479,22.917c0.859,0.75,1.609,1.125,2.252,1.125c0.607,0,1.385-0.116,2.33-0.35
		c0.949-0.231,2.012-0.544,3.191-0.937c8.434-2.894,15.848-4.341,22.246-4.341c2.855,0,5.627,0.321,8.307,0.964
		c2.037,0.537,3.305,0.805,3.807,0.805c1.178,0,1.77-0.358,1.77-1.072c0-1.323-0.805-2.582-2.412-3.78
		c-1.609-1.196-3.129-1.794-4.557-1.794c-1.037,0-2.004,0.186-2.895,0.562c-0.895,0.375-4.539,1.19-10.936,2.44
		c0-2.788,0.535-4.717,1.607-5.79c1.107-1.143,1.805-1.823,2.09-2.037l-0.75-1.393c-3.25-0.178-6.842-1.144-10.773-2.895
		c-0.072,1.036-0.277,1.814-0.617,2.331c-0.338,0.52-1.027,1.171-2.062,1.958c2.25-0.107,3.76,0.313,4.527,1.259
		c0.77,0.947,1.152,1.958,1.152,3.029c0,0.429-0.051,1.073-0.158,1.93s-0.287,1.591-0.537,2.197
		c-11.15,2.037-17.205,3.056-18.172,3.056h-1.393C10.959,21.254,11.621,22.166,12.479,22.917z"/>
	<path fill="#C6204F" d="M43.648,43.875c-0.947-0.895-1.955-1.653-3.029-2.28c-1.07-0.624-2.002-0.954-2.787-0.99
		c-0.965,0-2.01,0.366-3.137,1.097c-1.123,0.734-2.723,2.244-4.795,4.531c-1.002-2.214-3.217-3.699-6.646-4.449
		c1.18,2.288,1.885,3.797,2.115,4.528c0.232,0.733,0.367,1.421,0.404,2.065c0.07,1.571,1.125,2.357,3.162,2.357
		c0.928,0,2.285-1.303,4.074-3.913c1.93-2.68,3.518-4.198,4.77-4.556c1.32,0.214,1.572,1.162,0.75,2.841
		c-0.465,0.964-1.01,1.938-1.635,2.92c-0.625,0.984-1.455,1.975-2.492,2.976l-10.076,1.769c-0.967,0.214-1.02,0.572-0.162,1.072
		c1.18,0.713,1.84,1.072,1.984,1.072c0.215,0,1.08-0.116,2.6-0.349c1.518-0.232,3.045-0.492,4.584-0.777
		c4.287-0.75,7.287-1.143,9.004-1.179c1.428,0,2.145-0.321,2.145-0.965c0-0.606-0.305-1.134-0.912-1.582
		c-0.607-0.446-1.305-0.579-2.09-0.401l-5.092,1.018l8.361-4.985C44.963,45.376,44.596,44.769,43.648,43.875z"/>
	<path fill="#283E99" d="M11.676,39.372c0.248,0.321,0.607,0.483,1.072,0.483c0.82,0,2.092-0.339,3.805-1.019
		c1.715-0.679,3.492-1.625,5.332-2.841c1.842-1.215,3.502-2.403,4.986-3.565c1.482-1.16,2.242-2.224,2.277-3.188
		c0-1.357-0.803-2.412-2.41-3.163c-1.609-0.75-2.762-1.153-3.459-1.207c-0.697-0.053-1.6,0.188-2.707,0.725
		c0.572,0.25,0.859,0.696,0.859,1.34C21.322,30.367,18.072,34.512,11.676,39.372z"/>
</g>
</svg>
