<?xml version="1.0" encoding="utf-8"?>
<!-- Generator: Adobe Illustrator 16.0.0, SVG Export Plug-In . SVG Version: 6.00 Build 0)  -->
<!DOCTYPE svg PUBLIC "-//W3C//DTD SVG 1.1//EN" "http://www.w3.org/Graphics/SVG/1.1/DTD/svg11.dtd">
<svg version="1.1" id="Layer_1" xmlns="http://www.w3.org/2000/svg" xmlns:xlink="http://www.w3.org/1999/xlink" x="0px" y="0px"
	 width="66.334px" height="88.5px" viewBox="0 0 66.334 88.5" enable-background="new 0 0 66.334 88.5" xml:space="preserve">
<g>
	<path fill="#C6204F" d="M43.545,43.242c-0.938-0.883-1.938-1.637-2.998-2.256c-1.062-0.617-1.982-0.945-2.76-0.982
		c-0.955,0-1.99,0.365-3.104,1.088c-1.115,0.727-2.699,2.221-4.75,4.484c-0.992-2.193-3.184-3.662-6.582-4.402
		c1.168,2.262,1.867,3.758,2.096,4.482c0.23,0.725,0.363,1.406,0.4,2.043c0.07,1.557,1.113,2.336,3.129,2.336
		c0.92,0,2.264-1.291,4.033-3.875c1.91-2.652,3.484-4.156,4.725-4.51c1.309,0.213,1.555,1.148,0.742,2.811
		c-0.461,0.957-1,1.92-1.617,2.893c-0.621,0.975-1.443,1.957-2.469,2.947l-9.977,1.75c-0.957,0.213-1.008,0.566-0.158,1.061
		c1.166,0.709,1.818,1.062,1.961,1.062c0.213,0,1.07-0.115,2.576-0.344c1.502-0.23,3.014-0.488,4.535-0.771
		c4.246-0.742,7.219-1.131,8.916-1.168c1.416,0,2.123-0.316,2.123-0.953c0-0.602-0.303-1.125-0.902-1.566
		c-0.604-0.441-1.291-0.574-2.07-0.398l-5.041,1.008l8.279-4.936C44.844,44.729,44.482,44.127,43.545,43.242z"/>
	<path fill="#283E99" d="M10.457,28.861c0.814,1.98,2.688,2.973,5.625,2.973c0.742,0,4.334-1.824,10.773-5.469
		c0,4.07,0.77,6.787,2.309,8.148s4.713,2.041,9.525,2.041c4.172,0,7.162-0.246,8.967-0.742c2.123-0.672,3.184-1.609,3.184-2.812
		c0-1.379-0.689-2.564-2.068-3.555c-1.453-1.062-2.459-2.281-3.025-3.662l-0.529-1.221c-0.18,1.84-0.346,3.299-0.506,4.379
		c-0.158,1.078-0.664,1.883-1.512,2.414c-1.238,0.814-4.156,1.186-8.756,1.113c-2.867-0.107-4.105-2.086-3.715-5.943l0.213-1.592
		c11.391-5.766,18.289-9.057,20.695-9.869c1.098-0.32,1.646-0.85,1.646-1.594c0-0.529-0.303-0.902-0.904-1.113
		c-3.361-1.486-5.572-1.592-6.633-0.318c-0.955,1.451-2.865,2.938-5.732,4.457c-2.863,1.521-5.834,2.955-8.914,4.299l1.594-8.119
		c0.211-0.92,0.953-2.016,2.227-3.291c-4.529-0.988-6.969-2.299-7.32-3.926c-0.393,0.211-0.729,0.461-1.01,0.742
		c-0.285,0.283-0.656,0.762-1.113,1.434c-0.357,0.529-1.062,1.043-2.125,1.537c2.336,0,3.504,0.799,3.504,2.389v11.197
		C19.496,26.014,14.029,28.047,10.457,28.861z"/>
	<path fill="#C6204F" d="M57.529,68.926c-4.035-2.865-6.635-4.299-7.803-4.299c-2.865,0.566-7.518,1.168-13.957,1.805l0.158-2.389
		l1.434-0.211c1.557-0.213,2.637-0.088,3.238,0.369c0.672,0.568,1.838-0.281,3.502-2.545c1.131-1.557,2.211-2.564,3.238-3.025
		c1.096-0.494,1.537-0.865,1.326-1.113c-0.85-0.992-1.744-1.875-2.68-2.654c-0.939-0.777-1.814-1.168-2.627-1.168
		c-0.143,0-1.559,0.223-4.246,0.664c-2.689,0.443-6.633,1.053-11.834,1.83c-0.424,0-1.053-0.123-1.883-0.371
		s-1.777-0.371-2.84-0.371c-1.168,0-1.857,0.248-2.07,0.742c-0.211,0.391,0.055,0.816,0.797,1.273
		c0.742,0.461,1.256,0.975,1.539,1.541c0.424,0.883,0.938,1.998,1.539,3.342c0.6,1.344,1.396,2.514,2.389,3.502
		c0.352,0.426,0.6,0.637,0.74,0.637c0.248,0,0.814-0.246,1.699-0.742c1.236-0.707,2.441-1.133,3.607-1.273v2.387
		c-5.271,0.922-9.232,1.611-11.887,2.07c-0.459-1.273-0.936-2.141-1.432-2.6c-0.707-0.672-2-0.938-3.873-0.797
		c-0.814,0.072-0.938,0.637-0.371,1.699l1.166,2.492c-2.582,0.355-4.68,0.408-6.287,0.16c-1.611-0.248-2.275-0.088-1.992,0.477
		c1.062,2.301,2.301,3.416,3.717,3.344c1.168-0.035,2.9-0.617,5.199-1.75l2.76,7.854c0.459,1.238,1.248,2.061,2.361,2.469
		c1.115,0.406,1.85,0.607,2.203,0.607c0.564,0,0.908-0.229,1.035-0.689c0.123-0.459,0.184-0.918,0.184-1.379
		c0-0.67-0.238-1.662-0.715-2.973c-0.479-1.307-1.008-2.625-1.592-3.953c-0.584-1.326-1.055-2.359-1.406-3.104
		c3.748-1.062,7.395-1.787,10.93-2.176v3.023L25.9,72.48c-0.85,0.107-0.143,1.115,2.121,3.025c0.602,0.461,1.133,0.691,1.592,0.691
		c0.709-0.213,4.529-1.84,11.463-4.883c0.814,1.91,1.502,2.865,2.068,2.865c0.957,0,1.594-0.426,1.912-1.273
		c0.424-1.096,0.16-1.965-0.797-2.602l-3.926-2.652l5.518-0.637c3.188-0.283,4.336,0.496,3.449,2.334
		c-2.793,5.943-4.633,8.916-5.518,8.916c-0.602,0-2.035-0.406-4.299-1.221c-1.521-0.564-2.459-0.848-2.812-0.848
		c-0.566,0-0.441,0.316,0.371,0.953c2.336,1.842,3.592,3.283,3.768,4.326c0.178,1.043,0.494,1.564,0.955,1.564
		c2.053-0.035,3.943-0.688,5.678-1.963c1.734-1.273,3.537-3.238,5.414-5.891c2.016-2.865,3.467-4.404,4.352-4.617
		C58.518,70.217,58.623,69.67,57.529,68.926z M36.143,60.33c2.369-0.32,3.555-0.76,3.555-1.326c0-0.885-1.115-0.992-3.344-0.32
		c0.07-0.316,0.281-0.645,0.637-0.982c0.354-0.334,0.086-0.785-0.797-1.354c1.84-0.424,3.008-0.635,3.504-0.635
		c1.379,0,2.068,0.582,2.068,1.75c0,0.674-0.689,2.143-2.068,4.404l-3.77,0.584L36.143,60.33z M28.711,64.201
		c-1.379-2.971-2.07-5.021-2.07-6.154l6.156-1.166v2.281c-1.309,0.391-2.9,0.582-4.775,0.582c0.955,1.168,1.662,1.752,2.125,1.752
		l2.65-0.637l0.055,2.018C31.26,63.232,29.881,63.674,28.711,64.201z M40.705,70.625l-5.096,0.689v-2.973l3.344-0.477L40.705,70.625
		z"/>
</g>
</svg>
