<?xml version="1.0" encoding="utf-8"?>
<!-- Generator: Adobe Illustrator 16.0.0, SVG Export Plug-In . SVG Version: 6.00 Build 0)  -->
<!DOCTYPE svg PUBLIC "-//W3C//DTD SVG 1.1//EN" "http://www.w3.org/Graphics/SVG/1.1/DTD/svg11.dtd">
<svg version="1.1" id="Layer_1" xmlns="http://www.w3.org/2000/svg" xmlns:xlink="http://www.w3.org/1999/xlink" x="0px" y="0px"
	 width="66.334px" height="88.5px" viewBox="0 0 66.334 88.5" enable-background="new 0 0 66.334 88.5" xml:space="preserve">
<g>
	<path fill="#C6204F" d="M48.416,35.138c-0.822-0.713-1.661-1.018-2.519-0.911c-0.394-0.463-0.823-0.946-1.286-1.447
		c-1.752-1.715-3.699-2.949-5.843-3.699c-0.144-0.858-0.696-1.589-1.662-2.198c-1.144-0.677-2.483-1.019-4.021-1.019
		s-2.877,0.342-4.02,1.019c-1.002,0.609-1.555,1.359-1.662,2.251c-2.074,0.75-3.949,1.966-5.629,3.646
		c-0.5,0.501-0.946,0.984-1.339,1.447c-0.895-0.107-1.753,0.197-2.573,0.911c-0.965,0.858-1.697,2.037-2.197,3.538
		c-0.466,1.501-0.555,2.877-0.27,4.128c0.25,1.145,0.805,1.912,1.662,2.305c0.143,3.038,1.036,5.755,2.682,8.147
		c-0.395,0.787-0.375,1.68,0.053,2.68c0.5,1.179,1.394,2.251,2.68,3.216c1.287,0.894,2.572,1.394,3.859,1.5
		c1.072,0.108,1.947-0.141,2.627-0.75c1.321,0.321,2.715,0.482,4.182,0.482c1.5,0,2.912-0.178,4.233-0.536
		c0.645,0.643,1.519,0.911,2.627,0.803c1.286-0.106,2.573-0.606,3.859-1.5c1.251-0.965,2.126-2.037,2.627-3.216
		c0.429-1,0.464-1.894,0.106-2.68c1.645-2.393,2.537-5.109,2.681-8.147c0.821-0.393,1.375-1.16,1.661-2.305
		c0.285-1.25,0.197-2.627-0.268-4.128C50.132,37.175,49.382,35.996,48.416,35.138z M42.252,53.416
		c-2.502,2.539-5.521,3.807-9.059,3.807s-6.592-1.287-9.166-3.859c-2.537-2.537-3.805-5.575-3.805-9.113
		c0-3.538,1.268-6.574,3.805-9.112c2.536-2.537,5.575-3.805,9.113-3.805c3.537,0,6.574,1.269,9.111,3.805
		c2.573,2.574,3.859,5.628,3.859,9.166S44.825,50.88,42.252,53.416z"/>
	<path fill="#283E99" d="M33.141,41.356c-0.823,0-1.502,0.287-2.037,0.857c-0.537,0.536-0.805,1.207-0.805,2.011
		c0,0.804,0.268,1.492,0.805,2.062c0.57,0.536,1.25,0.803,2.037,0.803c0.785,0,1.465-0.268,2.037-0.803
		c0.535-0.57,0.803-1.259,0.803-2.062c0-0.804-0.268-1.476-0.803-2.011C34.641,41.644,33.961,41.356,33.141,41.356z"/>
	<path fill="#283E99" d="M58.736,29.402c-2.664-4.466-6.236-8.029-10.722-10.693c-4.485-2.663-9.443-3.994-14.874-3.994
		c-5.432,0-10.383,1.332-14.848,3.994c-4.468,2.664-8.032,6.227-10.694,10.693C4.936,33.871,3.605,38.82,3.605,44.25
		c0,5.434,1.33,10.382,3.993,14.848c2.662,4.469,6.227,8.032,10.694,10.695c4.465,2.663,9.416,3.992,14.848,3.992
		c5.431,0,10.389-1.329,14.874-3.992s8.058-6.226,10.722-10.695c2.66-4.466,3.992-9.415,3.992-14.848
		C62.729,38.82,61.396,33.871,58.736,29.402z M55.385,57.142c-2.322,3.877-5.432,6.969-9.326,9.274
		c-3.896,2.305-8.201,3.456-12.918,3.456c-4.718,0-9.016-1.15-12.893-3.456c-3.877-2.306-6.969-5.397-9.272-9.274
		C8.67,53.266,7.518,48.968,7.518,44.25c0-4.717,1.152-9.022,3.458-12.917c2.304-3.894,5.396-7.003,9.272-9.327
		c3.877-2.322,8.175-3.485,12.893-3.485c4.717,0,9.021,1.163,12.918,3.485c3.895,2.324,7.004,5.434,9.326,9.327
		c2.322,3.896,3.484,8.201,3.484,12.917C58.869,48.968,57.707,53.266,55.385,57.142z"/>
	<path fill="#1F7529" d="M53.214,32.565c-2.091-3.502-4.888-6.297-8.389-8.389c-3.503-2.09-7.397-3.136-11.685-3.136
		c-4.254,0-8.131,1.046-11.633,3.136c-3.502,2.091-6.299,4.887-8.389,8.389c-2.09,3.503-3.135,7.397-3.135,11.685
		c0,4.289,1.045,8.185,3.135,11.686c2.09,3.503,4.887,6.299,8.389,8.39s7.379,3.135,11.633,3.135c4.287,0,8.182-1.044,11.685-3.135
		c3.501-2.091,6.298-4.886,8.389-8.39c2.091-3.501,3.136-7.397,3.136-11.686C56.35,39.962,55.305,36.069,53.214,32.565z
		 M51.525,47.145c-0.68,0.572-1.215,1.413-1.607,2.52c-0.322,1.108-0.375,2.073-0.161,2.894c0.178,0.751,0.518,1.27,1.019,1.555
		l-0.161,0.268c-1.821,3.038-4.253,5.468-7.29,7.29c-1.93,1.146-3.984,1.931-6.164,2.359c-0.072-0.536-0.43-1.018-1.072-1.448
		c-0.75-0.463-1.715-0.696-2.895-0.696c-1.144,0-2.09,0.233-2.842,0.696c-0.678,0.43-1.054,0.912-1.125,1.448
		c-2.215-0.393-4.287-1.18-6.217-2.359c-3.039-1.822-5.469-4.251-7.291-7.29c-0.072-0.108-0.125-0.214-0.16-0.322
		c0.536-0.249,0.893-0.75,1.072-1.501c0.178-0.821,0.088-1.786-0.268-2.894c-0.359-1.106-0.857-1.947-1.502-2.52
		c-0.607-0.5-1.197-0.697-1.769-0.59c-0.071-0.75-0.106-1.518-0.106-2.305c0-3.715,0.91-7.109,2.732-10.184
		c0.786-1.286,1.68-2.466,2.68-3.538c0.394,0.395,0.967,0.555,1.716,0.482c0.858-0.034,1.769-0.392,2.733-1.072
		c0.93-0.714,1.555-1.465,1.877-2.251c0.285-0.713,0.303-1.32,0.053-1.822c2.574-1.214,5.361-1.823,8.363-1.823
		c3.037,0,5.842,0.609,8.416,1.823c-0.252,0.502-0.234,1.109,0.053,1.822c0.322,0.787,0.946,1.538,1.876,2.251
		c0.964,0.68,1.876,1.038,2.733,1.072c0.75,0.073,1.322-0.087,1.716-0.482c1,1.072,1.894,2.251,2.68,3.538
		c1.823,3.075,2.734,6.469,2.734,10.184c0,0.788-0.037,1.555-0.107,2.305C52.668,46.448,52.097,46.646,51.525,47.145z"/>
</g>
</svg>
