<?xml version="1.0" encoding="utf-8"?>
<!-- Generator: Adobe Illustrator 16.0.0, SVG Export Plug-In . SVG Version: 6.00 Build 0)  -->
<!DOCTYPE svg PUBLIC "-//W3C//DTD SVG 1.1//EN" "http://www.w3.org/Graphics/SVG/1.1/DTD/svg11.dtd">
<svg version="1.1" id="Layer_1" xmlns="http://www.w3.org/2000/svg" xmlns:xlink="http://www.w3.org/1999/xlink" x="0px" y="0px"
	 width="66.334px" height="88.5px" viewBox="0 0 66.334 88.5" enable-background="new 0 0 66.334 88.5" xml:space="preserve">
<g>
	<path fill="#1F7529" d="M38.045,19.809c-1.376-1.377-3.011-2.064-4.904-2.064c-1.895,0-3.521,0.688-4.878,2.064
		c-1.359,1.373-2.037,3.01-2.037,4.904s0.678,3.527,2.037,4.904c1.357,1.375,2.983,2.062,4.878,2.062
		c1.894,0,3.528-0.688,4.904-2.062c1.376-1.377,2.063-3.01,2.063-4.904S39.421,21.182,38.045,19.809z M36.518,28.035
		c-0.93,0.93-2.056,1.395-3.377,1.395c-1.287,0-2.396-0.465-3.323-1.395c-0.93-0.93-1.395-2.037-1.395-3.322
		c0-1.287,0.465-2.404,1.395-3.35c0.928-0.947,2.036-1.422,3.323-1.422c1.321,0,2.447,0.475,3.377,1.422
		c0.929,0.945,1.394,2.062,1.394,3.35C37.911,25.998,37.446,27.105,36.518,28.035z"/>
	<path fill="#1F7529" d="M16.148,11.098c-0.644,0-1.188,0.223-1.635,0.67c-0.447,0.445-0.671,0.975-0.671,1.58
		c0,0.609,0.224,1.135,0.671,1.584c0.446,0.445,0.991,0.668,1.635,0.668c0.571,0,1.09-0.223,1.554-0.668
		c0.465-0.449,0.697-0.975,0.697-1.584c0-0.605-0.232-1.135-0.697-1.58C17.238,11.32,16.72,11.098,16.148,11.098z M16.148,14.098
		c-0.465,0-0.716-0.248-0.751-0.75c0-0.428,0.25-0.66,0.751-0.697c0.429,0,0.661,0.234,0.696,0.697
		C16.845,13.812,16.612,14.064,16.148,14.098z"/>
	<path fill="#1F7529" d="M21.026,8.445c-1.394-1.377-3.021-2.064-4.878-2.064c-1.931,0-3.573,0.688-4.931,2.064
		c-1.359,1.373-2.037,3.01-2.037,4.902c0,1.896,0.678,3.521,2.037,4.879c1.357,1.357,3,2.037,4.931,2.037
		c1.857,0,3.484-0.68,4.878-2.037c1.393-1.357,2.091-2.982,2.091-4.879C23.117,11.455,22.419,9.818,21.026,8.445z M19.472,16.672
		c-0.93,0.93-2.037,1.393-3.323,1.393c-1.322,0-2.448-0.463-3.378-1.393c-0.928-0.93-1.393-2.037-1.393-3.324
		s0.465-2.404,1.393-3.35c0.93-0.947,2.056-1.42,3.378-1.42c1.286,0,2.394,0.473,3.323,1.42c0.93,0.945,1.394,2.062,1.394,3.35
		S20.401,15.742,19.472,16.672z"/>
	<path fill="#1F7529" d="M33.141,22.406c-0.608,0-1.136,0.234-1.581,0.697c-0.447,0.465-0.671,1.002-0.671,1.609
		c0,0.572,0.224,1.098,0.671,1.582c0.445,0.482,0.973,0.721,1.581,0.721c0.607,0,1.144-0.238,1.608-0.721
		c0.463-0.484,0.696-1.01,0.696-1.582c0-0.607-0.233-1.145-0.696-1.609C34.284,22.641,33.748,22.406,33.141,22.406z M33.141,25.463
		c-0.466,0-0.716-0.25-0.751-0.75c0-0.463,0.25-0.715,0.751-0.752c0.499,0,0.769,0.252,0.804,0.752
		C33.944,25.141,33.677,25.391,33.141,25.463z"/>
	<path fill="#C6204F" d="M23.117,72.955c-0.644,0-1.188,0.221-1.636,0.67c-0.446,0.445-0.67,0.973-0.67,1.58
		c0,0.609,0.224,1.135,0.67,1.582c0.447,0.447,0.992,0.67,1.636,0.67c0.571,0,1.081-0.223,1.527-0.67s0.669-0.973,0.669-1.582
		c0-0.607-0.223-1.135-0.669-1.58C24.198,73.176,23.688,72.955,23.117,72.955z M23.626,75.77c-0.125,0.16-0.295,0.24-0.509,0.24
		c-0.287,0-0.501-0.08-0.644-0.24s-0.215-0.35-0.215-0.564c0-0.463,0.285-0.715,0.858-0.75c0.429,0,0.66,0.25,0.696,0.75
		C23.813,75.42,23.751,75.609,23.626,75.77z"/>
	<path fill="#C6204F" d="M43.271,48.082c-1.894,0-3.52,0.68-4.877,2.037c-1.357,1.359-2.037,3.002-2.037,4.932
		c0,1.859,0.68,3.467,2.037,4.824c1.357,1.359,2.983,2.037,4.877,2.037c1.895,0,3.529-0.678,4.905-2.037
		c1.376-1.357,2.063-2.965,2.063-4.824c0-1.93-0.688-3.572-2.063-4.932C46.8,48.762,45.165,48.082,43.271,48.082z M46.595,58.32
		c-0.93,0.93-2.037,1.393-3.324,1.393c-1.286,0-2.394-0.463-3.323-1.393c-0.929-0.928-1.394-2.037-1.394-3.322
		c0-1.287,0.465-2.395,1.394-3.324c0.93-0.928,2.037-1.395,3.323-1.395c1.287,0,2.395,0.467,3.324,1.395
		c0.93,0.93,1.394,2.037,1.394,3.324C47.988,56.283,47.524,57.393,46.595,58.32z"/>
	<path fill="#1F7529" d="M50.239,33.824c-0.644,0-1.188,0.223-1.635,0.672c-0.447,0.445-0.67,0.955-0.67,1.525
		c0,0.645,0.223,1.188,0.67,1.637c0.446,0.445,0.991,0.668,1.635,0.668c0.572,0,1.09-0.223,1.555-0.668
		c0.465-0.449,0.697-0.992,0.697-1.637c0-0.57-0.232-1.08-0.697-1.525C51.329,34.047,50.812,33.824,50.239,33.824z M50.239,36.826
		c-0.465,0-0.715-0.268-0.75-0.805c0-0.428,0.25-0.678,0.75-0.75c0.43,0,0.66,0.252,0.697,0.75
		C50.937,36.559,50.703,36.826,50.239,36.826z"/>
	<path fill="#1F7529" d="M55.063,31.197c-1.357-1.357-2.967-2.037-4.824-2.037c-1.93,0-3.573,0.68-4.931,2.037
		c-1.358,1.359-2.038,2.969-2.038,4.824c0,1.93,0.68,3.574,2.038,4.932c1.357,1.359,3.001,2.037,4.931,2.037
		c1.857,0,3.467-0.678,4.824-2.037c1.357-1.357,2.037-3.002,2.037-4.932C57.101,34.166,56.421,32.557,55.063,31.197z M53.509,39.398
		c-0.929,0.932-2.035,1.395-3.323,1.395c-1.286,0-2.394-0.463-3.323-1.395c-0.93-0.928-1.394-2.037-1.394-3.322
		c0-1.287,0.464-2.395,1.394-3.324c0.93-0.928,2.037-1.393,3.323-1.393c1.288,0,2.395,0.465,3.323,1.393
		c0.93,0.93,1.395,2.037,1.395,3.324C54.903,37.361,54.438,38.471,53.509,39.398z"/>
	<path fill="#C6204F" d="M33.141,49.744c-0.966-1.822-2.331-3.295-4.101-4.422c-1.77-1.125-3.744-1.689-5.923-1.689
		c-3.182,0-5.879,1.109-8.095,3.324c-2.216,2.217-3.323,4.914-3.323,8.094c0,2.18,0.563,4.156,1.688,5.924
		c1.126,1.77,2.6,3.135,4.422,4.1c-1.822,1.002-3.296,2.387-4.422,4.156c-1.125,1.768-1.688,3.76-1.688,5.975
		c0,3.145,1.107,5.826,3.323,8.041c2.216,2.217,4.913,3.322,8.095,3.322c2.179,0,4.153-0.561,5.923-1.688
		c1.77-1.125,3.135-2.582,4.101-4.369c1,1.787,2.386,3.244,4.153,4.369c1.77,1.127,3.762,1.688,5.977,1.688
		c3.145,0,5.824-1.105,8.041-3.322c2.215-2.215,3.324-4.896,3.324-8.041c0-2.215-0.563-4.207-1.689-5.975
		c-1.125-1.77-2.582-3.154-4.369-4.156c1.787-0.965,3.244-2.33,4.369-4.1c1.126-1.768,1.689-3.744,1.689-5.924
		c0-2.867-0.929-5.365-2.767-7.498c-3.782-0.721-7.075-2.699-10.313-3.764C37.704,44.504,34.894,46.482,33.141,49.744z
		 M16.818,61.27c-1.733-1.717-2.601-3.787-2.601-6.219c0-2.467,0.867-4.564,2.601-6.297c1.733-1.734,3.833-2.602,6.299-2.602
		c2.429,0,4.502,0.867,6.218,2.602c1.715,1.732,2.572,3.83,2.572,6.297c0,2.432-0.857,4.502-2.572,6.219
		c-1.716,1.715-3.789,2.572-6.218,2.572C20.651,63.842,18.552,62.984,16.818,61.27z M29.335,81.477
		c-1.716,1.717-3.789,2.574-6.218,2.574c-2.466,0-4.565-0.857-6.299-2.574c-1.733-1.715-2.601-3.805-2.601-6.271
		c0-2.465,0.867-4.557,2.601-6.271s3.833-2.572,6.299-2.572c2.429,0,4.502,0.857,6.218,2.572c1.715,1.715,2.572,3.807,2.572,6.271
		C31.907,77.672,31.05,79.762,29.335,81.477z M28.209,65.074c2.18-1.143,3.823-2.734,4.932-4.771
		c1.144,2.037,2.787,3.629,4.931,4.771c-2.144,1.18-3.787,2.787-4.931,4.824C32.032,67.861,30.389,66.254,28.209,65.074z
		 M49.543,68.934c1.715,1.715,2.573,3.807,2.573,6.271c0,2.467-0.858,4.557-2.573,6.271c-1.716,1.717-3.806,2.574-6.272,2.574
		c-2.465,0-4.556-0.857-6.271-2.574c-1.716-1.715-2.573-3.805-2.573-6.271c0-2.465,0.857-4.557,2.573-6.271
		c1.715-1.715,3.806-2.572,6.271-2.572C45.737,66.361,47.827,67.219,49.543,68.934z M52.116,55.051c0,2.432-0.858,4.502-2.573,6.219
		c-1.716,1.715-3.806,2.572-6.272,2.572c-2.465,0-4.556-0.857-6.271-2.572c-1.716-1.717-2.573-3.787-2.573-6.219
		c0-2.467,0.857-4.564,2.573-6.297c1.715-1.734,3.806-2.602,6.271-2.602c2.467,0,4.557,0.867,6.272,2.602
		C51.258,50.486,52.116,52.584,52.116,55.051z"/>
	<path fill="#1F7529" d="M58.253,28.01c-2.197-2.199-4.869-3.297-8.014-3.297c-2.18,0-4.127,0.518-5.842,1.553
		c0.107-0.535,0.16-1.053,0.16-1.553c0-3.145-1.107-5.824-3.322-8.041c-2.217-2.215-4.916-3.324-8.095-3.324
		c-1.036,0-2.038,0.145-3.001,0.43c-0.966,0.287-1.896,0.643-2.788,1.072c0.071-0.5,0.106-1,0.106-1.502
		c0-3.18-1.099-5.877-3.295-8.094c-2.199-2.215-4.87-3.322-8.015-3.322c-3.181,0-5.87,1.107-8.067,3.322
		c-2.197,2.217-3.297,4.914-3.297,8.094c0,3.146,1.1,5.826,3.297,8.041c2.197,2.217,4.887,3.324,8.067,3.324
		c1.071,0,2.081-0.143,3.028-0.43c0.947-0.285,1.867-0.643,2.761-1.072c-0.106,0.502-0.161,1.002-0.161,1.502
		c0,3.145,1.107,5.816,3.323,8.014s4.896,3.295,8.041,3.295c1.072,0,2.091-0.133,3.055-0.4c0.966-0.268,1.894-0.617,2.788-1.047
		c-0.072,0.502-0.107,0.984-0.107,1.447c0,2.967,0.965,5.541,2.895,7.719c-0.074,0.014-0.142,0.033-0.215,0.049
		c3.238,1.064,6.531,3.043,10.313,3.764c-0.062-0.072-0.118-0.148-0.183-0.221c2.859-0.393,5.217-1.643,7.076-3.752
		c1.857-2.107,2.787-4.627,2.787-7.559C61.55,32.879,60.451,30.207,58.253,28.01z M16.148,22.193c-2.466,0-4.556-0.857-6.271-2.574
		c-1.716-1.715-2.573-3.805-2.573-6.271c0-2.465,0.857-4.557,2.573-6.271s3.806-2.572,6.271-2.572s4.547,0.857,6.245,2.572
		c1.697,1.715,2.545,3.807,2.545,6.271c0,2.467-0.848,4.557-2.545,6.271C20.695,21.336,18.614,22.193,16.148,22.193z M33.141,33.502
		c-2.466,0-4.548-0.848-6.245-2.545s-2.545-3.779-2.545-6.244c0-2.467,0.848-4.559,2.545-6.273s3.779-2.572,6.245-2.572
		s4.564,0.857,6.298,2.572c1.732,1.715,2.6,3.807,2.6,6.273c0,2.465-0.867,4.547-2.6,6.244
		C37.705,32.654,35.606,33.502,33.141,33.502z M56.483,42.322c-1.697,1.73-3.777,2.598-6.244,2.598
		c-2.465,0-4.564-0.867-6.299-2.598c-1.732-1.734-2.6-3.836-2.6-6.301c0-2.428,0.867-4.502,2.6-6.217
		c1.734-1.715,3.834-2.574,6.299-2.574c2.467,0,4.547,0.859,6.244,2.574c1.698,1.715,2.547,3.789,2.547,6.217
		C59.03,38.486,58.182,40.588,56.483,42.322z"/>
	<path fill="#C6204F" d="M43.271,52.746c-0.607,0-1.144,0.223-1.607,0.672c-0.465,0.445-0.697,0.99-0.697,1.633
		c0,0.572,0.232,1.08,0.697,1.529c0.464,0.445,1,0.668,1.607,0.668s1.135-0.223,1.582-0.668c0.445-0.449,0.67-0.957,0.67-1.529
		c0-0.643-0.225-1.188-0.67-1.633C44.405,52.969,43.878,52.746,43.271,52.746z M43.271,55.801c-0.465,0-0.715-0.248-0.75-0.75
		c0-0.537,0.25-0.805,0.75-0.805c0.43,0,0.662,0.268,0.697,0.805C43.968,55.48,43.735,55.73,43.271,55.801z"/>
	<path fill="#C6204F" d="M23.117,52.746c-0.644,0-1.188,0.223-1.636,0.672c-0.446,0.445-0.67,0.99-0.67,1.633
		c0,0.572,0.224,1.08,0.67,1.529c0.447,0.445,0.992,0.668,1.636,0.668c0.571,0,1.081-0.223,1.527-0.668
		c0.446-0.449,0.669-0.957,0.669-1.529c0-0.643-0.223-1.188-0.669-1.633C24.198,52.969,23.688,52.746,23.117,52.746z M23.117,55.801
		c-0.536,0-0.822-0.248-0.858-0.75c0-0.537,0.285-0.805,0.858-0.805c0.429,0,0.66,0.268,0.696,0.805
		C23.813,55.48,23.581,55.73,23.117,55.801z"/>
	<path fill="#C6204F" d="M27.94,59.875c1.358-1.357,2.037-2.965,2.037-4.824c0-1.93-0.679-3.572-2.037-4.932
		c-1.357-1.357-2.967-2.037-4.823-2.037c-1.931,0-3.573,0.68-4.931,2.037c-1.359,1.359-2.038,3.002-2.038,4.932
		c0,1.859,0.679,3.467,2.038,4.824c1.357,1.359,3,2.037,4.931,2.037C24.974,61.912,26.583,61.234,27.94,59.875z M19.739,58.32
		c-0.93-0.928-1.393-2.037-1.393-3.322c0-1.287,0.463-2.395,1.393-3.324c0.93-0.928,2.037-1.395,3.324-1.395
		s2.395,0.467,3.322,1.395c0.93,0.93,1.395,2.037,1.395,3.324c0,1.285-0.465,2.395-1.395,3.322c-0.928,0.93-2.035,1.393-3.322,1.393
		S20.669,59.25,19.739,58.32z"/>
	<path fill="#C6204F" d="M23.117,68.291c-1.931,0-3.573,0.68-4.931,2.037c-1.359,1.359-2.038,2.984-2.038,4.877
		c0,1.896,0.679,3.529,2.038,4.906c1.357,1.375,3,2.062,4.931,2.062c1.856,0,3.466-0.688,4.823-2.062
		c1.358-1.377,2.037-3.01,2.037-4.906c0-1.893-0.679-3.518-2.037-4.877C26.583,68.971,24.974,68.291,23.117,68.291z M26.386,78.557
		c-0.928,0.945-2.035,1.42-3.322,1.42s-2.395-0.475-3.324-1.42c-0.93-0.947-1.393-2.064-1.393-3.352s0.463-2.393,1.393-3.322
		s2.037-1.395,3.324-1.395s2.395,0.465,3.322,1.395c0.93,0.93,1.395,2.035,1.395,3.322S27.315,77.609,26.386,78.557z"/>
	<path fill="#C6204F" d="M38.394,70.328c-1.357,1.359-2.037,2.984-2.037,4.877c0,1.896,0.68,3.529,2.037,4.906
		c1.357,1.375,2.983,2.062,4.877,2.062c1.895,0,3.529-0.688,4.905-2.062c1.376-1.377,2.063-3.01,2.063-4.906
		c0-1.893-0.688-3.518-2.063-4.877c-1.376-1.357-3.011-2.037-4.905-2.037C41.377,68.291,39.751,68.971,38.394,70.328z
		 M47.988,75.205c0,1.287-0.464,2.404-1.394,3.352c-0.93,0.945-2.037,1.42-3.324,1.42c-1.286,0-2.394-0.475-3.323-1.42
		c-0.929-0.947-1.394-2.064-1.394-3.352s0.465-2.393,1.394-3.322c0.93-0.93,2.037-1.395,3.323-1.395
		c1.287,0,2.395,0.465,3.324,1.395S47.988,73.918,47.988,75.205z"/>
	<path fill="#C6204F" d="M41.663,73.625c-0.465,0.445-0.697,0.973-0.697,1.58c0,0.609,0.232,1.135,0.697,1.582
		c0.464,0.447,1,0.67,1.607,0.67s1.135-0.223,1.582-0.67c0.445-0.447,0.67-0.973,0.67-1.582c0-0.607-0.225-1.135-0.67-1.58
		c-0.447-0.449-0.975-0.67-1.582-0.67S42.127,73.176,41.663,73.625z M43.968,75.205c0,0.215-0.062,0.404-0.188,0.564
		s-0.295,0.24-0.51,0.24c-0.25,0-0.438-0.08-0.562-0.24s-0.188-0.35-0.188-0.564c0-0.463,0.25-0.715,0.75-0.75
		C43.7,74.455,43.933,74.705,43.968,75.205z"/>
</g>
</svg>
