<?xml version="1.0" encoding="utf-8"?>
<!-- Generator: Adobe Illustrator 16.0.0, SVG Export Plug-In . SVG Version: 6.00 Build 0)  -->
<!DOCTYPE svg PUBLIC "-//W3C//DTD SVG 1.1//EN" "http://www.w3.org/Graphics/SVG/1.1/DTD/svg11.dtd">
<svg version="1.1" id="Layer_1" xmlns="http://www.w3.org/2000/svg" xmlns:xlink="http://www.w3.org/1999/xlink" x="0px" y="0px"
	 width="66.333px" height="88.5px" viewBox="0 0 66.333 88.5" enable-background="new 0 0 66.333 88.5" xml:space="preserve">
<g>
	<path fill="#283E99" d="M21.161,71.161c-3.146-1.106-5.36-4.949-6.647-11.524c-1.358-6.611-2.733-10.417-4.127-11.417
		c-1.501-1.106-2.252-2.215-2.252-3.323c0-0.464,1.375-0.697,4.128-0.697c1.858,0,3.181,0.465,3.967,1.393l8.416-2.412
		c-0.214-2.358-0.716-3.948-1.502-4.771c-0.571-0.643-1.304-0.964-2.196-0.964h-1.448c1.287-0.57,2.376-1.34,3.271-2.306
		c0.893-0.965,1.518-1.286,1.876-0.965c2.571,2.038,4.091,4.736,4.556,8.094l4.289-0.964l0.374-3.538
		c0.215-1.823,0-3.163-0.643-4.02c-0.501-0.678-0.751-1.213-0.751-1.608c0-1.143,0.93-2.108,2.787-2.895
		c0,0.68,0.215,1.467,0.645,2.358c0.606,1.109,2.625,2.056,6.057,2.841c-2.287,1.001-3.664,2.984-4.128,5.95
		c2.037-0.285,4.396-0.838,7.075-1.662c0.465,0,1.51,0.358,3.137,1.072c1.625,0.716,3.386,1.707,5.278,2.977
		c1.896,1.267,3.521,2.812,4.878,4.635c-1.93,1.001-3.5,2.985-4.717,5.95c-1.357,3.323-2.662,6.344-3.913,9.059
		c-1.25,2.717-2.681,4.683-4.288,5.896c-1.607,1.216-3.055,1.823-4.342,1.823c-0.714,0-1.071-0.446-1.071-1.34
		c0-1.036-0.339-1.732-1.019-2.09c-0.68-0.356-1.77-0.536-3.27-0.536c-3.788,0-7.129,0.877-10.023,2.626
		C23.125,70.376,21.661,71.161,21.161,71.161z M24.216,28.439c-2.432,0-4.629-0.384-6.594-1.151
		c-1.966-0.769-3.287-1.831-3.967-3.19c0.93-0.429,2.055-0.429,3.377,0c0.893,0.321,2.645,0.242,5.253-0.24
		c2.608-0.482,5.629-1.476,9.06-2.977c3.43-1.5,5.484-2.474,6.164-2.919c0.678-0.448,1.304-0.652,1.877-0.618
		c2.178,0.214,4.277,0.733,6.297,1.554c2.018,0.823,3.028,1.447,3.028,1.876c0,0.573-1.356,1.645-4.073,3.216
		c-1.322,0.751-3.332,1.492-6.029,2.226c-2.699,0.732-5.37,1.286-8.015,1.662C27.949,28.252,25.824,28.439,24.216,28.439z
		 M21.75,65.64c2.574-0.999,4.664-1.823,6.272-2.466c3.144-1.214,5.896-1.823,8.255-1.823c2.393,0,3.957,0.545,4.689,1.637
		c0.732,1.089,1.402,1.277,2.01,0.562c1.109-1.213,2.135-3.493,3.083-6.833c0.946-3.343,1.831-6.854,2.652-10.535
		c0.572-2.321-1.679-3.179-6.753-2.572l-4.879,0.59c-0.32,0.465-0.481,1.751-0.481,3.859c0,1.323,0.875,1.983,2.626,1.983
		c0.572,0,1.482-0.446,2.734-1.34c0.643,0.358,1.125,0.813,1.446,1.368c0.321,0.554,0.482,1.205,0.482,1.956
		c0,0.787-0.606,1.537-1.821,2.251c-1.217,0.716-2.68,1.072-4.396,1.072c-1.857,0-3.188-0.57-3.992-1.716
		c-0.805-1.143-1.082-2.894-0.832-5.252l0.322-3.592l-3.806,0.697c-0.107,3.933-0.617,6.87-1.528,8.818
		c-0.91,1.947-2.527,3.564-4.851,4.85c1.608-3.109,2.34-6.432,2.198-9.97l-0.161-3.002c-1.608,0.465-3.074,0.787-4.396,0.966
		c-1.322,0.18-2.556,0.268-3.698,0.268c0.679,1.323,1.429,3.503,2.251,6.54C20,56.992,20.857,60.889,21.75,65.64z"/>
</g>
</svg>
