<?xml version="1.0" encoding="utf-8"?>
<!-- Generator: Adobe Illustrator 16.0.0, SVG Export Plug-In . SVG Version: 6.00 Build 0)  -->
<!DOCTYPE svg PUBLIC "-//W3C//DTD SVG 1.1//EN" "http://www.w3.org/Graphics/SVG/1.1/DTD/svg11.dtd">
<svg version="1.1" id="Layer_1" xmlns="http://www.w3.org/2000/svg" xmlns:xlink="http://www.w3.org/1999/xlink" x="0px" y="0px"
	 width="66.334px" height="88.5px" viewBox="0 0 66.334 88.5" enable-background="new 0 0 66.334 88.5" xml:space="preserve">
<g>
	<path fill="#283E99" d="M37.473,25.489c1.035,0,1.93-0.375,2.68-1.125s1.125-1.662,1.125-2.734c0-1.035-0.375-1.93-1.125-2.68
		c-0.75-0.75-1.645-1.125-2.68-1.125c-1.072,0-1.977,0.375-2.707,1.125c-0.732,0.75-1.1,1.645-1.1,2.68
		c0,1.072,0.367,1.984,1.1,2.734C35.496,25.113,36.4,25.489,37.473,25.489z M36.105,20.317c0.375-0.375,0.832-0.564,1.367-0.564
		s0.982,0.189,1.34,0.564c0.357,0.375,0.537,0.812,0.537,1.312c0,0.536-0.18,0.993-0.537,1.369c-0.357,0.375-0.805,0.562-1.34,0.562
		s-0.992-0.187-1.367-0.562c-0.375-0.375-0.562-0.833-0.562-1.369C35.543,21.13,35.73,20.693,36.105,20.317z"/>
	<path fill="#283E99" d="M31.254,17.878c-0.07-0.354-0.086-0.707-0.08-1.06c-0.463,0.942-0.699,2.215-1.803,2.416
		c0.092,0.151,0.154,0.332,0.168,0.574c0.029,0.539,0.045,1.201,0.049,1.938c0.824,0.317,1.479,0.702,1.984,1.161
		C31.533,20.675,31.428,18.993,31.254,17.878z"/>
	<path fill="#C6204F" d="M43.049,45.858c0.527-0.444,0.971-0.889,1.369-1.335c0.137-0.725-0.012-1.449-0.568-2.174
		c-0.385,0.504-0.791,0.963-1.23,1.365c-1.039,0.964-3.414,1.554-7.131,1.769h-0.482c-0.822,0-1.947-0.107-3.375-0.321
		c-2.467-0.356-4.004-0.839-4.611-1.447c-0.006-0.006-0.008-0.013-0.014-0.02c-0.045-0.049-0.068-0.098-0.104-0.146
		c-0.117-0.173-0.164-0.342-0.156-0.506c-0.688,0.736-0.793,1.665-0.67,2.67c0.094,0.1,0.189,0.212,0.293,0.349
		c0.002,0.004,0.004,0.006,0.008,0.01c0.143,0.214,0.268,0.465,0.375,0.75l-0.379,0.026l-0.088,0.006
		c0.08,0.336,0.164,0.677,0.248,1.015l0.486-0.029c0.143,0.894,0.215,2.056,0.215,3.485c0.072,7.684,2.197,15.885,6.379,24.604
		c1.463,2.824,3.09,5.058,4.877,6.7c-0.822-1.357-2.467-5.02-4.932-10.988c-2.572-6.146-3.932-12.47-4.072-18.976
		c0-1.822-0.162-3.464-0.484-4.931l1.072,0.269c0.43,9.292,2.037,17.474,4.826,24.549c1.143,2.932,2.107,5.146,2.893,6.646
		c1.145,2.251,2.092,3.592,2.842,4.021c-0.643-1.357-1.27-2.751-1.877-4.181c-0.572-1.394-1.412-3.555-2.52-6.486
		c-2.25-5.682-3.857-13.81-4.822-24.389c0.285,0.037,0.59,0.073,0.91,0.107c0.107,3.681,0.553,7.611,1.34,11.792
		c1.287,6.683,3.092,12.777,5.414,18.278c-1.143-4.465-2.377-9.272-3.699-14.419c0.857,2.753,1.592,4.844,2.199,6.272
		c0.141,2.753,1.463,6.683,3.965,11.792c-1.822-4.824-2.824-8.235-3-10.238c0.428,1.252,1.588,4.235,3.482,8.952
		c-0.465-3.572-1.52-7.485-3.162-11.739c-0.072-1.643-0.107-3.036-0.107-4.182c1.25,6.577,2.984,11.437,5.199,14.58
		c-2.857-7.683-4.412-13.364-4.664-17.046c-0.213-2.822-0.393-5.163-0.535-7.021c-0.285-3.002-0.445-5.431-0.48-7.29
		c0.32-0.035,0.607-0.088,0.857-0.162c0.07,9.079,0.535,15.296,1.393,18.654c0.965,4.073,1.984,6.861,3.057,8.361
		c-2.289-9.254-3.414-18.366-3.377-27.337c0.213-0.034,0.393-0.088,0.535-0.161c-0.285,10.221,1.285,20.674,4.717,31.357
		c-2.645-14.399-3.717-24.996-3.215-31.786l0.863-0.054c0.307-0.357,0.572-0.715,0.789-1.071L43.049,45.858z M37.633,67.566
		c-2.467-6.539-3.914-12.952-4.342-19.243h1.018c0.43,5.396,1.27,10.043,2.52,13.937c0-4.931-0.268-9.595-0.805-13.99
		c0.395-0.035,0.77-0.071,1.127-0.107c0,2.753,0.107,5.405,0.322,7.961c0.213,2.554,0.24,4.656,0.08,6.298
		C37.393,64.066,37.418,65.781,37.633,67.566z"/>
	<path fill="#283E99" d="M63.068,41.73c-0.592-0.606-1.332-0.911-2.225-0.911c-0.895,0-1.627,0.304-2.199,0.911
		c-0.18,0.144-0.32,0.305-0.43,0.483l-12.49,0.801l-0.051,0.003c0.018-0.007,0.035-0.016,0.055-0.023
		c3.184-1.213,5.311-2.956,6.377-5.23c2.68-5.609,4.02-10.38,4.02-14.312c0-2.607-0.965-3.913-2.895-3.913
		c-1,0-2.037,0.321-3.107,0.965c-1.037,0.679-1.969,1.483-2.789,2.411c-0.064-3.003-1.518-5.364-4.299-7.113
		c-1.934,0-3.668,0-5.873,0c0.963,0.198,1.848,0.449,2.615,0.789c3.715,1.538,5.574,4.325,5.574,8.361
		c0,1.216-0.805,2.432-2.412,3.646c-1.93,1.394-5.307,1.912-10.129,1.554l-1.426-0.051c-0.023,0.618-0.066,1.254-0.139,1.892
		c0.004,0,0.008,0.001,0.012,0.001c0.027,0.003,0.047,0.005,0.072,0.008c0.451,0.058,0.832,0.104,1.104,0.132
		c0.322,0.931,0.125,3.038-0.59,6.325c-0.32,1.5-1.055,3.001-2.197,4.502c1.822-0.964,3.072-2.858,3.752-5.682
		c0.428-1.963,0.555-3.625,0.375-4.984c0.43,0.036,0.82,0.072,1.18,0.107c0.143,0.75,0.213,1.966,0.213,3.645
		c0,2.074-0.84,4.646-2.52,7.719c2.467-1.642,3.754-4.556,3.861-8.737c0-1.036-0.037-1.75-0.107-2.145l-0.055-0.482h1.287
		c0.107,0.857,0.16,2.074,0.16,3.645c0,2.931-0.855,5.504-2.572,7.719c0.43-0.214,0.947-0.57,1.553-1.072
		c1.752-1.536,2.684-4.359,2.789-8.469c0-0.607-0.07-1.287-0.213-2.037c0.428-0.071,0.838-0.125,1.232-0.161
		c0.105,0.321,0.213,1.038,0.32,2.144c0.215,4.003-0.68,7.095-2.68,9.273c1-0.536,1.805-1.249,2.412-2.144
		c1.25-1.786,1.857-4.376,1.822-7.772c0-0.214-0.09-0.893-0.268-2.037c0.572-0.214,1.035-0.462,1.395-0.75
		c0.178,0.965,0.266,2.02,0.266,3.163c0,2.894-0.732,5.575-2.197,8.041c0.301-0.252,0.582-0.526,0.85-0.814
		c-0.037-0.026-0.066-0.052-0.107-0.079c0.041,0.027,0.07,0.053,0.107,0.079c0.723-0.776,1.336-1.681,1.832-2.724
		c0.57-1.287,0.857-3.18,0.857-5.682c0-0.428-0.127-1.447-0.375-3.055c0.713-0.714,1.107-1.447,1.18-2.197
		c0.605,0.75,0.928,2.395,0.963,4.931c-0.035,2.68-0.447,4.915-1.232,6.7c-0.285,0.668-0.605,1.273-0.941,1.848
		c-0.295,0.5-0.607,0.964-0.936,1.397c0.557,0.725,0.705,1.45,0.568,2.174c0.113-0.128,0.242-0.255,0.346-0.381l0.91-0.058
		l13.4-0.854c0.107-0.214,0.25-0.429,0.428-0.644c0.357-0.355,0.805-0.536,1.342-0.536c0.535,0,0.982,0.189,1.34,0.564
		s0.535,0.813,0.535,1.313c0,0.536-0.188,0.983-0.562,1.339c-0.375,0.358-0.814,0.537-1.312,0.537c-0.537,0-0.984-0.195-1.342-0.59
		c-0.107-0.107-0.197-0.231-0.268-0.375l-15.338,0.966c-0.217,0.356-0.482,0.714-0.789,1.071l15.322-0.965l0.215,0.215
		c0.572,0.609,1.305,0.911,2.199,0.911c0.82,0,1.545-0.294,2.17-0.883c0.625-0.59,0.938-1.332,0.938-2.225
		C63.951,43.071,63.656,42.339,63.068,41.73z M48.727,31.868c0-2.358-0.408-4.269-1.23-5.735c2.502-2.858,4.182-4.342,5.039-4.449
		c0.893-0.107,1.34,0.251,1.34,1.072c0,4.217-0.949,8.737-2.842,13.562c-0.787,2.181-2.357,3.825-4.717,4.931
		C47.889,38.568,48.691,35.442,48.727,31.868z"/>
	<path fill="#1F7529" d="M31.576,23.077c-0.002-0.06-0.004-0.11-0.004-0.169c-0.506-0.459-1.16-0.844-1.984-1.161
		c0.002,0.145,0.004,0.268,0.004,0.419c-0.242-0.094-0.529-0.171-0.84-0.239c-0.51-0.114-1.098-0.198-1.787-0.243
		c-1.07-0.071-2.553,0.18-4.447,0.75c-3.789,1.108-5.682,4.432-5.682,9.97c0,3.323,0.805,7.397,2.412,12.221l-5.84,0.323
		c0.059,0.349,0.078,0.706,0.066,1.062l6.094-0.366c0.143,0.609,0.143,1.145,0,1.608l-6.391,0.387
		c-0.127,0.379-0.291,0.744-0.49,1.088l6.238-0.403c-1.607,1.394-3.877,2.753-6.809,4.074c-2.215,1.001-4.967,1.949-8.254,2.841
		c-1.859,0.573-1.965,0.877-0.322,0.911c6.969,0,13.295-2.68,18.977-8.041l3.93-0.233l0.086-0.005
		c-0.084-0.338-0.168-0.679-0.248-1.015l-2.643,0.182c0.465-0.5,0.947-1.018,1.449-1.555c0.031-0.033,0.07-0.045,0.105-0.069
		c0.115-0.077,0.238-0.118,0.375-0.092c0.143,0.049,0.312,0.184,0.504,0.391c-0.123-1.006-0.018-1.935,0.67-2.67
		c0.006-0.118,0.037-0.234,0.113-0.347c0.08-0.131,0.148-0.268,0.227-0.399c1.145-1.958,2.109-4.038,2.883-6.248
		c0.174-0.583,0.334-1.132,0.486-1.665c0.135-0.475,0.256-0.928,0.371-1.363c0.096-0.363,0.188-0.714,0.268-1.045
		c0.057,0.007,0.1,0.012,0.152,0.019c0.072-0.638,0.115-1.274,0.139-1.892l-0.076-0.003c0.037-0.269,0.068-0.557,0.098-0.852
		c0.111-1.085,0.172-2.34,0.186-3.761C31.6,24.726,31.598,23.934,31.576,23.077z M25.732,40.498
		c-1.107,2.358-2.572,4.254-4.395,5.682c0.357-0.5,0.143-1.921-0.643-4.261c-0.787-2.341-1.18-3.941-1.18-4.798
		c1.357,0.823,2.447,2.198,3.27,4.127c0.357-2.714-0.857-4.698-3.646-5.949c-0.105-1.502-0.158-2.447-0.158-2.841
		c0-1.321,0.105-2.145,0.32-2.466c3.467,3.252,5.199,5.932,5.199,8.04c0.178,0,0.322-0.41,0.428-1.233
		c0.465-2.714-1.268-5.467-5.197-8.254c0.463-1.608,1.053-2.661,1.77-3.163c1.855,1.575,3.322,3.377,4.395,5.414
		c0.535,1.072,0.945,2.217,1.232,3.431l0.053-3.109c0-1.823-1.393-4.037-4.18-6.646c0.572-0.462,1.5-0.785,2.787-0.965
		c1.107-0.107,2.34,0.107,3.699,0.643C29.486,30.188,28.234,35.639,25.732,40.498z"/>
	<path fill="#C6204F" d="M31.174,16.818c0.004-0.182,0.002-0.365,0.027-0.548c0.045-0.256,0.145-0.446,0.279-0.594
		c0.182-0.203,0.441-0.317,0.793-0.317h0.215c1.738,0,3.262,0.155,4.615,0.43c0.021,0.005,0.039,0.011,0.059,0.015
		c2.205,0,3.939,0,5.873,0c-0.199-0.126-0.391-0.257-0.604-0.378c-0.104-0.056-0.189-0.119-0.297-0.174
		c0.965-0.034,1.77-0.161,2.412-0.375c3.607-1.25,7.307-4.448,11.096-9.594c-5.145,4.04-8.934,6.057-11.363,6.057
		c-2.107,0-4.234-0.965-6.379-2.895c-1.822-1.786-3.967-2.68-6.432-2.68c-3.965,0-5.969,1.574-6.004,4.717
		c-0.037,1.5,0.357,2.7,1.18,3.591c1.43,1.645,0.822,2.502-1.822,2.574c-1.25,0-2.52-0.161-3.807-0.483
		c1.68,1.788,4.217,2.68,7.611,2.68c0.018,0,0.027,0.005,0.041,0.006c0.332,0.011,0.561,0.147,0.703,0.385
		C30.475,19.033,30.711,17.76,31.174,16.818z M29.111,10.855c0.035-1.571,0.963-2.359,2.785-2.359s3.262,0.546,4.316,1.636
		c1.053,1.089,2.402,1.938,4.047,2.545c-3.039,0.466-6.164,0.502-9.381,0.107C29.699,12.644,29.111,12,29.111,10.855z"/>
</g>
<path fill="#283E99" d="M19.287,47.267l-10.26,0.623c-0.107,0.25-0.252,0.464-0.428,0.643c-0.395,0.358-0.842,0.536-1.342,0.536
	c-0.535,0-0.982-0.187-1.34-0.562s-0.535-0.812-0.535-1.314c0-0.5,0.178-0.937,0.535-1.312c0.357-0.375,0.805-0.564,1.34-0.564
	c0.537,0,0.982,0.181,1.342,0.536c0.141,0.144,0.25,0.287,0.32,0.429l10.521-0.631c-0.07-0.332-0.207-0.671-0.424-1.014l-9.4,0.519
	C9.58,45.084,9.545,45.03,9.51,44.994c-0.607-0.606-1.357-0.911-2.252-0.911c-0.893,0-1.633,0.305-2.225,0.911
	c-0.588,0.609-0.883,1.34-0.883,2.198s0.295,1.591,0.883,2.198C5.625,49.998,6.365,50.3,7.258,50.3c0.822,0,1.555-0.303,2.199-0.911
	c0.143-0.142,0.285-0.302,0.43-0.482l8.621-0.557C18.846,48.022,19.115,47.659,19.287,47.267z"/>
</svg>
