<?xml version="1.0" encoding="utf-8"?>
<!-- Generator: Adobe Illustrator 16.0.0, SVG Export Plug-In . SVG Version: 6.00 Build 0)  -->
<!DOCTYPE svg PUBLIC "-//W3C//DTD SVG 1.1//EN" "http://www.w3.org/Graphics/SVG/1.1/DTD/svg11.dtd">
<svg version="1.1" id="Layer_1" xmlns="http://www.w3.org/2000/svg" xmlns:xlink="http://www.w3.org/1999/xlink" x="0px" y="0px"
	 width="66.334px" height="88.5px" viewBox="0 0 66.334 88.5" enable-background="new 0 0 66.334 88.5" xml:space="preserve">
<g>
	<path fill="#1F7529" d="M33.168,3.914c1.93,0,3.654,0.225,5.172,0.671c1.52,0.446,2.277,1.044,2.277,1.795
		c0,0.823-0.893,1.466-2.68,1.929V20.96c1.787,0.536,2.68,1.179,2.68,1.929c0,0.824-0.893,1.467-2.68,1.931v12.596
		c1.787,0.536,2.68,1.199,2.68,1.984c0,0.823-0.768,1.43-2.305,1.822c-1.537,0.394-3.252,0.589-5.145,0.589
		c-1.895,0-3.609-0.195-5.148-0.589c-1.535-0.393-2.303-1-2.303-1.822c0-0.785,0.893-1.448,2.68-1.984V24.82
		c-1.787-0.464-2.68-1.107-2.68-1.931c0-0.75,0.893-1.393,2.68-1.929V8.31c-1.787-0.463-2.68-1.106-2.68-1.929
		c0-0.751,0.76-1.349,2.277-1.795C29.514,4.139,31.238,3.914,33.168,3.914z M33.168,46.689c1.93,0,3.654,0.223,5.172,0.67
		c1.52,0.446,2.277,1.044,2.277,1.795c0,0.824-0.893,1.466-2.68,1.93v12.65c1.787,0.536,2.68,1.18,2.68,1.93
		c0,0.823-0.893,1.466-2.68,1.93V80.19c1.787,0.536,2.68,1.198,2.68,1.983c0,0.824-0.768,1.43-2.305,1.823
		c-1.537,0.394-3.252,0.59-5.145,0.59c-1.895,0-3.609-0.196-5.148-0.59c-1.535-0.393-2.303-0.999-2.303-1.823
		c0-0.785,0.893-1.447,2.68-1.983V67.594c-1.787-0.463-2.68-1.106-2.68-1.93c0-0.75,0.893-1.394,2.68-1.93v-12.65
		c-1.787-0.463-2.68-1.106-2.68-1.93c0-0.751,0.76-1.349,2.277-1.795C29.514,46.912,31.238,46.689,33.168,46.689z M33.168,20.37
		c0.678,0,1.213,0.02,1.607,0.053v-13.4c0.57-0.071,1-0.142,1.287-0.214c0.678-0.178,1.018-0.302,1.018-0.375
		c0-0.071-0.375-0.195-1.125-0.376c-0.752-0.177-1.682-0.268-2.787-0.268c-1.109,0-2.037,0.091-2.789,0.268
		c-0.75,0.181-1.125,0.305-1.125,0.376c0,0.073,0.338,0.198,1.018,0.375c0.287,0.072,0.715,0.144,1.287,0.214v13.4
		C31.951,20.39,32.488,20.37,33.168,20.37z M33.168,23.479c1.105,0,2.035-0.079,2.787-0.239c0.75-0.161,1.125-0.277,1.125-0.35
		c0-0.07-0.375-0.195-1.125-0.375c-0.752-0.178-1.682-0.268-2.787-0.268c-1.109,0-2.037,0.09-2.789,0.268
		c-0.75,0.18-1.125,0.305-1.125,0.375c0,0.073,0.375,0.189,1.125,0.35C31.131,23.4,32.059,23.479,33.168,23.479z M33.168,39.881
		c1.105,0,2.035-0.079,2.787-0.24c0.75-0.161,1.125-0.277,1.125-0.35c0-0.071-0.34-0.195-1.018-0.375
		c-0.287-0.071-0.717-0.142-1.287-0.215v-13.4c-0.395,0.037-0.93,0.054-1.607,0.054c-0.68,0-1.217-0.017-1.609-0.054v13.4
		c-0.572,0.073-1,0.144-1.287,0.215c-0.68,0.181-1.018,0.305-1.018,0.375c0,0.073,0.375,0.188,1.125,0.35
		C31.131,39.802,32.059,39.881,33.168,39.881z M33.168,63.145c0.678,0,1.213,0.02,1.607,0.054V49.797c0.57-0.07,1-0.141,1.287-0.214
		c0.678-0.177,1.018-0.302,1.018-0.375c0-0.07-0.375-0.195-1.125-0.374c-0.752-0.178-1.682-0.269-2.787-0.269
		c-1.109,0-2.037,0.09-2.789,0.269c-0.75,0.179-1.125,0.304-1.125,0.374c0,0.073,0.338,0.198,1.018,0.375
		c0.287,0.073,0.715,0.144,1.287,0.214v13.401C31.951,63.164,32.488,63.145,33.168,63.145z M33.168,66.254
		c1.105,0,2.035-0.08,2.787-0.241c0.75-0.161,1.125-0.276,1.125-0.349c0-0.07-0.375-0.195-1.125-0.375
		c-0.752-0.178-1.682-0.268-2.787-0.268c-1.109,0-2.037,0.09-2.789,0.268c-0.75,0.18-1.125,0.305-1.125,0.375
		c0,0.073,0.375,0.188,1.125,0.349C31.131,66.174,32.059,66.254,33.168,66.254z M33.168,82.656c1.105,0,2.035-0.079,2.787-0.24
		c0.75-0.161,1.125-0.277,1.125-0.35c0-0.071-0.34-0.195-1.018-0.375c-0.287-0.07-0.717-0.141-1.287-0.215V68.076
		c-0.395,0.037-0.93,0.054-1.607,0.054c-0.68,0-1.217-0.018-1.609-0.054v13.401c-0.572,0.074-1,0.145-1.287,0.215
		c-0.68,0.18-1.018,0.304-1.018,0.375c0,0.073,0.375,0.189,1.125,0.35C31.131,82.577,32.059,82.656,33.168,82.656z"/>
</g>
</svg>
