<?xml version="1.0" encoding="utf-8"?>
<!-- Generator: Adobe Illustrator 16.0.0, SVG Export Plug-In . SVG Version: 6.00 Build 0)  -->
<!DOCTYPE svg PUBLIC "-//W3C//DTD SVG 1.1//EN" "http://www.w3.org/Graphics/SVG/1.1/DTD/svg11.dtd">
<svg version="1.1" id="Layer_1" xmlns="http://www.w3.org/2000/svg" xmlns:xlink="http://www.w3.org/1999/xlink" x="0px" y="0px"
	 width="66.334px" height="88.5px" viewBox="0 0 66.334 88.5" enable-background="new 0 0 66.334 88.5" xml:space="preserve">
<g>
	<path fill="#1F7529" d="M13.87,46.689c1.93,0,3.654,0.223,5.172,0.671c1.52,0.446,2.279,1.043,2.279,1.794
		c0,0.823-0.895,1.467-2.68,1.929v12.651c1.785,0.536,2.68,1.179,2.68,1.929c0,0.824-0.895,1.467-2.68,1.93v12.596
		c1.785,0.536,2.68,1.199,2.68,1.984c0,0.823-0.771,1.43-2.305,1.822c-1.537,0.394-3.254,0.589-5.146,0.589
		c-1.895,0-3.611-0.195-5.145-0.589c-1.539-0.393-2.307-1-2.307-1.822c0-0.785,0.893-1.448,2.68-1.984V67.595
		c-1.787-0.463-2.68-1.106-2.68-1.93c0-0.75,0.893-1.393,2.68-1.929V51.084c-1.787-0.462-2.68-1.106-2.68-1.929
		c0-0.751,0.758-1.349,2.277-1.794C10.216,46.912,11.94,46.689,13.87,46.689z M13.87,63.146c0.678,0,1.213,0.02,1.607,0.054V49.798
		c0.57-0.07,1-0.142,1.287-0.214c0.678-0.178,1.02-0.303,1.02-0.375c0-0.071-0.377-0.195-1.127-0.375
		c-0.75-0.177-1.68-0.268-2.787-0.268c-1.109,0-2.037,0.09-2.787,0.268c-0.75,0.18-1.125,0.305-1.125,0.375
		c0,0.072,0.338,0.197,1.016,0.375c0.287,0.073,0.715,0.144,1.287,0.214v13.401C12.653,63.165,13.19,63.146,13.87,63.146z
		 M13.87,66.254c1.107,0,2.037-0.079,2.787-0.24c0.75-0.161,1.127-0.277,1.127-0.35c0-0.071-0.377-0.195-1.127-0.375
		c-0.75-0.179-1.68-0.269-2.787-0.269c-1.109,0-2.037,0.09-2.787,0.269c-0.75,0.18-1.125,0.303-1.125,0.375
		c0,0.073,0.375,0.189,1.125,0.35C11.833,66.175,12.761,66.254,13.87,66.254z M13.87,82.657c1.107,0,2.037-0.079,2.787-0.24
		c0.75-0.161,1.127-0.276,1.127-0.349c0-0.071-0.342-0.195-1.02-0.375c-0.287-0.071-0.717-0.142-1.287-0.214V68.077
		c-0.395,0.037-0.93,0.054-1.607,0.054c-0.68,0-1.217-0.017-1.609-0.054v13.401c-0.572,0.073-1,0.144-1.287,0.214
		c-0.678,0.18-1.016,0.304-1.016,0.375c0,0.073,0.375,0.188,1.125,0.349C11.833,82.578,12.761,82.657,13.87,82.657z M33.167,3.915
		c1.93,0,3.652,0.224,5.172,0.671c1.518,0.447,2.279,1.044,2.279,1.795c0,0.823-0.895,1.467-2.682,1.93v12.65
		c1.787,0.536,2.682,1.179,2.682,1.93c0,0.823-0.895,1.466-2.682,1.93v12.596c1.787,0.536,2.682,1.198,2.682,1.983
		c0,0.823-0.771,1.431-2.305,1.822c-1.537,0.395-3.254,0.59-5.146,0.59c-1.895,0-3.611-0.195-5.145-0.59
		c-1.539-0.392-2.307-0.999-2.307-1.822c0-0.785,0.893-1.447,2.682-1.983V24.82c-1.789-0.464-2.682-1.106-2.682-1.93
		c0-0.751,0.893-1.395,2.682-1.93V8.31c-1.789-0.462-2.682-1.107-2.682-1.93c0-0.75,0.76-1.348,2.277-1.795
		C29.513,4.139,31.237,3.915,33.167,3.915z M33.167,20.371c0.678,0,1.213,0.019,1.607,0.053v-13.4c0.57-0.071,1-0.142,1.287-0.214
		c0.678-0.179,1.018-0.303,1.018-0.375c0-0.071-0.375-0.195-1.125-0.375c-0.75-0.178-1.682-0.268-2.787-0.268
		c-1.109,0-2.037,0.09-2.787,0.268c-0.75,0.181-1.125,0.305-1.125,0.375c0,0.073,0.338,0.197,1.018,0.375
		c0.285,0.072,0.713,0.143,1.285,0.214v13.4C31.952,20.39,32.487,20.371,33.167,20.371z M33.167,23.479
		c1.105,0,2.037-0.079,2.787-0.24c0.75-0.162,1.125-0.277,1.125-0.349c0-0.071-0.375-0.196-1.125-0.376
		c-0.75-0.178-1.682-0.268-2.787-0.268c-1.109,0-2.037,0.09-2.787,0.268c-0.75,0.18-1.125,0.305-1.125,0.376
		c0,0.072,0.375,0.188,1.125,0.349C31.13,23.4,32.058,23.479,33.167,23.479z M33.167,39.882c1.105,0,2.037-0.08,2.787-0.24
		c0.75-0.161,1.125-0.277,1.125-0.35c0-0.07-0.34-0.195-1.018-0.375c-0.287-0.071-0.717-0.142-1.287-0.215v-13.4
		c-0.395,0.036-0.93,0.053-1.607,0.053c-0.68,0-1.215-0.017-1.609-0.053v13.4c-0.572,0.073-1,0.144-1.285,0.215
		c-0.68,0.18-1.018,0.304-1.018,0.375c0,0.073,0.375,0.189,1.125,0.35C31.13,39.802,32.058,39.882,33.167,39.882z M52.464,46.689
		c1.93,0,3.654,0.223,5.172,0.671c1.52,0.446,2.279,1.043,2.279,1.794c0,0.823-0.895,1.467-2.68,1.929v12.651
		c1.785,0.536,2.68,1.179,2.68,1.929c0,0.824-0.895,1.467-2.68,1.93v12.596c1.785,0.536,2.68,1.199,2.68,1.984
		c0,0.823-0.77,1.43-2.305,1.822c-1.537,0.394-3.254,0.589-5.146,0.589c-1.895,0-3.611-0.195-5.146-0.589
		c-1.537-0.393-2.305-1-2.305-1.822c0-0.785,0.893-1.448,2.682-1.984V67.595c-1.789-0.463-2.682-1.106-2.682-1.93
		c0-0.75,0.893-1.393,2.682-1.929V51.084c-1.789-0.462-2.682-1.106-2.682-1.929c0-0.751,0.76-1.349,2.277-1.794
		C48.81,46.912,50.534,46.689,52.464,46.689z M52.464,63.146c0.678,0,1.213,0.02,1.607,0.054V49.798c0.57-0.07,1-0.142,1.287-0.214
		c0.678-0.178,1.02-0.303,1.02-0.375c0-0.071-0.377-0.195-1.127-0.375c-0.75-0.177-1.68-0.268-2.787-0.268s-2.037,0.09-2.785,0.268
		c-0.752,0.18-1.127,0.305-1.127,0.375c0,0.072,0.338,0.197,1.018,0.375c0.285,0.073,0.715,0.144,1.287,0.214v13.401
		C51.249,63.165,51.784,63.146,52.464,63.146z M52.464,66.254c1.107,0,2.037-0.079,2.787-0.24c0.75-0.161,1.127-0.277,1.127-0.35
		c0-0.071-0.377-0.195-1.127-0.375c-0.75-0.179-1.68-0.269-2.787-0.269s-2.037,0.09-2.785,0.269
		c-0.752,0.18-1.127,0.303-1.127,0.375c0,0.073,0.375,0.189,1.127,0.35C50.427,66.175,51.356,66.254,52.464,66.254z M52.464,82.657
		c1.107,0,2.037-0.079,2.787-0.24c0.75-0.161,1.127-0.276,1.127-0.349c0-0.071-0.342-0.195-1.02-0.375
		c-0.287-0.071-0.717-0.142-1.287-0.214V68.077c-0.395,0.037-0.93,0.054-1.607,0.054c-0.68,0-1.215-0.017-1.607-0.054v13.401
		c-0.572,0.073-1.002,0.144-1.287,0.214c-0.68,0.18-1.018,0.304-1.018,0.375c0,0.073,0.375,0.188,1.127,0.349
		C50.427,82.578,51.356,82.657,52.464,82.657z"/>
</g>
</svg>
