<?xml version="1.0" encoding="utf-8"?>
<!-- Generator: Adobe Illustrator 16.0.0, SVG Export Plug-In . SVG Version: 6.00 Build 0)  -->
<!DOCTYPE svg PUBLIC "-//W3C//DTD SVG 1.1//EN" "http://www.w3.org/Graphics/SVG/1.1/DTD/svg11.dtd">
<svg version="1.1" id="Layer_1" xmlns="http://www.w3.org/2000/svg" xmlns:xlink="http://www.w3.org/1999/xlink" x="0px" y="0px"
	 width="66.334px" height="88.5px" viewBox="0 0 66.334 88.5" enable-background="new 0 0 66.334 88.5" xml:space="preserve">
<g>
	<path fill="#1F7529" d="M18.158,3.915c1.93,0,3.654,0.224,5.174,0.671c1.518,0.447,2.277,1.044,2.277,1.795
		c0,0.823-0.893,1.467-2.682,1.93v12.65c1.789,0.536,2.682,1.179,2.682,1.93c0,0.823-0.893,1.466-2.682,1.93v12.596
		c1.789,0.536,2.682,1.198,2.682,1.983c0,0.823-0.77,1.431-2.307,1.822c-1.535,0.395-3.25,0.59-5.145,0.59s-3.609-0.195-5.146-0.59
		c-1.535-0.392-2.305-0.999-2.305-1.822c0-0.785,0.895-1.447,2.68-1.983V24.82c-1.785-0.464-2.68-1.106-2.68-1.93
		c0-0.751,0.895-1.395,2.68-1.93V8.31c-1.785-0.462-2.68-1.107-2.68-1.93c0-0.75,0.76-1.348,2.279-1.795
		C14.504,4.139,16.229,3.915,18.158,3.915z M18.158,46.689c1.93,0,3.654,0.223,5.174,0.671c1.518,0.446,2.277,1.043,2.277,1.794
		c0,0.823-0.893,1.467-2.682,1.929v12.651c1.789,0.536,2.682,1.179,2.682,1.929c0,0.824-0.893,1.467-2.682,1.93v12.596
		c1.789,0.536,2.682,1.199,2.682,1.984c0,0.823-0.77,1.43-2.307,1.822c-1.535,0.394-3.25,0.589-5.145,0.589
		s-3.609-0.195-5.146-0.589c-1.535-0.393-2.305-1-2.305-1.822c0-0.785,0.895-1.448,2.68-1.984V67.595
		c-1.785-0.463-2.68-1.106-2.68-1.93c0-0.75,0.895-1.393,2.68-1.929V51.084c-1.785-0.462-2.68-1.106-2.68-1.929
		c0-0.751,0.76-1.349,2.279-1.794C14.504,46.912,16.229,46.689,18.158,46.689z M18.158,20.371c0.68,0,1.215,0.019,1.607,0.053v-13.4
		c0.572-0.071,1.002-0.142,1.287-0.214c0.678-0.179,1.02-0.303,1.02-0.375c0-0.071-0.377-0.195-1.127-0.375
		c-0.75-0.178-1.68-0.268-2.787-0.268c-1.109,0-2.037,0.09-2.787,0.268c-0.75,0.181-1.127,0.305-1.127,0.375
		c0,0.073,0.34,0.197,1.02,0.375c0.287,0.072,0.715,0.143,1.285,0.214v13.4C16.943,20.39,17.479,20.371,18.158,20.371z
		 M18.158,23.479c1.107,0,2.037-0.079,2.787-0.24c0.75-0.162,1.127-0.277,1.127-0.349c0-0.071-0.377-0.196-1.127-0.376
		c-0.75-0.178-1.68-0.268-2.787-0.268c-1.109,0-2.037,0.09-2.787,0.268c-0.75,0.18-1.127,0.305-1.127,0.376
		c0,0.072,0.377,0.188,1.127,0.349C16.121,23.4,17.049,23.479,18.158,23.479z M18.158,39.882c1.107,0,2.037-0.08,2.787-0.24
		c0.75-0.161,1.127-0.277,1.127-0.35c0-0.07-0.342-0.195-1.02-0.375c-0.285-0.071-0.715-0.142-1.287-0.215v-13.4
		c-0.393,0.036-0.928,0.053-1.607,0.053s-1.215-0.017-1.609-0.053v13.4c-0.57,0.073-0.998,0.144-1.285,0.215
		c-0.68,0.18-1.02,0.304-1.02,0.375c0,0.073,0.377,0.189,1.127,0.35C16.121,39.802,17.049,39.882,18.158,39.882z M18.158,63.146
		c0.68,0,1.215,0.02,1.607,0.054V49.798c0.572-0.07,1.002-0.142,1.287-0.214c0.678-0.178,1.02-0.303,1.02-0.375
		c0-0.071-0.377-0.195-1.127-0.375c-0.75-0.177-1.68-0.268-2.787-0.268c-1.109,0-2.037,0.09-2.787,0.268
		c-0.75,0.18-1.127,0.305-1.127,0.375c0,0.072,0.34,0.197,1.02,0.375c0.287,0.073,0.715,0.144,1.285,0.214v13.401
		C16.943,63.165,17.479,63.146,18.158,63.146z M18.158,66.254c1.107,0,2.037-0.079,2.787-0.24c0.75-0.161,1.127-0.277,1.127-0.35
		c0-0.071-0.377-0.195-1.127-0.375c-0.75-0.179-1.68-0.269-2.787-0.269c-1.109,0-2.037,0.09-2.787,0.269
		c-0.75,0.18-1.127,0.303-1.127,0.375c0,0.073,0.377,0.189,1.127,0.35C16.121,66.175,17.049,66.254,18.158,66.254z M18.158,82.657
		c1.107,0,2.037-0.079,2.787-0.24c0.75-0.161,1.127-0.276,1.127-0.349c0-0.071-0.342-0.195-1.02-0.375
		c-0.285-0.071-0.715-0.142-1.287-0.214V68.077c-0.393,0.037-0.928,0.054-1.607,0.054s-1.215-0.017-1.609-0.054v13.401
		c-0.57,0.073-0.998,0.144-1.285,0.214c-0.68,0.18-1.02,0.304-1.02,0.375c0,0.073,0.377,0.188,1.127,0.349
		C16.121,82.578,17.049,82.657,18.158,82.657z M48.176,3.915c1.93,0,3.652,0.224,5.172,0.671c1.518,0.447,2.279,1.044,2.279,1.795
		c0,0.823-0.895,1.467-2.682,1.93v12.65c1.787,0.536,2.682,1.179,2.682,1.93c0,0.823-0.895,1.466-2.682,1.93v12.596
		c1.787,0.536,2.682,1.198,2.682,1.983c0,0.823-0.77,1.431-2.307,1.822c-1.535,0.395-3.25,0.59-5.145,0.59s-3.609-0.195-5.146-0.59
		c-1.535-0.392-2.305-0.999-2.305-1.822c0-0.785,0.893-1.447,2.68-1.983V24.82c-1.787-0.464-2.68-1.106-2.68-1.93
		c0-0.751,0.893-1.395,2.68-1.93V8.31c-1.787-0.462-2.68-1.107-2.68-1.93c0-0.75,0.76-1.348,2.279-1.795
		C44.521,4.139,46.246,3.915,48.176,3.915z M48.176,46.689c1.93,0,3.652,0.223,5.172,0.671c1.518,0.446,2.279,1.043,2.279,1.794
		c0,0.823-0.895,1.467-2.682,1.929v12.651c1.787,0.536,2.682,1.179,2.682,1.929c0,0.824-0.895,1.467-2.682,1.93v12.596
		c1.787,0.536,2.682,1.199,2.682,1.984c0,0.823-0.77,1.43-2.307,1.822c-1.535,0.394-3.25,0.589-5.145,0.589
		s-3.609-0.195-5.146-0.589c-1.535-0.393-2.305-1-2.305-1.822c0-0.785,0.893-1.448,2.68-1.984V67.595
		c-1.787-0.463-2.68-1.106-2.68-1.93c0-0.75,0.893-1.393,2.68-1.929V51.084c-1.787-0.462-2.68-1.106-2.68-1.929
		c0-0.751,0.76-1.349,2.279-1.794C44.521,46.912,46.246,46.689,48.176,46.689z M48.176,20.371c0.678,0,1.215,0.019,1.607,0.053
		v-13.4c0.572-0.071,1-0.142,1.287-0.214c0.678-0.179,1.018-0.303,1.018-0.375c0-0.071-0.375-0.195-1.125-0.375
		c-0.75-0.178-1.68-0.268-2.787-0.268s-2.037,0.09-2.787,0.268c-0.752,0.181-1.125,0.305-1.125,0.375
		c0,0.073,0.34,0.197,1.018,0.375c0.285,0.072,0.715,0.143,1.285,0.214v13.4C46.959,20.39,47.496,20.371,48.176,20.371z
		 M48.176,23.479c1.107,0,2.037-0.079,2.787-0.24c0.75-0.162,1.125-0.277,1.125-0.349c0-0.071-0.375-0.196-1.125-0.376
		c-0.75-0.178-1.68-0.268-2.787-0.268s-2.037,0.09-2.787,0.268c-0.752,0.18-1.125,0.305-1.125,0.376
		c0,0.072,0.373,0.188,1.125,0.349C46.139,23.4,47.068,23.479,48.176,23.479z M48.176,39.882c1.107,0,2.037-0.08,2.787-0.24
		c0.75-0.161,1.125-0.277,1.125-0.35c0-0.07-0.34-0.195-1.018-0.375c-0.287-0.071-0.715-0.142-1.287-0.215v-13.4
		c-0.393,0.036-0.93,0.053-1.607,0.053c-0.68,0-1.217-0.017-1.609-0.053v13.4c-0.57,0.073-1,0.144-1.285,0.215
		c-0.678,0.18-1.018,0.304-1.018,0.375c0,0.073,0.373,0.189,1.125,0.35C46.139,39.802,47.068,39.882,48.176,39.882z M48.176,63.146
		c0.678,0,1.215,0.02,1.607,0.054V49.798c0.572-0.07,1-0.142,1.287-0.214c0.678-0.178,1.018-0.303,1.018-0.375
		c0-0.071-0.375-0.195-1.125-0.375c-0.75-0.177-1.68-0.268-2.787-0.268s-2.037,0.09-2.787,0.268
		c-0.752,0.18-1.125,0.305-1.125,0.375c0,0.072,0.34,0.197,1.018,0.375c0.285,0.073,0.715,0.144,1.285,0.214v13.401
		C46.959,63.165,47.496,63.146,48.176,63.146z M48.176,66.254c1.107,0,2.037-0.079,2.787-0.24c0.75-0.161,1.125-0.277,1.125-0.35
		c0-0.071-0.375-0.195-1.125-0.375c-0.75-0.179-1.68-0.269-2.787-0.269s-2.037,0.09-2.787,0.269
		c-0.752,0.18-1.125,0.303-1.125,0.375c0,0.073,0.373,0.189,1.125,0.35C46.139,66.175,47.068,66.254,48.176,66.254z M48.176,82.657
		c1.107,0,2.037-0.079,2.787-0.24c0.75-0.161,1.125-0.276,1.125-0.349c0-0.071-0.34-0.195-1.018-0.375
		c-0.287-0.071-0.715-0.142-1.287-0.214V68.077c-0.393,0.037-0.93,0.054-1.607,0.054c-0.68,0-1.217-0.017-1.609-0.054v13.401
		c-0.57,0.073-1,0.144-1.285,0.214c-0.678,0.18-1.018,0.304-1.018,0.375c0,0.073,0.373,0.188,1.125,0.349
		C46.139,82.578,47.068,82.657,48.176,82.657z"/>
</g>
</svg>
