<?xml version="1.0" encoding="utf-8"?>
<!-- Generator: Adobe Illustrator 16.0.0, SVG Export Plug-In . SVG Version: 6.00 Build 0)  -->
<!DOCTYPE svg PUBLIC "-//W3C//DTD SVG 1.1//EN" "http://www.w3.org/Graphics/SVG/1.1/DTD/svg11.dtd">
<svg version="1.1" id="Layer_1" xmlns="http://www.w3.org/2000/svg" xmlns:xlink="http://www.w3.org/1999/xlink" x="0px" y="0px"
	 width="66.334px" height="88.5px" viewBox="0 0 66.334 88.5" enable-background="new 0 0 66.334 88.5" xml:space="preserve">
<path fill="#283E99" d="M27.731,79.188c-0.68,0-1.197-0.356-1.555-1.072c-0.215-0.536-0.804-1.411-1.77-2.626
	c-0.965-1.214-2.055-2.42-3.27-3.618c-1.215-1.198-2.519-2.259-3.912-3.19c-1.395-0.892-2.091-1.716-2.091-2.465
	c4.931,1.573,8.952,2.448,12.061,2.626l-0.697-15.598c-2.645,4.11-6.146,7.326-10.506,9.648c-4.36,2.325-8.415,3.431-12.167,3.324
	l1.769-0.965c7.754-4.43,14.275-9.917,19.564-16.456c-2.788,1.216-4.396,1.823-4.824,1.823c-0.536,0-0.93-0.141-1.179-0.428
	c-0.358-0.536-0.787-1.411-1.287-2.627c-1.144-2.858-2.34-5.448-3.591-7.772c-1.251-2.322-2.859-4.609-4.825-6.86
	c1.108-0.108,3.074,0.053,5.896,0.482c1.572,0.287,3.842-0.142,6.809-1.286l4.341-1.608v-3.537c-2.645,0.823-4.574,1.34-5.789,1.554
	c-2.036,0.359-3.573-0.57-4.609-2.787l10.398-2.573c0-3.786-0.304-6.288-0.911-7.504c-0.607-1.213-2.073-2.09-4.395-2.626
	c2.072-0.892,3.394-2,3.966-3.323c0.715,1.108,1.831,2.127,3.351,3.056c1.518,0.93,3.511,1.626,5.977,2.09
	c-1.287,1.109-2.091,3.217-2.413,6.325c3.003-0.964,4.789-1.447,5.361-1.447c0.571,0,1.321,0.305,2.251,0.911
	c0.93,0.609,1.394,1.072,1.394,1.394c0,1.109-1.09,1.896-3.27,2.359L31.912,25.8v3.538c5.11-1.715,8.183-2.608,9.22-2.68
	c4.324,1.645,7.164,3.735,8.522,6.272c0,0.25-0.286,0.75-0.857,1.501c-1.821,2.572-3.081,4.885-3.779,6.942
	c-0.696,2.055-1.724,3.797-3.082,5.225c-1.394,1.537-2.681,2.305-3.858,2.305l-4.127-0.804c5.752,5.541,12.685,9.239,20.797,11.096
	l6.861,1.501c0,0.894-1.162,1.5-3.484,1.822c-2.181,0.322-4.234,0.985-6.164,1.984c-1.752,0.894-2.967,1.34-3.645,1.34
	c-0.93,0-2.047-0.615-3.352-1.848s-2.957-2.886-4.957-4.959l-8.095-8.416c0,3.859,0.169,7.631,0.509,11.31
	c0.34,3.681,0.51,6.486,0.51,8.416c0,2.68-0.491,4.825-1.475,6.433C30.473,78.384,29.232,79.188,27.731,79.188z M22.37,47.401
	l4.128-1.018v-4.127c-1.966,0.358-3.627-0.321-4.985-2.037c1.965-0.714,3.627-1.357,4.985-1.929v-4.45l-4.877,1.608
	c-1.573,0.572-2.646,0.912-3.216,1.018c0.464,1.859,1.018,3.708,1.66,5.549C20.708,43.855,21.477,45.652,22.37,47.401z
	 M37.915,46.758c2.324-6.325,3.484-10.433,3.484-12.328c0-2.714-0.679-4.02-2.037-3.914c-2.287,0.288-4.77,0.841-7.45,1.662v4.288
	c0.429-0.214,1.152-0.42,2.171-0.615c1.019-0.197,1.858,0.017,2.52,0.643c0.66,0.624,0.991,1.117,0.991,1.473
	c0,0.787-0.464,1.34-1.394,1.661c-1.965,0.68-3.395,1.126-4.288,1.34v4.503l1.876-0.214C35.395,45.079,36.772,45.579,37.915,46.758z
	"/>
</svg>
