<?xml version="1.0" encoding="utf-8"?>
<!-- Generator: Adobe Illustrator 16.0.0, SVG Export Plug-In . SVG Version: 6.00 Build 0)  -->
<!DOCTYPE svg PUBLIC "-//W3C//DTD SVG 1.1//EN" "http://www.w3.org/Graphics/SVG/1.1/DTD/svg11.dtd">
<svg version="1.1" id="Layer_1" xmlns="http://www.w3.org/2000/svg" xmlns:xlink="http://www.w3.org/1999/xlink" x="0px" y="0px"
	 width="66.334px" height="88.5px" viewBox="0 0 66.334 88.5" enable-background="new 0 0 66.334 88.5" xml:space="preserve">
<g>
	<g>
		<path fill="#E63946" d="M32.926,82.287c-1.035-3.752-1.662-6.985-1.877-9.702c-0.213-2.715-0.436-6.37-0.668-10.961
			c-0.232-4.593-0.457-10.568-0.672-17.931c-2.035,0.572-3.859,1.608-5.467,3.108c-0.857,0.824-1.518,1.233-1.984,1.233
			c-0.605,0-1.195-0.393-1.768-1.18c-0.43-0.643-1.25-2.009-2.465-4.1c-1.217-2.09-2.385-4.208-3.51-6.353
			c-1.127-2.145-2.154-3.555-3.084-4.234c-1.43-1.035-2.467-1.643-3.109-1.822c0.322-0.785,1.342-1.126,3.057-1.019
			c0.713,0.072,2.215,0.18,4.5,0.321c1.219,0.036,3.219-0.375,6.006-1.232c2.787-0.858,5.217-1.519,7.289-1.983l-0.215-7.13
			c-0.107-4.536-2.107-7.146-6.004-7.825c2.646-0.857,3.967-2.554,3.967-5.093c2.967,3.538,7.451,5.594,13.455,6.165
			c-3.109,1.322-4.664,5.521-4.664,12.596l11.418-2.52c1.465,0,2.893,0.59,4.287,1.77l6.004,4.878
			c0.395,0.321,0.59,0.662,0.59,1.019c0,0.43-0.643,0.931-1.93,1.501c-1.25,0.535-2.395,2.251-3.432,5.146
			c-1.033,2.895-2.535,5.368-4.502,7.425c-1.965,2.054-3.467,3.081-4.504,3.081c-0.463,0-0.855-0.187-1.178-0.562
			c-0.32-0.375-0.482-0.742-0.482-1.1c0-0.355-0.23-1.064-0.695-2.116c-0.465-1.056-1.234-1.583-2.307-1.583
			c-0.75,0-1.768,0.145-3.055,0.43l-0.912,27.497c-0.213,5.183-0.658,8.667-1.34,10.453L32.926,82.287z M22.955,43.424
			c2.682-1.393,4.914-2.268,6.701-2.626l-0.43-10.774c-4.752,1.359-8.469,2.037-11.148,2.037
			C19.936,33.706,21.562,37.494,22.955,43.424z M43.539,39.995c2.967-4.467,4.449-8.201,4.449-11.204
			c-0.035-1.93-0.965-2.714-2.787-2.357l-9.434,2.037l0.16,10.935l3.055-0.482c0.607-0.07,1.395,0.268,2.359,1.018
			C42.305,40.691,43.039,40.71,43.539,39.995z"/>
	</g>
</g>
</svg>
