<?xml version="1.0" encoding="utf-8"?>
<!-- Generator: Adobe Illustrator 16.0.0, SVG Export Plug-In . SVG Version: 6.00 Build 0)  -->
<!DOCTYPE svg PUBLIC "-//W3C//DTD SVG 1.1//EN" "http://www.w3.org/Graphics/SVG/1.1/DTD/svg11.dtd">
<svg version="1.1" id="Layer_1" xmlns="http://www.w3.org/2000/svg" xmlns:xlink="http://www.w3.org/1999/xlink" x="0px" y="0px"
	 width="66.334px" height="88.5px" viewBox="0 0 66.334 88.5" enable-background="new 0 0 66.334 88.5" xml:space="preserve">
<g>
	<g>
		<path fill="#66ABC6" d="M24.041,12.242c0.565,0.672,1.097,1.009,1.592,1.009c0.459,0,3.202-0.69,8.225-2.07l7.324-2.123
			c0.919-0.248,0.796-0.796-0.372-1.645c-0.53-0.425-1.009-0.893-1.433-1.407c-0.425-0.511-0.954-0.609-1.591-0.292
			c-4.142,2.301-9.5,3.751-16.079,4.353c0.494,0.354,0.936,0.716,1.326,1.087C23.422,11.525,23.757,11.889,24.041,12.242z"/>
		<path fill="#66ABC6" d="M38.156,17.708c-0.282-0.106-1.46,0.221-3.529,0.982c-2.069,0.761-4.299,1.353-6.686,1.778
			c-2.387,0.424-4.043,0.636-4.963,0.636c0.213,0.424,0.558,0.982,1.035,1.67c0.479,0.69,1.124,1.036,1.938,1.036
			c0.53,0,2.927-0.399,7.19-1.195c4.263-0.795,6.784-1.211,7.562-1.245c0.921-0.071,0.894-0.665-0.078-1.779
			C39.651,18.478,38.828,17.85,38.156,17.708z"/>
		<path fill="#66ABC6" d="M15.603,36.971c0.425,0.036,3.186-0.611,8.278-1.937c5.095-1.327,11.092-1.99,17.991-1.99
			c1.873,0,3.837,0.159,5.89,0.476c2.051,0.32,3.668,0.665,4.854,1.036c1.186,0.371,1.99,0.558,2.415,0.558
			c0.956,0,1.435-0.319,1.435-0.957c0-1.062-0.408-1.911-1.222-2.547c-0.813-0.637-1.451-1.308-1.91-2.016
			c-0.46-0.708-0.868-1.22-1.221-1.539c-0.603-0.53-1.258-0.691-1.964-0.479c-2.371,0.637-6.413,1.407-12.126,2.31
			c-5.713,0.902-11.462,1.504-17.246,1.803c-5.783,0.302-9.048,0.452-9.791,0.452C12.543,35.363,14.081,36.971,15.603,36.971z"/>
		<path fill="#E63946" d="M43.543,43.338c-0.938-0.883-1.937-1.636-2.998-2.255c-1.062-0.617-1.982-0.945-2.759-0.981
			c-0.956,0-1.989,0.364-3.104,1.089c-1.116,0.725-2.699,2.219-4.75,4.483c-0.992-2.193-3.184-3.662-6.58-4.403
			c1.167,2.263,1.865,3.758,2.095,4.483c0.23,0.727,0.362,1.406,0.398,2.043c0.07,1.556,1.114,2.335,3.131,2.335
			c0.919,0,2.266-1.291,4.034-3.875c1.909-2.652,3.482-4.155,4.722-4.508c1.309,0.212,1.557,1.149,0.743,2.811
			c-0.459,0.956-1,1.921-1.616,2.892c-0.621,0.974-1.443,1.956-2.47,2.946l-9.975,1.752c-0.956,0.212-1.011,0.566-0.161,1.061
			c1.168,0.708,1.821,1.062,1.963,1.062c0.213,0,1.07-0.117,2.575-0.345c1.504-0.229,3.016-0.487,4.537-0.77
			c4.245-0.744,7.217-1.131,8.916-1.168c1.414,0,2.121-0.317,2.121-0.955c0-0.6-0.303-1.124-0.902-1.565
			c-0.602-0.442-1.291-0.574-2.069-0.399l-5.043,1.008l8.279-4.933C44.844,44.825,44.479,44.224,43.543,43.338z"/>
		<path fill="#E63946" d="M57.526,69.023c-4.032-2.865-6.635-4.299-7.802-4.299c-2.865,0.568-7.518,1.168-13.957,1.805l0.161-2.388
			l1.433-0.212c1.557-0.212,2.635-0.087,3.237,0.371c0.671,0.568,1.839-0.281,3.501-2.547c1.133-1.555,2.211-2.565,3.237-3.023
			c1.097-0.496,1.54-0.866,1.327-1.115c-0.85-0.991-1.743-1.875-2.679-2.654c-0.939-0.776-1.815-1.167-2.629-1.167
			c-0.143,0-1.557,0.221-4.244,0.662c-2.69,0.444-6.633,1.053-11.835,1.831c-0.425,0-1.053-0.122-1.884-0.371
			c-0.83-0.247-1.777-0.371-2.839-0.371c-1.166,0-1.857,0.246-2.069,0.742c-0.214,0.39,0.053,0.815,0.797,1.274
			c0.742,0.461,1.255,0.974,1.537,1.54c0.425,0.885,0.938,1.998,1.54,3.342c0.6,1.345,1.397,2.513,2.389,3.504
			c0.352,0.424,0.601,0.636,0.741,0.636c0.248,0,0.814-0.249,1.698-0.744c1.238-0.708,2.443-1.132,3.607-1.273v2.388
			c-5.271,0.92-9.23,1.61-11.886,2.07c-0.46-1.274-0.937-2.141-1.431-2.602c-0.709-0.67-2.001-0.937-3.876-0.795
			c-0.813,0.071-0.937,0.636-0.371,1.698l1.168,2.494c-2.583,0.355-4.68,0.407-6.288,0.161c-1.611-0.249-2.274-0.088-1.99,0.476
			c1.061,2.301,2.299,3.416,3.715,3.345c1.167-0.037,2.901-0.62,5.2-1.752l2.76,7.854c0.46,1.239,1.247,2.06,2.361,2.468
			c1.116,0.408,1.848,0.609,2.202,0.609c0.565,0,0.91-0.229,1.034-0.688c0.124-0.461,0.186-0.92,0.186-1.381
			c0-0.671-0.238-1.662-0.716-2.971c-0.479-1.309-1.008-2.627-1.59-3.954c-0.587-1.328-1.056-2.361-1.408-3.105
			c3.75-1.061,7.394-1.785,10.93-2.174v3.023l-6.896,0.848c-0.85,0.108-0.143,1.115,2.122,3.026c0.6,0.461,1.132,0.691,1.591,0.691
			c0.707-0.213,4.528-1.84,11.462-4.883c0.813,1.911,1.504,2.865,2.07,2.865c0.955,0,1.592-0.425,1.91-1.274
			c0.425-1.095,0.16-1.961-0.796-2.598l-3.927-2.654l5.521-0.637c3.183-0.283,4.331,0.496,3.448,2.334
			c-2.795,5.944-4.635,8.916-5.52,8.916c-0.602,0-2.034-0.406-4.298-1.221c-1.522-0.566-2.459-0.848-2.812-0.848
			c-0.565,0-0.442,0.317,0.37,0.954c2.336,1.842,3.592,3.283,3.769,4.325c0.178,1.044,0.495,1.567,0.956,1.567
			c2.052-0.037,3.943-0.69,5.677-1.964c1.733-1.273,3.538-3.237,5.414-5.889c2.015-2.867,3.466-4.407,4.35-4.619
			C58.517,70.316,58.622,69.767,57.526,69.023z M36.141,60.427c2.37-0.319,3.555-0.761,3.555-1.327c0-0.883-1.114-0.991-3.345-0.319
			c0.071-0.318,0.283-0.645,0.639-0.983c0.352-0.334,0.088-0.785-0.797-1.353c1.84-0.425,3.008-0.637,3.503-0.637
			c1.379,0,2.07,0.585,2.07,1.752c0,0.673-0.691,2.142-2.07,4.404l-3.767,0.585L36.141,60.427z M28.711,64.299
			c-1.38-2.972-2.07-5.021-2.07-6.156l6.154-1.167v2.282c-1.307,0.39-2.9,0.583-4.773,0.583c0.954,1.169,1.662,1.752,2.123,1.752
			l2.65-0.637l0.056,2.017C31.258,63.328,29.878,63.77,28.711,64.299z M40.703,70.721l-5.093,0.69v-2.972l3.342-0.478L40.703,70.721
			z"/>
	</g>
</g>
</svg>
