<?xml version="1.0" encoding="utf-8"?>
<!-- Generator: Adobe Illustrator 16.0.0, SVG Export Plug-In . SVG Version: 6.00 Build 0)  -->
<!DOCTYPE svg PUBLIC "-//W3C//DTD SVG 1.1//EN" "http://www.w3.org/Graphics/SVG/1.1/DTD/svg11.dtd">
<svg version="1.1" id="Layer_1" xmlns="http://www.w3.org/2000/svg" xmlns:xlink="http://www.w3.org/1999/xlink" x="0px" y="0px"
	 width="66.334px" height="88.5px" viewBox="0 0 66.334 88.5" enable-background="new 0 0 66.334 88.5" xml:space="preserve">
<g>
	<g>
		<path fill="#66ABC6" d="M16.531,24.782c0.709,1.873,1.062,3.379,1.062,4.509c0,1.593-0.268,2.991-0.797,4.193
			c-0.744,1.592-0.99,3.043-0.744,4.352c0.176,1.132,0.691,1.98,1.541,2.546c0.85,0.566,1.557,0.85,2.123,0.85
			c0.67,0,1.094-0.371,1.273-1.115c0.316-1.236,0.477-4.313,0.477-9.232c0-1.98-0.09-3.812-0.266-5.493
			c-0.178-1.679-0.318-3.155-0.426-4.43c2.23-2.617,3.988-4.687,5.283-6.208c1.289-1.521,2.059-2.495,2.307-2.92
			c0.32-0.601,0.035-1.025-0.85-1.273c-0.953-0.282-3.201-1.697-6.74-4.245c-0.918,0-1.855,0.584-2.811,1.751
			c1.875,0.496,2.74,1.38,2.6,2.654c-0.461,4.104-3.857,9.551-10.188,16.344c-1.381,1.591-3.203,3.449-5.467,5.572
			c2.336-0.425,4.537-1.451,6.607-3.079C13.586,27.929,15.258,26.338,16.531,24.782z"/>
		<path fill="#66ABC6" d="M58.295,31.123c-2.088-1.221-3.625-1.778-4.617-1.671c-1.273,0.104-4.422,0.583-9.445,1.432
			c0.637-0.99,1.6-2.317,2.891-3.979c1.293-1.664,2.84-3.22,4.646-4.669c-1.416-2.514-3.062-4.141-4.938-4.883
			c-0.672,0.283-1.309,0.477-1.912,0.583l-4.561,0.955l5.783-8.968l4.246-1.221c2.264-0.601,2.307-1.458,0.131-2.573
			c-2.174-1.115-3.9-1.672-5.174-1.672c-0.6,0-1.186,0.248-1.75,0.743c-3.715,2.512-7.023,3.768-9.924,3.768l-2.705-0.266
			c-0.355,0-0.531,0.212-0.531,0.637c0.955,1.664,2.316,2.494,4.086,2.494c0.707,0,1.492-0.052,2.361-0.159
			c0.867-0.105,1.883-0.265,3.051-0.478l-4.564,8.542l-8.701,1.859c0.354,1.662,1.379,2.494,3.076,2.494
			c0.744,0,2.229-0.407,4.459-1.22l-5.148,10.664c-1.061,0.249-2.176,0.47-3.342,0.665c-1.17,0.195-2.479,0.396-3.928,0.608
			c1.555,2.514,3.096,3.77,4.617,3.77c0.6,0,1.309-0.248,2.121-0.743c0.354-0.247,1.027-0.611,2.018-1.088
			c0.992-0.478,2.723-1.053,5.201-1.726c3.432-0.988,7.605-1.538,12.523-1.645c1.875,0,4.033,0.531,6.473,1.593
			c2.123,0.92,3.664,1.379,4.617,1.379c1.381,0,2.068-0.513,2.068-1.54C61.424,33.572,60.381,32.341,58.295,31.123z M39.934,31.52
			c-2.123,0.462-4.404,0.886-6.844,1.274l5.889-11.092c1.594-0.566,3.75-1.025,6.475-1.379c-0.496,1.486-1.178,3.139-2.043,4.962
			C42.541,27.108,41.385,29.186,39.934,31.52z"/>
		<path fill="#E63946" d="M43.781,44.415c-0.938-0.883-1.936-1.636-2.998-2.255c-1.061-0.617-1.982-0.945-2.76-0.981
			c-0.955,0-1.988,0.364-3.104,1.089s-2.699,2.219-4.75,4.482c-0.992-2.192-3.184-3.661-6.58-4.403
			c1.166,2.264,1.865,3.758,2.096,4.483c0.23,0.727,0.361,1.406,0.398,2.043c0.07,1.557,1.113,2.335,3.131,2.335
			c0.918,0,2.264-1.291,4.033-3.875c1.91-2.652,3.482-4.154,4.723-4.508c1.309,0.212,1.557,1.148,0.742,2.811
			c-0.459,0.956-1,1.921-1.617,2.892c-0.619,0.974-1.441,1.956-2.469,2.946l-9.975,1.752c-0.957,0.213-1.01,0.566-0.16,1.062
			c1.168,0.707,1.82,1.062,1.963,1.062c0.213,0,1.068-0.117,2.574-0.346c1.504-0.229,3.016-0.486,4.537-0.77
			c4.244-0.744,7.217-1.132,8.916-1.168c1.414,0,2.121-0.317,2.121-0.955c0-0.6-0.301-1.123-0.902-1.564
			c-0.602-0.442-1.291-0.574-2.068-0.399l-5.041,1.008l8.277-4.934C45.082,45.901,44.719,45.3,43.781,44.415z"/>
		<path fill="#E63946" d="M57.764,70.1c-4.031-2.865-6.633-4.3-7.801-4.3c-2.865,0.568-7.518,1.169-13.957,1.805l0.16-2.388
			l1.434-0.213c1.555-0.212,2.635-0.087,3.236,0.371c0.672,0.568,1.84-0.28,3.502-2.547c1.133-1.555,2.211-2.564,3.238-3.023
			c1.096-0.495,1.539-0.865,1.326-1.114c-0.85-0.991-1.744-1.875-2.68-2.654c-0.939-0.776-1.814-1.167-2.627-1.167
			c-0.143,0-1.559,0.222-4.246,0.662c-2.689,0.444-6.633,1.053-11.834,1.831c-0.424,0-1.053-0.121-1.883-0.37
			c-0.832-0.247-1.777-0.371-2.84-0.371c-1.166,0-1.857,0.246-2.068,0.741c-0.215,0.391,0.051,0.815,0.795,1.274
			c0.742,0.461,1.256,0.974,1.537,1.539c0.426,0.886,0.939,1.998,1.541,3.343c0.6,1.345,1.396,2.513,2.389,3.504
			c0.352,0.424,0.602,0.636,0.742,0.636c0.248,0,0.814-0.249,1.697-0.743c1.238-0.708,2.443-1.133,3.607-1.273v2.388
			c-5.27,0.92-9.232,1.61-11.885,2.07c-0.461-1.274-0.939-2.141-1.432-2.602c-0.709-0.671-2.002-0.937-3.877-0.796
			c-0.811,0.071-0.936,0.637-0.369,1.698l1.168,2.494c-2.584,0.355-4.682,0.407-6.289,0.16c-1.611-0.249-2.273-0.088-1.99,0.477
			c1.062,2.301,2.299,3.415,3.715,3.345c1.166-0.037,2.9-0.62,5.201-1.752l2.758,7.854c0.461,1.239,1.246,2.061,2.363,2.468
			c1.115,0.408,1.848,0.609,2.201,0.609c0.566,0,0.91-0.229,1.035-0.688c0.123-0.461,0.184-0.92,0.184-1.381
			c0-0.671-0.238-1.661-0.715-2.971c-0.479-1.31-1.008-2.627-1.59-3.954c-0.586-1.327-1.055-2.361-1.408-3.105
			c3.75-1.061,7.395-1.785,10.93-2.174v3.023l-6.896,0.849c-0.85,0.107-0.143,1.115,2.123,3.025c0.602,0.462,1.133,0.691,1.59,0.691
			c0.707-0.213,4.529-1.841,11.463-4.883c0.814,1.91,1.504,2.864,2.07,2.864c0.955,0,1.592-0.425,1.91-1.274
			c0.426-1.095,0.16-1.961-0.797-2.598l-3.924-2.654l5.518-0.637c3.184-0.283,4.332,0.495,3.449,2.334
			c-2.795,5.944-4.635,8.916-5.52,8.916c-0.6,0-2.033-0.405-4.297-1.221c-1.523-0.565-2.459-0.848-2.812-0.848
			c-0.566,0-0.443,0.316,0.369,0.953c2.334,1.842,3.592,3.283,3.768,4.325c0.178,1.044,0.496,1.567,0.957,1.567
			c2.053-0.037,3.943-0.69,5.678-1.965c1.732-1.273,3.537-3.236,5.414-5.889c2.014-2.867,3.465-4.407,4.348-4.619
			C58.754,71.392,58.859,70.843,57.764,70.1z M36.379,61.503c2.371-0.319,3.555-0.761,3.555-1.327c0-0.883-1.113-0.99-3.342-0.318
			c0.068-0.318,0.281-0.645,0.637-0.983c0.352-0.334,0.086-0.784-0.799-1.353c1.84-0.425,3.01-0.637,3.504-0.637
			c1.379,0,2.07,0.585,2.07,1.752c0,0.673-0.691,2.142-2.07,4.403l-3.768,0.586L36.379,61.503z M28.949,65.375
			c-1.381-2.972-2.07-5.021-2.07-6.155l6.154-1.167v2.282c-1.307,0.39-2.9,0.582-4.773,0.582c0.955,1.169,1.662,1.753,2.123,1.753
			l2.65-0.638l0.057,2.018C31.496,64.404,30.117,64.846,28.949,65.375z M40.941,71.797l-5.094,0.69v-2.972l3.342-0.479
			L40.941,71.797z"/>
	</g>
</g>
</svg>
