<?xml version="1.0" encoding="utf-8"?>
<!-- Generator: Adobe Illustrator 16.0.0, SVG Export Plug-In . SVG Version: 6.00 Build 0)  -->
<!DOCTYPE svg PUBLIC "-//W3C//DTD SVG 1.1//EN" "http://www.w3.org/Graphics/SVG/1.1/DTD/svg11.dtd">
<svg version="1.1" id="Layer_1" xmlns="http://www.w3.org/2000/svg" xmlns:xlink="http://www.w3.org/1999/xlink" x="0px" y="0px"
	 width="66.334px" height="88.5px" viewBox="0 0 66.334 88.5" enable-background="new 0 0 66.334 88.5" xml:space="preserve">
<g>
	<g>
		<path fill="#E63946" d="M43.544,43.329c-0.938-0.884-1.937-1.637-2.998-2.257c-1.062-0.617-1.982-0.945-2.76-0.98
			c-0.955,0-1.99,0.363-3.104,1.088c-1.115,0.725-2.699,2.22-4.75,4.484c-0.991-2.194-3.184-3.662-6.581-4.404
			c1.168,2.264,1.866,3.759,2.096,4.483c0.23,0.725,0.362,1.406,0.399,2.042c0.07,1.558,1.114,2.336,3.13,2.336
			c0.919,0,2.264-1.29,4.033-3.875c1.91-2.651,3.483-4.155,4.724-4.511c1.309,0.213,1.556,1.151,0.743,2.813
			c-0.461,0.956-1,1.919-1.618,2.893c-0.62,0.973-1.443,1.956-2.468,2.946l-9.978,1.749c-0.956,0.213-1.008,0.568-0.158,1.061
			c1.167,0.71,1.819,1.062,1.962,1.062c0.213,0,1.07-0.113,2.575-0.343c1.503-0.231,3.014-0.486,4.536-0.77
			c4.245-0.745,7.218-1.133,8.916-1.169c1.415,0,2.122-0.316,2.122-0.954c0-0.603-0.302-1.122-0.902-1.565
			c-0.603-0.442-1.291-0.574-2.069-0.397l-5.042,1.007l8.279-4.936C44.844,44.814,44.481,44.215,43.544,43.329z"/>
		<path fill="#66ABC6" d="M10.457,28.948c0.813,1.98,2.688,2.971,5.625,2.971c0.742,0,4.333-1.821,10.772-5.467
			c0,4.069,0.77,6.786,2.309,8.147c1.54,1.362,4.713,2.042,9.525,2.042c4.173,0,7.163-0.247,8.968-0.743
			c2.122-0.67,3.184-1.609,3.184-2.812c0-1.38-0.689-2.565-2.069-3.555c-1.452-1.062-2.459-2.281-3.025-3.662l-0.529-1.221
			c-0.179,1.84-0.345,3.3-0.505,4.378c-0.159,1.079-0.664,1.883-1.512,2.415c-1.239,0.814-4.157,1.186-8.757,1.115
			c-2.866-0.108-4.104-2.089-3.714-5.944l0.212-1.594c11.392-5.766,18.29-9.057,20.696-9.868c1.097-0.319,1.646-0.849,1.646-1.594
			c0-0.529-0.302-0.902-0.903-1.115c-3.362-1.485-5.572-1.591-6.634-0.317c-0.955,1.451-2.864,2.938-5.731,4.459
			c-2.864,1.521-5.835,2.954-8.915,4.299l1.594-8.122c0.211-0.918,0.954-2.015,2.228-3.29c-4.529-0.988-6.97-2.299-7.321-3.926
			c-0.392,0.213-0.729,0.462-1.01,0.742c-0.285,0.285-0.655,0.762-1.113,1.436c-0.356,0.528-1.062,1.043-2.124,1.536
			c2.335,0,3.503,0.798,3.503,2.389v11.196C19.495,26.101,14.029,28.134,10.457,28.948z"/>
		<path fill="#E63946" d="M57.528,69.013c-4.034-2.867-6.635-4.299-7.802-4.299c-2.865,0.565-7.518,1.169-13.957,1.806l0.158-2.389
			l1.434-0.212c1.557-0.213,2.637-0.09,3.237,0.369c0.672,0.566,1.838-0.282,3.503-2.546c1.131-1.557,2.21-2.563,3.237-3.025
			c1.096-0.492,1.537-0.866,1.326-1.113c-0.85-0.991-1.744-1.876-2.68-2.653c-0.938-0.778-1.813-1.168-2.627-1.168
			c-0.143,0-1.559,0.222-4.245,0.664c-2.69,0.443-6.634,1.052-11.835,1.831c-0.424,0-1.053-0.126-1.882-0.371
			c-0.831-0.249-1.778-0.374-2.841-0.374c-1.167,0-1.857,0.25-2.069,0.745c-0.212,0.39,0.054,0.814,0.796,1.273
			c0.742,0.461,1.256,0.972,1.539,1.538c0.424,0.884,0.938,1.999,1.539,3.344c0.601,1.344,1.396,2.514,2.389,3.502
			c0.353,0.424,0.601,0.636,0.741,0.636c0.248,0,0.814-0.245,1.699-0.741c1.236-0.707,2.441-1.132,3.607-1.273v2.388
			c-5.271,0.92-9.232,1.61-11.887,2.069c-0.46-1.273-0.937-2.141-1.432-2.601c-0.708-0.672-2.001-0.938-3.874-0.796
			c-0.814,0.071-0.938,0.638-0.371,1.698l1.166,2.493c-2.581,0.354-4.679,0.408-6.286,0.159c-1.612-0.246-2.275-0.087-1.992,0.479
			c1.062,2.3,2.301,3.415,3.716,3.342c1.168-0.034,2.9-0.617,5.2-1.75l2.759,7.854c0.46,1.237,1.248,2.061,2.362,2.467
			c1.114,0.407,1.849,0.61,2.202,0.61c0.565,0,0.909-0.23,1.036-0.691c0.122-0.458,0.184-0.918,0.184-1.379
			c0-0.669-0.238-1.66-0.716-2.971c-0.478-1.308-1.008-2.626-1.592-3.953c-0.584-1.328-1.054-2.362-1.405-3.104
			c3.748-1.062,7.394-1.787,10.93-2.177v3.025L25.9,72.567c-0.85,0.107-0.144,1.114,2.121,3.024
			c0.602,0.462,1.132,0.691,1.592,0.691c0.708-0.212,4.529-1.84,11.463-4.882c0.813,1.91,1.501,2.864,2.068,2.864
			c0.957,0,1.594-0.424,1.912-1.273c0.424-1.096,0.159-1.964-0.798-2.601l-3.925-2.652l5.518-0.638
			c3.187-0.282,4.335,0.496,3.449,2.336c-2.794,5.943-4.634,8.916-5.518,8.916c-0.603,0-2.035-0.409-4.299-1.221
			c-1.522-0.565-2.459-0.85-2.812-0.85c-0.566,0-0.442,0.317,0.371,0.953c2.335,1.841,3.591,3.283,3.768,4.326
			s0.494,1.564,0.955,1.564c2.053-0.033,3.943-0.687,5.678-1.962c1.734-1.273,3.537-3.237,5.414-5.892
			c2.016-2.864,3.466-4.403,4.351-4.617C58.518,70.304,58.622,69.755,57.528,69.013z M36.142,60.414
			c2.37-0.316,3.556-0.759,3.556-1.325c0-0.885-1.115-0.99-3.345-0.318c0.07-0.317,0.282-0.646,0.638-0.982
			c0.353-0.335,0.086-0.787-0.797-1.354c1.84-0.423,3.007-0.636,3.504-0.636c1.379,0,2.068,0.582,2.068,1.752
			c0,0.674-0.689,2.14-2.068,4.404l-3.77,0.583L36.142,60.414z M28.711,64.288c-1.38-2.971-2.07-5.022-2.07-6.155l6.156-1.165v2.281
			c-1.309,0.391-2.901,0.583-4.775,0.583c0.955,1.168,1.661,1.752,2.124,1.752l2.651-0.637l0.055,2.015
			C31.259,63.318,29.88,63.76,28.711,64.288z M40.704,70.711l-5.095,0.69V68.43l3.344-0.479L40.704,70.711z"/>
	</g>
</g>
</svg>
