<?xml version="1.0" encoding="utf-8"?>
<!-- Generator: Adobe Illustrator 16.0.0, SVG Export Plug-In . SVG Version: 6.00 Build 0)  -->
<!DOCTYPE svg PUBLIC "-//W3C//DTD SVG 1.1//EN" "http://www.w3.org/Graphics/SVG/1.1/DTD/svg11.dtd">
<svg version="1.1" id="Layer_1" xmlns="http://www.w3.org/2000/svg" xmlns:xlink="http://www.w3.org/1999/xlink" x="0px" y="0px"
	 width="66.334px" height="88.5px" viewBox="0 0 66.334 88.5" enable-background="new 0 0 66.334 88.5" xml:space="preserve">
<g>
	<path fill="#E63946" d="M42.176,44.156c-0.854-0.805-1.764-1.49-2.73-2.055c-0.967-0.562-1.806-0.861-2.514-0.895
		c-0.871,0-1.812,0.332-2.828,0.992s-2.458,2.021-4.326,4.084c-0.903-1.998-2.9-3.336-5.994-4.012
		c1.062,2.062,1.699,3.424,1.908,4.084c0.21,0.66,0.33,1.281,0.363,1.861c0.064,1.418,1.016,2.127,2.852,2.127
		c0.838,0,2.062-1.176,3.674-3.529c1.74-2.416,3.174-3.785,4.303-4.109c1.191,0.193,1.418,1.049,0.677,2.562
		c-0.419,0.871-0.911,1.748-1.474,2.635c-0.564,0.887-1.314,1.781-2.248,2.684L24.75,52.18c-0.871,0.193-0.919,0.518-0.146,0.967
		c1.063,0.646,1.659,0.967,1.788,0.967c0.193,0,0.975-0.104,2.346-0.312c1.369-0.211,2.746-0.443,4.133-0.701
		c3.867-0.678,6.574-1.031,8.121-1.064c1.288,0,1.934-0.289,1.934-0.869c0-0.549-0.275-1.023-0.822-1.426
		c-0.549-0.404-1.177-0.523-1.885-0.363l-4.593,0.918l7.541-4.496C43.36,45.51,43.029,44.963,42.176,44.156z"/>
	<path fill="#66ABC6" d="M12.036,31.057c0.741,1.805,2.448,2.707,5.124,2.707c0.677,0,3.947-1.66,9.812-4.98
		c0,3.707,0.701,6.182,2.104,7.422s4.293,1.859,8.677,1.859c3.802,0,6.526-0.225,8.169-0.676c1.934-0.611,2.9-1.467,2.9-2.562
		c0-1.256-0.628-2.336-1.885-3.238c-1.322-0.967-2.24-2.078-2.756-3.336l-0.482-1.111c-0.162,1.676-0.314,3.006-0.459,3.988
		c-0.146,0.982-0.605,1.715-1.379,2.199c-1.128,0.742-3.787,1.08-7.976,1.016c-2.61-0.098-3.739-1.902-3.384-5.414l0.193-1.451
		c10.377-5.252,16.66-8.25,18.853-8.99c0.999-0.291,1.499-0.773,1.499-1.451c0-0.482-0.275-0.822-0.822-1.016
		c-3.062-1.354-5.076-1.449-6.043-0.289c-0.869,1.322-2.609,2.676-5.221,4.061c-2.609,1.387-5.316,2.691-8.121,3.916l1.451-7.396
		c0.193-0.838,0.869-1.838,2.029-2.998c-4.125-0.9-6.349-2.094-6.67-3.576c-0.355,0.193-0.662,0.42-0.919,0.676
		c-0.259,0.26-0.597,0.693-1.015,1.307c-0.323,0.482-0.967,0.951-1.934,1.4c2.127,0,3.189,0.727,3.189,2.176v10.199
		C20.27,28.463,15.291,30.314,12.036,31.057z"/>
	<path fill="#E63946" d="M54.914,67.553c-3.674-2.611-6.043-3.916-7.106-3.916c-2.61,0.516-6.849,1.064-12.714,1.645l0.146-2.176
		l1.306-0.193c1.417-0.193,2.4-0.08,2.948,0.338c0.612,0.516,1.675-0.258,3.19-2.32c1.031-1.418,2.014-2.336,2.949-2.756
		c0.998-0.449,1.401-0.789,1.208-1.014c-0.773-0.902-1.588-1.709-2.44-2.418c-0.855-0.709-1.652-1.062-2.394-1.062
		c-0.13,0-1.419,0.201-3.867,0.604c-2.45,0.404-6.042,0.959-10.78,1.668c-0.387,0-0.959-0.113-1.715-0.338
		c-0.758-0.227-1.62-0.34-2.587-0.34c-1.063,0-1.692,0.227-1.886,0.678c-0.193,0.355,0.049,0.742,0.726,1.16
		c0.677,0.42,1.144,0.887,1.401,1.402c0.387,0.805,0.854,1.82,1.402,3.045c0.547,1.225,1.272,2.289,2.176,3.189
		c0.321,0.387,0.547,0.58,0.676,0.58c0.226,0,0.741-0.225,1.547-0.676c1.128-0.645,2.225-1.031,3.287-1.16v2.176
		c-4.802,0.838-8.41,1.467-10.828,1.885c-0.419-1.16-0.854-1.949-1.305-2.369c-0.645-0.611-1.821-0.854-3.529-0.725
		c-0.741,0.064-0.854,0.58-0.338,1.547l1.063,2.271c-2.353,0.322-4.263,0.371-5.728,0.145c-1.468-0.225-2.072-0.08-1.813,0.436
		c0.967,2.096,2.095,3.111,3.384,3.045c1.063-0.031,2.643-0.562,4.737-1.594l2.514,7.154c0.419,1.127,1.136,1.877,2.151,2.248
		c1.016,0.369,1.684,0.555,2.006,0.555c0.516,0,0.829-0.209,0.943-0.629c0.111-0.418,0.168-0.836,0.168-1.256
		c0-0.611-0.217-1.514-0.652-2.707c-0.436-1.191-0.918-2.393-1.449-3.602c-0.533-1.209-0.96-2.15-1.281-2.828
		c3.415-0.967,6.734-1.627,9.957-1.982v2.756l-6.283,0.773c-0.773,0.098-0.13,1.016,1.934,2.756c0.547,0.42,1.03,0.629,1.449,0.629
		c0.645-0.193,4.125-1.676,10.441-4.447c0.741,1.74,1.369,2.609,1.886,2.609c0.87,0,1.45-0.387,1.74-1.16
		c0.387-0.998,0.146-1.789-0.726-2.369l-3.576-2.416l5.027-0.58c2.9-0.258,3.947,0.451,3.142,2.127
		c-2.546,5.414-4.222,8.121-5.027,8.121c-0.548,0-1.854-0.371-3.915-1.111c-1.387-0.516-2.24-0.773-2.562-0.773
		c-0.516,0-0.403,0.289,0.338,0.869c2.127,1.676,3.271,2.99,3.433,3.939c0.161,0.951,0.45,1.426,0.87,1.426
		c1.869-0.031,3.593-0.627,5.172-1.787s3.223-2.949,4.932-5.367c1.836-2.609,3.157-4.012,3.963-4.205
		C55.815,68.729,55.912,68.229,54.914,67.553z M35.433,59.721c2.159-0.289,3.239-0.691,3.239-1.207c0-0.807-1.016-0.902-3.046-0.291
		c0.063-0.289,0.257-0.588,0.58-0.895c0.321-0.305,0.08-0.717-0.726-1.232c1.676-0.387,2.739-0.58,3.191-0.58
		c1.256,0,1.885,0.531,1.885,1.596c0,0.613-0.629,1.949-1.885,4.012l-3.433,0.531L35.433,59.721z M28.665,63.25
		c-1.257-2.707-1.886-4.576-1.886-5.607l5.607-1.062v2.078c-1.192,0.355-2.643,0.531-4.35,0.531
		c0.869,1.064,1.514,1.596,1.934,1.596l2.416-0.58l0.049,1.836C30.985,62.365,29.729,62.768,28.665,63.25z M39.59,69.1l-4.641,0.629
		v-2.707l3.045-0.436L39.59,69.1z"/>
</g>
</svg>
