<?xml version="1.0" encoding="utf-8"?>
<!-- Generator: Adobe Illustrator 16.0.0, SVG Export Plug-In . SVG Version: 6.00 Build 0)  -->
<!DOCTYPE svg PUBLIC "-//W3C//DTD SVG 1.1//EN" "http://www.w3.org/Graphics/SVG/1.1/DTD/svg11.dtd">
<svg version="1.1" id="Layer_1" xmlns="http://www.w3.org/2000/svg" xmlns:xlink="http://www.w3.org/1999/xlink" x="0px" y="0px"
	 width="66.334px" height="88.5px" viewBox="0 0 66.334 88.5" enable-background="new 0 0 66.334 88.5" xml:space="preserve">
<g>
	<g>
		<path fill="#66ABC6" d="M24.043,24.516c1.183-2.05,2.234-3.609,3.154-4.672c0-1.235-0.954-2.085-2.864-2.545
			c-1.204-0.459-2.034-1.062-2.494-1.803c-0.459-0.745-1.345-0.709-2.654,0.104c1.31,0.568,1.965,1.63,1.965,3.186
			c-0.037,1.557-1.565,4.202-4.591,7.934c-3.025,3.733-6.06,6.802-9.102,9.207c3.042,0,6.634-1.682,10.772-5.043
			C20.918,28.691,22.855,26.568,24.043,24.516z"/>
		<path fill="#E63946" d="M23.88,46.565c0.23,0.725,0.363,1.406,0.399,2.042c0.071,1.558,1.115,2.336,3.131,2.336
			c0.92,0,2.265-1.29,4.033-3.875c1.909-2.651,3.484-4.155,4.723-4.511c1.308,0.213,1.557,1.151,0.743,2.813
			c-0.461,0.956-1.001,1.919-1.617,2.893c-0.62,0.973-1.444,1.956-2.468,2.946l-9.978,1.749c-0.956,0.213-1.008,0.568-0.16,1.061
			c1.169,0.71,1.823,1.062,1.965,1.062c0.212,0,1.069-0.113,2.574-0.343c1.502-0.231,3.015-0.486,4.537-0.77
			c4.245-0.745,7.218-1.133,8.915-1.169c1.413,0,2.122-0.316,2.122-0.954c0-0.603-0.302-1.122-0.902-1.565
			c-0.602-0.442-1.292-0.574-2.069-0.397l-5.041,1.007l8.279-4.936c0.21-0.317-0.152-0.917-1.09-1.803
			c-0.936-0.884-1.937-1.637-2.996-2.257c-1.062-0.617-1.982-0.945-2.762-0.98c-0.956,0-1.988,0.363-3.104,1.088
			c-1.114,0.725-2.697,2.22-4.749,4.484c-0.992-2.194-3.183-3.662-6.58-4.404C22.952,44.346,23.651,45.841,23.88,46.565z"/>
		<path fill="#E63946" d="M55.961,69.835c-4.032-2.867-6.633-4.299-7.802-4.299c-2.865,0.565-7.519,1.169-13.957,1.806l0.16-2.389
			l1.434-0.212c1.555-0.213,2.634-0.09,3.236,0.369c0.672,0.566,1.839-0.282,3.503-2.546c1.131-1.557,2.21-2.563,3.237-3.025
			c1.095-0.492,1.538-0.866,1.325-1.113c-0.849-0.991-1.742-1.876-2.68-2.653c-0.938-0.778-1.812-1.168-2.627-1.168
			c-0.142,0-1.557,0.222-4.246,0.664c-2.688,0.443-6.631,1.052-11.834,1.831c-0.424,0-1.052-0.126-1.882-0.371
			c-0.832-0.249-1.777-0.374-2.84-0.374c-1.167,0-1.858,0.25-2.069,0.745c-0.213,0.39,0.054,0.814,0.795,1.273
			c0.744,0.461,1.256,0.972,1.54,1.538c0.424,0.884,0.937,1.999,1.538,3.344c0.601,1.344,1.398,2.514,2.391,3.502
			c0.352,0.424,0.598,0.636,0.74,0.636c0.247,0,0.813-0.245,1.697-0.741c1.239-0.707,2.443-1.132,3.609-1.273v2.388
			c-5.271,0.92-9.232,1.61-11.887,2.069c-0.459-1.273-0.937-2.141-1.433-2.601c-0.707-0.672-1.999-0.938-3.874-0.796
			c-0.814,0.071-0.937,0.638-0.37,1.698l1.168,2.493c-2.584,0.354-4.681,0.408-6.288,0.159c-1.611-0.246-2.275-0.087-1.991,0.479
			c1.062,2.3,2.298,3.415,3.714,3.342c1.168-0.034,2.901-0.617,5.201-1.75l2.759,7.854c0.461,1.237,1.246,2.061,2.362,2.467
			c1.115,0.407,1.848,0.61,2.201,0.61c0.566,0,0.911-0.23,1.036-0.691c0.122-0.458,0.185-0.918,0.185-1.379
			c0-0.669-0.238-1.66-0.716-2.971c-0.479-1.308-1.008-2.626-1.591-3.953c-0.587-1.328-1.055-2.362-1.406-3.104
			c3.749-1.062,7.392-1.787,10.93-2.177v3.025l-6.897,0.849c-0.849,0.107-0.142,1.114,2.123,3.024c0.6,0.462,1.131,0.691,1.59,0.691
			c0.708-0.212,4.53-1.84,11.464-4.882c0.812,1.91,1.503,2.864,2.07,2.864c0.955,0,1.59-0.424,1.909-1.273
			c0.425-1.096,0.16-1.964-0.796-2.601l-3.926-2.652l5.52-0.638c3.183-0.282,4.332,0.496,3.447,2.336
			c-2.795,5.943-4.633,8.916-5.519,8.916c-0.601,0-2.035-0.409-4.298-1.221c-1.522-0.565-2.458-0.85-2.812-0.85
			c-0.566,0-0.442,0.317,0.371,0.953c2.335,1.841,3.591,3.283,3.768,4.326s0.495,1.564,0.955,1.564
			c2.053-0.033,3.945-0.687,5.678-1.962c1.734-1.273,3.538-3.237,5.414-5.892c2.016-2.864,3.466-4.403,4.35-4.617
			C56.95,71.126,57.057,70.577,55.961,69.835z M34.574,61.236c2.37-0.316,3.557-0.759,3.557-1.325c0-0.885-1.116-0.99-3.344-0.318
			c0.07-0.317,0.281-0.646,0.638-0.982c0.351-0.335,0.087-0.787-0.798-1.354c1.84-0.423,3.007-0.636,3.504-0.636
			c1.379,0,2.068,0.582,2.068,1.752c0,0.674-0.689,2.14-2.068,4.404l-3.769,0.583L34.574,61.236z M27.146,65.11
			c-1.38-2.971-2.07-5.022-2.07-6.155l6.155-1.165v2.281c-1.308,0.391-2.9,0.583-4.774,0.583c0.954,1.168,1.661,1.752,2.121,1.752
			l2.653-0.637l0.053,2.015C29.692,64.141,28.313,64.582,27.146,65.11z M39.139,71.533l-5.094,0.69v-2.972l3.342-0.479
			L39.139,71.533z"/>
		<path fill="#66ABC6" d="M59.516,32.265c-0.496-0.426-1.291-0.867-2.389-1.328l-3.926-1.433c-4.635-1.731-8.219-4.511-10.746-8.332
			c-2.529-3.82-5.9-8.824-10.109-15.017c-0.638-0.956-1.398-1.433-2.281-1.433l-0.691,0.689c-0.601,1.025-0.918,1.963-0.954,2.812
			c-0.036,0.744,0.653,1.839,2.07,3.291c3.395,3.75,6.331,8.383,8.808,13.902c2.901,6.191,5.643,9.286,8.226,9.286l2.071-0.529
			c1.803-0.426,3.454-0.745,4.959-0.958c1.505-0.21,2.866-0.279,4.087-0.21C59.86,33.079,60.152,32.83,59.516,32.265z"/>
	</g>
</g>
</svg>
