<?xml version="1.0" encoding="utf-8"?>
<!-- Generator: Adobe Illustrator 16.0.0, SVG Export Plug-In . SVG Version: 6.00 Build 0)  -->
<!DOCTYPE svg PUBLIC "-//W3C//DTD SVG 1.1//EN" "http://www.w3.org/Graphics/SVG/1.1/DTD/svg11.dtd">
<svg version="1.1" id="Layer_1" xmlns="http://www.w3.org/2000/svg" xmlns:xlink="http://www.w3.org/1999/xlink" x="0px" y="0px"
	 width="66.334px" height="88.5px" viewBox="0 0 66.334 88.5" enable-background="new 0 0 66.334 88.5" xml:space="preserve">
<g>
	<g>
		<path fill="#66ABC6" d="M40.618,72.719l-4.664-4.181c1.144-0.034,2.627,0.268,4.449,0.912l1.984,0.697
			c0.929,0.322,1.902-0.331,2.921-1.955c1.019-1.628,1.786-3.611,2.305-5.95c0.518-2.342,0.894-4.7,1.126-7.076
			c0.231-2.377,0.401-5.315,0.509-8.819c0.035-1.571-0.527-2.652-1.688-3.242c-1.161-0.589-2.386-0.795-3.672-0.617l-2.572,0.268
			l-6.004,5.843c3.431-1.179,5.468-1.267,6.11-0.268c0.93,1.359,0.894,2.144-0.106,2.357c-1.573,0.359-3.807,0.932-6.701,1.716
			v3.323c1.895-0.57,3.288-1.044,4.182-1.419c0.893-0.375,1.732-0.564,2.52-0.564c0.285,0,0.893,0.429,1.822,1.287
			c0.929,0.858,1.394,1.715,1.394,2.573c0,0.358-0.197,0.536-0.59,0.536c-0.394,0-1.572,0.161-3.538,0.483
			c-2.395,0.395-4.323,0.77-5.789,1.125v7.826c0,1.967-0.804,3.628-2.411,4.985c-1.037-0.999-1.573-2.285-1.608-3.859v-8.147
			l-3.859,0.75c-2.073,0.429-3.771-0.463-5.092-2.68l8.951-2.198v-3.27c-1.036,0.251-2.787,0.68-5.253,1.287
			c-1.573-0.249-2.663-0.912-3.27-1.983l5.092-1.876l-3.27-2.626c-1.394,0.572-2.636,1.108-3.726,1.608
			c-1.09,0.501-2.1,1.072-3.028,1.715l3.967,20.797c0.178,0.964-0.161,1.448-1.02,1.448c-1.179,0-2.144-0.785-2.894-2.359
			c-0.751-1.571-1.377-3.126-1.877-4.663c-0.643-2.071-1.296-4.466-1.956-7.183c-0.661-2.714-1.42-4.655-2.278-5.814
			c-0.857-1.162-2.305-2.314-4.342-3.459c0.429-2.071,2.34-2.928,5.735-2.572l3.323,0.482l6.005-1.876
			c-2.788-2.251-3.485-3.465-2.092-3.645c2.859-0.429,4.718-0.249,5.575,0.536l1.179,1.126l2.091-0.644l0.644-6.217
			c-2.217,0.643-4.396,0.964-6.54,0.964c-2.072,0-3.537-0.768-4.396-2.305l1.501-0.268c2.18-0.321,5.557-1.588,10.131-3.806
			c0.465-4.536,0.697-7.807,0.697-9.808c0-2.537-0.456-4.145-1.367-4.825c-0.911-0.677-2.296-1.018-4.153-1.018
			c1.893-1.25,3.269-2.519,4.127-3.806c2.216,2.895,6.379,4.663,12.489,5.307c-3.037,1.788-5.396,6.076-7.076,12.865
			c1.395-0.606,2.77-1.394,4.128-2.359c1.501-1.106,2.466-1.661,2.895-1.661c0.571,0,1.555,0.438,2.947,1.314
			c1.395,0.875,2.092,1.777,2.092,2.706c0,0.18-0.804,0.663-2.412,1.447c-1.608,0.787-3.422,1.591-5.441,2.413
			c-2.019,0.823-3.671,1.466-4.958,1.93l-3.27,6.432l6.753-1.983c0-1.214-0.606-1.965-1.821-2.252
			c0.714-1.535,1.946-2.125,3.698-1.769c3.967,0.788,5.468,1.662,4.502,2.626l-1.018,0.912c6.79,0,12.417,2.34,16.885,7.021
			c-1.573,0.68-2.824,2.217-3.753,4.61c-0.571,1.537-2.18,7.202-4.823,16.992c-1.251,4.539-3.932,7.004-8.041,7.397
			C42.297,74.702,41.51,73.506,40.618,72.719z M31.344,49.294c0.572-0.463,1.313-1.196,2.226-2.198
			c0.91-0.999,1.884-2.269,2.921-3.806L27.7,46.025L31.344,49.294z"/>
	</g>
</g>
</svg>
