<?xml version="1.0" encoding="utf-8"?>
<!-- Generator: Adobe Illustrator 16.0.0, SVG Export Plug-In . SVG Version: 6.00 Build 0)  -->
<!DOCTYPE svg PUBLIC "-//W3C//DTD SVG 1.1//EN" "http://www.w3.org/Graphics/SVG/1.1/DTD/svg11.dtd">
<svg version="1.1" id="Layer_1" xmlns="http://www.w3.org/2000/svg" xmlns:xlink="http://www.w3.org/1999/xlink" x="0px" y="0px"
	 width="66.334px" height="88.5px" viewBox="0 0 66.334 88.5" enable-background="new 0 0 66.334 88.5" xml:space="preserve">
<g>
	<g>
		<path fill="#66ABC6" d="M39.795,70.686l-4.248-3.809c1.042-0.031,2.393,0.244,4.053,0.83l1.807,0.635
			c0.846,0.293,1.733-0.301,2.661-1.781c0.928-1.482,1.627-3.289,2.1-5.42c0.472-2.133,0.813-4.281,1.025-6.445
			c0.211-2.166,0.366-4.842,0.464-8.033c0.032-1.432-0.48-2.416-1.538-2.953c-1.058-0.537-2.173-0.725-3.345-0.562l-2.344,0.244
			l-5.469,5.322c3.125-1.074,4.98-1.154,5.566-0.244c0.846,1.238,0.813,1.953-0.098,2.148c-1.433,0.326-3.467,0.848-6.104,1.562
			v3.027c1.725-0.52,2.995-0.951,3.809-1.293c0.813-0.342,1.579-0.514,2.295-0.514c0.26,0,0.813,0.391,1.66,1.172
			c0.846,0.781,1.27,1.562,1.27,2.344c0,0.326-0.179,0.488-0.537,0.488c-0.358,0-1.433,0.146-3.223,0.439
			c-2.181,0.359-3.939,0.701-5.273,1.025v7.129c0,1.791-0.732,3.305-2.197,4.541c-0.944-0.91-1.433-2.082-1.465-3.516v-7.422
			l-3.516,0.684c-1.888,0.391-3.435-0.422-4.639-2.441l8.154-2.002v-2.979c-0.944,0.229-2.539,0.619-4.785,1.172
			c-1.433-0.227-2.425-0.83-2.979-1.807l4.639-1.709l-2.979-2.393c-1.27,0.521-2.401,1.01-3.394,1.465
			c-0.993,0.457-1.913,0.977-2.759,1.562L22.021,70.1c0.163,0.879-0.146,1.318-0.928,1.318c-1.074,0-1.953-0.715-2.637-2.148
			c-0.684-1.432-1.253-2.848-1.709-4.248c-0.586-1.887-1.18-4.068-1.782-6.543c-0.603-2.473-1.294-4.24-2.075-5.297
			c-0.781-1.059-2.1-2.107-3.955-3.15c0.391-1.887,2.132-2.668,5.225-2.344l3.027,0.439l5.469-1.709
			c-2.539-2.051-3.174-3.156-1.904-3.32c2.604-0.391,4.297-0.227,5.078,0.488l1.074,1.025l1.904-0.586l0.586-5.664
			c-2.019,0.586-4.004,0.879-5.957,0.879c-1.888,0-3.223-0.699-4.004-2.1l1.367-0.244c1.985-0.293,5.062-1.447,9.229-3.467
			c0.423-4.133,0.635-7.111,0.635-8.936c0-2.311-0.415-3.775-1.245-4.395c-0.83-0.617-2.092-0.928-3.784-0.928
			c1.725-1.139,2.979-2.295,3.76-3.467c2.018,2.637,5.811,4.248,11.377,4.834c-2.767,1.629-4.916,5.535-6.445,11.719
			c1.27-0.553,2.522-1.27,3.76-2.148c1.367-1.008,2.246-1.514,2.637-1.514c0.521,0,1.416,0.399,2.686,1.197
			c1.27,0.797,1.904,1.619,1.904,2.465c0,0.164-0.732,0.604-2.197,1.318c-1.465,0.717-3.117,1.449-4.956,2.197
			c-1.839,0.75-3.345,1.336-4.517,1.758l-2.979,5.859l6.152-1.807c0-1.105-0.554-1.789-1.66-2.051
			c0.651-1.398,1.774-1.936,3.369-1.611c3.613,0.717,4.98,1.514,4.102,2.393l-0.928,0.83c6.185,0,11.312,2.133,15.381,6.396
			c-1.433,0.619-2.572,2.02-3.418,4.199c-0.521,1.4-1.986,6.561-4.395,15.479c-1.14,4.135-3.581,6.381-7.324,6.738
			C41.325,72.492,40.608,71.402,39.795,70.686z M31.348,49.348c0.521-0.422,1.196-1.09,2.026-2.002
			c0.83-0.91,1.717-2.066,2.661-3.467l-8.008,2.49L31.348,49.348z"/>
	</g>
</g>
</svg>
