<?xml version="1.0" encoding="utf-8"?>
<!-- Generator: Adobe Illustrator 16.0.0, SVG Export Plug-In . SVG Version: 6.00 Build 0)  -->
<!DOCTYPE svg PUBLIC "-//W3C//DTD SVG 1.1//EN" "http://www.w3.org/Graphics/SVG/1.1/DTD/svg11.dtd">
<svg version="1.1" id="Layer_1" xmlns="http://www.w3.org/2000/svg" xmlns:xlink="http://www.w3.org/1999/xlink" x="0px" y="0px"
	 width="66.333px" height="88.5px" viewBox="0 0 66.333 88.5" enable-background="new 0 0 66.333 88.5" xml:space="preserve">
<g>
	<g>
		<path fill="#66ABC6" d="M16.797,49.25c-1.107,0-2.084-0.887-2.93-2.66c-0.848-1.775-1.904-4.469-3.174-8.082
			c3.873,1.4,6.445,2.605,7.715,3.613c1.27,1.01,1.904,2.02,1.904,3.027c0,1.141-0.351,2.107-1.051,2.906
			C18.562,48.852,17.74,49.25,16.797,49.25z M54.467,62.482c-1.514,0.555-3.084,0.984-4.711,1.295
			c-1.629,0.309-3.012,0.463-4.15,0.463c-3.68,0-6.25-0.732-7.715-2.197s-2.197-4.215-2.197-8.252c0-3.418,0.031-6.795,0.098-10.131
			c0.064-3.338,0.146-6.633,0.244-9.889l-8.691,13.623c0,2.148-0.025,4.184-0.074,6.104c-0.049,1.922-0.121,3.793-0.219,5.615
			c-0.195,3.613-0.717,5.42-1.562,5.42c-0.75,0-1.367-0.715-1.855-2.148c-0.488-1.432-0.701-4.59-0.635-9.473
			c-1.205,3.32-3.24,7.098-6.104,11.328c-0.652,1.01-1.678,1.514-3.076,1.514c-1.66,0-2.49-1.578-2.49-4.736v-9.521l3.125,5.957
			c1.27,0,4.102-2.588,8.496-7.764V34.406c0-1.105-0.781-1.66-2.344-1.66c-0.521,0-1.352,0.164-2.49,0.488
			c1.367-2.018,2.393-3.027,3.076-3.027c0.748,0,1.758,0.424,3.027,1.27c1.27,0.848,2.375,1.668,3.32,2.467
			c0.943,0.797,1.416,1.457,1.416,1.977c0,0.391-0.213,0.928-0.635,1.611c-0.652,1.01-0.977,1.971-0.977,2.881v3.955L36.035,32.6
			c-0.098-3.125-0.195-5.143-0.293-6.055c-0.098-0.91-0.424-1.529-0.977-1.855c-0.555-0.293-1.092-0.439-1.611-0.439h-1.514
			c0.488-0.586,0.977-1.31,1.465-2.172c0.488-0.863,0.83-1.506,1.025-1.93c2.408,2.865,5.664,4.443,9.766,4.736
			c-0.75,2.02-1.465,4.338-2.148,6.959c-0.684,2.619-1.205,5.42-1.562,8.398c-0.359,2.979-0.537,5.363-0.537,7.152l4.297-3.613
			c2.18-1.887,3.271-3.482,3.271-4.785c0-0.846-0.229-1.514-0.684-2.002c-0.424-0.488-0.131-0.586,0.879-0.293
			c4.785,1.303,7.178,3.369,7.178,6.201c0,0.391-0.448,0.619-1.344,0.684c-0.895,0.066-2.238,0.586-4.027,1.562
			c-0.945,0.521-4.135,2.441-9.57,5.762v6.982c0,0.586,0.365,1.059,1.098,1.416c0.732,0.359,1.57,0.537,2.516,0.537
			c2.344,0,4.59-0.455,6.738-1.367c0.781-0.324,1.252-1.203,1.416-2.637c0.162-1.074,0.309-2.57,0.439-4.492
			c0.781,2.312,1.807,3.988,3.076,5.029c1.203,1.01,1.807,2.23,1.807,3.662C56.738,61.115,55.98,61.93,54.467,62.482z"/>
	</g>
</g>
</svg>
