<?xml version="1.0" encoding="utf-8"?>
<!-- Generator: Adobe Illustrator 16.0.0, SVG Export Plug-In . SVG Version: 6.00 Build 0)  -->
<!DOCTYPE svg PUBLIC "-//W3C//DTD SVG 1.1//EN" "http://www.w3.org/Graphics/SVG/1.1/DTD/svg11.dtd">
<svg version="1.1" id="Layer_1" xmlns="http://www.w3.org/2000/svg" xmlns:xlink="http://www.w3.org/1999/xlink" x="0px" y="0px"
	 width="66.333px" height="88.5px" viewBox="0 0 66.333 88.5" enable-background="new 0 0 66.333 88.5" xml:space="preserve">
<g>
	<g>
		<path fill="#66ABC6" d="M14.594,51.251c-1.217,0-2.289-0.974-3.217-2.92c-0.932-1.949-2.092-4.906-3.484-8.872
			c4.252,1.537,7.076,2.86,8.469,3.966c1.395,1.108,2.09,2.217,2.09,3.323c0,1.252-0.385,2.314-1.152,3.19
			C16.531,50.814,15.629,51.251,14.594,51.251z M55.945,65.777c-1.66,0.609-3.385,1.081-5.17,1.422
			c-1.789,0.338-3.307,0.508-4.557,0.508c-4.039,0-6.861-0.804-8.469-2.412c-1.609-1.608-2.414-4.626-2.414-9.059
			c0-3.752,0.035-7.459,0.109-11.122c0.07-3.664,0.16-7.282,0.266-10.856L26.17,49.214c0,2.359-0.027,4.593-0.08,6.701
			c-0.055,2.11-0.135,4.164-0.24,6.164c-0.215,3.967-0.787,5.951-1.715,5.951c-0.824,0-1.502-0.785-2.037-2.359
			c-0.537-1.571-0.77-5.038-0.697-10.398c-1.322,3.645-3.557,7.791-6.699,12.436c-0.717,1.108-1.844,1.662-3.377,1.662
			c-1.824,0-2.734-1.732-2.734-5.199V53.717l3.432,6.54c1.393,0,4.502-2.841,9.326-8.523V34.956c0-1.214-0.859-1.822-2.574-1.822
			c-0.572,0-1.482,0.179-2.734,0.536c1.502-2.214,2.629-3.324,3.379-3.324c0.82,0,1.93,0.466,3.322,1.395
			c1.395,0.93,2.607,1.831,3.646,2.708c1.033,0.875,1.553,1.6,1.553,2.17c0,0.429-0.234,1.019-0.697,1.769
			c-0.715,1.108-1.072,2.163-1.072,3.163v4.342l9.541-12.918c-0.105-3.431-0.213-5.646-0.322-6.647
			c-0.105-0.999-0.463-1.678-1.07-2.036c-0.609-0.322-1.197-0.482-1.768-0.482h-1.662c0.535-0.644,1.072-1.438,1.607-2.385
			c0.537-0.948,0.912-1.653,1.125-2.119c2.645,3.146,6.219,4.878,10.721,5.2c-0.822,2.216-1.607,4.762-2.357,7.639
			c-0.75,2.875-1.322,5.951-1.717,9.22c-0.393,3.27-0.588,5.887-0.588,7.851l4.717-3.966c2.393-2.071,3.59-3.823,3.59-5.253
			c0-0.928-0.248-1.662-0.75-2.198c-0.467-0.536-0.143-0.644,0.967-0.322c5.25,1.43,7.879,3.699,7.879,6.808
			c0,0.429-0.494,0.68-1.477,0.75c-0.98,0.073-2.457,0.644-4.422,1.715c-1.035,0.572-4.537,2.68-10.504,6.325v7.665
			c0,0.643,0.398,1.162,1.203,1.555c0.805,0.394,1.725,0.59,2.764,0.59c2.572,0,5.037-0.5,7.396-1.501
			c0.857-0.356,1.375-1.32,1.553-2.895c0.18-1.179,0.34-2.822,0.482-4.931c0.859,2.538,1.984,4.378,3.379,5.521
			c1.32,1.108,1.984,2.449,1.984,4.021C58.441,64.277,57.607,65.17,55.945,65.777z"/>
	</g>
</g>
</svg>
