<?xml version="1.0" encoding="utf-8"?>
<!-- Generator: Adobe Illustrator 16.0.0, SVG Export Plug-In . SVG Version: 6.00 Build 0)  -->
<!DOCTYPE svg PUBLIC "-//W3C//DTD SVG 1.1//EN" "http://www.w3.org/Graphics/SVG/1.1/DTD/svg11.dtd">
<svg version="1.1" id="Layer_1" xmlns="http://www.w3.org/2000/svg" xmlns:xlink="http://www.w3.org/1999/xlink" x="0px" y="0px"
	 width="66.334px" height="88.5px" viewBox="0 0 66.334 88.5" enable-background="new 0 0 66.334 88.5" xml:space="preserve">
<g>
	<g>
		<path fill="#E63946" d="M48.417,36.204c-0.822-0.714-1.661-1.019-2.519-0.911c-0.394-0.464-0.823-0.946-1.287-1.448
			c-1.751-1.715-3.698-2.947-5.842-3.698c-0.145-0.857-0.697-1.589-1.662-2.197c-1.144-0.678-2.484-1.019-4.021-1.019
			c-1.537,0-2.877,0.341-4.02,1.019c-1.002,0.608-1.556,1.359-1.662,2.251c-2.074,0.751-3.949,1.966-5.629,3.645
			c-0.5,0.502-0.946,0.984-1.339,1.448c-0.895-0.107-1.753,0.197-2.574,0.911c-0.964,0.857-1.697,2.037-2.196,3.538
			c-0.466,1.5-0.556,2.877-0.27,4.127c0.25,1.145,0.805,1.913,1.662,2.305c0.143,3.038,1.036,5.755,2.682,8.147
			c-0.395,0.787-0.376,1.681,0.053,2.681c0.499,1.179,1.394,2.251,2.68,3.217c1.287,0.894,2.572,1.393,3.859,1.5
			c1.072,0.106,1.947-0.142,2.626-0.751c1.322,0.322,2.716,0.483,4.182,0.483c1.501,0,2.912-0.179,4.234-0.536
			c0.645,0.643,1.519,0.91,2.627,0.804c1.286-0.107,2.573-0.606,3.859-1.5c1.25-0.966,2.126-2.038,2.627-3.217
			c0.428-1,0.463-1.894,0.106-2.681c1.644-2.393,2.536-5.109,2.681-8.147c0.821-0.392,1.375-1.16,1.661-2.305
			c0.285-1.25,0.196-2.627-0.268-4.127C50.133,38.241,49.383,37.062,48.417,36.204z M42.253,54.482
			c-2.502,2.538-5.521,3.806-9.059,3.806c-3.538,0-6.593-1.286-9.166-3.859c-2.538-2.537-3.806-5.575-3.806-9.112
			c0-3.538,1.268-6.574,3.806-9.112c2.536-2.536,5.575-3.807,9.112-3.807s6.575,1.271,9.112,3.807
			c2.573,2.572,3.859,5.628,3.859,9.165C46.112,48.907,44.826,51.946,42.253,54.482z"/>
		<path fill="#C0DAFF" d="M33.167,41.469c-0.823,0-1.501,0.287-2.037,0.857c-0.536,0.536-0.804,1.207-0.804,2.011
			c0,0.805,0.268,1.492,0.804,2.063c0.571,0.535,1.251,0.804,2.037,0.804c0.785,0,1.465-0.269,2.037-0.804
			c0.536-0.571,0.804-1.259,0.804-2.063c0-0.804-0.268-1.475-0.804-2.011C34.668,41.756,33.988,41.469,33.167,41.469z"/>
		<path fill="#66ABC6" d="M58.736,29.488c-2.664-4.467-6.236-8.029-10.722-10.692s-9.443-3.995-14.874-3.995
			c-5.432,0-10.382,1.332-14.848,3.995c-4.468,2.663-8.032,6.226-10.694,10.692c-2.663,4.469-3.993,9.417-3.993,14.848
			c0,5.434,1.33,10.382,3.993,14.848c2.662,4.469,6.227,8.032,10.694,10.695c4.466,2.663,9.416,3.992,14.848,3.992
			c5.431,0,10.389-1.329,14.874-3.992s8.058-6.227,10.722-10.695c2.66-4.466,3.992-9.414,3.992-14.848
			C62.729,38.905,61.396,33.957,58.736,29.488z M55.385,57.229c-2.322,3.876-5.432,6.967-9.326,9.272
			c-3.896,2.305-8.201,3.456-12.918,3.456c-4.718,0-9.016-1.151-12.892-3.456c-3.878-2.306-6.969-5.396-9.273-9.272
			c-2.305-3.878-3.457-8.177-3.457-12.894s1.152-9.022,3.457-12.918c2.305-3.894,5.396-7.003,9.273-9.327
			c3.876-2.321,8.174-3.484,12.892-3.484c4.717,0,9.022,1.163,12.918,3.484c3.895,2.324,7.004,5.434,9.326,9.327
			c2.323,3.896,3.484,8.201,3.484,12.918S57.708,53.352,55.385,57.229z"/>
		<path fill="#A8DADC" d="M53.214,32.65c-2.091-3.501-4.888-6.297-8.389-8.387c-3.503-2.091-7.397-3.138-11.685-3.138
			c-4.254,0-8.131,1.047-11.633,3.138c-3.502,2.09-6.299,4.886-8.389,8.387c-2.09,3.504-3.135,7.397-3.135,11.686
			c0,4.289,1.045,8.185,3.135,11.686c2.09,3.504,4.887,6.3,8.389,8.39c3.502,2.091,7.379,3.135,11.633,3.135
			c4.287,0,8.182-1.044,11.685-3.135c3.501-2.09,6.298-4.886,8.389-8.39c2.091-3.501,3.136-7.396,3.136-11.686
			C56.35,40.048,55.305,36.154,53.214,32.65z M51.525,47.23c-0.68,0.572-1.215,1.413-1.607,2.52
			c-0.322,1.108-0.375,2.074-0.161,2.895c0.178,0.751,0.518,1.27,1.019,1.555l-0.161,0.268c-1.821,3.038-4.253,5.468-7.29,7.29
			c-1.93,1.146-3.984,1.93-6.164,2.358c-0.072-0.535-0.43-1.018-1.072-1.447c-0.75-0.463-1.715-0.696-2.895-0.696
			c-1.144,0-2.09,0.233-2.842,0.696c-0.678,0.43-1.054,0.912-1.125,1.447c-2.215-0.392-4.287-1.179-6.217-2.358
			c-3.039-1.822-5.469-4.252-7.291-7.29c-0.072-0.107-0.125-0.214-0.16-0.321c0.536-0.249,0.893-0.75,1.072-1.501
			c0.178-0.82,0.088-1.786-0.268-2.895c-0.359-1.106-0.857-1.947-1.502-2.52c-0.607-0.499-1.197-0.696-1.769-0.59
			c-0.071-0.75-0.106-1.518-0.106-2.305c0-3.716,0.91-7.109,2.732-10.185c0.786-1.286,1.68-2.466,2.68-3.537
			c0.394,0.395,0.967,0.556,1.716,0.482c0.858-0.034,1.769-0.393,2.733-1.072c0.93-0.714,1.555-1.464,1.877-2.252
			c0.285-0.713,0.303-1.32,0.053-1.822c2.574-1.214,5.361-1.822,8.363-1.822c3.037,0,5.842,0.608,8.416,1.822
			c-0.252,0.502-0.234,1.109,0.053,1.822c0.322,0.788,0.946,1.538,1.876,2.252c0.964,0.68,1.876,1.038,2.733,1.072
			c0.75,0.073,1.322-0.088,1.716-0.482c1,1.071,1.894,2.251,2.68,3.537c1.823,3.075,2.734,6.469,2.734,10.185
			c0,0.787-0.037,1.555-0.107,2.305C52.668,46.534,52.097,46.731,51.525,47.23z"/>
	</g>
</g>
</svg>
