<?xml version="1.0" encoding="utf-8"?>
<!-- Generator: Adobe Illustrator 16.0.0, SVG Export Plug-In . SVG Version: 6.00 Build 0)  -->
<!DOCTYPE svg PUBLIC "-//W3C//DTD SVG 1.1//EN" "http://www.w3.org/Graphics/SVG/1.1/DTD/svg11.dtd">
<svg version="1.1" id="Layer_1" xmlns="http://www.w3.org/2000/svg" xmlns:xlink="http://www.w3.org/1999/xlink" x="0px" y="0px"
	 width="66.334px" height="88.5px" viewBox="0 0 66.334 88.5" enable-background="new 0 0 66.334 88.5" xml:space="preserve">
<g>
	<g>
		<path fill="#A8DADC" d="M30.594,15.954c0-3.501-1.234-6.486-3.699-8.952c-2.467-2.465-5.432-3.698-8.898-3.698
			S11.564,4.536,9.1,7.001C6.633,9.467,5.4,12.453,5.4,15.954c0,3.467,1.232,6.442,3.699,8.926c2.465,2.482,5.43,3.724,8.896,3.724
			s6.432-1.242,8.898-3.724C29.359,22.396,30.594,19.421,30.594,15.954z M17.996,26.031c-2.785,0-5.164-0.99-7.129-2.974
			c-1.965-1.983-2.947-4.35-2.947-7.103c0-2.788,0.982-5.171,2.947-7.155c1.965-1.983,4.344-2.976,7.129-2.976
			c2.789,0,5.164,0.993,7.131,2.976c1.963,1.984,2.947,4.368,2.947,7.155c0,2.753-0.984,5.12-2.947,7.103
			C23.16,25.041,20.785,26.031,17.996,26.031z"/>
		<path fill="#A8DADC" d="M23.918,10.004c-1.625-1.608-3.6-2.413-5.922-2.413c-2.324,0-4.307,0.804-5.949,2.413
			c-1.645,1.608-2.465,3.591-2.465,5.95c0,2.324,0.82,4.298,2.465,5.924c1.643,1.625,3.625,2.438,5.949,2.438
			c2.322,0,4.297-0.813,5.922-2.438c1.627-1.626,2.441-3.6,2.441-5.924C26.359,13.595,25.545,11.612,23.918,10.004z M22.66,20.646
			c-1.287,1.269-2.84,1.901-4.664,1.901c-1.859,0-3.43-0.633-4.717-1.901c-1.285-1.27-1.928-2.833-1.928-4.692
			c0-1.857,0.643-3.42,1.928-4.689c1.287-1.27,2.857-1.904,4.717-1.904c1.824,0,3.377,0.634,4.664,1.904
			c1.287,1.269,1.93,2.832,1.93,4.689C24.59,17.812,23.947,19.375,22.66,20.646z"/>
		<path fill="#A8DADC" d="M21.561,12.39c-0.982-0.982-2.17-1.476-3.564-1.476c-1.393,0-2.582,0.494-3.566,1.476
			c-0.979,0.982-1.471,2.169-1.471,3.563c0,1.393,0.492,2.583,1.471,3.565c0.984,0.982,2.174,1.473,3.566,1.473
			c1.395,0,2.582-0.491,3.564-1.473s1.475-2.172,1.475-3.565C23.035,14.56,22.543,13.373,21.561,12.39z M20.381,18.34
			c-0.66,0.661-1.455,0.991-2.385,0.991S16.271,19,15.609,18.34c-0.658-0.66-0.99-1.456-0.99-2.386c0-0.965,0.332-1.77,0.99-2.412
			c0.662-0.643,1.457-0.965,2.387-0.965s1.725,0.322,2.385,0.965c0.662,0.643,0.992,1.447,0.992,2.412
			C21.373,16.884,21.043,17.68,20.381,18.34z"/>
		<path fill="#A8DADC" d="M17.996,14.667c-0.857,0.107-1.287,0.537-1.287,1.287c0.072,0.823,0.5,1.233,1.287,1.233
			c0.822-0.071,1.232-0.483,1.232-1.233c0-0.392-0.105-0.706-0.32-0.937C18.693,14.785,18.391,14.667,17.996,14.667z"/>
		<path fill="#E63946" d="M45.764,44.363c0-3.465-1.244-6.441-3.729-8.923c-2.48-2.483-5.457-3.727-8.922-3.727
			c-3.467,0-6.432,1.244-8.898,3.727c-2.465,2.482-3.697,5.458-3.697,8.923c0,3.467,1.232,6.443,3.697,8.925
			c2.467,2.483,5.432,3.725,8.898,3.725c3.465,0,6.441-1.242,8.922-3.725C44.52,50.806,45.764,47.83,45.764,44.363z M33.113,54.494
			c-2.789,0-5.156-0.99-7.105-2.974c-1.945-1.984-2.918-4.37-2.918-7.157s0.973-5.171,2.918-7.155
			c1.949-1.983,4.316-2.976,7.105-2.976c2.787,0,5.172,0.993,7.154,2.976c1.982,1.984,2.977,4.368,2.977,7.155
			s-0.994,5.173-2.977,7.157C38.285,53.503,35.9,54.494,33.113,54.494z"/>
		<path fill="#E63946" d="M39.088,38.387c-1.625-1.625-3.617-2.44-5.975-2.44s-4.342,0.815-5.949,2.44
			c-1.609,1.626-2.414,3.617-2.414,5.976c0,2.359,0.805,4.342,2.414,5.95c1.607,1.608,3.592,2.413,5.949,2.413
			s4.35-0.805,5.975-2.413c1.627-1.608,2.441-3.591,2.441-5.95C41.529,42.004,40.715,40.013,39.088,38.387z M37.83,49.054
			c-1.287,1.27-2.861,1.902-4.717,1.902c-1.859,0-3.422-0.632-4.691-1.902c-1.268-1.27-1.902-2.833-1.902-4.691
			c0-1.857,0.635-3.43,1.902-4.717c1.27-1.287,2.832-1.929,4.691-1.929c1.855,0,3.43,0.643,4.717,1.929s1.928,2.86,1.928,4.717
			C39.758,46.222,39.117,47.785,37.83,49.054z"/>
		<path fill="#E63946" d="M36.73,40.746c-0.982-0.981-2.189-1.475-3.617-1.475c-1.395,0-2.574,0.494-3.537,1.475
			c-0.967,0.982-1.449,2.189-1.449,3.617c0,1.394,0.482,2.573,1.449,3.538c0.963,0.965,2.143,1.448,3.537,1.448
			c1.428,0,2.635-0.482,3.617-1.448c0.982-0.965,1.475-2.144,1.475-3.538C38.205,42.935,37.713,41.728,36.73,40.746z M35.551,46.75
			c-0.66,0.66-1.473,0.99-2.438,0.99c-0.932,0-1.725-0.33-2.387-0.99c-0.66-0.66-0.99-1.456-0.99-2.387
			c0-0.965,0.33-1.778,0.99-2.438c0.662-0.661,1.455-0.992,2.387-0.992c0.965,0,1.777,0.332,2.438,0.992
			c0.662,0.66,0.992,1.473,0.992,2.438C36.543,45.293,36.213,46.089,35.551,46.75z"/>
		<path fill="#E63946" d="M33.113,43.076c-0.824,0.073-1.234,0.501-1.234,1.287c0.072,0.824,0.482,1.233,1.234,1.233
			c0.857-0.071,1.285-0.482,1.285-1.233C34.326,43.505,33.898,43.076,33.113,43.076z"/>
		<path fill="#66ABC6" d="M57.205,63.849c-2.482-2.483-5.457-3.726-8.922-3.726c-3.504,0-6.486,1.243-8.953,3.726
			c-2.465,2.483-3.699,5.458-3.699,8.923c0,3.468,1.234,6.433,3.699,8.898c2.467,2.465,5.449,3.699,8.953,3.699
			c3.465,0,6.439-1.233,8.922-3.699c2.484-2.466,3.729-5.431,3.729-8.898C60.934,69.307,59.689,66.332,57.205,63.849z
			 M55.438,79.901c-1.982,1.967-4.369,2.949-7.154,2.949c-2.787,0-5.174-0.982-7.158-2.949c-1.984-1.964-2.973-4.341-2.973-7.129
			c0-2.787,0.988-5.162,2.973-7.129c1.984-1.964,4.371-2.949,7.158-2.949c2.785,0,5.172,0.985,7.154,2.949
			c1.982,1.967,2.977,4.342,2.977,7.129C58.414,75.56,57.42,77.937,55.438,79.901z"/>
		<path fill="#66ABC6" d="M54.205,66.822c-1.625-1.642-3.602-2.466-5.922-2.466c-2.359,0-4.342,0.824-5.949,2.466
			c-1.609,1.645-2.412,3.627-2.412,5.95c0,2.324,0.803,4.299,2.412,5.924c1.607,1.626,3.59,2.438,5.949,2.438
			c2.32,0,4.297-0.812,5.922-2.438c1.625-1.625,2.439-3.6,2.439-5.924C56.645,70.45,55.83,68.467,54.205,66.822z M52.971,77.435
			c-1.268,1.287-2.832,1.93-4.688,1.93c-1.859,0-3.422-0.643-4.691-1.93c-1.268-1.286-1.902-2.84-1.902-4.663
			c0-1.856,0.635-3.431,1.902-4.717c1.27-1.286,2.832-1.93,4.691-1.93c1.855,0,3.42,0.644,4.688,1.93
			c1.271,1.286,1.904,2.86,1.904,4.717C54.875,74.595,54.242,76.149,52.971,77.435z"/>
		<path fill="#66ABC6" d="M51.846,69.208c-0.98-0.981-2.17-1.475-3.562-1.475c-1.395,0-2.584,0.494-3.566,1.475
			c-0.982,0.982-1.473,2.17-1.473,3.563c0,1.394,0.49,2.584,1.473,3.566c0.982,0.981,2.172,1.473,3.566,1.473
			c1.393,0,2.582-0.491,3.562-1.473c0.984-0.982,1.475-2.172,1.475-3.566C53.32,71.378,52.83,70.19,51.846,69.208z M50.666,75.158
			c-0.658,0.661-1.455,0.991-2.383,0.991c-0.932,0-1.727-0.33-2.387-0.991c-0.66-0.661-0.992-1.455-0.992-2.386
			c0-0.965,0.332-1.777,0.992-2.438c0.66-0.66,1.455-0.993,2.387-0.993c0.928,0,1.725,0.333,2.383,0.993
			c0.662,0.661,0.992,1.473,0.992,2.438C51.658,73.703,51.328,74.498,50.666,75.158z"/>
		<path fill="#66ABC6" d="M48.283,71.486c-0.824,0.072-1.234,0.501-1.234,1.286c0.07,0.823,0.482,1.233,1.234,1.233
			c0.355,0,0.66-0.116,0.91-0.348s0.375-0.528,0.375-0.886C49.461,71.915,49.033,71.486,48.283,71.486z"/>
	</g>
</g>
</svg>
