<?xml version="1.0" encoding="utf-8"?>
<!-- Generator: Adobe Illustrator 16.0.0, SVG Export Plug-In . SVG Version: 6.00 Build 0)  -->
<!DOCTYPE svg PUBLIC "-//W3C//DTD SVG 1.1//EN" "http://www.w3.org/Graphics/SVG/1.1/DTD/svg11.dtd">
<svg version="1.1" id="Layer_1" xmlns="http://www.w3.org/2000/svg" xmlns:xlink="http://www.w3.org/1999/xlink" x="0px" y="0px"
	 width="66.334px" height="88.5px" viewBox="0 0 66.334 88.5" enable-background="new 0 0 66.334 88.5" xml:space="preserve">
<g>
	<path fill="#A8DADC" d="M17.018,24.246c1.399,0,2.596-0.488,3.589-1.465c0.993-0.977,1.489-2.164,1.489-3.564
		c0-1.431-0.497-2.636-1.489-3.613c-0.993-0.977-2.189-1.465-3.589-1.465c-1.433,0-2.645,0.488-3.638,1.465
		c-0.993,0.977-1.489,2.182-1.489,3.613c0,1.4,0.496,2.588,1.489,3.564C14.373,23.757,15.585,24.246,17.018,24.246z M14.479,16.678
		c0.684-0.684,1.53-1.025,2.539-1.025c0.977,0,1.807,0.342,2.49,1.025s1.025,1.529,1.025,2.539c0,0.977-0.342,1.807-1.025,2.49
		s-1.514,1.025-2.49,1.025c-1.009,0-1.855-0.342-2.539-1.025s-1.025-1.514-1.025-2.49C13.453,18.207,13.795,17.361,14.479,16.678z"
		/>
	<path fill="#A8DADC" d="M49.195,21.169c0.553,0,1.017-0.195,1.392-0.586c0.374-0.391,0.562-0.846,0.562-1.367
		c0-0.552-0.188-1.017-0.562-1.392c-0.375-0.373-0.838-0.561-1.392-0.561c-0.521,0-0.977,0.188-1.367,0.561
		c-0.391,0.375-0.586,0.84-0.586,1.392c0,0.521,0.195,0.977,0.586,1.367S48.674,21.169,49.195,21.169z M48.707,18.703
		c0.13-0.146,0.293-0.219,0.488-0.219s0.366,0.072,0.513,0.219s0.22,0.318,0.22,0.513c0,0.195-0.073,0.35-0.22,0.463
		c-0.146,0.115-0.317,0.172-0.513,0.172c-0.391,0-0.619-0.211-0.684-0.635C48.512,19.021,48.577,18.85,48.707,18.703z"/>
	<path fill="#A8DADC" d="M33.082,24.246c1.432,0,2.645-0.488,3.638-1.465c0.993-0.977,1.489-2.164,1.489-3.564
		c0-1.431-0.497-2.636-1.489-3.613c-0.993-0.977-2.206-1.465-3.638-1.465c-1.4,0-2.596,0.488-3.589,1.465
		c-0.993,0.977-1.489,2.182-1.489,3.613c0,1.4,0.496,2.588,1.489,3.564C30.486,23.757,31.682,24.246,33.082,24.246z M30.592,16.678
		c0.684-0.684,1.514-1.025,2.49-1.025c1.009,0,1.855,0.342,2.539,1.025s1.025,1.529,1.025,2.539c0,0.977-0.342,1.807-1.025,2.49
		s-1.53,1.025-2.539,1.025c-0.977,0-1.807-0.342-2.49-1.025s-1.025-1.514-1.025-2.49C29.566,18.207,29.908,17.361,30.592,16.678z"/>
	<path fill="#A8DADC" d="M49.195,24.246c1.399,0,2.596-0.488,3.589-1.465c0.993-0.977,1.489-2.164,1.489-3.564
		c0-1.431-0.497-2.636-1.489-3.613c-0.993-0.977-2.189-1.465-3.589-1.465c-1.4,0-2.596,0.488-3.589,1.465
		c-0.993,0.977-1.489,2.182-1.489,3.613c0,1.4,0.496,2.588,1.489,3.564C46.599,23.757,47.795,24.246,49.195,24.246z M46.705,16.678
		c0.684-0.684,1.514-1.025,2.49-1.025s1.807,0.342,2.49,1.025s1.025,1.529,1.025,2.539c0,0.977-0.342,1.807-1.025,2.49
		s-1.514,1.025-2.49,1.025s-1.807-0.342-2.49-1.025s-1.025-1.514-1.025-2.49C45.68,18.207,46.021,17.361,46.705,16.678z"/>
	<path fill="#A8DADC" d="M33.082,21.169c0.553,0,1.017-0.195,1.392-0.586c0.374-0.391,0.562-0.846,0.562-1.367
		c0-0.552-0.188-1.017-0.562-1.392c-0.375-0.373-0.838-0.561-1.392-0.561c-0.521,0-0.977,0.188-1.367,0.561
		c-0.391,0.375-0.586,0.84-0.586,1.392c0,0.521,0.195,0.977,0.586,1.367S32.561,21.169,33.082,21.169z M32.594,18.703
		c0.13-0.146,0.293-0.219,0.488-0.219c0.456,0,0.7,0.244,0.732,0.732c0,0.391-0.244,0.602-0.732,0.635
		c-0.391,0-0.619-0.211-0.684-0.635C32.398,19.021,32.463,18.85,32.594,18.703z"/>
	<path fill="#A8DADC" d="M17.018,21.169c0.521,0,0.977-0.195,1.367-0.586s0.586-0.846,0.586-1.367c0-0.552-0.195-1.017-0.586-1.392
		c-0.391-0.373-0.847-0.561-1.367-0.561c-0.554,0-1.018,0.188-1.392,0.561c-0.375,0.375-0.562,0.84-0.562,1.392
		c0,0.521,0.187,0.977,0.562,1.367C16,20.974,16.464,21.169,17.018,21.169z M17.018,18.484c0.195,0,0.358,0.072,0.488,0.219
		c0.13,0.146,0.195,0.318,0.195,0.513c0,0.391-0.228,0.602-0.684,0.635c-0.423,0-0.667-0.211-0.732-0.635
		C16.285,18.793,16.529,18.549,17.018,18.484z"/>
	<path fill="#E63946" d="M17.018,43.142c-0.554,0-1.018,0.188-1.392,0.561c-0.375,0.375-0.562,0.84-0.562,1.393
		c0,0.521,0.187,0.977,0.562,1.367c0.374,0.391,0.838,0.586,1.392,0.586c0.521,0,0.977-0.195,1.367-0.586s0.586-0.846,0.586-1.367
		c0-0.553-0.195-1.018-0.586-1.393C17.994,43.33,17.538,43.142,17.018,43.142z M17.018,45.779c-0.423,0-0.667-0.229-0.732-0.684
		c0-0.455,0.244-0.699,0.732-0.732c0.391,0,0.618,0.244,0.684,0.732C17.701,45.486,17.473,45.714,17.018,45.779z"/>
	<path fill="#A8DADC" d="M17.018,28.396c1.725,0,3.288-0.432,4.688-1.295c1.399-0.861,2.522-1.992,3.369-3.393
		c0.813,1.4,1.92,2.531,3.32,3.393c1.399,0.863,2.962,1.295,4.688,1.295c1.725,0,3.296-0.432,4.712-1.295
		c1.416-0.861,2.547-1.992,3.394-3.393c0.781,1.4,1.88,2.531,3.296,3.393c1.416,0.863,2.986,1.295,4.712,1.295
		c2.539,0,4.712-0.904,6.519-2.711s2.71-3.963,2.71-6.469c0-2.539-0.903-4.712-2.71-6.519s-3.979-2.709-6.519-2.709
		c-1.726,0-3.296,0.439-4.712,1.318s-2.515,2.018-3.296,3.418c-0.847-1.4-1.978-2.539-3.394-3.418s-2.987-1.318-4.712-1.318
		c-1.726,0-3.288,0.439-4.688,1.318c-1.4,0.879-2.507,2.018-3.32,3.418c-0.847-1.4-1.97-2.539-3.369-3.418
		c-1.4-0.879-2.962-1.318-4.688-1.318c-2.539,0-4.704,0.902-6.494,2.709c-1.791,1.807-2.686,3.98-2.686,6.519
		c0,2.506,0.895,4.662,2.686,6.469C12.313,27.492,14.479,28.396,17.018,28.396z M44.312,14.309c1.334-1.35,2.962-2.025,4.883-2.025
		c1.92,0,3.556,0.676,4.907,2.025c1.351,1.352,2.026,2.988,2.026,4.908c0,1.889-0.676,3.508-2.026,4.857
		c-1.351,1.352-2.987,2.027-4.907,2.027c-1.921,0-3.548-0.676-4.883-2.027c-1.335-1.35-2.002-2.969-2.002-4.857
		C42.311,17.297,42.978,15.66,44.312,14.309z M28.224,14.309c1.351-1.35,2.97-2.025,4.858-2.025c1.92,0,3.548,0.676,4.883,2.025
		c1.334,1.352,2.002,2.988,2.002,4.908c0,1.889-0.667,3.508-2.002,4.857c-1.335,1.352-2.962,2.027-4.883,2.027
		c-1.888,0-3.508-0.676-4.858-2.027c-1.351-1.35-2.026-2.969-2.026-4.857C26.197,17.297,26.873,15.66,28.224,14.309z M12.135,14.309
		c1.334-1.35,2.962-2.025,4.883-2.025c1.888,0,3.516,0.676,4.883,2.025c1.367,1.352,2.051,2.988,2.051,4.908
		c0,1.889-0.684,3.508-2.051,4.857c-1.367,1.352-2.995,2.027-4.883,2.027c-1.921,0-3.548-0.676-4.883-2.027
		c-1.335-1.35-2.002-2.969-2.002-4.857C10.133,17.297,10.8,15.66,12.135,14.309z"/>
	<path fill="#E63946" d="M17.018,39.968c-1.433,0-2.645,0.496-3.638,1.488c-0.993,0.994-1.489,2.207-1.489,3.639
		c0,1.4,0.496,2.596,1.489,3.588c0.993,0.994,2.205,1.49,3.638,1.49c1.399,0,2.596-0.496,3.589-1.49
		c0.993-0.992,1.489-2.188,1.489-3.588c0-1.432-0.497-2.645-1.489-3.639C19.613,40.464,18.417,39.968,17.018,39.968z M19.508,47.585
		c-0.684,0.684-1.514,1.025-2.49,1.025c-1.009,0-1.855-0.342-2.539-1.025s-1.025-1.514-1.025-2.49c0-1.01,0.342-1.855,1.025-2.539
		s1.53-1.025,2.539-1.025c0.977,0,1.807,0.342,2.49,1.025s1.025,1.529,1.025,2.539C20.533,46.072,20.191,46.902,19.508,47.585z"/>
	<path fill="#E63946" d="M33.082,43.142c-0.521,0-0.977,0.188-1.367,0.561c-0.391,0.375-0.586,0.84-0.586,1.393
		c0,0.521,0.195,0.977,0.586,1.367s0.846,0.586,1.367,0.586c0.553,0,1.017-0.195,1.392-0.586c0.374-0.391,0.562-0.846,0.562-1.367
		c0-0.553-0.188-1.018-0.562-1.393C34.099,43.33,33.635,43.142,33.082,43.142z M33.082,45.779c-0.391,0-0.619-0.229-0.684-0.684
		c0-0.455,0.228-0.699,0.684-0.732c0.456,0,0.7,0.244,0.732,0.732C33.814,45.486,33.57,45.714,33.082,45.779z"/>
	<path fill="#E63946" d="M49.195,43.142c-0.521,0-0.977,0.188-1.367,0.561c-0.391,0.375-0.586,0.84-0.586,1.393
		c0,0.521,0.195,0.977,0.586,1.367s0.846,0.586,1.367,0.586c0.553,0,1.017-0.195,1.392-0.586c0.374-0.391,0.562-0.846,0.562-1.367
		c0-0.553-0.188-1.018-0.562-1.393C50.212,43.33,49.749,43.142,49.195,43.142z M49.708,45.583c-0.146,0.131-0.317,0.195-0.513,0.195
		c-0.391,0-0.619-0.229-0.684-0.684c0-0.455,0.228-0.699,0.684-0.732c0.423,0,0.667,0.244,0.732,0.732
		C49.928,45.291,49.854,45.453,49.708,45.583z"/>
	<path fill="#E63946" d="M49.195,35.867c-1.726,0-3.296,0.439-4.712,1.318s-2.515,2.018-3.296,3.418
		c-0.847-1.4-1.978-2.539-3.394-3.418s-2.987-1.318-4.712-1.318c-1.726,0-3.288,0.439-4.688,1.318
		c-1.4,0.879-2.507,2.018-3.32,3.418c-0.847-1.4-1.97-2.539-3.369-3.418c-1.4-0.879-2.962-1.318-4.688-1.318
		c-2.539,0-4.704,0.902-6.494,2.709c-1.791,1.807-2.686,3.98-2.686,6.52s0.895,4.711,2.686,6.518
		c1.79,1.807,3.955,2.711,6.494,2.711c1.725,0,3.288-0.439,4.688-1.318c1.399-0.879,2.522-2.018,3.369-3.418
		c0.813,1.4,1.92,2.539,3.32,3.418c1.399,0.879,2.962,1.318,4.688,1.318c1.725,0,3.296-0.439,4.712-1.318s2.547-2.018,3.394-3.418
		c0.781,1.4,1.88,2.539,3.296,3.418s2.986,1.318,4.712,1.318c2.539,0,4.712-0.904,6.519-2.711s2.71-3.979,2.71-6.518
		s-0.903-4.713-2.71-6.52S51.734,35.867,49.195,35.867z M21.9,49.953c-1.367,1.352-2.995,2.027-4.883,2.027
		c-1.921,0-3.548-0.676-4.883-2.027c-1.335-1.35-2.002-2.969-2.002-4.857c0-1.92,0.667-3.549,2.002-4.883
		c1.334-1.334,2.962-2.002,4.883-2.002c1.888,0,3.516,0.668,4.883,2.002s2.051,2.963,2.051,4.883
		C23.951,46.984,23.268,48.603,21.9,49.953z M37.965,49.953c-1.335,1.352-2.962,2.027-4.883,2.027c-1.888,0-3.508-0.676-4.858-2.027
		c-1.351-1.35-2.026-2.969-2.026-4.857c0-1.92,0.675-3.549,2.026-4.883c1.351-1.334,2.97-2.002,4.858-2.002
		c1.92,0,3.548,0.668,4.883,2.002c1.334,1.334,2.002,2.963,2.002,4.883C39.967,46.984,39.299,48.603,37.965,49.953z M54.103,49.953
		c-1.351,1.352-2.987,2.027-4.907,2.027c-1.921,0-3.548-0.676-4.883-2.027c-1.335-1.35-2.002-2.969-2.002-4.857
		c0-1.92,0.667-3.549,2.002-4.883c1.334-1.334,2.962-2.002,4.883-2.002c1.92,0,3.556,0.668,4.907,2.002
		c1.351,1.334,2.026,2.963,2.026,4.883C56.129,46.984,55.453,48.603,54.103,49.953z"/>
	<path fill="#E63946" d="M49.195,39.968c-1.4,0-2.596,0.496-3.589,1.488c-0.993,0.994-1.489,2.207-1.489,3.639
		c0,1.4,0.496,2.596,1.489,3.588c0.993,0.994,2.189,1.49,3.589,1.49c1.399,0,2.596-0.496,3.589-1.49
		c0.993-0.992,1.489-2.188,1.489-3.588c0-1.432-0.497-2.645-1.489-3.639C51.791,40.464,50.595,39.968,49.195,39.968z M51.686,47.585
		c-0.684,0.684-1.514,1.025-2.49,1.025s-1.807-0.342-2.49-1.025s-1.025-1.514-1.025-2.49c0-1.01,0.342-1.855,1.025-2.539
		s1.514-1.025,2.49-1.025s1.807,0.342,2.49,1.025s1.025,1.529,1.025,2.539C52.711,46.072,52.369,46.902,51.686,47.585z"/>
	<path fill="#E63946" d="M33.082,39.968c-1.4,0-2.596,0.496-3.589,1.488c-0.993,0.994-1.489,2.207-1.489,3.639
		c0,1.4,0.496,2.596,1.489,3.588c0.993,0.994,2.189,1.49,3.589,1.49c1.432,0,2.645-0.496,3.638-1.49
		c0.993-0.992,1.489-2.188,1.489-3.588c0-1.432-0.497-2.645-1.489-3.639C35.727,40.464,34.514,39.968,33.082,39.968z M35.621,47.585
		c-0.684,0.684-1.53,1.025-2.539,1.025c-0.977,0-1.807-0.342-2.49-1.025s-1.025-1.514-1.025-2.49c0-1.01,0.342-1.855,1.025-2.539
		s1.514-1.025,2.49-1.025c1.009,0,1.855,0.342,2.539,1.025s1.025,1.529,1.025,2.539C36.646,46.072,36.305,46.902,35.621,47.585z"/>
	<path fill="#66ABC6" d="M17.018,65.847c-1.433,0-2.645,0.496-3.638,1.488c-0.993,0.994-1.489,2.205-1.489,3.639
		c0,1.432,0.496,2.637,1.489,3.613c0.993,0.977,2.205,1.465,3.638,1.465c1.399,0,2.596-0.488,3.589-1.465
		c0.993-0.977,1.489-2.182,1.489-3.613c0-1.434-0.497-2.645-1.489-3.639C19.613,66.343,18.417,65.847,17.018,65.847z M19.508,73.464
		c-0.684,0.684-1.514,1.025-2.49,1.025c-1.009,0-1.855-0.342-2.539-1.025s-1.025-1.514-1.025-2.49c0-1.01,0.342-1.855,1.025-2.539
		s1.53-1.025,2.539-1.025c0.977,0,1.807,0.342,2.49,1.025s1.025,1.529,1.025,2.539C20.533,71.951,20.191,72.781,19.508,73.464z"/>
	<path fill="#66ABC6" d="M17.018,69.021c-0.554,0-1.018,0.188-1.392,0.561c-0.375,0.375-0.562,0.838-0.562,1.393
		c0,0.52,0.187,0.977,0.562,1.367c0.374,0.391,0.838,0.586,1.392,0.586c0.521,0,0.977-0.195,1.367-0.586s0.586-0.848,0.586-1.367
		c0-0.555-0.195-1.018-0.586-1.393C17.994,69.208,17.538,69.021,17.018,69.021z M17.018,71.658c-0.423,0-0.667-0.229-0.732-0.684
		c0-0.424,0.244-0.652,0.732-0.684c0.391,0,0.618,0.227,0.684,0.684C17.701,71.365,17.473,71.591,17.018,71.658z"/>
	<path fill="#66ABC6" d="M49.195,61.794c-1.726,0-3.296,0.432-4.712,1.293c-1.416,0.863-2.515,1.994-3.296,3.395
		c-0.847-1.4-1.978-2.531-3.394-3.395c-1.416-0.861-2.987-1.293-4.712-1.293c-1.726,0-3.288,0.432-4.688,1.293
		c-1.4,0.863-2.507,1.994-3.32,3.395c-0.847-1.4-1.97-2.531-3.369-3.395c-1.4-0.861-2.962-1.293-4.688-1.293
		c-2.539,0-4.704,0.895-6.494,2.686c-1.791,1.789-2.686,3.955-2.686,6.494s0.895,4.703,2.686,6.494
		c1.79,1.789,3.955,2.686,6.494,2.686c1.725,0,3.288-0.432,4.688-1.295c1.399-0.861,2.522-2.01,3.369-3.441
		c0.813,1.432,1.92,2.58,3.32,3.441c1.399,0.863,2.962,1.295,4.688,1.295c1.725,0,3.296-0.432,4.712-1.295
		c1.416-0.861,2.547-2.01,3.394-3.441c1.92,3.156,4.59,4.736,8.008,4.736c2.539,0,4.712-0.896,6.519-2.686
		c1.807-1.791,2.71-3.955,2.71-6.494s-0.903-4.705-2.71-6.494C53.907,62.689,51.734,61.794,49.195,61.794z M21.9,75.808
		c-1.367,1.334-2.995,2.002-4.883,2.002c-1.921,0-3.548-0.668-4.883-2.002c-1.335-1.336-2.002-2.947-2.002-4.834
		c0-1.922,0.667-3.549,2.002-4.883c1.334-1.336,2.962-2.002,4.883-2.002c1.888,0,3.516,0.666,4.883,2.002
		c1.367,1.334,2.051,2.961,2.051,4.883C23.951,72.861,23.268,74.472,21.9,75.808z M37.965,75.808
		c-1.335,1.334-2.962,2.002-4.883,2.002c-1.888,0-3.508-0.668-4.858-2.002c-1.351-1.336-2.026-2.947-2.026-4.834
		c0-1.922,0.675-3.549,2.026-4.883c1.351-1.336,2.97-2.002,4.858-2.002c1.92,0,3.548,0.666,4.883,2.002
		c1.334,1.334,2.002,2.961,2.002,4.883C39.967,72.861,39.299,74.472,37.965,75.808z M54.103,75.808
		c-1.351,1.334-2.987,2.002-4.907,2.002c-1.921,0-3.548-0.668-4.883-2.002c-1.335-1.336-2.002-2.947-2.002-4.834
		c0-1.922,0.667-3.549,2.002-4.883c1.334-1.336,2.962-2.002,4.883-2.002c1.92,0,3.556,0.666,4.907,2.002
		c1.351,1.334,2.026,2.961,2.026,4.883C56.129,72.861,55.453,74.472,54.103,75.808z"/>
	<path fill="#66ABC6" d="M33.082,69.021c-0.521,0-0.977,0.188-1.367,0.561c-0.391,0.375-0.586,0.838-0.586,1.393
		c0,0.52,0.195,0.977,0.586,1.367s0.846,0.586,1.367,0.586c0.553,0,1.017-0.195,1.392-0.586c0.374-0.391,0.562-0.848,0.562-1.367
		c0-0.555-0.188-1.018-0.562-1.393C34.099,69.208,33.635,69.021,33.082,69.021z M33.082,71.658c-0.391,0-0.619-0.229-0.684-0.684
		c0-0.424,0.228-0.652,0.684-0.684c0.456,0,0.7,0.227,0.732,0.684C33.814,71.365,33.57,71.591,33.082,71.658z"/>
	<path fill="#66ABC6" d="M49.195,65.847c-1.4,0-2.596,0.496-3.589,1.488c-0.993,0.994-1.489,2.205-1.489,3.639
		c0,1.432,0.496,2.637,1.489,3.613c0.993,0.977,2.189,1.465,3.589,1.465c1.399,0,2.596-0.488,3.589-1.465
		c0.993-0.977,1.489-2.182,1.489-3.613c0-1.434-0.497-2.645-1.489-3.639C51.791,66.343,50.595,65.847,49.195,65.847z M51.686,73.464
		c-0.684,0.684-1.514,1.025-2.49,1.025s-1.807-0.342-2.49-1.025s-1.025-1.514-1.025-2.49c0-1.01,0.342-1.855,1.025-2.539
		s1.514-1.025,2.49-1.025s1.807,0.342,2.49,1.025s1.025,1.529,1.025,2.539C52.711,71.951,52.369,72.781,51.686,73.464z"/>
	<path fill="#66ABC6" d="M33.082,65.847c-1.4,0-2.596,0.496-3.589,1.488c-0.993,0.994-1.489,2.205-1.489,3.639
		c0,1.432,0.496,2.637,1.489,3.613c0.993,0.977,2.189,1.465,3.589,1.465c1.432,0,2.645-0.488,3.638-1.465
		c0.993-0.977,1.489-2.182,1.489-3.613c0-1.434-0.497-2.645-1.489-3.639C35.727,66.343,34.514,65.847,33.082,65.847z M35.621,73.464
		c-0.684,0.684-1.53,1.025-2.539,1.025c-0.977,0-1.807-0.342-2.49-1.025s-1.025-1.514-1.025-2.49c0-1.01,0.342-1.855,1.025-2.539
		s1.514-1.025,2.49-1.025c1.009,0,1.855,0.342,2.539,1.025s1.025,1.529,1.025,2.539C36.646,71.951,36.305,72.781,35.621,73.464z"/>
	<path fill="#66ABC6" d="M49.195,69.021c-0.521,0-0.977,0.188-1.367,0.561c-0.391,0.375-0.586,0.838-0.586,1.393
		c0,0.52,0.195,0.977,0.586,1.367s0.846,0.586,1.367,0.586c0.553,0,1.017-0.195,1.392-0.586c0.374-0.391,0.562-0.848,0.562-1.367
		c0-0.555-0.188-1.018-0.562-1.393C50.212,69.208,49.749,69.021,49.195,69.021z M49.708,71.462
		c-0.146,0.129-0.317,0.195-0.513,0.195c-0.391,0-0.619-0.229-0.684-0.684c0-0.424,0.228-0.652,0.684-0.684
		c0.423,0,0.667,0.227,0.732,0.684C49.928,71.169,49.854,71.332,49.708,71.462z"/>
</g>
</svg>
