<?xml version="1.0" encoding="utf-8"?>
<!-- Generator: Adobe Illustrator 16.0.0, SVG Export Plug-In . SVG Version: 6.00 Build 0)  -->
<!DOCTYPE svg PUBLIC "-//W3C//DTD SVG 1.1//EN" "http://www.w3.org/Graphics/SVG/1.1/DTD/svg11.dtd">
<svg version="1.1" id="Layer_1" xmlns="http://www.w3.org/2000/svg" xmlns:xlink="http://www.w3.org/1999/xlink" x="0px" y="0px"
	 width="66.333px" height="88.5px" viewBox="0 0 66.333 88.5" enable-background="new 0 0 66.333 88.5" xml:space="preserve">
<g>
	<g>
		<path fill="#66ABC6" d="M22.803,70.051c-2.865-1.008-4.883-4.508-6.055-10.498c-1.237-6.021-2.49-9.488-3.76-10.4
			c-1.367-1.008-2.051-2.018-2.051-3.027c0-0.422,1.253-0.635,3.76-0.635c1.692,0,2.897,0.424,3.613,1.27l7.666-2.197
			c-0.195-2.148-0.651-3.596-1.367-4.346c-0.521-0.586-1.188-0.879-2.002-0.879h-1.318c1.172-0.52,2.165-1.221,2.979-2.1
			c0.813-0.879,1.383-1.172,1.709-0.879c2.344,1.855,3.727,4.314,4.15,7.373l3.906-0.879l0.342-3.223
			c0.195-1.66,0-2.881-0.586-3.662c-0.456-0.617-0.684-1.105-0.684-1.465c0-1.041,0.846-1.92,2.539-2.637
			c0,0.619,0.195,1.336,0.586,2.148c0.553,1.01,2.393,1.873,5.517,2.588c-2.083,0.912-3.336,2.719-3.759,5.42
			c1.855-0.26,4.003-0.764,6.445-1.514c0.424,0,1.375,0.326,2.857,0.977c1.48,0.652,3.084,1.555,4.809,2.711
			c1.726,1.154,3.207,2.562,4.443,4.223c-1.758,0.912-3.189,2.719-4.297,5.42c-1.236,3.027-2.425,5.779-3.564,8.252
			c-1.139,2.475-2.441,4.266-3.906,5.371c-1.465,1.107-2.783,1.66-3.955,1.66c-0.65,0-0.977-0.406-0.977-1.221
			c0-0.943-0.309-1.578-0.927-1.904c-0.619-0.324-1.611-0.488-2.979-0.488c-3.451,0-6.494,0.799-9.131,2.393
			C24.593,69.336,23.258,70.051,22.803,70.051z M25.586,31.135c-2.214,0-4.216-0.35-6.006-1.049c-1.791-0.7-2.995-1.668-3.613-2.906
			c0.846-0.391,1.872-0.391,3.076,0c0.813,0.293,2.409,0.221,4.785-0.219c2.376-0.439,5.127-1.344,8.252-2.711
			s4.997-2.254,5.615-2.66c0.618-0.407,1.188-0.594,1.709-0.562c1.986,0.195,3.898,0.668,5.738,1.416
			c1.838,0.75,2.758,1.318,2.758,1.709c0,0.521-1.236,1.498-3.711,2.93c-1.204,0.684-3.035,1.359-5.493,2.027
			c-2.458,0.667-4.891,1.172-7.3,1.514C28.987,30.965,27.051,31.135,25.586,31.135z M23.34,65.021
			c2.344-0.91,4.248-1.66,5.713-2.246c2.864-1.105,5.371-1.66,7.52-1.66c2.181,0,3.605,0.496,4.273,1.49
			c0.666,0.992,1.277,1.164,1.83,0.512c1.01-1.105,1.945-3.182,2.809-6.225c0.861-3.045,1.668-6.242,2.416-9.596
			c0.521-2.115-1.529-2.896-6.152-2.344l-4.443,0.537c-0.293,0.424-0.439,1.596-0.439,3.516c0,1.205,0.797,1.807,2.393,1.807
			c0.521,0,1.351-0.406,2.49-1.221c0.586,0.326,1.025,0.74,1.318,1.246c0.293,0.504,0.439,1.098,0.439,1.781
			c0,0.717-0.553,1.4-1.66,2.051c-1.106,0.652-2.441,0.977-4.003,0.977c-1.693,0-2.905-0.52-3.638-1.562
			c-0.732-1.041-0.985-2.637-0.757-4.785l0.293-3.271l-3.467,0.635c-0.098,3.582-0.562,6.258-1.392,8.033
			c-0.83,1.773-2.303,3.246-4.419,4.418c1.465-2.832,2.132-5.859,2.002-9.082l-0.146-2.734c-1.465,0.424-2.8,0.717-4.004,0.879
			c-1.205,0.164-2.328,0.244-3.369,0.244c0.618,1.205,1.302,3.191,2.051,5.957C21.745,57.145,22.526,60.693,23.34,65.021z"/>
	</g>
</g>
</svg>
