<?xml version="1.0" encoding="utf-8"?>
<!-- Generator: Adobe Illustrator 16.0.0, SVG Export Plug-In . SVG Version: 6.00 Build 0)  -->
<!DOCTYPE svg PUBLIC "-//W3C//DTD SVG 1.1//EN" "http://www.w3.org/Graphics/SVG/1.1/DTD/svg11.dtd">
<svg version="1.1" id="Layer_1" xmlns="http://www.w3.org/2000/svg" xmlns:xlink="http://www.w3.org/1999/xlink" x="0px" y="0px"
	 width="66.334px" height="88.5px" viewBox="0 0 66.334 88.5" enable-background="new 0 0 66.334 88.5" xml:space="preserve">
<g>
	<g>
		<path fill="#66ABC6" d="M37.472,25.576c1.036,0,1.93-0.376,2.681-1.126c0.749-0.751,1.125-1.662,1.125-2.733
			c0-1.036-0.376-1.93-1.125-2.681c-0.751-0.751-1.645-1.126-2.681-1.126c-1.072,0-1.976,0.375-2.706,1.126
			c-0.733,0.751-1.1,1.645-1.1,2.681c0,1.071,0.366,1.982,1.1,2.733C35.496,25.2,36.399,25.576,37.472,25.576z M36.104,20.403
			c0.376-0.374,0.832-0.562,1.367-0.562c0.536,0,0.982,0.188,1.341,0.562c0.356,0.376,0.536,0.813,0.536,1.313
			c0,0.535-0.18,0.992-0.536,1.367c-0.358,0.375-0.805,0.562-1.341,0.562c-0.535,0-0.991-0.188-1.367-0.562
			c-0.375-0.375-0.562-0.832-0.562-1.367C35.542,21.216,35.729,20.779,36.104,20.403z"/>
		<path fill="#66ABC6" d="M31.254,17.964c-0.071-0.354-0.087-0.706-0.081-1.061c-0.462,0.941-0.698,2.215-1.802,2.417
			c0.091,0.15,0.153,0.33,0.168,0.573c0.029,0.538,0.044,1.2,0.049,1.938c0.824,0.316,1.478,0.702,1.983,1.161
			C31.532,20.761,31.427,19.079,31.254,17.964z"/>
		<path fill="#E63946" d="M43.048,45.945c0.527-0.444,0.971-0.891,1.369-1.335c0.138-0.725-0.011-1.45-0.567-2.175
			c-0.385,0.504-0.792,0.964-1.231,1.364c-1.038,0.966-3.414,1.555-7.13,1.77h-0.483c-0.821,0-1.946-0.107-3.375-0.322
			c-2.467-0.355-4.004-0.838-4.611-1.447c-0.005-0.006-0.008-0.012-0.013-0.019c-0.045-0.05-0.069-0.099-0.104-0.146
			c-0.117-0.173-0.164-0.341-0.156-0.506c-0.688,0.736-0.794,1.664-0.671,2.672c0.094,0.099,0.189,0.21,0.293,0.348
			c0.003,0.004,0.005,0.007,0.008,0.011c0.143,0.215,0.268,0.465,0.375,0.75l-0.378,0.025l-0.088,0.008
			c0.08,0.336,0.164,0.676,0.248,1.015l0.485-0.029c0.144,0.894,0.215,2.057,0.215,3.484c0.072,7.684,2.197,15.886,6.379,24.604
			c1.463,2.824,3.091,5.058,4.877,6.7c-0.821-1.357-2.466-5.02-4.932-10.988c-2.572-6.146-3.932-12.471-4.072-18.976
			c0-1.822-0.161-3.464-0.483-4.932l1.072,0.269c0.429,9.292,2.037,17.475,4.825,24.55c1.143,2.931,2.107,5.146,2.894,6.646
			c1.144,2.251,2.092,3.591,2.842,4.021c-0.644-1.357-1.271-2.751-1.877-4.181c-0.572-1.395-1.413-3.556-2.52-6.486
			c-2.251-5.682-3.858-13.811-4.823-24.39c0.285,0.036,0.59,0.073,0.91,0.107c0.108,3.682,0.554,7.611,1.341,11.793
			c1.287,6.683,3.091,12.776,5.414,18.278c-1.144-4.467-2.377-9.273-3.699-14.419c0.857,2.753,1.591,4.844,2.198,6.271
			c0.142,2.753,1.464,6.683,3.966,11.792c-1.822-4.824-2.824-8.235-3.001-10.237c0.429,1.252,1.589,4.234,3.483,8.951
			c-0.465-3.572-1.52-7.484-3.163-11.739c-0.071-1.642-0.106-3.036-0.106-4.181c1.25,6.576,2.984,11.437,5.199,14.58
			c-2.858-7.683-4.413-13.364-4.664-17.046c-0.213-2.822-0.393-5.163-0.535-7.021c-0.286-3.002-0.446-5.431-0.481-7.29
			c0.32-0.034,0.607-0.089,0.857-0.161c0.07,9.078,0.535,15.296,1.394,18.653c0.965,4.074,1.983,6.861,3.056,8.362
			c-2.288-9.254-3.414-18.366-3.377-27.337c0.214-0.034,0.393-0.088,0.535-0.161c-0.285,10.221,1.286,20.674,4.717,31.358
			c-2.644-14.4-3.716-24.997-3.215-31.787l0.863-0.054c0.308-0.357,0.573-0.715,0.789-1.072L43.048,45.945z M37.632,67.653
			c-2.466-6.539-3.913-12.952-4.342-19.243h1.019c0.429,5.396,1.269,10.043,2.52,13.937c0-4.931-0.268-9.595-0.805-13.99
			c0.394-0.034,0.77-0.071,1.126-0.107c0,2.753,0.107,5.405,0.322,7.962c0.214,2.554,0.241,4.654,0.081,6.297
			C37.392,64.152,37.418,65.867,37.632,67.653z"/>
		<path fill="#66ABC6" d="M63.067,41.817c-0.591-0.607-1.332-0.911-2.225-0.911c-0.895,0-1.627,0.304-2.198,0.911
			c-0.18,0.144-0.321,0.304-0.43,0.482L45.725,43.1l-0.052,0.003c0.019-0.006,0.035-0.015,0.055-0.021
			c3.184-1.214,5.312-2.957,6.378-5.231c2.68-5.608,4.019-10.379,4.019-14.312c0-2.607-0.964-3.912-2.894-3.912
			c-1.001,0-2.037,0.32-3.108,0.964c-1.037,0.68-1.968,1.483-2.788,2.411c-0.065-3.004-1.519-5.363-4.3-7.112
			c-1.933,0-3.668,0-5.872,0c0.962,0.198,1.848,0.449,2.615,0.788c3.715,1.537,5.573,4.325,5.573,8.362
			c0,1.215-0.804,2.432-2.411,3.645c-1.931,1.394-5.308,1.913-10.13,1.554l-1.426-0.05c-0.023,0.617-0.066,1.253-0.138,1.893
			c0.004,0,0.008,0,0.012,0.001c0.026,0.003,0.046,0.005,0.071,0.008c0.451,0.058,0.832,0.104,1.104,0.133
			c0.321,0.93,0.124,3.038-0.591,6.325c-0.32,1.501-1.054,3.001-2.196,4.503c1.821-0.966,3.071-2.859,3.751-5.683
			c0.429-1.964,0.555-3.626,0.376-4.984c0.429,0.035,0.82,0.072,1.18,0.106c0.143,0.75,0.213,1.967,0.213,3.646
			c0,2.073-0.84,4.646-2.52,7.719c2.467-1.643,3.753-4.557,3.86-8.737c0-1.036-0.036-1.75-0.107-2.145l-0.054-0.482h1.286
			c0.108,0.857,0.161,2.074,0.161,3.646c0,2.931-0.856,5.504-2.572,7.719c0.429-0.215,0.946-0.571,1.553-1.072
			c1.751-1.535,2.683-4.359,2.788-8.47c0-0.606-0.07-1.286-0.213-2.036c0.429-0.071,0.838-0.125,1.232-0.161
			c0.106,0.321,0.214,1.037,0.32,2.144c0.215,4.004-0.679,7.095-2.68,9.273c1.001-0.536,1.806-1.25,2.413-2.144
			c1.249-1.787,1.857-4.376,1.821-7.772c0-0.215-0.09-0.893-0.268-2.037c0.572-0.214,1.035-0.463,1.395-0.75
			c0.178,0.965,0.267,2.02,0.267,3.162c0,2.895-0.732,5.575-2.197,8.041c0.3-0.253,0.582-0.525,0.85-0.815
			c-0.038-0.025-0.067-0.052-0.107-0.078c0.04,0.026,0.069,0.053,0.107,0.078c0.723-0.775,1.335-1.682,1.831-2.724
			c0.571-1.286,0.858-3.179,0.858-5.681c0-0.429-0.127-1.447-0.376-3.056c0.714-0.714,1.107-1.447,1.18-2.198
			c0.606,0.751,0.928,2.395,0.964,4.932c-0.036,2.68-0.447,4.914-1.232,6.7c-0.286,0.669-0.606,1.274-0.942,1.849
			c-0.294,0.5-0.607,0.964-0.935,1.396c0.557,0.725,0.705,1.45,0.567,2.175c0.113-0.128,0.242-0.255,0.346-0.381l0.91-0.058
			l13.4-0.854c0.107-0.215,0.25-0.429,0.429-0.644c0.357-0.355,0.805-0.536,1.341-0.536s0.982,0.188,1.34,0.564
			c0.357,0.374,0.536,0.812,0.536,1.312c0,0.536-0.188,0.984-0.562,1.34c-0.376,0.358-0.814,0.536-1.313,0.536
			c-0.536,0-0.983-0.194-1.341-0.589c-0.107-0.108-0.197-0.232-0.268-0.376L43.896,45.89c-0.216,0.357-0.481,0.715-0.789,1.072
			l15.323-0.965l0.215,0.215c0.571,0.608,1.304,0.91,2.198,0.91c0.82,0,1.545-0.293,2.17-0.883c0.626-0.59,0.938-1.332,0.938-2.226
			C63.95,43.157,63.656,42.425,63.067,41.817z M48.727,31.955c0-2.359-0.409-4.27-1.231-5.736c2.502-2.857,4.182-4.342,5.039-4.449
			c0.893-0.106,1.34,0.251,1.34,1.072c0,4.218-0.948,8.737-2.841,13.562c-0.788,2.181-2.358,3.825-4.718,4.931
			C47.888,38.654,48.691,35.528,48.727,31.955z"/>
		<path fill="#66ABC6" d="M19.216,47.359L8.955,47.981c-0.107,0.25-0.251,0.465-0.428,0.644c-0.395,0.358-0.842,0.536-1.342,0.536
			c-0.535,0-0.981-0.188-1.339-0.562c-0.359-0.376-0.535-0.813-0.535-1.315c0-0.499,0.176-0.937,0.535-1.312
			c0.357-0.376,0.804-0.563,1.339-0.563c0.537,0,0.983,0.18,1.342,0.536c0.143,0.144,0.248,0.287,0.32,0.429l10.522-0.632
			c-0.072-0.331-0.209-0.67-0.424-1.014l-9.4,0.519c-0.037-0.07-0.072-0.124-0.107-0.16c-0.609-0.606-1.36-0.911-2.253-0.911
			c-0.895,0-1.634,0.305-2.224,0.911c-0.59,0.609-0.885,1.34-0.885,2.197c0,0.858,0.295,1.591,0.885,2.198
			c0.59,0.609,1.329,0.911,2.224,0.911c0.821,0,1.556-0.302,2.198-0.911C9.526,49.34,9.67,49.179,9.813,49l8.622-0.559
			C18.772,48.115,19.042,47.751,19.216,47.359z"/>
		<path fill="#A8DADC" d="M31.575,23.163c-0.001-0.06-0.003-0.11-0.004-0.169c-0.506-0.459-1.159-0.845-1.983-1.161
			c0.001,0.145,0.004,0.269,0.004,0.419c-0.243-0.094-0.53-0.171-0.841-0.239c-0.51-0.114-1.097-0.197-1.786-0.243
			c-1.071-0.07-2.554,0.181-4.448,0.751c-3.788,1.108-5.682,4.432-5.682,9.97c0,3.323,0.805,7.396,2.412,12.222l-0.301,0.017
			c0.215,0.344,0.352,0.683,0.424,1.014l0.197-0.012c0.143,0.608,0.143,1.145,0,1.608l-0.352,0.021
			c-0.174,0.393-0.443,0.756-0.78,1.083l0.489-0.032c-1.607,1.395-3.877,2.753-6.808,4.074c-2.215,1.001-4.967,1.949-8.254,2.841
			c-1.86,0.572-1.966,0.877-0.322,0.911c6.969,0,13.294-2.68,18.976-8.041l3.931-0.233l0.086-0.005
			c-0.084-0.339-0.168-0.679-0.248-1.015l-2.643,0.181c0.464-0.499,0.946-1.018,1.448-1.554c0.032-0.033,0.07-0.045,0.105-0.068
			c0.116-0.077,0.238-0.118,0.375-0.092c0.144,0.049,0.313,0.183,0.504,0.392c-0.123-1.008-0.018-1.936,0.671-2.672
			c0.005-0.117,0.037-0.233,0.112-0.347c0.08-0.131,0.149-0.267,0.227-0.399c1.146-1.957,2.11-4.038,2.883-6.247
			c0.175-0.584,0.335-1.133,0.486-1.665c0.135-0.475,0.257-0.928,0.372-1.364c0.096-0.361,0.187-0.714,0.267-1.045
			c0.057,0.007,0.1,0.013,0.153,0.02c0.071-0.64,0.114-1.275,0.138-1.893l-0.076-0.003c0.037-0.269,0.068-0.558,0.099-0.851
			c0.11-1.086,0.172-2.341,0.185-3.763C31.6,24.812,31.597,24.02,31.575,23.163z M25.732,40.584
			c-1.108,2.357-2.573,4.253-4.396,5.681c0.357-0.499,0.143-1.92-0.643-4.26c-0.786-2.342-1.18-3.94-1.18-4.799
			c1.357,0.824,2.448,2.198,3.27,4.127c0.358-2.714-0.856-4.697-3.646-5.949c-0.106-1.501-0.159-2.446-0.159-2.841
			c0-1.32,0.106-2.145,0.321-2.466c3.466,3.253,5.198,5.933,5.198,8.041c0.179,0,0.322-0.41,0.429-1.233
			c0.465-2.714-1.269-5.467-5.198-8.255c0.464-1.607,1.054-2.661,1.77-3.163c1.856,1.574,3.322,3.377,4.395,5.415
			c0.536,1.072,0.946,2.217,1.233,3.43l0.053-3.108c0-1.823-1.393-4.037-4.181-6.646c0.572-0.463,1.5-0.784,2.788-0.965
			c1.106-0.107,2.34,0.106,3.698,0.643C29.485,30.275,28.233,35.726,25.732,40.584z"/>
		<path fill="#A8DADC" d="M19.216,47.359l0.352-0.021c0.143-0.464,0.143-1,0-1.608l-0.197,0.012
			C19.496,46.311,19.436,46.858,19.216,47.359z"/>
		<path fill="#E63946" d="M31.173,16.904c0.004-0.182,0.003-0.365,0.028-0.548c0.045-0.256,0.144-0.446,0.278-0.595
			c0.182-0.203,0.441-0.317,0.793-0.317h0.215c1.739,0,3.262,0.155,4.615,0.432c0.021,0.004,0.039,0.01,0.06,0.014
			c2.204,0,3.939,0,5.872,0c-0.199-0.127-0.39-0.259-0.604-0.379c-0.104-0.055-0.189-0.117-0.296-0.173
			c0.965-0.035,1.77-0.161,2.412-0.376c3.607-1.25,7.307-4.449,11.096-9.595c-5.146,4.04-8.935,6.058-11.363,6.058
			c-2.108,0-4.235-0.965-6.379-2.894c-1.822-1.787-3.968-2.681-6.433-2.681c-3.965,0-5.969,1.573-6.004,4.717
			c-0.036,1.5,0.357,2.699,1.18,3.591c1.431,1.645,0.822,2.503-1.822,2.573c-1.25,0-2.52-0.16-3.806-0.482
			c1.679,1.788,4.217,2.68,7.611,2.68c0.018,0,0.026,0.007,0.04,0.007c0.333,0.011,0.561,0.147,0.704,0.386
			C30.475,19.119,30.711,17.845,31.173,16.904z M29.11,10.942c0.035-1.571,0.964-2.359,2.786-2.359s3.262,0.546,4.315,1.637
			c1.054,1.089,2.402,1.938,4.047,2.545c-3.038,0.466-6.164,0.502-9.381,0.107C29.698,12.73,29.11,12.087,29.11,10.942z"/>
	</g>
</g>
</svg>
