<?xml version="1.0" encoding="utf-8"?>
<!-- Generator: Adobe Illustrator 16.0.0, SVG Export Plug-In . SVG Version: 6.00 Build 0)  -->
<!DOCTYPE svg PUBLIC "-//W3C//DTD SVG 1.1//EN" "http://www.w3.org/Graphics/SVG/1.1/DTD/svg11.dtd">
<svg version="1.1" id="Layer_1" xmlns="http://www.w3.org/2000/svg" xmlns:xlink="http://www.w3.org/1999/xlink" x="0px" y="0px"
	 width="66.334px" height="88.5px" viewBox="0 0 66.334 88.5" enable-background="new 0 0 66.334 88.5" xml:space="preserve">
<g>
	<g>
		<path fill="#A8DADC" d="M33.168,4c1.93,0,3.654,0.225,5.172,0.671c1.52,0.446,2.277,1.044,2.277,1.795
			c0,0.823-0.893,1.467-2.68,1.93v12.65c1.787,0.536,2.68,1.179,2.68,1.93c0,0.823-0.893,1.466-2.68,1.93v12.596
			c1.787,0.536,2.68,1.199,2.68,1.984c0,0.823-0.768,1.43-2.305,1.822c-1.537,0.394-3.252,0.589-5.145,0.589
			c-1.895,0-3.609-0.195-5.148-0.589c-1.535-0.393-2.303-0.999-2.303-1.822c0-0.785,0.893-1.448,2.68-1.984V24.906
			c-1.787-0.464-2.68-1.106-2.68-1.93c0-0.751,0.893-1.394,2.68-1.93V8.396c-1.787-0.463-2.68-1.106-2.68-1.93
			c0-0.751,0.76-1.349,2.277-1.795C29.514,4.225,31.238,4,33.168,4z M33.168,46.775c1.93,0,3.654,0.223,5.172,0.672
			c1.52,0.445,2.277,1.044,2.277,1.794c0,0.823-0.893,1.467-2.68,1.93v12.65c1.787,0.536,2.68,1.18,2.68,1.93
			c0,0.823-0.893,1.467-2.68,1.93v12.597c1.787,0.536,2.68,1.198,2.68,1.983c0,0.823-0.768,1.431-2.305,1.822
			c-1.537,0.395-3.252,0.59-5.145,0.59c-1.895,0-3.609-0.195-5.148-0.59c-1.535-0.392-2.303-0.999-2.303-1.822
			c0-0.785,0.893-1.447,2.68-1.983V67.68c-1.787-0.463-2.68-1.106-2.68-1.93c0-0.75,0.893-1.394,2.68-1.93V51.17
			c-1.787-0.463-2.68-1.106-2.68-1.93c0-0.75,0.76-1.349,2.277-1.794C29.514,46.998,31.238,46.775,33.168,46.775z M33.168,20.457
			c0.678,0,1.213,0.02,1.607,0.055V7.11c0.57-0.071,1-0.142,1.287-0.215C36.74,6.717,37.08,6.593,37.08,6.52
			c0-0.07-0.375-0.195-1.125-0.375c-0.752-0.179-1.682-0.269-2.787-0.269c-1.109,0-2.037,0.09-2.789,0.269
			c-0.75,0.18-1.125,0.305-1.125,0.375c0,0.073,0.338,0.197,1.018,0.375c0.287,0.073,0.715,0.144,1.287,0.215v13.401
			C31.951,20.476,32.488,20.457,33.168,20.457z M33.168,23.565c1.105,0,2.035-0.079,2.787-0.239c0.75-0.161,1.125-0.277,1.125-0.35
			c0-0.071-0.375-0.196-1.125-0.375c-0.752-0.179-1.682-0.269-2.787-0.269c-1.109,0-2.037,0.09-2.789,0.269
			c-0.75,0.179-1.125,0.304-1.125,0.375c0,0.072,0.375,0.188,1.125,0.35C31.131,23.486,32.059,23.565,33.168,23.565z M33.168,39.967
			c1.105,0,2.035-0.079,2.787-0.24c0.75-0.161,1.125-0.275,1.125-0.35c0-0.07-0.34-0.194-1.018-0.374
			c-0.287-0.071-0.717-0.142-1.287-0.215v-13.4c-0.395,0.036-0.93,0.054-1.607,0.054c-0.68,0-1.217-0.018-1.609-0.054v13.4
			c-0.572,0.073-1,0.144-1.287,0.215c-0.68,0.18-1.018,0.304-1.018,0.374c0,0.074,0.375,0.188,1.125,0.35
			C31.131,39.888,32.059,39.967,33.168,39.967z M33.168,63.231c0.678,0,1.213,0.02,1.607,0.054V49.885
			c0.57-0.071,1-0.143,1.287-0.216c0.678-0.178,1.018-0.303,1.018-0.375c0-0.07-0.375-0.195-1.125-0.375
			c-0.752-0.178-1.682-0.268-2.787-0.268c-1.109,0-2.037,0.09-2.789,0.268c-0.75,0.18-1.125,0.305-1.125,0.375
			c0,0.072,0.338,0.197,1.018,0.375c0.287,0.073,0.715,0.145,1.287,0.216v13.399C31.951,63.25,32.488,63.231,33.168,63.231z
			 M33.168,66.34c1.105,0,2.035-0.08,2.787-0.24c0.75-0.161,1.125-0.276,1.125-0.35c0-0.07-0.375-0.194-1.125-0.375
			c-0.752-0.179-1.682-0.268-2.787-0.268c-1.109,0-2.037,0.089-2.789,0.268c-0.75,0.181-1.125,0.305-1.125,0.375
			c0,0.073,0.375,0.188,1.125,0.35C31.131,66.26,32.059,66.34,33.168,66.34z M33.168,82.743c1.105,0,2.035-0.079,2.787-0.24
			c0.75-0.16,1.125-0.276,1.125-0.35c0-0.071-0.34-0.195-1.018-0.375c-0.287-0.071-0.717-0.142-1.287-0.215v-13.4
			c-0.395,0.036-0.93,0.054-1.607,0.054c-0.68,0-1.217-0.018-1.609-0.054v13.4c-0.572,0.073-1,0.144-1.287,0.215
			c-0.68,0.18-1.018,0.304-1.018,0.375c0,0.073,0.375,0.189,1.125,0.35C31.131,82.664,32.059,82.743,33.168,82.743z"/>
	</g>
</g>
</svg>
