<?xml version="1.0" encoding="utf-8"?>
<!-- Generator: Adobe Illustrator 16.0.0, SVG Export Plug-In . SVG Version: 6.00 Build 0)  -->
<!DOCTYPE svg PUBLIC "-//W3C//DTD SVG 1.1//EN" "http://www.w3.org/Graphics/SVG/1.1/DTD/svg11.dtd">
<svg version="1.1" id="Layer_1" xmlns="http://www.w3.org/2000/svg" xmlns:xlink="http://www.w3.org/1999/xlink" x="0px" y="0px"
	 width="66.334px" height="88.5px" viewBox="0 0 66.334 88.5" enable-background="new 0 0 66.334 88.5" xml:space="preserve">
<g>
	<g>
		<path fill="#A8DADC" d="M18.158,4c1.93,0,3.654,0.224,5.174,0.67c1.518,0.446,2.277,1.044,2.277,1.795
			c0,0.823-0.893,1.467-2.682,1.93v12.65c1.789,0.536,2.682,1.179,2.682,1.93c0,0.823-0.893,1.467-2.682,1.93v12.597
			c1.789,0.536,2.682,1.199,2.682,1.983c0,0.824-0.77,1.431-2.307,1.823c-1.535,0.394-3.25,0.589-5.145,0.589
			s-3.609-0.195-5.146-0.589c-1.535-0.393-2.305-1-2.305-1.823c0-0.784,0.895-1.447,2.68-1.983V24.905
			c-1.785-0.463-2.68-1.106-2.68-1.93c0-0.751,0.895-1.394,2.68-1.93V8.396c-1.785-0.463-2.68-1.107-2.68-1.93
			c0-0.75,0.76-1.349,2.279-1.795C14.504,4.225,16.229,4,18.158,4z M18.158,46.775c1.93,0,3.654,0.224,5.174,0.671
			c1.518,0.445,2.277,1.044,2.277,1.794c0,0.823-0.893,1.466-2.682,1.93v12.65c1.789,0.536,2.682,1.18,2.682,1.93
			c0,0.823-0.893,1.467-2.682,1.93v12.597c1.789,0.536,2.682,1.199,2.682,1.984c0,0.823-0.77,1.43-2.307,1.822
			c-1.535,0.396-3.25,0.59-5.145,0.59s-3.609-0.194-5.146-0.59c-1.535-0.392-2.305-0.999-2.305-1.822
			c0-0.785,0.895-1.448,2.68-1.984V67.68c-1.785-0.462-2.68-1.106-2.68-1.93c0-0.75,0.895-1.394,2.68-1.93V51.17
			c-1.785-0.463-2.68-1.106-2.68-1.93c0-0.75,0.76-1.349,2.279-1.794C14.504,46.999,16.229,46.775,18.158,46.775z M18.158,20.456
			c0.68,0,1.215,0.02,1.607,0.054V7.109c0.572-0.071,1.002-0.141,1.287-0.214c0.678-0.178,1.02-0.302,1.02-0.375
			c0-0.071-0.377-0.195-1.127-0.375c-0.75-0.178-1.68-0.269-2.787-0.269c-1.109,0-2.037,0.09-2.787,0.269
			c-0.75,0.18-1.127,0.304-1.127,0.375c0,0.073,0.34,0.197,1.02,0.375c0.287,0.073,0.715,0.144,1.285,0.214V20.51
			C16.943,20.476,17.479,20.456,18.158,20.456z M18.158,23.565c1.107,0,2.037-0.08,2.787-0.241s1.127-0.276,1.127-0.349
			c0-0.07-0.377-0.195-1.127-0.375c-0.75-0.178-1.68-0.269-2.787-0.269c-1.109,0-2.037,0.091-2.787,0.269
			c-0.75,0.18-1.127,0.305-1.127,0.375c0,0.073,0.377,0.188,1.127,0.349S17.049,23.565,18.158,23.565z M18.158,39.967
			c1.107,0,2.037-0.079,2.787-0.24c0.75-0.161,1.127-0.277,1.127-0.35c0-0.071-0.342-0.195-1.02-0.375
			c-0.285-0.071-0.715-0.142-1.287-0.215V25.387c-0.393,0.037-0.928,0.054-1.607,0.054s-1.215-0.017-1.609-0.054v13.401
			c-0.57,0.073-0.998,0.144-1.285,0.215c-0.68,0.18-1.02,0.304-1.02,0.375c0,0.072,0.377,0.188,1.127,0.35
			C16.121,39.888,17.049,39.967,18.158,39.967z M18.158,63.231c0.68,0,1.215,0.019,1.607,0.054V49.884
			c0.572-0.071,1.002-0.142,1.287-0.214c0.678-0.178,1.02-0.302,1.02-0.375c0-0.071-0.377-0.195-1.127-0.375
			c-0.75-0.178-1.68-0.269-2.787-0.269c-1.109,0-2.037,0.09-2.787,0.269c-0.75,0.18-1.127,0.305-1.127,0.375
			c0,0.073,0.34,0.197,1.02,0.375c0.287,0.073,0.715,0.144,1.285,0.214v13.401C16.943,63.25,17.479,63.231,18.158,63.231z
			 M18.158,66.34c1.107,0,2.037-0.08,2.787-0.24s1.127-0.276,1.127-0.35c0-0.07-0.377-0.195-1.127-0.375
			c-0.75-0.178-1.68-0.268-2.787-0.268c-1.109,0-2.037,0.089-2.787,0.268c-0.75,0.18-1.127,0.305-1.127,0.375
			c0,0.073,0.377,0.189,1.127,0.35S17.049,66.34,18.158,66.34z M18.158,82.742c1.107,0,2.037-0.08,2.787-0.241
			c0.75-0.161,1.127-0.275,1.127-0.349c0-0.071-0.342-0.195-1.02-0.375c-0.285-0.07-0.715-0.141-1.287-0.214V68.163
			c-0.393,0.037-0.928,0.053-1.607,0.053s-1.215-0.017-1.609-0.053v13.401c-0.57,0.073-0.998,0.144-1.285,0.214
			c-0.68,0.18-1.02,0.305-1.02,0.375c0,0.073,0.377,0.188,1.127,0.349C16.121,82.663,17.049,82.742,18.158,82.742z M48.176,4
			c1.93,0,3.652,0.224,5.172,0.67c1.518,0.446,2.279,1.044,2.279,1.795c0,0.823-0.895,1.467-2.682,1.93v12.65
			c1.787,0.536,2.682,1.179,2.682,1.93c0,0.823-0.895,1.467-2.682,1.93v12.597c1.787,0.536,2.682,1.199,2.682,1.983
			c0,0.824-0.77,1.431-2.307,1.823c-1.535,0.394-3.25,0.589-5.145,0.589s-3.609-0.195-5.146-0.589c-1.535-0.393-2.305-1-2.305-1.823
			c0-0.784,0.893-1.447,2.68-1.983V24.905c-1.787-0.463-2.68-1.106-2.68-1.93c0-0.751,0.893-1.394,2.68-1.93V8.396
			c-1.787-0.463-2.68-1.107-2.68-1.93c0-0.75,0.76-1.349,2.279-1.795C44.521,4.225,46.246,4,48.176,4z M48.176,46.775
			c1.93,0,3.652,0.224,5.172,0.671c1.518,0.445,2.279,1.044,2.279,1.794c0,0.823-0.895,1.466-2.682,1.93v12.65
			c1.787,0.536,2.682,1.18,2.682,1.93c0,0.823-0.895,1.467-2.682,1.93v12.597c1.787,0.536,2.682,1.199,2.682,1.984
			c0,0.823-0.77,1.43-2.307,1.822c-1.535,0.396-3.25,0.59-5.145,0.59s-3.609-0.194-5.146-0.59c-1.535-0.392-2.305-0.999-2.305-1.822
			c0-0.785,0.893-1.448,2.68-1.984V67.68c-1.787-0.462-2.68-1.106-2.68-1.93c0-0.75,0.893-1.394,2.68-1.93V51.17
			c-1.787-0.463-2.68-1.106-2.68-1.93c0-0.75,0.76-1.349,2.279-1.794C44.521,46.999,46.246,46.775,48.176,46.775z M48.176,20.456
			c0.678,0,1.215,0.02,1.607,0.054V7.109c0.572-0.071,1-0.141,1.287-0.214c0.678-0.178,1.018-0.302,1.018-0.375
			c0-0.071-0.375-0.195-1.125-0.375c-0.75-0.178-1.68-0.269-2.787-0.269s-2.037,0.09-2.787,0.269
			c-0.752,0.18-1.125,0.304-1.125,0.375c0,0.073,0.34,0.197,1.018,0.375c0.285,0.073,0.715,0.144,1.285,0.214V20.51
			C46.959,20.476,47.496,20.456,48.176,20.456z M48.176,23.565c1.107,0,2.037-0.08,2.787-0.241s1.125-0.276,1.125-0.349
			c0-0.07-0.375-0.195-1.125-0.375c-0.75-0.178-1.68-0.269-2.787-0.269s-2.037,0.091-2.787,0.269
			c-0.752,0.18-1.125,0.305-1.125,0.375c0,0.073,0.373,0.188,1.125,0.349C46.139,23.485,47.068,23.565,48.176,23.565z
			 M48.176,39.967c1.107,0,2.037-0.079,2.787-0.24c0.75-0.161,1.125-0.277,1.125-0.35c0-0.071-0.34-0.195-1.018-0.375
			c-0.287-0.071-0.715-0.142-1.287-0.215V25.387c-0.393,0.037-0.93,0.054-1.607,0.054c-0.68,0-1.217-0.017-1.609-0.054v13.401
			c-0.57,0.073-1,0.144-1.285,0.215c-0.678,0.18-1.018,0.304-1.018,0.375c0,0.072,0.373,0.188,1.125,0.35
			C46.139,39.888,47.068,39.967,48.176,39.967z M48.176,63.231c0.678,0,1.215,0.019,1.607,0.054V49.884
			c0.572-0.071,1-0.142,1.287-0.214c0.678-0.178,1.018-0.302,1.018-0.375c0-0.071-0.375-0.195-1.125-0.375
			c-0.75-0.178-1.68-0.269-2.787-0.269s-2.037,0.09-2.787,0.269c-0.752,0.18-1.125,0.305-1.125,0.375
			c0,0.073,0.34,0.197,1.018,0.375c0.285,0.073,0.715,0.144,1.285,0.214v13.401C46.959,63.25,47.496,63.231,48.176,63.231z
			 M48.176,66.34c1.107,0,2.037-0.08,2.787-0.24s1.125-0.276,1.125-0.35c0-0.07-0.375-0.195-1.125-0.375
			c-0.75-0.178-1.68-0.268-2.787-0.268s-2.037,0.089-2.787,0.268c-0.752,0.18-1.125,0.305-1.125,0.375
			c0,0.073,0.373,0.189,1.125,0.35C46.139,66.26,47.068,66.34,48.176,66.34z M48.176,82.742c1.107,0,2.037-0.08,2.787-0.241
			c0.75-0.161,1.125-0.275,1.125-0.349c0-0.071-0.34-0.195-1.018-0.375c-0.287-0.07-0.715-0.141-1.287-0.214V68.163
			c-0.393,0.037-0.93,0.053-1.607,0.053c-0.68,0-1.217-0.017-1.609-0.053v13.401c-0.57,0.073-1,0.144-1.285,0.214
			c-0.678,0.18-1.018,0.305-1.018,0.375c0,0.073,0.373,0.188,1.125,0.349C46.139,82.663,47.068,82.742,48.176,82.742z"/>
	</g>
</g>
</svg>
