<?xml version="1.0" encoding="utf-8"?>
<!-- Generator: Adobe Illustrator 16.0.0, SVG Export Plug-In . SVG Version: 6.00 Build 0)  -->
<!DOCTYPE svg PUBLIC "-//W3C//DTD SVG 1.1//EN" "http://www.w3.org/Graphics/SVG/1.1/DTD/svg11.dtd">
<svg version="1.1" id="Layer_1" xmlns="http://www.w3.org/2000/svg" xmlns:xlink="http://www.w3.org/1999/xlink" x="0px" y="0px"
	 width="66.334px" height="88.5px" viewBox="0 0 66.334 88.5" enable-background="new 0 0 66.334 88.5" xml:space="preserve">
<g>
	<g>
		<path fill="#A8DADC" d="M21.322,6.466c0-0.751-0.76-1.349-2.279-1.795C17.524,4.226,15.8,4,13.871,4s-3.654,0.225-5.173,0.671
			c-1.52,0.446-2.278,1.044-2.278,1.795c0,0.823,0.894,1.466,2.681,1.93v12.65c-1.787,0.536-2.681,1.179-2.681,1.93
			c0,0.823,0.894,1.467,2.681,1.93v12.597c-1.787,0.536-2.681,1.198-2.681,1.983c0,0.823,0.769,1.43,2.305,1.823
			c1.537,0.395,3.252,0.59,5.146,0.59c1.894,0,3.608-0.195,5.146-0.59c1.536-0.393,2.306-1,2.306-1.823
			c0-0.785-0.895-1.447-2.681-1.983V24.905c1.786-0.463,2.681-1.106,2.681-1.93c0-0.75-0.895-1.394-2.681-1.93V8.396
			C20.427,7.933,21.322,7.29,21.322,6.466z M16.658,39.728c-0.751,0.161-1.68,0.24-2.787,0.24s-2.037-0.079-2.787-0.24
			c-0.751-0.161-1.126-0.277-1.126-0.35c0-0.071,0.339-0.195,1.019-0.375c0.286-0.07,0.714-0.141,1.286-0.214V25.387
			c0.394,0.037,0.93,0.054,1.608,0.054s1.214-0.017,1.608-0.054v13.401c0.571,0.073,1,0.144,1.286,0.214
			c0.679,0.181,1.019,0.305,1.019,0.375C17.784,39.451,17.408,39.567,16.658,39.728z M16.658,23.325
			c-0.751,0.161-1.68,0.241-2.787,0.241s-2.037-0.08-2.787-0.241c-0.751-0.161-1.126-0.276-1.126-0.349
			c0-0.071,0.375-0.195,1.126-0.375c0.75-0.178,1.68-0.268,2.787-0.268s2.036,0.09,2.787,0.268c0.75,0.181,1.126,0.305,1.126,0.375
			C17.784,23.048,17.408,23.164,16.658,23.325z M16.765,6.895c-0.286,0.073-0.715,0.144-1.286,0.214V20.51
			c-0.395-0.034-0.93-0.054-1.608-0.054s-1.215,0.02-1.608,0.054V7.109c-0.572-0.07-1-0.141-1.286-0.214
			c-0.68-0.177-1.019-0.302-1.019-0.375c0-0.071,0.375-0.195,1.126-0.375c0.75-0.178,1.68-0.268,2.787-0.268s2.036,0.09,2.787,0.268
			c0.75,0.18,1.126,0.304,1.126,0.375C17.784,6.592,17.444,6.717,16.765,6.895z"/>
		<path fill="#A8DADC" d="M21.322,49.241c0-0.75-0.76-1.349-2.279-1.794C17.524,47,15.8,46.775,13.871,46.775
			S10.216,47,8.698,47.446c-1.52,0.446-2.278,1.044-2.278,1.794c0,0.823,0.894,1.466,2.681,1.93v12.65
			C7.313,64.357,6.419,65,6.419,65.75c0,0.823,0.894,1.467,2.681,1.93v12.596c-1.787,0.536-2.681,1.199-2.681,1.984
			c0,0.823,0.769,1.43,2.305,1.822c1.537,0.394,3.252,0.589,5.146,0.589c1.894,0,3.608-0.195,5.146-0.589
			c1.536-0.393,2.306-0.999,2.306-1.822c0-0.785-0.895-1.448-2.681-1.984V67.68c1.786-0.463,2.681-1.106,2.681-1.93
			c0-0.75-0.895-1.394-2.681-1.93V51.17C20.427,50.707,21.322,50.064,21.322,49.241z M16.658,82.502
			c-0.751,0.161-1.68,0.24-2.787,0.24s-2.037-0.08-2.787-0.24c-0.751-0.161-1.126-0.276-1.126-0.349
			c0-0.071,0.339-0.195,1.019-0.375c0.286-0.071,0.714-0.141,1.286-0.214V68.163c0.394,0.037,0.93,0.054,1.608,0.054
			s1.214-0.017,1.608-0.054v13.401c0.571,0.073,1,0.143,1.286,0.214c0.679,0.18,1.019,0.304,1.019,0.375
			C17.784,82.226,17.408,82.341,16.658,82.502z M16.658,66.1c-0.751,0.161-1.68,0.24-2.787,0.24s-2.037-0.08-2.787-0.24
			c-0.751-0.16-1.126-0.276-1.126-0.349c0-0.071,0.375-0.195,1.126-0.375c0.75-0.178,1.68-0.268,2.787-0.268s2.036,0.09,2.787,0.268
			c0.75,0.18,1.126,0.305,1.126,0.375C17.784,65.824,17.408,65.939,16.658,66.1z M16.765,49.67
			c-0.286,0.073-0.715,0.143-1.286,0.214v13.401c-0.395-0.035-0.93-0.054-1.608-0.054s-1.215,0.019-1.608,0.054V49.884
			c-0.572-0.071-1-0.141-1.286-0.214c-0.68-0.178-1.019-0.302-1.019-0.375c0-0.07,0.375-0.195,1.126-0.375
			c0.75-0.178,1.68-0.269,2.787-0.269s2.036,0.09,2.787,0.269c0.75,0.18,1.126,0.305,1.126,0.375
			C17.784,49.368,17.444,49.492,16.765,49.67z"/>
		<path fill="#E63946" d="M40.618,27.854c0-0.75-0.76-1.349-2.277-1.794c-1.52-0.446-3.243-0.672-5.173-0.672
			s-3.654,0.226-5.173,0.672s-2.277,1.044-2.277,1.794c0,0.824,0.893,1.466,2.68,1.93v12.65c-1.787,0.536-2.68,1.179-2.68,1.929
			c0,0.824,0.893,1.467,2.68,1.93v12.596c-1.787,0.537-2.68,1.199-2.68,1.984c0,0.823,0.768,1.43,2.304,1.823
			c1.537,0.394,3.252,0.59,5.146,0.59c1.894,0,3.609-0.196,5.146-0.59c1.537-0.393,2.305-1,2.305-1.823
			c0-0.785-0.894-1.447-2.68-1.984V46.293c1.786-0.463,2.68-1.106,2.68-1.93c0-0.75-0.894-1.393-2.68-1.929v-12.65
			C39.724,29.32,40.618,28.677,40.618,27.854z M35.955,61.115c-0.75,0.161-1.68,0.24-2.787,0.24c-1.108,0-2.037-0.079-2.787-0.24
			s-1.126-0.277-1.126-0.35c0-0.071,0.339-0.196,1.019-0.375c0.285-0.072,0.715-0.142,1.286-0.215V46.775
			c0.393,0.037,0.93,0.054,1.608,0.054s1.214-0.018,1.607-0.054v13.401c0.571,0.073,1,0.143,1.286,0.215
			c0.68,0.179,1.02,0.304,1.02,0.375C37.081,60.838,36.705,60.955,35.955,61.115z M35.955,44.712c-0.75,0.161-1.68,0.24-2.787,0.24
			c-1.108,0-2.037-0.079-2.787-0.24c-0.75-0.161-1.126-0.276-1.126-0.35c0-0.07,0.376-0.195,1.126-0.375
			c0.75-0.178,1.679-0.269,2.787-0.269c1.107,0,2.037,0.09,2.787,0.269c0.75,0.18,1.126,0.305,1.126,0.375
			C37.081,44.437,36.705,44.552,35.955,44.712z M36.061,28.282c-0.286,0.073-0.715,0.144-1.286,0.214v13.401
			c-0.394-0.035-0.929-0.054-1.607-0.054s-1.216,0.02-1.608,0.054V28.497c-0.571-0.071-1.001-0.142-1.286-0.214
			c-0.68-0.178-1.019-0.303-1.019-0.375c0-0.07,0.376-0.195,1.126-0.375c0.75-0.178,1.679-0.268,2.787-0.268
			c1.107,0,2.037,0.09,2.787,0.268c0.75,0.18,1.126,0.304,1.126,0.375C37.081,27.979,36.741,28.104,36.061,28.282z"/>
		<path fill="#A8DADC" d="M59.915,22.976c0-0.75-0.893-1.394-2.68-1.93V8.396c1.787-0.463,2.68-1.106,2.68-1.93
			c0-0.751-0.759-1.349-2.277-1.795C56.118,4.226,54.393,4,52.464,4c-1.93,0-3.654,0.225-5.173,0.671s-2.278,1.044-2.278,1.795
			c0,0.823,0.893,1.466,2.681,1.93v12.65c-1.788,0.536-2.681,1.179-2.681,1.93c0,0.823,0.893,1.467,2.681,1.93v12.597
			c-1.788,0.536-2.681,1.198-2.681,1.983c0,0.823,0.769,1.43,2.306,1.823c1.536,0.395,3.251,0.59,5.146,0.59
			c1.894,0,3.608-0.195,5.146-0.59c1.536-0.393,2.305-1,2.305-1.823c0-0.785-0.893-1.447-2.68-1.983V24.905
			C59.022,24.442,59.915,23.799,59.915,22.976z M55.251,39.728c-0.75,0.161-1.68,0.24-2.787,0.24c-1.108,0-2.037-0.079-2.787-0.24
			c-0.751-0.161-1.126-0.277-1.126-0.35c0-0.071,0.339-0.195,1.019-0.375c0.285-0.07,0.714-0.141,1.286-0.214V25.387
			c0.394,0.037,0.929,0.054,1.608,0.054c0.679,0,1.214-0.017,1.607-0.054v13.401c0.572,0.073,1.001,0.144,1.287,0.214
			c0.679,0.181,1.019,0.305,1.019,0.375C56.377,39.451,56.001,39.567,55.251,39.728z M55.251,23.325
			c-0.75,0.161-1.68,0.241-2.787,0.241c-1.108,0-2.037-0.08-2.787-0.241c-0.751-0.161-1.126-0.276-1.126-0.349
			c0-0.071,0.375-0.195,1.126-0.375c0.75-0.178,1.679-0.268,2.787-0.268c1.107,0,2.037,0.09,2.787,0.268
			c0.75,0.181,1.126,0.305,1.126,0.375C56.377,23.048,56.001,23.164,55.251,23.325z M55.359,6.895
			c-0.286,0.073-0.715,0.144-1.287,0.214V20.51c-0.394-0.034-0.929-0.054-1.607-0.054c-0.68,0-1.215,0.02-1.608,0.054V7.109
			c-0.572-0.07-1.001-0.141-1.286-0.214c-0.68-0.177-1.019-0.302-1.019-0.375c0-0.071,0.375-0.195,1.126-0.375
			c0.75-0.178,1.679-0.268,2.787-0.268c1.107,0,2.037,0.09,2.787,0.268c0.75,0.18,1.126,0.304,1.126,0.375
			C56.377,6.592,56.038,6.717,55.359,6.895z"/>
		<path fill="#A8DADC" d="M59.915,49.241c0-0.75-0.759-1.349-2.277-1.794c-1.52-0.446-3.244-0.671-5.173-0.671
			c-1.93,0-3.654,0.226-5.173,0.671s-2.278,1.044-2.278,1.794c0,0.823,0.893,1.466,2.681,1.93v12.65
			c-1.788,0.536-2.681,1.179-2.681,1.93c0,0.823,0.893,1.467,2.681,1.93v12.596c-1.788,0.536-2.681,1.199-2.681,1.984
			c0,0.823,0.769,1.43,2.306,1.822c1.536,0.394,3.251,0.589,5.146,0.589c1.894,0,3.608-0.195,5.146-0.589
			c1.536-0.393,2.305-0.999,2.305-1.822c0-0.785-0.893-1.448-2.68-1.984V67.68c1.787-0.463,2.68-1.106,2.68-1.93
			c0-0.75-0.893-1.394-2.68-1.93V51.17C59.022,50.707,59.915,50.064,59.915,49.241z M55.251,82.502
			c-0.75,0.161-1.68,0.24-2.787,0.24c-1.108,0-2.037-0.08-2.787-0.24c-0.751-0.161-1.126-0.276-1.126-0.349
			c0-0.071,0.339-0.195,1.019-0.375c0.285-0.071,0.714-0.141,1.286-0.214V68.163c0.394,0.037,0.929,0.054,1.608,0.054
			c0.679,0,1.214-0.017,1.607-0.054v13.401c0.572,0.073,1.001,0.143,1.287,0.214c0.679,0.18,1.019,0.304,1.019,0.375
			C56.377,82.226,56.001,82.341,55.251,82.502z M55.251,66.1c-0.75,0.161-1.68,0.24-2.787,0.24c-1.108,0-2.037-0.08-2.787-0.24
			c-0.751-0.16-1.126-0.276-1.126-0.349c0-0.071,0.375-0.195,1.126-0.375c0.75-0.178,1.679-0.268,2.787-0.268
			c1.107,0,2.037,0.09,2.787,0.268c0.75,0.18,1.126,0.305,1.126,0.375C56.377,65.824,56.001,65.939,55.251,66.1z M55.359,49.67
			c-0.286,0.073-0.715,0.143-1.287,0.214v13.401c-0.394-0.035-0.929-0.054-1.607-0.054c-0.68,0-1.215,0.019-1.608,0.054V49.884
			c-0.572-0.071-1.001-0.141-1.286-0.214c-0.68-0.178-1.019-0.302-1.019-0.375c0-0.07,0.375-0.195,1.126-0.375
			c0.75-0.178,1.679-0.269,2.787-0.269c1.107,0,2.037,0.09,2.787,0.269c0.75,0.18,1.126,0.305,1.126,0.375
			C56.377,49.368,56.038,49.492,55.359,49.67z"/>
	</g>
</g>
</svg>
