<?xml version="1.0" encoding="utf-8"?>
<!-- Generator: Adobe Illustrator 16.0.0, SVG Export Plug-In . SVG Version: 6.00 Build 0)  -->
<!DOCTYPE svg PUBLIC "-//W3C//DTD SVG 1.1//EN" "http://www.w3.org/Graphics/SVG/1.1/DTD/svg11.dtd">
<svg version="1.1" id="Layer_1" xmlns="http://www.w3.org/2000/svg" xmlns:xlink="http://www.w3.org/1999/xlink" x="0px" y="0px"
	 width="66.334px" height="88.5px" viewBox="0 0 66.334 88.5" enable-background="new 0 0 66.334 88.5" xml:space="preserve">
<g>
	<g>
		<path fill="#A8DADC" d="M15.504,8.027c1.758,0,3.328,0.205,4.712,0.611c1.383,0.406,2.075,0.951,2.075,1.635
			c0,0.75-0.814,1.336-2.441,1.758v11.523c1.627,0.488,2.441,1.074,2.441,1.758c0,0.75-0.814,1.336-2.441,1.758v11.475
			c1.627,0.488,2.441,1.092,2.441,1.807c0,0.75-0.7,1.303-2.1,1.66c-1.4,0.359-2.962,0.537-4.688,0.537
			c-1.726,0-3.288-0.178-4.688-0.537c-1.4-0.357-2.1-0.91-2.1-1.66c0-0.715,0.813-1.318,2.441-1.807V27.07
			c-1.628-0.422-2.441-1.008-2.441-1.758c0-0.684,0.813-1.27,2.441-1.758V12.031c-1.628-0.422-2.441-1.008-2.441-1.758
			c0-0.684,0.691-1.229,2.075-1.635C12.175,8.232,13.746,8.027,15.504,8.027z M15.504,46.992c1.758,0,3.328,0.205,4.712,0.611
			c1.383,0.406,2.075,0.951,2.075,1.635c0,0.75-0.814,1.336-2.441,1.758v11.523c1.627,0.488,2.441,1.074,2.441,1.758
			c0,0.75-0.814,1.336-2.441,1.758v11.475c1.627,0.488,2.441,1.092,2.441,1.807c0,0.75-0.7,1.303-2.1,1.66
			c-1.4,0.359-2.962,0.537-4.688,0.537c-1.726,0-3.288-0.178-4.688-0.537c-1.4-0.357-2.1-0.91-2.1-1.66
			c0-0.715,0.813-1.318,2.441-1.807V66.035c-1.628-0.422-2.441-1.008-2.441-1.758c0-0.684,0.813-1.27,2.441-1.758V50.996
			c-1.628-0.422-2.441-1.008-2.441-1.758c0-0.684,0.691-1.229,2.075-1.635C12.175,47.197,13.746,46.992,15.504,46.992z
			 M15.504,23.017c0.618,0,1.106,0.018,1.465,0.049V10.859c0.521-0.064,0.911-0.129,1.172-0.195
			c0.618-0.162,0.928-0.275,0.928-0.342c0-0.064-0.342-0.178-1.025-0.342c-0.684-0.162-1.53-0.244-2.539-0.244
			c-1.009,0-1.855,0.082-2.539,0.244c-0.684,0.164-1.025,0.277-1.025,0.342c0,0.066,0.309,0.18,0.928,0.342
			c0.26,0.066,0.651,0.131,1.172,0.195v12.207C14.397,23.035,14.885,23.017,15.504,23.017z M15.504,25.849
			c1.009,0,1.855-0.072,2.539-0.219s1.025-0.252,1.025-0.318c0-0.064-0.342-0.178-1.025-0.342c-0.684-0.162-1.53-0.244-2.539-0.244
			c-1.009,0-1.855,0.082-2.539,0.244c-0.684,0.164-1.025,0.277-1.025,0.342c0,0.066,0.342,0.172,1.025,0.318
			S14.495,25.849,15.504,25.849z M15.504,40.791c1.009,0,1.855-0.072,2.539-0.219s1.025-0.252,1.025-0.318
			c0-0.064-0.31-0.178-0.928-0.342c-0.261-0.064-0.651-0.129-1.172-0.195V27.509c-0.358,0.033-0.847,0.049-1.465,0.049
			c-0.619,0-1.107-0.016-1.465-0.049v12.207c-0.521,0.066-0.912,0.131-1.172,0.195c-0.619,0.164-0.928,0.277-0.928,0.342
			c0,0.066,0.342,0.172,1.025,0.318S14.495,40.791,15.504,40.791z M15.504,61.982c0.618,0,1.106,0.018,1.465,0.049V49.824
			c0.521-0.064,0.911-0.129,1.172-0.195c0.618-0.162,0.928-0.275,0.928-0.342c0-0.064-0.342-0.178-1.025-0.342
			c-0.684-0.162-1.53-0.244-2.539-0.244c-1.009,0-1.855,0.082-2.539,0.244c-0.684,0.164-1.025,0.277-1.025,0.342
			c0,0.066,0.309,0.18,0.928,0.342c0.26,0.066,0.651,0.131,1.172,0.195v12.207C14.397,62,14.885,61.982,15.504,61.982z
			 M15.504,64.814c1.009,0,1.855-0.072,2.539-0.219s1.025-0.252,1.025-0.318c0-0.064-0.342-0.178-1.025-0.342
			c-0.684-0.162-1.53-0.244-2.539-0.244c-1.009,0-1.855,0.082-2.539,0.244c-0.684,0.164-1.025,0.277-1.025,0.342
			c0,0.066,0.342,0.172,1.025,0.318S14.495,64.814,15.504,64.814z M15.504,79.755c1.009,0,1.855-0.072,2.539-0.219
			s1.025-0.252,1.025-0.318c0-0.064-0.31-0.178-0.928-0.342c-0.261-0.064-0.651-0.129-1.172-0.195V66.474
			c-0.358,0.033-0.847,0.049-1.465,0.049c-0.619,0-1.107-0.016-1.465-0.049v12.207c-0.521,0.066-0.912,0.131-1.172,0.195
			c-0.619,0.164-0.928,0.277-0.928,0.342c0,0.066,0.342,0.172,1.025,0.318S14.495,79.755,15.504,79.755z M33.082,8.027
			c1.758,0,3.328,0.205,4.712,0.611c1.383,0.406,2.075,0.951,2.075,1.635c0,0.75-0.814,1.336-2.441,1.758v11.523
			c1.627,0.488,2.441,1.074,2.441,1.758c0,0.75-0.814,1.336-2.441,1.758v11.475c1.627,0.488,2.441,1.092,2.441,1.807
			c0,0.75-0.7,1.303-2.1,1.66c-1.4,0.359-2.962,0.537-4.688,0.537c-1.726,0-3.288-0.178-4.688-0.537c-1.4-0.357-2.1-0.91-2.1-1.66
			c0-0.715,0.813-1.318,2.441-1.807V27.07c-1.628-0.422-2.441-1.008-2.441-1.758c0-0.684,0.813-1.27,2.441-1.758V12.031
			c-1.628-0.422-2.441-1.008-2.441-1.758c0-0.684,0.691-1.229,2.075-1.635C29.753,8.232,31.324,8.027,33.082,8.027z M33.082,46.992
			c1.758,0,3.328,0.205,4.712,0.611c1.383,0.406,2.075,0.951,2.075,1.635c0,0.75-0.814,1.336-2.441,1.758v11.523
			c1.627,0.488,2.441,1.074,2.441,1.758c0,0.75-0.814,1.336-2.441,1.758v11.475c1.627,0.488,2.441,1.092,2.441,1.807
			c0,0.75-0.7,1.303-2.1,1.66c-1.4,0.359-2.962,0.537-4.688,0.537c-1.726,0-3.288-0.178-4.688-0.537c-1.4-0.357-2.1-0.91-2.1-1.66
			c0-0.715,0.813-1.318,2.441-1.807V66.035c-1.628-0.422-2.441-1.008-2.441-1.758c0-0.684,0.813-1.27,2.441-1.758V50.996
			c-1.628-0.422-2.441-1.008-2.441-1.758c0-0.684,0.691-1.229,2.075-1.635C29.753,47.197,31.324,46.992,33.082,46.992z
			 M33.082,23.017c0.618,0,1.106,0.018,1.465,0.049V10.859c0.521-0.064,0.911-0.129,1.172-0.195
			c0.618-0.162,0.928-0.275,0.928-0.342c0-0.064-0.342-0.178-1.025-0.342c-0.684-0.162-1.53-0.244-2.539-0.244
			c-1.009,0-1.855,0.082-2.539,0.244c-0.684,0.164-1.025,0.277-1.025,0.342c0,0.066,0.309,0.18,0.928,0.342
			c0.26,0.066,0.651,0.131,1.172,0.195v12.207C31.975,23.035,32.463,23.017,33.082,23.017z M33.082,25.849
			c1.009,0,1.855-0.072,2.539-0.219s1.025-0.252,1.025-0.318c0-0.064-0.342-0.178-1.025-0.342c-0.684-0.162-1.53-0.244-2.539-0.244
			c-1.009,0-1.855,0.082-2.539,0.244c-0.684,0.164-1.025,0.277-1.025,0.342c0,0.066,0.342,0.172,1.025,0.318
			S32.073,25.849,33.082,25.849z M33.082,40.791c1.009,0,1.855-0.072,2.539-0.219s1.025-0.252,1.025-0.318
			c0-0.064-0.31-0.178-0.928-0.342c-0.261-0.064-0.651-0.129-1.172-0.195V27.509c-0.358,0.033-0.847,0.049-1.465,0.049
			c-0.619,0-1.107-0.016-1.465-0.049v12.207c-0.521,0.066-0.912,0.131-1.172,0.195c-0.619,0.164-0.928,0.277-0.928,0.342
			c0,0.066,0.342,0.172,1.025,0.318S32.073,40.791,33.082,40.791z M33.082,61.982c0.618,0,1.106,0.018,1.465,0.049V49.824
			c0.521-0.064,0.911-0.129,1.172-0.195c0.618-0.162,0.928-0.275,0.928-0.342c0-0.064-0.342-0.178-1.025-0.342
			c-0.684-0.162-1.53-0.244-2.539-0.244c-1.009,0-1.855,0.082-2.539,0.244c-0.684,0.164-1.025,0.277-1.025,0.342
			c0,0.066,0.309,0.18,0.928,0.342c0.26,0.066,0.651,0.131,1.172,0.195v12.207C31.975,62,32.463,61.982,33.082,61.982z
			 M33.082,64.814c1.009,0,1.855-0.072,2.539-0.219s1.025-0.252,1.025-0.318c0-0.064-0.342-0.178-1.025-0.342
			c-0.684-0.162-1.53-0.244-2.539-0.244c-1.009,0-1.855,0.082-2.539,0.244c-0.684,0.164-1.025,0.277-1.025,0.342
			c0,0.066,0.342,0.172,1.025,0.318S32.073,64.814,33.082,64.814z M33.082,79.755c1.009,0,1.855-0.072,2.539-0.219
			s1.025-0.252,1.025-0.318c0-0.064-0.31-0.178-0.928-0.342c-0.261-0.064-0.651-0.129-1.172-0.195V66.474
			c-0.358,0.033-0.847,0.049-1.465,0.049c-0.619,0-1.107-0.016-1.465-0.049v12.207c-0.521,0.066-0.912,0.131-1.172,0.195
			c-0.619,0.164-0.928,0.277-0.928,0.342c0,0.066,0.342,0.172,1.025,0.318S32.073,79.755,33.082,79.755z M50.66,8.027
			c1.758,0,3.328,0.205,4.712,0.611c1.383,0.406,2.075,0.951,2.075,1.635c0,0.75-0.814,1.336-2.441,1.758v11.523
			c1.627,0.488,2.441,1.074,2.441,1.758c0,0.75-0.814,1.336-2.441,1.758v11.475c1.627,0.488,2.441,1.092,2.441,1.807
			c0,0.75-0.7,1.303-2.1,1.66c-1.4,0.359-2.962,0.537-4.688,0.537c-1.726,0-3.288-0.178-4.688-0.537c-1.4-0.357-2.1-0.91-2.1-1.66
			c0-0.715,0.813-1.318,2.441-1.807V27.07c-1.628-0.422-2.441-1.008-2.441-1.758c0-0.684,0.813-1.27,2.441-1.758V12.031
			c-1.628-0.422-2.441-1.008-2.441-1.758c0-0.684,0.691-1.229,2.075-1.635C47.332,8.232,48.902,8.027,50.66,8.027z M50.66,46.992
			c1.758,0,3.328,0.205,4.712,0.611c1.383,0.406,2.075,0.951,2.075,1.635c0,0.75-0.814,1.336-2.441,1.758v11.523
			c1.627,0.488,2.441,1.074,2.441,1.758c0,0.75-0.814,1.336-2.441,1.758v11.475c1.627,0.488,2.441,1.092,2.441,1.807
			c0,0.75-0.7,1.303-2.1,1.66c-1.4,0.359-2.962,0.537-4.688,0.537c-1.726,0-3.288-0.178-4.688-0.537c-1.4-0.357-2.1-0.91-2.1-1.66
			c0-0.715,0.813-1.318,2.441-1.807V66.035c-1.628-0.422-2.441-1.008-2.441-1.758c0-0.684,0.813-1.27,2.441-1.758V50.996
			c-1.628-0.422-2.441-1.008-2.441-1.758c0-0.684,0.691-1.229,2.075-1.635C47.332,47.197,48.902,46.992,50.66,46.992z M50.66,23.017
			c0.618,0,1.106,0.018,1.465,0.049V10.859c0.521-0.064,0.911-0.129,1.172-0.195c0.618-0.162,0.928-0.275,0.928-0.342
			c0-0.064-0.342-0.178-1.025-0.342c-0.684-0.162-1.53-0.244-2.539-0.244c-1.009,0-1.855,0.082-2.539,0.244
			c-0.684,0.164-1.025,0.277-1.025,0.342c0,0.066,0.309,0.18,0.928,0.342c0.26,0.066,0.651,0.131,1.172,0.195v12.207
			C49.553,23.035,50.042,23.017,50.66,23.017z M50.66,25.849c1.009,0,1.855-0.072,2.539-0.219s1.025-0.252,1.025-0.318
			c0-0.064-0.342-0.178-1.025-0.342c-0.684-0.162-1.53-0.244-2.539-0.244c-1.009,0-1.855,0.082-2.539,0.244
			c-0.684,0.164-1.025,0.277-1.025,0.342c0,0.066,0.342,0.172,1.025,0.318S49.651,25.849,50.66,25.849z M50.66,40.791
			c1.009,0,1.855-0.072,2.539-0.219s1.025-0.252,1.025-0.318c0-0.064-0.31-0.178-0.928-0.342c-0.261-0.064-0.651-0.129-1.172-0.195
			V27.509c-0.358,0.033-0.847,0.049-1.465,0.049c-0.619,0-1.107-0.016-1.465-0.049v12.207c-0.521,0.066-0.912,0.131-1.172,0.195
			c-0.619,0.164-0.928,0.277-0.928,0.342c0,0.066,0.342,0.172,1.025,0.318S49.651,40.791,50.66,40.791z M50.66,61.982
			c0.618,0,1.106,0.018,1.465,0.049V49.824c0.521-0.064,0.911-0.129,1.172-0.195c0.618-0.162,0.928-0.275,0.928-0.342
			c0-0.064-0.342-0.178-1.025-0.342c-0.684-0.162-1.53-0.244-2.539-0.244c-1.009,0-1.855,0.082-2.539,0.244
			c-0.684,0.164-1.025,0.277-1.025,0.342c0,0.066,0.309,0.18,0.928,0.342c0.26,0.066,0.651,0.131,1.172,0.195v12.207
			C49.553,62,50.042,61.982,50.66,61.982z M50.66,64.814c1.009,0,1.855-0.072,2.539-0.219s1.025-0.252,1.025-0.318
			c0-0.064-0.342-0.178-1.025-0.342c-0.684-0.162-1.53-0.244-2.539-0.244c-1.009,0-1.855,0.082-2.539,0.244
			c-0.684,0.164-1.025,0.277-1.025,0.342c0,0.066,0.342,0.172,1.025,0.318S49.651,64.814,50.66,64.814z M50.66,79.755
			c1.009,0,1.855-0.072,2.539-0.219s1.025-0.252,1.025-0.318c0-0.064-0.31-0.178-0.928-0.342c-0.261-0.064-0.651-0.129-1.172-0.195
			V66.474c-0.358,0.033-0.847,0.049-1.465,0.049c-0.619,0-1.107-0.016-1.465-0.049v12.207c-0.521,0.066-0.912,0.131-1.172,0.195
			c-0.619,0.164-0.928,0.277-0.928,0.342c0,0.066,0.342,0.172,1.025,0.318S49.651,79.755,50.66,79.755z"/>
	</g>
</g>
</svg>
