<?xml version="1.0" encoding="utf-8"?>
<!-- Generator: Adobe Illustrator 16.0.0, SVG Export Plug-In . SVG Version: 6.00 Build 0)  -->
<!DOCTYPE svg PUBLIC "-//W3C//DTD SVG 1.1//EN" "http://www.w3.org/Graphics/SVG/1.1/DTD/svg11.dtd">
<svg version="1.1" id="Layer_1" xmlns="http://www.w3.org/2000/svg" xmlns:xlink="http://www.w3.org/1999/xlink" x="0px" y="0px"
	 width="66.334px" height="88.5px" viewBox="0 0 66.334 88.5" enable-background="new 0 0 66.334 88.5" xml:space="preserve">
<g>
	<path fill="#A8DADC" d="M22.291,61.135c0-0.684-0.692-1.229-2.076-1.635c-1.383-0.408-2.953-0.611-4.711-0.611
		s-3.329,0.203-4.713,0.611c-1.383,0.406-2.074,0.951-2.074,1.635c0,0.75,0.812,1.336,2.441,1.758v5.176
		c-1.629,0.488-2.441,1.074-2.441,1.758c0,0.75,0.812,1.336,2.441,1.758v5.127c-1.629,0.488-2.441,1.092-2.441,1.807
		c0,0.75,0.699,1.303,2.1,1.66c1.398,0.359,2.961,0.537,4.688,0.537c1.725,0,3.287-0.178,4.688-0.537c1.398-0.357,2.1-0.91,2.1-1.66
		c0-0.715-0.814-1.318-2.441-1.807v-5.127c1.627-0.422,2.441-1.008,2.441-1.758c0-0.684-0.814-1.27-2.441-1.758v-5.176
		C21.477,62.471,22.291,61.885,22.291,61.135z M18.043,78.738c-0.684,0.146-1.531,0.219-2.539,0.219
		c-1.01,0-1.855-0.072-2.539-0.219s-1.025-0.252-1.025-0.318c0-0.064,0.309-0.178,0.928-0.342c0.26-0.064,0.65-0.129,1.172-0.195
		v-5.859c0.357,0.033,0.846,0.049,1.465,0.049c0.617,0,1.105-0.016,1.465-0.049v5.859c0.52,0.066,0.91,0.131,1.172,0.195
		c0.617,0.164,0.928,0.277,0.928,0.342C19.068,78.486,18.727,78.592,18.043,78.738z M18.043,70.145
		c-0.684,0.146-1.531,0.219-2.539,0.219c-1.01,0-1.855-0.072-2.539-0.219s-1.025-0.252-1.025-0.318c0-0.064,0.342-0.178,1.025-0.342
		c0.684-0.162,1.529-0.244,2.539-0.244c1.008,0,1.855,0.082,2.539,0.244c0.684,0.164,1.025,0.277,1.025,0.342
		C19.068,69.893,18.727,69.998,18.043,70.145z M18.141,61.525c-0.262,0.066-0.652,0.131-1.172,0.195v5.859
		c-0.359-0.031-0.848-0.049-1.465-0.049c-0.619,0-1.107,0.018-1.465,0.049v-5.859c-0.521-0.064-0.912-0.129-1.172-0.195
		c-0.619-0.162-0.928-0.275-0.928-0.342c0-0.064,0.342-0.178,1.025-0.342c0.684-0.162,1.529-0.244,2.539-0.244
		c1.008,0,1.855,0.082,2.539,0.244c0.684,0.164,1.025,0.277,1.025,0.342C19.068,61.25,18.758,61.363,18.141,61.525z"/>
	<path fill="#A8DADC" d="M57.447,43.996c0-0.684-0.814-1.27-2.441-1.758v-5.176c1.627-0.422,2.441-1.008,2.441-1.758
		c0-0.684-0.692-1.229-2.076-1.635c-1.383-0.408-2.953-0.611-4.711-0.611s-3.329,0.203-4.713,0.611
		c-1.383,0.406-2.074,0.951-2.074,1.635c0,0.75,0.812,1.336,2.441,1.758v5.176c-1.629,0.488-2.441,1.074-2.441,1.758
		c0,0.75,0.812,1.336,2.441,1.758v5.127c-1.629,0.488-2.441,1.092-2.441,1.807c0,0.75,0.699,1.303,2.1,1.66
		c1.398,0.359,2.961,0.537,4.688,0.537c1.725,0,3.287-0.178,4.688-0.537c1.398-0.357,2.1-0.91,2.1-1.66
		c0-0.715-0.814-1.318-2.441-1.807v-5.127C56.633,45.332,57.447,44.746,57.447,43.996z M53.199,52.908
		c-0.684,0.146-1.531,0.219-2.539,0.219c-1.01,0-1.855-0.072-2.539-0.219s-1.025-0.252-1.025-0.318c0-0.064,0.309-0.178,0.928-0.342
		c0.26-0.064,0.65-0.129,1.172-0.195v-5.859c0.357,0.033,0.846,0.049,1.465,0.049c0.617,0,1.105-0.016,1.465-0.049v5.859
		c0.52,0.066,0.91,0.131,1.172,0.195c0.617,0.164,0.928,0.277,0.928,0.342C54.225,52.656,53.883,52.762,53.199,52.908z
		 M53.199,44.314c-0.684,0.146-1.531,0.219-2.539,0.219c-1.01,0-1.855-0.072-2.539-0.219s-1.025-0.252-1.025-0.318
		c0-0.064,0.342-0.178,1.025-0.342c0.684-0.162,1.529-0.244,2.539-0.244c1.008,0,1.855,0.082,2.539,0.244
		c0.684,0.164,1.025,0.277,1.025,0.342C54.225,44.062,53.883,44.168,53.199,44.314z M53.297,35.695
		c-0.262,0.066-0.652,0.131-1.172,0.195v5.859c-0.359-0.031-0.848-0.049-1.465-0.049c-0.619,0-1.107,0.018-1.465,0.049v-5.859
		c-0.521-0.064-0.912-0.129-1.172-0.195c-0.619-0.162-0.928-0.275-0.928-0.342c0-0.064,0.342-0.178,1.025-0.342
		c0.684-0.162,1.529-0.244,2.539-0.244c1.008,0,1.855,0.082,2.539,0.244c0.684,0.164,1.025,0.277,1.025,0.342
		C54.225,35.42,53.914,35.533,53.297,35.695z"/>
	<path fill="#66ABC6" d="M39.869,35.305c0-0.684-0.692-1.229-2.076-1.635c-1.383-0.408-2.953-0.611-4.711-0.611
		s-3.329,0.203-4.713,0.611c-1.383,0.406-2.074,0.951-2.074,1.635c0,0.75,0.812,1.336,2.441,1.758v5.176
		c-1.629,0.488-2.441,1.074-2.441,1.758c0,0.75,0.812,1.336,2.441,1.758v5.127c-1.629,0.488-2.441,1.092-2.441,1.807
		c0,0.75,0.699,1.303,2.1,1.66c1.398,0.359,2.961,0.537,4.688,0.537c1.725,0,3.287-0.178,4.688-0.537c1.398-0.357,2.1-0.91,2.1-1.66
		c0-0.715-0.814-1.318-2.441-1.807v-5.127c1.627-0.422,2.441-1.008,2.441-1.758c0-0.684-0.814-1.27-2.441-1.758v-5.176
		C39.055,36.641,39.869,36.055,39.869,35.305z M35.621,52.908c-0.684,0.146-1.531,0.219-2.539,0.219
		c-1.01,0-1.855-0.072-2.539-0.219s-1.025-0.252-1.025-0.318c0-0.064,0.309-0.178,0.928-0.342c0.26-0.064,0.65-0.129,1.172-0.195
		v-5.859c0.357,0.033,0.846,0.049,1.465,0.049c0.617,0,1.105-0.016,1.465-0.049v5.859c0.52,0.066,0.91,0.131,1.172,0.195
		c0.617,0.164,0.928,0.277,0.928,0.342C36.646,52.656,36.305,52.762,35.621,52.908z M35.621,44.314
		c-0.684,0.146-1.531,0.219-2.539,0.219c-1.01,0-1.855-0.072-2.539-0.219s-1.025-0.252-1.025-0.318c0-0.064,0.342-0.178,1.025-0.342
		c0.684-0.162,1.529-0.244,2.539-0.244c1.008,0,1.855,0.082,2.539,0.244c0.684,0.164,1.025,0.277,1.025,0.342
		C36.646,44.062,36.305,44.168,35.621,44.314z M35.719,35.695c-0.262,0.066-0.652,0.131-1.172,0.195v5.859
		c-0.359-0.031-0.848-0.049-1.465-0.049c-0.619,0-1.107,0.018-1.465,0.049v-5.859c-0.521-0.064-0.912-0.129-1.172-0.195
		c-0.619-0.162-0.928-0.275-0.928-0.342c0-0.064,0.342-0.178,1.025-0.342c0.684-0.162,1.529-0.244,2.539-0.244
		c1.008,0,1.855,0.082,2.539,0.244c0.684,0.164,1.025,0.277,1.025,0.342C36.646,35.42,36.336,35.533,35.719,35.695z"/>
	<path fill="#E63946" d="M39.869,9.475c0-0.684-0.692-1.229-2.076-1.635c-1.383-0.408-2.953-0.611-4.711-0.611
		s-3.329,0.203-4.713,0.611c-1.383,0.406-2.074,0.951-2.074,1.635c0,0.75,0.812,1.336,2.441,1.758v5.176
		c-1.629,0.488-2.441,1.074-2.441,1.758c0,0.75,0.812,1.336,2.441,1.758v5.127c-1.629,0.488-2.441,1.092-2.441,1.807
		c0,0.75,0.699,1.303,2.1,1.66c1.398,0.359,2.961,0.537,4.688,0.537c1.725,0,3.287-0.178,4.688-0.537c1.398-0.357,2.1-0.91,2.1-1.66
		c0-0.715-0.814-1.318-2.441-1.807v-5.127c1.627-0.422,2.441-1.008,2.441-1.758c0-0.684-0.814-1.27-2.441-1.758v-5.176
		C39.055,10.811,39.869,10.225,39.869,9.475z M35.621,27.078c-0.684,0.146-1.531,0.219-2.539,0.219c-1.01,0-1.855-0.072-2.539-0.219
		s-1.025-0.252-1.025-0.318c0-0.064,0.309-0.178,0.928-0.342c0.26-0.064,0.65-0.129,1.172-0.195v-5.859
		c0.357,0.033,0.846,0.049,1.465,0.049c0.617,0,1.105-0.016,1.465-0.049v5.859c0.52,0.066,0.91,0.131,1.172,0.195
		c0.617,0.164,0.928,0.277,0.928,0.342C36.646,26.826,36.305,26.932,35.621,27.078z M35.621,18.484
		c-0.684,0.146-1.531,0.219-2.539,0.219c-1.01,0-1.855-0.072-2.539-0.219s-1.025-0.252-1.025-0.318c0-0.064,0.342-0.178,1.025-0.342
		c0.684-0.162,1.529-0.244,2.539-0.244c1.008,0,1.855,0.082,2.539,0.244c0.684,0.164,1.025,0.277,1.025,0.342
		C36.646,18.232,36.305,18.338,35.621,18.484z M35.719,9.865c-0.262,0.066-0.652,0.131-1.172,0.195v5.859
		c-0.359-0.031-0.848-0.049-1.465-0.049c-0.619,0-1.107,0.018-1.465,0.049v-5.859c-0.521-0.064-0.912-0.129-1.172-0.195
		c-0.619-0.162-0.928-0.275-0.928-0.342c0-0.064,0.342-0.178,1.025-0.342c0.684-0.162,1.529-0.244,2.539-0.244
		c1.008,0,1.855,0.082,2.539,0.244c0.684,0.164,1.025,0.277,1.025,0.342C36.646,9.59,36.336,9.703,35.719,9.865z"/>
	<path fill="#A8DADC" d="M22.291,35.305c0-0.684-0.692-1.229-2.076-1.635c-1.383-0.408-2.953-0.611-4.711-0.611
		s-3.329,0.203-4.713,0.611c-1.383,0.406-2.074,0.951-2.074,1.635c0,0.75,0.812,1.336,2.441,1.758v5.176
		c-1.629,0.488-2.441,1.074-2.441,1.758c0,0.75,0.812,1.336,2.441,1.758v5.127c-1.629,0.488-2.441,1.092-2.441,1.807
		c0,0.75,0.699,1.303,2.1,1.66c1.398,0.359,2.961,0.537,4.688,0.537c1.725,0,3.287-0.178,4.688-0.537c1.398-0.357,2.1-0.91,2.1-1.66
		c0-0.715-0.814-1.318-2.441-1.807v-5.127c1.627-0.422,2.441-1.008,2.441-1.758c0-0.684-0.814-1.27-2.441-1.758v-5.176
		C21.477,36.641,22.291,36.055,22.291,35.305z M18.043,52.908c-0.684,0.146-1.531,0.219-2.539,0.219
		c-1.01,0-1.855-0.072-2.539-0.219s-1.025-0.252-1.025-0.318c0-0.064,0.309-0.178,0.928-0.342c0.26-0.064,0.65-0.129,1.172-0.195
		v-5.859c0.357,0.033,0.846,0.049,1.465,0.049c0.617,0,1.105-0.016,1.465-0.049v5.859c0.52,0.066,0.91,0.131,1.172,0.195
		c0.617,0.164,0.928,0.277,0.928,0.342C19.068,52.656,18.727,52.762,18.043,52.908z M18.043,44.314
		c-0.684,0.146-1.531,0.219-2.539,0.219c-1.01,0-1.855-0.072-2.539-0.219s-1.025-0.252-1.025-0.318c0-0.064,0.342-0.178,1.025-0.342
		c0.684-0.162,1.529-0.244,2.539-0.244c1.008,0,1.855,0.082,2.539,0.244c0.684,0.164,1.025,0.277,1.025,0.342
		C19.068,44.062,18.727,44.168,18.043,44.314z M18.141,35.695c-0.262,0.066-0.652,0.131-1.172,0.195v5.859
		c-0.359-0.031-0.848-0.049-1.465-0.049c-0.619,0-1.107,0.018-1.465,0.049v-5.859c-0.521-0.064-0.912-0.129-1.172-0.195
		c-0.619-0.162-0.928-0.275-0.928-0.342c0-0.064,0.342-0.178,1.025-0.342c0.684-0.162,1.529-0.244,2.539-0.244
		c1.008,0,1.855,0.082,2.539,0.244c0.684,0.164,1.025,0.277,1.025,0.342C19.068,35.42,18.758,35.533,18.141,35.695z"/>
	<path fill="#A8DADC" d="M57.447,61.135c0-0.684-0.692-1.229-2.076-1.635c-1.383-0.408-2.953-0.611-4.711-0.611
		s-3.329,0.203-4.713,0.611c-1.383,0.406-2.074,0.951-2.074,1.635c0,0.75,0.812,1.336,2.441,1.758v5.176
		c-1.629,0.488-2.441,1.074-2.441,1.758c0,0.75,0.812,1.336,2.441,1.758v5.127c-1.629,0.488-2.441,1.092-2.441,1.807
		c0,0.75,0.699,1.303,2.1,1.66c1.398,0.359,2.961,0.537,4.688,0.537c1.725,0,3.287-0.178,4.688-0.537c1.398-0.357,2.1-0.91,2.1-1.66
		c0-0.715-0.814-1.318-2.441-1.807v-5.127c1.627-0.422,2.441-1.008,2.441-1.758c0-0.684-0.814-1.27-2.441-1.758v-5.176
		C56.633,62.471,57.447,61.885,57.447,61.135z M53.199,78.738c-0.684,0.146-1.531,0.219-2.539,0.219
		c-1.01,0-1.855-0.072-2.539-0.219s-1.025-0.252-1.025-0.318c0-0.064,0.309-0.178,0.928-0.342c0.26-0.064,0.65-0.129,1.172-0.195
		v-5.859c0.357,0.033,0.846,0.049,1.465,0.049c0.617,0,1.105-0.016,1.465-0.049v5.859c0.52,0.066,0.91,0.131,1.172,0.195
		c0.617,0.164,0.928,0.277,0.928,0.342C54.225,78.486,53.883,78.592,53.199,78.738z M53.199,70.145
		c-0.684,0.146-1.531,0.219-2.539,0.219c-1.01,0-1.855-0.072-2.539-0.219s-1.025-0.252-1.025-0.318c0-0.064,0.342-0.178,1.025-0.342
		c0.684-0.162,1.529-0.244,2.539-0.244c1.008,0,1.855,0.082,2.539,0.244c0.684,0.164,1.025,0.277,1.025,0.342
		C54.225,69.893,53.883,69.998,53.199,70.145z M53.297,61.525c-0.262,0.066-0.652,0.131-1.172,0.195v5.859
		c-0.359-0.031-0.848-0.049-1.465-0.049c-0.619,0-1.107,0.018-1.465,0.049v-5.859c-0.521-0.064-0.912-0.129-1.172-0.195
		c-0.619-0.162-0.928-0.275-0.928-0.342c0-0.064,0.342-0.178,1.025-0.342c0.684-0.162,1.529-0.244,2.539-0.244
		c1.008,0,1.855,0.082,2.539,0.244c0.684,0.164,1.025,0.277,1.025,0.342C54.225,61.25,53.914,61.363,53.297,61.525z"/>
	<path fill="#66ABC6" d="M39.869,61.135c0-0.684-0.692-1.229-2.076-1.635c-1.383-0.408-2.953-0.611-4.711-0.611
		s-3.329,0.203-4.713,0.611c-1.383,0.406-2.074,0.951-2.074,1.635c0,0.75,0.812,1.336,2.441,1.758v5.176
		c-1.629,0.488-2.441,1.074-2.441,1.758c0,0.75,0.812,1.336,2.441,1.758v5.127c-1.629,0.488-2.441,1.092-2.441,1.807
		c0,0.75,0.699,1.303,2.1,1.66c1.398,0.359,2.961,0.537,4.688,0.537c1.725,0,3.287-0.178,4.688-0.537c1.398-0.357,2.1-0.91,2.1-1.66
		c0-0.715-0.814-1.318-2.441-1.807v-5.127c1.627-0.422,2.441-1.008,2.441-1.758c0-0.684-0.814-1.27-2.441-1.758v-5.176
		C39.055,62.471,39.869,61.885,39.869,61.135z M35.621,78.738c-0.684,0.146-1.531,0.219-2.539,0.219
		c-1.01,0-1.855-0.072-2.539-0.219s-1.025-0.252-1.025-0.318c0-0.064,0.309-0.178,0.928-0.342c0.26-0.064,0.65-0.129,1.172-0.195
		v-5.859c0.357,0.033,0.846,0.049,1.465,0.049c0.617,0,1.105-0.016,1.465-0.049v5.859c0.52,0.066,0.91,0.131,1.172,0.195
		c0.617,0.164,0.928,0.277,0.928,0.342C36.646,78.486,36.305,78.592,35.621,78.738z M35.621,70.145
		c-0.684,0.146-1.531,0.219-2.539,0.219c-1.01,0-1.855-0.072-2.539-0.219s-1.025-0.252-1.025-0.318c0-0.064,0.342-0.178,1.025-0.342
		c0.684-0.162,1.529-0.244,2.539-0.244c1.008,0,1.855,0.082,2.539,0.244c0.684,0.164,1.025,0.277,1.025,0.342
		C36.646,69.893,36.305,69.998,35.621,70.145z M35.719,61.525c-0.262,0.066-0.652,0.131-1.172,0.195v5.859
		c-0.359-0.031-0.848-0.049-1.465-0.049c-0.619,0-1.107,0.018-1.465,0.049v-5.859c-0.521-0.064-0.912-0.129-1.172-0.195
		c-0.619-0.162-0.928-0.275-0.928-0.342c0-0.064,0.342-0.178,1.025-0.342c0.684-0.162,1.529-0.244,2.539-0.244
		c1.008,0,1.855,0.082,2.539,0.244c0.684,0.164,1.025,0.277,1.025,0.342C36.646,61.25,36.336,61.363,35.719,61.525z"/>
</g>
</svg>
