<?xml version="1.0" encoding="utf-8"?>
<!-- Generator: Adobe Illustrator 16.0.0, SVG Export Plug-In . SVG Version: 6.00 Build 0)  -->
<!DOCTYPE svg PUBLIC "-//W3C//DTD SVG 1.1//EN" "http://www.w3.org/Graphics/SVG/1.1/DTD/svg11.dtd">
<svg version="1.1" id="Layer_1" xmlns="http://www.w3.org/2000/svg" xmlns:xlink="http://www.w3.org/1999/xlink" x="0px" y="0px"
	 width="66.334px" height="88.5px" viewBox="0 0 66.334 88.5" enable-background="new 0 0 66.334 88.5" xml:space="preserve">
<g>
	<g>
		<path fill="#A8DADC" d="M47.265,37.635l-6.808-7.932c-1.68,0.857-2.734,1.018-3.163,0.482c-0.536-0.607-0.305-1.715,0.698-3.324
			l-4.878-5.682l-4.878,5.682c1.036,1.609,1.303,2.717,0.804,3.324c-0.5,0.535-1.572,0.375-3.217-0.482l-6.754,7.986
			c1.465,0.395,2.198,0.984,2.198,1.77c0,0.75-0.822,1.375-2.466,1.875c0.107,0.395,0.036,0.75-0.214,1.072
			c-0.537,0.572-1.538,0.465-3.002-0.322l-0.375-0.215c-0.394,0.037-0.858,0.055-1.394,0.055c-1.966,0-3.681-0.223-5.146-0.67
			c-1.465-0.447-2.198-1.045-2.198-1.795c0-0.822,0.875-1.465,2.627-1.93v-1.34C8.67,35.795,8.331,35.367,8.081,34.9
			c-0.822-1.463-1.001-2.465-0.536-3c0.393-0.43,0.912-0.553,1.555-0.375v-6.646c-1.752-0.537-2.627-1.18-2.627-1.932
			c0-0.82,0.875-1.463,2.627-1.928V8.369c-1.752-0.5-2.627-1.143-2.627-1.93c0-0.822,0.732-1.43,2.198-1.822
			c1.465-0.393,3.18-0.59,5.146-0.59c1.93,0,3.654,0.197,5.173,0.59c1.518,0.393,2.278,1,2.278,1.822
			c0,0.787-0.895,1.447-2.68,1.982v10.936c0.536-0.143,1.357,0.072,2.466,0.643l8.147-9.381c-0.965-1.533-1.179-2.59-0.643-3.162
			c0.5-0.605,1.482-0.516,2.948,0.268c0.607,0.322,1.143,0.697,1.608,1.127c0.535-0.43,1.107-0.805,1.715-1.127
			c1.429-0.783,2.412-0.873,2.948-0.268c0.465,0.572,0.25,1.609-0.643,3.109L45.228,20c1.072-0.785,1.894-1.125,2.466-1.018V8.369
			c-1.752-0.5-2.626-1.143-2.626-1.93c0-0.822,0.731-1.43,2.197-1.822c1.463-0.393,3.18-0.59,5.146-0.59
			c1.929,0,3.653,0.197,5.171,0.59c1.52,0.393,2.279,1,2.279,1.822c0,0.787-0.895,1.447-2.682,1.982V21.02
			c1.787,0.465,2.682,1.107,2.682,1.928c0,0.752-0.895,1.395-2.682,1.932v6.699c0.645-0.248,1.162-0.143,1.556,0.322
			c0.499,0.535,0.302,1.555-0.59,3.055c-0.286,0.502-0.608,1.002-0.966,1.502v1.072c1.787,0.465,2.682,1.107,2.682,1.93
			c0,0.75-0.76,1.348-2.279,1.795c-1.518,0.447-3.242,0.67-5.171,0.67c-0.502,0-0.949-0.018-1.342-0.055l-0.375,0.215
			c-1.465,0.787-2.448,0.895-2.948,0.322c-0.286-0.355-0.374-0.713-0.268-1.072c-1.608-0.5-2.411-1.125-2.411-1.875
			C45.067,38.674,45.799,38.064,47.265,37.635z M47.265,51.035c-1.466-0.428-2.197-1.035-2.197-1.82
			c0-0.752,0.803-1.375,2.411-1.877c-0.106-0.357-0.019-0.713,0.268-1.072c0.5-0.57,1.483-0.463,2.948,0.322l0.375,0.213
			c0.393-0.033,0.84-0.053,1.342-0.053c1.929,0,3.653,0.223,5.171,0.67c1.52,0.447,2.279,1.045,2.279,1.797
			c0,0.822-0.895,1.465-2.682,1.928v1.072c0.357,0.502,0.68,1.002,0.966,1.502c0.892,1.502,1.089,2.518,0.59,3.055
			c-0.394,0.467-0.911,0.572-1.556,0.322v6.699c1.787,0.537,2.682,1.18,2.682,1.93c0,0.824-0.895,1.467-2.682,1.93V80.25
			c1.787,0.535,2.682,1.197,2.682,1.982c0,0.824-0.76,1.432-2.279,1.824c-1.518,0.393-3.242,0.588-5.171,0.588
			c-1.967,0-3.684-0.195-5.146-0.588c-1.466-0.393-2.197-1-2.197-1.824c0-0.785,0.874-1.428,2.626-1.93V69.691
			c-0.572,0.105-1.394-0.232-2.466-1.02l-8.094,9.434c0.893,1.5,1.108,2.539,0.643,3.109c-0.536,0.607-1.519,0.518-2.948-0.27
			c-0.608-0.32-1.18-0.695-1.715-1.123c-0.465,0.428-1.001,0.803-1.608,1.123c-1.466,0.787-2.449,0.877-2.948,0.27
			c-0.536-0.57-0.322-1.625,0.643-3.162l-8.147-9.381c-1.108,0.572-1.93,0.787-2.466,0.643V80.25c1.786,0.535,2.68,1.197,2.68,1.982
			c0,0.824-0.76,1.432-2.278,1.824c-1.519,0.393-3.243,0.588-5.173,0.588c-1.966,0-3.681-0.195-5.146-0.588
			c-1.465-0.393-2.198-1-2.198-1.824c0-0.785,0.875-1.428,2.627-1.93v-12.65c-1.752-0.463-2.627-1.105-2.627-1.93
			c0-0.75,0.875-1.393,2.627-1.93v-6.646c-0.643,0.18-1.163,0.055-1.555-0.375c-0.465-0.537-0.286-1.535,0.536-3.002
			c0.25-0.463,0.59-0.891,1.019-1.287v-1.34c-1.752-0.463-2.627-1.105-2.627-1.928c0-0.752,0.732-1.35,2.198-1.797
			c1.465-0.447,3.18-0.67,5.146-0.67c0.536,0,1,0.02,1.394,0.053l0.375-0.213c1.464-0.785,2.448-0.893,2.948-0.322
			c0.285,0.359,0.375,0.715,0.268,1.072c1.644,0.502,2.466,1.125,2.466,1.877c0,0.785-0.733,1.393-2.198,1.82l6.754,7.934
			c1.645-0.857,2.716-1.018,3.217-0.482c0.499,0.609,0.231,1.715-0.804,3.324l4.878,5.682l4.878-5.682
			c-1.002-1.609-1.233-2.715-0.698-3.324c0.429-0.535,1.483-0.375,3.163,0.482L47.265,51.035z M16.711,6.867
			c0.679-0.178,1.019-0.301,1.019-0.375c0-0.07-0.375-0.195-1.126-0.375c-0.75-0.178-1.68-0.268-2.787-0.268
			c-1.108,0-2.02,0.09-2.733,0.268c-0.716,0.18-1.072,0.305-1.072,0.375c0,0.109,0.303,0.234,0.911,0.375
			c0.322,0.074,0.786,0.145,1.395,0.215v13.4c0.321-0.033,0.821-0.053,1.5-0.053c0.678,0,1.214,0.02,1.608,0.053v-13.4
			C15.996,7.012,16.425,6.941,16.711,6.867z M10.011,22.947c0,0.074,0.356,0.197,1.072,0.377c0.713,0.18,1.625,0.268,2.733,0.268
			c1.107,0,2.037-0.088,2.787-0.268s1.126-0.303,1.126-0.377c0-0.07-0.375-0.186-1.126-0.346s-1.68-0.242-2.787-0.242
			c-1.108,0-2.02,0.082-2.733,0.242C10.367,22.762,10.011,22.877,10.011,22.947z M11.136,38.977c-0.75,0.18-1.125,0.305-1.125,0.375
			c0,0.107,0.356,0.232,1.072,0.375c0.713,0.143,1.625,0.215,2.733,0.215c1.107,0,2.037-0.08,2.787-0.24
			c0.75-0.162,1.126-0.277,1.126-0.35c0-0.07-0.34-0.195-1.019-0.375c-0.286-0.07-0.715-0.143-1.287-0.215V25.359
			c-0.394,0.037-0.93,0.055-1.608,0.055c-0.68,0-1.179-0.018-1.5-0.055v13.35C11.85,38.814,11.457,38.906,11.136,38.977z
			 M16.711,49.643c0.679-0.178,1.019-0.301,1.019-0.377c0-0.07-0.375-0.193-1.126-0.373c-0.75-0.178-1.68-0.27-2.787-0.27
			c-1.108,0-2.02,0.092-2.733,0.27c-0.716,0.18-1.072,0.303-1.072,0.373c0,0.109,0.303,0.234,0.911,0.377
			c0.322,0.074,0.786,0.145,1.395,0.215v13.4c0.321-0.035,0.821-0.055,1.5-0.055c0.678,0,1.214,0.02,1.608,0.055v-13.4
			C15.996,49.787,16.425,49.717,16.711,49.643z M10.011,65.723c0,0.109,0.356,0.234,1.072,0.377
			c0.713,0.143,1.625,0.213,2.733,0.213c1.107,0,2.037-0.078,2.787-0.24c0.75-0.16,1.126-0.275,1.126-0.35
			c0-0.07-0.375-0.193-1.126-0.373s-1.68-0.27-2.787-0.27c-1.108,0-2.02,0.09-2.733,0.27C10.367,65.529,10.011,65.652,10.011,65.723
			z M11.136,81.75c-0.75,0.18-1.125,0.305-1.125,0.375c0,0.107,0.356,0.234,1.072,0.375c0.713,0.145,1.625,0.217,2.733,0.217
			c1.107,0,2.037-0.08,2.787-0.242c0.75-0.16,1.126-0.277,1.126-0.35c0-0.07-0.34-0.195-1.019-0.375
			c-0.286-0.07-0.715-0.141-1.287-0.213V68.135c-0.394,0.037-0.93,0.055-1.608,0.055c-0.68,0-1.179-0.018-1.5-0.055v13.348
			C11.85,81.59,11.457,81.68,11.136,81.75z M18.587,33.186l4.556-5.307c-0.287-0.248-0.679-0.623-1.18-1.125
			c-0.536-0.463-0.911-0.822-1.125-1.072l-2.251,2.682V33.186z M18.587,55.486v4.822l2.251,2.682
			c0.215-0.248,0.59-0.607,1.125-1.072c0.5-0.5,0.893-0.857,1.18-1.072L18.587,55.486z M21.16,22.412
			c0.071,0.145,0.107,0.322,0.107,0.535v0.377c0.392,0.609,1,1.322,1.822,2.143c0.821,0.752,1.563,1.314,2.225,1.691
			c0.66,0.375,1.008,0.543,1.045,0.508c0.07-0.07-0.117-0.43-0.563-1.072c-0.447-0.643-1.082-1.357-1.903-2.145
			c-0.822-0.75-1.538-1.34-2.145-1.768C21.535,22.539,21.338,22.449,21.16,22.412z M21.16,66.26
			c0.178-0.035,0.375-0.125,0.589-0.268c0.607-0.43,1.322-1.035,2.145-1.824c0.821-0.75,1.456-1.447,1.903-2.09
			c0.446-0.643,0.633-0.998,0.563-1.072c-0.037-0.033-0.385,0.135-1.045,0.512c-0.662,0.373-1.404,0.936-2.225,1.686
			c-0.823,0.824-1.43,1.539-1.822,2.146v0.373C21.267,65.938,21.231,66.117,21.16,66.26z M32.523,12.066l-8.63,10.023
			c0.321,0.215,0.751,0.572,1.287,1.074c0.464,0.465,0.821,0.822,1.071,1.072l8.523-9.971c0.5,0.395,0.893,0.68,1.179,0.855
			c0.536,0.322,0.839,0.451,0.911,0.377c0.035-0.07-0.152-0.42-0.563-1.043c-0.412-0.627-1.028-1.35-1.849-2.174
			c-0.822-0.75-1.573-1.32-2.251-1.715c-0.679-0.393-1.036-0.57-1.072-0.535c-0.036,0.072,0.125,0.393,0.482,0.963
			C31.827,11.246,32.13,11.604,32.523,12.066z M27.217,70.334c0.357-0.215,1.287,0.072,2.787,0.857l1.019-1.18l-4.771-5.576
			c-0.286,0.289-0.679,0.664-1.179,1.127c-0.5,0.467-0.876,0.805-1.125,1.018L27.217,70.334z M33.756,76.551l8.577-9.971
			c-0.322-0.248-0.733-0.605-1.233-1.072c-0.5-0.498-0.858-0.873-1.072-1.123l-8.522,9.969c-0.536-0.355-0.93-0.625-1.18-0.803
			c-0.536-0.324-0.84-0.447-0.91-0.375c-0.037,0.035,0.15,0.375,0.562,1.016c0.411,0.645,1.028,1.361,1.85,2.146
			c0.821,0.75,1.562,1.322,2.224,1.715c0.661,0.395,1.028,0.57,1.1,0.535c0.035-0.07-0.144-0.393-0.536-0.965
			C34.435,77.375,34.148,77.016,33.756,76.551z M39.063,18.338c-0.358,0.252-1.287-0.016-2.788-0.803l-1.019,1.125l4.771,5.629
			c0.25-0.285,0.644-0.66,1.18-1.125c0.5-0.502,0.858-0.84,1.071-1.02L39.063,18.338z M45.12,22.412
			c-0.179,0.037-0.376,0.127-0.59,0.27c-0.607,0.428-1.34,1.018-2.197,1.768c-0.787,0.787-1.404,1.502-1.849,2.145
			c-0.447,0.643-0.653,1.002-0.617,1.072c0.035,0.035,0.392-0.133,1.072-0.508c0.679-0.377,1.429-0.939,2.251-1.691
			c0.82-0.82,1.43-1.533,1.822-2.143v-0.377C45.013,22.734,45.048,22.557,45.12,22.412z M45.12,66.26
			c-0.072-0.143-0.107-0.322-0.107-0.537V65.35c-0.393-0.607-1.002-1.322-1.822-2.146c-0.822-0.75-1.573-1.312-2.251-1.686
			c-0.68-0.377-1.037-0.545-1.072-0.512c-0.037,0.074,0.17,0.43,0.617,1.072c0.445,0.643,1.062,1.34,1.849,2.09
			c0.857,0.789,1.59,1.395,2.197,1.824C44.744,66.135,44.941,66.225,45.12,66.26z M47.693,28.148l-2.251-2.467
			c-0.215,0.25-0.59,0.627-1.127,1.127c-0.5,0.465-0.875,0.805-1.125,1.018l4.503,5.094V28.148z M47.693,60.525v-4.771l-4.503,5.092
			c0.25,0.215,0.625,0.572,1.125,1.072c0.537,0.465,0.912,0.824,1.127,1.072L47.693,60.525z M55.305,6.867
			c0.678-0.178,1.019-0.301,1.019-0.375c0-0.07-0.376-0.195-1.127-0.375c-0.749-0.178-1.679-0.268-2.785-0.268
			c-1.109,0-2.021,0.09-2.735,0.268c-0.714,0.18-1.071,0.305-1.071,0.375c0,0.109,0.303,0.234,0.911,0.375
			c0.321,0.074,0.786,0.145,1.394,0.215v13.4c0.322-0.033,0.82-0.053,1.502-0.053c0.677,0,1.213,0.02,1.607,0.053v-13.4
			C54.59,7.012,55.018,6.941,55.305,6.867z M48.604,22.947c0,0.074,0.357,0.197,1.071,0.377s1.626,0.268,2.735,0.268
			c1.106,0,2.036-0.088,2.785-0.268c0.751-0.18,1.127-0.303,1.127-0.377c0-0.07-0.376-0.186-1.127-0.346
			c-0.749-0.16-1.679-0.242-2.785-0.242c-1.109,0-2.021,0.082-2.735,0.242S48.604,22.877,48.604,22.947z M49.729,38.977
			c-0.75,0.18-1.125,0.305-1.125,0.375c0,0.107,0.357,0.232,1.071,0.375s1.626,0.215,2.735,0.215c1.106,0,2.036-0.08,2.785-0.24
			c0.751-0.162,1.127-0.277,1.127-0.35c0-0.07-0.341-0.195-1.019-0.375c-0.287-0.07-0.715-0.143-1.286-0.215V25.359
			c-0.395,0.037-0.931,0.055-1.607,0.055c-0.682,0-1.18-0.018-1.502-0.055v13.35C50.444,38.814,50.052,38.906,49.729,38.977z
			 M55.305,49.643c0.678-0.178,1.019-0.301,1.019-0.377c0-0.07-0.376-0.193-1.127-0.373c-0.749-0.178-1.679-0.27-2.785-0.27
			c-1.109,0-2.021,0.092-2.735,0.27c-0.714,0.18-1.071,0.303-1.071,0.373c0,0.109,0.303,0.234,0.911,0.377
			c0.321,0.074,0.786,0.145,1.394,0.215v13.4c0.322-0.035,0.82-0.055,1.502-0.055c0.677,0,1.213,0.02,1.607,0.055v-13.4
			C54.59,49.787,55.018,49.717,55.305,49.643z M48.604,65.723c0,0.109,0.357,0.234,1.071,0.377s1.626,0.213,2.735,0.213
			c1.106,0,2.036-0.078,2.785-0.24c0.751-0.16,1.127-0.275,1.127-0.35c0-0.07-0.376-0.193-1.127-0.373
			c-0.749-0.18-1.679-0.27-2.785-0.27c-1.109,0-2.021,0.09-2.735,0.27S48.604,65.652,48.604,65.723z M49.729,81.75
			c-0.75,0.18-1.125,0.305-1.125,0.375c0,0.107,0.357,0.234,1.071,0.375c0.714,0.145,1.626,0.217,2.735,0.217
			c1.106,0,2.036-0.08,2.785-0.242c0.751-0.16,1.127-0.277,1.127-0.35c0-0.07-0.341-0.195-1.019-0.375
			c-0.287-0.07-0.715-0.141-1.286-0.213V68.135c-0.395,0.037-0.931,0.055-1.607,0.055c-0.682,0-1.18-0.018-1.502-0.055v13.348
			C50.444,81.59,50.052,81.68,49.729,81.75z"/>
	</g>
</g>
</svg>
