<?xml version="1.0" encoding="utf-8"?>
<!-- Generator: Adobe Illustrator 16.0.0, SVG Export Plug-In . SVG Version: 6.00 Build 0)  -->
<!DOCTYPE svg PUBLIC "-//W3C//DTD SVG 1.1//EN" "http://www.w3.org/Graphics/SVG/1.1/DTD/svg11.dtd">
<svg version="1.1" id="Layer_1" xmlns="http://www.w3.org/2000/svg" xmlns:xlink="http://www.w3.org/1999/xlink" x="0px" y="0px"
	 width="66.334px" height="88.5px" viewBox="0 0 66.334 88.5" enable-background="new 0 0 66.334 88.5" xml:space="preserve">
<g>
	<g>
		<path fill="#A8DADC" d="M22.65,60.531c0-0.684-0.692-1.229-2.075-1.636c-1.384-0.407-2.954-0.61-4.712-0.61
			s-3.329,0.203-4.712,0.61c-1.384,0.407-2.075,0.952-2.075,1.636c0,0.749,0.813,1.335,2.441,1.758v5.176
			c-1.628,0.488-2.441,1.074-2.441,1.758c0,0.749,0.813,1.335,2.441,1.758v5.127c-1.628,0.488-2.441,1.091-2.441,1.807
			c0,0.749,0.699,1.303,2.1,1.66c1.399,0.358,2.962,0.537,4.688,0.537c1.725,0,3.287-0.179,4.688-0.537
			c1.399-0.357,2.1-0.911,2.1-1.66c0-0.716-0.814-1.318-2.441-1.807V70.98c1.627-0.423,2.441-1.009,2.441-1.758
			c0-0.684-0.814-1.27-2.441-1.758v-5.176C21.836,61.866,22.65,61.28,22.65,60.531z M18.402,78.134
			c-0.684,0.146-1.53,0.22-2.539,0.22c-1.01,0-1.855-0.073-2.539-0.22s-1.025-0.252-1.025-0.317c0-0.064,0.309-0.179,0.928-0.342
			c0.26-0.064,0.65-0.13,1.172-0.195V71.42c0.357,0.033,0.846,0.049,1.465,0.049c0.618,0,1.106-0.016,1.465-0.049v5.859
			c0.521,0.065,0.911,0.131,1.172,0.195c0.618,0.163,0.928,0.277,0.928,0.342C19.428,77.882,19.086,77.987,18.402,78.134z
			 M18.402,69.54c-0.684,0.146-1.53,0.22-2.539,0.22c-1.01,0-1.855-0.073-2.539-0.22s-1.025-0.252-1.025-0.317
			c0-0.064,0.342-0.179,1.025-0.342c0.684-0.162,1.529-0.244,2.539-0.244c1.009,0,1.855,0.082,2.539,0.244
			c0.684,0.163,1.025,0.277,1.025,0.342C19.428,69.288,19.086,69.394,18.402,69.54z M18.5,60.922
			c-0.261,0.065-0.651,0.131-1.172,0.195v5.859c-0.358-0.032-0.847-0.049-1.465-0.049c-0.619,0-1.107,0.017-1.465,0.049v-5.859
			c-0.521-0.064-0.912-0.13-1.172-0.195c-0.619-0.162-0.928-0.276-0.928-0.342c0-0.064,0.342-0.179,1.025-0.342
			c0.684-0.162,1.529-0.244,2.539-0.244c1.009,0,1.855,0.082,2.539,0.244c0.684,0.163,1.025,0.277,1.025,0.342
			C19.428,60.646,19.118,60.76,18.5,60.922z"/>
		<path fill="#E63946" d="M40.229,34.701c0-0.684-0.692-1.229-2.075-1.636c-1.384-0.407-2.954-0.61-4.712-0.61
			s-3.329,0.203-4.712,0.61c-1.384,0.407-2.075,0.952-2.075,1.636c0,0.749,0.813,1.335,2.441,1.758v5.176
			c-1.628,0.488-2.441,1.074-2.441,1.758c0,0.749,0.813,1.335,2.441,1.758v5.127c-1.628,0.488-2.441,1.091-2.441,1.807
			c0,0.749,0.699,1.303,2.1,1.66c1.399,0.358,2.962,0.537,4.688,0.537c1.725,0,3.287-0.179,4.688-0.537
			c1.399-0.357,2.1-0.911,2.1-1.66c0-0.716-0.814-1.318-2.441-1.807V45.15c1.627-0.423,2.441-1.009,2.441-1.758
			c0-0.684-0.814-1.27-2.441-1.758v-5.176C39.414,36.036,40.229,35.45,40.229,34.701z M35.98,52.304
			c-0.684,0.146-1.53,0.22-2.539,0.22c-1.01,0-1.855-0.073-2.539-0.22s-1.025-0.252-1.025-0.317c0-0.064,0.309-0.179,0.928-0.342
			c0.26-0.064,0.65-0.13,1.172-0.195V45.59c0.357,0.033,0.846,0.049,1.465,0.049c0.618,0,1.106-0.016,1.465-0.049v5.859
			c0.521,0.065,0.911,0.131,1.172,0.195c0.618,0.163,0.928,0.277,0.928,0.342C37.006,52.052,36.664,52.157,35.98,52.304z
			 M35.98,43.71c-0.684,0.146-1.53,0.22-2.539,0.22c-1.01,0-1.855-0.073-2.539-0.22s-1.025-0.252-1.025-0.317
			c0-0.064,0.342-0.179,1.025-0.342c0.684-0.162,1.529-0.244,2.539-0.244c1.009,0,1.855,0.082,2.539,0.244
			c0.684,0.163,1.025,0.277,1.025,0.342C37.006,43.458,36.664,43.563,35.98,43.71z M36.078,35.092
			c-0.261,0.065-0.651,0.131-1.172,0.195v5.859c-0.358-0.032-0.847-0.049-1.465-0.049c-0.619,0-1.107,0.017-1.465,0.049v-5.859
			c-0.521-0.064-0.912-0.13-1.172-0.195c-0.619-0.162-0.928-0.276-0.928-0.342c0-0.064,0.342-0.179,1.025-0.342
			c0.684-0.162,1.529-0.244,2.539-0.244c1.009,0,1.855,0.082,2.539,0.244c0.684,0.163,1.025,0.277,1.025,0.342
			C37.006,34.815,36.696,34.93,36.078,35.092z"/>
		<path fill="#A8DADC" d="M57.807,17.562c0-0.684-0.814-1.27-2.441-1.758v-5.176c1.627-0.423,2.441-1.009,2.441-1.758
			c0-0.684-0.692-1.229-2.075-1.636c-1.384-0.407-2.954-0.61-4.712-0.61s-3.329,0.203-4.712,0.61
			c-1.384,0.407-2.075,0.952-2.075,1.636c0,0.749,0.813,1.335,2.441,1.758v5.176c-1.628,0.488-2.441,1.074-2.441,1.758
			c0,0.749,0.813,1.335,2.441,1.758v5.127c-1.628,0.488-2.441,1.091-2.441,1.807c0,0.749,0.699,1.303,2.1,1.66
			c1.399,0.358,2.962,0.537,4.688,0.537c1.725,0,3.287-0.179,4.688-0.537c1.399-0.357,2.1-0.911,2.1-1.66
			c0-0.716-0.814-1.318-2.441-1.807V19.32C56.992,18.897,57.807,18.312,57.807,17.562z M53.559,26.474
			c-0.684,0.146-1.53,0.22-2.539,0.22c-1.01,0-1.855-0.073-2.539-0.22s-1.025-0.252-1.025-0.317c0-0.064,0.309-0.179,0.928-0.342
			c0.26-0.064,0.65-0.13,1.172-0.195V19.76c0.357,0.033,0.846,0.049,1.465,0.049c0.618,0,1.106-0.016,1.465-0.049v5.859
			c0.521,0.065,0.911,0.131,1.172,0.195c0.618,0.163,0.928,0.277,0.928,0.342C54.584,26.222,54.242,26.327,53.559,26.474z
			 M53.559,17.88c-0.684,0.146-1.53,0.22-2.539,0.22c-1.01,0-1.855-0.073-2.539-0.22s-1.025-0.252-1.025-0.317
			c0-0.064,0.342-0.179,1.025-0.342c0.684-0.162,1.529-0.244,2.539-0.244c1.009,0,1.855,0.082,2.539,0.244
			c0.684,0.163,1.025,0.277,1.025,0.342C54.584,17.628,54.242,17.733,53.559,17.88z M53.656,9.262
			c-0.261,0.065-0.651,0.131-1.172,0.195v5.859c-0.358-0.032-0.847-0.049-1.465-0.049c-0.619,0-1.107,0.017-1.465,0.049V9.457
			c-0.521-0.064-0.912-0.13-1.172-0.195C47.764,9.1,47.455,8.985,47.455,8.92c0-0.064,0.342-0.179,1.025-0.342
			c0.684-0.162,1.529-0.244,2.539-0.244c1.009,0,1.855,0.082,2.539,0.244c0.684,0.163,1.025,0.277,1.025,0.342
			C54.584,8.985,54.274,9.1,53.656,9.262z"/>
		<path fill="#E63946" d="M40.229,60.531c0-0.684-0.692-1.229-2.075-1.636c-1.384-0.407-2.954-0.61-4.712-0.61
			s-3.329,0.203-4.712,0.61c-1.384,0.407-2.075,0.952-2.075,1.636c0,0.749,0.813,1.335,2.441,1.758v5.176
			c-1.628,0.488-2.441,1.074-2.441,1.758c0,0.749,0.813,1.335,2.441,1.758v5.127c-1.628,0.488-2.441,1.091-2.441,1.807
			c0,0.749,0.699,1.303,2.1,1.66c1.399,0.358,2.962,0.537,4.688,0.537c1.725,0,3.287-0.179,4.688-0.537
			c1.399-0.357,2.1-0.911,2.1-1.66c0-0.716-0.814-1.318-2.441-1.807V70.98c1.627-0.423,2.441-1.009,2.441-1.758
			c0-0.684-0.814-1.27-2.441-1.758v-5.176C39.414,61.866,40.229,61.28,40.229,60.531z M35.98,78.134
			c-0.684,0.146-1.53,0.22-2.539,0.22c-1.01,0-1.855-0.073-2.539-0.22s-1.025-0.252-1.025-0.317c0-0.064,0.309-0.179,0.928-0.342
			c0.26-0.064,0.65-0.13,1.172-0.195V71.42c0.357,0.033,0.846,0.049,1.465,0.049c0.618,0,1.106-0.016,1.465-0.049v5.859
			c0.521,0.065,0.911,0.131,1.172,0.195c0.618,0.163,0.928,0.277,0.928,0.342C37.006,77.882,36.664,77.987,35.98,78.134z
			 M35.98,69.54c-0.684,0.146-1.53,0.22-2.539,0.22c-1.01,0-1.855-0.073-2.539-0.22s-1.025-0.252-1.025-0.317
			c0-0.064,0.342-0.179,1.025-0.342c0.684-0.162,1.529-0.244,2.539-0.244c1.009,0,1.855,0.082,2.539,0.244
			c0.684,0.163,1.025,0.277,1.025,0.342C37.006,69.288,36.664,69.394,35.98,69.54z M36.078,60.922
			c-0.261,0.065-0.651,0.131-1.172,0.195v5.859c-0.358-0.032-0.847-0.049-1.465-0.049c-0.619,0-1.107,0.017-1.465,0.049v-5.859
			c-0.521-0.064-0.912-0.13-1.172-0.195c-0.619-0.162-0.928-0.276-0.928-0.342c0-0.064,0.342-0.179,1.025-0.342
			c0.684-0.162,1.529-0.244,2.539-0.244c1.009,0,1.855,0.082,2.539,0.244c0.684,0.163,1.025,0.277,1.025,0.342
			C37.006,60.646,36.696,60.76,36.078,60.922z"/>
		<path fill="#A8DADC" d="M57.807,60.531c0-0.684-0.692-1.229-2.075-1.636c-1.384-0.407-2.954-0.61-4.712-0.61
			s-3.329,0.203-4.712,0.61c-1.384,0.407-2.075,0.952-2.075,1.636c0,0.749,0.813,1.335,2.441,1.758v5.176
			c-1.628,0.488-2.441,1.074-2.441,1.758c0,0.749,0.813,1.335,2.441,1.758v5.127c-1.628,0.488-2.441,1.091-2.441,1.807
			c0,0.749,0.699,1.303,2.1,1.66c1.399,0.358,2.962,0.537,4.688,0.537c1.725,0,3.287-0.179,4.688-0.537
			c1.399-0.357,2.1-0.911,2.1-1.66c0-0.716-0.814-1.318-2.441-1.807V70.98c1.627-0.423,2.441-1.009,2.441-1.758
			c0-0.684-0.814-1.27-2.441-1.758v-5.176C56.992,61.866,57.807,61.28,57.807,60.531z M53.559,78.134
			c-0.684,0.146-1.53,0.22-2.539,0.22c-1.01,0-1.855-0.073-2.539-0.22s-1.025-0.252-1.025-0.317c0-0.064,0.309-0.179,0.928-0.342
			c0.26-0.064,0.65-0.13,1.172-0.195V71.42c0.357,0.033,0.846,0.049,1.465,0.049c0.618,0,1.106-0.016,1.465-0.049v5.859
			c0.521,0.065,0.911,0.131,1.172,0.195c0.618,0.163,0.928,0.277,0.928,0.342C54.584,77.882,54.242,77.987,53.559,78.134z
			 M53.559,69.54c-0.684,0.146-1.53,0.22-2.539,0.22c-1.01,0-1.855-0.073-2.539-0.22s-1.025-0.252-1.025-0.317
			c0-0.064,0.342-0.179,1.025-0.342c0.684-0.162,1.529-0.244,2.539-0.244c1.009,0,1.855,0.082,2.539,0.244
			c0.684,0.163,1.025,0.277,1.025,0.342C54.584,69.288,54.242,69.394,53.559,69.54z M53.656,60.922
			c-0.261,0.065-0.651,0.131-1.172,0.195v5.859c-0.358-0.032-0.847-0.049-1.465-0.049c-0.619,0-1.107,0.017-1.465,0.049v-5.859
			c-0.521-0.064-0.912-0.13-1.172-0.195c-0.619-0.162-0.928-0.276-0.928-0.342c0-0.064,0.342-0.179,1.025-0.342
			c0.684-0.162,1.529-0.244,2.539-0.244c1.009,0,1.855,0.082,2.539,0.244c0.684,0.163,1.025,0.277,1.025,0.342
			C54.584,60.646,54.274,60.76,53.656,60.922z"/>
		<path fill="#E63946" d="M40.229,8.871c0-0.684-0.692-1.229-2.075-1.636c-1.384-0.407-2.954-0.61-4.712-0.61
			s-3.329,0.203-4.712,0.61c-1.384,0.407-2.075,0.952-2.075,1.636c0,0.749,0.813,1.335,2.441,1.758v5.176
			c-1.628,0.488-2.441,1.074-2.441,1.758c0,0.749,0.813,1.335,2.441,1.758v5.127c-1.628,0.488-2.441,1.091-2.441,1.807
			c0,0.749,0.699,1.303,2.1,1.66c1.399,0.358,2.962,0.537,4.688,0.537c1.725,0,3.287-0.179,4.688-0.537
			c1.399-0.357,2.1-0.911,2.1-1.66c0-0.716-0.814-1.318-2.441-1.807V19.32c1.627-0.423,2.441-1.009,2.441-1.758
			c0-0.684-0.814-1.27-2.441-1.758v-5.176C39.414,10.206,40.229,9.62,40.229,8.871z M35.98,26.474
			c-0.684,0.146-1.53,0.22-2.539,0.22c-1.01,0-1.855-0.073-2.539-0.22s-1.025-0.252-1.025-0.317c0-0.064,0.309-0.179,0.928-0.342
			c0.26-0.064,0.65-0.13,1.172-0.195V19.76c0.357,0.033,0.846,0.049,1.465,0.049c0.618,0,1.106-0.016,1.465-0.049v5.859
			c0.521,0.065,0.911,0.131,1.172,0.195c0.618,0.163,0.928,0.277,0.928,0.342C37.006,26.222,36.664,26.327,35.98,26.474z
			 M35.98,17.88c-0.684,0.146-1.53,0.22-2.539,0.22c-1.01,0-1.855-0.073-2.539-0.22s-1.025-0.252-1.025-0.317
			c0-0.064,0.342-0.179,1.025-0.342c0.684-0.162,1.529-0.244,2.539-0.244c1.009,0,1.855,0.082,2.539,0.244
			c0.684,0.163,1.025,0.277,1.025,0.342C37.006,17.628,36.664,17.733,35.98,17.88z M36.078,9.262
			c-0.261,0.065-0.651,0.131-1.172,0.195v5.859c-0.358-0.032-0.847-0.049-1.465-0.049c-0.619,0-1.107,0.017-1.465,0.049V9.457
			c-0.521-0.064-0.912-0.13-1.172-0.195C30.186,9.1,29.877,8.985,29.877,8.92c0-0.064,0.342-0.179,1.025-0.342
			c0.684-0.162,1.529-0.244,2.539-0.244c1.009,0,1.855,0.082,2.539,0.244c0.684,0.163,1.025,0.277,1.025,0.342
			C37.006,8.985,36.696,9.1,36.078,9.262z"/>
		<path fill="#A8DADC" d="M22.65,8.871c0-0.684-0.692-1.229-2.075-1.636c-1.384-0.407-2.954-0.61-4.712-0.61
			s-3.329,0.203-4.712,0.61C9.768,7.643,9.076,8.188,9.076,8.871c0,0.749,0.813,1.335,2.441,1.758v5.176
			c-1.628,0.488-2.441,1.074-2.441,1.758c0,0.749,0.813,1.335,2.441,1.758v5.127c-1.628,0.488-2.441,1.091-2.441,1.807
			c0,0.749,0.699,1.303,2.1,1.66c1.399,0.358,2.962,0.537,4.688,0.537c1.725,0,3.287-0.179,4.688-0.537
			c1.399-0.357,2.1-0.911,2.1-1.66c0-0.716-0.814-1.318-2.441-1.807V19.32c1.627-0.423,2.441-1.009,2.441-1.758
			c0-0.684-0.814-1.27-2.441-1.758v-5.176C21.836,10.206,22.65,9.62,22.65,8.871z M18.402,26.474c-0.684,0.146-1.53,0.22-2.539,0.22
			c-1.01,0-1.855-0.073-2.539-0.22s-1.025-0.252-1.025-0.317c0-0.064,0.309-0.179,0.928-0.342c0.26-0.064,0.65-0.13,1.172-0.195
			V19.76c0.357,0.033,0.846,0.049,1.465,0.049c0.618,0,1.106-0.016,1.465-0.049v5.859c0.521,0.065,0.911,0.131,1.172,0.195
			c0.618,0.163,0.928,0.277,0.928,0.342C19.428,26.222,19.086,26.327,18.402,26.474z M18.402,17.88
			c-0.684,0.146-1.53,0.22-2.539,0.22c-1.01,0-1.855-0.073-2.539-0.22s-1.025-0.252-1.025-0.317c0-0.064,0.342-0.179,1.025-0.342
			c0.684-0.162,1.529-0.244,2.539-0.244c1.009,0,1.855,0.082,2.539,0.244c0.684,0.163,1.025,0.277,1.025,0.342
			C19.428,17.628,19.086,17.733,18.402,17.88z M18.5,9.262c-0.261,0.065-0.651,0.131-1.172,0.195v5.859
			c-0.358-0.032-0.847-0.049-1.465-0.049c-0.619,0-1.107,0.017-1.465,0.049V9.457c-0.521-0.064-0.912-0.13-1.172-0.195
			C12.607,9.1,12.299,8.985,12.299,8.92c0-0.064,0.342-0.179,1.025-0.342c0.684-0.162,1.529-0.244,2.539-0.244
			c1.009,0,1.855,0.082,2.539,0.244c0.684,0.163,1.025,0.277,1.025,0.342C19.428,8.985,19.118,9.1,18.5,9.262z"/>
		<path fill="#A8DADC" d="M22.65,34.701c0-0.684-0.692-1.229-2.075-1.636c-1.384-0.407-2.954-0.61-4.712-0.61
			s-3.329,0.203-4.712,0.61c-1.384,0.407-2.075,0.952-2.075,1.636c0,0.749,0.813,1.335,2.441,1.758v5.176
			c-1.628,0.488-2.441,1.074-2.441,1.758c0,0.749,0.813,1.335,2.441,1.758v5.127c-1.628,0.488-2.441,1.091-2.441,1.807
			c0,0.749,0.699,1.303,2.1,1.66c1.399,0.358,2.962,0.537,4.688,0.537c1.725,0,3.287-0.179,4.688-0.537
			c1.399-0.357,2.1-0.911,2.1-1.66c0-0.716-0.814-1.318-2.441-1.807V45.15c1.627-0.423,2.441-1.009,2.441-1.758
			c0-0.684-0.814-1.27-2.441-1.758v-5.176C21.836,36.036,22.65,35.45,22.65,34.701z M18.402,52.304
			c-0.684,0.146-1.53,0.22-2.539,0.22c-1.01,0-1.855-0.073-2.539-0.22s-1.025-0.252-1.025-0.317c0-0.064,0.309-0.179,0.928-0.342
			c0.26-0.064,0.65-0.13,1.172-0.195V45.59c0.357,0.033,0.846,0.049,1.465,0.049c0.618,0,1.106-0.016,1.465-0.049v5.859
			c0.521,0.065,0.911,0.131,1.172,0.195c0.618,0.163,0.928,0.277,0.928,0.342C19.428,52.052,19.086,52.157,18.402,52.304z
			 M18.402,43.71c-0.684,0.146-1.53,0.22-2.539,0.22c-1.01,0-1.855-0.073-2.539-0.22s-1.025-0.252-1.025-0.317
			c0-0.064,0.342-0.179,1.025-0.342c0.684-0.162,1.529-0.244,2.539-0.244c1.009,0,1.855,0.082,2.539,0.244
			c0.684,0.163,1.025,0.277,1.025,0.342C19.428,43.458,19.086,43.563,18.402,43.71z M18.5,35.092
			c-0.261,0.065-0.651,0.131-1.172,0.195v5.859c-0.358-0.032-0.847-0.049-1.465-0.049c-0.619,0-1.107,0.017-1.465,0.049v-5.859
			c-0.521-0.064-0.912-0.13-1.172-0.195c-0.619-0.162-0.928-0.276-0.928-0.342c0-0.064,0.342-0.179,1.025-0.342
			c0.684-0.162,1.529-0.244,2.539-0.244c1.009,0,1.855,0.082,2.539,0.244c0.684,0.163,1.025,0.277,1.025,0.342
			C19.428,34.815,19.118,34.93,18.5,35.092z"/>
		<path fill="#A8DADC" d="M57.807,34.701c0-0.684-0.692-1.229-2.075-1.636c-1.384-0.407-2.954-0.61-4.712-0.61
			s-3.329,0.203-4.712,0.61c-1.384,0.407-2.075,0.952-2.075,1.636c0,0.749,0.813,1.335,2.441,1.758v5.176
			c-1.628,0.488-2.441,1.074-2.441,1.758c0,0.749,0.813,1.335,2.441,1.758v5.127c-1.628,0.488-2.441,1.091-2.441,1.807
			c0,0.749,0.699,1.303,2.1,1.66c1.399,0.358,2.962,0.537,4.688,0.537c1.725,0,3.287-0.179,4.688-0.537
			c1.399-0.357,2.1-0.911,2.1-1.66c0-0.716-0.814-1.318-2.441-1.807V45.15c1.627-0.423,2.441-1.009,2.441-1.758
			c0-0.684-0.814-1.27-2.441-1.758v-5.176C56.992,36.036,57.807,35.45,57.807,34.701z M53.559,52.304
			c-0.684,0.146-1.53,0.22-2.539,0.22c-1.01,0-1.855-0.073-2.539-0.22s-1.025-0.252-1.025-0.317c0-0.064,0.309-0.179,0.928-0.342
			c0.26-0.064,0.65-0.13,1.172-0.195V45.59c0.357,0.033,0.846,0.049,1.465,0.049c0.618,0,1.106-0.016,1.465-0.049v5.859
			c0.521,0.065,0.911,0.131,1.172,0.195c0.618,0.163,0.928,0.277,0.928,0.342C54.584,52.052,54.242,52.157,53.559,52.304z
			 M53.559,43.71c-0.684,0.146-1.53,0.22-2.539,0.22c-1.01,0-1.855-0.073-2.539-0.22s-1.025-0.252-1.025-0.317
			c0-0.064,0.342-0.179,1.025-0.342c0.684-0.162,1.529-0.244,2.539-0.244c1.009,0,1.855,0.082,2.539,0.244
			c0.684,0.163,1.025,0.277,1.025,0.342C54.584,43.458,54.242,43.563,53.559,43.71z M53.656,35.092
			c-0.261,0.065-0.651,0.131-1.172,0.195v5.859c-0.358-0.032-0.847-0.049-1.465-0.049c-0.619,0-1.107,0.017-1.465,0.049v-5.859
			c-0.521-0.064-0.912-0.13-1.172-0.195c-0.619-0.162-0.928-0.276-0.928-0.342c0-0.064,0.342-0.179,1.025-0.342
			c0.684-0.162,1.529-0.244,2.539-0.244c1.009,0,1.855,0.082,2.539,0.244c0.684,0.163,1.025,0.277,1.025,0.342
			C54.584,34.815,54.274,34.93,53.656,35.092z"/>
	</g>
</g>
</svg>
